ISO-10303-21;
HEADER;
/* Generated by software containing ST-Developer
 * from STEP Tools, Inc. (www.steptools.com) 
 */

FILE_DESCRIPTION(
/* description */ (''),
/* implementation_level */ '2;1');

FILE_NAME(
/* name */ 'F:\\Briefkastenschloss.stp',
/* time_stamp */ '2026-05-15T18:52:30+02:00',
/* author */ ('SvenW'),
/* organization */ (''),
/* preprocessor_version */ 'ST-DEVELOPER v15.2',
/* originating_system */ 'Autodesk Inventor 2014',
/* authorisation */ '');

FILE_SCHEMA (('AUTOMOTIVE_DESIGN { 1 0 10303 214 3 1 1 }'));
ENDSEC;

DATA;
#10=MECHANICAL_DESIGN_GEOMETRIC_PRESENTATION_REPRESENTATION('',(#15,#14,
#16,#17),#1496);
#11=SHAPE_REPRESENTATION_RELATIONSHIP('SRR','None',#1505,#12);
#12=ADVANCED_BREP_SHAPE_REPRESENTATION($,(#890),#1495);
#13=CONICAL_SURFACE('',#971,9.75,26.565051177078);
#14=STYLED_ITEM('',(#1515),#862);
#15=STYLED_ITEM('',(#1515),#884);
#16=STYLED_ITEM('',(#1515),#888);
#17=STYLED_ITEM('',(#1514),#890);
#18=CYLINDRICAL_SURFACE('',#908,9.49999999999999);
#19=CYLINDRICAL_SURFACE('',#913,9.50000000000001);
#20=CYLINDRICAL_SURFACE('',#918,9.50000000000001);
#21=CYLINDRICAL_SURFACE('',#925,11.5);
#22=CYLINDRICAL_SURFACE('',#931,5.);
#23=CYLINDRICAL_SURFACE('',#937,5.);
#24=CYLINDRICAL_SURFACE('',#939,5.);
#25=CYLINDRICAL_SURFACE('',#946,5.);
#26=CYLINDRICAL_SURFACE('',#953,5.00000000000001);
#27=CYLINDRICAL_SURFACE('',#956,2.00000000000001);
#28=CYLINDRICAL_SURFACE('',#961,5.);
#29=CYLINDRICAL_SURFACE('',#964,8.);
#30=CYLINDRICAL_SURFACE('',#973,9.49999999999999);
#31=CYLINDRICAL_SURFACE('',#974,6.50000000000001);
#32=FACE_BOUND('',#139,.T.);
#33=FACE_BOUND('',#141,.T.);
#34=FACE_BOUND('',#142,.T.);
#35=FACE_BOUND('',#146,.T.);
#36=FACE_BOUND('',#148,.T.);
#37=FACE_BOUND('',#163,.T.);
#38=FACE_BOUND('',#177,.T.);
#39=FACE_BOUND('',#180,.T.);
#40=FACE_BOUND('',#182,.T.);
#41=FACE_BOUND('',#183,.T.);
#42=CIRCLE('',#905,11.5);
#43=CIRCLE('',#906,9.49999999999999);
#44=CIRCLE('',#907,9.49999999999999);
#45=CIRCLE('',#909,9.5);
#46=CIRCLE('',#911,9.5);
#47=CIRCLE('',#912,11.5);
#48=CIRCLE('',#914,9.50000000000001);
#49=CIRCLE('',#915,9.50000000000001);
#50=CIRCLE('',#916,9.50000000000001);
#51=CIRCLE('',#917,9.5);
#52=CIRCLE('',#919,9.5);
#53=CIRCLE('',#920,9.50000000000001);
#54=CIRCLE('',#921,9.50000000000001);
#55=CIRCLE('',#922,9.50000000000001);
#56=CIRCLE('',#924,11.5);
#57=CIRCLE('',#932,5.);
#58=CIRCLE('',#933,5.);
#59=CIRCLE('',#935,5.);
#60=CIRCLE('',#938,5.);
#61=CIRCLE('',#940,5.);
#62=CIRCLE('',#941,5.);
#63=CIRCLE('',#942,5.);
#64=CIRCLE('',#945,5.);
#65=CIRCLE('',#947,5.);
#66=CIRCLE('',#948,5.);
#67=CIRCLE('',#950,6.50000000000001);
#68=CIRCLE('',#954,5.00000000000004);
#69=CIRCLE('',#955,5.00000000000004);
#70=CIRCLE('',#957,2.00000000000002);
#71=CIRCLE('',#958,2.00000000000002);
#72=CIRCLE('',#962,4.99999999999998);
#73=CIRCLE('',#963,4.99999999999998);
#74=CIRCLE('',#965,7.99999999999994);
#75=CIRCLE('',#966,7.99999999999994);
#76=CIRCLE('',#972,8.);
#77=CIRCLE('',#975,6.50000000000001);
#78=FACE_OUTER_BOUND('',#126,.T.);
#79=FACE_OUTER_BOUND('',#127,.T.);
#80=FACE_OUTER_BOUND('',#128,.T.);
#81=FACE_OUTER_BOUND('',#129,.T.);
#82=FACE_OUTER_BOUND('',#130,.T.);
#83=FACE_OUTER_BOUND('',#131,.T.);
#84=FACE_OUTER_BOUND('',#132,.T.);
#85=FACE_OUTER_BOUND('',#133,.T.);
#86=FACE_OUTER_BOUND('',#134,.T.);
#87=FACE_OUTER_BOUND('',#135,.T.);
#88=FACE_OUTER_BOUND('',#136,.T.);
#89=FACE_OUTER_BOUND('',#137,.T.);
#90=FACE_OUTER_BOUND('',#138,.T.);
#91=FACE_OUTER_BOUND('',#140,.T.);
#92=FACE_OUTER_BOUND('',#143,.T.);
#93=FACE_OUTER_BOUND('',#144,.T.);
#94=FACE_OUTER_BOUND('',#145,.T.);
#95=FACE_OUTER_BOUND('',#147,.T.);
#96=FACE_OUTER_BOUND('',#149,.T.);
#97=FACE_OUTER_BOUND('',#150,.T.);
#98=FACE_OUTER_BOUND('',#151,.T.);
#99=FACE_OUTER_BOUND('',#152,.T.);
#100=FACE_OUTER_BOUND('',#153,.T.);
#101=FACE_OUTER_BOUND('',#154,.T.);
#102=FACE_OUTER_BOUND('',#155,.T.);
#103=FACE_OUTER_BOUND('',#156,.T.);
#104=FACE_OUTER_BOUND('',#157,.T.);
#105=FACE_OUTER_BOUND('',#158,.T.);
#106=FACE_OUTER_BOUND('',#159,.T.);
#107=FACE_OUTER_BOUND('',#160,.T.);
#108=FACE_OUTER_BOUND('',#161,.T.);
#109=FACE_OUTER_BOUND('',#162,.T.);
#110=FACE_OUTER_BOUND('',#164,.T.);
#111=FACE_OUTER_BOUND('',#165,.T.);
#112=FACE_OUTER_BOUND('',#166,.T.);
#113=FACE_OUTER_BOUND('',#167,.T.);
#114=FACE_OUTER_BOUND('',#168,.T.);
#115=FACE_OUTER_BOUND('',#169,.T.);
#116=FACE_OUTER_BOUND('',#170,.T.);
#117=FACE_OUTER_BOUND('',#171,.T.);
#118=FACE_OUTER_BOUND('',#172,.T.);
#119=FACE_OUTER_BOUND('',#173,.T.);
#120=FACE_OUTER_BOUND('',#174,.T.);
#121=FACE_OUTER_BOUND('',#175,.T.);
#122=FACE_OUTER_BOUND('',#176,.T.);
#123=FACE_OUTER_BOUND('',#178,.T.);
#124=FACE_OUTER_BOUND('',#179,.T.);
#125=FACE_OUTER_BOUND('',#181,.T.);
#126=EDGE_LOOP('',(#560,#561,#562,#563));
#127=EDGE_LOOP('',(#564,#565,#566,#567));
#128=EDGE_LOOP('',(#568,#569,#570,#571));
#129=EDGE_LOOP('',(#572,#573,#574,#575));
#130=EDGE_LOOP('',(#576,#577,#578,#579));
#131=EDGE_LOOP('',(#580,#581,#582,#583));
#132=EDGE_LOOP('',(#584,#585,#586,#587));
#133=EDGE_LOOP('',(#588,#589,#590,#591));
#134=EDGE_LOOP('',(#592,#593,#594,#595));
#135=EDGE_LOOP('',(#596,#597,#598,#599));
#136=EDGE_LOOP('',(#600,#601,#602,#603));
#137=EDGE_LOOP('',(#604,#605,#606,#607));
#138=EDGE_LOOP('',(#608));
#139=EDGE_LOOP('',(#609,#610,#611,#612,#613,#614,#615,#616));
#140=EDGE_LOOP('',(#617,#618,#619,#620));
#141=EDGE_LOOP('',(#621,#622,#623,#624,#625,#626,#627,#628));
#142=EDGE_LOOP('',(#629));
#143=EDGE_LOOP('',(#630,#631,#632,#633,#634,#635));
#144=EDGE_LOOP('',(#636,#637,#638,#639,#640,#641));
#145=EDGE_LOOP('',(#642));
#146=EDGE_LOOP('',(#643,#644,#645,#646,#647,#648,#649,#650));
#147=EDGE_LOOP('',(#651));
#148=EDGE_LOOP('',(#652));
#149=EDGE_LOOP('',(#653,#654,#655,#656));
#150=EDGE_LOOP('',(#657,#658,#659,#660));
#151=EDGE_LOOP('',(#661,#662,#663,#664));
#152=EDGE_LOOP('',(#665,#666,#667,#668));
#153=EDGE_LOOP('',(#669,#670,#671,#672));
#154=EDGE_LOOP('',(#673,#674,#675,#676));
#155=EDGE_LOOP('',(#677,#678,#679,#680,#681,#682));
#156=EDGE_LOOP('',(#683,#684,#685,#686));
#157=EDGE_LOOP('',(#687,#688,#689,#690));
#158=EDGE_LOOP('',(#691,#692,#693,#694,#695));
#159=EDGE_LOOP('',(#696,#697,#698,#699));
#160=EDGE_LOOP('',(#700,#701,#702,#703,#704,#705,#706,#707));
#161=EDGE_LOOP('',(#708,#709,#710,#711,#712));
#162=EDGE_LOOP('',(#713,#714,#715,#716,#717,#718));
#163=EDGE_LOOP('',(#719));
#164=EDGE_LOOP('',(#720,#721,#722,#723,#724,#725,#726,#727));
#165=EDGE_LOOP('',(#728,#729,#730,#731,#732,#733));
#166=EDGE_LOOP('',(#734,#735,#736,#737));
#167=EDGE_LOOP('',(#738,#739,#740,#741));
#168=EDGE_LOOP('',(#742,#743,#744,#745));
#169=EDGE_LOOP('',(#746,#747,#748,#749));
#170=EDGE_LOOP('',(#750,#751,#752,#753));
#171=EDGE_LOOP('',(#754,#755,#756,#757));
#172=EDGE_LOOP('',(#758,#759,#760,#761,#762,#763,#764,#765,#766,#767,#768,
#769,#770));
#173=EDGE_LOOP('',(#771,#772,#773,#774,#775,#776,#777,#778,#779,#780,#781,
#782,#783));
#174=EDGE_LOOP('',(#784,#785,#786));
#175=EDGE_LOOP('',(#787,#788,#789));
#176=EDGE_LOOP('',(#790));
#177=EDGE_LOOP('',(#791));
#178=EDGE_LOOP('',(#792,#793,#794,#795));
#179=EDGE_LOOP('',(#796));
#180=EDGE_LOOP('',(#797));
#181=EDGE_LOOP('',(#798));
#182=EDGE_LOOP('',(#799,#800,#801,#802));
#183=EDGE_LOOP('',(#803));
#184=LINE('',#1242,#270);
#185=LINE('',#1244,#271);
#186=LINE('',#1246,#272);
#187=LINE('',#1247,#273);
#188=LINE('',#1251,#274);
#189=LINE('',#1253,#275);
#190=LINE('',#1255,#276);
#191=LINE('',#1256,#277);
#192=LINE('',#1260,#278);
#193=LINE('',#1262,#279);
#194=LINE('',#1264,#280);
#195=LINE('',#1265,#281);
#196=LINE('',#1267,#282);
#197=LINE('',#1268,#283);
#198=LINE('',#1271,#284);
#199=LINE('',#1273,#285);
#200=LINE('',#1274,#286);
#201=LINE('',#1278,#287);
#202=LINE('',#1279,#288);
#203=LINE('',#1280,#289);
#204=LINE('',#1284,#290);
#205=LINE('',#1286,#291);
#206=LINE('',#1288,#292);
#207=LINE('',#1289,#293);
#208=LINE('',#1293,#294);
#209=LINE('',#1295,#295);
#210=LINE('',#1297,#296);
#211=LINE('',#1298,#297);
#212=LINE('',#1302,#298);
#213=LINE('',#1304,#299);
#214=LINE('',#1306,#300);
#215=LINE('',#1307,#301);
#216=LINE('',#1309,#302);
#217=LINE('',#1310,#303);
#218=LINE('',#1313,#304);
#219=LINE('',#1315,#305);
#220=LINE('',#1316,#306);
#221=LINE('',#1320,#307);
#222=LINE('',#1321,#308);
#223=LINE('',#1322,#309);
#224=LINE('',#1355,#310);
#225=LINE('',#1357,#311);
#226=LINE('',#1359,#312);
#227=LINE('',#1360,#313);
#228=LINE('',#1363,#314);
#229=LINE('',#1365,#315);
#230=LINE('',#1366,#316);
#231=LINE('',#1369,#317);
#232=LINE('',#1371,#318);
#233=LINE('',#1372,#319);
#234=LINE('',#1374,#320);
#235=LINE('',#1375,#321);
#236=LINE('',#1382,#322);
#237=LINE('',#1385,#323);
#238=LINE('',#1388,#324);
#239=LINE('',#1392,#325);
#240=LINE('',#1394,#326);
#241=LINE('',#1395,#327);
#242=LINE('',#1398,#328);
#243=LINE('',#1399,#329);
#244=LINE('',#1403,#330);
#245=LINE('',#1408,#331);
#246=LINE('',#1412,#332);
#247=LINE('',#1416,#333);
#248=LINE('',#1418,#334);
#249=LINE('',#1419,#335);
#250=LINE('',#1427,#336);
#251=LINE('',#1430,#337);
#252=LINE('',#1432,#338);
#253=LINE('',#1433,#339);
#254=LINE('',#1438,#340);
#255=LINE('',#1440,#341);
#256=LINE('',#1441,#342);
#257=LINE('',#1444,#343);
#258=LINE('',#1446,#344);
#259=LINE('',#1447,#345);
#260=LINE('',#1451,#346);
#261=LINE('',#1457,#347);
#262=LINE('',#1463,#348);
#263=LINE('',#1464,#349);
#264=LINE('',#1465,#350);
#265=LINE('',#1469,#351);
#266=LINE('',#1470,#352);
#267=LINE('',#1471,#353);
#268=LINE('',#1479,#354);
#269=LINE('',#1481,#355);
#270=VECTOR('',#982,6.18160766661082);
#271=VECTOR('',#983,0.0777472107017518);
#272=VECTOR('',#984,6.18160766661082);
#273=VECTOR('',#985,0.0777472107017529);
#274=VECTOR('',#988,9.81839233338919);
#275=VECTOR('',#989,0.0777472107017696);
#276=VECTOR('',#990,9.81839233338919);
#277=VECTOR('',#991,0.0777472107017574);
#278=VECTOR('',#994,6.18160766661082);
#279=VECTOR('',#995,0.0777472107017518);
#280=VECTOR('',#996,6.18160766661082);
#281=VECTOR('',#997,0.0777472107017485);
#282=VECTOR('',#1000,10.);
#283=VECTOR('',#1001,10.);
#284=VECTOR('',#1004,10.);
#285=VECTOR('',#1005,10.);
#286=VECTOR('',#1006,9.81839233338919);
#287=VECTOR('',#1009,9.81839233338919);
#288=VECTOR('',#1010,0.0777472107017607);
#289=VECTOR('',#1011,0.0777472107017629);
#290=VECTOR('',#1014,9.81839233338919);
#291=VECTOR('',#1015,0.0777472107017596);
#292=VECTOR('',#1016,9.81839233338919);
#293=VECTOR('',#1017,0.0777472107017685);
#294=VECTOR('',#1020,6.18160766661082);
#295=VECTOR('',#1021,0.0777472107017541);
#296=VECTOR('',#1022,6.18160766661082);
#297=VECTOR('',#1023,0.0777472107017552);
#298=VECTOR('',#1026,9.81839233338919);
#299=VECTOR('',#1027,0.0777472107017618);
#300=VECTOR('',#1028,9.81839233338919);
#301=VECTOR('',#1029,0.0777472107017629);
#302=VECTOR('',#1032,10.);
#303=VECTOR('',#1033,10.);
#304=VECTOR('',#1036,10.);
#305=VECTOR('',#1037,10.);
#306=VECTOR('',#1038,6.18160766661082);
#307=VECTOR('',#1041,6.18160766661082);
#308=VECTOR('',#1042,0.0777472107017518);
#309=VECTOR('',#1043,0.0777472107017529);
#310=VECTOR('',#1090,2.69274597752268);
#311=VECTOR('',#1091,1.);
#312=VECTOR('',#1092,2.69274597752268);
#313=VECTOR('',#1093,1.);
#314=VECTOR('',#1096,10.5401769035757);
#315=VECTOR('',#1097,1.);
#316=VECTOR('',#1098,10.5401769035757);
#317=VECTOR('',#1101,2.69274597752268);
#318=VECTOR('',#1102,1.);
#319=VECTOR('',#1103,2.69274597752268);
#320=VECTOR('',#1106,10.5401769035757);
#321=VECTOR('',#1107,10.5401769035757);
#322=VECTOR('',#1114,3.);
#323=VECTOR('',#1117,3.);
#324=VECTOR('',#1120,5.);
#325=VECTOR('',#1123,7.92893218813453);
#326=VECTOR('',#1124,15.);
#327=VECTOR('',#1125,7.92893218813453);
#328=VECTOR('',#1128,4.99999999999999);
#329=VECTOR('',#1129,3.);
#330=VECTOR('',#1134,3.);
#331=VECTOR('',#1139,3.);
#332=VECTOR('',#1142,3.);
#333=VECTOR('',#1147,5.);
#334=VECTOR('',#1148,3.);
#335=VECTOR('',#1149,5.);
#336=VECTOR('',#1160,3.);
#337=VECTOR('',#1163,17.9289321881345);
#338=VECTOR('',#1164,15.);
#339=VECTOR('',#1165,17.9289321881345);
#340=VECTOR('',#1170,7.09798029328921);
#341=VECTOR('',#1171,15.);
#342=VECTOR('',#1172,7.09798029328921);
#343=VECTOR('',#1175,7.92893218813453);
#344=VECTOR('',#1176,15.);
#345=VECTOR('',#1177,7.92893218813453);
#346=VECTOR('',#1180,15.);
#347=VECTOR('',#1187,15.);
#348=VECTOR('',#1194,15.);
#349=VECTOR('',#1195,7.17157287525382);
#350=VECTOR('',#1196,7.17157287525382);
#351=VECTOR('',#1199,15.);
#352=VECTOR('',#1200,7.17157287525382);
#353=VECTOR('',#1201,7.17157287525382);
#354=VECTOR('',#1216,10.8309518948453);
#355=VECTOR('',#1219,10.8309518948453);
#356=VERTEX_POINT('',#1240);
#357=VERTEX_POINT('',#1241);
#358=VERTEX_POINT('',#1243);
#359=VERTEX_POINT('',#1245);
#360=VERTEX_POINT('',#1249);
#361=VERTEX_POINT('',#1250);
#362=VERTEX_POINT('',#1252);
#363=VERTEX_POINT('',#1254);
#364=VERTEX_POINT('',#1258);
#365=VERTEX_POINT('',#1259);
#366=VERTEX_POINT('',#1261);
#367=VERTEX_POINT('',#1263);
#368=VERTEX_POINT('',#1270);
#369=VERTEX_POINT('',#1272);
#370=VERTEX_POINT('',#1276);
#371=VERTEX_POINT('',#1277);
#372=VERTEX_POINT('',#1282);
#373=VERTEX_POINT('',#1283);
#374=VERTEX_POINT('',#1285);
#375=VERTEX_POINT('',#1287);
#376=VERTEX_POINT('',#1291);
#377=VERTEX_POINT('',#1292);
#378=VERTEX_POINT('',#1294);
#379=VERTEX_POINT('',#1296);
#380=VERTEX_POINT('',#1300);
#381=VERTEX_POINT('',#1301);
#382=VERTEX_POINT('',#1303);
#383=VERTEX_POINT('',#1305);
#384=VERTEX_POINT('',#1312);
#385=VERTEX_POINT('',#1314);
#386=VERTEX_POINT('',#1318);
#387=VERTEX_POINT('',#1319);
#388=VERTEX_POINT('',#1324);
#389=VERTEX_POINT('',#1332);
#390=VERTEX_POINT('',#1335);
#391=VERTEX_POINT('',#1337);
#392=VERTEX_POINT('',#1343);
#393=VERTEX_POINT('',#1345);
#394=VERTEX_POINT('',#1349);
#395=VERTEX_POINT('',#1353);
#396=VERTEX_POINT('',#1354);
#397=VERTEX_POINT('',#1356);
#398=VERTEX_POINT('',#1358);
#399=VERTEX_POINT('',#1362);
#400=VERTEX_POINT('',#1364);
#401=VERTEX_POINT('',#1368);
#402=VERTEX_POINT('',#1370);
#403=VERTEX_POINT('',#1378);
#404=VERTEX_POINT('',#1379);
#405=VERTEX_POINT('',#1381);
#406=VERTEX_POINT('',#1383);
#407=VERTEX_POINT('',#1387);
#408=VERTEX_POINT('',#1389);
#409=VERTEX_POINT('',#1391);
#410=VERTEX_POINT('',#1393);
#411=VERTEX_POINT('',#1397);
#412=VERTEX_POINT('',#1401);
#413=VERTEX_POINT('',#1405);
#414=VERTEX_POINT('',#1407);
#415=VERTEX_POINT('',#1409);
#416=VERTEX_POINT('',#1411);
#417=VERTEX_POINT('',#1415);
#418=VERTEX_POINT('',#1417);
#419=VERTEX_POINT('',#1423);
#420=VERTEX_POINT('',#1425);
#421=VERTEX_POINT('',#1429);
#422=VERTEX_POINT('',#1431);
#423=VERTEX_POINT('',#1434);
#424=VERTEX_POINT('',#1437);
#425=VERTEX_POINT('',#1439);
#426=VERTEX_POINT('',#1443);
#427=VERTEX_POINT('',#1445);
#428=VERTEX_POINT('',#1449);
#429=VERTEX_POINT('',#1450);
#430=VERTEX_POINT('',#1455);
#431=VERTEX_POINT('',#1456);
#432=VERTEX_POINT('',#1461);
#433=VERTEX_POINT('',#1462);
#434=VERTEX_POINT('',#1467);
#435=VERTEX_POINT('',#1468);
#436=VERTEX_POINT('',#1485);
#437=VERTEX_POINT('',#1489);
#438=EDGE_CURVE('',#356,#357,#184,.T.);
#439=EDGE_CURVE('',#358,#356,#185,.T.);
#440=EDGE_CURVE('',#359,#358,#186,.T.);
#441=EDGE_CURVE('',#357,#359,#187,.T.);
#442=EDGE_CURVE('',#360,#361,#188,.T.);
#443=EDGE_CURVE('',#362,#360,#189,.T.);
#444=EDGE_CURVE('',#363,#362,#190,.T.);
#445=EDGE_CURVE('',#361,#363,#191,.T.);
#446=EDGE_CURVE('',#364,#365,#192,.T.);
#447=EDGE_CURVE('',#366,#364,#193,.T.);
#448=EDGE_CURVE('',#367,#366,#194,.T.);
#449=EDGE_CURVE('',#365,#367,#195,.T.);
#450=EDGE_CURVE('',#366,#359,#196,.T.);
#451=EDGE_CURVE('',#367,#358,#197,.T.);
#452=EDGE_CURVE('',#368,#363,#198,.T.);
#453=EDGE_CURVE('',#369,#362,#199,.T.);
#454=EDGE_CURVE('',#369,#368,#200,.T.);
#455=EDGE_CURVE('',#370,#371,#201,.T.);
#456=EDGE_CURVE('',#368,#370,#202,.T.);
#457=EDGE_CURVE('',#371,#369,#203,.T.);
#458=EDGE_CURVE('',#372,#373,#204,.T.);
#459=EDGE_CURVE('',#374,#372,#205,.T.);
#460=EDGE_CURVE('',#375,#374,#206,.T.);
#461=EDGE_CURVE('',#373,#375,#207,.T.);
#462=EDGE_CURVE('',#376,#377,#208,.T.);
#463=EDGE_CURVE('',#378,#376,#209,.T.);
#464=EDGE_CURVE('',#379,#378,#210,.T.);
#465=EDGE_CURVE('',#377,#379,#211,.T.);
#466=EDGE_CURVE('',#380,#381,#212,.T.);
#467=EDGE_CURVE('',#382,#380,#213,.T.);
#468=EDGE_CURVE('',#383,#382,#214,.T.);
#469=EDGE_CURVE('',#381,#383,#215,.T.);
#470=EDGE_CURVE('',#375,#382,#216,.T.);
#471=EDGE_CURVE('',#374,#383,#217,.T.);
#472=EDGE_CURVE('',#379,#384,#218,.T.);
#473=EDGE_CURVE('',#378,#385,#219,.T.);
#474=EDGE_CURVE('',#385,#384,#220,.T.);
#475=EDGE_CURVE('',#386,#387,#221,.T.);
#476=EDGE_CURVE('',#384,#386,#222,.T.);
#477=EDGE_CURVE('',#387,#385,#223,.T.);
#478=EDGE_CURVE('',#388,#388,#42,.T.);
#479=EDGE_CURVE('',#387,#364,#43,.T.);
#480=EDGE_CURVE('',#357,#376,#44,.T.);
#481=EDGE_CURVE('',#386,#365,#45,.T.);
#482=EDGE_CURVE('',#356,#377,#46,.T.);
#483=EDGE_CURVE('',#389,#389,#47,.T.);
#484=EDGE_CURVE('',#390,#371,#48,.T.);
#485=EDGE_CURVE('',#391,#390,#49,.T.);
#486=EDGE_CURVE('',#380,#391,#50,.T.);
#487=EDGE_CURVE('',#381,#370,#51,.T.);
#488=EDGE_CURVE('',#361,#372,#52,.T.);
#489=EDGE_CURVE('',#392,#373,#53,.T.);
#490=EDGE_CURVE('',#393,#392,#54,.T.);
#491=EDGE_CURVE('',#360,#393,#55,.T.);
#492=EDGE_CURVE('',#394,#394,#56,.T.);
#493=EDGE_CURVE('',#395,#396,#224,.T.);
#494=EDGE_CURVE('',#395,#397,#225,.T.);
#495=EDGE_CURVE('',#397,#398,#226,.T.);
#496=EDGE_CURVE('',#396,#398,#227,.T.);
#497=EDGE_CURVE('',#399,#395,#228,.T.);
#498=EDGE_CURVE('',#399,#400,#229,.T.);
#499=EDGE_CURVE('',#400,#397,#230,.T.);
#500=EDGE_CURVE('',#401,#399,#231,.T.);
#501=EDGE_CURVE('',#401,#402,#232,.T.);
#502=EDGE_CURVE('',#402,#400,#233,.T.);
#503=EDGE_CURVE('',#396,#401,#234,.T.);
#504=EDGE_CURVE('',#398,#402,#235,.T.);
#505=EDGE_CURVE('',#403,#404,#57,.T.);
#506=EDGE_CURVE('',#404,#405,#236,.T.);
#507=EDGE_CURVE('',#405,#406,#58,.T.);
#508=EDGE_CURVE('',#406,#403,#237,.T.);
#509=EDGE_CURVE('',#407,#405,#238,.T.);
#510=EDGE_CURVE('',#408,#407,#59,.T.);
#511=EDGE_CURVE('',#409,#408,#239,.T.);
#512=EDGE_CURVE('',#409,#410,#240,.T.);
#513=EDGE_CURVE('',#410,#406,#241,.T.);
#514=EDGE_CURVE('',#404,#411,#242,.T.);
#515=EDGE_CURVE('',#407,#411,#243,.T.);
#516=EDGE_CURVE('',#411,#412,#60,.T.);
#517=EDGE_CURVE('',#412,#408,#244,.T.);
#518=EDGE_CURVE('',#392,#413,#61,.T.);
#519=EDGE_CURVE('',#413,#414,#245,.T.);
#520=EDGE_CURVE('',#414,#415,#62,.T.);
#521=EDGE_CURVE('',#415,#416,#246,.T.);
#522=EDGE_CURVE('',#416,#392,#63,.F.);
#523=EDGE_CURVE('',#413,#417,#247,.T.);
#524=EDGE_CURVE('',#418,#417,#248,.T.);
#525=EDGE_CURVE('',#418,#414,#249,.T.);
#526=EDGE_CURVE('',#417,#391,#64,.T.);
#527=EDGE_CURVE('',#419,#418,#65,.T.);
#528=EDGE_CURVE('',#420,#391,#66,.T.);
#529=EDGE_CURVE('',#420,#419,#250,.T.);
#530=EDGE_CURVE('',#419,#421,#251,.T.);
#531=EDGE_CURVE('',#422,#421,#252,.T.);
#532=EDGE_CURVE('',#415,#422,#253,.T.);
#533=EDGE_CURVE('',#423,#423,#67,.T.);
#534=EDGE_CURVE('',#393,#424,#254,.T.);
#535=EDGE_CURVE('',#425,#424,#255,.T.);
#536=EDGE_CURVE('',#390,#425,#256,.T.);
#537=EDGE_CURVE('',#426,#403,#257,.T.);
#538=EDGE_CURVE('',#426,#427,#258,.T.);
#539=EDGE_CURVE('',#427,#412,#259,.T.);
#540=EDGE_CURVE('',#428,#429,#260,.T.);
#541=EDGE_CURVE('',#429,#427,#68,.T.);
#542=EDGE_CURVE('',#428,#426,#69,.T.);
#543=EDGE_CURVE('',#430,#431,#261,.T.);
#544=EDGE_CURVE('',#431,#410,#70,.T.);
#545=EDGE_CURVE('',#430,#409,#71,.T.);
#546=EDGE_CURVE('',#432,#433,#262,.T.);
#547=EDGE_CURVE('',#433,#429,#263,.T.);
#548=EDGE_CURVE('',#432,#428,#264,.T.);
#549=EDGE_CURVE('',#434,#435,#265,.T.);
#550=EDGE_CURVE('',#435,#431,#266,.T.);
#551=EDGE_CURVE('',#434,#430,#267,.T.);
#552=EDGE_CURVE('',#421,#433,#72,.T.);
#553=EDGE_CURVE('',#422,#432,#73,.T.);
#554=EDGE_CURVE('',#424,#435,#74,.T.);
#555=EDGE_CURVE('',#425,#434,#75,.T.);
#556=EDGE_CURVE('',#390,#420,#268,.T.);
#557=EDGE_CURVE('',#416,#393,#269,.T.);
#558=EDGE_CURVE('',#436,#436,#76,.T.);
#559=EDGE_CURVE('',#437,#437,#77,.T.);
#560=ORIENTED_EDGE('',*,*,#438,.F.);
#561=ORIENTED_EDGE('',*,*,#439,.F.);
#562=ORIENTED_EDGE('',*,*,#440,.F.);
#563=ORIENTED_EDGE('',*,*,#441,.F.);
#564=ORIENTED_EDGE('',*,*,#442,.F.);
#565=ORIENTED_EDGE('',*,*,#443,.F.);
#566=ORIENTED_EDGE('',*,*,#444,.F.);
#567=ORIENTED_EDGE('',*,*,#445,.F.);
#568=ORIENTED_EDGE('',*,*,#446,.F.);
#569=ORIENTED_EDGE('',*,*,#447,.F.);
#570=ORIENTED_EDGE('',*,*,#448,.F.);
#571=ORIENTED_EDGE('',*,*,#449,.F.);
#572=ORIENTED_EDGE('',*,*,#450,.T.);
#573=ORIENTED_EDGE('',*,*,#440,.T.);
#574=ORIENTED_EDGE('',*,*,#451,.F.);
#575=ORIENTED_EDGE('',*,*,#448,.T.);
#576=ORIENTED_EDGE('',*,*,#452,.T.);
#577=ORIENTED_EDGE('',*,*,#444,.T.);
#578=ORIENTED_EDGE('',*,*,#453,.F.);
#579=ORIENTED_EDGE('',*,*,#454,.T.);
#580=ORIENTED_EDGE('',*,*,#455,.F.);
#581=ORIENTED_EDGE('',*,*,#456,.F.);
#582=ORIENTED_EDGE('',*,*,#454,.F.);
#583=ORIENTED_EDGE('',*,*,#457,.F.);
#584=ORIENTED_EDGE('',*,*,#458,.F.);
#585=ORIENTED_EDGE('',*,*,#459,.F.);
#586=ORIENTED_EDGE('',*,*,#460,.F.);
#587=ORIENTED_EDGE('',*,*,#461,.F.);
#588=ORIENTED_EDGE('',*,*,#462,.F.);
#589=ORIENTED_EDGE('',*,*,#463,.F.);
#590=ORIENTED_EDGE('',*,*,#464,.F.);
#591=ORIENTED_EDGE('',*,*,#465,.F.);
#592=ORIENTED_EDGE('',*,*,#466,.F.);
#593=ORIENTED_EDGE('',*,*,#467,.F.);
#594=ORIENTED_EDGE('',*,*,#468,.F.);
#595=ORIENTED_EDGE('',*,*,#469,.F.);
#596=ORIENTED_EDGE('',*,*,#470,.F.);
#597=ORIENTED_EDGE('',*,*,#460,.T.);
#598=ORIENTED_EDGE('',*,*,#471,.T.);
#599=ORIENTED_EDGE('',*,*,#468,.T.);
#600=ORIENTED_EDGE('',*,*,#472,.F.);
#601=ORIENTED_EDGE('',*,*,#464,.T.);
#602=ORIENTED_EDGE('',*,*,#473,.T.);
#603=ORIENTED_EDGE('',*,*,#474,.T.);
#604=ORIENTED_EDGE('',*,*,#475,.F.);
#605=ORIENTED_EDGE('',*,*,#476,.F.);
#606=ORIENTED_EDGE('',*,*,#474,.F.);
#607=ORIENTED_EDGE('',*,*,#477,.F.);
#608=ORIENTED_EDGE('',*,*,#478,.T.);
#609=ORIENTED_EDGE('',*,*,#479,.F.);
#610=ORIENTED_EDGE('',*,*,#477,.T.);
#611=ORIENTED_EDGE('',*,*,#473,.F.);
#612=ORIENTED_EDGE('',*,*,#463,.T.);
#613=ORIENTED_EDGE('',*,*,#480,.F.);
#614=ORIENTED_EDGE('',*,*,#441,.T.);
#615=ORIENTED_EDGE('',*,*,#450,.F.);
#616=ORIENTED_EDGE('',*,*,#447,.T.);
#617=ORIENTED_EDGE('',*,*,#446,.T.);
#618=ORIENTED_EDGE('',*,*,#481,.F.);
#619=ORIENTED_EDGE('',*,*,#475,.T.);
#620=ORIENTED_EDGE('',*,*,#479,.T.);
#621=ORIENTED_EDGE('',*,*,#482,.T.);
#622=ORIENTED_EDGE('',*,*,#465,.T.);
#623=ORIENTED_EDGE('',*,*,#472,.T.);
#624=ORIENTED_EDGE('',*,*,#476,.T.);
#625=ORIENTED_EDGE('',*,*,#481,.T.);
#626=ORIENTED_EDGE('',*,*,#449,.T.);
#627=ORIENTED_EDGE('',*,*,#451,.T.);
#628=ORIENTED_EDGE('',*,*,#439,.T.);
#629=ORIENTED_EDGE('',*,*,#483,.F.);
#630=ORIENTED_EDGE('',*,*,#455,.T.);
#631=ORIENTED_EDGE('',*,*,#484,.F.);
#632=ORIENTED_EDGE('',*,*,#485,.F.);
#633=ORIENTED_EDGE('',*,*,#486,.F.);
#634=ORIENTED_EDGE('',*,*,#466,.T.);
#635=ORIENTED_EDGE('',*,*,#487,.T.);
#636=ORIENTED_EDGE('',*,*,#442,.T.);
#637=ORIENTED_EDGE('',*,*,#488,.T.);
#638=ORIENTED_EDGE('',*,*,#458,.T.);
#639=ORIENTED_EDGE('',*,*,#489,.F.);
#640=ORIENTED_EDGE('',*,*,#490,.F.);
#641=ORIENTED_EDGE('',*,*,#491,.F.);
#642=ORIENTED_EDGE('',*,*,#492,.T.);
#643=ORIENTED_EDGE('',*,*,#487,.F.);
#644=ORIENTED_EDGE('',*,*,#469,.T.);
#645=ORIENTED_EDGE('',*,*,#471,.F.);
#646=ORIENTED_EDGE('',*,*,#459,.T.);
#647=ORIENTED_EDGE('',*,*,#488,.F.);
#648=ORIENTED_EDGE('',*,*,#445,.T.);
#649=ORIENTED_EDGE('',*,*,#452,.F.);
#650=ORIENTED_EDGE('',*,*,#456,.T.);
#651=ORIENTED_EDGE('',*,*,#492,.F.);
#652=ORIENTED_EDGE('',*,*,#483,.T.);
#653=ORIENTED_EDGE('',*,*,#493,.F.);
#654=ORIENTED_EDGE('',*,*,#494,.T.);
#655=ORIENTED_EDGE('',*,*,#495,.T.);
#656=ORIENTED_EDGE('',*,*,#496,.F.);
#657=ORIENTED_EDGE('',*,*,#497,.F.);
#658=ORIENTED_EDGE('',*,*,#498,.T.);
#659=ORIENTED_EDGE('',*,*,#499,.T.);
#660=ORIENTED_EDGE('',*,*,#494,.F.);
#661=ORIENTED_EDGE('',*,*,#500,.F.);
#662=ORIENTED_EDGE('',*,*,#501,.T.);
#663=ORIENTED_EDGE('',*,*,#502,.T.);
#664=ORIENTED_EDGE('',*,*,#498,.F.);
#665=ORIENTED_EDGE('',*,*,#503,.F.);
#666=ORIENTED_EDGE('',*,*,#496,.T.);
#667=ORIENTED_EDGE('',*,*,#504,.T.);
#668=ORIENTED_EDGE('',*,*,#501,.F.);
#669=ORIENTED_EDGE('',*,*,#504,.F.);
#670=ORIENTED_EDGE('',*,*,#495,.F.);
#671=ORIENTED_EDGE('',*,*,#499,.F.);
#672=ORIENTED_EDGE('',*,*,#502,.F.);
#673=ORIENTED_EDGE('',*,*,#505,.T.);
#674=ORIENTED_EDGE('',*,*,#506,.T.);
#675=ORIENTED_EDGE('',*,*,#507,.T.);
#676=ORIENTED_EDGE('',*,*,#508,.T.);
#677=ORIENTED_EDGE('',*,*,#507,.F.);
#678=ORIENTED_EDGE('',*,*,#509,.F.);
#679=ORIENTED_EDGE('',*,*,#510,.F.);
#680=ORIENTED_EDGE('',*,*,#511,.F.);
#681=ORIENTED_EDGE('',*,*,#512,.T.);
#682=ORIENTED_EDGE('',*,*,#513,.T.);
#683=ORIENTED_EDGE('',*,*,#506,.F.);
#684=ORIENTED_EDGE('',*,*,#514,.T.);
#685=ORIENTED_EDGE('',*,*,#515,.F.);
#686=ORIENTED_EDGE('',*,*,#509,.T.);
#687=ORIENTED_EDGE('',*,*,#510,.T.);
#688=ORIENTED_EDGE('',*,*,#515,.T.);
#689=ORIENTED_EDGE('',*,*,#516,.T.);
#690=ORIENTED_EDGE('',*,*,#517,.T.);
#691=ORIENTED_EDGE('',*,*,#518,.T.);
#692=ORIENTED_EDGE('',*,*,#519,.T.);
#693=ORIENTED_EDGE('',*,*,#520,.T.);
#694=ORIENTED_EDGE('',*,*,#521,.T.);
#695=ORIENTED_EDGE('',*,*,#522,.T.);
#696=ORIENTED_EDGE('',*,*,#519,.F.);
#697=ORIENTED_EDGE('',*,*,#523,.T.);
#698=ORIENTED_EDGE('',*,*,#524,.F.);
#699=ORIENTED_EDGE('',*,*,#525,.T.);
#700=ORIENTED_EDGE('',*,*,#518,.F.);
#701=ORIENTED_EDGE('',*,*,#489,.T.);
#702=ORIENTED_EDGE('',*,*,#461,.T.);
#703=ORIENTED_EDGE('',*,*,#470,.T.);
#704=ORIENTED_EDGE('',*,*,#467,.T.);
#705=ORIENTED_EDGE('',*,*,#486,.T.);
#706=ORIENTED_EDGE('',*,*,#526,.F.);
#707=ORIENTED_EDGE('',*,*,#523,.F.);
#708=ORIENTED_EDGE('',*,*,#527,.T.);
#709=ORIENTED_EDGE('',*,*,#524,.T.);
#710=ORIENTED_EDGE('',*,*,#526,.T.);
#711=ORIENTED_EDGE('',*,*,#528,.F.);
#712=ORIENTED_EDGE('',*,*,#529,.T.);
#713=ORIENTED_EDGE('',*,*,#520,.F.);
#714=ORIENTED_EDGE('',*,*,#525,.F.);
#715=ORIENTED_EDGE('',*,*,#527,.F.);
#716=ORIENTED_EDGE('',*,*,#530,.T.);
#717=ORIENTED_EDGE('',*,*,#531,.F.);
#718=ORIENTED_EDGE('',*,*,#532,.F.);
#719=ORIENTED_EDGE('',*,*,#533,.F.);
#720=ORIENTED_EDGE('',*,*,#491,.T.);
#721=ORIENTED_EDGE('',*,*,#534,.T.);
#722=ORIENTED_EDGE('',*,*,#535,.F.);
#723=ORIENTED_EDGE('',*,*,#536,.F.);
#724=ORIENTED_EDGE('',*,*,#484,.T.);
#725=ORIENTED_EDGE('',*,*,#457,.T.);
#726=ORIENTED_EDGE('',*,*,#453,.T.);
#727=ORIENTED_EDGE('',*,*,#443,.T.);
#728=ORIENTED_EDGE('',*,*,#505,.F.);
#729=ORIENTED_EDGE('',*,*,#537,.F.);
#730=ORIENTED_EDGE('',*,*,#538,.T.);
#731=ORIENTED_EDGE('',*,*,#539,.T.);
#732=ORIENTED_EDGE('',*,*,#516,.F.);
#733=ORIENTED_EDGE('',*,*,#514,.F.);
#734=ORIENTED_EDGE('',*,*,#540,.T.);
#735=ORIENTED_EDGE('',*,*,#541,.T.);
#736=ORIENTED_EDGE('',*,*,#538,.F.);
#737=ORIENTED_EDGE('',*,*,#542,.F.);
#738=ORIENTED_EDGE('',*,*,#543,.T.);
#739=ORIENTED_EDGE('',*,*,#544,.T.);
#740=ORIENTED_EDGE('',*,*,#512,.F.);
#741=ORIENTED_EDGE('',*,*,#545,.F.);
#742=ORIENTED_EDGE('',*,*,#546,.T.);
#743=ORIENTED_EDGE('',*,*,#547,.T.);
#744=ORIENTED_EDGE('',*,*,#540,.F.);
#745=ORIENTED_EDGE('',*,*,#548,.F.);
#746=ORIENTED_EDGE('',*,*,#549,.T.);
#747=ORIENTED_EDGE('',*,*,#550,.T.);
#748=ORIENTED_EDGE('',*,*,#543,.F.);
#749=ORIENTED_EDGE('',*,*,#551,.F.);
#750=ORIENTED_EDGE('',*,*,#531,.T.);
#751=ORIENTED_EDGE('',*,*,#552,.T.);
#752=ORIENTED_EDGE('',*,*,#546,.F.);
#753=ORIENTED_EDGE('',*,*,#553,.F.);
#754=ORIENTED_EDGE('',*,*,#535,.T.);
#755=ORIENTED_EDGE('',*,*,#554,.T.);
#756=ORIENTED_EDGE('',*,*,#549,.F.);
#757=ORIENTED_EDGE('',*,*,#555,.F.);
#758=ORIENTED_EDGE('',*,*,#517,.F.);
#759=ORIENTED_EDGE('',*,*,#539,.F.);
#760=ORIENTED_EDGE('',*,*,#541,.F.);
#761=ORIENTED_EDGE('',*,*,#547,.F.);
#762=ORIENTED_EDGE('',*,*,#552,.F.);
#763=ORIENTED_EDGE('',*,*,#530,.F.);
#764=ORIENTED_EDGE('',*,*,#529,.F.);
#765=ORIENTED_EDGE('',*,*,#556,.F.);
#766=ORIENTED_EDGE('',*,*,#536,.T.);
#767=ORIENTED_EDGE('',*,*,#555,.T.);
#768=ORIENTED_EDGE('',*,*,#551,.T.);
#769=ORIENTED_EDGE('',*,*,#545,.T.);
#770=ORIENTED_EDGE('',*,*,#511,.T.);
#771=ORIENTED_EDGE('',*,*,#508,.F.);
#772=ORIENTED_EDGE('',*,*,#513,.F.);
#773=ORIENTED_EDGE('',*,*,#544,.F.);
#774=ORIENTED_EDGE('',*,*,#550,.F.);
#775=ORIENTED_EDGE('',*,*,#554,.F.);
#776=ORIENTED_EDGE('',*,*,#534,.F.);
#777=ORIENTED_EDGE('',*,*,#557,.F.);
#778=ORIENTED_EDGE('',*,*,#521,.F.);
#779=ORIENTED_EDGE('',*,*,#532,.T.);
#780=ORIENTED_EDGE('',*,*,#553,.T.);
#781=ORIENTED_EDGE('',*,*,#548,.T.);
#782=ORIENTED_EDGE('',*,*,#542,.T.);
#783=ORIENTED_EDGE('',*,*,#537,.T.);
#784=ORIENTED_EDGE('',*,*,#557,.T.);
#785=ORIENTED_EDGE('',*,*,#490,.T.);
#786=ORIENTED_EDGE('',*,*,#522,.F.);
#787=ORIENTED_EDGE('',*,*,#556,.T.);
#788=ORIENTED_EDGE('',*,*,#528,.T.);
#789=ORIENTED_EDGE('',*,*,#485,.T.);
#790=ORIENTED_EDGE('',*,*,#478,.F.);
#791=ORIENTED_EDGE('',*,*,#558,.T.);
#792=ORIENTED_EDGE('',*,*,#438,.T.);
#793=ORIENTED_EDGE('',*,*,#480,.T.);
#794=ORIENTED_EDGE('',*,*,#462,.T.);
#795=ORIENTED_EDGE('',*,*,#482,.F.);
#796=ORIENTED_EDGE('',*,*,#533,.T.);
#797=ORIENTED_EDGE('',*,*,#559,.F.);
#798=ORIENTED_EDGE('',*,*,#559,.T.);
#799=ORIENTED_EDGE('',*,*,#493,.T.);
#800=ORIENTED_EDGE('',*,*,#503,.T.);
#801=ORIENTED_EDGE('',*,*,#500,.T.);
#802=ORIENTED_EDGE('',*,*,#497,.T.);
#803=ORIENTED_EDGE('',*,*,#558,.F.);
#804=PLANE('',#892);
#805=PLANE('',#893);
#806=PLANE('',#894);
#807=PLANE('',#895);
#808=PLANE('',#896);
#809=PLANE('',#897);
#810=PLANE('',#898);
#811=PLANE('',#899);
#812=PLANE('',#900);
#813=PLANE('',#901);
#814=PLANE('',#902);
#815=PLANE('',#903);
#816=PLANE('',#904);
#817=PLANE('',#910);
#818=PLANE('',#923);
#819=PLANE('',#926);
#820=PLANE('',#927);
#821=PLANE('',#928);
#822=PLANE('',#929);
#823=PLANE('',#930);
#824=PLANE('',#934);
#825=PLANE('',#936);
#826=PLANE('',#943);
#827=PLANE('',#944);
#828=PLANE('',#949);
#829=PLANE('',#951);
#830=PLANE('',#952);
#831=PLANE('',#959);
#832=PLANE('',#960);
#833=PLANE('',#967);
#834=PLANE('',#968);
#835=PLANE('',#969);
#836=PLANE('',#970);
#837=PLANE('',#976);
#838=PLANE('',#977);
#839=ADVANCED_FACE('',(#78),#804,.F.);
#840=ADVANCED_FACE('',(#79),#805,.F.);
#841=ADVANCED_FACE('',(#80),#806,.F.);
#842=ADVANCED_FACE('',(#81),#807,.F.);
#843=ADVANCED_FACE('',(#82),#808,.F.);
#844=ADVANCED_FACE('',(#83),#809,.F.);
#845=ADVANCED_FACE('',(#84),#810,.F.);
#846=ADVANCED_FACE('',(#85),#811,.F.);
#847=ADVANCED_FACE('',(#86),#812,.F.);
#848=ADVANCED_FACE('',(#87),#813,.F.);
#849=ADVANCED_FACE('',(#88),#814,.F.);
#850=ADVANCED_FACE('',(#89),#815,.F.);
#851=ADVANCED_FACE('',(#90,#32),#816,.T.);
#852=ADVANCED_FACE('',(#91),#18,.T.);
#853=ADVANCED_FACE('',(#33,#34),#817,.T.);
#854=ADVANCED_FACE('',(#92),#19,.T.);
#855=ADVANCED_FACE('',(#93),#20,.T.);
#856=ADVANCED_FACE('',(#94,#35),#818,.T.);
#857=ADVANCED_FACE('',(#95,#36),#21,.T.);
#858=ADVANCED_FACE('',(#96),#819,.F.);
#859=ADVANCED_FACE('',(#97),#820,.F.);
#860=ADVANCED_FACE('',(#98),#821,.F.);
#861=ADVANCED_FACE('',(#99),#822,.F.);
#862=ADVANCED_FACE('',(#100),#823,.F.);
#863=ADVANCED_FACE('',(#101),#22,.T.);
#864=ADVANCED_FACE('',(#102),#824,.T.);
#865=ADVANCED_FACE('',(#103),#825,.T.);
#866=ADVANCED_FACE('',(#104),#23,.T.);
#867=ADVANCED_FACE('',(#105),#24,.T.);
#868=ADVANCED_FACE('',(#106),#826,.F.);
#869=ADVANCED_FACE('',(#107),#827,.T.);
#870=ADVANCED_FACE('',(#108),#25,.T.);
#871=ADVANCED_FACE('',(#109,#37),#828,.T.);
#872=ADVANCED_FACE('',(#110),#829,.T.);
#873=ADVANCED_FACE('',(#111),#830,.T.);
#874=ADVANCED_FACE('',(#112),#26,.T.);
#875=ADVANCED_FACE('',(#113),#27,.F.);
#876=ADVANCED_FACE('',(#114),#831,.T.);
#877=ADVANCED_FACE('',(#115),#832,.T.);
#878=ADVANCED_FACE('',(#116),#28,.F.);
#879=ADVANCED_FACE('',(#117),#29,.T.);
#880=ADVANCED_FACE('',(#118),#833,.T.);
#881=ADVANCED_FACE('',(#119),#834,.T.);
#882=ADVANCED_FACE('',(#120),#835,.T.);
#883=ADVANCED_FACE('',(#121),#836,.T.);
#884=ADVANCED_FACE('',(#122,#38),#13,.T.);
#885=ADVANCED_FACE('',(#123),#30,.T.);
#886=ADVANCED_FACE('',(#124,#39),#31,.T.);
#887=ADVANCED_FACE('',(#125),#837,.T.);
#888=ADVANCED_FACE('',(#40,#41),#838,.T.);
#889=CLOSED_SHELL('',(#839,#840,#841,#842,#843,#844,#845,#846,#847,#848,
#849,#850,#851,#852,#853,#854,#855,#856,#857,#858,#859,#860,#861,#862,#863,
#864,#865,#866,#867,#868,#869,#870,#871,#872,#873,#874,#875,#876,#877,#878,
#879,#880,#881,#882,#883,#884,#885,#886,#887,#888));
#890=MANIFOLD_SOLID_BREP('Volumenk\X\F6rper1',#889);
#891=AXIS2_PLACEMENT_3D('placement',#1238,#978,#979);
#892=AXIS2_PLACEMENT_3D('',#1239,#980,#981);
#893=AXIS2_PLACEMENT_3D('',#1248,#986,#987);
#894=AXIS2_PLACEMENT_3D('',#1257,#992,#993);
#895=AXIS2_PLACEMENT_3D('',#1266,#998,#999);
#896=AXIS2_PLACEMENT_3D('',#1269,#1002,#1003);
#897=AXIS2_PLACEMENT_3D('',#1275,#1007,#1008);
#898=AXIS2_PLACEMENT_3D('',#1281,#1012,#1013);
#899=AXIS2_PLACEMENT_3D('',#1290,#1018,#1019);
#900=AXIS2_PLACEMENT_3D('',#1299,#1024,#1025);
#901=AXIS2_PLACEMENT_3D('',#1308,#1030,#1031);
#902=AXIS2_PLACEMENT_3D('',#1311,#1034,#1035);
#903=AXIS2_PLACEMENT_3D('',#1317,#1039,#1040);
#904=AXIS2_PLACEMENT_3D('',#1323,#1044,#1045);
#905=AXIS2_PLACEMENT_3D('',#1325,#1046,#1047);
#906=AXIS2_PLACEMENT_3D('',#1326,#1048,#1049);
#907=AXIS2_PLACEMENT_3D('',#1327,#1050,#1051);
#908=AXIS2_PLACEMENT_3D('',#1328,#1052,#1053);
#909=AXIS2_PLACEMENT_3D('',#1329,#1054,#1055);
#910=AXIS2_PLACEMENT_3D('',#1330,#1056,#1057);
#911=AXIS2_PLACEMENT_3D('',#1331,#1058,#1059);
#912=AXIS2_PLACEMENT_3D('',#1333,#1060,#1061);
#913=AXIS2_PLACEMENT_3D('',#1334,#1062,#1063);
#914=AXIS2_PLACEMENT_3D('',#1336,#1064,#1065);
#915=AXIS2_PLACEMENT_3D('',#1338,#1066,#1067);
#916=AXIS2_PLACEMENT_3D('',#1339,#1068,#1069);
#917=AXIS2_PLACEMENT_3D('',#1340,#1070,#1071);
#918=AXIS2_PLACEMENT_3D('',#1341,#1072,#1073);
#919=AXIS2_PLACEMENT_3D('',#1342,#1074,#1075);
#920=AXIS2_PLACEMENT_3D('',#1344,#1076,#1077);
#921=AXIS2_PLACEMENT_3D('',#1346,#1078,#1079);
#922=AXIS2_PLACEMENT_3D('',#1347,#1080,#1081);
#923=AXIS2_PLACEMENT_3D('',#1348,#1082,#1083);
#924=AXIS2_PLACEMENT_3D('',#1350,#1084,#1085);
#925=AXIS2_PLACEMENT_3D('',#1351,#1086,#1087);
#926=AXIS2_PLACEMENT_3D('',#1352,#1088,#1089);
#927=AXIS2_PLACEMENT_3D('',#1361,#1094,#1095);
#928=AXIS2_PLACEMENT_3D('',#1367,#1099,#1100);
#929=AXIS2_PLACEMENT_3D('',#1373,#1104,#1105);
#930=AXIS2_PLACEMENT_3D('',#1376,#1108,#1109);
#931=AXIS2_PLACEMENT_3D('',#1377,#1110,#1111);
#932=AXIS2_PLACEMENT_3D('',#1380,#1112,#1113);
#933=AXIS2_PLACEMENT_3D('',#1384,#1115,#1116);
#934=AXIS2_PLACEMENT_3D('',#1386,#1118,#1119);
#935=AXIS2_PLACEMENT_3D('',#1390,#1121,#1122);
#936=AXIS2_PLACEMENT_3D('',#1396,#1126,#1127);
#937=AXIS2_PLACEMENT_3D('',#1400,#1130,#1131);
#938=AXIS2_PLACEMENT_3D('',#1402,#1132,#1133);
#939=AXIS2_PLACEMENT_3D('',#1404,#1135,#1136);
#940=AXIS2_PLACEMENT_3D('',#1406,#1137,#1138);
#941=AXIS2_PLACEMENT_3D('',#1410,#1140,#1141);
#942=AXIS2_PLACEMENT_3D('',#1413,#1143,#1144);
#943=AXIS2_PLACEMENT_3D('',#1414,#1145,#1146);
#944=AXIS2_PLACEMENT_3D('',#1420,#1150,#1151);
#945=AXIS2_PLACEMENT_3D('',#1421,#1152,#1153);
#946=AXIS2_PLACEMENT_3D('',#1422,#1154,#1155);
#947=AXIS2_PLACEMENT_3D('',#1424,#1156,#1157);
#948=AXIS2_PLACEMENT_3D('',#1426,#1158,#1159);
#949=AXIS2_PLACEMENT_3D('',#1428,#1161,#1162);
#950=AXIS2_PLACEMENT_3D('',#1435,#1166,#1167);
#951=AXIS2_PLACEMENT_3D('',#1436,#1168,#1169);
#952=AXIS2_PLACEMENT_3D('',#1442,#1173,#1174);
#953=AXIS2_PLACEMENT_3D('',#1448,#1178,#1179);
#954=AXIS2_PLACEMENT_3D('',#1452,#1181,#1182);
#955=AXIS2_PLACEMENT_3D('',#1453,#1183,#1184);
#956=AXIS2_PLACEMENT_3D('',#1454,#1185,#1186);
#957=AXIS2_PLACEMENT_3D('',#1458,#1188,#1189);
#958=AXIS2_PLACEMENT_3D('',#1459,#1190,#1191);
#959=AXIS2_PLACEMENT_3D('',#1460,#1192,#1193);
#960=AXIS2_PLACEMENT_3D('',#1466,#1197,#1198);
#961=AXIS2_PLACEMENT_3D('',#1472,#1202,#1203);
#962=AXIS2_PLACEMENT_3D('',#1473,#1204,#1205);
#963=AXIS2_PLACEMENT_3D('',#1474,#1206,#1207);
#964=AXIS2_PLACEMENT_3D('',#1475,#1208,#1209);
#965=AXIS2_PLACEMENT_3D('',#1476,#1210,#1211);
#966=AXIS2_PLACEMENT_3D('',#1477,#1212,#1213);
#967=AXIS2_PLACEMENT_3D('',#1478,#1214,#1215);
#968=AXIS2_PLACEMENT_3D('',#1480,#1217,#1218);
#969=AXIS2_PLACEMENT_3D('',#1482,#1220,#1221);
#970=AXIS2_PLACEMENT_3D('',#1483,#1222,#1223);
#971=AXIS2_PLACEMENT_3D('',#1484,#1224,#1225);
#972=AXIS2_PLACEMENT_3D('',#1486,#1226,#1227);
#973=AXIS2_PLACEMENT_3D('',#1487,#1228,#1229);
#974=AXIS2_PLACEMENT_3D('',#1488,#1230,#1231);
#975=AXIS2_PLACEMENT_3D('',#1490,#1232,#1233);
#976=AXIS2_PLACEMENT_3D('',#1491,#1234,#1235);
#977=AXIS2_PLACEMENT_3D('',#1492,#1236,#1237);
#978=DIRECTION('axis',(0.,0.,1.));
#979=DIRECTION('refdir',(1.,0.,0.));
#980=DIRECTION('center_axis',(-1.,0.,0.));
#981=DIRECTION('ref_axis',(0.,0.,1.));
#982=DIRECTION('',(-9.95025522674442E-017,1.,0.));
#983=DIRECTION('',(0.,0.,1.));
#984=DIRECTION('',(0.,-1.,5.38803051488638E-016));
#985=DIRECTION('',(0.,5.57412173865621E-017,-1.));
#986=DIRECTION('center_axis',(-1.,0.,0.));
#987=DIRECTION('ref_axis',(0.,0.,1.));
#988=DIRECTION('',(-9.95025522674442E-017,1.,0.));
#989=DIRECTION('',(0.,0.,1.));
#990=DIRECTION('',(0.,-1.,-2.26151693052568E-016));
#991=DIRECTION('',(0.,0.,-1.));
#992=DIRECTION('center_axis',(1.,0.,0.));
#993=DIRECTION('ref_axis',(0.,0.,-1.));
#994=DIRECTION('',(9.95025522674442E-017,-1.,0.));
#995=DIRECTION('',(0.,-5.57412173865621E-017,1.));
#996=DIRECTION('',(0.,1.,-5.38803051488638E-016));
#997=DIRECTION('',(0.,0.,-1.));
#998=DIRECTION('center_axis',(0.,-5.38803051488638E-016,-1.));
#999=DIRECTION('ref_axis',(0.,1.,-5.32907051820075E-016));
#1000=DIRECTION('',(-1.,0.,0.));
#1001=DIRECTION('',(-1.,0.,0.));
#1002=DIRECTION('center_axis',(0.,2.26151693052568E-016,-1.));
#1003=DIRECTION('ref_axis',(0.,1.,1.77635683940025E-016));
#1004=DIRECTION('',(-1.,0.,0.));
#1005=DIRECTION('',(-1.,0.,0.));
#1006=DIRECTION('',(0.,1.,2.26151693052568E-016));
#1007=DIRECTION('center_axis',(1.,0.,0.));
#1008=DIRECTION('ref_axis',(0.,0.,-1.));
#1009=DIRECTION('',(9.95025522674442E-017,-1.,0.));
#1010=DIRECTION('',(0.,0.,1.));
#1011=DIRECTION('',(0.,0.,-1.));
#1012=DIRECTION('center_axis',(-1.,0.,0.));
#1013=DIRECTION('ref_axis',(0.,0.,1.));
#1014=DIRECTION('',(9.95025522674442E-017,-1.,0.));
#1015=DIRECTION('',(0.,0.,-1.));
#1016=DIRECTION('',(0.,1.,1.13075846526284E-016));
#1017=DIRECTION('',(0.,0.,1.));
#1018=DIRECTION('center_axis',(-1.,0.,0.));
#1019=DIRECTION('ref_axis',(0.,0.,1.));
#1020=DIRECTION('',(9.95025522674442E-017,-1.,0.));
#1021=DIRECTION('',(0.,-1.36608893553775E-016,-1.));
#1022=DIRECTION('',(0.,1.,1.79601017162879E-016));
#1023=DIRECTION('',(0.,-3.17206578464329E-016,1.));
#1024=DIRECTION('center_axis',(1.,0.,0.));
#1025=DIRECTION('ref_axis',(0.,0.,-1.));
#1026=DIRECTION('',(-9.95025522674442E-017,1.,0.));
#1027=DIRECTION('',(0.,0.,-1.));
#1028=DIRECTION('',(0.,-1.,-1.13075846526284E-016));
#1029=DIRECTION('',(0.,0.,1.));
#1030=DIRECTION('center_axis',(0.,-1.13075846526284E-016,1.));
#1031=DIRECTION('ref_axis',(0.,-1.,-8.88178419700125E-017));
#1032=DIRECTION('',(1.,0.,0.));
#1033=DIRECTION('',(1.,0.,0.));
#1034=DIRECTION('center_axis',(0.,-1.79601017162879E-016,1.));
#1035=DIRECTION('ref_axis',(0.,-1.,-1.77635683940025E-016));
#1036=DIRECTION('',(1.,0.,0.));
#1037=DIRECTION('',(1.,0.,0.));
#1038=DIRECTION('',(0.,-1.,-1.79601017162879E-016));
#1039=DIRECTION('center_axis',(1.,0.,0.));
#1040=DIRECTION('ref_axis',(0.,0.,-1.));
#1041=DIRECTION('',(-9.95025522674442E-017,1.,0.));
#1042=DIRECTION('',(0.,3.17206578464329E-016,-1.));
#1043=DIRECTION('',(0.,1.36608893553775E-016,1.));
#1044=DIRECTION('center_axis',(9.95025522674442E-017,-1.,0.));
#1045=DIRECTION('ref_axis',(0.,0.,-1.));
#1046=DIRECTION('center_axis',(9.95025522674442E-017,-1.,0.));
#1047=DIRECTION('ref_axis',(1.,9.95025522674442E-017,0.));
#1048=DIRECTION('center_axis',(9.95025522674442E-017,-1.,0.));
#1049=DIRECTION('ref_axis',(1.,9.95025522674442E-017,0.));
#1050=DIRECTION('center_axis',(9.95025522674442E-017,-1.,0.));
#1051=DIRECTION('ref_axis',(1.,9.95025522674442E-017,0.));
#1052=DIRECTION('center_axis',(9.95025522674442E-017,-1.,0.));
#1053=DIRECTION('ref_axis',(1.,0.,0.));
#1054=DIRECTION('center_axis',(9.95025522674442E-017,-1.,0.));
#1055=DIRECTION('ref_axis',(1.,9.95025522674442E-017,0.));
#1056=DIRECTION('center_axis',(-9.95025522674442E-017,1.,0.));
#1057=DIRECTION('ref_axis',(0.,0.,1.));
#1058=DIRECTION('center_axis',(9.95025522674442E-017,-1.,0.));
#1059=DIRECTION('ref_axis',(1.,9.95025522674442E-017,0.));
#1060=DIRECTION('center_axis',(9.95025522674442E-017,-1.,0.));
#1061=DIRECTION('ref_axis',(1.,9.95025522674442E-017,0.));
#1062=DIRECTION('center_axis',(9.95025522674442E-017,-1.,0.));
#1063=DIRECTION('ref_axis',(1.,0.,0.));
#1064=DIRECTION('center_axis',(9.95025522674442E-017,-1.,0.));
#1065=DIRECTION('ref_axis',(1.,9.95025522674443E-017,0.));
#1066=DIRECTION('center_axis',(9.95025522674442E-017,-1.,0.));
#1067=DIRECTION('ref_axis',(1.,9.95025522674443E-017,0.));
#1068=DIRECTION('center_axis',(9.95025522674442E-017,-1.,0.));
#1069=DIRECTION('ref_axis',(1.,9.95025522674443E-017,0.));
#1070=DIRECTION('center_axis',(9.95025522674442E-017,-1.,0.));
#1071=DIRECTION('ref_axis',(1.,9.95025522674442E-017,0.));
#1072=DIRECTION('center_axis',(9.95025522674442E-017,-1.,0.));
#1073=DIRECTION('ref_axis',(1.,0.,0.));
#1074=DIRECTION('center_axis',(9.95025522674442E-017,-1.,0.));
#1075=DIRECTION('ref_axis',(1.,9.95025522674442E-017,0.));
#1076=DIRECTION('center_axis',(9.95025522674442E-017,-1.,0.));
#1077=DIRECTION('ref_axis',(1.,9.95025522674443E-017,0.));
#1078=DIRECTION('center_axis',(9.95025522674442E-017,-1.,0.));
#1079=DIRECTION('ref_axis',(1.,9.95025522674443E-017,0.));
#1080=DIRECTION('center_axis',(9.95025522674442E-017,-1.,0.));
#1081=DIRECTION('ref_axis',(1.,9.95025522674443E-017,0.));
#1082=DIRECTION('center_axis',(9.95025522674442E-017,-1.,0.));
#1083=DIRECTION('ref_axis',(0.,0.,-1.));
#1084=DIRECTION('center_axis',(9.95025522674442E-017,-1.,0.));
#1085=DIRECTION('ref_axis',(1.,9.95025522674442E-017,0.));
#1086=DIRECTION('center_axis',(9.95025522674442E-017,-1.,0.));
#1087=DIRECTION('ref_axis',(1.,0.,0.));
#1088=DIRECTION('center_axis',(-1.,0.,0.));
#1089=DIRECTION('ref_axis',(0.,0.,-1.));
#1090=DIRECTION('',(0.,0.,-1.));
#1091=DIRECTION('',(0.,-1.,0.));
#1092=DIRECTION('',(0.,0.,-1.));
#1093=DIRECTION('',(0.,-1.,0.));
#1094=DIRECTION('center_axis',(0.,0.,1.));
#1095=DIRECTION('ref_axis',(-1.,-8.88178419700125E-017,0.));
#1096=DIRECTION('',(-1.,-9.95025522674442E-017,0.));
#1097=DIRECTION('',(0.,-1.,0.));
#1098=DIRECTION('',(-1.,-9.95025522674442E-017,0.));
#1099=DIRECTION('center_axis',(1.,0.,0.));
#1100=DIRECTION('ref_axis',(0.,0.,1.));
#1101=DIRECTION('',(0.,0.,1.));
#1102=DIRECTION('',(0.,-1.,0.));
#1103=DIRECTION('',(0.,0.,1.));
#1104=DIRECTION('center_axis',(0.,0.,-1.));
#1105=DIRECTION('ref_axis',(1.,8.88178419700125E-017,0.));
#1106=DIRECTION('',(1.,9.95025522674442E-017,0.));
#1107=DIRECTION('',(1.,9.95025522674442E-017,0.));
#1108=DIRECTION('center_axis',(0.,-1.,0.));
#1109=DIRECTION('ref_axis',(0.,0.,-1.));
#1110=DIRECTION('center_axis',(3.70074341541718E-016,-1.,2.77555756156289E-016));
#1111=DIRECTION('ref_axis',(-0.707106781186547,0.,0.707106781186548));
#1112=DIRECTION('center_axis',(0.,1.,-3.43484831839109E-016));
#1113=DIRECTION('ref_axis',(-0.707106781186547,0.,0.707106781186548));
#1114=DIRECTION('',(-3.70074341541718E-016,1.,-2.77555756156289E-016));
#1115=DIRECTION('center_axis',(0.,-1.,3.43484831839109E-016));
#1116=DIRECTION('ref_axis',(-0.707106781186547,0.,0.707106781186548));
#1117=DIRECTION('',(3.70074341541718E-016,-1.,2.77555756156289E-016));
#1118=DIRECTION('center_axis',(0.,1.,-3.43484831839109E-016));
#1119=DIRECTION('ref_axis',(-1.,0.,0.));
#1120=DIRECTION('',(-1.,0.,0.));
#1121=DIRECTION('center_axis',(0.,-1.,3.43484831839109E-016));
#1122=DIRECTION('ref_axis',(0.707106781186547,0.,0.707106781186547));
#1123=DIRECTION('',(0.,3.43484831839108E-016,1.));
#1124=DIRECTION('',(-1.,0.,0.));
#1125=DIRECTION('',(0.,3.43484831839108E-016,1.));
#1126=DIRECTION('center_axis',(0.,2.77555756156289E-016,1.));
#1127=DIRECTION('ref_axis',(1.,0.,0.));
#1128=DIRECTION('',(1.,0.,0.));
#1129=DIRECTION('',(-3.70074341541718E-016,-1.,2.77555756156289E-016));
#1130=DIRECTION('center_axis',(3.70074341541718E-016,1.,-2.77555756156289E-016));
#1131=DIRECTION('ref_axis',(0.707106781186547,0.,0.707106781186547));
#1132=DIRECTION('center_axis',(0.,1.,-3.43484831839109E-016));
#1133=DIRECTION('ref_axis',(0.707106781186547,0.,0.707106781186547));
#1134=DIRECTION('',(3.70074341541718E-016,1.,-2.77555756156289E-016));
#1135=DIRECTION('center_axis',(-3.70074341541718E-016,1.,0.));
#1136=DIRECTION('ref_axis',(-0.707106781186547,0.,-0.707106781186547));
#1137=DIRECTION('center_axis',(0.,-1.,-1.93680720151405E-016));
#1138=DIRECTION('ref_axis',(-0.707106781186547,0.,-0.707106781186547));
#1139=DIRECTION('',(3.70074341541718E-016,-1.,0.));
#1140=DIRECTION('center_axis',(0.,1.,1.93680720151405E-016));
#1141=DIRECTION('ref_axis',(-0.707106781186547,0.,-0.707106781186547));
#1142=DIRECTION('',(-3.70074341541718E-016,1.,0.));
#1143=DIRECTION('center_axis',(-9.95025522674442E-017,1.,0.));
#1144=DIRECTION('ref_axis',(-0.707106781186547,0.,-0.707106781186547));
#1145=DIRECTION('center_axis',(0.,0.,1.));
#1146=DIRECTION('ref_axis',(1.,0.,0.));
#1147=DIRECTION('',(1.,0.,0.));
#1148=DIRECTION('',(3.70074341541718E-016,1.,0.));
#1149=DIRECTION('',(-1.,0.,0.));
#1150=DIRECTION('center_axis',(0.,1.,1.93680720151405E-016));
#1151=DIRECTION('ref_axis',(-1.,0.,0.));
#1152=DIRECTION('center_axis',(0.,-1.,-1.93680720151405E-016));
#1153=DIRECTION('ref_axis',(0.707106781186547,0.,-0.707106781186548));
#1154=DIRECTION('center_axis',(-3.70074341541718E-016,-1.,0.));
#1155=DIRECTION('ref_axis',(0.707106781186547,0.,-0.707106781186548));
#1156=DIRECTION('center_axis',(0.,1.,1.93680720151405E-016));
#1157=DIRECTION('ref_axis',(0.707106781186547,0.,-0.707106781186548));
#1158=DIRECTION('center_axis',(-9.95025522674442E-017,1.,0.));
#1159=DIRECTION('ref_axis',(0.707106781186547,0.,-0.707106781186548));
#1160=DIRECTION('',(-3.70074341541718E-016,-1.,0.));
#1161=DIRECTION('center_axis',(0.,-1.,-1.93680720151405E-016));
#1162=DIRECTION('ref_axis',(1.,0.,0.));
#1163=DIRECTION('',(0.,-1.93680720151405E-016,1.));
#1164=DIRECTION('',(1.,0.,0.));
#1165=DIRECTION('',(0.,-1.93680720151405E-016,1.));
#1166=DIRECTION('center_axis',(0.,-1.,-1.93680720151405E-016));
#1167=DIRECTION('ref_axis',(1.,0.,0.));
#1168=DIRECTION('center_axis',(0.,1.,1.93680720151405E-016));
#1169=DIRECTION('ref_axis',(-1.,0.,0.));
#1170=DIRECTION('',(0.,-1.93680720151405E-016,1.));
#1171=DIRECTION('',(-1.,0.,0.));
#1172=DIRECTION('',(0.,-1.93680720151405E-016,1.));
#1173=DIRECTION('center_axis',(0.,-1.,3.43484831839109E-016));
#1174=DIRECTION('ref_axis',(1.,0.,0.));
#1175=DIRECTION('',(0.,3.43484831839108E-016,1.));
#1176=DIRECTION('',(1.,0.,0.));
#1177=DIRECTION('',(0.,3.43484831839108E-016,1.));
#1178=DIRECTION('center_axis',(-1.,0.,0.));
#1179=DIRECTION('ref_axis',(0.,1.,0.));
#1180=DIRECTION('',(1.,0.,0.));
#1181=DIRECTION('center_axis',(-1.,0.,0.));
#1182=DIRECTION('ref_axis',(0.,-0.707106781186549,-0.707106781186546));
#1183=DIRECTION('center_axis',(-1.,0.,0.));
#1184=DIRECTION('ref_axis',(0.,-0.707106781186549,-0.707106781186546));
#1185=DIRECTION('center_axis',(-1.,0.,0.));
#1186=DIRECTION('ref_axis',(0.,1.,0.));
#1187=DIRECTION('',(-1.,0.,0.));
#1188=DIRECTION('center_axis',(-1.,0.,0.));
#1189=DIRECTION('ref_axis',(0.,-0.707106781186551,-0.707106781186544));
#1190=DIRECTION('center_axis',(-1.,0.,0.));
#1191=DIRECTION('ref_axis',(0.,-0.707106781186551,-0.707106781186544));
#1192=DIRECTION('center_axis',(0.,-0.707106781186548,-0.707106781186547));
#1193=DIRECTION('ref_axis',(1.,0.,0.));
#1194=DIRECTION('',(1.,0.,0.));
#1195=DIRECTION('',(0.,-0.707106781186547,0.707106781186548));
#1196=DIRECTION('',(0.,-0.707106781186547,0.707106781186548));
#1197=DIRECTION('center_axis',(0.,0.707106781186548,0.707106781186547));
#1198=DIRECTION('ref_axis',(-1.,0.,0.));
#1199=DIRECTION('',(-1.,0.,0.));
#1200=DIRECTION('',(0.,-0.707106781186547,0.707106781186548));
#1201=DIRECTION('',(0.,-0.707106781186547,0.707106781186548));
#1202=DIRECTION('center_axis',(1.,0.,0.));
#1203=DIRECTION('ref_axis',(0.,1.,0.));
#1204=DIRECTION('center_axis',(1.,0.,0.));
#1205=DIRECTION('ref_axis',(0.,1.,-8.88178419700129E-016));
#1206=DIRECTION('center_axis',(1.,0.,0.));
#1207=DIRECTION('ref_axis',(0.,1.,-8.88178419700129E-016));
#1208=DIRECTION('center_axis',(1.,0.,0.));
#1209=DIRECTION('ref_axis',(0.,1.,0.));
#1210=DIRECTION('center_axis',(1.,0.,0.));
#1211=DIRECTION('ref_axis',(0.,1.,-1.94289029309404E-015));
#1212=DIRECTION('center_axis',(1.,0.,0.));
#1213=DIRECTION('ref_axis',(0.,1.,-1.94289029309404E-015));
#1214=DIRECTION('center_axis',(1.,-3.70074341541718E-016,-7.16762649793571E-032));
#1215=DIRECTION('ref_axis',(3.5527136788005E-016,1.,0.));
#1216=DIRECTION('',(-7.16762649793571E-032,-7.13197130244366E-048,-1.));
#1217=DIRECTION('center_axis',(-1.,-3.70074341541718E-016,-7.16762649793571E-032));
#1218=DIRECTION('ref_axis',(3.5527136788005E-016,-1.,0.));
#1219=DIRECTION('',(-7.16762649793571E-032,-7.13197130244366E-048,1.));
#1220=DIRECTION('center_axis',(9.95025522674442E-017,-1.,0.));
#1221=DIRECTION('ref_axis',(0.,0.,-1.));
#1222=DIRECTION('center_axis',(9.95025522674442E-017,-1.,0.));
#1223=DIRECTION('ref_axis',(0.,0.,-1.));
#1224=DIRECTION('center_axis',(9.95025522674442E-017,-1.,0.));
#1225=DIRECTION('ref_axis',(1.,0.,0.));
#1226=DIRECTION('center_axis',(9.95025522674442E-017,-1.,0.));
#1227=DIRECTION('ref_axis',(1.,9.95025522674443E-017,0.));
#1228=DIRECTION('center_axis',(9.95025522674442E-017,-1.,0.));
#1229=DIRECTION('ref_axis',(1.,0.,0.));
#1230=DIRECTION('center_axis',(9.95025522674442E-017,-1.,0.));
#1231=DIRECTION('ref_axis',(1.,0.,0.));
#1232=DIRECTION('center_axis',(9.95025522674442E-017,-1.,0.));
#1233=DIRECTION('ref_axis',(1.,9.95025522674442E-017,0.));
#1234=DIRECTION('center_axis',(9.95025522674442E-017,-1.,0.));
#1235=DIRECTION('ref_axis',(0.,0.,-1.));
#1236=DIRECTION('center_axis',(-9.95025522674442E-017,1.,0.));
#1237=DIRECTION('ref_axis',(0.,0.,1.));
#1238=CARTESIAN_POINT('',(0.,0.,0.));
#1239=CARTESIAN_POINT('Origin',(-5.,-9.2587237979409,10.1129332086915));
#1240=CARTESIAN_POINT('',(-5.,-6.18160766661082,8.07774721070175));
#1241=CARTESIAN_POINT('',(-5.,-1.35897940529377E-015,8.07774721070175));
#1242=CARTESIAN_POINT('',(-5.,-3.09080383330541,8.07774721070175));
#1243=CARTESIAN_POINT('',(-5.,-6.18160766661082,8.));
#1244=CARTESIAN_POINT('',(-5.,-6.18160766661082,8.));
#1245=CARTESIAN_POINT('',(-5.,0.,8.));
#1246=CARTESIAN_POINT('',(-5.,0.,8.));
#1247=CARTESIAN_POINT('',(-5.,-2.16162017312949E-016,11.8779565184929));
#1248=CARTESIAN_POINT('Origin',(-5.,-9.2587237979409,10.1129332086915));
#1249=CARTESIAN_POINT('',(-5.,-19.,8.07774721070177));
#1250=CARTESIAN_POINT('',(-5.,-9.18160766661082,8.07774721070176));
#1251=CARTESIAN_POINT('',(-5.,-14.0908038333054,8.07774721070176));
#1252=CARTESIAN_POINT('',(-5.,-19.,8.));
#1253=CARTESIAN_POINT('',(-5.,-19.,8.));
#1254=CARTESIAN_POINT('',(-5.,-9.18160766661082,8.));
#1255=CARTESIAN_POINT('',(-5.,-9.18160766661082,8.));
#1256=CARTESIAN_POINT('',(-5.,-9.18160766661082,11.5));
#1257=CARTESIAN_POINT('Origin',(5.,-9.2587237979409,10.1129332086915));
#1258=CARTESIAN_POINT('',(5.,0.,8.07774721070175));
#1259=CARTESIAN_POINT('',(5.,-6.18160766661082,8.07774721070175));
#1260=CARTESIAN_POINT('',(5.,-3.09080383330541,8.07774721070175));
#1261=CARTESIAN_POINT('',(5.,0.,8.));
#1262=CARTESIAN_POINT('',(5.,-2.16162017312949E-016,11.8779565184929));
#1263=CARTESIAN_POINT('',(5.,-6.18160766661082,8.));
#1264=CARTESIAN_POINT('',(5.,0.,8.));
#1265=CARTESIAN_POINT('',(5.,-6.18160766661082,8.));
#1266=CARTESIAN_POINT('Origin',(0.,-6.18160766661082,8.));
#1267=CARTESIAN_POINT('',(0.,0.,8.));
#1268=CARTESIAN_POINT('',(0.,-6.18160766661082,8.));
#1269=CARTESIAN_POINT('Origin',(0.,-19.,8.));
#1270=CARTESIAN_POINT('',(5.,-9.18160766661082,8.));
#1271=CARTESIAN_POINT('',(0.,-9.18160766661082,8.));
#1272=CARTESIAN_POINT('',(5.,-19.,8.));
#1273=CARTESIAN_POINT('',(0.,-19.,8.));
#1274=CARTESIAN_POINT('',(5.,-9.18160766661082,8.));
#1275=CARTESIAN_POINT('Origin',(5.,-9.2587237979409,10.1129332086915));
#1276=CARTESIAN_POINT('',(5.,-9.18160766661082,8.07774721070176));
#1277=CARTESIAN_POINT('',(5.,-19.,8.07774721070176));
#1278=CARTESIAN_POINT('',(5.,-14.0908038333054,8.07774721070176));
#1279=CARTESIAN_POINT('',(5.,-9.18160766661082,11.5));
#1280=CARTESIAN_POINT('',(5.,-19.,8.));
#1281=CARTESIAN_POINT('Origin',(-5.,-9.26610146770758,-10.4701122391058));
#1282=CARTESIAN_POINT('',(-5.,-9.18160766661082,-8.07774721070176));
#1283=CARTESIAN_POINT('',(-5.,-19.,-8.07774721070177));
#1284=CARTESIAN_POINT('',(-5.,-14.0908038333054,-8.07774721070176));
#1285=CARTESIAN_POINT('',(-5.,-9.18160766661082,-8.));
#1286=CARTESIAN_POINT('',(-5.,-9.18160766661082,-11.5));
#1287=CARTESIAN_POINT('',(-5.,-19.,-8.));
#1288=CARTESIAN_POINT('',(-5.,-9.18160766661082,-8.));
#1289=CARTESIAN_POINT('',(-5.,-19.,-8.));
#1290=CARTESIAN_POINT('Origin',(-5.,-9.26610146770758,-10.4701122391058));
#1291=CARTESIAN_POINT('',(-5.,-1.35897940529377E-015,-8.07774721070175));
#1292=CARTESIAN_POINT('',(-5.,-6.18160766661082,-8.07774721070175));
#1293=CARTESIAN_POINT('',(-5.,-3.09080383330541,-8.07774721070175));
#1294=CARTESIAN_POINT('',(-5.,0.,-8.));
#1295=CARTESIAN_POINT('',(-5.,-6.43424444592165E-016,-12.7099747890051));
#1296=CARTESIAN_POINT('',(-5.,-6.18160766661082,-8.));
#1297=CARTESIAN_POINT('',(-5.,0.,-8.));
#1298=CARTESIAN_POINT('',(-5.,-6.18160766661082,-8.));
#1299=CARTESIAN_POINT('Origin',(5.,-9.26610146770758,-10.4701122391058));
#1300=CARTESIAN_POINT('',(5.,-19.,-8.07774721070176));
#1301=CARTESIAN_POINT('',(5.,-9.18160766661082,-8.07774721070176));
#1302=CARTESIAN_POINT('',(5.,-14.0908038333054,-8.07774721070176));
#1303=CARTESIAN_POINT('',(5.,-19.,-8.));
#1304=CARTESIAN_POINT('',(5.,-19.,-8.));
#1305=CARTESIAN_POINT('',(5.,-9.18160766661082,-8.));
#1306=CARTESIAN_POINT('',(5.,-9.18160766661082,-8.));
#1307=CARTESIAN_POINT('',(5.,-9.18160766661082,-11.5));
#1308=CARTESIAN_POINT('Origin',(0.,-9.18160766661082,-8.));
#1309=CARTESIAN_POINT('',(0.,-19.,-8.));
#1310=CARTESIAN_POINT('',(0.,-9.18160766661082,-8.));
#1311=CARTESIAN_POINT('Origin',(0.,0.,-8.));
#1312=CARTESIAN_POINT('',(5.,-6.18160766661082,-8.));
#1313=CARTESIAN_POINT('',(0.,-6.18160766661082,-8.));
#1314=CARTESIAN_POINT('',(5.,0.,-8.));
#1315=CARTESIAN_POINT('',(0.,0.,-8.));
#1316=CARTESIAN_POINT('',(5.,0.,-8.));
#1317=CARTESIAN_POINT('Origin',(5.,-9.26610146770758,-10.4701122391058));
#1318=CARTESIAN_POINT('',(5.,-6.18160766661082,-8.07774721070175));
#1319=CARTESIAN_POINT('',(5.,0.,-8.07774721070175));
#1320=CARTESIAN_POINT('',(5.,-3.09080383330541,-8.07774721070175));
#1321=CARTESIAN_POINT('',(5.,-6.18160766661082,-8.));
#1322=CARTESIAN_POINT('',(5.,-6.43424444592165E-016,-12.7099747890051));
#1323=CARTESIAN_POINT('Origin',(9.49999999999999,-4.93038065763132E-031,
0.));
#1324=CARTESIAN_POINT('',(5.,5.55111512312578E-016,10.356157588604));
#1325=CARTESIAN_POINT('Origin',(-2.88557401575588E-015,-4.44089209850063E-015,
0.));
#1326=CARTESIAN_POINT('Origin',(-2.88557401575588E-015,-1.11022302462516E-015,
0.));
#1327=CARTESIAN_POINT('Origin',(-2.88557401575588E-015,-1.11022302462516E-015,
0.));
#1328=CARTESIAN_POINT('Origin',(-2.57803114578399E-015,-3.09080383330541,
0.));
#1329=CARTESIAN_POINT('Origin',(-2.27048827581211E-015,-6.18160766661082,
0.));
#1330=CARTESIAN_POINT('Origin',(11.5,-6.18160766661082,0.));
#1331=CARTESIAN_POINT('Origin',(-2.27048827581211E-015,-6.18160766661082,
0.));
#1332=CARTESIAN_POINT('',(-2.27048827581211E-015,-6.18160766661082,11.5));
#1333=CARTESIAN_POINT('Origin',(-2.27048827581211E-015,-6.18160766661082,
0.));
#1334=CARTESIAN_POINT('Origin',(-1.48350307084211E-015,-14.0908038333054,
0.));
#1335=CARTESIAN_POINT('',(7.5,-19.,5.83095189484531));
#1336=CARTESIAN_POINT('Origin',(-9.95025522674442E-016,-19.,0.));
#1337=CARTESIAN_POINT('',(7.4098732371734,-19.,-5.94506338141331));
#1338=CARTESIAN_POINT('Origin',(-9.95025522674442E-016,-19.,0.));
#1339=CARTESIAN_POINT('Origin',(-9.95025522674442E-016,-19.,0.));
#1340=CARTESIAN_POINT('Origin',(-1.97198061900977E-015,-9.18160766661082,
0.));
#1341=CARTESIAN_POINT('Origin',(-1.48350307084211E-015,-14.0908038333054,
0.));
#1342=CARTESIAN_POINT('Origin',(-1.97198061900977E-015,-9.18160766661082,
0.));
#1343=CARTESIAN_POINT('',(-7.40987323717341,-19.,-5.94506338141331));
#1344=CARTESIAN_POINT('Origin',(-9.95025522674442E-016,-19.,0.));
#1345=CARTESIAN_POINT('',(-7.5,-19.,5.83095189484531));
#1346=CARTESIAN_POINT('Origin',(-9.95025522674442E-016,-19.,0.));
#1347=CARTESIAN_POINT('Origin',(-9.95025522674442E-016,-19.,0.));
#1348=CARTESIAN_POINT('Origin',(9.5,-9.18160766661082,0.));
#1349=CARTESIAN_POINT('',(5.,-9.18160766661082,10.356157588604));
#1350=CARTESIAN_POINT('Origin',(-1.97198061900977E-015,-9.18160766661082,
0.));
#1351=CARTESIAN_POINT('Origin',(-2.12123444741094E-015,-7.68160766661082,
0.));
#1352=CARTESIAN_POINT('Origin',(-5.42395964746049,7.,1.23096958972465));
#1353=CARTESIAN_POINT('',(-5.42395964746049,7.,1.23096958972465));
#1354=CARTESIAN_POINT('',(-5.42395964746049,7.,-1.46177638779802));
#1355=CARTESIAN_POINT('',(-5.42395964746049,7.,0.615484794862326));
#1356=CARTESIAN_POINT('',(-5.42395964746049,6.,1.23096958972465));
#1357=CARTESIAN_POINT('',(-5.42395964746049,7.,1.23096958972465));
#1358=CARTESIAN_POINT('',(-5.42395964746049,6.,-1.46177638779802));
#1359=CARTESIAN_POINT('',(-5.42395964746049,6.,1.23096958972465));
#1360=CARTESIAN_POINT('',(-5.42395964746049,7.,-1.46177638779802));
#1361=CARTESIAN_POINT('Origin',(5.11621725611523,7.,1.23096958972465));
#1362=CARTESIAN_POINT('',(5.11621725611523,7.,1.23096958972465));
#1363=CARTESIAN_POINT('',(6.55810862805761,7.,1.23096958972465));
#1364=CARTESIAN_POINT('',(5.11621725611523,6.,1.23096958972465));
#1365=CARTESIAN_POINT('',(5.11621725611523,7.,1.23096958972465));
#1366=CARTESIAN_POINT('',(5.11621725611523,6.,1.23096958972465));
#1367=CARTESIAN_POINT('Origin',(5.11621725611523,7.,-1.46177638779802));
#1368=CARTESIAN_POINT('',(5.11621725611523,7.,-1.46177638779802));
#1369=CARTESIAN_POINT('',(5.11621725611523,7.,-0.730888193899012));
#1370=CARTESIAN_POINT('',(5.11621725611523,6.,-1.46177638779802));
#1371=CARTESIAN_POINT('',(5.11621725611523,7.,-1.46177638779802));
#1372=CARTESIAN_POINT('',(5.11621725611523,6.,-1.46177638779802));
#1373=CARTESIAN_POINT('Origin',(-5.42395964746049,7.,-1.46177638779802));
#1374=CARTESIAN_POINT('',(1.28802017626975,7.,-1.46177638779802));
#1375=CARTESIAN_POINT('',(-5.42395964746049,6.,-1.46177638779802));
#1376=CARTESIAN_POINT('Origin',(-0.153871195672631,6.,-0.115403399036686));
#1377=CARTESIAN_POINT('Origin',(-2.5,-23.75,33.));
#1378=CARTESIAN_POINT('',(-7.5,-30.,33.));
#1379=CARTESIAN_POINT('',(-2.5,-30.,38.));
#1380=CARTESIAN_POINT('Origin',(-2.5,-30.,33.));
#1381=CARTESIAN_POINT('',(-2.5,-27.,38.));
#1382=CARTESIAN_POINT('',(-2.5,-23.75,38.));
#1383=CARTESIAN_POINT('',(-7.5,-27.,33.));
#1384=CARTESIAN_POINT('Origin',(-2.5,-27.,33.));
#1385=CARTESIAN_POINT('',(-7.5,-23.75,33.));
#1386=CARTESIAN_POINT('Origin',(7.5,-27.,25.0710678118655));
#1387=CARTESIAN_POINT('',(2.5,-27.,38.));
#1388=CARTESIAN_POINT('',(-7.5,-27.,38.));
#1389=CARTESIAN_POINT('',(7.5,-27.,33.));
#1390=CARTESIAN_POINT('Origin',(2.5,-27.,33.));
#1391=CARTESIAN_POINT('',(7.5,-27.,25.0710678118655));
#1392=CARTESIAN_POINT('',(7.5,-27.,25.0710678118655));
#1393=CARTESIAN_POINT('',(-7.5,-27.,25.0710678118655));
#1394=CARTESIAN_POINT('',(-7.5,-27.,25.0710678118655));
#1395=CARTESIAN_POINT('',(-7.5,-27.,25.0710678118655));
#1396=CARTESIAN_POINT('Origin',(-1.04083408558608E-015,-28.5,38.));
#1397=CARTESIAN_POINT('',(2.5,-30.,38.));
#1398=CARTESIAN_POINT('',(7.5,-30.,38.));
#1399=CARTESIAN_POINT('',(2.5,-25.25,38.));
#1400=CARTESIAN_POINT('Origin',(2.5,-25.25,33.));
#1401=CARTESIAN_POINT('',(7.5,-30.,33.));
#1402=CARTESIAN_POINT('Origin',(2.5,-30.,33.));
#1403=CARTESIAN_POINT('',(7.5,-25.25,33.));
#1404=CARTESIAN_POINT('Origin',(-2.5,-19.75,-5.));
#1405=CARTESIAN_POINT('',(-2.5,-19.,-10.));
#1406=CARTESIAN_POINT('Origin',(-2.5,-19.,-5.));
#1407=CARTESIAN_POINT('',(-2.5,-22.,-10.));
#1408=CARTESIAN_POINT('',(-2.5,-19.75,-10.));
#1409=CARTESIAN_POINT('',(-7.5,-22.,-5.));
#1410=CARTESIAN_POINT('Origin',(-2.5,-22.,-5.));
#1411=CARTESIAN_POINT('',(-7.5,-19.,-5.));
#1412=CARTESIAN_POINT('',(-7.5,-19.75,-5.));
#1413=CARTESIAN_POINT('Origin',(-2.5,-19.,-5.));
#1414=CARTESIAN_POINT('Origin',(-1.04083408558608E-015,-20.5,-10.));
#1415=CARTESIAN_POINT('',(2.5,-19.,-10.));
#1416=CARTESIAN_POINT('',(-7.5,-19.,-10.));
#1417=CARTESIAN_POINT('',(2.5,-22.,-10.));
#1418=CARTESIAN_POINT('',(2.5,-21.25,-10.));
#1419=CARTESIAN_POINT('',(7.5,-22.,-10.));
#1420=CARTESIAN_POINT('Origin',(7.5,-19.,-10.));
#1421=CARTESIAN_POINT('Origin',(2.5,-19.,-5.));
#1422=CARTESIAN_POINT('Origin',(2.5,-21.25,-5.));
#1423=CARTESIAN_POINT('',(7.5,-22.,-5.));
#1424=CARTESIAN_POINT('Origin',(2.5,-22.,-5.));
#1425=CARTESIAN_POINT('',(7.5,-19.,-5.));
#1426=CARTESIAN_POINT('Origin',(2.5,-19.,-5.));
#1427=CARTESIAN_POINT('',(7.5,-21.25,-5.));
#1428=CARTESIAN_POINT('Origin',(-7.5,-22.,-10.));
#1429=CARTESIAN_POINT('',(7.5,-22.,12.9289321881345));
#1430=CARTESIAN_POINT('',(7.5,-22.,-10.));
#1431=CARTESIAN_POINT('',(-7.5,-22.,12.9289321881345));
#1432=CARTESIAN_POINT('',(7.5,-22.,12.9289321881345));
#1433=CARTESIAN_POINT('',(-7.5,-22.,-10.));
#1434=CARTESIAN_POINT('',(-6.50000000000001,-22.,-7.96020419445781E-016));
#1435=CARTESIAN_POINT('Origin',(-6.9651786587211E-016,-22.,0.));
#1436=CARTESIAN_POINT('Origin',(7.5,-19.,-10.));
#1437=CARTESIAN_POINT('',(-7.5,-19.,12.9289321881345));
#1438=CARTESIAN_POINT('',(-7.5,-19.,-10.));
#1439=CARTESIAN_POINT('',(7.5,-19.,12.9289321881345));
#1440=CARTESIAN_POINT('',(-7.5,-19.,12.9289321881345));
#1441=CARTESIAN_POINT('',(7.5,-19.,-10.));
#1442=CARTESIAN_POINT('Origin',(-7.5,-30.,25.0710678118655));
#1443=CARTESIAN_POINT('',(-7.5,-30.,25.0710678118655));
#1444=CARTESIAN_POINT('',(-7.5,-30.,25.0710678118655));
#1445=CARTESIAN_POINT('',(7.5,-30.,25.0710678118655));
#1446=CARTESIAN_POINT('',(7.5,-30.,25.0710678118655));
#1447=CARTESIAN_POINT('',(7.5,-30.,25.0710678118655));
#1448=CARTESIAN_POINT('Origin',(-1.11022302462516E-015,-25.,25.0710678118655));
#1449=CARTESIAN_POINT('',(-7.5,-28.5355339059327,21.5355339059327));
#1450=CARTESIAN_POINT('',(7.5,-28.5355339059327,21.5355339059327));
#1451=CARTESIAN_POINT('',(7.5,-28.5355339059327,21.5355339059327));
#1452=CARTESIAN_POINT('Origin',(7.5,-25.,25.0710678118655));
#1453=CARTESIAN_POINT('Origin',(-7.5,-25.,25.0710678118655));
#1454=CARTESIAN_POINT('Origin',(-1.11022302462516E-015,-25.,25.0710678118655));
#1455=CARTESIAN_POINT('',(7.5,-26.4142135623731,23.6568542494924));
#1456=CARTESIAN_POINT('',(-7.5,-26.4142135623731,23.6568542494924));
#1457=CARTESIAN_POINT('',(-7.5,-26.4142135623731,23.6568542494924));
#1458=CARTESIAN_POINT('Origin',(-7.5,-25.,25.0710678118655));
#1459=CARTESIAN_POINT('Origin',(7.5,-25.,25.0710678118655));
#1460=CARTESIAN_POINT('Origin',(-7.5,-23.4644660940673,16.4644660940672));
#1461=CARTESIAN_POINT('',(-7.5,-23.4644660940673,16.4644660940672));
#1462=CARTESIAN_POINT('',(7.5,-23.4644660940673,16.4644660940672));
#1463=CARTESIAN_POINT('',(7.5,-23.4644660940673,16.4644660940672));
#1464=CARTESIAN_POINT('',(7.5,-23.4644660940673,16.4644660940672));
#1465=CARTESIAN_POINT('',(-7.5,-23.4644660940673,16.4644660940672));
#1466=CARTESIAN_POINT('Origin',(7.5,-21.3431457505076,18.5857864376269));
#1467=CARTESIAN_POINT('',(7.5,-21.3431457505076,18.5857864376269));
#1468=CARTESIAN_POINT('',(-7.5,-21.3431457505076,18.5857864376269));
#1469=CARTESIAN_POINT('',(-7.5,-21.3431457505076,18.5857864376269));
#1470=CARTESIAN_POINT('',(-7.5,-21.3431457505076,18.5857864376269));
#1471=CARTESIAN_POINT('',(7.5,-21.3431457505076,18.5857864376269));
#1472=CARTESIAN_POINT('Origin',(-1.11022302462516E-015,-27.,12.9289321881345));
#1473=CARTESIAN_POINT('Origin',(7.5,-27.,12.9289321881345));
#1474=CARTESIAN_POINT('Origin',(-7.5,-27.,12.9289321881345));
#1475=CARTESIAN_POINT('Origin',(-1.11022302462516E-015,-27.,12.9289321881345));
#1476=CARTESIAN_POINT('Origin',(-7.5,-27.,12.9289321881345));
#1477=CARTESIAN_POINT('Origin',(7.5,-27.,12.9289321881345));
#1478=CARTESIAN_POINT('Origin',(7.5,-22.,-10.));
#1479=CARTESIAN_POINT('',(7.5,-19.,-5.));
#1480=CARTESIAN_POINT('Origin',(-7.5,-19.,-10.));
#1481=CARTESIAN_POINT('',(-7.5,-19.,-5.));
#1482=CARTESIAN_POINT('Origin',(6.50000000000001,-19.,0.));
#1483=CARTESIAN_POINT('Origin',(6.50000000000001,-19.,0.));
#1484=CARTESIAN_POINT('Origin',(-3.23383294869194E-015,3.5,0.));
#1485=CARTESIAN_POINT('',(8.,7.,0.));
#1486=CARTESIAN_POINT('Origin',(-3.58209188162799E-015,7.,0.));
#1487=CARTESIAN_POINT('Origin',(-2.57803114578399E-015,-3.09080383330541,
0.));
#1488=CARTESIAN_POINT('Origin',(-4.97512761337221E-016,-24.,0.));
#1489=CARTESIAN_POINT('',(6.50000000000001,-29.,0.));
#1490=CARTESIAN_POINT('Origin',(0.,-29.,0.));
#1491=CARTESIAN_POINT('Origin',(0.,-29.,0.));
#1492=CARTESIAN_POINT('Origin',(8.,7.,0.));
#1493=UNCERTAINTY_MEASURE_WITH_UNIT(LENGTH_MEASURE(0.01),#1497,
'DISTANCE_ACCURACY_VALUE',
'Maximum model space distance between geometric entities at asserted c
onnectivities');
#1494=UNCERTAINTY_MEASURE_WITH_UNIT(LENGTH_MEASURE(1.E-006),#1497,
'DISTANCE_ACCURACY_VALUE',
'Maximum model space distance between geometric entities at asserted c
onnectivities');
#1495=(
GEOMETRIC_REPRESENTATION_CONTEXT(3)
GLOBAL_UNCERTAINTY_ASSIGNED_CONTEXT((#1493))
GLOBAL_UNIT_ASSIGNED_CONTEXT((#1497,#1500,#1498))
REPRESENTATION_CONTEXT('','3D')
);
#1496=(
GEOMETRIC_REPRESENTATION_CONTEXT(3)
GLOBAL_UNCERTAINTY_ASSIGNED_CONTEXT((#1494))
GLOBAL_UNIT_ASSIGNED_CONTEXT((#1497,#1500,#1498))
REPRESENTATION_CONTEXT('','3D')
);
#1497=(
LENGTH_UNIT()
NAMED_UNIT(*)
SI_UNIT(.MILLI.,.METRE.)
);
#1498=(
NAMED_UNIT(*)
SI_UNIT($,.STERADIAN.)
SOLID_ANGLE_UNIT()
);
#1499=DIMENSIONAL_EXPONENTS(0.,0.,0.,0.,0.,0.,0.);
#1500=(
CONVERSION_BASED_UNIT('degree',#1502)
NAMED_UNIT(#1499)
PLANE_ANGLE_UNIT()
);
#1501=(
NAMED_UNIT(*)
PLANE_ANGLE_UNIT()
SI_UNIT($,.RADIAN.)
);
#1502=PLANE_ANGLE_MEASURE_WITH_UNIT(PLANE_ANGLE_MEASURE(0.01745329252),
#1501);
#1503=SHAPE_DEFINITION_REPRESENTATION(#1504,#1505);
#1504=PRODUCT_DEFINITION_SHAPE('',$,#1507);
#1505=SHAPE_REPRESENTATION('',(#891),#1495);
#1506=PRODUCT_DEFINITION_CONTEXT('part definition',#1511,'design');
#1507=PRODUCT_DEFINITION('Briefkastenschloss','Briefkastenschloss',#1508,
#1506);
#1508=PRODUCT_DEFINITION_FORMATION('',$,#1513);
#1509=PRODUCT_RELATED_PRODUCT_CATEGORY('Briefkastenschloss',
'Briefkastenschloss',(#1513));
#1510=APPLICATION_PROTOCOL_DEFINITION('international standard',
'automotive_design',2009,#1511);
#1511=APPLICATION_CONTEXT(
'Core Data for Automotive Mechanical Design Process');
#1512=PRODUCT_CONTEXT('part definition',#1511,'mechanical');
#1513=PRODUCT('Briefkastenschloss','Briefkastenschloss',$,(#1512));
#1514=PRESENTATION_STYLE_ASSIGNMENT((#1516));
#1515=PRESENTATION_STYLE_ASSIGNMENT((#1517));
#1516=SURFACE_STYLE_USAGE(.BOTH.,#1518);
#1517=SURFACE_STYLE_USAGE(.BOTH.,#1519);
#1518=SURFACE_SIDE_STYLE($,(#1520));
#1519=SURFACE_SIDE_STYLE($,(#1521));
#1520=SURFACE_STYLE_FILL_AREA(#1522);
#1521=SURFACE_STYLE_FILL_AREA(#1523);
#1522=FILL_AREA_STYLE($,(#1524));
#1523=FILL_AREA_STYLE($,(#1525));
#1524=FILL_AREA_STYLE_COLOUR($,#1526);
#1525=FILL_AREA_STYLE_COLOUR($,#1527);
#1526=COLOUR_RGB('',0.749019607843137,0.749019607843137,0.749019607843137);
#1527=COLOUR_RGB('',0.831372549019608,0.831372549019608,0.831372549019608);
ENDSEC;
END-ISO-10303-21;
