ISO-10303-21;
HEADER;
/* Generated by software containing ST-Developer
 * from STEP Tools, Inc. (www.steptools.com) 
 */

FILE_DESCRIPTION(
/* description */ (''),
/* implementation_level */ '2;1');

FILE_NAME(
/* name */ 
'C:\\Users\\SvenW\\Documents\\inventor\\B-Automaten\\Export_B_Automate
n\\ExportGithub\\Scharnier 2.stp',
/* time_stamp */ '2026-05-14T08:01:29+02:00',
/* author */ ('SvenW'),
/* organization */ (''),
/* preprocessor_version */ 'ST-DEVELOPER v15.2',
/* originating_system */ 'Autodesk Inventor 2014',
/* authorisation */ '');

FILE_SCHEMA (('AUTOMOTIVE_DESIGN { 1 0 10303 214 3 1 1 }'));
ENDSEC;

DATA;
#10=MECHANICAL_DESIGN_GEOMETRIC_PRESENTATION_REPRESENTATION('',(#16),#714);
#11=DIMENSIONAL_EXPONENTS(0.,0.,0.,0.,0.,0.,0.);
#12=(
CONVERSION_BASED_UNIT('degree',#13)
NAMED_UNIT(#11)
PLANE_ANGLE_UNIT()
);
#13=PLANE_ANGLE_MEASURE_WITH_UNIT(PLANE_ANGLE_MEASURE(0.01745329252),#717);
#14=SHAPE_REPRESENTATION_RELATIONSHIP('SRR','None',#720,#15);
#15=ADVANCED_BREP_SHAPE_REPRESENTATION($,(#434),#713);
#16=STYLED_ITEM('',(#729),#434);
#17=CYLINDRICAL_SURFACE('',#454,2.75);
#18=CYLINDRICAL_SURFACE('',#457,2.75);
#19=CYLINDRICAL_SURFACE('',#460,1.75);
#20=LINE('',#614,#60);
#21=LINE('',#616,#61);
#22=LINE('',#618,#62);
#23=LINE('',#619,#63);
#24=LINE('',#622,#64);
#25=LINE('',#624,#65);
#26=LINE('',#625,#66);
#27=LINE('',#628,#67);
#28=LINE('',#630,#68);
#29=LINE('',#631,#69);
#30=LINE('',#637,#70);
#31=LINE('',#639,#71);
#32=LINE('',#640,#72);
#33=LINE('',#643,#73);
#34=LINE('',#645,#74);
#35=LINE('',#647,#75);
#36=LINE('',#649,#76);
#37=LINE('',#651,#77);
#38=LINE('',#653,#78);
#39=LINE('',#655,#79);
#40=LINE('',#656,#80);
#41=LINE('',#662,#81);
#42=LINE('',#668,#82);
#43=LINE('',#674,#83);
#44=LINE('',#677,#84);
#45=LINE('',#682,#85);
#46=LINE('',#685,#86);
#47=LINE('',#688,#87);
#48=LINE('',#689,#88);
#49=LINE('',#691,#89);
#50=LINE('',#692,#90);
#51=LINE('',#695,#91);
#52=LINE('',#696,#92);
#53=LINE('',#697,#93);
#54=LINE('',#700,#94);
#55=LINE('',#701,#95);
#56=LINE('',#702,#96);
#57=LINE('',#704,#97);
#58=LINE('',#706,#98);
#59=LINE('',#709,#99);
#60=VECTOR('',#500,14.3);
#61=VECTOR('',#501,1.);
#62=VECTOR('',#502,14.3);
#63=VECTOR('',#503,1.);
#64=VECTOR('',#506,60.);
#65=VECTOR('',#507,1.);
#66=VECTOR('',#508,60.);
#67=VECTOR('',#511,14.3);
#68=VECTOR('',#512,1.);
#69=VECTOR('',#513,14.3);
#70=VECTOR('',#520,9.);
#71=VECTOR('',#521,1.);
#72=VECTOR('',#522,9.);
#73=VECTOR('',#525,8.99999999999999);
#74=VECTOR('',#526,2.95);
#75=VECTOR('',#527,14.);
#76=VECTOR('',#528,2.95);
#77=VECTOR('',#529,14.);
#78=VECTOR('',#530,2.95);
#79=VECTOR('',#531,14.);
#80=VECTOR('',#532,2.95);
#81=VECTOR('',#539,14.);
#82=VECTOR('',#546,14.);
#83=VECTOR('',#551,14.);
#84=VECTOR('',#554,14.);
#85=VECTOR('',#557,14.);
#86=VECTOR('',#560,14.);
#87=VECTOR('',#563,8.99999999999999);
#88=VECTOR('',#564,1.);
#89=VECTOR('',#567,2.95);
#90=VECTOR('',#568,1.00000000000001);
#91=VECTOR('',#571,2.95);
#92=VECTOR('',#572,1.);
#93=VECTOR('',#573,1.00000000000001);
#94=VECTOR('',#576,2.95);
#95=VECTOR('',#577,1.00000000000001);
#96=VECTOR('',#578,1.);
#97=VECTOR('',#581,14.);
#98=VECTOR('',#584,1.00000000000001);
#99=VECTOR('',#589,2.95);
#100=PLANE('',#445);
#101=PLANE('',#447);
#102=PLANE('',#448);
#103=PLANE('',#449);
#104=PLANE('',#450);
#105=PLANE('',#452);
#106=PLANE('',#453);
#107=PLANE('',#465);
#108=PLANE('',#466);
#109=PLANE('',#467);
#110=PLANE('',#468);
#111=PLANE('',#469);
#112=PLANE('',#470);
#113=PLANE('',#471);
#114=PLANE('',#472);
#115=PLANE('',#473);
#116=FACE_BOUND('',#151,.T.);
#117=FACE_BOUND('',#153,.T.);
#118=FACE_BOUND('',#155,.T.);
#119=FACE_BOUND('',#162,.T.);
#120=FACE_BOUND('',#163,.T.);
#121=FACE_BOUND('',#164,.T.);
#122=FACE_BOUND('',#165,.T.);
#123=FACE_BOUND('',#169,.T.);
#124=FACE_BOUND('',#170,.T.);
#125=FACE_BOUND('',#171,.T.);
#126=FACE_BOUND('',#180,.T.);
#127=FACE_BOUND('',#181,.T.);
#128=FACE_BOUND('',#182,.T.);
#129=FACE_BOUND('',#183,.T.);
#130=FACE_OUTER_BOUND('',#150,.T.);
#131=FACE_OUTER_BOUND('',#152,.T.);
#132=FACE_OUTER_BOUND('',#154,.T.);
#133=FACE_OUTER_BOUND('',#156,.T.);
#134=FACE_OUTER_BOUND('',#157,.T.);
#135=FACE_OUTER_BOUND('',#158,.T.);
#136=FACE_OUTER_BOUND('',#159,.T.);
#137=FACE_OUTER_BOUND('',#160,.T.);
#138=FACE_OUTER_BOUND('',#161,.T.);
#139=FACE_OUTER_BOUND('',#166,.T.);
#140=FACE_OUTER_BOUND('',#167,.T.);
#141=FACE_OUTER_BOUND('',#168,.T.);
#142=FACE_OUTER_BOUND('',#172,.T.);
#143=FACE_OUTER_BOUND('',#173,.T.);
#144=FACE_OUTER_BOUND('',#174,.T.);
#145=FACE_OUTER_BOUND('',#175,.T.);
#146=FACE_OUTER_BOUND('',#176,.T.);
#147=FACE_OUTER_BOUND('',#177,.T.);
#148=FACE_OUTER_BOUND('',#178,.T.);
#149=FACE_OUTER_BOUND('',#179,.T.);
#150=EDGE_LOOP('',(#296));
#151=EDGE_LOOP('',(#297));
#152=EDGE_LOOP('',(#298));
#153=EDGE_LOOP('',(#299));
#154=EDGE_LOOP('',(#300));
#155=EDGE_LOOP('',(#301));
#156=EDGE_LOOP('',(#302));
#157=EDGE_LOOP('',(#303,#304,#305,#306));
#158=EDGE_LOOP('',(#307,#308,#309,#310));
#159=EDGE_LOOP('',(#311,#312,#313,#314));
#160=EDGE_LOOP('',(#315));
#161=EDGE_LOOP('',(#316,#317,#318,#319));
#162=EDGE_LOOP('',(#320));
#163=EDGE_LOOP('',(#321));
#164=EDGE_LOOP('',(#322));
#165=EDGE_LOOP('',(#323,#324,#325,#326,#327,#328,#329,#330,#331,#332,#333,
#334));
#166=EDGE_LOOP('',(#335,#336,#337,#338));
#167=EDGE_LOOP('',(#339,#340,#341,#342));
#168=EDGE_LOOP('',(#343));
#169=EDGE_LOOP('',(#344));
#170=EDGE_LOOP('',(#345,#346,#347,#348));
#171=EDGE_LOOP('',(#349,#350,#351,#352));
#172=EDGE_LOOP('',(#353,#354,#355,#356));
#173=EDGE_LOOP('',(#357,#358,#359,#360,#361,#362));
#174=EDGE_LOOP('',(#363,#364,#365,#366,#367,#368));
#175=EDGE_LOOP('',(#369,#370,#371,#372,#373,#374));
#176=EDGE_LOOP('',(#375,#376,#377,#378));
#177=EDGE_LOOP('',(#379,#380,#381,#382));
#178=EDGE_LOOP('',(#383,#384,#385,#386));
#179=EDGE_LOOP('',(#387,#388,#389,#390,#391,#392));
#180=EDGE_LOOP('',(#393));
#181=EDGE_LOOP('',(#394));
#182=EDGE_LOOP('',(#395));
#183=EDGE_LOOP('',(#396,#397,#398,#399,#400,#401,#402,#403,#404,#405,#406,
#407));
#184=CIRCLE('',#437,2.);
#185=CIRCLE('',#438,3.);
#186=CIRCLE('',#440,2.);
#187=CIRCLE('',#441,3.);
#188=CIRCLE('',#443,2.);
#189=CIRCLE('',#444,3.);
#190=CIRCLE('',#446,1.75);
#191=CIRCLE('',#451,1.75);
#192=CIRCLE('',#455,2.75);
#193=CIRCLE('',#456,2.75);
#194=CIRCLE('',#458,2.75);
#195=CIRCLE('',#459,2.75);
#196=CIRCLE('',#461,1.75);
#197=CIRCLE('',#462,1.75);
#198=CIRCLE('',#463,1.75);
#199=CIRCLE('',#464,1.75);
#200=VERTEX_POINT('',#594);
#201=VERTEX_POINT('',#596);
#202=VERTEX_POINT('',#599);
#203=VERTEX_POINT('',#601);
#204=VERTEX_POINT('',#604);
#205=VERTEX_POINT('',#606);
#206=VERTEX_POINT('',#609);
#207=VERTEX_POINT('',#612);
#208=VERTEX_POINT('',#613);
#209=VERTEX_POINT('',#615);
#210=VERTEX_POINT('',#617);
#211=VERTEX_POINT('',#621);
#212=VERTEX_POINT('',#623);
#213=VERTEX_POINT('',#627);
#214=VERTEX_POINT('',#629);
#215=VERTEX_POINT('',#633);
#216=VERTEX_POINT('',#636);
#217=VERTEX_POINT('',#638);
#218=VERTEX_POINT('',#642);
#219=VERTEX_POINT('',#644);
#220=VERTEX_POINT('',#646);
#221=VERTEX_POINT('',#648);
#222=VERTEX_POINT('',#650);
#223=VERTEX_POINT('',#652);
#224=VERTEX_POINT('',#654);
#225=VERTEX_POINT('',#658);
#226=VERTEX_POINT('',#660);
#227=VERTEX_POINT('',#664);
#228=VERTEX_POINT('',#666);
#229=VERTEX_POINT('',#670);
#230=VERTEX_POINT('',#671);
#231=VERTEX_POINT('',#673);
#232=VERTEX_POINT('',#675);
#233=VERTEX_POINT('',#678);
#234=VERTEX_POINT('',#679);
#235=VERTEX_POINT('',#681);
#236=VERTEX_POINT('',#683);
#237=VERTEX_POINT('',#687);
#238=VERTEX_POINT('',#694);
#239=VERTEX_POINT('',#699);
#240=EDGE_CURVE('',#200,#200,#184,.T.);
#241=EDGE_CURVE('',#201,#201,#185,.T.);
#242=EDGE_CURVE('',#202,#202,#186,.T.);
#243=EDGE_CURVE('',#203,#203,#187,.T.);
#244=EDGE_CURVE('',#204,#204,#188,.T.);
#245=EDGE_CURVE('',#205,#205,#189,.T.);
#246=EDGE_CURVE('',#206,#206,#190,.T.);
#247=EDGE_CURVE('',#207,#208,#20,.T.);
#248=EDGE_CURVE('',#209,#207,#21,.T.);
#249=EDGE_CURVE('',#210,#209,#22,.T.);
#250=EDGE_CURVE('',#208,#210,#23,.T.);
#251=EDGE_CURVE('',#211,#207,#24,.T.);
#252=EDGE_CURVE('',#212,#211,#25,.T.);
#253=EDGE_CURVE('',#209,#212,#26,.T.);
#254=EDGE_CURVE('',#213,#211,#27,.T.);
#255=EDGE_CURVE('',#214,#213,#28,.T.);
#256=EDGE_CURVE('',#212,#214,#29,.T.);
#257=EDGE_CURVE('',#215,#215,#191,.T.);
#258=EDGE_CURVE('',#216,#210,#30,.T.);
#259=EDGE_CURVE('',#216,#217,#31,.T.);
#260=EDGE_CURVE('',#208,#217,#32,.T.);
#261=EDGE_CURVE('',#214,#218,#33,.T.);
#262=EDGE_CURVE('',#218,#219,#34,.T.);
#263=EDGE_CURVE('',#220,#219,#35,.T.);
#264=EDGE_CURVE('',#220,#221,#36,.T.);
#265=EDGE_CURVE('',#221,#222,#37,.T.);
#266=EDGE_CURVE('',#222,#223,#38,.T.);
#267=EDGE_CURVE('',#224,#223,#39,.T.);
#268=EDGE_CURVE('',#224,#216,#40,.T.);
#269=EDGE_CURVE('',#225,#224,#192,.T.);
#270=EDGE_CURVE('',#223,#226,#193,.T.);
#271=EDGE_CURVE('',#225,#226,#41,.T.);
#272=EDGE_CURVE('',#227,#220,#194,.T.);
#273=EDGE_CURVE('',#219,#228,#195,.T.);
#274=EDGE_CURVE('',#227,#228,#42,.T.);
#275=EDGE_CURVE('',#229,#230,#196,.T.);
#276=EDGE_CURVE('',#230,#231,#43,.T.);
#277=EDGE_CURVE('',#231,#232,#197,.T.);
#278=EDGE_CURVE('',#229,#232,#44,.T.);
#279=EDGE_CURVE('',#233,#234,#198,.T.);
#280=EDGE_CURVE('',#234,#235,#45,.T.);
#281=EDGE_CURVE('',#235,#236,#199,.T.);
#282=EDGE_CURVE('',#233,#236,#46,.T.);
#283=EDGE_CURVE('',#237,#213,#47,.T.);
#284=EDGE_CURVE('',#237,#218,#48,.T.);
#285=EDGE_CURVE('',#236,#237,#49,.T.);
#286=EDGE_CURVE('',#228,#235,#50,.T.);
#287=EDGE_CURVE('',#238,#233,#51,.T.);
#288=EDGE_CURVE('',#221,#238,#52,.T.);
#289=EDGE_CURVE('',#234,#227,#53,.T.);
#290=EDGE_CURVE('',#232,#239,#54,.T.);
#291=EDGE_CURVE('',#226,#231,#55,.T.);
#292=EDGE_CURVE('',#239,#222,#56,.T.);
#293=EDGE_CURVE('',#239,#238,#57,.T.);
#294=EDGE_CURVE('',#230,#225,#58,.T.);
#295=EDGE_CURVE('',#217,#229,#59,.T.);
#296=ORIENTED_EDGE('',*,*,#240,.F.);
#297=ORIENTED_EDGE('',*,*,#241,.F.);
#298=ORIENTED_EDGE('',*,*,#242,.F.);
#299=ORIENTED_EDGE('',*,*,#243,.F.);
#300=ORIENTED_EDGE('',*,*,#244,.F.);
#301=ORIENTED_EDGE('',*,*,#245,.F.);
#302=ORIENTED_EDGE('',*,*,#246,.F.);
#303=ORIENTED_EDGE('',*,*,#247,.F.);
#304=ORIENTED_EDGE('',*,*,#248,.F.);
#305=ORIENTED_EDGE('',*,*,#249,.F.);
#306=ORIENTED_EDGE('',*,*,#250,.F.);
#307=ORIENTED_EDGE('',*,*,#251,.F.);
#308=ORIENTED_EDGE('',*,*,#252,.F.);
#309=ORIENTED_EDGE('',*,*,#253,.F.);
#310=ORIENTED_EDGE('',*,*,#248,.T.);
#311=ORIENTED_EDGE('',*,*,#254,.F.);
#312=ORIENTED_EDGE('',*,*,#255,.F.);
#313=ORIENTED_EDGE('',*,*,#256,.F.);
#314=ORIENTED_EDGE('',*,*,#252,.T.);
#315=ORIENTED_EDGE('',*,*,#257,.F.);
#316=ORIENTED_EDGE('',*,*,#250,.T.);
#317=ORIENTED_EDGE('',*,*,#258,.F.);
#318=ORIENTED_EDGE('',*,*,#259,.T.);
#319=ORIENTED_EDGE('',*,*,#260,.F.);
#320=ORIENTED_EDGE('',*,*,#240,.T.);
#321=ORIENTED_EDGE('',*,*,#242,.T.);
#322=ORIENTED_EDGE('',*,*,#244,.T.);
#323=ORIENTED_EDGE('',*,*,#249,.T.);
#324=ORIENTED_EDGE('',*,*,#253,.T.);
#325=ORIENTED_EDGE('',*,*,#256,.T.);
#326=ORIENTED_EDGE('',*,*,#261,.T.);
#327=ORIENTED_EDGE('',*,*,#262,.T.);
#328=ORIENTED_EDGE('',*,*,#263,.F.);
#329=ORIENTED_EDGE('',*,*,#264,.T.);
#330=ORIENTED_EDGE('',*,*,#265,.T.);
#331=ORIENTED_EDGE('',*,*,#266,.T.);
#332=ORIENTED_EDGE('',*,*,#267,.F.);
#333=ORIENTED_EDGE('',*,*,#268,.T.);
#334=ORIENTED_EDGE('',*,*,#258,.T.);
#335=ORIENTED_EDGE('',*,*,#269,.T.);
#336=ORIENTED_EDGE('',*,*,#267,.T.);
#337=ORIENTED_EDGE('',*,*,#270,.T.);
#338=ORIENTED_EDGE('',*,*,#271,.F.);
#339=ORIENTED_EDGE('',*,*,#272,.T.);
#340=ORIENTED_EDGE('',*,*,#263,.T.);
#341=ORIENTED_EDGE('',*,*,#273,.T.);
#342=ORIENTED_EDGE('',*,*,#274,.F.);
#343=ORIENTED_EDGE('',*,*,#246,.T.);
#344=ORIENTED_EDGE('',*,*,#257,.T.);
#345=ORIENTED_EDGE('',*,*,#275,.T.);
#346=ORIENTED_EDGE('',*,*,#276,.T.);
#347=ORIENTED_EDGE('',*,*,#277,.T.);
#348=ORIENTED_EDGE('',*,*,#278,.F.);
#349=ORIENTED_EDGE('',*,*,#279,.T.);
#350=ORIENTED_EDGE('',*,*,#280,.T.);
#351=ORIENTED_EDGE('',*,*,#281,.T.);
#352=ORIENTED_EDGE('',*,*,#282,.F.);
#353=ORIENTED_EDGE('',*,*,#255,.T.);
#354=ORIENTED_EDGE('',*,*,#283,.F.);
#355=ORIENTED_EDGE('',*,*,#284,.T.);
#356=ORIENTED_EDGE('',*,*,#261,.F.);
#357=ORIENTED_EDGE('',*,*,#285,.F.);
#358=ORIENTED_EDGE('',*,*,#281,.F.);
#359=ORIENTED_EDGE('',*,*,#286,.F.);
#360=ORIENTED_EDGE('',*,*,#273,.F.);
#361=ORIENTED_EDGE('',*,*,#262,.F.);
#362=ORIENTED_EDGE('',*,*,#284,.F.);
#363=ORIENTED_EDGE('',*,*,#287,.F.);
#364=ORIENTED_EDGE('',*,*,#288,.F.);
#365=ORIENTED_EDGE('',*,*,#264,.F.);
#366=ORIENTED_EDGE('',*,*,#272,.F.);
#367=ORIENTED_EDGE('',*,*,#289,.F.);
#368=ORIENTED_EDGE('',*,*,#279,.F.);
#369=ORIENTED_EDGE('',*,*,#290,.F.);
#370=ORIENTED_EDGE('',*,*,#277,.F.);
#371=ORIENTED_EDGE('',*,*,#291,.F.);
#372=ORIENTED_EDGE('',*,*,#270,.F.);
#373=ORIENTED_EDGE('',*,*,#266,.F.);
#374=ORIENTED_EDGE('',*,*,#292,.F.);
#375=ORIENTED_EDGE('',*,*,#293,.F.);
#376=ORIENTED_EDGE('',*,*,#292,.T.);
#377=ORIENTED_EDGE('',*,*,#265,.F.);
#378=ORIENTED_EDGE('',*,*,#288,.T.);
#379=ORIENTED_EDGE('',*,*,#291,.T.);
#380=ORIENTED_EDGE('',*,*,#276,.F.);
#381=ORIENTED_EDGE('',*,*,#294,.T.);
#382=ORIENTED_EDGE('',*,*,#271,.T.);
#383=ORIENTED_EDGE('',*,*,#286,.T.);
#384=ORIENTED_EDGE('',*,*,#280,.F.);
#385=ORIENTED_EDGE('',*,*,#289,.T.);
#386=ORIENTED_EDGE('',*,*,#274,.T.);
#387=ORIENTED_EDGE('',*,*,#295,.F.);
#388=ORIENTED_EDGE('',*,*,#259,.F.);
#389=ORIENTED_EDGE('',*,*,#268,.F.);
#390=ORIENTED_EDGE('',*,*,#269,.F.);
#391=ORIENTED_EDGE('',*,*,#294,.F.);
#392=ORIENTED_EDGE('',*,*,#275,.F.);
#393=ORIENTED_EDGE('',*,*,#241,.T.);
#394=ORIENTED_EDGE('',*,*,#243,.T.);
#395=ORIENTED_EDGE('',*,*,#245,.T.);
#396=ORIENTED_EDGE('',*,*,#247,.T.);
#397=ORIENTED_EDGE('',*,*,#260,.T.);
#398=ORIENTED_EDGE('',*,*,#295,.T.);
#399=ORIENTED_EDGE('',*,*,#278,.T.);
#400=ORIENTED_EDGE('',*,*,#290,.T.);
#401=ORIENTED_EDGE('',*,*,#293,.T.);
#402=ORIENTED_EDGE('',*,*,#287,.T.);
#403=ORIENTED_EDGE('',*,*,#282,.T.);
#404=ORIENTED_EDGE('',*,*,#285,.T.);
#405=ORIENTED_EDGE('',*,*,#283,.T.);
#406=ORIENTED_EDGE('',*,*,#254,.T.);
#407=ORIENTED_EDGE('',*,*,#251,.T.);
#408=CONICAL_SURFACE('',#436,2.25,0.785398163397448);
#409=CONICAL_SURFACE('',#439,2.25,0.785398163397448);
#410=CONICAL_SURFACE('',#442,2.25,0.785398163397448);
#411=ADVANCED_FACE('',(#130,#116),#408,.F.);
#412=ADVANCED_FACE('',(#131,#117),#409,.F.);
#413=ADVANCED_FACE('',(#132,#118),#410,.F.);
#414=ADVANCED_FACE('',(#133),#100,.T.);
#415=ADVANCED_FACE('',(#134),#101,.T.);
#416=ADVANCED_FACE('',(#135),#102,.T.);
#417=ADVANCED_FACE('',(#136),#103,.T.);
#418=ADVANCED_FACE('',(#137),#104,.T.);
#419=ADVANCED_FACE('',(#138),#105,.T.);
#420=ADVANCED_FACE('',(#119,#120,#121,#122),#106,.T.);
#421=ADVANCED_FACE('',(#139),#17,.T.);
#422=ADVANCED_FACE('',(#140),#18,.T.);
#423=ADVANCED_FACE('',(#141,#123,#124,#125),#19,.T.);
#424=ADVANCED_FACE('',(#142),#107,.T.);
#425=ADVANCED_FACE('',(#143),#108,.T.);
#426=ADVANCED_FACE('',(#144),#109,.F.);
#427=ADVANCED_FACE('',(#145),#110,.T.);
#428=ADVANCED_FACE('',(#146),#111,.T.);
#429=ADVANCED_FACE('',(#147),#112,.T.);
#430=ADVANCED_FACE('',(#148),#113,.T.);
#431=ADVANCED_FACE('',(#149),#114,.F.);
#432=ADVANCED_FACE('',(#126,#127,#128,#129),#115,.T.);
#433=CLOSED_SHELL('',(#411,#412,#413,#414,#415,#416,#417,#418,#419,#420,
#421,#422,#423,#424,#425,#426,#427,#428,#429,#430,#431,#432));
#434=MANIFOLD_SOLID_BREP('50-7-3553_1',#433);
#435=AXIS2_PLACEMENT_3D('placement',#592,#474,#475);
#436=AXIS2_PLACEMENT_3D('',#593,#476,#477);
#437=AXIS2_PLACEMENT_3D('',#595,#478,#479);
#438=AXIS2_PLACEMENT_3D('',#597,#480,#481);
#439=AXIS2_PLACEMENT_3D('',#598,#482,#483);
#440=AXIS2_PLACEMENT_3D('',#600,#484,#485);
#441=AXIS2_PLACEMENT_3D('',#602,#486,#487);
#442=AXIS2_PLACEMENT_3D('',#603,#488,#489);
#443=AXIS2_PLACEMENT_3D('',#605,#490,#491);
#444=AXIS2_PLACEMENT_3D('',#607,#492,#493);
#445=AXIS2_PLACEMENT_3D('',#608,#494,#495);
#446=AXIS2_PLACEMENT_3D('',#610,#496,#497);
#447=AXIS2_PLACEMENT_3D('',#611,#498,#499);
#448=AXIS2_PLACEMENT_3D('',#620,#504,#505);
#449=AXIS2_PLACEMENT_3D('',#626,#509,#510);
#450=AXIS2_PLACEMENT_3D('',#632,#514,#515);
#451=AXIS2_PLACEMENT_3D('',#634,#516,#517);
#452=AXIS2_PLACEMENT_3D('',#635,#518,#519);
#453=AXIS2_PLACEMENT_3D('',#641,#523,#524);
#454=AXIS2_PLACEMENT_3D('',#657,#533,#534);
#455=AXIS2_PLACEMENT_3D('',#659,#535,#536);
#456=AXIS2_PLACEMENT_3D('',#661,#537,#538);
#457=AXIS2_PLACEMENT_3D('',#663,#540,#541);
#458=AXIS2_PLACEMENT_3D('',#665,#542,#543);
#459=AXIS2_PLACEMENT_3D('',#667,#544,#545);
#460=AXIS2_PLACEMENT_3D('',#669,#547,#548);
#461=AXIS2_PLACEMENT_3D('',#672,#549,#550);
#462=AXIS2_PLACEMENT_3D('',#676,#552,#553);
#463=AXIS2_PLACEMENT_3D('',#680,#555,#556);
#464=AXIS2_PLACEMENT_3D('',#684,#558,#559);
#465=AXIS2_PLACEMENT_3D('',#686,#561,#562);
#466=AXIS2_PLACEMENT_3D('',#690,#565,#566);
#467=AXIS2_PLACEMENT_3D('',#693,#569,#570);
#468=AXIS2_PLACEMENT_3D('',#698,#574,#575);
#469=AXIS2_PLACEMENT_3D('',#703,#579,#580);
#470=AXIS2_PLACEMENT_3D('',#705,#582,#583);
#471=AXIS2_PLACEMENT_3D('',#707,#585,#586);
#472=AXIS2_PLACEMENT_3D('',#708,#587,#588);
#473=AXIS2_PLACEMENT_3D('',#710,#590,#591);
#474=DIRECTION('axis',(0.,0.,1.));
#475=DIRECTION('refdir',(1.,0.,0.));
#476=DIRECTION('center_axis',(0.,1.,6.12303176911189E-017));
#477=DIRECTION('ref_axis',(1.,0.,0.));
#478=DIRECTION('center_axis',(0.,1.,6.12303176911189E-017));
#479=DIRECTION('ref_axis',(1.,0.,0.));
#480=DIRECTION('center_axis',(0.,-1.,-6.12303176911189E-017));
#481=DIRECTION('ref_axis',(1.,0.,0.));
#482=DIRECTION('center_axis',(0.,1.,6.12303176911189E-017));
#483=DIRECTION('ref_axis',(1.,0.,0.));
#484=DIRECTION('center_axis',(0.,1.,6.12303176911189E-017));
#485=DIRECTION('ref_axis',(1.,0.,0.));
#486=DIRECTION('center_axis',(0.,-1.,-6.12303176911189E-017));
#487=DIRECTION('ref_axis',(1.,0.,0.));
#488=DIRECTION('center_axis',(0.,1.,6.12303176911189E-017));
#489=DIRECTION('ref_axis',(1.,0.,0.));
#490=DIRECTION('center_axis',(0.,1.,6.12303176911189E-017));
#491=DIRECTION('ref_axis',(1.,0.,0.));
#492=DIRECTION('center_axis',(0.,-1.,-6.12303176911189E-017));
#493=DIRECTION('ref_axis',(1.,0.,0.));
#494=DIRECTION('center_axis',(1.,0.,0.));
#495=DIRECTION('ref_axis',(0.,4.44089209850063E-017,-1.));
#496=DIRECTION('center_axis',(-1.,0.,0.));
#497=DIRECTION('ref_axis',(3.74915180455534E-033,6.12303176911189E-017,
-1.));
#498=DIRECTION('center_axis',(-1.,1.49405474473676E-032,-2.22044604925031E-016));
#499=DIRECTION('ref_axis',(-1.77635683940025E-016,-4.44089209850063E-017,
1.));
#500=DIRECTION('',(-2.22044604925031E-016,-6.12303176911189E-017,1.));
#501=DIRECTION('',(0.,1.,6.72862439166761E-017));
#502=DIRECTION('',(2.22044604925031E-016,6.12303176911189E-017,-1.));
#503=DIRECTION('',(-1.34468574620899E-033,-1.,-6.12303176911189E-017));
#504=DIRECTION('center_axis',(0.,6.72862439166761E-017,-1.));
#505=DIRECTION('ref_axis',(-1.,0.,0.));
#506=DIRECTION('',(-1.,0.,0.));
#507=DIRECTION('',(0.,1.,6.72862439166761E-017));
#508=DIRECTION('',(1.,0.,0.));
#509=DIRECTION('center_axis',(1.,0.,0.));
#510=DIRECTION('ref_axis',(0.,4.44089209850063E-017,-1.));
#511=DIRECTION('',(0.,6.12303176911189E-017,-1.));
#512=DIRECTION('',(0.,1.,6.12303176911189E-017));
#513=DIRECTION('',(0.,-6.12303176911189E-017,1.));
#514=DIRECTION('center_axis',(-1.,1.49405474473676E-032,-2.22044604925031E-016));
#515=DIRECTION('ref_axis',(-1.77635683940025E-016,-4.44089209850063E-017,
1.));
#516=DIRECTION('center_axis',(1.,-1.49405474473676E-032,2.22044604925031E-016));
#517=DIRECTION('ref_axis',(3.74915180455534E-033,6.12303176911189E-017,
-1.));
#518=DIRECTION('center_axis',(-3.74915180455534E-033,-6.12303176911189E-017,
1.));
#519=DIRECTION('ref_axis',(1.,0.,0.));
#520=DIRECTION('',(-1.,0.,-3.74915180455534E-033));
#521=DIRECTION('',(0.,1.,6.12303176911189E-017));
#522=DIRECTION('',(1.,0.,3.74915180455534E-033));
#523=DIRECTION('center_axis',(0.,-1.,-6.12303176911189E-017));
#524=DIRECTION('ref_axis',(3.74915180455534E-033,0.,-1.));
#525=DIRECTION('',(-1.,0.,-3.74915180455534E-033));
#526=DIRECTION('',(-3.74915180455534E-033,-6.12303176911189E-017,1.));
#527=DIRECTION('',(1.,0.,3.74915180455534E-033));
#528=DIRECTION('',(3.74915180455534E-033,6.12303176911189E-017,-1.));
#529=DIRECTION('',(-1.,0.,-3.74915180455534E-033));
#530=DIRECTION('',(-3.74915180455534E-033,-6.12303176911189E-017,1.));
#531=DIRECTION('',(1.,0.,3.74915180455534E-033));
#532=DIRECTION('',(3.74915180455534E-033,6.12303176911189E-017,-1.));
#533=DIRECTION('center_axis',(1.,0.,3.74915180455534E-033));
#534=DIRECTION('ref_axis',(3.74915180455534E-033,6.12303176911189E-017,
-1.));
#535=DIRECTION('center_axis',(1.,0.,3.74915180455534E-033));
#536=DIRECTION('ref_axis',(3.74915180455534E-033,6.12303176911189E-017,
-1.));
#537=DIRECTION('center_axis',(-1.,0.,-3.74915180455534E-033));
#538=DIRECTION('ref_axis',(3.74915180455534E-033,6.12303176911189E-017,
-1.));
#539=DIRECTION('',(1.,0.,3.74915180455534E-033));
#540=DIRECTION('center_axis',(1.,0.,3.74915180455534E-033));
#541=DIRECTION('ref_axis',(3.74915180455534E-033,6.12303176911189E-017,
-1.));
#542=DIRECTION('center_axis',(1.,0.,3.74915180455534E-033));
#543=DIRECTION('ref_axis',(3.74915180455534E-033,6.12303176911189E-017,
-1.));
#544=DIRECTION('center_axis',(-1.,0.,-3.74915180455534E-033));
#545=DIRECTION('ref_axis',(3.74915180455534E-033,6.12303176911189E-017,
-1.));
#546=DIRECTION('',(1.,0.,3.74915180455534E-033));
#547=DIRECTION('center_axis',(1.,0.,3.74915180455534E-033));
#548=DIRECTION('ref_axis',(3.74915180455534E-033,6.12303176911189E-017,
-1.));
#549=DIRECTION('center_axis',(-1.,0.,-3.74915180455534E-033));
#550=DIRECTION('ref_axis',(3.74915180455534E-033,6.12303176911189E-017,
-1.));
#551=DIRECTION('',(1.,0.,3.74915180455534E-033));
#552=DIRECTION('center_axis',(1.,0.,3.74915180455534E-033));
#553=DIRECTION('ref_axis',(3.74915180455534E-033,6.12303176911189E-017,
-1.));
#554=DIRECTION('',(1.,0.,3.74915180455534E-033));
#555=DIRECTION('center_axis',(-1.,0.,-3.74915180455534E-033));
#556=DIRECTION('ref_axis',(3.74915180455534E-033,6.12303176911189E-017,
-1.));
#557=DIRECTION('',(1.,0.,3.74915180455534E-033));
#558=DIRECTION('center_axis',(1.,0.,3.74915180455534E-033));
#559=DIRECTION('ref_axis',(3.74915180455534E-033,6.12303176911189E-017,
-1.));
#560=DIRECTION('',(1.,0.,3.74915180455534E-033));
#561=DIRECTION('center_axis',(-3.74915180455534E-033,-6.12303176911189E-017,
1.));
#562=DIRECTION('ref_axis',(1.,0.,0.));
#563=DIRECTION('',(1.,0.,3.74915180455534E-033));
#564=DIRECTION('',(0.,-1.,-6.12303176911189E-017));
#565=DIRECTION('center_axis',(1.,0.,3.74915180455534E-033));
#566=DIRECTION('ref_axis',(0.,6.12303176911189E-017,-1.));
#567=DIRECTION('',(3.74915180455534E-033,6.12303176911189E-017,-1.));
#568=DIRECTION('',(0.,0.484809620246337,0.874619707139396));
#569=DIRECTION('center_axis',(1.,0.,3.74915180455534E-033));
#570=DIRECTION('ref_axis',(0.,6.12303176911189E-017,-1.));
#571=DIRECTION('',(-3.74915180455534E-033,-6.12303176911189E-017,1.));
#572=DIRECTION('',(0.,1.,6.12303176911189E-017));
#573=DIRECTION('',(0.,-0.484809620246337,-0.874619707139396));
#574=DIRECTION('center_axis',(1.,0.,3.74915180455534E-033));
#575=DIRECTION('ref_axis',(0.,6.12303176911189E-017,-1.));
#576=DIRECTION('',(3.74915180455534E-033,6.12303176911189E-017,-1.));
#577=DIRECTION('',(0.,0.484809620246337,0.874619707139396));
#578=DIRECTION('',(0.,-1.,-6.12303176911189E-017));
#579=DIRECTION('center_axis',(-3.74915180455534E-033,-6.12303176911189E-017,
1.));
#580=DIRECTION('ref_axis',(1.,0.,0.));
#581=DIRECTION('',(1.,0.,3.74915180455534E-033));
#582=DIRECTION('center_axis',(0.,-0.874619707139396,0.484809620246337));
#583=DIRECTION('ref_axis',(0.,-0.484809620246337,-0.874619707139396));
#584=DIRECTION('',(0.,-0.484809620246337,-0.874619707139396));
#585=DIRECTION('center_axis',(0.,-0.874619707139396,0.484809620246337));
#586=DIRECTION('ref_axis',(0.,-0.484809620246337,-0.874619707139396));
#587=DIRECTION('center_axis',(1.,0.,3.74915180455534E-033));
#588=DIRECTION('ref_axis',(0.,6.12303176911189E-017,-1.));
#589=DIRECTION('',(-3.74915180455534E-033,-6.12303176911189E-017,1.));
#590=DIRECTION('center_axis',(0.,1.,6.12303176911189E-017));
#591=DIRECTION('ref_axis',(-3.74915180455534E-033,0.,1.));
#592=CARTESIAN_POINT('',(0.,0.,0.));
#593=CARTESIAN_POINT('Origin',(35.,-2.5,-9.75000000000001));
#594=CARTESIAN_POINT('',(33.,-2.75,-9.75000000000001));
#595=CARTESIAN_POINT('Origin',(35.,-2.75,-9.75000000000001));
#596=CARTESIAN_POINT('',(38.,-1.75,-9.75000000000001));
#597=CARTESIAN_POINT('Origin',(35.,-1.75,-9.75000000000001));
#598=CARTESIAN_POINT('Origin',(14.,-2.5,-9.75000000000001));
#599=CARTESIAN_POINT('',(12.,-2.75,-9.75000000000001));
#600=CARTESIAN_POINT('Origin',(14.,-2.75,-9.75000000000001));
#601=CARTESIAN_POINT('',(17.,-1.75,-9.75000000000001));
#602=CARTESIAN_POINT('Origin',(14.,-1.75,-9.75000000000001));
#603=CARTESIAN_POINT('Origin',(56.,-2.5,-9.75000000000001));
#604=CARTESIAN_POINT('',(54.,-2.75,-9.75000000000001));
#605=CARTESIAN_POINT('Origin',(56.,-2.75,-9.75000000000001));
#606=CARTESIAN_POINT('',(59.,-1.75,-9.75000000000001));
#607=CARTESIAN_POINT('Origin',(56.,-1.75,-9.75000000000001));
#608=CARTESIAN_POINT('Origin',(65.,-2.75,2.75));
#609=CARTESIAN_POINT('',(65.,1.07160133891329E-016,1.75));
#610=CARTESIAN_POINT('Origin',(65.,0.,2.43694867296097E-031));
#611=CARTESIAN_POINT('Origin',(5.,-2.75,-17.25));
#612=CARTESIAN_POINT('',(5.,-1.75,-17.25));
#613=CARTESIAN_POINT('',(5.,-1.75,-2.95));
#614=CARTESIAN_POINT('',(5.,-1.75,-13.8125));
#615=CARTESIAN_POINT('',(5.,-2.75,-17.25));
#616=CARTESIAN_POINT('',(5.,-2.75,-17.25));
#617=CARTESIAN_POINT('',(5.,-2.75,-2.95));
#618=CARTESIAN_POINT('',(5.,-2.75,-13.8125));
#619=CARTESIAN_POINT('',(5.,-1.375,-2.95));
#620=CARTESIAN_POINT('Origin',(65.,-2.75,-17.25));
#621=CARTESIAN_POINT('',(65.,-1.75,-17.25));
#622=CARTESIAN_POINT('',(32.5,-1.75,-17.25));
#623=CARTESIAN_POINT('',(65.,-2.75,-17.25));
#624=CARTESIAN_POINT('',(65.,-2.75,-17.25));
#625=CARTESIAN_POINT('',(32.5,-2.75,-17.25));
#626=CARTESIAN_POINT('Origin',(65.,-2.75,2.75));
#627=CARTESIAN_POINT('',(65.,-1.75,-2.95));
#628=CARTESIAN_POINT('',(65.,-1.75,-3.8125));
#629=CARTESIAN_POINT('',(65.,-2.75,-2.95));
#630=CARTESIAN_POINT('',(65.,-1.375,-2.95));
#631=CARTESIAN_POINT('',(65.,-2.75,-3.8125));
#632=CARTESIAN_POINT('Origin',(5.,-2.75,-17.25));
#633=CARTESIAN_POINT('',(5.,-3.21466245810245E-016,1.75));
#634=CARTESIAN_POINT('Origin',(5.,0.,1.87457590227768E-032));
#635=CARTESIAN_POINT('Origin',(7.,1.80629437188801E-016,-2.95));
#636=CARTESIAN_POINT('',(14.,-2.75,-2.95));
#637=CARTESIAN_POINT('',(3.5,-2.75,-2.95));
#638=CARTESIAN_POINT('',(14.,-1.75,-2.95));
#639=CARTESIAN_POINT('',(14.,1.80629437188801E-016,-2.95));
#640=CARTESIAN_POINT('',(3.5,-1.75,-2.95));
#641=CARTESIAN_POINT('Origin',(2.46519032881566E-032,-2.75,-10.375));
#642=CARTESIAN_POINT('',(56.,-2.75,-2.95));
#643=CARTESIAN_POINT('',(31.5,-2.75,-2.95));
#644=CARTESIAN_POINT('',(56.,-2.75,3.06497974452371E-016));
#645=CARTESIAN_POINT('',(56.,-2.75,-5.2375));
#646=CARTESIAN_POINT('',(42.,-2.75,-1.98652146499359E-016));
#647=CARTESIAN_POINT('',(0.,-2.75,3.06497974452371E-016));
#648=CARTESIAN_POINT('',(42.,-2.75,-2.95));
#649=CARTESIAN_POINT('',(42.,-2.75,-5.2375));
#650=CARTESIAN_POINT('',(28.,-2.75,-2.95));
#651=CARTESIAN_POINT('',(17.5,-2.75,-2.95));
#652=CARTESIAN_POINT('',(28.,-2.75,-1.9865214649936E-016));
#653=CARTESIAN_POINT('',(28.,-2.75,-5.2375));
#654=CARTESIAN_POINT('',(14.,-2.75,-1.9865214649936E-016));
#655=CARTESIAN_POINT('',(0.,-2.75,3.06497974452371E-016));
#656=CARTESIAN_POINT('',(14.,-2.75,-5.2375));
#657=CARTESIAN_POINT('Origin',(0.,-5.13861793326374E-017,-3.02687728487828E-017));
#658=CARTESIAN_POINT('',(14.,-1.33322645567743,-2.40520419463334));
#659=CARTESIAN_POINT('Origin',(14.,-5.13861793326374E-017,-3.02687728487827E-017));
#660=CARTESIAN_POINT('',(28.,-1.33322645567743,-2.40520419463334));
#661=CARTESIAN_POINT('Origin',(28.,-5.13861793326374E-017,-3.02687728487826E-017));
#662=CARTESIAN_POINT('',(1.23259516440783E-032,-1.33322645567743,-2.40520419463334));
#663=CARTESIAN_POINT('Origin',(0.,-5.13861793326374E-017,-3.02687728487828E-017));
#664=CARTESIAN_POINT('',(42.,-1.33322645567743,-2.40520419463334));
#665=CARTESIAN_POINT('Origin',(42.,-5.13861793326372E-017,-3.02687728487826E-017));
#666=CARTESIAN_POINT('',(56.,-1.33322645567743,-2.40520419463334));
#667=CARTESIAN_POINT('Origin',(56.,-5.13861793326372E-017,-3.02687728487825E-017));
#668=CARTESIAN_POINT('',(1.23259516440783E-032,-1.33322645567743,-2.40520419463334));
#669=CARTESIAN_POINT('Origin',(35.,0.,1.31220313159437E-031));
#670=CARTESIAN_POINT('',(14.,-1.75,1.84037339070133E-016));
#671=CARTESIAN_POINT('',(14.,-0.848416835431089,-1.53058448749394));
#672=CARTESIAN_POINT('Origin',(14.,-5.13861793326374E-017,-3.02687728487827E-017));
#673=CARTESIAN_POINT('',(28.,-0.848416835431089,-1.53058448749394));
#674=CARTESIAN_POINT('',(6.16297582203915E-033,-0.848416835431089,-1.53058448749394));
#675=CARTESIAN_POINT('',(28.,-1.75,1.84037339070133E-016));
#676=CARTESIAN_POINT('Origin',(28.,-5.13861793326374E-017,-3.02687728487826E-017));
#677=CARTESIAN_POINT('',(0.,-1.75,1.84037339070133E-016));
#678=CARTESIAN_POINT('',(42.,-1.75,1.84037339070133E-016));
#679=CARTESIAN_POINT('',(42.,-0.848416835431089,-1.53058448749394));
#680=CARTESIAN_POINT('Origin',(42.,-5.13861793326372E-017,-3.02687728487826E-017));
#681=CARTESIAN_POINT('',(56.,-0.848416835431089,-1.53058448749394));
#682=CARTESIAN_POINT('',(6.16297582203915E-033,-0.848416835431089,-1.53058448749394));
#683=CARTESIAN_POINT('',(56.,-1.75,1.84037339070133E-016));
#684=CARTESIAN_POINT('Origin',(56.,-5.13861793326372E-017,-3.02687728487825E-017));
#685=CARTESIAN_POINT('',(0.,-1.75,1.84037339070133E-016));
#686=CARTESIAN_POINT('Origin',(63.,1.806294371888E-016,-2.95));
#687=CARTESIAN_POINT('',(56.,-1.75,-2.95));
#688=CARTESIAN_POINT('',(31.5,-1.75,-2.95));
#689=CARTESIAN_POINT('',(56.,1.806294371888E-016,-2.95));
#690=CARTESIAN_POINT('Origin',(56.,6.12303176911173E-018,-0.1));
#691=CARTESIAN_POINT('',(56.,-1.75,-5.2375));
#692=CARTESIAN_POINT('',(56.,-0.56661202518104,-1.02219515213765));
#693=CARTESIAN_POINT('Origin',(42.,6.12303176911173E-018,-0.1));
#694=CARTESIAN_POINT('',(42.,-1.75,-2.95));
#695=CARTESIAN_POINT('',(42.,-1.75,-5.2375));
#696=CARTESIAN_POINT('',(42.,1.80629437188801E-016,-2.95));
#697=CARTESIAN_POINT('',(42.,-0.56661202518104,-1.02219515213765));
#698=CARTESIAN_POINT('Origin',(28.,6.12303176911193E-018,-0.1));
#699=CARTESIAN_POINT('',(28.,-1.75,-2.95));
#700=CARTESIAN_POINT('',(28.,-1.75,-5.2375));
#701=CARTESIAN_POINT('',(28.,-0.56661202518104,-1.02219515213765));
#702=CARTESIAN_POINT('',(28.,1.80629437188801E-016,-2.95));
#703=CARTESIAN_POINT('Origin',(35.,1.80629437188801E-016,-2.95));
#704=CARTESIAN_POINT('',(17.5,-1.75,-2.95));
#705=CARTESIAN_POINT('Origin',(1.23259516440783E-032,-1.09082164555426,
-1.96789434106364));
#706=CARTESIAN_POINT('',(14.,-0.56661202518104,-1.02219515213765));
#707=CARTESIAN_POINT('Origin',(1.23259516440783E-032,-1.09082164555426,
-1.96789434106364));
#708=CARTESIAN_POINT('Origin',(14.,6.12303176911193E-018,-0.1));
#709=CARTESIAN_POINT('',(14.,-1.75,-5.2375));
#710=CARTESIAN_POINT('Origin',(3.69778549322349E-032,-1.75,-10.375));
#711=UNCERTAINTY_MEASURE_WITH_UNIT(LENGTH_MEASURE(0.01),#715,
'DISTANCE_ACCURACY_VALUE',
'Maximum model space distance between geometric entities at asserted c
onnectivities');
#712=UNCERTAINTY_MEASURE_WITH_UNIT(LENGTH_MEASURE(1.E-006),#715,
'DISTANCE_ACCURACY_VALUE',
'Maximum model space distance between geometric entities at asserted c
onnectivities');
#713=(
GEOMETRIC_REPRESENTATION_CONTEXT(3)
GLOBAL_UNCERTAINTY_ASSIGNED_CONTEXT((#711))
GLOBAL_UNIT_ASSIGNED_CONTEXT((#715,#717,#716))
REPRESENTATION_CONTEXT('','3D')
);
#714=(
GEOMETRIC_REPRESENTATION_CONTEXT(3)
GLOBAL_UNCERTAINTY_ASSIGNED_CONTEXT((#712))
GLOBAL_UNIT_ASSIGNED_CONTEXT((#715,#12,#716))
REPRESENTATION_CONTEXT('','3D')
);
#715=(
LENGTH_UNIT()
NAMED_UNIT(*)
SI_UNIT(.MILLI.,.METRE.)
);
#716=(
NAMED_UNIT(*)
SI_UNIT($,.STERADIAN.)
SOLID_ANGLE_UNIT()
);
#717=(
NAMED_UNIT(*)
PLANE_ANGLE_UNIT()
SI_UNIT($,.RADIAN.)
);
#718=SHAPE_DEFINITION_REPRESENTATION(#719,#720);
#719=PRODUCT_DEFINITION_SHAPE('',$,#722);
#720=SHAPE_REPRESENTATION('',(#435),#713);
#721=PRODUCT_DEFINITION_CONTEXT('part definition',#726,'design');
#722=PRODUCT_DEFINITION('Scharnier 2','Scharnier 2',#723,#721);
#723=PRODUCT_DEFINITION_FORMATION('',$,#728);
#724=PRODUCT_RELATED_PRODUCT_CATEGORY('Scharnier 2','Scharnier 2',(#728));
#725=APPLICATION_PROTOCOL_DEFINITION('international standard',
'automotive_design',2009,#726);
#726=APPLICATION_CONTEXT(
'Core Data for Automotive Mechanical Design Process');
#727=PRODUCT_CONTEXT('part definition',#726,'mechanical');
#728=PRODUCT('Scharnier 2','Scharnier 2',$,(#727));
#729=PRESENTATION_STYLE_ASSIGNMENT((#730));
#730=SURFACE_STYLE_USAGE(.BOTH.,#731);
#731=SURFACE_SIDE_STYLE($,(#732));
#732=SURFACE_STYLE_FILL_AREA(#733);
#733=FILL_AREA_STYLE($,(#734));
#734=FILL_AREA_STYLE_COLOUR($,#735);
#735=COLOUR_RGB('',0.749019607843137,0.749019607843137,0.749019607843137);
ENDSEC;
END-ISO-10303-21;
