ISO-10303-21;
HEADER;
/* Generated by software containing ST-Developer
 * from STEP Tools, Inc. (www.steptools.com) 
 */

FILE_DESCRIPTION(
/* description */ (''),
/* implementation_level */ '2;1');

FILE_NAME(
/* name */ 
'C:\\Users\\SvenW\\Documents\\inventor\\B-Automaten\\Export_B_Automate
n\\ExportGithub\\Verbindunghebel-coinaut.stp',
/* time_stamp */ '2026-05-14T08:04:13+02:00',
/* author */ ('SvenW'),
/* organization */ (''),
/* preprocessor_version */ 'ST-DEVELOPER v15.2',
/* originating_system */ 'Autodesk Inventor 2014',
/* authorisation */ '');

FILE_SCHEMA (('AUTOMOTIVE_DESIGN { 1 0 10303 214 3 1 1 }'));
ENDSEC;

DATA;
#10=MECHANICAL_DESIGN_GEOMETRIC_PRESENTATION_REPRESENTATION('',(#13),#709);
#11=SHAPE_REPRESENTATION_RELATIONSHIP('SRR','None',#718,#12);
#12=ADVANCED_BREP_SHAPE_REPRESENTATION($,(#356),#708);
#13=STYLED_ITEM('',(#727),#356);
#14=PLANE('',#373);
#15=PLANE('',#377);
#16=PLANE('',#380);
#17=PLANE('',#383);
#18=PLANE('',#385);
#19=PLANE('',#388);
#20=PLANE('',#393);
#21=PLANE('',#394);
#22=PLANE('',#398);
#23=PLANE('',#400);
#24=FACE_BOUND('',#105,.T.);
#25=FACE_BOUND('',#108,.T.);
#26=FACE_BOUND('',#110,.T.);
#27=FACE_BOUND('',#112,.T.);
#28=FACE_BOUND('',#114,.T.);
#29=FACE_BOUND('',#115,.T.);
#30=FACE_BOUND('',#116,.T.);
#31=FACE_BOUND('',#118,.T.);
#32=FACE_BOUND('',#120,.T.);
#33=FACE_BOUND('',#122,.T.);
#34=FACE_BOUND('',#123,.T.);
#35=FACE_BOUND('',#124,.T.);
#36=FACE_BOUND('',#126,.T.);
#37=FACE_BOUND('',#128,.T.);
#38=FACE_BOUND('',#130,.T.);
#39=FACE_BOUND('',#134,.T.);
#40=FACE_BOUND('',#136,.T.);
#41=LINE('',#535,#57);
#42=LINE('',#537,#58);
#43=LINE('',#570,#59);
#44=LINE('',#572,#60);
#45=LINE('',#658,#61);
#46=LINE('',#661,#62);
#47=LINE('',#666,#63);
#48=LINE('',#669,#64);
#49=LINE('',#677,#65);
#50=LINE('',#680,#66);
#51=LINE('',#685,#67);
#52=LINE('',#688,#68);
#53=LINE('',#699,#69);
#54=LINE('',#700,#70);
#55=LINE('',#702,#71);
#56=LINE('',#704,#72);
#57=VECTOR('',#411,3.);
#58=VECTOR('',#412,3.);
#59=VECTOR('',#425,3.);
#60=VECTOR('',#426,3.);
#61=VECTOR('',#447,42.2917960675006);
#62=VECTOR('',#450,42.2917960675006);
#63=VECTOR('',#455,13.);
#64=VECTOR('',#458,13.);
#65=VECTOR('',#467,42.2917960675006);
#66=VECTOR('',#470,42.2917960675006);
#67=VECTOR('',#475,13.);
#68=VECTOR('',#478,13.);
#69=VECTOR('',#495,3.);
#70=VECTOR('',#496,3.);
#71=VECTOR('',#499,3.);
#72=VECTOR('',#502,3.);
#73=CYLINDRICAL_SURFACE('',#361,6.);
#74=CYLINDRICAL_SURFACE('',#367,6.);
#75=CYLINDRICAL_SURFACE('',#374,3.95);
#76=CYLINDRICAL_SURFACE('',#376,1.);
#77=CYLINDRICAL_SURFACE('',#391,3.95);
#78=CYLINDRICAL_SURFACE('',#395,1.5);
#79=CYLINDRICAL_SURFACE('',#396,1.5);
#80=CYLINDRICAL_SURFACE('',#397,6.);
#81=CYLINDRICAL_SURFACE('',#399,6.);
#82=FACE_OUTER_BOUND('',#103,.T.);
#83=FACE_OUTER_BOUND('',#104,.T.);
#84=FACE_OUTER_BOUND('',#106,.T.);
#85=FACE_OUTER_BOUND('',#107,.T.);
#86=FACE_OUTER_BOUND('',#109,.T.);
#87=FACE_OUTER_BOUND('',#111,.T.);
#88=FACE_OUTER_BOUND('',#113,.T.);
#89=FACE_OUTER_BOUND('',#117,.T.);
#90=FACE_OUTER_BOUND('',#119,.T.);
#91=FACE_OUTER_BOUND('',#121,.T.);
#92=FACE_OUTER_BOUND('',#125,.T.);
#93=FACE_OUTER_BOUND('',#127,.T.);
#94=FACE_OUTER_BOUND('',#129,.T.);
#95=FACE_OUTER_BOUND('',#131,.T.);
#96=FACE_OUTER_BOUND('',#132,.T.);
#97=FACE_OUTER_BOUND('',#133,.T.);
#98=FACE_OUTER_BOUND('',#135,.T.);
#99=FACE_OUTER_BOUND('',#137,.T.);
#100=FACE_OUTER_BOUND('',#138,.T.);
#101=FACE_OUTER_BOUND('',#139,.T.);
#102=FACE_OUTER_BOUND('',#140,.T.);
#103=EDGE_LOOP('',(#244,#245,#246,#247));
#104=EDGE_LOOP('',(#248,#249,#250,#251));
#105=EDGE_LOOP('',(#252));
#106=EDGE_LOOP('',(#253,#254,#255,#256));
#107=EDGE_LOOP('',(#257,#258,#259,#260));
#108=EDGE_LOOP('',(#261));
#109=EDGE_LOOP('',(#262));
#110=EDGE_LOOP('',(#263));
#111=EDGE_LOOP('',(#264));
#112=EDGE_LOOP('',(#265));
#113=EDGE_LOOP('',(#266));
#114=EDGE_LOOP('',(#267));
#115=EDGE_LOOP('',(#268));
#116=EDGE_LOOP('',(#269));
#117=EDGE_LOOP('',(#270));
#118=EDGE_LOOP('',(#271));
#119=EDGE_LOOP('',(#272,#273,#274,#275));
#120=EDGE_LOOP('',(#276));
#121=EDGE_LOOP('',(#277,#278,#279,#280));
#122=EDGE_LOOP('',(#281));
#123=EDGE_LOOP('',(#282));
#124=EDGE_LOOP('',(#283));
#125=EDGE_LOOP('',(#284,#285,#286,#287));
#126=EDGE_LOOP('',(#288));
#127=EDGE_LOOP('',(#289,#290,#291,#292));
#128=EDGE_LOOP('',(#293));
#129=EDGE_LOOP('',(#294));
#130=EDGE_LOOP('',(#295));
#131=EDGE_LOOP('',(#296));
#132=EDGE_LOOP('',(#297));
#133=EDGE_LOOP('',(#298));
#134=EDGE_LOOP('',(#299));
#135=EDGE_LOOP('',(#300));
#136=EDGE_LOOP('',(#301));
#137=EDGE_LOOP('',(#302,#303,#304,#305));
#138=EDGE_LOOP('',(#306,#307,#308,#309,#310,#311,#312,#313,#314,#315));
#139=EDGE_LOOP('',(#316,#317,#318,#319));
#140=EDGE_LOOP('',(#320,#321,#322,#323,#324,#325,#326,#327,#328,#329));
#141=CIRCLE('',#359,9.);
#142=CIRCLE('',#360,6.);
#143=CIRCLE('',#362,6.);
#144=CIRCLE('',#363,6.);
#145=CIRCLE('',#365,9.);
#146=CIRCLE('',#366,6.);
#147=CIRCLE('',#368,6.);
#148=CIRCLE('',#369,6.);
#149=CIRCLE('',#371,5.95);
#150=CIRCLE('',#372,3.95);
#151=CIRCLE('',#375,3.95);
#152=CIRCLE('',#378,6.);
#153=CIRCLE('',#379,1.5);
#154=CIRCLE('',#381,6.);
#155=CIRCLE('',#382,1.5);
#156=CIRCLE('',#384,3.95);
#157=CIRCLE('',#386,6.);
#158=CIRCLE('',#387,1.5);
#159=CIRCLE('',#389,6.);
#160=CIRCLE('',#390,1.5);
#161=CIRCLE('',#392,3.95);
#162=B_SPLINE_CURVE_WITH_KNOTS('',3,(#509,#510,#511,#512,#513,#514,#515,
#516,#517,#518),.UNSPECIFIED.,.F.,.F.,(4,2,2,2,4),(0.,0.218533093275797,
0.437066186551594,0.570081040149325,0.703095893747057),.UNSPECIFIED.);
#163=B_SPLINE_CURVE_WITH_KNOTS('',3,(#522,#523,#524,#525,#526,#527,#528,
#529,#530,#531),.UNSPECIFIED.,.F.,.F.,(4,2,2,2,4),(1.70049412608918,1.83350897968691,
1.96652383328464,2.18505692656044,2.40359001983623),.UNSPECIFIED.);
#164=B_SPLINE_CURVE_WITH_KNOTS('',3,(#544,#545,#546,#547,#548,#549,#550,
#551,#552,#553),.UNSPECIFIED.,.F.,.F.,(4,2,2,2,4),(0.,0.218533093275797,
0.437066186551594,0.570081040149326,0.703095893747058),.UNSPECIFIED.);
#165=B_SPLINE_CURVE_WITH_KNOTS('',3,(#557,#558,#559,#560,#561,#562,#563,
#564,#565,#566),.UNSPECIFIED.,.F.,.F.,(4,2,2,2,4),(1.70049412608918,1.83350897968691,
1.96652383328464,2.18505692656044,2.40359001983623),.UNSPECIFIED.);
#166=B_SPLINE_CURVE_WITH_KNOTS('',3,(#586,#587,#588,#589,#590,#591,#592,
#593,#594,#595,#596,#597,#598,#599,#600,#601,#602,#603,#604,#605,#606,#607,
#608,#609,#610,#611,#612,#613,#614,#615,#616,#617,#618,#619),
 .UNSPECIFIED.,.T.,.F.,(4,2,2,2,2,2,2,2,2,2,2,2,2,2,2,2,4),(0.,0.0378495286957331,
0.0756990573914663,0.113543012297939,0.151386967204411,0.189230922110883,
0.227074877017356,0.264924405713089,0.302773934408822,0.340623463104555,
0.378472991800288,0.416316946706761,0.454160901613234,0.492004856519706,
0.529848811426179,0.567698340121912,0.605547868817645),.UNSPECIFIED.);
#167=B_SPLINE_CURVE_WITH_KNOTS('',3,(#621,#622,#623,#624,#625,#626,#627,
#628,#629,#630,#631,#632,#633,#634,#635,#636,#637,#638,#639,#640,#641,#642,
#643,#644,#645,#646,#647,#648,#649,#650,#651,#652,#653,#654),
 .UNSPECIFIED.,.T.,.F.,(4,2,2,2,2,2,2,2,2,2,2,2,2,2,2,2,4),(0.,0.0378495286957332,
0.0756990573914664,0.113543012297939,0.151386967204411,0.189230922110884,
0.227074877017357,0.26492440571309,0.302773934408823,0.340623463104556,
0.378472991800289,0.416316946706762,0.454160901613234,0.492004856519706,
0.529848811426179,0.567698340121912,0.605547868817645),.UNSPECIFIED.);
#168=VERTEX_POINT('',#507);
#169=VERTEX_POINT('',#508);
#170=VERTEX_POINT('',#519);
#171=VERTEX_POINT('',#521);
#172=VERTEX_POINT('',#534);
#173=VERTEX_POINT('',#536);
#174=VERTEX_POINT('',#539);
#175=VERTEX_POINT('',#542);
#176=VERTEX_POINT('',#543);
#177=VERTEX_POINT('',#554);
#178=VERTEX_POINT('',#556);
#179=VERTEX_POINT('',#569);
#180=VERTEX_POINT('',#571);
#181=VERTEX_POINT('',#574);
#182=VERTEX_POINT('',#577);
#183=VERTEX_POINT('',#579);
#184=VERTEX_POINT('',#583);
#185=VERTEX_POINT('',#585);
#186=VERTEX_POINT('',#620);
#187=VERTEX_POINT('',#657);
#188=VERTEX_POINT('',#659);
#189=VERTEX_POINT('',#662);
#190=VERTEX_POINT('',#665);
#191=VERTEX_POINT('',#667);
#192=VERTEX_POINT('',#670);
#193=VERTEX_POINT('',#673);
#194=VERTEX_POINT('',#676);
#195=VERTEX_POINT('',#678);
#196=VERTEX_POINT('',#681);
#197=VERTEX_POINT('',#684);
#198=VERTEX_POINT('',#686);
#199=VERTEX_POINT('',#689);
#200=VERTEX_POINT('',#692);
#201=EDGE_CURVE('',#168,#169,#162,.T.);
#202=EDGE_CURVE('',#169,#170,#141,.T.);
#203=EDGE_CURVE('',#171,#170,#163,.F.);
#204=EDGE_CURVE('',#171,#168,#142,.T.);
#205=EDGE_CURVE('',#172,#168,#41,.T.);
#206=EDGE_CURVE('',#173,#171,#42,.T.);
#207=EDGE_CURVE('',#172,#173,#143,.T.);
#208=EDGE_CURVE('',#174,#174,#144,.T.);
#209=EDGE_CURVE('',#175,#176,#164,.T.);
#210=EDGE_CURVE('',#176,#177,#145,.T.);
#211=EDGE_CURVE('',#178,#177,#165,.F.);
#212=EDGE_CURVE('',#178,#175,#146,.T.);
#213=EDGE_CURVE('',#179,#175,#43,.T.);
#214=EDGE_CURVE('',#180,#178,#44,.T.);
#215=EDGE_CURVE('',#179,#180,#147,.T.);
#216=EDGE_CURVE('',#181,#181,#148,.T.);
#217=EDGE_CURVE('',#182,#182,#149,.T.);
#218=EDGE_CURVE('',#183,#183,#150,.T.);
#219=EDGE_CURVE('',#184,#184,#151,.T.);
#220=EDGE_CURVE('',#185,#185,#166,.T.);
#221=EDGE_CURVE('',#186,#186,#167,.T.);
#222=EDGE_CURVE('',#169,#187,#45,.T.);
#223=EDGE_CURVE('',#187,#188,#152,.T.);
#224=EDGE_CURVE('',#188,#170,#46,.T.);
#225=EDGE_CURVE('',#189,#189,#153,.T.);
#226=EDGE_CURVE('',#173,#190,#47,.T.);
#227=EDGE_CURVE('',#190,#191,#154,.T.);
#228=EDGE_CURVE('',#191,#172,#48,.T.);
#229=EDGE_CURVE('',#192,#192,#155,.T.);
#230=EDGE_CURVE('',#193,#193,#156,.T.);
#231=EDGE_CURVE('',#194,#176,#49,.T.);
#232=EDGE_CURVE('',#195,#194,#157,.T.);
#233=EDGE_CURVE('',#177,#195,#50,.T.);
#234=EDGE_CURVE('',#196,#196,#158,.T.);
#235=EDGE_CURVE('',#197,#180,#51,.T.);
#236=EDGE_CURVE('',#198,#197,#159,.T.);
#237=EDGE_CURVE('',#179,#198,#52,.T.);
#238=EDGE_CURVE('',#199,#199,#160,.T.);
#239=EDGE_CURVE('',#200,#200,#161,.T.);
#240=EDGE_CURVE('',#197,#191,#53,.T.);
#241=EDGE_CURVE('',#198,#190,#54,.T.);
#242=EDGE_CURVE('',#194,#188,#55,.T.);
#243=EDGE_CURVE('',#195,#187,#56,.T.);
#244=ORIENTED_EDGE('',*,*,#201,.T.);
#245=ORIENTED_EDGE('',*,*,#202,.T.);
#246=ORIENTED_EDGE('',*,*,#203,.F.);
#247=ORIENTED_EDGE('',*,*,#204,.T.);
#248=ORIENTED_EDGE('',*,*,#205,.T.);
#249=ORIENTED_EDGE('',*,*,#204,.F.);
#250=ORIENTED_EDGE('',*,*,#206,.F.);
#251=ORIENTED_EDGE('',*,*,#207,.F.);
#252=ORIENTED_EDGE('',*,*,#208,.F.);
#253=ORIENTED_EDGE('',*,*,#209,.T.);
#254=ORIENTED_EDGE('',*,*,#210,.T.);
#255=ORIENTED_EDGE('',*,*,#211,.F.);
#256=ORIENTED_EDGE('',*,*,#212,.T.);
#257=ORIENTED_EDGE('',*,*,#213,.T.);
#258=ORIENTED_EDGE('',*,*,#212,.F.);
#259=ORIENTED_EDGE('',*,*,#214,.F.);
#260=ORIENTED_EDGE('',*,*,#215,.F.);
#261=ORIENTED_EDGE('',*,*,#216,.F.);
#262=ORIENTED_EDGE('',*,*,#217,.T.);
#263=ORIENTED_EDGE('',*,*,#218,.T.);
#264=ORIENTED_EDGE('',*,*,#208,.T.);
#265=ORIENTED_EDGE('',*,*,#217,.F.);
#266=ORIENTED_EDGE('',*,*,#219,.F.);
#267=ORIENTED_EDGE('',*,*,#220,.T.);
#268=ORIENTED_EDGE('',*,*,#221,.T.);
#269=ORIENTED_EDGE('',*,*,#218,.F.);
#270=ORIENTED_EDGE('',*,*,#221,.F.);
#271=ORIENTED_EDGE('',*,*,#220,.F.);
#272=ORIENTED_EDGE('',*,*,#202,.F.);
#273=ORIENTED_EDGE('',*,*,#222,.T.);
#274=ORIENTED_EDGE('',*,*,#223,.T.);
#275=ORIENTED_EDGE('',*,*,#224,.T.);
#276=ORIENTED_EDGE('',*,*,#225,.T.);
#277=ORIENTED_EDGE('',*,*,#207,.T.);
#278=ORIENTED_EDGE('',*,*,#226,.T.);
#279=ORIENTED_EDGE('',*,*,#227,.T.);
#280=ORIENTED_EDGE('',*,*,#228,.T.);
#281=ORIENTED_EDGE('',*,*,#229,.T.);
#282=ORIENTED_EDGE('',*,*,#230,.F.);
#283=ORIENTED_EDGE('',*,*,#216,.T.);
#284=ORIENTED_EDGE('',*,*,#210,.F.);
#285=ORIENTED_EDGE('',*,*,#231,.F.);
#286=ORIENTED_EDGE('',*,*,#232,.F.);
#287=ORIENTED_EDGE('',*,*,#233,.F.);
#288=ORIENTED_EDGE('',*,*,#234,.T.);
#289=ORIENTED_EDGE('',*,*,#215,.T.);
#290=ORIENTED_EDGE('',*,*,#235,.F.);
#291=ORIENTED_EDGE('',*,*,#236,.F.);
#292=ORIENTED_EDGE('',*,*,#237,.F.);
#293=ORIENTED_EDGE('',*,*,#238,.T.);
#294=ORIENTED_EDGE('',*,*,#230,.T.);
#295=ORIENTED_EDGE('',*,*,#239,.F.);
#296=ORIENTED_EDGE('',*,*,#219,.T.);
#297=ORIENTED_EDGE('',*,*,#239,.T.);
#298=ORIENTED_EDGE('',*,*,#225,.F.);
#299=ORIENTED_EDGE('',*,*,#234,.F.);
#300=ORIENTED_EDGE('',*,*,#229,.F.);
#301=ORIENTED_EDGE('',*,*,#238,.F.);
#302=ORIENTED_EDGE('',*,*,#236,.T.);
#303=ORIENTED_EDGE('',*,*,#240,.T.);
#304=ORIENTED_EDGE('',*,*,#227,.F.);
#305=ORIENTED_EDGE('',*,*,#241,.F.);
#306=ORIENTED_EDGE('',*,*,#231,.T.);
#307=ORIENTED_EDGE('',*,*,#209,.F.);
#308=ORIENTED_EDGE('',*,*,#213,.F.);
#309=ORIENTED_EDGE('',*,*,#237,.T.);
#310=ORIENTED_EDGE('',*,*,#241,.T.);
#311=ORIENTED_EDGE('',*,*,#226,.F.);
#312=ORIENTED_EDGE('',*,*,#206,.T.);
#313=ORIENTED_EDGE('',*,*,#203,.T.);
#314=ORIENTED_EDGE('',*,*,#224,.F.);
#315=ORIENTED_EDGE('',*,*,#242,.F.);
#316=ORIENTED_EDGE('',*,*,#232,.T.);
#317=ORIENTED_EDGE('',*,*,#242,.T.);
#318=ORIENTED_EDGE('',*,*,#223,.F.);
#319=ORIENTED_EDGE('',*,*,#243,.F.);
#320=ORIENTED_EDGE('',*,*,#235,.T.);
#321=ORIENTED_EDGE('',*,*,#214,.T.);
#322=ORIENTED_EDGE('',*,*,#211,.T.);
#323=ORIENTED_EDGE('',*,*,#233,.T.);
#324=ORIENTED_EDGE('',*,*,#243,.T.);
#325=ORIENTED_EDGE('',*,*,#222,.F.);
#326=ORIENTED_EDGE('',*,*,#201,.F.);
#327=ORIENTED_EDGE('',*,*,#205,.F.);
#328=ORIENTED_EDGE('',*,*,#228,.F.);
#329=ORIENTED_EDGE('',*,*,#240,.F.);
#330=TOROIDAL_SURFACE('',#358,9.,3.);
#331=TOROIDAL_SURFACE('',#364,9.,3.);
#332=TOROIDAL_SURFACE('',#370,5.95,2.);
#333=ADVANCED_FACE('',(#82),#330,.F.);
#334=ADVANCED_FACE('',(#83,#24),#73,.T.);
#335=ADVANCED_FACE('',(#84),#331,.F.);
#336=ADVANCED_FACE('',(#85,#25),#74,.T.);
#337=ADVANCED_FACE('',(#86,#26),#332,.F.);
#338=ADVANCED_FACE('',(#87,#27),#14,.F.);
#339=ADVANCED_FACE('',(#88,#28,#29,#30),#75,.T.);
#340=ADVANCED_FACE('',(#89,#31),#76,.F.);
#341=ADVANCED_FACE('',(#90,#32),#15,.F.);
#342=ADVANCED_FACE('',(#91,#33),#16,.F.);
#343=ADVANCED_FACE('',(#34,#35),#17,.T.);
#344=ADVANCED_FACE('',(#92,#36),#18,.T.);
#345=ADVANCED_FACE('',(#93,#37),#19,.T.);
#346=ADVANCED_FACE('',(#94,#38),#77,.T.);
#347=ADVANCED_FACE('',(#95),#20,.F.);
#348=ADVANCED_FACE('',(#96),#21,.T.);
#349=ADVANCED_FACE('',(#97,#39),#78,.F.);
#350=ADVANCED_FACE('',(#98,#40),#79,.F.);
#351=ADVANCED_FACE('',(#99),#80,.T.);
#352=ADVANCED_FACE('',(#100),#22,.T.);
#353=ADVANCED_FACE('',(#101),#81,.T.);
#354=ADVANCED_FACE('',(#102),#23,.T.);
#355=CLOSED_SHELL('',(#333,#334,#335,#336,#337,#338,#339,#340,#341,#342,
#343,#344,#345,#346,#347,#348,#349,#350,#351,#352,#353,#354));
#356=MANIFOLD_SOLID_BREP('Volumenk\X\F6rper1',#355);
#357=AXIS2_PLACEMENT_3D('placement',#505,#401,#402);
#358=AXIS2_PLACEMENT_3D('',#506,#403,#404);
#359=AXIS2_PLACEMENT_3D('',#520,#405,#406);
#360=AXIS2_PLACEMENT_3D('',#532,#407,#408);
#361=AXIS2_PLACEMENT_3D('',#533,#409,#410);
#362=AXIS2_PLACEMENT_3D('',#538,#413,#414);
#363=AXIS2_PLACEMENT_3D('',#540,#415,#416);
#364=AXIS2_PLACEMENT_3D('',#541,#417,#418);
#365=AXIS2_PLACEMENT_3D('',#555,#419,#420);
#366=AXIS2_PLACEMENT_3D('',#567,#421,#422);
#367=AXIS2_PLACEMENT_3D('',#568,#423,#424);
#368=AXIS2_PLACEMENT_3D('',#573,#427,#428);
#369=AXIS2_PLACEMENT_3D('',#575,#429,#430);
#370=AXIS2_PLACEMENT_3D('',#576,#431,#432);
#371=AXIS2_PLACEMENT_3D('',#578,#433,#434);
#372=AXIS2_PLACEMENT_3D('',#580,#435,#436);
#373=AXIS2_PLACEMENT_3D('',#581,#437,#438);
#374=AXIS2_PLACEMENT_3D('',#582,#439,#440);
#375=AXIS2_PLACEMENT_3D('',#584,#441,#442);
#376=AXIS2_PLACEMENT_3D('',#655,#443,#444);
#377=AXIS2_PLACEMENT_3D('',#656,#445,#446);
#378=AXIS2_PLACEMENT_3D('',#660,#448,#449);
#379=AXIS2_PLACEMENT_3D('',#663,#451,#452);
#380=AXIS2_PLACEMENT_3D('',#664,#453,#454);
#381=AXIS2_PLACEMENT_3D('',#668,#456,#457);
#382=AXIS2_PLACEMENT_3D('',#671,#459,#460);
#383=AXIS2_PLACEMENT_3D('',#672,#461,#462);
#384=AXIS2_PLACEMENT_3D('',#674,#463,#464);
#385=AXIS2_PLACEMENT_3D('',#675,#465,#466);
#386=AXIS2_PLACEMENT_3D('',#679,#468,#469);
#387=AXIS2_PLACEMENT_3D('',#682,#471,#472);
#388=AXIS2_PLACEMENT_3D('',#683,#473,#474);
#389=AXIS2_PLACEMENT_3D('',#687,#476,#477);
#390=AXIS2_PLACEMENT_3D('',#690,#479,#480);
#391=AXIS2_PLACEMENT_3D('',#691,#481,#482);
#392=AXIS2_PLACEMENT_3D('',#693,#483,#484);
#393=AXIS2_PLACEMENT_3D('',#694,#485,#486);
#394=AXIS2_PLACEMENT_3D('',#695,#487,#488);
#395=AXIS2_PLACEMENT_3D('',#696,#489,#490);
#396=AXIS2_PLACEMENT_3D('',#697,#491,#492);
#397=AXIS2_PLACEMENT_3D('',#698,#493,#494);
#398=AXIS2_PLACEMENT_3D('',#701,#497,#498);
#399=AXIS2_PLACEMENT_3D('',#703,#500,#501);
#400=AXIS2_PLACEMENT_3D('',#705,#503,#504);
#401=DIRECTION('axis',(0.,0.,1.));
#402=DIRECTION('refdir',(1.,0.,0.));
#403=DIRECTION('center_axis',(0.,0.,1.));
#404=DIRECTION('ref_axis',(1.,0.,0.));
#405=DIRECTION('center_axis',(0.,0.,-1.));
#406=DIRECTION('ref_axis',(2.83276944882399E-016,-1.,0.));
#407=DIRECTION('center_axis',(0.,0.,1.));
#408=DIRECTION('ref_axis',(2.83276944882399E-016,-1.,0.));
#409=DIRECTION('center_axis',(0.,0.,-1.));
#410=DIRECTION('ref_axis',(1.,0.,0.));
#411=DIRECTION('',(0.,0.,-1.));
#412=DIRECTION('',(0.,0.,-1.));
#413=DIRECTION('center_axis',(0.,0.,1.));
#414=DIRECTION('ref_axis',(1.,0.,0.));
#415=DIRECTION('center_axis',(0.,0.,-1.));
#416=DIRECTION('ref_axis',(1.,0.,0.));
#417=DIRECTION('center_axis',(0.,0.,-1.));
#418=DIRECTION('ref_axis',(-1.,0.,0.));
#419=DIRECTION('center_axis',(0.,0.,1.));
#420=DIRECTION('ref_axis',(-6.12323399573677E-017,-1.,0.));
#421=DIRECTION('center_axis',(0.,0.,-1.));
#422=DIRECTION('ref_axis',(-6.12323399573677E-017,-1.,0.));
#423=DIRECTION('center_axis',(0.,0.,1.));
#424=DIRECTION('ref_axis',(-1.,0.,0.));
#425=DIRECTION('',(0.,0.,1.));
#426=DIRECTION('',(0.,0.,1.));
#427=DIRECTION('center_axis',(0.,0.,-1.));
#428=DIRECTION('ref_axis',(-1.,0.,0.));
#429=DIRECTION('center_axis',(0.,0.,1.));
#430=DIRECTION('ref_axis',(-1.,0.,0.));
#431=DIRECTION('center_axis',(0.,0.,-1.));
#432=DIRECTION('ref_axis',(-1.,0.,0.));
#433=DIRECTION('center_axis',(0.,0.,-1.));
#434=DIRECTION('ref_axis',(1.,0.,0.));
#435=DIRECTION('center_axis',(0.,0.,1.));
#436=DIRECTION('ref_axis',(1.,0.,0.));
#437=DIRECTION('center_axis',(0.,0.,1.));
#438=DIRECTION('ref_axis',(1.,0.,0.));
#439=DIRECTION('center_axis',(0.,0.,1.));
#440=DIRECTION('ref_axis',(-1.,0.,0.));
#441=DIRECTION('center_axis',(0.,0.,-1.));
#442=DIRECTION('ref_axis',(-1.,0.,0.));
#443=DIRECTION('center_axis',(1.,0.,0.));
#444=DIRECTION('ref_axis',(0.,-1.,0.));
#445=DIRECTION('center_axis',(0.,0.,1.));
#446=DIRECTION('ref_axis',(1.,0.,0.));
#447=DIRECTION('',(2.14881875733901E-016,-1.,0.));
#448=DIRECTION('center_axis',(0.,0.,-1.));
#449=DIRECTION('ref_axis',(1.,0.,0.));
#450=DIRECTION('',(-8.95341148891255E-017,1.,0.));
#451=DIRECTION('center_axis',(0.,0.,1.));
#452=DIRECTION('ref_axis',(-1.,0.,0.));
#453=DIRECTION('center_axis',(0.,0.,1.));
#454=DIRECTION('ref_axis',(1.,0.,0.));
#455=DIRECTION('',(-8.95341148891255E-017,1.,0.));
#456=DIRECTION('center_axis',(0.,0.,-1.));
#457=DIRECTION('ref_axis',(-1.,0.,0.));
#458=DIRECTION('',(2.14881875733901E-016,-1.,0.));
#459=DIRECTION('center_axis',(0.,0.,1.));
#460=DIRECTION('ref_axis',(-1.,0.,0.));
#461=DIRECTION('center_axis',(0.,0.,1.));
#462=DIRECTION('ref_axis',(1.,0.,0.));
#463=DIRECTION('center_axis',(0.,0.,1.));
#464=DIRECTION('ref_axis',(-1.,0.,0.));
#465=DIRECTION('center_axis',(0.,0.,1.));
#466=DIRECTION('ref_axis',(1.,0.,0.));
#467=DIRECTION('',(-8.95341148891255E-017,1.,0.));
#468=DIRECTION('center_axis',(0.,0.,-1.));
#469=DIRECTION('ref_axis',(1.,0.,0.));
#470=DIRECTION('',(2.14881875733901E-016,-1.,0.));
#471=DIRECTION('center_axis',(0.,0.,-1.));
#472=DIRECTION('ref_axis',(-1.,0.,0.));
#473=DIRECTION('center_axis',(0.,0.,1.));
#474=DIRECTION('ref_axis',(1.,0.,0.));
#475=DIRECTION('',(2.14881875733901E-016,-1.,0.));
#476=DIRECTION('center_axis',(0.,0.,-1.));
#477=DIRECTION('ref_axis',(-1.,0.,0.));
#478=DIRECTION('',(-8.95341148891255E-017,1.,0.));
#479=DIRECTION('center_axis',(0.,0.,-1.));
#480=DIRECTION('ref_axis',(-1.,0.,0.));
#481=DIRECTION('center_axis',(0.,0.,1.));
#482=DIRECTION('ref_axis',(-1.,0.,0.));
#483=DIRECTION('center_axis',(0.,0.,1.));
#484=DIRECTION('ref_axis',(-1.,0.,0.));
#485=DIRECTION('center_axis',(0.,0.,1.));
#486=DIRECTION('ref_axis',(1.,0.,0.));
#487=DIRECTION('center_axis',(0.,0.,1.));
#488=DIRECTION('ref_axis',(1.,0.,0.));
#489=DIRECTION('center_axis',(0.,0.,-1.));
#490=DIRECTION('ref_axis',(-1.,0.,0.));
#491=DIRECTION('center_axis',(0.,0.,-1.));
#492=DIRECTION('ref_axis',(-1.,0.,0.));
#493=DIRECTION('center_axis',(0.,0.,-1.));
#494=DIRECTION('ref_axis',(-1.,0.,0.));
#495=DIRECTION('',(0.,0.,-1.));
#496=DIRECTION('',(0.,0.,-1.));
#497=DIRECTION('center_axis',(-1.,-8.95341148891255E-017,0.));
#498=DIRECTION('ref_axis',(-8.88178419700125E-017,1.,0.));
#499=DIRECTION('',(0.,0.,-1.));
#500=DIRECTION('center_axis',(0.,0.,-1.));
#501=DIRECTION('ref_axis',(1.,0.,0.));
#502=DIRECTION('',(0.,0.,-1.));
#503=DIRECTION('center_axis',(1.,2.14881875733901E-016,0.));
#504=DIRECTION('ref_axis',(1.77635683940025E-016,-1.,0.));
#505=CARTESIAN_POINT('',(0.,0.,0.));
#506=CARTESIAN_POINT('Origin',(0.,-13.,-6.));
#507=CARTESIAN_POINT('',(6.,-13.,-6.));
#508=CARTESIAN_POINT('',(6.00000000000001,-19.7082039324994,-3.));
#509=CARTESIAN_POINT('Ctrl Pts',(6.,-13.,-6.));
#510=CARTESIAN_POINT('Ctrl Pts',(6.,-13.5947717449308,-5.57943286590126));
#511=CARTESIAN_POINT('Ctrl Pts',(6.,-14.2484436925875,-5.11555335233641));
#512=CARTESIAN_POINT('Ctrl Pts',(6.,-15.5992684947733,-4.26543277914919));
#513=CARTESIAN_POINT('Ctrl Pts',(6.00000000000001,-16.2988669142265,-3.88308388764868));
#514=CARTESIAN_POINT('Ctrl Pts',(6.00000000000001,-17.3809451528105,-3.43332394361105));
#515=CARTESIAN_POINT('Ctrl Pts',(6.00000000000001,-17.8417699552222,-3.27528925859359));
#516=CARTESIAN_POINT('Ctrl Pts',(6.00000000000001,-18.7835688426814,-3.05802352354692));
#517=CARTESIAN_POINT('Ctrl Pts',(6.00000000000001,-19.2648210871736,-3.));
#518=CARTESIAN_POINT('Ctrl Pts',(6.00000000000001,-19.7082039324994,-3.));
#519=CARTESIAN_POINT('',(-6.,-19.7082039324994,-3.));
#520=CARTESIAN_POINT('Origin',(0.,-13.,-3.));
#521=CARTESIAN_POINT('',(-6.,-13.,-6.));
#522=CARTESIAN_POINT('Ctrl Pts',(-6.,-19.7082039324994,-3.));
#523=CARTESIAN_POINT('Ctrl Pts',(-6.,-19.2648210871736,-3.));
#524=CARTESIAN_POINT('Ctrl Pts',(-6.,-18.7835688426814,-3.05802352354692));
#525=CARTESIAN_POINT('Ctrl Pts',(-6.,-17.8417699552222,-3.27528925859358));
#526=CARTESIAN_POINT('Ctrl Pts',(-6.,-17.3809451528105,-3.43332394361105));
#527=CARTESIAN_POINT('Ctrl Pts',(-6.,-16.2988669142265,-3.88308388764868));
#528=CARTESIAN_POINT('Ctrl Pts',(-6.,-15.5992684947734,-4.26543277914919));
#529=CARTESIAN_POINT('Ctrl Pts',(-6.,-14.2484436925875,-5.11555335233642));
#530=CARTESIAN_POINT('Ctrl Pts',(-6.,-13.5947717449308,-5.57943286590126));
#531=CARTESIAN_POINT('Ctrl Pts',(-6.,-13.,-6.));
#532=CARTESIAN_POINT('Origin',(0.,-13.,-6.));
#533=CARTESIAN_POINT('Origin',(0.,-13.,-3.));
#534=CARTESIAN_POINT('',(6.,-13.,-3.));
#535=CARTESIAN_POINT('',(6.,-13.,-3.));
#536=CARTESIAN_POINT('',(-6.,-13.,-3.));
#537=CARTESIAN_POINT('',(-6.,-13.,-3.));
#538=CARTESIAN_POINT('Origin',(0.,-13.,-3.));
#539=CARTESIAN_POINT('',(-6.,-13.,-13.));
#540=CARTESIAN_POINT('Origin',(0.,-13.,-13.));
#541=CARTESIAN_POINT('Origin',(0.,-13.,3.));
#542=CARTESIAN_POINT('',(-6.,-13.,3.));
#543=CARTESIAN_POINT('',(-6.,-19.7082039324994,0.));
#544=CARTESIAN_POINT('Ctrl Pts',(-6.,-13.,3.));
#545=CARTESIAN_POINT('Ctrl Pts',(-6.,-13.5947717449308,2.57943286590126));
#546=CARTESIAN_POINT('Ctrl Pts',(-6.,-14.2484436925875,2.11555335233642));
#547=CARTESIAN_POINT('Ctrl Pts',(-6.,-15.5992684947734,1.26543277914919));
#548=CARTESIAN_POINT('Ctrl Pts',(-6.,-16.2988669142265,0.883083887648678));
#549=CARTESIAN_POINT('Ctrl Pts',(-6.,-17.3809451528105,0.433323943611053));
#550=CARTESIAN_POINT('Ctrl Pts',(-6.,-17.8417699552222,0.275289258593584));
#551=CARTESIAN_POINT('Ctrl Pts',(-6.,-18.7835688426814,0.058023523546915));
#552=CARTESIAN_POINT('Ctrl Pts',(-6.,-19.2648210871736,0.));
#553=CARTESIAN_POINT('Ctrl Pts',(-6.,-19.7082039324994,0.));
#554=CARTESIAN_POINT('',(6.00000000000001,-19.7082039324994,0.));
#555=CARTESIAN_POINT('Origin',(0.,-13.,0.));
#556=CARTESIAN_POINT('',(6.,-13.,3.));
#557=CARTESIAN_POINT('Ctrl Pts',(6.00000000000001,-19.7082039324994,-7.70371977754894E-033));
#558=CARTESIAN_POINT('Ctrl Pts',(6.00000000000001,-19.2648210871736,1.59982499171458E-016));
#559=CARTESIAN_POINT('Ctrl Pts',(6.00000000000001,-18.7835688426814,0.0580235235469152));
#560=CARTESIAN_POINT('Ctrl Pts',(6.00000000000001,-17.8417699552222,0.275289258593583));
#561=CARTESIAN_POINT('Ctrl Pts',(6.00000000000001,-17.3809451528105,0.433323943611052));
#562=CARTESIAN_POINT('Ctrl Pts',(6.00000000000001,-16.2988669142265,0.883083887648677));
#563=CARTESIAN_POINT('Ctrl Pts',(6.,-15.5992684947733,1.26543277914919));
#564=CARTESIAN_POINT('Ctrl Pts',(6.,-14.2484436925875,2.11555335233641));
#565=CARTESIAN_POINT('Ctrl Pts',(6.,-13.5947717449308,2.57943286590126));
#566=CARTESIAN_POINT('Ctrl Pts',(6.,-13.,3.));
#567=CARTESIAN_POINT('Origin',(0.,-13.,3.));
#568=CARTESIAN_POINT('Origin',(0.,-13.,0.));
#569=CARTESIAN_POINT('',(-6.,-13.,0.));
#570=CARTESIAN_POINT('',(-6.,-13.,0.));
#571=CARTESIAN_POINT('',(6.,-13.,0.));
#572=CARTESIAN_POINT('',(6.,-13.,0.));
#573=CARTESIAN_POINT('Origin',(0.,-13.,0.));
#574=CARTESIAN_POINT('',(6.,-13.,22.));
#575=CARTESIAN_POINT('Origin',(0.,-13.,22.));
#576=CARTESIAN_POINT('Origin',(0.,-13.,-15.));
#577=CARTESIAN_POINT('',(-5.95,-13.,-13.));
#578=CARTESIAN_POINT('Origin',(0.,-13.,-13.));
#579=CARTESIAN_POINT('',(-3.95,-13.,-15.));
#580=CARTESIAN_POINT('Origin',(0.,-13.,-15.));
#581=CARTESIAN_POINT('Origin',(3.69627624575467E-016,-13.,-13.));
#582=CARTESIAN_POINT('Origin',(0.,-13.,0.));
#583=CARTESIAN_POINT('',(3.95,-13.,-30.));
#584=CARTESIAN_POINT('Origin',(0.,-13.,-30.));
#585=CARTESIAN_POINT('',(-3.8213217608571,-12.,-20.));
#586=CARTESIAN_POINT('Ctrl Pts',(-3.8213217608571,-12.,-20.));
#587=CARTESIAN_POINT('Ctrl Pts',(-3.8213217608571,-12.,-19.8738349043476));
#588=CARTESIAN_POINT('Ctrl Pts',(-3.82822096388111,-12.0253269565276,-19.7396565260898));
#589=CARTESIAN_POINT('Ctrl Pts',(-3.8528025358906,-12.1275460862885,-19.4934523447107));
#590=CARTESIAN_POINT('Ctrl Pts',(-3.87009374033416,-12.2044103708542,-19.3813760667727));
#591=CARTESIAN_POINT('Ctrl Pts',(-3.90229090951414,-12.3813630366303,-19.2044234009966));
#592=CARTESIAN_POINT('Ctrl Pts',(-3.91933699001823,-12.4934447338564,-19.1275489607161));
#593=CARTESIAN_POINT('Ctrl Pts',(-3.94335238222019,-12.739668158618,-19.0253224123846));
#594=CARTESIAN_POINT('Ctrl Pts',(-3.95,-12.8738534836451,-19.));
#595=CARTESIAN_POINT('Ctrl Pts',(-3.95,-13.1261465163549,-19.));
#596=CARTESIAN_POINT('Ctrl Pts',(-3.94335238222019,-13.260331841382,-19.0253224123846));
#597=CARTESIAN_POINT('Ctrl Pts',(-3.91933699001823,-13.5065552661436,-19.1275489607161));
#598=CARTESIAN_POINT('Ctrl Pts',(-3.90229090951414,-13.6186369633697,-19.2044234009966));
#599=CARTESIAN_POINT('Ctrl Pts',(-3.87009374033416,-13.7955896291458,-19.3813760667727));
#600=CARTESIAN_POINT('Ctrl Pts',(-3.8528025358906,-13.8724539137115,-19.4934523447107));
#601=CARTESIAN_POINT('Ctrl Pts',(-3.82822096388111,-13.9746730434724,-19.7396565260899));
#602=CARTESIAN_POINT('Ctrl Pts',(-3.8213217608571,-14.,-19.8738349043476));
#603=CARTESIAN_POINT('Ctrl Pts',(-3.8213217608571,-14.,-20.1261650956524));
#604=CARTESIAN_POINT('Ctrl Pts',(-3.82822096388111,-13.9746730434724,-20.2603434739101));
#605=CARTESIAN_POINT('Ctrl Pts',(-3.8528025358906,-13.8724539137115,-20.5065476552893));
#606=CARTESIAN_POINT('Ctrl Pts',(-3.87009374033416,-13.7955896291458,-20.6186239332273));
#607=CARTESIAN_POINT('Ctrl Pts',(-3.90229090951414,-13.6186369633697,-20.7955765990034));
#608=CARTESIAN_POINT('Ctrl Pts',(-3.91933699001823,-13.5065552661436,-20.8724510392839));
#609=CARTESIAN_POINT('Ctrl Pts',(-3.94335238222019,-13.260331841382,-20.9746775876154));
#610=CARTESIAN_POINT('Ctrl Pts',(-3.95,-13.1261465163549,-21.));
#611=CARTESIAN_POINT('Ctrl Pts',(-3.95,-12.8738534836451,-21.));
#612=CARTESIAN_POINT('Ctrl Pts',(-3.94335238222019,-12.739668158618,-20.9746775876154));
#613=CARTESIAN_POINT('Ctrl Pts',(-3.91933699001823,-12.4934447338564,-20.8724510392839));
#614=CARTESIAN_POINT('Ctrl Pts',(-3.90229090951414,-12.3813630366303,-20.7955765990034));
#615=CARTESIAN_POINT('Ctrl Pts',(-3.87009374033416,-12.2044103708542,-20.6186239332273));
#616=CARTESIAN_POINT('Ctrl Pts',(-3.8528025358906,-12.1275460862885,-20.5065476552893));
#617=CARTESIAN_POINT('Ctrl Pts',(-3.82822096388111,-12.0253269565276,-20.2603434739101));
#618=CARTESIAN_POINT('Ctrl Pts',(-3.8213217608571,-12.,-20.1261650956524));
#619=CARTESIAN_POINT('Ctrl Pts',(-3.8213217608571,-12.,-20.));
#620=CARTESIAN_POINT('',(3.8213217608571,-12.,-20.));
#621=CARTESIAN_POINT('Ctrl Pts',(3.8213217608571,-12.,-20.));
#622=CARTESIAN_POINT('Ctrl Pts',(3.8213217608571,-12.,-20.1261650956524));
#623=CARTESIAN_POINT('Ctrl Pts',(3.82822096388111,-12.0253269565276,-20.2603434739101));
#624=CARTESIAN_POINT('Ctrl Pts',(3.8528025358906,-12.1275460862885,-20.5065476552893));
#625=CARTESIAN_POINT('Ctrl Pts',(3.87009374033416,-12.2044103708542,-20.6186239332273));
#626=CARTESIAN_POINT('Ctrl Pts',(3.90229090951414,-12.3813630366303,-20.7955765990034));
#627=CARTESIAN_POINT('Ctrl Pts',(3.91933699001823,-12.4934447338564,-20.8724510392839));
#628=CARTESIAN_POINT('Ctrl Pts',(3.94335238222019,-12.739668158618,-20.9746775876154));
#629=CARTESIAN_POINT('Ctrl Pts',(3.95,-12.8738534836451,-21.));
#630=CARTESIAN_POINT('Ctrl Pts',(3.95,-13.1261465163549,-21.));
#631=CARTESIAN_POINT('Ctrl Pts',(3.94335238222019,-13.260331841382,-20.9746775876154));
#632=CARTESIAN_POINT('Ctrl Pts',(3.91933699001823,-13.5065552661436,-20.8724510392839));
#633=CARTESIAN_POINT('Ctrl Pts',(3.90229090951414,-13.6186369633697,-20.7955765990034));
#634=CARTESIAN_POINT('Ctrl Pts',(3.87009374033416,-13.7955896291458,-20.6186239332273));
#635=CARTESIAN_POINT('Ctrl Pts',(3.8528025358906,-13.8724539137115,-20.5065476552893));
#636=CARTESIAN_POINT('Ctrl Pts',(3.82822096388111,-13.9746730434724,-20.2603434739101));
#637=CARTESIAN_POINT('Ctrl Pts',(3.8213217608571,-14.,-20.1261650956524));
#638=CARTESIAN_POINT('Ctrl Pts',(3.8213217608571,-14.,-19.8738349043476));
#639=CARTESIAN_POINT('Ctrl Pts',(3.82822096388111,-13.9746730434724,-19.7396565260898));
#640=CARTESIAN_POINT('Ctrl Pts',(3.8528025358906,-13.8724539137115,-19.4934523447107));
#641=CARTESIAN_POINT('Ctrl Pts',(3.87009374033416,-13.7955896291458,-19.3813760667727));
#642=CARTESIAN_POINT('Ctrl Pts',(3.90229090951414,-13.6186369633697,-19.2044234009966));
#643=CARTESIAN_POINT('Ctrl Pts',(3.91933699001823,-13.5065552661436,-19.1275489607161));
#644=CARTESIAN_POINT('Ctrl Pts',(3.94335238222019,-13.260331841382,-19.0253224123846));
#645=CARTESIAN_POINT('Ctrl Pts',(3.95,-13.1261465163549,-19.));
#646=CARTESIAN_POINT('Ctrl Pts',(3.95,-12.8738534836451,-19.));
#647=CARTESIAN_POINT('Ctrl Pts',(3.94335238222019,-12.739668158618,-19.0253224123846));
#648=CARTESIAN_POINT('Ctrl Pts',(3.91933699001823,-12.4934447338564,-19.1275489607161));
#649=CARTESIAN_POINT('Ctrl Pts',(3.90229090951414,-12.3813630366303,-19.2044234009966));
#650=CARTESIAN_POINT('Ctrl Pts',(3.87009374033416,-12.2044103708542,-19.3813760667727));
#651=CARTESIAN_POINT('Ctrl Pts',(3.8528025358906,-12.1275460862885,-19.4934523447107));
#652=CARTESIAN_POINT('Ctrl Pts',(3.82822096388111,-12.0253269565276,-19.7396565260898));
#653=CARTESIAN_POINT('Ctrl Pts',(3.8213217608571,-12.,-19.8738349043476));
#654=CARTESIAN_POINT('Ctrl Pts',(3.8213217608571,-12.,-20.));
#655=CARTESIAN_POINT('Origin',(0.,-13.,-20.));
#656=CARTESIAN_POINT('Origin',(4.33377451745182E-015,-31.0000447851594,
-3.));
#657=CARTESIAN_POINT('',(6.00000000000001,-62.,-3.));
#658=CARTESIAN_POINT('',(6.,0.,-3.));
#659=CARTESIAN_POINT('',(-6.,-62.,-3.));
#660=CARTESIAN_POINT('Origin',(7.59281015471359E-015,-62.,-3.));
#661=CARTESIAN_POINT('',(-6.,-62.,-3.));
#662=CARTESIAN_POINT('',(1.50000000000001,-62.,-3.));
#663=CARTESIAN_POINT('Origin',(7.59281015471359E-015,-62.,-3.));
#664=CARTESIAN_POINT('Origin',(4.33377451745182E-015,-31.0000447851594,
-3.));
#665=CARTESIAN_POINT('',(-6.,0.,-3.));
#666=CARTESIAN_POINT('',(-6.,-62.,-3.));
#667=CARTESIAN_POINT('',(6.,0.,-3.));
#668=CARTESIAN_POINT('Origin',(0.,0.,-3.));
#669=CARTESIAN_POINT('',(6.,0.,-3.));
#670=CARTESIAN_POINT('',(1.5,1.83697019872103E-016,-3.));
#671=CARTESIAN_POINT('Origin',(0.,0.,-3.));
#672=CARTESIAN_POINT('Origin',(-3.69627624575467E-016,-13.,22.));
#673=CARTESIAN_POINT('',(3.95,-13.,22.));
#674=CARTESIAN_POINT('Origin',(0.,-13.,22.));
#675=CARTESIAN_POINT('Origin',(4.33377451745182E-015,-31.0000447851594,
0.));
#676=CARTESIAN_POINT('',(-6.,-62.,0.));
#677=CARTESIAN_POINT('',(-6.,-62.,0.));
#678=CARTESIAN_POINT('',(6.00000000000001,-62.,0.));
#679=CARTESIAN_POINT('Origin',(7.59281015471359E-015,-62.,0.));
#680=CARTESIAN_POINT('',(6.,0.,0.));
#681=CARTESIAN_POINT('',(1.50000000000001,-62.,0.));
#682=CARTESIAN_POINT('Origin',(7.59281015471359E-015,-62.,0.));
#683=CARTESIAN_POINT('Origin',(4.33377451745182E-015,-31.0000447851594,
0.));
#684=CARTESIAN_POINT('',(6.,0.,0.));
#685=CARTESIAN_POINT('',(6.,0.,0.));
#686=CARTESIAN_POINT('',(-6.,0.,0.));
#687=CARTESIAN_POINT('Origin',(0.,0.,0.));
#688=CARTESIAN_POINT('',(-6.,-62.,0.));
#689=CARTESIAN_POINT('',(1.5,1.83697019872103E-016,0.));
#690=CARTESIAN_POINT('Origin',(0.,0.,0.));
#691=CARTESIAN_POINT('Origin',(0.,-13.,0.));
#692=CARTESIAN_POINT('',(3.95,-13.,30.));
#693=CARTESIAN_POINT('Origin',(0.,-13.,30.));
#694=CARTESIAN_POINT('Origin',(-2.7453555727049E-016,-13.,-30.));
#695=CARTESIAN_POINT('Origin',(-2.7453555727049E-016,-13.,30.));
#696=CARTESIAN_POINT('Origin',(7.59281015471359E-015,-62.,0.));
#697=CARTESIAN_POINT('Origin',(0.,0.,0.));
#698=CARTESIAN_POINT('Origin',(0.,0.,0.));
#699=CARTESIAN_POINT('',(6.,0.,0.));
#700=CARTESIAN_POINT('',(-6.,0.,0.));
#701=CARTESIAN_POINT('Origin',(-6.,-62.,0.));
#702=CARTESIAN_POINT('',(-6.,-62.,0.));
#703=CARTESIAN_POINT('Origin',(7.59281015471359E-015,-62.,0.));
#704=CARTESIAN_POINT('',(6.00000000000001,-62.,0.));
#705=CARTESIAN_POINT('Origin',(6.,0.,0.));
#706=UNCERTAINTY_MEASURE_WITH_UNIT(LENGTH_MEASURE(0.01),#710,
'DISTANCE_ACCURACY_VALUE',
'Maximum model space distance between geometric entities at asserted c
onnectivities');
#707=UNCERTAINTY_MEASURE_WITH_UNIT(LENGTH_MEASURE(1.E-006),#710,
'DISTANCE_ACCURACY_VALUE',
'Maximum model space distance between geometric entities at asserted c
onnectivities');
#708=(
GEOMETRIC_REPRESENTATION_CONTEXT(3)
GLOBAL_UNCERTAINTY_ASSIGNED_CONTEXT((#706))
GLOBAL_UNIT_ASSIGNED_CONTEXT((#710,#713,#711))
REPRESENTATION_CONTEXT('','3D')
);
#709=(
GEOMETRIC_REPRESENTATION_CONTEXT(3)
GLOBAL_UNCERTAINTY_ASSIGNED_CONTEXT((#707))
GLOBAL_UNIT_ASSIGNED_CONTEXT((#710,#713,#711))
REPRESENTATION_CONTEXT('','3D')
);
#710=(
LENGTH_UNIT()
NAMED_UNIT(*)
SI_UNIT(.MILLI.,.METRE.)
);
#711=(
NAMED_UNIT(*)
SI_UNIT($,.STERADIAN.)
SOLID_ANGLE_UNIT()
);
#712=DIMENSIONAL_EXPONENTS(0.,0.,0.,0.,0.,0.,0.);
#713=(
CONVERSION_BASED_UNIT('degree',#715)
NAMED_UNIT(#712)
PLANE_ANGLE_UNIT()
);
#714=(
NAMED_UNIT(*)
PLANE_ANGLE_UNIT()
SI_UNIT($,.RADIAN.)
);
#715=PLANE_ANGLE_MEASURE_WITH_UNIT(PLANE_ANGLE_MEASURE(0.01745329252),#714);
#716=SHAPE_DEFINITION_REPRESENTATION(#717,#718);
#717=PRODUCT_DEFINITION_SHAPE('',$,#720);
#718=SHAPE_REPRESENTATION('',(#357),#708);
#719=PRODUCT_DEFINITION_CONTEXT('part definition',#724,'design');
#720=PRODUCT_DEFINITION('Verbindunghebel-coinaut',
'Verbindunghebel-coinaut',#721,#719);
#721=PRODUCT_DEFINITION_FORMATION('',$,#726);
#722=PRODUCT_RELATED_PRODUCT_CATEGORY('Verbindunghebel-coinaut',
'Verbindunghebel-coinaut',(#726));
#723=APPLICATION_PROTOCOL_DEFINITION('international standard',
'automotive_design',2009,#724);
#724=APPLICATION_CONTEXT(
'Core Data for Automotive Mechanical Design Process');
#725=PRODUCT_CONTEXT('part definition',#724,'mechanical');
#726=PRODUCT('Verbindunghebel-coinaut','Verbindunghebel-coinaut',$,(#725));
#727=PRESENTATION_STYLE_ASSIGNMENT((#728));
#728=SURFACE_STYLE_USAGE(.BOTH.,#729);
#729=SURFACE_SIDE_STYLE($,(#730));
#730=SURFACE_STYLE_FILL_AREA(#731);
#731=FILL_AREA_STYLE($,(#732));
#732=FILL_AREA_STYLE_COLOUR($,#733);
#733=COLOUR_RGB('',0.694117647058824,0.694117647058824,0.694117647058824);
ENDSEC;
END-ISO-10303-21;
