ISO-10303-21;
HEADER;
/* Generated by software containing ST-Developer
 * from STEP Tools, Inc. (www.steptools.com) 
 */

FILE_DESCRIPTION(
/* description */ (''),
/* implementation_level */ '2;1');

FILE_NAME(
/* name */ 
'C:\\Users\\SvenW\\Documents\\inventor\\B-Automaten\\Export_B_Automate
n\\ExportGithub\\coinschieber.stp',
/* time_stamp */ '2026-05-14T08:02:31+02:00',
/* author */ ('SvenW'),
/* organization */ (''),
/* preprocessor_version */ 'ST-DEVELOPER v15.2',
/* originating_system */ 'Autodesk Inventor 2014',
/* authorisation */ '');

FILE_SCHEMA (('AUTOMOTIVE_DESIGN { 1 0 10303 214 3 1 1 }'));
ENDSEC;

DATA;
#10=MECHANICAL_DESIGN_GEOMETRIC_PRESENTATION_REPRESENTATION('',(#13),#1189);
#11=SHAPE_REPRESENTATION_RELATIONSHIP('SRR','None',#1198,#12);
#12=ADVANCED_BREP_SHAPE_REPRESENTATION($,(#665),#1188);
#13=STYLED_ITEM('',(#1207),#665);
#14=FACE_BOUND('',#96,.T.);
#15=FACE_BOUND('',#104,.T.);
#16=FACE_BOUND('',#108,.T.);
#17=FACE_BOUND('',#110,.T.);
#18=FACE_BOUND('',#113,.T.);
#19=FACE_BOUND('',#122,.T.);
#20=FACE_BOUND('',#124,.T.);
#21=FACE_BOUND('',#125,.T.);
#22=FACE_BOUND('',#126,.T.);
#23=(
BOUNDED_SURFACE()
B_SPLINE_SURFACE(2,2,((#990,#991,#992,#993,#994),(#995,#996,#997,#998,#999),
(#1000,#1001,#1002,#1003,#1004)),.UNSPECIFIED.,.F.,.F.,.F.)
B_SPLINE_SURFACE_WITH_KNOTS((3,3),(3,2,3),(0.,1.5707963267949),(1.5707963267949,
3.14159265358979,4.71238898038468),.UNSPECIFIED.)
GEOMETRIC_REPRESENTATION_ITEM()
RATIONAL_B_SPLINE_SURFACE(((1.,0.707106781186549,1.,0.707106781186549,1.),
(0.707106781186545,0.499999999999999,0.707106781186545,0.499999999999999,
0.707106781186545),(1.,0.707106781186549,1.,0.707106781186549,1.)))
REPRESENTATION_ITEM('')
SURFACE()
);
#24=(
BOUNDED_SURFACE()
B_SPLINE_SURFACE(2,2,((#1019,#1020,#1021,#1022,#1023),(#1024,#1025,#1026,
#1027,#1028),(#1029,#1030,#1031,#1032,#1033)),.UNSPECIFIED.,.F.,.F.,.F.)
B_SPLINE_SURFACE_WITH_KNOTS((3,3),(3,2,3),(0.,1.5707963267949),(-1.57079632679488,
4.44089209850063E-015,1.57079632679489),.UNSPECIFIED.)
GEOMETRIC_REPRESENTATION_ITEM()
RATIONAL_B_SPLINE_SURFACE(((1.,0.707106781186551,1.,0.707106781186551,1.),
(0.707106781186536,0.499999999999994,0.707106781186536,0.499999999999994,
0.707106781186536),(1.,0.707106781186551,1.,0.707106781186551,1.)))
REPRESENTATION_ITEM('')
SURFACE()
);
#25=(
BOUNDED_SURFACE()
B_SPLINE_SURFACE(2,2,((#1063,#1064,#1065,#1066,#1067),(#1068,#1069,#1070,
#1071,#1072),(#1073,#1074,#1075,#1076,#1077)),.UNSPECIFIED.,.F.,.F.,.F.)
B_SPLINE_SURFACE_WITH_KNOTS((3,3),(3,2,3),(0.,1.5707963267949),(1.5707963267949,
3.14159265358979,4.71238898038469),.UNSPECIFIED.)
GEOMETRIC_REPRESENTATION_ITEM()
RATIONAL_B_SPLINE_SURFACE(((1.,0.707106781186548,1.,0.707106781186548,1.),
(0.707106781186545,0.499999999999998,0.707106781186545,0.499999999999998,
0.707106781186545),(1.,0.707106781186548,1.,0.707106781186548,1.)))
REPRESENTATION_ITEM('')
SURFACE()
);
#26=(
BOUNDED_SURFACE()
B_SPLINE_SURFACE(2,2,((#1092,#1093,#1094,#1095,#1096),(#1097,#1098,#1099,
#1100,#1101),(#1102,#1103,#1104,#1105,#1106)),.UNSPECIFIED.,.F.,.F.,.F.)
B_SPLINE_SURFACE_WITH_KNOTS((3,3),(3,2,3),(0.,1.5707963267949),(-1.57079632679489,
0.,1.57079632679489),.UNSPECIFIED.)
GEOMETRIC_REPRESENTATION_ITEM()
RATIONAL_B_SPLINE_SURFACE(((1.,0.707106781186549,1.,0.707106781186549,1.),
(0.70710678118654,0.499999999999996,0.70710678118654,0.499999999999996,
0.70710678118654),(1.,0.707106781186549,1.,0.707106781186549,1.)))
REPRESENTATION_ITEM('')
SURFACE()
);
#27=PLANE('',#670);
#28=PLANE('',#674);
#29=PLANE('',#675);
#30=PLANE('',#679);
#31=PLANE('',#683);
#32=PLANE('',#684);
#33=PLANE('',#695);
#34=PLANE('',#699);
#35=PLANE('',#710);
#36=PLANE('',#714);
#37=PLANE('',#721);
#38=PLANE('',#724);
#39=PLANE('',#734);
#40=PLANE('',#735);
#41=PLANE('',#736);
#42=PLANE('',#737);
#43=PLANE('',#738);
#44=FACE_OUTER_BOUND('',#81,.T.);
#45=FACE_OUTER_BOUND('',#82,.T.);
#46=FACE_OUTER_BOUND('',#83,.T.);
#47=FACE_OUTER_BOUND('',#84,.T.);
#48=FACE_OUTER_BOUND('',#85,.T.);
#49=FACE_OUTER_BOUND('',#86,.T.);
#50=FACE_OUTER_BOUND('',#87,.T.);
#51=FACE_OUTER_BOUND('',#88,.T.);
#52=FACE_OUTER_BOUND('',#89,.T.);
#53=FACE_OUTER_BOUND('',#90,.T.);
#54=FACE_OUTER_BOUND('',#91,.T.);
#55=FACE_OUTER_BOUND('',#92,.T.);
#56=FACE_OUTER_BOUND('',#93,.T.);
#57=FACE_OUTER_BOUND('',#94,.T.);
#58=FACE_OUTER_BOUND('',#95,.T.);
#59=FACE_OUTER_BOUND('',#97,.T.);
#60=FACE_OUTER_BOUND('',#98,.T.);
#61=FACE_OUTER_BOUND('',#99,.T.);
#62=FACE_OUTER_BOUND('',#100,.T.);
#63=FACE_OUTER_BOUND('',#101,.T.);
#64=FACE_OUTER_BOUND('',#102,.T.);
#65=FACE_OUTER_BOUND('',#103,.T.);
#66=FACE_OUTER_BOUND('',#105,.T.);
#67=FACE_OUTER_BOUND('',#106,.T.);
#68=FACE_OUTER_BOUND('',#107,.T.);
#69=FACE_OUTER_BOUND('',#109,.T.);
#70=FACE_OUTER_BOUND('',#111,.T.);
#71=FACE_OUTER_BOUND('',#112,.T.);
#72=FACE_OUTER_BOUND('',#114,.T.);
#73=FACE_OUTER_BOUND('',#115,.T.);
#74=FACE_OUTER_BOUND('',#116,.T.);
#75=FACE_OUTER_BOUND('',#117,.T.);
#76=FACE_OUTER_BOUND('',#118,.T.);
#77=FACE_OUTER_BOUND('',#119,.T.);
#78=FACE_OUTER_BOUND('',#120,.T.);
#79=FACE_OUTER_BOUND('',#121,.T.);
#80=FACE_OUTER_BOUND('',#123,.T.);
#81=EDGE_LOOP('',(#425,#426,#427,#428));
#82=EDGE_LOOP('',(#429,#430,#431,#432));
#83=EDGE_LOOP('',(#433,#434,#435,#436));
#84=EDGE_LOOP('',(#437,#438,#439,#440));
#85=EDGE_LOOP('',(#441,#442,#443,#444));
#86=EDGE_LOOP('',(#445,#446,#447,#448));
#87=EDGE_LOOP('',(#449,#450,#451,#452));
#88=EDGE_LOOP('',(#453,#454,#455,#456));
#89=EDGE_LOOP('',(#457,#458,#459,#460));
#90=EDGE_LOOP('',(#461,#462,#463,#464));
#91=EDGE_LOOP('',(#465,#466,#467,#468));
#92=EDGE_LOOP('',(#469,#470,#471,#472));
#93=EDGE_LOOP('',(#473,#474,#475,#476));
#94=EDGE_LOOP('',(#477,#478,#479,#480));
#95=EDGE_LOOP('',(#481,#482,#483,#484,#485,#486,#487,#488));
#96=EDGE_LOOP('',(#489));
#97=EDGE_LOOP('',(#490,#491,#492,#493));
#98=EDGE_LOOP('',(#494,#495,#496,#497));
#99=EDGE_LOOP('',(#498,#499,#500,#501));
#100=EDGE_LOOP('',(#502,#503,#504,#505));
#101=EDGE_LOOP('',(#506,#507,#508,#509));
#102=EDGE_LOOP('',(#510,#511,#512,#513));
#103=EDGE_LOOP('',(#514,#515,#516,#517));
#104=EDGE_LOOP('',(#518));
#105=EDGE_LOOP('',(#519,#520,#521,#522));
#106=EDGE_LOOP('',(#523,#524,#525,#526));
#107=EDGE_LOOP('',(#527));
#108=EDGE_LOOP('',(#528));
#109=EDGE_LOOP('',(#529));
#110=EDGE_LOOP('',(#530));
#111=EDGE_LOOP('',(#531,#532,#533,#534));
#112=EDGE_LOOP('',(#535,#536,#537,#538));
#113=EDGE_LOOP('',(#539));
#114=EDGE_LOOP('',(#540,#541,#542,#543));
#115=EDGE_LOOP('',(#544,#545,#546,#547));
#116=EDGE_LOOP('',(#548,#549,#550,#551));
#117=EDGE_LOOP('',(#552,#553,#554,#555));
#118=EDGE_LOOP('',(#556,#557,#558,#559));
#119=EDGE_LOOP('',(#560,#561,#562,#563));
#120=EDGE_LOOP('',(#564,#565,#566,#567));
#121=EDGE_LOOP('',(#568,#569,#570,#571,#572,#573,#574,#575));
#122=EDGE_LOOP('',(#576));
#123=EDGE_LOOP('',(#577,#578,#579,#580,#581,#582,#583,#584));
#124=EDGE_LOOP('',(#585,#586,#587,#588));
#125=EDGE_LOOP('',(#589,#590,#591,#592));
#126=EDGE_LOOP('',(#593,#594,#595,#596,#597,#598,#599,#600,#601,#602,#603,
#604,#605,#606,#607,#608));
#127=LINE('',#945,#181);
#128=LINE('',#948,#182);
#129=LINE('',#951,#183);
#130=LINE('',#953,#184);
#131=LINE('',#954,#185);
#132=LINE('',#960,#186);
#133=LINE('',#962,#187);
#134=LINE('',#963,#188);
#135=LINE('',#970,#189);
#136=LINE('',#973,#190);
#137=LINE('',#976,#191);
#138=LINE('',#978,#192);
#139=LINE('',#979,#193);
#140=LINE('',#985,#194);
#141=LINE('',#987,#195);
#142=LINE('',#988,#196);
#143=LINE('',#1017,#197);
#144=LINE('',#1018,#198);
#145=LINE('',#1040,#199);
#146=LINE('',#1041,#200);
#147=LINE('',#1044,#201);
#148=LINE('',#1046,#202);
#149=LINE('',#1048,#203);
#150=LINE('',#1050,#204);
#151=LINE('',#1052,#205);
#152=LINE('',#1054,#206);
#153=LINE('',#1055,#207);
#154=LINE('',#1060,#208);
#155=LINE('',#1090,#209);
#156=LINE('',#1091,#210);
#157=LINE('',#1113,#211);
#158=LINE('',#1114,#212);
#159=LINE('',#1117,#213);
#160=LINE('',#1119,#214);
#161=LINE('',#1120,#215);
#162=LINE('',#1125,#216);
#163=LINE('',#1137,#217);
#164=LINE('',#1140,#218);
#165=LINE('',#1141,#219);
#166=LINE('',#1147,#220);
#167=LINE('',#1149,#221);
#168=LINE('',#1151,#222);
#169=LINE('',#1152,#223);
#170=LINE('',#1158,#224);
#171=LINE('',#1164,#225);
#172=LINE('',#1170,#226);
#173=LINE('',#1172,#227);
#174=LINE('',#1173,#228);
#175=LINE('',#1176,#229);
#176=LINE('',#1178,#230);
#177=LINE('',#1179,#231);
#178=LINE('',#1181,#232);
#179=LINE('',#1182,#233);
#180=LINE('',#1183,#234);
#181=VECTOR('',#745,0.3);
#182=VECTOR('',#748,0.3);
#183=VECTOR('',#751,30.);
#184=VECTOR('',#752,30.);
#185=VECTOR('',#753,0.3);
#186=VECTOR('',#760,0.3);
#187=VECTOR('',#763,30.);
#188=VECTOR('',#764,30.);
#189=VECTOR('',#771,0.3);
#190=VECTOR('',#774,0.3);
#191=VECTOR('',#777,30.);
#192=VECTOR('',#778,30.);
#193=VECTOR('',#779,0.3);
#194=VECTOR('',#786,0.3);
#195=VECTOR('',#789,30.);
#196=VECTOR('',#790,30.);
#197=VECTOR('',#805,8.00000000000001);
#198=VECTOR('',#806,8.00000000000002);
#199=VECTOR('',#815,7.99999999999998);
#200=VECTOR('',#816,7.99999999999998);
#201=VECTOR('',#819,14.);
#202=VECTOR('',#820,4.);
#203=VECTOR('',#821,2.5);
#204=VECTOR('',#822,42.9965163789093);
#205=VECTOR('',#823,2.5);
#206=VECTOR('',#824,30.9965163789092);
#207=VECTOR('',#825,14.);
#208=VECTOR('',#830,14.);
#209=VECTOR('',#847,8.00000000000001);
#210=VECTOR('',#848,8.00000000000001);
#211=VECTOR('',#857,8.);
#212=VECTOR('',#858,8.);
#213=VECTOR('',#861,14.);
#214=VECTOR('',#862,8.00000000000001);
#215=VECTOR('',#863,14.);
#216=VECTOR('',#868,14.);
#217=VECTOR('',#885,14.);
#218=VECTOR('',#888,14.);
#219=VECTOR('',#889,7.99999999999999);
#220=VECTOR('',#896,2.64451589703289);
#221=VECTOR('',#897,2.5);
#222=VECTOR('',#898,2.64451589703289);
#223=VECTOR('',#899,2.5);
#224=VECTOR('',#906,2.5);
#225=VECTOR('',#913,2.5);
#226=VECTOR('',#920,2.5);
#227=VECTOR('',#923,2.6445158970329);
#228=VECTOR('',#924,2.6445158970329);
#229=VECTOR('',#927,47.);
#230=VECTOR('',#928,47.);
#231=VECTOR('',#929,2.5);
#232=VECTOR('',#932,30.9965163789093);
#233=VECTOR('',#933,42.9965163789093);
#234=VECTOR('',#934,4.);
#235=CIRCLE('',#668,1.);
#236=CIRCLE('',#669,1.);
#237=CIRCLE('',#672,1.);
#238=CIRCLE('',#673,1.);
#239=CIRCLE('',#677,1.);
#240=CIRCLE('',#678,1.);
#241=CIRCLE('',#681,1.);
#242=CIRCLE('',#682,1.);
#243=CIRCLE('',#685,1.);
#244=CIRCLE('',#686,2.);
#245=CIRCLE('',#687,1.00000000000001);
#246=CIRCLE('',#688,1.);
#247=CIRCLE('',#690,0.999999999999979);
#248=CIRCLE('',#691,1.);
#249=CIRCLE('',#692,1.);
#250=CIRCLE('',#693,2.);
#251=CIRCLE('',#696,2.);
#252=CIRCLE('',#698,2.);
#253=CIRCLE('',#700,1.);
#254=CIRCLE('',#701,2.);
#255=CIRCLE('',#702,0.999999999999996);
#256=CIRCLE('',#703,1.);
#257=CIRCLE('',#705,1.);
#258=CIRCLE('',#706,1.00000000000001);
#259=CIRCLE('',#707,1.);
#260=CIRCLE('',#708,2.);
#261=CIRCLE('',#711,2.);
#262=CIRCLE('',#713,2.);
#263=CIRCLE('',#716,2.);
#264=CIRCLE('',#718,2.);
#265=CIRCLE('',#720,2.);
#266=CIRCLE('',#723,2.);
#267=CIRCLE('',#726,2.);
#268=CIRCLE('',#727,2.);
#269=CIRCLE('',#729,20.);
#270=CIRCLE('',#730,20.);
#271=CIRCLE('',#732,2.);
#272=CIRCLE('',#733,2.);
#273=VERTEX_POINT('',#941);
#274=VERTEX_POINT('',#942);
#275=VERTEX_POINT('',#944);
#276=VERTEX_POINT('',#946);
#277=VERTEX_POINT('',#950);
#278=VERTEX_POINT('',#952);
#279=VERTEX_POINT('',#956);
#280=VERTEX_POINT('',#958);
#281=VERTEX_POINT('',#966);
#282=VERTEX_POINT('',#967);
#283=VERTEX_POINT('',#969);
#284=VERTEX_POINT('',#971);
#285=VERTEX_POINT('',#975);
#286=VERTEX_POINT('',#977);
#287=VERTEX_POINT('',#981);
#288=VERTEX_POINT('',#983);
#289=VERTEX_POINT('',#1005);
#290=VERTEX_POINT('',#1006);
#291=VERTEX_POINT('',#1008);
#292=VERTEX_POINT('',#1010);
#293=VERTEX_POINT('',#1014);
#294=VERTEX_POINT('',#1015);
#295=VERTEX_POINT('',#1034);
#296=VERTEX_POINT('',#1035);
#297=VERTEX_POINT('',#1043);
#298=VERTEX_POINT('',#1045);
#299=VERTEX_POINT('',#1047);
#300=VERTEX_POINT('',#1049);
#301=VERTEX_POINT('',#1051);
#302=VERTEX_POINT('',#1053);
#303=VERTEX_POINT('',#1056);
#304=VERTEX_POINT('',#1059);
#305=VERTEX_POINT('',#1078);
#306=VERTEX_POINT('',#1079);
#307=VERTEX_POINT('',#1081);
#308=VERTEX_POINT('',#1083);
#309=VERTEX_POINT('',#1087);
#310=VERTEX_POINT('',#1088);
#311=VERTEX_POINT('',#1107);
#312=VERTEX_POINT('',#1108);
#313=VERTEX_POINT('',#1116);
#314=VERTEX_POINT('',#1118);
#315=VERTEX_POINT('',#1121);
#316=VERTEX_POINT('',#1124);
#317=VERTEX_POINT('',#1129);
#318=VERTEX_POINT('',#1132);
#319=VERTEX_POINT('',#1135);
#320=VERTEX_POINT('',#1139);
#321=VERTEX_POINT('',#1145);
#322=VERTEX_POINT('',#1146);
#323=VERTEX_POINT('',#1148);
#324=VERTEX_POINT('',#1150);
#325=VERTEX_POINT('',#1154);
#326=VERTEX_POINT('',#1156);
#327=VERTEX_POINT('',#1160);
#328=VERTEX_POINT('',#1162);
#329=VERTEX_POINT('',#1166);
#330=VERTEX_POINT('',#1168);
#331=VERTEX_POINT('',#1175);
#332=VERTEX_POINT('',#1177);
#333=EDGE_CURVE('',#273,#274,#235,.T.);
#334=EDGE_CURVE('',#273,#275,#127,.T.);
#335=EDGE_CURVE('',#276,#275,#236,.T.);
#336=EDGE_CURVE('',#274,#276,#128,.T.);
#337=EDGE_CURVE('',#274,#277,#129,.T.);
#338=EDGE_CURVE('',#278,#276,#130,.T.);
#339=EDGE_CURVE('',#277,#278,#131,.T.);
#340=EDGE_CURVE('',#277,#279,#237,.T.);
#341=EDGE_CURVE('',#280,#278,#238,.T.);
#342=EDGE_CURVE('',#279,#280,#132,.T.);
#343=EDGE_CURVE('',#279,#273,#133,.T.);
#344=EDGE_CURVE('',#275,#280,#134,.T.);
#345=EDGE_CURVE('',#281,#282,#239,.T.);
#346=EDGE_CURVE('',#281,#283,#135,.T.);
#347=EDGE_CURVE('',#284,#283,#240,.T.);
#348=EDGE_CURVE('',#282,#284,#136,.T.);
#349=EDGE_CURVE('',#282,#285,#137,.T.);
#350=EDGE_CURVE('',#286,#284,#138,.T.);
#351=EDGE_CURVE('',#285,#286,#139,.T.);
#352=EDGE_CURVE('',#285,#287,#241,.T.);
#353=EDGE_CURVE('',#288,#286,#242,.T.);
#354=EDGE_CURVE('',#287,#288,#140,.T.);
#355=EDGE_CURVE('',#287,#281,#141,.T.);
#356=EDGE_CURVE('',#283,#288,#142,.T.);
#357=EDGE_CURVE('',#289,#290,#243,.T.);
#358=EDGE_CURVE('',#290,#291,#244,.T.);
#359=EDGE_CURVE('',#291,#292,#245,.T.);
#360=EDGE_CURVE('',#292,#289,#246,.T.);
#361=EDGE_CURVE('',#293,#294,#247,.T.);
#362=EDGE_CURVE('',#294,#292,#143,.T.);
#363=EDGE_CURVE('',#291,#293,#144,.T.);
#364=EDGE_CURVE('',#295,#296,#248,.T.);
#365=EDGE_CURVE('',#296,#294,#249,.T.);
#366=EDGE_CURVE('',#293,#295,#250,.T.);
#367=EDGE_CURVE('',#289,#296,#145,.T.);
#368=EDGE_CURVE('',#295,#290,#146,.T.);
#369=EDGE_CURVE('',#297,#291,#147,.T.);
#370=EDGE_CURVE('',#298,#297,#148,.T.);
#371=EDGE_CURVE('',#299,#298,#149,.T.);
#372=EDGE_CURVE('',#300,#299,#150,.T.);
#373=EDGE_CURVE('',#300,#301,#151,.T.);
#374=EDGE_CURVE('',#302,#301,#152,.T.);
#375=EDGE_CURVE('',#302,#293,#153,.T.);
#376=EDGE_CURVE('',#303,#303,#251,.T.);
#377=EDGE_CURVE('',#304,#290,#154,.T.);
#378=EDGE_CURVE('',#297,#304,#252,.T.);
#379=EDGE_CURVE('',#305,#306,#253,.T.);
#380=EDGE_CURVE('',#306,#307,#254,.T.);
#381=EDGE_CURVE('',#307,#308,#255,.T.);
#382=EDGE_CURVE('',#308,#305,#256,.T.);
#383=EDGE_CURVE('',#309,#310,#257,.T.);
#384=EDGE_CURVE('',#310,#308,#155,.T.);
#385=EDGE_CURVE('',#307,#309,#156,.T.);
#386=EDGE_CURVE('',#311,#312,#258,.T.);
#387=EDGE_CURVE('',#312,#310,#259,.T.);
#388=EDGE_CURVE('',#309,#311,#260,.T.);
#389=EDGE_CURVE('',#305,#312,#157,.T.);
#390=EDGE_CURVE('',#311,#306,#158,.T.);
#391=EDGE_CURVE('',#313,#307,#159,.T.);
#392=EDGE_CURVE('',#314,#313,#160,.T.);
#393=EDGE_CURVE('',#314,#309,#161,.T.);
#394=EDGE_CURVE('',#315,#315,#261,.T.);
#395=EDGE_CURVE('',#316,#306,#162,.T.);
#396=EDGE_CURVE('',#313,#316,#262,.T.);
#397=EDGE_CURVE('',#317,#317,#263,.T.);
#398=EDGE_CURVE('',#318,#318,#264,.T.);
#399=EDGE_CURVE('',#319,#314,#265,.T.);
#400=EDGE_CURVE('',#319,#311,#163,.T.);
#401=EDGE_CURVE('',#320,#295,#164,.T.);
#402=EDGE_CURVE('',#304,#320,#165,.T.);
#403=EDGE_CURVE('',#320,#302,#266,.T.);
#404=EDGE_CURVE('',#321,#322,#166,.T.);
#405=EDGE_CURVE('',#321,#323,#167,.T.);
#406=EDGE_CURVE('',#324,#323,#168,.T.);
#407=EDGE_CURVE('',#322,#324,#169,.T.);
#408=EDGE_CURVE('',#322,#325,#267,.T.);
#409=EDGE_CURVE('',#326,#324,#268,.T.);
#410=EDGE_CURVE('',#325,#326,#170,.T.);
#411=EDGE_CURVE('',#325,#327,#269,.T.);
#412=EDGE_CURVE('',#328,#326,#270,.T.);
#413=EDGE_CURVE('',#327,#328,#171,.T.);
#414=EDGE_CURVE('',#327,#329,#271,.T.);
#415=EDGE_CURVE('',#330,#328,#272,.T.);
#416=EDGE_CURVE('',#329,#330,#172,.T.);
#417=EDGE_CURVE('',#329,#300,#173,.T.);
#418=EDGE_CURVE('',#301,#330,#174,.T.);
#419=EDGE_CURVE('',#299,#331,#175,.T.);
#420=EDGE_CURVE('',#332,#298,#176,.T.);
#421=EDGE_CURVE('',#331,#332,#177,.T.);
#422=EDGE_CURVE('',#323,#319,#178,.T.);
#423=EDGE_CURVE('',#331,#321,#179,.T.);
#424=EDGE_CURVE('',#316,#332,#180,.T.);
#425=ORIENTED_EDGE('',*,*,#333,.F.);
#426=ORIENTED_EDGE('',*,*,#334,.T.);
#427=ORIENTED_EDGE('',*,*,#335,.F.);
#428=ORIENTED_EDGE('',*,*,#336,.F.);
#429=ORIENTED_EDGE('',*,*,#337,.F.);
#430=ORIENTED_EDGE('',*,*,#336,.T.);
#431=ORIENTED_EDGE('',*,*,#338,.F.);
#432=ORIENTED_EDGE('',*,*,#339,.F.);
#433=ORIENTED_EDGE('',*,*,#340,.F.);
#434=ORIENTED_EDGE('',*,*,#339,.T.);
#435=ORIENTED_EDGE('',*,*,#341,.F.);
#436=ORIENTED_EDGE('',*,*,#342,.F.);
#437=ORIENTED_EDGE('',*,*,#343,.F.);
#438=ORIENTED_EDGE('',*,*,#342,.T.);
#439=ORIENTED_EDGE('',*,*,#344,.F.);
#440=ORIENTED_EDGE('',*,*,#334,.F.);
#441=ORIENTED_EDGE('',*,*,#344,.T.);
#442=ORIENTED_EDGE('',*,*,#341,.T.);
#443=ORIENTED_EDGE('',*,*,#338,.T.);
#444=ORIENTED_EDGE('',*,*,#335,.T.);
#445=ORIENTED_EDGE('',*,*,#345,.F.);
#446=ORIENTED_EDGE('',*,*,#346,.T.);
#447=ORIENTED_EDGE('',*,*,#347,.F.);
#448=ORIENTED_EDGE('',*,*,#348,.F.);
#449=ORIENTED_EDGE('',*,*,#349,.F.);
#450=ORIENTED_EDGE('',*,*,#348,.T.);
#451=ORIENTED_EDGE('',*,*,#350,.F.);
#452=ORIENTED_EDGE('',*,*,#351,.F.);
#453=ORIENTED_EDGE('',*,*,#352,.F.);
#454=ORIENTED_EDGE('',*,*,#351,.T.);
#455=ORIENTED_EDGE('',*,*,#353,.F.);
#456=ORIENTED_EDGE('',*,*,#354,.F.);
#457=ORIENTED_EDGE('',*,*,#355,.F.);
#458=ORIENTED_EDGE('',*,*,#354,.T.);
#459=ORIENTED_EDGE('',*,*,#356,.F.);
#460=ORIENTED_EDGE('',*,*,#346,.F.);
#461=ORIENTED_EDGE('',*,*,#356,.T.);
#462=ORIENTED_EDGE('',*,*,#353,.T.);
#463=ORIENTED_EDGE('',*,*,#350,.T.);
#464=ORIENTED_EDGE('',*,*,#347,.T.);
#465=ORIENTED_EDGE('',*,*,#357,.T.);
#466=ORIENTED_EDGE('',*,*,#358,.T.);
#467=ORIENTED_EDGE('',*,*,#359,.T.);
#468=ORIENTED_EDGE('',*,*,#360,.T.);
#469=ORIENTED_EDGE('',*,*,#361,.T.);
#470=ORIENTED_EDGE('',*,*,#362,.T.);
#471=ORIENTED_EDGE('',*,*,#359,.F.);
#472=ORIENTED_EDGE('',*,*,#363,.T.);
#473=ORIENTED_EDGE('',*,*,#364,.T.);
#474=ORIENTED_EDGE('',*,*,#365,.T.);
#475=ORIENTED_EDGE('',*,*,#361,.F.);
#476=ORIENTED_EDGE('',*,*,#366,.T.);
#477=ORIENTED_EDGE('',*,*,#357,.F.);
#478=ORIENTED_EDGE('',*,*,#367,.T.);
#479=ORIENTED_EDGE('',*,*,#364,.F.);
#480=ORIENTED_EDGE('',*,*,#368,.T.);
#481=ORIENTED_EDGE('',*,*,#363,.F.);
#482=ORIENTED_EDGE('',*,*,#369,.F.);
#483=ORIENTED_EDGE('',*,*,#370,.F.);
#484=ORIENTED_EDGE('',*,*,#371,.F.);
#485=ORIENTED_EDGE('',*,*,#372,.F.);
#486=ORIENTED_EDGE('',*,*,#373,.T.);
#487=ORIENTED_EDGE('',*,*,#374,.F.);
#488=ORIENTED_EDGE('',*,*,#375,.T.);
#489=ORIENTED_EDGE('',*,*,#376,.T.);
#490=ORIENTED_EDGE('',*,*,#358,.F.);
#491=ORIENTED_EDGE('',*,*,#377,.F.);
#492=ORIENTED_EDGE('',*,*,#378,.F.);
#493=ORIENTED_EDGE('',*,*,#369,.T.);
#494=ORIENTED_EDGE('',*,*,#360,.F.);
#495=ORIENTED_EDGE('',*,*,#362,.F.);
#496=ORIENTED_EDGE('',*,*,#365,.F.);
#497=ORIENTED_EDGE('',*,*,#367,.F.);
#498=ORIENTED_EDGE('',*,*,#379,.T.);
#499=ORIENTED_EDGE('',*,*,#380,.T.);
#500=ORIENTED_EDGE('',*,*,#381,.T.);
#501=ORIENTED_EDGE('',*,*,#382,.T.);
#502=ORIENTED_EDGE('',*,*,#383,.T.);
#503=ORIENTED_EDGE('',*,*,#384,.T.);
#504=ORIENTED_EDGE('',*,*,#381,.F.);
#505=ORIENTED_EDGE('',*,*,#385,.T.);
#506=ORIENTED_EDGE('',*,*,#386,.T.);
#507=ORIENTED_EDGE('',*,*,#387,.T.);
#508=ORIENTED_EDGE('',*,*,#383,.F.);
#509=ORIENTED_EDGE('',*,*,#388,.T.);
#510=ORIENTED_EDGE('',*,*,#379,.F.);
#511=ORIENTED_EDGE('',*,*,#389,.T.);
#512=ORIENTED_EDGE('',*,*,#386,.F.);
#513=ORIENTED_EDGE('',*,*,#390,.T.);
#514=ORIENTED_EDGE('',*,*,#385,.F.);
#515=ORIENTED_EDGE('',*,*,#391,.F.);
#516=ORIENTED_EDGE('',*,*,#392,.F.);
#517=ORIENTED_EDGE('',*,*,#393,.T.);
#518=ORIENTED_EDGE('',*,*,#394,.T.);
#519=ORIENTED_EDGE('',*,*,#380,.F.);
#520=ORIENTED_EDGE('',*,*,#395,.F.);
#521=ORIENTED_EDGE('',*,*,#396,.F.);
#522=ORIENTED_EDGE('',*,*,#391,.T.);
#523=ORIENTED_EDGE('',*,*,#382,.F.);
#524=ORIENTED_EDGE('',*,*,#384,.F.);
#525=ORIENTED_EDGE('',*,*,#387,.F.);
#526=ORIENTED_EDGE('',*,*,#389,.F.);
#527=ORIENTED_EDGE('',*,*,#376,.F.);
#528=ORIENTED_EDGE('',*,*,#397,.F.);
#529=ORIENTED_EDGE('',*,*,#394,.F.);
#530=ORIENTED_EDGE('',*,*,#398,.F.);
#531=ORIENTED_EDGE('',*,*,#388,.F.);
#532=ORIENTED_EDGE('',*,*,#393,.F.);
#533=ORIENTED_EDGE('',*,*,#399,.F.);
#534=ORIENTED_EDGE('',*,*,#400,.T.);
#535=ORIENTED_EDGE('',*,*,#368,.F.);
#536=ORIENTED_EDGE('',*,*,#401,.F.);
#537=ORIENTED_EDGE('',*,*,#402,.F.);
#538=ORIENTED_EDGE('',*,*,#377,.T.);
#539=ORIENTED_EDGE('',*,*,#397,.T.);
#540=ORIENTED_EDGE('',*,*,#366,.F.);
#541=ORIENTED_EDGE('',*,*,#375,.F.);
#542=ORIENTED_EDGE('',*,*,#403,.F.);
#543=ORIENTED_EDGE('',*,*,#401,.T.);
#544=ORIENTED_EDGE('',*,*,#404,.F.);
#545=ORIENTED_EDGE('',*,*,#405,.T.);
#546=ORIENTED_EDGE('',*,*,#406,.F.);
#547=ORIENTED_EDGE('',*,*,#407,.F.);
#548=ORIENTED_EDGE('',*,*,#408,.F.);
#549=ORIENTED_EDGE('',*,*,#407,.T.);
#550=ORIENTED_EDGE('',*,*,#409,.F.);
#551=ORIENTED_EDGE('',*,*,#410,.F.);
#552=ORIENTED_EDGE('',*,*,#411,.F.);
#553=ORIENTED_EDGE('',*,*,#410,.T.);
#554=ORIENTED_EDGE('',*,*,#412,.F.);
#555=ORIENTED_EDGE('',*,*,#413,.F.);
#556=ORIENTED_EDGE('',*,*,#414,.F.);
#557=ORIENTED_EDGE('',*,*,#413,.T.);
#558=ORIENTED_EDGE('',*,*,#415,.F.);
#559=ORIENTED_EDGE('',*,*,#416,.F.);
#560=ORIENTED_EDGE('',*,*,#417,.F.);
#561=ORIENTED_EDGE('',*,*,#416,.T.);
#562=ORIENTED_EDGE('',*,*,#418,.F.);
#563=ORIENTED_EDGE('',*,*,#373,.F.);
#564=ORIENTED_EDGE('',*,*,#419,.F.);
#565=ORIENTED_EDGE('',*,*,#371,.T.);
#566=ORIENTED_EDGE('',*,*,#420,.F.);
#567=ORIENTED_EDGE('',*,*,#421,.F.);
#568=ORIENTED_EDGE('',*,*,#390,.F.);
#569=ORIENTED_EDGE('',*,*,#400,.F.);
#570=ORIENTED_EDGE('',*,*,#422,.F.);
#571=ORIENTED_EDGE('',*,*,#405,.F.);
#572=ORIENTED_EDGE('',*,*,#423,.F.);
#573=ORIENTED_EDGE('',*,*,#421,.T.);
#574=ORIENTED_EDGE('',*,*,#424,.F.);
#575=ORIENTED_EDGE('',*,*,#395,.T.);
#576=ORIENTED_EDGE('',*,*,#398,.T.);
#577=ORIENTED_EDGE('',*,*,#423,.T.);
#578=ORIENTED_EDGE('',*,*,#404,.T.);
#579=ORIENTED_EDGE('',*,*,#408,.T.);
#580=ORIENTED_EDGE('',*,*,#411,.T.);
#581=ORIENTED_EDGE('',*,*,#414,.T.);
#582=ORIENTED_EDGE('',*,*,#417,.T.);
#583=ORIENTED_EDGE('',*,*,#372,.T.);
#584=ORIENTED_EDGE('',*,*,#419,.T.);
#585=ORIENTED_EDGE('',*,*,#333,.T.);
#586=ORIENTED_EDGE('',*,*,#337,.T.);
#587=ORIENTED_EDGE('',*,*,#340,.T.);
#588=ORIENTED_EDGE('',*,*,#343,.T.);
#589=ORIENTED_EDGE('',*,*,#345,.T.);
#590=ORIENTED_EDGE('',*,*,#349,.T.);
#591=ORIENTED_EDGE('',*,*,#352,.T.);
#592=ORIENTED_EDGE('',*,*,#355,.T.);
#593=ORIENTED_EDGE('',*,*,#396,.T.);
#594=ORIENTED_EDGE('',*,*,#424,.T.);
#595=ORIENTED_EDGE('',*,*,#420,.T.);
#596=ORIENTED_EDGE('',*,*,#370,.T.);
#597=ORIENTED_EDGE('',*,*,#378,.T.);
#598=ORIENTED_EDGE('',*,*,#402,.T.);
#599=ORIENTED_EDGE('',*,*,#403,.T.);
#600=ORIENTED_EDGE('',*,*,#374,.T.);
#601=ORIENTED_EDGE('',*,*,#418,.T.);
#602=ORIENTED_EDGE('',*,*,#415,.T.);
#603=ORIENTED_EDGE('',*,*,#412,.T.);
#604=ORIENTED_EDGE('',*,*,#409,.T.);
#605=ORIENTED_EDGE('',*,*,#406,.T.);
#606=ORIENTED_EDGE('',*,*,#422,.T.);
#607=ORIENTED_EDGE('',*,*,#399,.T.);
#608=ORIENTED_EDGE('',*,*,#392,.T.);
#609=CYLINDRICAL_SURFACE('',#667,1.);
#610=CYLINDRICAL_SURFACE('',#671,1.);
#611=CYLINDRICAL_SURFACE('',#676,1.);
#612=CYLINDRICAL_SURFACE('',#680,1.);
#613=CYLINDRICAL_SURFACE('',#689,1.);
#614=CYLINDRICAL_SURFACE('',#694,1.);
#615=CYLINDRICAL_SURFACE('',#697,2.);
#616=CYLINDRICAL_SURFACE('',#704,1.);
#617=CYLINDRICAL_SURFACE('',#709,1.);
#618=CYLINDRICAL_SURFACE('',#712,2.);
#619=CYLINDRICAL_SURFACE('',#715,2.);
#620=CYLINDRICAL_SURFACE('',#717,2.);
#621=CYLINDRICAL_SURFACE('',#719,2.);
#622=CYLINDRICAL_SURFACE('',#722,2.);
#623=CYLINDRICAL_SURFACE('',#725,2.);
#624=CYLINDRICAL_SURFACE('',#728,20.);
#625=CYLINDRICAL_SURFACE('',#731,2.);
#626=ADVANCED_FACE('',(#44),#609,.T.);
#627=ADVANCED_FACE('',(#45),#27,.T.);
#628=ADVANCED_FACE('',(#46),#610,.T.);
#629=ADVANCED_FACE('',(#47),#28,.T.);
#630=ADVANCED_FACE('',(#48),#29,.T.);
#631=ADVANCED_FACE('',(#49),#611,.T.);
#632=ADVANCED_FACE('',(#50),#30,.T.);
#633=ADVANCED_FACE('',(#51),#612,.T.);
#634=ADVANCED_FACE('',(#52),#31,.T.);
#635=ADVANCED_FACE('',(#53),#32,.T.);
#636=ADVANCED_FACE('',(#54),#23,.F.);
#637=ADVANCED_FACE('',(#55),#613,.T.);
#638=ADVANCED_FACE('',(#56),#24,.F.);
#639=ADVANCED_FACE('',(#57),#614,.T.);
#640=ADVANCED_FACE('',(#58,#14),#33,.T.);
#641=ADVANCED_FACE('',(#59),#615,.T.);
#642=ADVANCED_FACE('',(#60),#34,.T.);
#643=ADVANCED_FACE('',(#61),#25,.F.);
#644=ADVANCED_FACE('',(#62),#616,.T.);
#645=ADVANCED_FACE('',(#63),#26,.F.);
#646=ADVANCED_FACE('',(#64),#617,.T.);
#647=ADVANCED_FACE('',(#65,#15),#35,.T.);
#648=ADVANCED_FACE('',(#66),#618,.T.);
#649=ADVANCED_FACE('',(#67),#36,.T.);
#650=ADVANCED_FACE('',(#68,#16),#619,.F.);
#651=ADVANCED_FACE('',(#69,#17),#620,.F.);
#652=ADVANCED_FACE('',(#70),#621,.T.);
#653=ADVANCED_FACE('',(#71,#18),#37,.T.);
#654=ADVANCED_FACE('',(#72),#622,.T.);
#655=ADVANCED_FACE('',(#73),#38,.T.);
#656=ADVANCED_FACE('',(#74),#623,.T.);
#657=ADVANCED_FACE('',(#75),#624,.F.);
#658=ADVANCED_FACE('',(#76),#625,.T.);
#659=ADVANCED_FACE('',(#77),#39,.T.);
#660=ADVANCED_FACE('',(#78),#40,.T.);
#661=ADVANCED_FACE('',(#79,#19),#41,.T.);
#662=ADVANCED_FACE('',(#80),#42,.F.);
#663=ADVANCED_FACE('',(#20,#21,#22),#43,.T.);
#664=CLOSED_SHELL('',(#626,#627,#628,#629,#630,#631,#632,#633,#634,#635,
#636,#637,#638,#639,#640,#641,#642,#643,#644,#645,#646,#647,#648,#649,#650,
#651,#652,#653,#654,#655,#656,#657,#658,#659,#660,#661,#662,#663));
#665=MANIFOLD_SOLID_BREP('Volumenk\X\F6rper2',#664);
#666=AXIS2_PLACEMENT_3D('placement',#939,#739,#740);
#667=AXIS2_PLACEMENT_3D('',#940,#741,#742);
#668=AXIS2_PLACEMENT_3D('',#943,#743,#744);
#669=AXIS2_PLACEMENT_3D('',#947,#746,#747);
#670=AXIS2_PLACEMENT_3D('',#949,#749,#750);
#671=AXIS2_PLACEMENT_3D('',#955,#754,#755);
#672=AXIS2_PLACEMENT_3D('',#957,#756,#757);
#673=AXIS2_PLACEMENT_3D('',#959,#758,#759);
#674=AXIS2_PLACEMENT_3D('',#961,#761,#762);
#675=AXIS2_PLACEMENT_3D('',#964,#765,#766);
#676=AXIS2_PLACEMENT_3D('',#965,#767,#768);
#677=AXIS2_PLACEMENT_3D('',#968,#769,#770);
#678=AXIS2_PLACEMENT_3D('',#972,#772,#773);
#679=AXIS2_PLACEMENT_3D('',#974,#775,#776);
#680=AXIS2_PLACEMENT_3D('',#980,#780,#781);
#681=AXIS2_PLACEMENT_3D('',#982,#782,#783);
#682=AXIS2_PLACEMENT_3D('',#984,#784,#785);
#683=AXIS2_PLACEMENT_3D('',#986,#787,#788);
#684=AXIS2_PLACEMENT_3D('',#989,#791,#792);
#685=AXIS2_PLACEMENT_3D('',#1007,#793,#794);
#686=AXIS2_PLACEMENT_3D('',#1009,#795,#796);
#687=AXIS2_PLACEMENT_3D('',#1011,#797,#798);
#688=AXIS2_PLACEMENT_3D('',#1012,#799,#800);
#689=AXIS2_PLACEMENT_3D('',#1013,#801,#802);
#690=AXIS2_PLACEMENT_3D('',#1016,#803,#804);
#691=AXIS2_PLACEMENT_3D('',#1036,#807,#808);
#692=AXIS2_PLACEMENT_3D('',#1037,#809,#810);
#693=AXIS2_PLACEMENT_3D('',#1038,#811,#812);
#694=AXIS2_PLACEMENT_3D('',#1039,#813,#814);
#695=AXIS2_PLACEMENT_3D('',#1042,#817,#818);
#696=AXIS2_PLACEMENT_3D('',#1057,#826,#827);
#697=AXIS2_PLACEMENT_3D('',#1058,#828,#829);
#698=AXIS2_PLACEMENT_3D('',#1061,#831,#832);
#699=AXIS2_PLACEMENT_3D('',#1062,#833,#834);
#700=AXIS2_PLACEMENT_3D('',#1080,#835,#836);
#701=AXIS2_PLACEMENT_3D('',#1082,#837,#838);
#702=AXIS2_PLACEMENT_3D('',#1084,#839,#840);
#703=AXIS2_PLACEMENT_3D('',#1085,#841,#842);
#704=AXIS2_PLACEMENT_3D('',#1086,#843,#844);
#705=AXIS2_PLACEMENT_3D('',#1089,#845,#846);
#706=AXIS2_PLACEMENT_3D('',#1109,#849,#850);
#707=AXIS2_PLACEMENT_3D('',#1110,#851,#852);
#708=AXIS2_PLACEMENT_3D('',#1111,#853,#854);
#709=AXIS2_PLACEMENT_3D('',#1112,#855,#856);
#710=AXIS2_PLACEMENT_3D('',#1115,#859,#860);
#711=AXIS2_PLACEMENT_3D('',#1122,#864,#865);
#712=AXIS2_PLACEMENT_3D('',#1123,#866,#867);
#713=AXIS2_PLACEMENT_3D('',#1126,#869,#870);
#714=AXIS2_PLACEMENT_3D('',#1127,#871,#872);
#715=AXIS2_PLACEMENT_3D('',#1128,#873,#874);
#716=AXIS2_PLACEMENT_3D('',#1130,#875,#876);
#717=AXIS2_PLACEMENT_3D('',#1131,#877,#878);
#718=AXIS2_PLACEMENT_3D('',#1133,#879,#880);
#719=AXIS2_PLACEMENT_3D('',#1134,#881,#882);
#720=AXIS2_PLACEMENT_3D('',#1136,#883,#884);
#721=AXIS2_PLACEMENT_3D('',#1138,#886,#887);
#722=AXIS2_PLACEMENT_3D('',#1142,#890,#891);
#723=AXIS2_PLACEMENT_3D('',#1143,#892,#893);
#724=AXIS2_PLACEMENT_3D('',#1144,#894,#895);
#725=AXIS2_PLACEMENT_3D('',#1153,#900,#901);
#726=AXIS2_PLACEMENT_3D('',#1155,#902,#903);
#727=AXIS2_PLACEMENT_3D('',#1157,#904,#905);
#728=AXIS2_PLACEMENT_3D('',#1159,#907,#908);
#729=AXIS2_PLACEMENT_3D('',#1161,#909,#910);
#730=AXIS2_PLACEMENT_3D('',#1163,#911,#912);
#731=AXIS2_PLACEMENT_3D('',#1165,#914,#915);
#732=AXIS2_PLACEMENT_3D('',#1167,#916,#917);
#733=AXIS2_PLACEMENT_3D('',#1169,#918,#919);
#734=AXIS2_PLACEMENT_3D('',#1171,#921,#922);
#735=AXIS2_PLACEMENT_3D('',#1174,#925,#926);
#736=AXIS2_PLACEMENT_3D('',#1180,#930,#931);
#737=AXIS2_PLACEMENT_3D('',#1184,#935,#936);
#738=AXIS2_PLACEMENT_3D('',#1185,#937,#938);
#739=DIRECTION('axis',(0.,0.,1.));
#740=DIRECTION('refdir',(1.,0.,0.));
#741=DIRECTION('center_axis',(0.,0.,1.));
#742=DIRECTION('ref_axis',(2.2204460492503E-015,1.,0.));
#743=DIRECTION('center_axis',(0.,0.,-1.));
#744=DIRECTION('ref_axis',(2.2204460492503E-015,1.,0.));
#745=DIRECTION('',(0.,0.,1.));
#746=DIRECTION('center_axis',(0.,0.,1.));
#747=DIRECTION('ref_axis',(2.2204460492503E-015,1.,0.));
#748=DIRECTION('',(0.,0.,1.));
#749=DIRECTION('center_axis',(-2.22044604925031E-016,-1.,0.));
#750=DIRECTION('ref_axis',(1.,-3.5527136788005E-016,0.));
#751=DIRECTION('',(-1.,2.22044604925031E-016,0.));
#752=DIRECTION('',(1.,-2.22044604925031E-016,0.));
#753=DIRECTION('',(0.,0.,1.));
#754=DIRECTION('center_axis',(0.,0.,1.));
#755=DIRECTION('ref_axis',(0.,-1.,0.));
#756=DIRECTION('center_axis',(0.,0.,-1.));
#757=DIRECTION('ref_axis',(0.,-1.,0.));
#758=DIRECTION('center_axis',(0.,0.,1.));
#759=DIRECTION('ref_axis',(0.,-1.,0.));
#760=DIRECTION('',(0.,0.,1.));
#761=DIRECTION('center_axis',(1.48029736616688E-016,1.,0.));
#762=DIRECTION('ref_axis',(-1.,0.,0.));
#763=DIRECTION('',(1.,-1.48029736616688E-016,0.));
#764=DIRECTION('',(-1.,1.48029736616688E-016,0.));
#765=DIRECTION('center_axis',(0.,0.,1.));
#766=DIRECTION('ref_axis',(1.,0.,0.));
#767=DIRECTION('center_axis',(0.,0.,1.));
#768=DIRECTION('ref_axis',(0.,1.,0.));
#769=DIRECTION('center_axis',(0.,0.,-1.));
#770=DIRECTION('ref_axis',(0.,1.,0.));
#771=DIRECTION('',(0.,0.,1.));
#772=DIRECTION('center_axis',(0.,0.,1.));
#773=DIRECTION('ref_axis',(0.,1.,0.));
#774=DIRECTION('',(0.,0.,1.));
#775=DIRECTION('center_axis',(0.,-1.,0.));
#776=DIRECTION('ref_axis',(1.,0.,0.));
#777=DIRECTION('',(-1.,0.,0.));
#778=DIRECTION('',(1.,0.,0.));
#779=DIRECTION('',(0.,0.,1.));
#780=DIRECTION('center_axis',(0.,0.,1.));
#781=DIRECTION('ref_axis',(0.,-1.,0.));
#782=DIRECTION('center_axis',(0.,0.,-1.));
#783=DIRECTION('ref_axis',(0.,-1.,0.));
#784=DIRECTION('center_axis',(0.,0.,1.));
#785=DIRECTION('ref_axis',(0.,-1.,0.));
#786=DIRECTION('',(0.,0.,1.));
#787=DIRECTION('center_axis',(7.40148683083438E-017,1.,0.));
#788=DIRECTION('ref_axis',(-1.,0.,0.));
#789=DIRECTION('',(1.,-7.40148683083438E-017,0.));
#790=DIRECTION('',(-1.,7.40148683083438E-017,0.));
#791=DIRECTION('center_axis',(0.,0.,1.));
#792=DIRECTION('ref_axis',(1.,0.,0.));
#793=DIRECTION('center_axis',(-1.,0.,0.));
#794=DIRECTION('ref_axis',(0.,0.,1.));
#795=DIRECTION('center_axis',(0.,0.,1.));
#796=DIRECTION('ref_axis',(-1.,4.44089209850062E-015,0.));
#797=DIRECTION('center_axis',(-1.,1.77635683940024E-014,0.));
#798=DIRECTION('ref_axis',(-1.77635683940024E-014,-1.,0.));
#799=DIRECTION('center_axis',(0.,0.,-1.));
#800=DIRECTION('ref_axis',(-1.,4.44089209850062E-015,0.));
#801=DIRECTION('center_axis',(1.,0.,0.));
#802=DIRECTION('ref_axis',(0.,-0.707106781186546,0.707106781186549));
#803=DIRECTION('center_axis',(-1.,0.,0.));
#804=DIRECTION('ref_axis',(0.,-1.,0.));
#805=DIRECTION('',(-1.,0.,0.));
#806=DIRECTION('',(1.,0.,0.));
#807=DIRECTION('center_axis',(1.,-4.44089209850062E-015,0.));
#808=DIRECTION('ref_axis',(4.44089209850062E-015,1.,0.));
#809=DIRECTION('center_axis',(0.,0.,-1.));
#810=DIRECTION('ref_axis',(1.,4.44089209850062E-015,0.));
#811=DIRECTION('center_axis',(0.,0.,1.));
#812=DIRECTION('ref_axis',(1.,4.44089209850062E-015,0.));
#813=DIRECTION('center_axis',(-1.,0.,0.));
#814=DIRECTION('ref_axis',(0.,0.707106781186548,0.707106781186548));
#815=DIRECTION('',(1.,0.,0.));
#816=DIRECTION('',(-1.,0.,0.));
#817=DIRECTION('center_axis',(0.,-1.,0.));
#818=DIRECTION('ref_axis',(1.,0.,0.));
#819=DIRECTION('',(0.,0.,1.));
#820=DIRECTION('',(1.,0.,0.));
#821=DIRECTION('',(0.,0.,1.));
#822=DIRECTION('',(-1.,0.,0.));
#823=DIRECTION('',(0.,0.,1.));
#824=DIRECTION('',(1.,0.,0.));
#825=DIRECTION('',(0.,0.,1.));
#826=DIRECTION('center_axis',(0.,1.,0.));
#827=DIRECTION('ref_axis',(-1.,0.,0.));
#828=DIRECTION('center_axis',(0.,0.,1.));
#829=DIRECTION('ref_axis',(-4.44089209850062E-015,1.,0.));
#830=DIRECTION('',(0.,0.,1.));
#831=DIRECTION('center_axis',(0.,0.,-1.));
#832=DIRECTION('ref_axis',(-4.44089209850062E-015,1.,0.));
#833=DIRECTION('center_axis',(0.,0.,1.));
#834=DIRECTION('ref_axis',(1.,0.,0.));
#835=DIRECTION('center_axis',(-1.,0.,0.));
#836=DIRECTION('ref_axis',(0.,0.,1.));
#837=DIRECTION('center_axis',(0.,0.,1.));
#838=DIRECTION('ref_axis',(-1.,0.,0.));
#839=DIRECTION('center_axis',(-1.,0.,0.));
#840=DIRECTION('ref_axis',(0.,-1.,0.));
#841=DIRECTION('center_axis',(0.,0.,-1.));
#842=DIRECTION('ref_axis',(-1.,0.,0.));
#843=DIRECTION('center_axis',(1.,0.,0.));
#844=DIRECTION('ref_axis',(0.,-0.707106781186548,0.707106781186548));
#845=DIRECTION('center_axis',(-1.,0.,0.));
#846=DIRECTION('ref_axis',(0.,-1.,0.));
#847=DIRECTION('',(-1.,0.,0.));
#848=DIRECTION('',(1.,0.,0.));
#849=DIRECTION('center_axis',(1.,-4.44089209850056E-015,0.));
#850=DIRECTION('ref_axis',(4.44089209850056E-015,1.,0.));
#851=DIRECTION('center_axis',(0.,0.,-1.));
#852=DIRECTION('ref_axis',(1.,0.,0.));
#853=DIRECTION('center_axis',(0.,0.,1.));
#854=DIRECTION('ref_axis',(1.,0.,0.));
#855=DIRECTION('center_axis',(-1.,0.,0.));
#856=DIRECTION('ref_axis',(0.,0.707106781186546,0.707106781186549));
#857=DIRECTION('',(1.,0.,0.));
#858=DIRECTION('',(-1.,0.,0.));
#859=DIRECTION('center_axis',(0.,-1.,0.));
#860=DIRECTION('ref_axis',(1.,0.,0.));
#861=DIRECTION('',(0.,0.,1.));
#862=DIRECTION('',(-1.,0.,0.));
#863=DIRECTION('',(0.,0.,1.));
#864=DIRECTION('center_axis',(0.,1.,0.));
#865=DIRECTION('ref_axis',(-1.,0.,0.));
#866=DIRECTION('center_axis',(0.,0.,1.));
#867=DIRECTION('ref_axis',(0.,-1.,0.));
#868=DIRECTION('',(0.,0.,1.));
#869=DIRECTION('center_axis',(0.,0.,-1.));
#870=DIRECTION('ref_axis',(0.,-1.,0.));
#871=DIRECTION('center_axis',(0.,0.,1.));
#872=DIRECTION('ref_axis',(1.,0.,0.));
#873=DIRECTION('center_axis',(0.,-1.,0.));
#874=DIRECTION('ref_axis',(-1.,0.,0.));
#875=DIRECTION('center_axis',(0.,-1.,0.));
#876=DIRECTION('ref_axis',(-1.,0.,0.));
#877=DIRECTION('center_axis',(0.,-1.,0.));
#878=DIRECTION('ref_axis',(-1.,0.,0.));
#879=DIRECTION('center_axis',(0.,-1.,0.));
#880=DIRECTION('ref_axis',(-1.,0.,0.));
#881=DIRECTION('center_axis',(0.,0.,1.));
#882=DIRECTION('ref_axis',(-4.44089209850063E-015,1.,0.));
#883=DIRECTION('center_axis',(0.,0.,-1.));
#884=DIRECTION('ref_axis',(-4.44089209850063E-015,1.,0.));
#885=DIRECTION('',(0.,0.,1.));
#886=DIRECTION('center_axis',(0.,1.,0.));
#887=DIRECTION('ref_axis',(-1.,0.,0.));
#888=DIRECTION('',(0.,0.,1.));
#889=DIRECTION('',(1.,0.,0.));
#890=DIRECTION('center_axis',(0.,0.,1.));
#891=DIRECTION('ref_axis',(1.33226762955018E-014,-1.,0.));
#892=DIRECTION('center_axis',(0.,0.,-1.));
#893=DIRECTION('ref_axis',(1.33226762955018E-014,-1.,0.));
#894=DIRECTION('center_axis',(1.,2.5189253561398E-015,0.));
#895=DIRECTION('ref_axis',(-2.48689957516035E-015,1.,0.));
#896=DIRECTION('',(2.5189253561398E-015,-1.,0.));
#897=DIRECTION('',(0.,0.,1.));
#898=DIRECTION('',(-2.5189253561398E-015,1.,0.));
#899=DIRECTION('',(0.,0.,1.));
#900=DIRECTION('center_axis',(0.,0.,1.));
#901=DIRECTION('ref_axis',(-0.318340164595033,0.947976550134869,0.));
#902=DIRECTION('center_axis',(0.,0.,-1.));
#903=DIRECTION('ref_axis',(-0.318340164595033,0.947976550134869,0.));
#904=DIRECTION('center_axis',(0.,0.,1.));
#905=DIRECTION('ref_axis',(-0.318340164595033,0.947976550134869,0.));
#906=DIRECTION('',(0.,0.,1.));
#907=DIRECTION('center_axis',(0.,0.,1.));
#908=DIRECTION('ref_axis',(-0.318340164595034,0.947976550134869,0.));
#909=DIRECTION('center_axis',(0.,0.,1.));
#910=DIRECTION('ref_axis',(-0.318340164595034,0.947976550134869,0.));
#911=DIRECTION('center_axis',(0.,0.,-1.));
#912=DIRECTION('ref_axis',(-0.318340164595034,0.947976550134869,0.));
#913=DIRECTION('',(0.,0.,1.));
#914=DIRECTION('center_axis',(0.,0.,1.));
#915=DIRECTION('ref_axis',(-1.,0.,0.));
#916=DIRECTION('center_axis',(0.,0.,-1.));
#917=DIRECTION('ref_axis',(-1.,0.,0.));
#918=DIRECTION('center_axis',(0.,0.,1.));
#919=DIRECTION('ref_axis',(-1.,0.,0.));
#920=DIRECTION('',(0.,0.,1.));
#921=DIRECTION('center_axis',(1.,-2.5189253561398E-015,0.));
#922=DIRECTION('ref_axis',(2.48689957516035E-015,1.,0.));
#923=DIRECTION('',(-2.5189253561398E-015,-1.,0.));
#924=DIRECTION('',(2.5189253561398E-015,1.,0.));
#925=DIRECTION('center_axis',(-1.,0.,0.));
#926=DIRECTION('ref_axis',(0.,-1.,0.));
#927=DIRECTION('',(0.,1.,0.));
#928=DIRECTION('',(0.,-1.,0.));
#929=DIRECTION('',(0.,0.,1.));
#930=DIRECTION('center_axis',(0.,1.,0.));
#931=DIRECTION('ref_axis',(-1.,0.,0.));
#932=DIRECTION('',(-1.,0.,0.));
#933=DIRECTION('',(1.,0.,0.));
#934=DIRECTION('',(-1.,0.,0.));
#935=DIRECTION('center_axis',(0.,0.,1.));
#936=DIRECTION('ref_axis',(1.,0.,0.));
#937=DIRECTION('center_axis',(0.,0.,1.));
#938=DIRECTION('ref_axis',(1.,0.,0.));
#939=CARTESIAN_POINT('',(0.,0.,0.));
#940=CARTESIAN_POINT('Origin',(-15.,18.,2.5));
#941=CARTESIAN_POINT('',(-15.,19.,2.5));
#942=CARTESIAN_POINT('',(-15.,17.,2.5));
#943=CARTESIAN_POINT('Origin',(-15.,18.,2.5));
#944=CARTESIAN_POINT('',(-15.,19.,2.8));
#945=CARTESIAN_POINT('',(-15.,19.,2.5));
#946=CARTESIAN_POINT('',(-15.,17.,2.8));
#947=CARTESIAN_POINT('Origin',(-15.,18.,2.8));
#948=CARTESIAN_POINT('',(-15.,17.,2.5));
#949=CARTESIAN_POINT('Origin',(-45.,17.,2.5));
#950=CARTESIAN_POINT('',(-45.,17.,2.5));
#951=CARTESIAN_POINT('',(-36.8532500403351,17.,2.5));
#952=CARTESIAN_POINT('',(-45.,17.,2.8));
#953=CARTESIAN_POINT('',(-15.,17.,2.8));
#954=CARTESIAN_POINT('',(-45.,17.,2.5));
#955=CARTESIAN_POINT('Origin',(-45.,18.,2.5));
#956=CARTESIAN_POINT('',(-45.,19.,2.5));
#957=CARTESIAN_POINT('Origin',(-45.,18.,2.5));
#958=CARTESIAN_POINT('',(-45.,19.,2.8));
#959=CARTESIAN_POINT('Origin',(-45.,18.,2.8));
#960=CARTESIAN_POINT('',(-45.,19.,2.5));
#961=CARTESIAN_POINT('Origin',(-15.,19.,2.5));
#962=CARTESIAN_POINT('',(-21.8532500403351,19.,2.5));
#963=CARTESIAN_POINT('',(-45.,19.,2.8));
#964=CARTESIAN_POINT('Origin',(-30.,18.,2.8));
#965=CARTESIAN_POINT('Origin',(-15.,-18.,2.5));
#966=CARTESIAN_POINT('',(-15.,-17.,2.5));
#967=CARTESIAN_POINT('',(-15.,-19.,2.5));
#968=CARTESIAN_POINT('Origin',(-15.,-18.,2.5));
#969=CARTESIAN_POINT('',(-15.,-17.,2.8));
#970=CARTESIAN_POINT('',(-15.,-17.,2.5));
#971=CARTESIAN_POINT('',(-15.,-19.,2.8));
#972=CARTESIAN_POINT('Origin',(-15.,-18.,2.8));
#973=CARTESIAN_POINT('',(-15.,-19.,2.5));
#974=CARTESIAN_POINT('Origin',(-45.,-19.,2.5));
#975=CARTESIAN_POINT('',(-45.,-19.,2.5));
#976=CARTESIAN_POINT('',(-36.8532500403351,-19.,2.5));
#977=CARTESIAN_POINT('',(-45.,-19.,2.8));
#978=CARTESIAN_POINT('',(-15.,-19.,2.8));
#979=CARTESIAN_POINT('',(-45.,-19.,2.5));
#980=CARTESIAN_POINT('Origin',(-45.,-18.,2.5));
#981=CARTESIAN_POINT('',(-45.,-17.,2.5));
#982=CARTESIAN_POINT('Origin',(-45.,-18.,2.5));
#983=CARTESIAN_POINT('',(-45.,-17.,2.8));
#984=CARTESIAN_POINT('Origin',(-45.,-18.,2.8));
#985=CARTESIAN_POINT('',(-45.,-17.,2.5));
#986=CARTESIAN_POINT('Origin',(-15.,-17.,2.5));
#987=CARTESIAN_POINT('',(-21.8532500403351,-17.,2.5));
#988=CARTESIAN_POINT('',(-45.,-17.,2.8));
#989=CARTESIAN_POINT('Origin',(-30.,-18.,2.8));
#990=CARTESIAN_POINT('Ctrl Pts',(-44.,-19.5,16.5));
#991=CARTESIAN_POINT('Ctrl Pts',(-46.,-19.5,16.5));
#992=CARTESIAN_POINT('Ctrl Pts',(-46.,-21.5,16.5));
#993=CARTESIAN_POINT('Ctrl Pts',(-46.,-23.5,16.5));
#994=CARTESIAN_POINT('Ctrl Pts',(-44.,-23.5,16.5));
#995=CARTESIAN_POINT('Ctrl Pts',(-44.,-19.5,17.5));
#996=CARTESIAN_POINT('Ctrl Pts',(-46.,-19.5,17.5));
#997=CARTESIAN_POINT('Ctrl Pts',(-46.,-21.5,17.5));
#998=CARTESIAN_POINT('Ctrl Pts',(-46.,-23.5,17.5));
#999=CARTESIAN_POINT('Ctrl Pts',(-44.,-23.5,17.5));
#1000=CARTESIAN_POINT('Ctrl Pts',(-44.,-20.5,17.5));
#1001=CARTESIAN_POINT('Ctrl Pts',(-45.,-20.5,17.5));
#1002=CARTESIAN_POINT('Ctrl Pts',(-45.,-21.5,17.5));
#1003=CARTESIAN_POINT('Ctrl Pts',(-45.,-22.5,17.5));
#1004=CARTESIAN_POINT('Ctrl Pts',(-44.,-22.5,17.5));
#1005=CARTESIAN_POINT('',(-44.,-20.5,17.5));
#1006=CARTESIAN_POINT('',(-44.,-19.5,16.5));
#1007=CARTESIAN_POINT('Origin',(-44.,-20.5,16.5));
#1008=CARTESIAN_POINT('',(-44.,-23.5,16.5));
#1009=CARTESIAN_POINT('Origin',(-44.,-21.5,16.5));
#1010=CARTESIAN_POINT('',(-44.,-22.5,17.5));
#1011=CARTESIAN_POINT('Origin',(-44.,-22.5,16.5));
#1012=CARTESIAN_POINT('Origin',(-44.,-21.5,17.5));
#1013=CARTESIAN_POINT('Origin',(-44.,-22.5,16.5));
#1014=CARTESIAN_POINT('',(-36.,-23.5,16.5));
#1015=CARTESIAN_POINT('',(-36.,-22.5,17.5));
#1016=CARTESIAN_POINT('Origin',(-36.,-22.5,16.5));
#1017=CARTESIAN_POINT('',(-44.,-22.5,17.5));
#1018=CARTESIAN_POINT('',(-44.,-23.5,16.5));
#1019=CARTESIAN_POINT('Ctrl Pts',(-36.,-23.5,16.5));
#1020=CARTESIAN_POINT('Ctrl Pts',(-34.,-23.5,16.5));
#1021=CARTESIAN_POINT('Ctrl Pts',(-34.,-21.5,16.5));
#1022=CARTESIAN_POINT('Ctrl Pts',(-34.,-19.5,16.5));
#1023=CARTESIAN_POINT('Ctrl Pts',(-36.,-19.5,16.5));
#1024=CARTESIAN_POINT('Ctrl Pts',(-36.,-23.5,17.5));
#1025=CARTESIAN_POINT('Ctrl Pts',(-34.,-23.5,17.5));
#1026=CARTESIAN_POINT('Ctrl Pts',(-34.,-21.5,17.5));
#1027=CARTESIAN_POINT('Ctrl Pts',(-34.,-19.5,17.5));
#1028=CARTESIAN_POINT('Ctrl Pts',(-36.,-19.5,17.5));
#1029=CARTESIAN_POINT('Ctrl Pts',(-36.,-22.5,17.5));
#1030=CARTESIAN_POINT('Ctrl Pts',(-35.,-22.5,17.5));
#1031=CARTESIAN_POINT('Ctrl Pts',(-35.,-21.5,17.5));
#1032=CARTESIAN_POINT('Ctrl Pts',(-35.,-20.5,17.5));
#1033=CARTESIAN_POINT('Ctrl Pts',(-36.,-20.5,17.5));
#1034=CARTESIAN_POINT('',(-36.,-19.5,16.5));
#1035=CARTESIAN_POINT('',(-36.,-20.5,17.5));
#1036=CARTESIAN_POINT('Origin',(-36.,-20.5,16.5));
#1037=CARTESIAN_POINT('Origin',(-36.,-21.5,17.5));
#1038=CARTESIAN_POINT('Origin',(-36.,-21.5,16.5));
#1039=CARTESIAN_POINT('Origin',(-38.,-20.5,16.5));
#1040=CARTESIAN_POINT('',(-38.,-20.5,17.5));
#1041=CARTESIAN_POINT('',(-38.,-19.5,16.5));
#1042=CARTESIAN_POINT('Origin',(-48.,-23.5,0.));
#1043=CARTESIAN_POINT('',(-44.,-23.5,2.5));
#1044=CARTESIAN_POINT('',(-44.,-23.5,2.5));
#1045=CARTESIAN_POINT('',(-48.,-23.5,2.5));
#1046=CARTESIAN_POINT('',(-5.00348362109075,-23.5,2.5));
#1047=CARTESIAN_POINT('',(-48.,-23.5,0.));
#1048=CARTESIAN_POINT('',(-48.,-23.5,0.));
#1049=CARTESIAN_POINT('',(-5.00348362109075,-23.5,0.));
#1050=CARTESIAN_POINT('',(-5.00348362109075,-23.5,0.));
#1051=CARTESIAN_POINT('',(-5.00348362109074,-23.5,2.5));
#1052=CARTESIAN_POINT('',(-5.00348362109075,-23.5,0.));
#1053=CARTESIAN_POINT('',(-36.,-23.5,2.5));
#1054=CARTESIAN_POINT('',(-5.00348362109075,-23.5,2.5));
#1055=CARTESIAN_POINT('',(-36.,-23.5,2.5));
#1056=CARTESIAN_POINT('',(-38.,-23.5,13.5));
#1057=CARTESIAN_POINT('Origin',(-40.,-23.5,13.5));
#1058=CARTESIAN_POINT('Origin',(-44.,-21.5,2.5));
#1059=CARTESIAN_POINT('',(-44.,-19.5,2.5));
#1060=CARTESIAN_POINT('',(-44.,-19.5,2.5));
#1061=CARTESIAN_POINT('Origin',(-44.,-21.5,2.5));
#1062=CARTESIAN_POINT('Origin',(-40.,-21.5,17.5));
#1063=CARTESIAN_POINT('Ctrl Pts',(-44.,23.5,16.5));
#1064=CARTESIAN_POINT('Ctrl Pts',(-46.,23.5,16.5));
#1065=CARTESIAN_POINT('Ctrl Pts',(-46.,21.5,16.5));
#1066=CARTESIAN_POINT('Ctrl Pts',(-46.,19.5,16.5));
#1067=CARTESIAN_POINT('Ctrl Pts',(-44.,19.5,16.5));
#1068=CARTESIAN_POINT('Ctrl Pts',(-44.,23.5,17.5));
#1069=CARTESIAN_POINT('Ctrl Pts',(-46.,23.5,17.5));
#1070=CARTESIAN_POINT('Ctrl Pts',(-46.,21.5,17.5));
#1071=CARTESIAN_POINT('Ctrl Pts',(-46.,19.5,17.5));
#1072=CARTESIAN_POINT('Ctrl Pts',(-44.,19.5,17.5));
#1073=CARTESIAN_POINT('Ctrl Pts',(-44.,22.5,17.5));
#1074=CARTESIAN_POINT('Ctrl Pts',(-45.,22.5,17.5));
#1075=CARTESIAN_POINT('Ctrl Pts',(-45.,21.5,17.5));
#1076=CARTESIAN_POINT('Ctrl Pts',(-45.,20.5,17.5));
#1077=CARTESIAN_POINT('Ctrl Pts',(-44.,20.5,17.5));
#1078=CARTESIAN_POINT('',(-44.,22.5,17.5));
#1079=CARTESIAN_POINT('',(-44.,23.5,16.5));
#1080=CARTESIAN_POINT('Origin',(-44.,22.5,16.5));
#1081=CARTESIAN_POINT('',(-44.,19.5,16.5));
#1082=CARTESIAN_POINT('Origin',(-44.,21.5,16.5));
#1083=CARTESIAN_POINT('',(-44.,20.5,17.5));
#1084=CARTESIAN_POINT('Origin',(-44.,20.5,16.5));
#1085=CARTESIAN_POINT('Origin',(-44.,21.5,17.5));
#1086=CARTESIAN_POINT('Origin',(-42.,20.5,16.5));
#1087=CARTESIAN_POINT('',(-36.,19.5,16.5));
#1088=CARTESIAN_POINT('',(-36.,20.5,17.5));
#1089=CARTESIAN_POINT('Origin',(-36.,20.5,16.5));
#1090=CARTESIAN_POINT('',(-42.,20.5,17.5));
#1091=CARTESIAN_POINT('',(-42.,19.5,16.5));
#1092=CARTESIAN_POINT('Ctrl Pts',(-36.,19.5,16.5));
#1093=CARTESIAN_POINT('Ctrl Pts',(-34.,19.5,16.5));
#1094=CARTESIAN_POINT('Ctrl Pts',(-34.,21.5,16.5));
#1095=CARTESIAN_POINT('Ctrl Pts',(-34.,23.5,16.5));
#1096=CARTESIAN_POINT('Ctrl Pts',(-36.,23.5,16.5));
#1097=CARTESIAN_POINT('Ctrl Pts',(-36.,19.5,17.5));
#1098=CARTESIAN_POINT('Ctrl Pts',(-34.,19.5,17.5));
#1099=CARTESIAN_POINT('Ctrl Pts',(-34.,21.5,17.5));
#1100=CARTESIAN_POINT('Ctrl Pts',(-34.,23.5,17.5));
#1101=CARTESIAN_POINT('Ctrl Pts',(-36.,23.5,17.5));
#1102=CARTESIAN_POINT('Ctrl Pts',(-36.,20.5,17.5));
#1103=CARTESIAN_POINT('Ctrl Pts',(-35.,20.5,17.5));
#1104=CARTESIAN_POINT('Ctrl Pts',(-35.,21.5,17.5));
#1105=CARTESIAN_POINT('Ctrl Pts',(-35.,22.5,17.5));
#1106=CARTESIAN_POINT('Ctrl Pts',(-36.,22.5,17.5));
#1107=CARTESIAN_POINT('',(-36.,23.5,16.5));
#1108=CARTESIAN_POINT('',(-36.,22.5,17.5));
#1109=CARTESIAN_POINT('Origin',(-36.,22.5,16.5));
#1110=CARTESIAN_POINT('Origin',(-36.,21.5,17.5));
#1111=CARTESIAN_POINT('Origin',(-36.,21.5,16.5));
#1112=CARTESIAN_POINT('Origin',(-22.5017418105454,22.5,16.5));
#1113=CARTESIAN_POINT('',(-22.5017418105454,22.5,17.5));
#1114=CARTESIAN_POINT('',(-22.5017418105454,23.5,16.5));
#1115=CARTESIAN_POINT('Origin',(-44.,19.5,2.5));
#1116=CARTESIAN_POINT('',(-44.,19.5,2.5));
#1117=CARTESIAN_POINT('',(-44.,19.5,2.5));
#1118=CARTESIAN_POINT('',(-36.,19.5,2.5));
#1119=CARTESIAN_POINT('',(-36.3532500403351,19.5,2.5));
#1120=CARTESIAN_POINT('',(-36.,19.5,2.5));
#1121=CARTESIAN_POINT('',(-38.,19.5,13.5));
#1122=CARTESIAN_POINT('Origin',(-40.,19.5,13.5));
#1123=CARTESIAN_POINT('Origin',(-44.,21.5,2.5));
#1124=CARTESIAN_POINT('',(-44.,23.5,2.5));
#1125=CARTESIAN_POINT('',(-44.,23.5,2.5));
#1126=CARTESIAN_POINT('Origin',(-44.,21.5,2.5));
#1127=CARTESIAN_POINT('Origin',(-40.,21.5,17.5));
#1128=CARTESIAN_POINT('Origin',(-40.,23.5,13.5));
#1129=CARTESIAN_POINT('',(-38.,-19.5,13.5));
#1130=CARTESIAN_POINT('Origin',(-40.,-19.5,13.5));
#1131=CARTESIAN_POINT('Origin',(-40.,23.5,13.5));
#1132=CARTESIAN_POINT('',(-38.,23.5,13.5));
#1133=CARTESIAN_POINT('Origin',(-40.,23.5,13.5));
#1134=CARTESIAN_POINT('Origin',(-36.,21.5,2.5));
#1135=CARTESIAN_POINT('',(-36.,23.5,2.5));
#1136=CARTESIAN_POINT('Origin',(-36.,21.5,2.5));
#1137=CARTESIAN_POINT('',(-36.,23.5,2.5));
#1138=CARTESIAN_POINT('Origin',(-36.,-19.5,2.5));
#1139=CARTESIAN_POINT('',(-36.,-19.5,2.5));
#1140=CARTESIAN_POINT('',(-36.,-19.5,2.5));
#1141=CARTESIAN_POINT('',(-32.3532500403351,-19.5,2.5));
#1142=CARTESIAN_POINT('Origin',(-36.,-21.5,2.5));
#1143=CARTESIAN_POINT('Origin',(-36.,-21.5,2.5));
#1144=CARTESIAN_POINT('Origin',(-5.00348362109074,20.8554841029671,0.));
#1145=CARTESIAN_POINT('',(-5.00348362109075,23.5,0.));
#1146=CARTESIAN_POINT('',(-5.00348362109074,20.8554841029671,0.));
#1147=CARTESIAN_POINT('',(-5.00348362109075,23.5,0.));
#1148=CARTESIAN_POINT('',(-5.00348362109074,23.5,2.5));
#1149=CARTESIAN_POINT('',(-5.00348362109075,23.5,0.));
#1150=CARTESIAN_POINT('',(-5.00348362109074,20.8554841029671,2.5));
#1151=CARTESIAN_POINT('',(-5.00348362109075,23.5,2.5));
#1152=CARTESIAN_POINT('',(-5.00348362109074,20.8554841029671,0.));
#1153=CARTESIAN_POINT('Origin',(-7.00348362109074,20.8554841029671,0.));
#1154=CARTESIAN_POINT('',(-6.36680329190067,18.9595310026974,0.));
#1155=CARTESIAN_POINT('Origin',(-7.00348362109074,20.8554841029671,0.));
#1156=CARTESIAN_POINT('',(-6.36680329190067,18.9595310026974,2.5));
#1157=CARTESIAN_POINT('Origin',(-7.00348362109074,20.8554841029671,2.5));
#1158=CARTESIAN_POINT('',(-6.36680329190067,18.9595310026974,0.));
#1159=CARTESIAN_POINT('Origin',(0.,0.,0.));
#1160=CARTESIAN_POINT('',(-6.36680329190067,-18.9595310026974,0.));
#1161=CARTESIAN_POINT('Origin',(0.,0.,0.));
#1162=CARTESIAN_POINT('',(-6.36680329190067,-18.9595310026974,2.5));
#1163=CARTESIAN_POINT('Origin',(0.,0.,2.5));
#1164=CARTESIAN_POINT('',(-6.36680329190067,-18.9595310026974,0.));
#1165=CARTESIAN_POINT('Origin',(-7.00348362109074,-20.8554841029671,0.));
#1166=CARTESIAN_POINT('',(-5.00348362109074,-20.8554841029671,0.));
#1167=CARTESIAN_POINT('Origin',(-7.00348362109074,-20.8554841029671,0.));
#1168=CARTESIAN_POINT('',(-5.00348362109074,-20.8554841029671,2.5));
#1169=CARTESIAN_POINT('Origin',(-7.00348362109074,-20.8554841029671,2.5));
#1170=CARTESIAN_POINT('',(-5.00348362109074,-20.8554841029671,0.));
#1171=CARTESIAN_POINT('Origin',(-5.00348362109075,-23.5,0.));
#1172=CARTESIAN_POINT('',(-5.00348362109074,-20.8554841029671,0.));
#1173=CARTESIAN_POINT('',(-5.00348362109074,-20.8554841029671,2.5));
#1174=CARTESIAN_POINT('Origin',(-48.,23.5,0.));
#1175=CARTESIAN_POINT('',(-48.,23.5,0.));
#1176=CARTESIAN_POINT('',(-48.,-23.5,0.));
#1177=CARTESIAN_POINT('',(-48.,23.5,2.5));
#1178=CARTESIAN_POINT('',(-48.,-23.5,2.5));
#1179=CARTESIAN_POINT('',(-48.,23.5,0.));
#1180=CARTESIAN_POINT('Origin',(-5.00348362109074,23.5,0.));
#1181=CARTESIAN_POINT('',(-48.,23.5,2.5));
#1182=CARTESIAN_POINT('',(-48.,23.5,0.));
#1183=CARTESIAN_POINT('',(-48.,23.5,2.5));
#1184=CARTESIAN_POINT('Origin',(-28.7065000806703,-1.4850241337026E-015,
0.));
#1185=CARTESIAN_POINT('Origin',(-28.7065000806703,-1.4850241337026E-015,
2.5));
#1186=UNCERTAINTY_MEASURE_WITH_UNIT(LENGTH_MEASURE(0.01),#1190,
'DISTANCE_ACCURACY_VALUE',
'Maximum model space distance between geometric entities at asserted c
onnectivities');
#1187=UNCERTAINTY_MEASURE_WITH_UNIT(LENGTH_MEASURE(1.E-006),#1190,
'DISTANCE_ACCURACY_VALUE',
'Maximum model space distance between geometric entities at asserted c
onnectivities');
#1188=(
GEOMETRIC_REPRESENTATION_CONTEXT(3)
GLOBAL_UNCERTAINTY_ASSIGNED_CONTEXT((#1186))
GLOBAL_UNIT_ASSIGNED_CONTEXT((#1190,#1193,#1191))
REPRESENTATION_CONTEXT('','3D')
);
#1189=(
GEOMETRIC_REPRESENTATION_CONTEXT(3)
GLOBAL_UNCERTAINTY_ASSIGNED_CONTEXT((#1187))
GLOBAL_UNIT_ASSIGNED_CONTEXT((#1190,#1193,#1191))
REPRESENTATION_CONTEXT('','3D')
);
#1190=(
LENGTH_UNIT()
NAMED_UNIT(*)
SI_UNIT(.MILLI.,.METRE.)
);
#1191=(
NAMED_UNIT(*)
SI_UNIT($,.STERADIAN.)
SOLID_ANGLE_UNIT()
);
#1192=DIMENSIONAL_EXPONENTS(0.,0.,0.,0.,0.,0.,0.);
#1193=(
CONVERSION_BASED_UNIT('degree',#1195)
NAMED_UNIT(#1192)
PLANE_ANGLE_UNIT()
);
#1194=(
NAMED_UNIT(*)
PLANE_ANGLE_UNIT()
SI_UNIT($,.RADIAN.)
);
#1195=PLANE_ANGLE_MEASURE_WITH_UNIT(PLANE_ANGLE_MEASURE(0.01745329252),
#1194);
#1196=SHAPE_DEFINITION_REPRESENTATION(#1197,#1198);
#1197=PRODUCT_DEFINITION_SHAPE('',$,#1200);
#1198=SHAPE_REPRESENTATION('',(#666),#1188);
#1199=PRODUCT_DEFINITION_CONTEXT('part definition',#1204,'design');
#1200=PRODUCT_DEFINITION('coinschieber','coinschieber',#1201,#1199);
#1201=PRODUCT_DEFINITION_FORMATION('',$,#1206);
#1202=PRODUCT_RELATED_PRODUCT_CATEGORY('coinschieber','coinschieber',(#1206));
#1203=APPLICATION_PROTOCOL_DEFINITION('international standard',
'automotive_design',2009,#1204);
#1204=APPLICATION_CONTEXT(
'Core Data for Automotive Mechanical Design Process');
#1205=PRODUCT_CONTEXT('part definition',#1204,'mechanical');
#1206=PRODUCT('coinschieber','coinschieber',$,(#1205));
#1207=PRESENTATION_STYLE_ASSIGNMENT((#1208));
#1208=SURFACE_STYLE_USAGE(.BOTH.,#1209);
#1209=SURFACE_SIDE_STYLE($,(#1210));
#1210=SURFACE_STYLE_FILL_AREA(#1211);
#1211=FILL_AREA_STYLE($,(#1212));
#1212=FILL_AREA_STYLE_COLOUR($,#1213);
#1213=COLOUR_RGB('',0.737254901960784,0.313725490196078,0.184313725490196);
ENDSEC;
END-ISO-10303-21;
