ISO-10303-21;
HEADER;
FILE_DESCRIPTION(('FreeCAD Model'),'2;1');
FILE_NAME('Open CASCADE Shape Model','2026-05-25T15:15:08',('Author'),(
    ''),'Open CASCADE STEP processor 7.8','FreeCAD','Unknown');
FILE_SCHEMA(('AUTOMOTIVE_DESIGN { 1 0 10303 214 1 1 1 1 }'));
ENDSEC;
DATA;
#1 = APPLICATION_PROTOCOL_DEFINITION('international standard',
  'automotive_design',2000,#2);
#2 = APPLICATION_CONTEXT(
  'core data for automotive mechanical design processes');
#3 = SHAPE_DEFINITION_REPRESENTATION(#4,#10);
#4 = PRODUCT_DEFINITION_SHAPE('','',#5);
#5 = PRODUCT_DEFINITION('design','',#6,#9);
#6 = PRODUCT_DEFINITION_FORMATION('','',#7);
#7 = PRODUCT('Coinschiebeachse','Coinschiebeachse','',(#8));
#8 = PRODUCT_CONTEXT('',#2,'mechanical');
#9 = PRODUCT_DEFINITION_CONTEXT('part definition',#2,'design');
#10 = ADVANCED_BREP_SHAPE_REPRESENTATION('',(#11,#15),#1097);
#11 = AXIS2_PLACEMENT_3D('',#12,#13,#14);
#12 = CARTESIAN_POINT('',(0.,0.,0.));
#13 = DIRECTION('',(0.,0.,1.));
#14 = DIRECTION('',(1.,0.,-0.));
#15 = MANIFOLD_SOLID_BREP('',#16);
#16 = CLOSED_SHELL('',(#17,#286,#345,#595,#649,#761,#863,#889,#937,#966,
    #993,#1002,#1083,#1090));
#17 = ADVANCED_FACE('',(#18),#33,.F.);
#18 = FACE_BOUND('',#19,.F.);
#19 = EDGE_LOOP('',(#20,#60,#87,#116,#138,#139,#199,#228));
#20 = ORIENTED_EDGE('',*,*,#21,.F.);
#21 = EDGE_CURVE('',#22,#24,#26,.T.);
#22 = VERTEX_POINT('',#23);
#23 = CARTESIAN_POINT('',(-3.316624790355,-5.,-3.));
#24 = VERTEX_POINT('',#25);
#25 = CARTESIAN_POINT('',(-3.316624790355,5.,-3.));
#26 = SURFACE_CURVE('',#27,(#32,#44),.PCURVE_S1.);
#27 = CIRCLE('',#28,6.);
#28 = AXIS2_PLACEMENT_3D('',#29,#30,#31);
#29 = CARTESIAN_POINT('',(0.,0.,-3.));
#30 = DIRECTION('',(0.,0.,-1.));
#31 = DIRECTION('',(-1.,0.,0.));
#32 = PCURVE('',#33,#38);
#33 = TOROIDAL_SURFACE('',#34,6.,2.);
#34 = AXIS2_PLACEMENT_3D('',#35,#36,#37);
#35 = CARTESIAN_POINT('',(0.,0.,-5.));
#36 = DIRECTION('',(0.,0.,-1.));
#37 = DIRECTION('',(-1.,0.,0.));
#38 = DEFINITIONAL_REPRESENTATION('',(#39),#43);
#39 = LINE('',#40,#41);
#40 = CARTESIAN_POINT('',(0.,4.712388980385));
#41 = VECTOR('',#42,1.);
#42 = DIRECTION('',(1.,0.));
#43 = ( GEOMETRIC_REPRESENTATION_CONTEXT(2) 
PARAMETRIC_REPRESENTATION_CONTEXT() REPRESENTATION_CONTEXT('2D SPACE',''
  ) );
#44 = PCURVE('',#45,#50);
#45 = PLANE('',#46);
#46 = AXIS2_PLACEMENT_3D('',#47,#48,#49);
#47 = CARTESIAN_POINT('',(-7.5,-1.56E-15,-3.));
#48 = DIRECTION('',(0.,0.,1.));
#49 = DIRECTION('',(1.,0.,-0.));
#50 = DEFINITIONAL_REPRESENTATION('',(#51),#59);
#51 = ( BOUNDED_CURVE() B_SPLINE_CURVE(2,(#52,#53,#54,#55,#56,#57,#58),
.UNSPECIFIED.,.T.,.F.) B_SPLINE_CURVE_WITH_KNOTS((1,2,2,2,2,1),(
    -2.094395102393,0.,2.094395102393,4.188790204786,6.28318530718,
8.377580409573),.UNSPECIFIED.) CURVE() GEOMETRIC_REPRESENTATION_ITEM() 
RATIONAL_B_SPLINE_CURVE((1.,0.5,1.,0.5,1.,0.5,1.)) REPRESENTATION_ITEM(
  '') );
#52 = CARTESIAN_POINT('',(1.5,1.56E-15));
#53 = CARTESIAN_POINT('',(1.5,10.392304845413));
#54 = CARTESIAN_POINT('',(10.5,5.196152422707));
#55 = CARTESIAN_POINT('',(19.5,3.029576158977E-15));
#56 = CARTESIAN_POINT('',(10.5,-5.196152422707));
#57 = CARTESIAN_POINT('',(1.5,-10.39230484541));
#58 = CARTESIAN_POINT('',(1.5,1.56E-15));
#59 = ( GEOMETRIC_REPRESENTATION_CONTEXT(2) 
PARAMETRIC_REPRESENTATION_CONTEXT() REPRESENTATION_CONTEXT('2D SPACE',''
  ) );
#60 = ORIENTED_EDGE('',*,*,#61,.F.);
#61 = EDGE_CURVE('',#62,#22,#64,.T.);
#62 = VERTEX_POINT('',#63);
#63 = CARTESIAN_POINT('',(-2.21108319357,-3.333333333333,-5.));
#64 = SEAM_CURVE('',#65,(#73,#80),.PCURVE_S1.);
#65 = ( BOUNDED_CURVE() B_SPLINE_CURVE(6,(#66,#67,#68,#69,#70,#71,#72),
.UNSPECIFIED.,.F.,.F.) B_SPLINE_CURVE_WITH_KNOTS((7,7),(3.14159265359,
4.712388980385),.PIECEWISE_BEZIER_KNOTS.) CURVE() 
GEOMETRIC_REPRESENTATION_ITEM() RATIONAL_B_SPLINE_CURVE((1.031393471788,
    1.010025407661,0.997924642725,0.993958444137,0.997924642725,
1.010025407661,1.031393471788)) REPRESENTATION_ITEM('') );
#66 = CARTESIAN_POINT('',(-2.21108319357,-3.333333333333,-5.));
#67 = CARTESIAN_POINT('',(-2.21108319357,-3.333333333333,-4.465326433694
    ));
#68 = CARTESIAN_POINT('',(-2.305059039104,-3.475007251056,
    -3.944582854836));
#69 = CARTESIAN_POINT('',(-2.485346491076,-3.74680081133,-3.496160973595
    ));
#70 = CARTESIAN_POINT('',(-2.733221012386,-4.120485712363,
    -3.170008701267));
#71 = CARTESIAN_POINT('',(-3.021072856229,-4.554438694745,-3.));
#72 = CARTESIAN_POINT('',(-3.316624790355,-5.,-3.));
#73 = PCURVE('',#33,#74);
#74 = DEFINITIONAL_REPRESENTATION('',(#75),#79);
#75 = LINE('',#76,#77);
#76 = CARTESIAN_POINT('',(5.298074523842,0.));
#77 = VECTOR('',#78,1.);
#78 = DIRECTION('',(0.,1.));
#79 = ( GEOMETRIC_REPRESENTATION_CONTEXT(2) 
PARAMETRIC_REPRESENTATION_CONTEXT() REPRESENTATION_CONTEXT('2D SPACE',''
  ) );
#80 = PCURVE('',#33,#81);
#81 = DEFINITIONAL_REPRESENTATION('',(#82),#86);
#82 = LINE('',#83,#84);
#83 = CARTESIAN_POINT('',(11.581259831021,0.));
#84 = VECTOR('',#85,1.);
#85 = DIRECTION('',(0.,1.));
#86 = ( GEOMETRIC_REPRESENTATION_CONTEXT(2) 
PARAMETRIC_REPRESENTATION_CONTEXT() REPRESENTATION_CONTEXT('2D SPACE',''
  ) );
#87 = ORIENTED_EDGE('',*,*,#88,.F.);
#88 = EDGE_CURVE('',#89,#62,#91,.T.);
#89 = VERTEX_POINT('',#90);
#90 = CARTESIAN_POINT('',(4.,0.,-5.));
#91 = SURFACE_CURVE('',#92,(#97,#104),.PCURVE_S1.);
#92 = CIRCLE('',#93,4.);
#93 = AXIS2_PLACEMENT_3D('',#94,#95,#96);
#94 = CARTESIAN_POINT('',(0.,0.,-5.));
#95 = DIRECTION('',(0.,0.,1.));
#96 = DIRECTION('',(-1.,0.,0.));
#97 = PCURVE('',#33,#98);
#98 = DEFINITIONAL_REPRESENTATION('',(#99),#103);
#99 = LINE('',#100,#101);
#100 = CARTESIAN_POINT('',(12.566370614359,3.14159265359));
#101 = VECTOR('',#102,1.);
#102 = DIRECTION('',(-1.,7.E-17));
#103 = ( GEOMETRIC_REPRESENTATION_CONTEXT(2) 
PARAMETRIC_REPRESENTATION_CONTEXT() REPRESENTATION_CONTEXT('2D SPACE',''
  ) );
#104 = PCURVE('',#105,#110);
#105 = CYLINDRICAL_SURFACE('',#106,4.);
#106 = AXIS2_PLACEMENT_3D('',#107,#108,#109);
#107 = CARTESIAN_POINT('',(0.,0.,0.));
#108 = DIRECTION('',(0.,0.,1.));
#109 = DIRECTION('',(-1.,0.,0.));
#110 = DEFINITIONAL_REPRESENTATION('',(#111),#115);
#111 = LINE('',#112,#113);
#112 = CARTESIAN_POINT('',(0.,-5.));
#113 = VECTOR('',#114,1.);
#114 = DIRECTION('',(1.,0.));
#115 = ( GEOMETRIC_REPRESENTATION_CONTEXT(2) 
PARAMETRIC_REPRESENTATION_CONTEXT() REPRESENTATION_CONTEXT('2D SPACE',''
  ) );
#116 = ORIENTED_EDGE('',*,*,#117,.F.);
#117 = EDGE_CURVE('',#62,#89,#118,.T.);
#118 = SURFACE_CURVE('',#119,(#124,#131),.PCURVE_S1.);
#119 = CIRCLE('',#120,4.);
#120 = AXIS2_PLACEMENT_3D('',#121,#122,#123);
#121 = CARTESIAN_POINT('',(0.,0.,-5.));
#122 = DIRECTION('',(0.,0.,1.));
#123 = DIRECTION('',(-1.,0.,0.));
#124 = PCURVE('',#33,#125);
#125 = DEFINITIONAL_REPRESENTATION('',(#126),#130);
#126 = LINE('',#127,#128);
#127 = CARTESIAN_POINT('',(12.566370614359,3.14159265359));
#128 = VECTOR('',#129,1.);
#129 = DIRECTION('',(-1.,7.E-17));
#130 = ( GEOMETRIC_REPRESENTATION_CONTEXT(2) 
PARAMETRIC_REPRESENTATION_CONTEXT() REPRESENTATION_CONTEXT('2D SPACE',''
  ) );
#131 = PCURVE('',#105,#132);
#132 = DEFINITIONAL_REPRESENTATION('',(#133),#137);
#133 = LINE('',#134,#135);
#134 = CARTESIAN_POINT('',(6.28318530718,-5.));
#135 = VECTOR('',#136,1.);
#136 = DIRECTION('',(1.,0.));
#137 = ( GEOMETRIC_REPRESENTATION_CONTEXT(2) 
PARAMETRIC_REPRESENTATION_CONTEXT() REPRESENTATION_CONTEXT('2D SPACE',''
  ) );
#138 = ORIENTED_EDGE('',*,*,#61,.T.);
#139 = ORIENTED_EDGE('',*,*,#140,.F.);
#140 = EDGE_CURVE('',#141,#22,#143,.T.);
#141 = VERTEX_POINT('',#142);
#142 = CARTESIAN_POINT('',(2.E-15,-5.,-3.267949192431));
#143 = SURFACE_CURVE('',#144,(#153,#182),.PCURVE_S1.);
#144 = B_SPLINE_CURVE_WITH_KNOTS('',3,(#145,#146,#147,#148,#149,#150,
    #151,#152),.UNSPECIFIED.,.F.,.F.,(4,2,2,4),(0.,0.106019813874,
    0.212039627748,0.312469437792),.UNSPECIFIED.);
#145 = CARTESIAN_POINT('',(1.94E-15,-5.,-3.267949192431));
#146 = CARTESIAN_POINT('',(-0.35339937958,-5.,-3.267949192431));
#147 = CARTESIAN_POINT('',(-0.740482389795,-5.,-3.242659755923));
#148 = CARTESIAN_POINT('',(-1.512251118814,-5.,-3.160174555875));
#149 = CARTESIAN_POINT('',(-1.897335737084,-5.,-3.10675477176));
#150 = CARTESIAN_POINT('',(-2.58138252753,-5.,-3.03157748655));
#151 = CARTESIAN_POINT('',(-2.981858756876,-5.,-3.));
#152 = CARTESIAN_POINT('',(-3.316624790355,-5.,-3.));
#153 = PCURVE('',#33,#154);
#154 = DEFINITIONAL_REPRESENTATION('',(#155),#181);
#155 = B_SPLINE_CURVE_WITH_KNOTS('',3,(#156,#157,#158,#159,#160,#161,
    #162,#163,#164,#165,#166,#167,#168,#169,#170,#171,#172,#173,#174,
    #175,#176,#177,#178,#179,#180),.UNSPECIFIED.,.F.,.F.,(4,1,1,1,1,1,1,
    1,1,1,1,1,1,1,1,1,1,1,1,1,1,1,4),(0.,1.420315626327E-02,
    2.840631252653E-02,4.26094687898E-02,5.681262505307E-02,
    7.101578131634E-02,8.521893757961E-02,9.942209384287E-02,
    0.113625250106,0.127828406369,0.142031562633,0.156234718896,
    0.170437875159,0.184641031422,0.198844187686,0.213047343949,
    0.227250500212,0.241453656476,0.255656812739,0.269859969002,
    0.284063125265,0.298266281529,0.312469437792),.UNSPECIFIED.);
#156 = CARTESIAN_POINT('',(10.995574287564,4.188790204786));
#157 = CARTESIAN_POINT('',(11.005042660552,4.188787891736));
#158 = CARTESIAN_POINT('',(11.024222780012,4.189601333703));
#159 = CARTESIAN_POINT('',(11.053568014086,4.193331425476));
#160 = CARTESIAN_POINT('',(11.083334623534,4.199638052929));
#161 = CARTESIAN_POINT('',(11.113364077628,4.208549735101));
#162 = CARTESIAN_POINT('',(11.143497629105,4.220069036723));
#163 = CARTESIAN_POINT('',(11.17357803426,4.234169138875));
#164 = CARTESIAN_POINT('',(11.203452634648,4.250788152638));
#165 = CARTESIAN_POINT('',(11.232973708149,4.269845106748));
#166 = CARTESIAN_POINT('',(11.262015200724,4.291090909332));
#167 = CARTESIAN_POINT('',(11.290453288246,4.314343233941));
#168 = CARTESIAN_POINT('',(11.318173281277,4.339385004582));
#169 = CARTESIAN_POINT('',(11.345081454374,4.365995095247));
#170 = CARTESIAN_POINT('',(11.371060132868,4.393889524423));
#171 = CARTESIAN_POINT('',(11.396137538265,4.422943565944));
#172 = CARTESIAN_POINT('',(11.419853012624,4.452384358234));
#173 = CARTESIAN_POINT('',(11.443653309465,4.483861846772));
#174 = CARTESIAN_POINT('',(11.468013699615,4.518266832651));
#175 = CARTESIAN_POINT('',(11.492260319481,4.554870571668));
#176 = CARTESIAN_POINT('',(11.516072814694,4.593250906715));
#177 = CARTESIAN_POINT('',(11.539086170225,4.632782886845));
#178 = CARTESIAN_POINT('',(11.5609939916,4.672797819664));
#179 = CARTESIAN_POINT('',(11.574687130247,4.699301030681));
#180 = CARTESIAN_POINT('',(11.581259831021,4.712388980385));
#181 = ( GEOMETRIC_REPRESENTATION_CONTEXT(2) 
PARAMETRIC_REPRESENTATION_CONTEXT() REPRESENTATION_CONTEXT('2D SPACE',''
  ) );
#182 = PCURVE('',#183,#188);
#183 = PLANE('',#184);
#184 = AXIS2_PLACEMENT_3D('',#185,#186,#187);
#185 = CARTESIAN_POINT('',(2.22E-15,-5.,0.));
#186 = DIRECTION('',(4.1E-16,-1.,0.));
#187 = DIRECTION('',(-1.,-4.1E-16,0.));
#188 = DEFINITIONAL_REPRESENTATION('',(#189),#198);
#189 = B_SPLINE_CURVE_WITH_KNOTS('',3,(#190,#191,#192,#193,#194,#195,
    #196,#197),.UNSPECIFIED.,.F.,.F.,(4,2,2,4),(0.,0.106019813874,
    0.212039627748,0.312469437792),.UNSPECIFIED.);
#190 = CARTESIAN_POINT('',(2.8E-16,3.267949192431));
#191 = CARTESIAN_POINT('',(0.35339937958,3.267949192431));
#192 = CARTESIAN_POINT('',(0.740482389795,3.242659755923));
#193 = CARTESIAN_POINT('',(1.512251118814,3.160174555875));
#194 = CARTESIAN_POINT('',(1.897335737084,3.10675477176));
#195 = CARTESIAN_POINT('',(2.58138252753,3.03157748655));
#196 = CARTESIAN_POINT('',(2.981858756876,3.));
#197 = CARTESIAN_POINT('',(3.316624790355,3.));
#198 = ( GEOMETRIC_REPRESENTATION_CONTEXT(2) 
PARAMETRIC_REPRESENTATION_CONTEXT() REPRESENTATION_CONTEXT('2D SPACE',''
  ) );
#199 = ORIENTED_EDGE('',*,*,#200,.F.);
#200 = EDGE_CURVE('',#201,#141,#203,.T.);
#201 = VERTEX_POINT('',#202);
#202 = CARTESIAN_POINT('',(-0.,5.,-3.267949192431));
#203 = SURFACE_CURVE('',#204,(#209,#216),.PCURVE_S1.);
#204 = CIRCLE('',#205,5.);
#205 = AXIS2_PLACEMENT_3D('',#206,#207,#208);
#206 = CARTESIAN_POINT('',(0.,0.,-3.267949192431));
#207 = DIRECTION('',(0.,0.,-1.));
#208 = DIRECTION('',(3.3E-16,-1.,0.));
#209 = PCURVE('',#33,#210);
#210 = DEFINITIONAL_REPRESENTATION('',(#211),#215);
#211 = LINE('',#212,#213);
#212 = CARTESIAN_POINT('',(4.712388980385,4.188790204786));
#213 = VECTOR('',#214,1.);
#214 = DIRECTION('',(1.,0.));
#215 = ( GEOMETRIC_REPRESENTATION_CONTEXT(2) 
PARAMETRIC_REPRESENTATION_CONTEXT() REPRESENTATION_CONTEXT('2D SPACE',''
  ) );
#216 = PCURVE('',#217,#222);
#217 = CYLINDRICAL_SURFACE('',#218,5.);
#218 = AXIS2_PLACEMENT_3D('',#219,#220,#221);
#219 = CARTESIAN_POINT('',(0.,0.,0.));
#220 = DIRECTION('',(0.,0.,-1.));
#221 = DIRECTION('',(3.3E-16,-1.,0.));
#222 = DEFINITIONAL_REPRESENTATION('',(#223),#227);
#223 = LINE('',#224,#225);
#224 = CARTESIAN_POINT('',(0.,3.267949192431));
#225 = VECTOR('',#226,1.);
#226 = DIRECTION('',(1.,0.));
#227 = ( GEOMETRIC_REPRESENTATION_CONTEXT(2) 
PARAMETRIC_REPRESENTATION_CONTEXT() REPRESENTATION_CONTEXT('2D SPACE',''
  ) );
#228 = ORIENTED_EDGE('',*,*,#229,.F.);
#229 = EDGE_CURVE('',#24,#201,#230,.T.);
#230 = SURFACE_CURVE('',#231,(#240,#269),.PCURVE_S1.);
#231 = B_SPLINE_CURVE_WITH_KNOTS('',3,(#232,#233,#234,#235,#236,#237,
    #238,#239),.UNSPECIFIED.,.F.,.F.,(4,2,2,4),(2.42528578606,
    2.525715596104,2.631735409978,2.737755223852),.UNSPECIFIED.);
#232 = CARTESIAN_POINT('',(-3.316624790355,5.,-3.));
#233 = CARTESIAN_POINT('',(-2.981858756876,5.,-3.));
#234 = CARTESIAN_POINT('',(-2.58138252753,5.,-3.03157748655));
#235 = CARTESIAN_POINT('',(-1.897335737084,5.,-3.10675477176));
#236 = CARTESIAN_POINT('',(-1.512251118814,5.,-3.160174555875));
#237 = CARTESIAN_POINT('',(-0.740482389795,5.,-3.242659755923));
#238 = CARTESIAN_POINT('',(-0.35339937958,5.,-3.267949192431));
#239 = CARTESIAN_POINT('',(-2.8E-16,5.,-3.267949192431));
#240 = PCURVE('',#33,#241);
#241 = DEFINITIONAL_REPRESENTATION('',(#242),#268);
#242 = B_SPLINE_CURVE_WITH_KNOTS('',3,(#243,#244,#245,#246,#247,#248,
    #249,#250,#251,#252,#253,#254,#255,#256,#257,#258,#259,#260,#261,
    #262,#263,#264,#265,#266,#267),.UNSPECIFIED.,.F.,.F.,(4,1,1,1,1,1,1,
    1,1,1,1,1,1,1,1,1,1,1,1,1,1,1,4),(2.42528578606,2.439488942323,
    2.453692098587,2.46789525485,2.482098411113,2.496301567376,
    2.51050472364,2.524707879903,2.538911036166,2.55311419243,
    2.567317348693,2.581520504956,2.595723661219,2.609926817483,
    2.624129973746,2.638333130009,2.652536286272,2.666739442536,
    2.680942598799,2.695145755062,2.709348911325,2.723552067589,
    2.737755223852),.QUASI_UNIFORM_KNOTS.);
#243 = CARTESIAN_POINT('',(7.268296090517,4.712388980385));
#244 = CARTESIAN_POINT('',(7.274868791292,4.699301030681));
#245 = CARTESIAN_POINT('',(7.288561929939,4.672797819664));
#246 = CARTESIAN_POINT('',(7.310469751313,4.632782886845));
#247 = CARTESIAN_POINT('',(7.333483106844,4.593250906715));
#248 = CARTESIAN_POINT('',(7.357295602058,4.554870571668));
#249 = CARTESIAN_POINT('',(7.381542221924,4.518266832651));
#250 = CARTESIAN_POINT('',(7.405902612074,4.483861846772));
#251 = CARTESIAN_POINT('',(7.429702908915,4.452384358234));
#252 = CARTESIAN_POINT('',(7.453418383274,4.422943565944));
#253 = CARTESIAN_POINT('',(7.478495788671,4.393889524423));
#254 = CARTESIAN_POINT('',(7.504474467164,4.365995095247));
#255 = CARTESIAN_POINT('',(7.531382640262,4.339385004582));
#256 = CARTESIAN_POINT('',(7.559102633292,4.314343233941));
#257 = CARTESIAN_POINT('',(7.587540720815,4.291090909332));
#258 = CARTESIAN_POINT('',(7.61658221339,4.269845106748));
#259 = CARTESIAN_POINT('',(7.646103286891,4.250788152638));
#260 = CARTESIAN_POINT('',(7.675977887279,4.234169138875));
#261 = CARTESIAN_POINT('',(7.706058292434,4.220069036723));
#262 = CARTESIAN_POINT('',(7.736191843911,4.208549735101));
#263 = CARTESIAN_POINT('',(7.766221298005,4.199638052929));
#264 = CARTESIAN_POINT('',(7.795987907453,4.193331425476));
#265 = CARTESIAN_POINT('',(7.825333141527,4.189601333703));
#266 = CARTESIAN_POINT('',(7.844513260987,4.188787891736));
#267 = CARTESIAN_POINT('',(7.853981633974,4.188790204786));
#268 = ( GEOMETRIC_REPRESENTATION_CONTEXT(2) 
PARAMETRIC_REPRESENTATION_CONTEXT() REPRESENTATION_CONTEXT('2D SPACE',''
  ) );
#269 = PCURVE('',#270,#275);
#270 = PLANE('',#271);
#271 = AXIS2_PLACEMENT_3D('',#272,#273,#274);
#272 = CARTESIAN_POINT('',(-15.,5.,0.));
#273 = DIRECTION('',(-4.E-17,1.,0.));
#274 = DIRECTION('',(1.,4.E-17,0.));
#275 = DEFINITIONAL_REPRESENTATION('',(#276),#285);
#276 = B_SPLINE_CURVE_WITH_KNOTS('',3,(#277,#278,#279,#280,#281,#282,
    #283,#284),.UNSPECIFIED.,.F.,.F.,(4,2,2,4),(2.42528578606,
    2.525715596104,2.631735409978,2.737755223852),.UNSPECIFIED.);
#277 = CARTESIAN_POINT('',(11.683375209645,3.));
#278 = CARTESIAN_POINT('',(12.018141243124,3.));
#279 = CARTESIAN_POINT('',(12.41861747247,3.03157748655));
#280 = CARTESIAN_POINT('',(13.102664262916,3.10675477176));
#281 = CARTESIAN_POINT('',(13.487748881186,3.160174555875));
#282 = CARTESIAN_POINT('',(14.259517610205,3.242659755923));
#283 = CARTESIAN_POINT('',(14.64660062042,3.267949192431));
#284 = CARTESIAN_POINT('',(15.,3.267949192431));
#285 = ( GEOMETRIC_REPRESENTATION_CONTEXT(2) 
PARAMETRIC_REPRESENTATION_CONTEXT() REPRESENTATION_CONTEXT('2D SPACE',''
  ) );
#286 = ADVANCED_FACE('',(#287),#105,.T.);
#287 = FACE_BOUND('',#288,.T.);
#288 = EDGE_LOOP('',(#289,#322,#342,#343,#344));
#289 = ORIENTED_EDGE('',*,*,#290,.F.);
#290 = EDGE_CURVE('',#291,#291,#293,.T.);
#291 = VERTEX_POINT('',#292);
#292 = CARTESIAN_POINT('',(4.,0.,-19.));
#293 = SURFACE_CURVE('',#294,(#299,#306),.PCURVE_S1.);
#294 = CIRCLE('',#295,4.);
#295 = AXIS2_PLACEMENT_3D('',#296,#297,#298);
#296 = CARTESIAN_POINT('',(0.,0.,-19.));
#297 = DIRECTION('',(0.,0.,-1.));
#298 = DIRECTION('',(-1.,0.,0.));
#299 = PCURVE('',#105,#300);
#300 = DEFINITIONAL_REPRESENTATION('',(#301),#305);
#301 = LINE('',#302,#303);
#302 = CARTESIAN_POINT('',(12.566370614359,-19.));
#303 = VECTOR('',#304,1.);
#304 = DIRECTION('',(-1.,0.));
#305 = ( GEOMETRIC_REPRESENTATION_CONTEXT(2) 
PARAMETRIC_REPRESENTATION_CONTEXT() REPRESENTATION_CONTEXT('2D SPACE',''
  ) );
#306 = PCURVE('',#307,#312);
#307 = PLANE('',#308);
#308 = AXIS2_PLACEMENT_3D('',#309,#310,#311);
#309 = CARTESIAN_POINT('',(-2.7E-16,0.,-19.));
#310 = DIRECTION('',(0.,0.,1.));
#311 = DIRECTION('',(1.,0.,-0.));
#312 = DEFINITIONAL_REPRESENTATION('',(#313),#321);
#313 = ( BOUNDED_CURVE() B_SPLINE_CURVE(2,(#314,#315,#316,#317,#318,#319
,#320),.UNSPECIFIED.,.T.,.F.) B_SPLINE_CURVE_WITH_KNOTS((1,2,2,2,2,1),(
    -2.094395102393,0.,2.094395102393,4.188790204786,6.28318530718,
8.377580409573),.UNSPECIFIED.) CURVE() GEOMETRIC_REPRESENTATION_ITEM() 
RATIONAL_B_SPLINE_CURVE((1.,0.5,1.,0.5,1.,0.5,1.)) REPRESENTATION_ITEM(
  '') );
#314 = CARTESIAN_POINT('',(-4.,0.));
#315 = CARTESIAN_POINT('',(-4.,6.928203230276));
#316 = CARTESIAN_POINT('',(2.,3.464101615138));
#317 = CARTESIAN_POINT('',(8.,9.797174393179E-16));
#318 = CARTESIAN_POINT('',(2.,-3.464101615138));
#319 = CARTESIAN_POINT('',(-4.,-6.928203230276));
#320 = CARTESIAN_POINT('',(-4.,0.));
#321 = ( GEOMETRIC_REPRESENTATION_CONTEXT(2) 
PARAMETRIC_REPRESENTATION_CONTEXT() REPRESENTATION_CONTEXT('2D SPACE',''
  ) );
#322 = ORIENTED_EDGE('',*,*,#323,.T.);
#323 = EDGE_CURVE('',#291,#89,#324,.T.);
#324 = SEAM_CURVE('',#325,(#328,#335),.PCURVE_S1.);
#325 = B_SPLINE_CURVE_WITH_KNOTS('',1,(#326,#327),.UNSPECIFIED.,.F.,.F.,
  (2,2),(-19.,-5.),.PIECEWISE_BEZIER_KNOTS.);
#326 = CARTESIAN_POINT('',(4.,-4.9E-16,-19.));
#327 = CARTESIAN_POINT('',(4.,-4.9E-16,-5.));
#328 = PCURVE('',#105,#329);
#329 = DEFINITIONAL_REPRESENTATION('',(#330),#334);
#330 = LINE('',#331,#332);
#331 = CARTESIAN_POINT('',(9.424777960769,0.));
#332 = VECTOR('',#333,1.);
#333 = DIRECTION('',(0.,1.));
#334 = ( GEOMETRIC_REPRESENTATION_CONTEXT(2) 
PARAMETRIC_REPRESENTATION_CONTEXT() REPRESENTATION_CONTEXT('2D SPACE',''
  ) );
#335 = PCURVE('',#105,#336);
#336 = DEFINITIONAL_REPRESENTATION('',(#337),#341);
#337 = LINE('',#338,#339);
#338 = CARTESIAN_POINT('',(3.14159265359,0.));
#339 = VECTOR('',#340,1.);
#340 = DIRECTION('',(0.,1.));
#341 = ( GEOMETRIC_REPRESENTATION_CONTEXT(2) 
PARAMETRIC_REPRESENTATION_CONTEXT() REPRESENTATION_CONTEXT('2D SPACE',''
  ) );
#342 = ORIENTED_EDGE('',*,*,#117,.F.);
#343 = ORIENTED_EDGE('',*,*,#88,.F.);
#344 = ORIENTED_EDGE('',*,*,#323,.F.);
#345 = ADVANCED_FACE('',(#346),#361,.F.);
#346 = FACE_BOUND('',#347,.F.);
#347 = EDGE_LOOP('',(#348,#384,#439,#463,#490,#517,#518,#542));
#348 = ORIENTED_EDGE('',*,*,#349,.F.);
#349 = EDGE_CURVE('',#350,#352,#354,.T.);
#350 = VERTEX_POINT('',#351);
#351 = CARTESIAN_POINT('',(-3.316624790355,5.,0.));
#352 = VERTEX_POINT('',#353);
#353 = CARTESIAN_POINT('',(-3.316624790355,-5.,0.));
#354 = SURFACE_CURVE('',#355,(#360,#372),.PCURVE_S1.);
#355 = CIRCLE('',#356,6.);
#356 = AXIS2_PLACEMENT_3D('',#357,#358,#359);
#357 = CARTESIAN_POINT('',(0.,0.,0.));
#358 = DIRECTION('',(0.,0.,1.));
#359 = DIRECTION('',(-1.,0.,0.));
#360 = PCURVE('',#361,#366);
#361 = TOROIDAL_SURFACE('',#362,6.,2.);
#362 = AXIS2_PLACEMENT_3D('',#363,#364,#365);
#363 = CARTESIAN_POINT('',(0.,0.,2.));
#364 = DIRECTION('',(0.,0.,1.));
#365 = DIRECTION('',(1.,0.,-0.));
#366 = DEFINITIONAL_REPRESENTATION('',(#367),#371);
#367 = LINE('',#368,#369);
#368 = CARTESIAN_POINT('',(-3.14159265359,4.712388980385));
#369 = VECTOR('',#370,1.);
#370 = DIRECTION('',(1.,0.));
#371 = ( GEOMETRIC_REPRESENTATION_CONTEXT(2) 
PARAMETRIC_REPRESENTATION_CONTEXT() REPRESENTATION_CONTEXT('2D SPACE',''
  ) );
#372 = PCURVE('',#373,#378);
#373 = PLANE('',#374);
#374 = AXIS2_PLACEMENT_3D('',#375,#376,#377);
#375 = CARTESIAN_POINT('',(-7.5,-1.56E-15,0.));
#376 = DIRECTION('',(0.,0.,1.));
#377 = DIRECTION('',(1.,0.,-0.));
#378 = DEFINITIONAL_REPRESENTATION('',(#379),#383);
#379 = CIRCLE('',#380,6.);
#380 = AXIS2_PLACEMENT_2D('',#381,#382);
#381 = CARTESIAN_POINT('',(7.5,1.56E-15));
#382 = DIRECTION('',(-1.,0.));
#383 = ( GEOMETRIC_REPRESENTATION_CONTEXT(2) 
PARAMETRIC_REPRESENTATION_CONTEXT() REPRESENTATION_CONTEXT('2D SPACE',''
  ) );
#384 = ORIENTED_EDGE('',*,*,#385,.F.);
#385 = EDGE_CURVE('',#386,#350,#388,.T.);
#386 = VERTEX_POINT('',#387);
#387 = CARTESIAN_POINT('',(0.,5.,0.267949192431));
#388 = SURFACE_CURVE('',#389,(#398,#427),.PCURVE_S1.);
#389 = B_SPLINE_CURVE_WITH_KNOTS('',3,(#390,#391,#392,#393,#394,#395,
    #396,#397),.UNSPECIFIED.,.F.,.F.,(4,2,2,4),(0.,0.106019813874,
    0.212039627748,0.312469437792),.UNSPECIFIED.);
#390 = CARTESIAN_POINT('',(-1.4E-16,5.,0.267949192431));
#391 = CARTESIAN_POINT('',(-0.35339937958,5.,0.267949192431));
#392 = CARTESIAN_POINT('',(-0.740482389795,5.,0.242659755923));
#393 = CARTESIAN_POINT('',(-1.512251118814,5.,0.160174555875));
#394 = CARTESIAN_POINT('',(-1.897335737084,5.,0.10675477176));
#395 = CARTESIAN_POINT('',(-2.58138252753,5.,3.157748655048E-02));
#396 = CARTESIAN_POINT('',(-2.981858756876,5.,0.));
#397 = CARTESIAN_POINT('',(-3.316624790355,5.,0.));
#398 = PCURVE('',#361,#399);
#399 = DEFINITIONAL_REPRESENTATION('',(#400),#426);
#400 = B_SPLINE_CURVE_WITH_KNOTS('',3,(#401,#402,#403,#404,#405,#406,
    #407,#408,#409,#410,#411,#412,#413,#414,#415,#416,#417,#418,#419,
    #420,#421,#422,#423,#424,#425),.UNSPECIFIED.,.F.,.F.,(4,1,1,1,1,1,1,
    1,1,1,1,1,1,1,1,1,1,1,1,1,1,1,4),(0.,1.420315626327E-02,
    2.840631252653E-02,4.26094687898E-02,5.681262505307E-02,
    7.101578131634E-02,8.521893757961E-02,9.942209384287E-02,
    0.113625250106,0.127828406369,0.142031562633,0.156234718896,
    0.170437875159,0.184641031422,0.198844187686,0.213047343949,
    0.227250500212,0.241453656476,0.255656812739,0.269859969002,
    0.284063125265,0.298266281529,0.312469437792),.UNSPECIFIED.);
#401 = CARTESIAN_POINT('',(1.570796326795,4.188790204786));
#402 = CARTESIAN_POINT('',(1.580264699782,4.188787891736));
#403 = CARTESIAN_POINT('',(1.599444819242,4.189601333703));
#404 = CARTESIAN_POINT('',(1.628790053316,4.193331425476));
#405 = CARTESIAN_POINT('',(1.658556662765,4.199638052929));
#406 = CARTESIAN_POINT('',(1.688586116858,4.208549735101));
#407 = CARTESIAN_POINT('',(1.718719668335,4.220069036723));
#408 = CARTESIAN_POINT('',(1.74880007349,4.234169138875));
#409 = CARTESIAN_POINT('',(1.778674673879,4.250788152638));
#410 = CARTESIAN_POINT('',(1.80819574738,4.269845106748));
#411 = CARTESIAN_POINT('',(1.837237239955,4.291090909332));
#412 = CARTESIAN_POINT('',(1.865675327477,4.314343233941));
#413 = CARTESIAN_POINT('',(1.893395320507,4.339385004582));
#414 = CARTESIAN_POINT('',(1.920303493605,4.365995095247));
#415 = CARTESIAN_POINT('',(1.946282172098,4.393889524423));
#416 = CARTESIAN_POINT('',(1.971359577496,4.422943565944));
#417 = CARTESIAN_POINT('',(1.995075051854,4.452384358234));
#418 = CARTESIAN_POINT('',(2.018875348695,4.483861846772));
#419 = CARTESIAN_POINT('',(2.043235738845,4.518266832651));
#420 = CARTESIAN_POINT('',(2.067482358711,4.554870571668));
#421 = CARTESIAN_POINT('',(2.091294853925,4.593250906715));
#422 = CARTESIAN_POINT('',(2.114308209456,4.632782886845));
#423 = CARTESIAN_POINT('',(2.136216030831,4.672797819664));
#424 = CARTESIAN_POINT('',(2.149909169477,4.699301030681));
#425 = CARTESIAN_POINT('',(2.156481870252,4.712388980385));
#426 = ( GEOMETRIC_REPRESENTATION_CONTEXT(2) 
PARAMETRIC_REPRESENTATION_CONTEXT() REPRESENTATION_CONTEXT('2D SPACE',''
  ) );
#427 = PCURVE('',#270,#428);
#428 = DEFINITIONAL_REPRESENTATION('',(#429),#438);
#429 = B_SPLINE_CURVE_WITH_KNOTS('',3,(#430,#431,#432,#433,#434,#435,
    #436,#437),.UNSPECIFIED.,.F.,.F.,(4,2,2,4),(0.,0.106019813874,
    0.212039627748,0.312469437792),.UNSPECIFIED.);
#430 = CARTESIAN_POINT('',(15.,-0.267949192431));
#431 = CARTESIAN_POINT('',(14.64660062042,-0.267949192431));
#432 = CARTESIAN_POINT('',(14.259517610205,-0.242659755923));
#433 = CARTESIAN_POINT('',(13.487748881186,-0.160174555875));
#434 = CARTESIAN_POINT('',(13.102664262916,-0.10675477176));
#435 = CARTESIAN_POINT('',(12.41861747247,-3.157748655048E-02));
#436 = CARTESIAN_POINT('',(12.018141243124,0.));
#437 = CARTESIAN_POINT('',(11.683375209645,0.));
#438 = ( GEOMETRIC_REPRESENTATION_CONTEXT(2) 
PARAMETRIC_REPRESENTATION_CONTEXT() REPRESENTATION_CONTEXT('2D SPACE',''
  ) );
#439 = ORIENTED_EDGE('',*,*,#440,.F.);
#440 = EDGE_CURVE('',#441,#386,#443,.T.);
#441 = VERTEX_POINT('',#442);
#442 = CARTESIAN_POINT('',(5.,0.,0.267949192431));
#443 = SURFACE_CURVE('',#444,(#449,#456),.PCURVE_S1.);
#444 = CIRCLE('',#445,5.);
#445 = AXIS2_PLACEMENT_3D('',#446,#447,#448);
#446 = CARTESIAN_POINT('',(0.,0.,0.267949192431));
#447 = DIRECTION('',(0.,0.,1.));
#448 = DIRECTION('',(3.3E-16,-1.,0.));
#449 = PCURVE('',#361,#450);
#450 = DEFINITIONAL_REPRESENTATION('',(#451),#455);
#451 = LINE('',#452,#453);
#452 = CARTESIAN_POINT('',(-1.570796326795,4.188790204786));
#453 = VECTOR('',#454,1.);
#454 = DIRECTION('',(1.,0.));
#455 = ( GEOMETRIC_REPRESENTATION_CONTEXT(2) 
PARAMETRIC_REPRESENTATION_CONTEXT() REPRESENTATION_CONTEXT('2D SPACE',''
  ) );
#456 = PCURVE('',#217,#457);
#457 = DEFINITIONAL_REPRESENTATION('',(#458),#462);
#458 = LINE('',#459,#460);
#459 = CARTESIAN_POINT('',(6.28318530718,-0.267949192431));
#460 = VECTOR('',#461,1.);
#461 = DIRECTION('',(-1.,0.));
#462 = ( GEOMETRIC_REPRESENTATION_CONTEXT(2) 
PARAMETRIC_REPRESENTATION_CONTEXT() REPRESENTATION_CONTEXT('2D SPACE',''
  ) );
#463 = ORIENTED_EDGE('',*,*,#464,.F.);
#464 = EDGE_CURVE('',#465,#441,#467,.T.);
#465 = VERTEX_POINT('',#466);
#466 = CARTESIAN_POINT('',(4.,-0.,2.));
#467 = SEAM_CURVE('',#468,(#476,#483),.PCURVE_S1.);
#468 = ( BOUNDED_CURVE() B_SPLINE_CURVE(6,(#469,#470,#471,#472,#473,#474
,#475),.UNSPECIFIED.,.F.,.F.) B_SPLINE_CURVE_WITH_KNOTS((7,7),(
3.14159265359,4.188790204786),.PIECEWISE_BEZIER_KNOTS.) CURVE() 
GEOMETRIC_REPRESENTATION_ITEM() RATIONAL_B_SPLINE_CURVE((1.013815801033,
    1.004520331021,0.999080478963,0.997285502839,0.999080478963,
1.004520331021,1.013815801033)) REPRESENTATION_ITEM('') );
#469 = CARTESIAN_POINT('',(4.,-9.8E-16,2.));
#470 = CARTESIAN_POINT('',(4.,-9.8E-16,1.647704162655));
#471 = CARTESIAN_POINT('',(4.074186384623,-1.E-15,1.299365812084));
#472 = CARTESIAN_POINT('',(4.219893816888,-1.03E-15,0.972255215994));
#473 = CARTESIAN_POINT('',(4.430326186817,-1.09E-15,0.682513580087));
#474 = CARTESIAN_POINT('',(4.694902855212,-1.15E-15,0.444097111103));
#475 = CARTESIAN_POINT('',(5.,-1.22E-15,0.267949192431));
#476 = PCURVE('',#361,#477);
#477 = DEFINITIONAL_REPRESENTATION('',(#478),#482);
#478 = LINE('',#479,#480);
#479 = CARTESIAN_POINT('',(0.,0.));
#480 = VECTOR('',#481,1.);
#481 = DIRECTION('',(0.,1.));
#482 = ( GEOMETRIC_REPRESENTATION_CONTEXT(2) 
PARAMETRIC_REPRESENTATION_CONTEXT() REPRESENTATION_CONTEXT('2D SPACE',''
  ) );
#483 = PCURVE('',#361,#484);
#484 = DEFINITIONAL_REPRESENTATION('',(#485),#489);
#485 = LINE('',#486,#487);
#486 = CARTESIAN_POINT('',(6.28318530718,0.));
#487 = VECTOR('',#488,1.);
#488 = DIRECTION('',(0.,1.));
#489 = ( GEOMETRIC_REPRESENTATION_CONTEXT(2) 
PARAMETRIC_REPRESENTATION_CONTEXT() REPRESENTATION_CONTEXT('2D SPACE',''
  ) );
#490 = ORIENTED_EDGE('',*,*,#491,.F.);
#491 = EDGE_CURVE('',#465,#465,#492,.T.);
#492 = SURFACE_CURVE('',#493,(#498,#505),.PCURVE_S1.);
#493 = CIRCLE('',#494,4.);
#494 = AXIS2_PLACEMENT_3D('',#495,#496,#497);
#495 = CARTESIAN_POINT('',(0.,0.,2.));
#496 = DIRECTION('',(0.,0.,-1.));
#497 = DIRECTION('',(-1.,0.,0.));
#498 = PCURVE('',#361,#499);
#499 = DEFINITIONAL_REPRESENTATION('',(#500),#504);
#500 = LINE('',#501,#502);
#501 = CARTESIAN_POINT('',(9.424777960769,3.14159265359));
#502 = VECTOR('',#503,1.);
#503 = DIRECTION('',(-1.,0.));
#504 = ( GEOMETRIC_REPRESENTATION_CONTEXT(2) 
PARAMETRIC_REPRESENTATION_CONTEXT() REPRESENTATION_CONTEXT('2D SPACE',''
  ) );
#505 = PCURVE('',#506,#511);
#506 = CYLINDRICAL_SURFACE('',#507,4.);
#507 = AXIS2_PLACEMENT_3D('',#508,#509,#510);
#508 = CARTESIAN_POINT('',(0.,0.,0.));
#509 = DIRECTION('',(0.,0.,1.));
#510 = DIRECTION('',(-1.,0.,0.));
#511 = DEFINITIONAL_REPRESENTATION('',(#512),#516);
#512 = LINE('',#513,#514);
#513 = CARTESIAN_POINT('',(12.566370614359,2.));
#514 = VECTOR('',#515,1.);
#515 = DIRECTION('',(-1.,0.));
#516 = ( GEOMETRIC_REPRESENTATION_CONTEXT(2) 
PARAMETRIC_REPRESENTATION_CONTEXT() REPRESENTATION_CONTEXT('2D SPACE',''
  ) );
#517 = ORIENTED_EDGE('',*,*,#464,.T.);
#518 = ORIENTED_EDGE('',*,*,#519,.F.);
#519 = EDGE_CURVE('',#520,#441,#522,.T.);
#520 = VERTEX_POINT('',#521);
#521 = CARTESIAN_POINT('',(2.E-15,-5.,0.267949192431));
#522 = SURFACE_CURVE('',#523,(#528,#535),.PCURVE_S1.);
#523 = CIRCLE('',#524,5.);
#524 = AXIS2_PLACEMENT_3D('',#525,#526,#527);
#525 = CARTESIAN_POINT('',(0.,0.,0.267949192431));
#526 = DIRECTION('',(0.,0.,1.));
#527 = DIRECTION('',(3.3E-16,-1.,0.));
#528 = PCURVE('',#361,#529);
#529 = DEFINITIONAL_REPRESENTATION('',(#530),#534);
#530 = LINE('',#531,#532);
#531 = CARTESIAN_POINT('',(4.712388980385,4.188790204786));
#532 = VECTOR('',#533,1.);
#533 = DIRECTION('',(1.,0.));
#534 = ( GEOMETRIC_REPRESENTATION_CONTEXT(2) 
PARAMETRIC_REPRESENTATION_CONTEXT() REPRESENTATION_CONTEXT('2D SPACE',''
  ) );
#535 = PCURVE('',#217,#536);
#536 = DEFINITIONAL_REPRESENTATION('',(#537),#541);
#537 = LINE('',#538,#539);
#538 = CARTESIAN_POINT('',(6.28318530718,-0.267949192431));
#539 = VECTOR('',#540,1.);
#540 = DIRECTION('',(-1.,0.));
#541 = ( GEOMETRIC_REPRESENTATION_CONTEXT(2) 
PARAMETRIC_REPRESENTATION_CONTEXT() REPRESENTATION_CONTEXT('2D SPACE',''
  ) );
#542 = ORIENTED_EDGE('',*,*,#543,.F.);
#543 = EDGE_CURVE('',#352,#520,#544,.T.);
#544 = SURFACE_CURVE('',#545,(#554,#583),.PCURVE_S1.);
#545 = B_SPLINE_CURVE_WITH_KNOTS('',3,(#546,#547,#548,#549,#550,#551,
    #552,#553),.UNSPECIFIED.,.F.,.F.,(4,2,2,4),(2.42528578606,
    2.525715596104,2.631735409978,2.737755223852),.UNSPECIFIED.);
#546 = CARTESIAN_POINT('',(-3.316624790355,-5.,-0.));
#547 = CARTESIAN_POINT('',(-2.981858756876,-5.,-2.E-17));
#548 = CARTESIAN_POINT('',(-2.58138252753,-5.,3.157748655048E-02));
#549 = CARTESIAN_POINT('',(-1.897335737084,-5.,0.10675477176));
#550 = CARTESIAN_POINT('',(-1.512251118814,-5.,0.160174555875));
#551 = CARTESIAN_POINT('',(-0.740482389795,-5.,0.242659755923));
#552 = CARTESIAN_POINT('',(-0.35339937958,-5.,0.267949192431));
#553 = CARTESIAN_POINT('',(2.01E-15,-5.,0.267949192431));
#554 = PCURVE('',#361,#555);
#555 = DEFINITIONAL_REPRESENTATION('',(#556),#582);
#556 = B_SPLINE_CURVE_WITH_KNOTS('',3,(#557,#558,#559,#560,#561,#562,
    #563,#564,#565,#566,#567,#568,#569,#570,#571,#572,#573,#574,#575,
    #576,#577,#578,#579,#580,#581),.UNSPECIFIED.,.F.,.F.,(4,1,1,1,1,1,1,
    1,1,1,1,1,1,1,1,1,1,1,1,1,1,1,4),(2.42528578606,2.439488942323,
    2.453692098587,2.46789525485,2.482098411113,2.496301567376,
    2.51050472364,2.524707879903,2.538911036166,2.55311419243,
    2.567317348693,2.581520504956,2.595723661219,2.609926817483,
    2.624129973746,2.638333130009,2.652536286272,2.666739442536,
    2.680942598799,2.695145755062,2.709348911325,2.723552067589,
    2.737755223852),.QUASI_UNIFORM_KNOTS.);
#557 = CARTESIAN_POINT('',(4.126703436928,4.712388980385));
#558 = CARTESIAN_POINT('',(4.133276137702,4.699301030681));
#559 = CARTESIAN_POINT('',(4.146969276349,4.672797819664));
#560 = CARTESIAN_POINT('',(4.168877097724,4.632782886845));
#561 = CARTESIAN_POINT('',(4.191890453255,4.593250906715));
#562 = CARTESIAN_POINT('',(4.215702948468,4.554870571668));
#563 = CARTESIAN_POINT('',(4.239949568334,4.518266832651));
#564 = CARTESIAN_POINT('',(4.264309958484,4.483861846772));
#565 = CARTESIAN_POINT('',(4.288110255325,4.452384358234));
#566 = CARTESIAN_POINT('',(4.311825729684,4.422943565944));
#567 = CARTESIAN_POINT('',(4.336903135081,4.393889524423));
#568 = CARTESIAN_POINT('',(4.362881813575,4.365995095247));
#569 = CARTESIAN_POINT('',(4.389789986672,4.339385004582));
#570 = CARTESIAN_POINT('',(4.417509979703,4.314343233941));
#571 = CARTESIAN_POINT('',(4.445948067225,4.291090909332));
#572 = CARTESIAN_POINT('',(4.4749895598,4.269845106748));
#573 = CARTESIAN_POINT('',(4.504510633301,4.250788152638));
#574 = CARTESIAN_POINT('',(4.534385233689,4.234169138875));
#575 = CARTESIAN_POINT('',(4.564465638844,4.220069036723));
#576 = CARTESIAN_POINT('',(4.594599190321,4.208549735101));
#577 = CARTESIAN_POINT('',(4.624628644415,4.199638052929));
#578 = CARTESIAN_POINT('',(4.654395253863,4.193331425476));
#579 = CARTESIAN_POINT('',(4.683740487937,4.189601333703));
#580 = CARTESIAN_POINT('',(4.702920607397,4.188787891736));
#581 = CARTESIAN_POINT('',(4.712388980385,4.188790204786));
#582 = ( GEOMETRIC_REPRESENTATION_CONTEXT(2) 
PARAMETRIC_REPRESENTATION_CONTEXT() REPRESENTATION_CONTEXT('2D SPACE',''
  ) );
#583 = PCURVE('',#183,#584);
#584 = DEFINITIONAL_REPRESENTATION('',(#585),#594);
#585 = B_SPLINE_CURVE_WITH_KNOTS('',3,(#586,#587,#588,#589,#590,#591,
    #592,#593),.UNSPECIFIED.,.F.,.F.,(4,2,2,4),(2.42528578606,
    2.525715596104,2.631735409978,2.737755223852),.UNSPECIFIED.);
#586 = CARTESIAN_POINT('',(3.316624790355,0.));
#587 = CARTESIAN_POINT('',(2.981858756876,2.E-17));
#588 = CARTESIAN_POINT('',(2.58138252753,-3.157748655048E-02));
#589 = CARTESIAN_POINT('',(1.897335737084,-0.10675477176));
#590 = CARTESIAN_POINT('',(1.512251118814,-0.160174555875));
#591 = CARTESIAN_POINT('',(0.740482389795,-0.242659755923));
#592 = CARTESIAN_POINT('',(0.35339937958,-0.267949192431));
#593 = CARTESIAN_POINT('',(2.1E-16,-0.267949192431));
#594 = ( GEOMETRIC_REPRESENTATION_CONTEXT(2) 
PARAMETRIC_REPRESENTATION_CONTEXT() REPRESENTATION_CONTEXT('2D SPACE',''
  ) );
#595 = ADVANCED_FACE('',(#596),#506,.T.);
#596 = FACE_BOUND('',#597,.T.);
#597 = EDGE_LOOP('',(#598,#627,#647,#648));
#598 = ORIENTED_EDGE('',*,*,#599,.F.);
#599 = EDGE_CURVE('',#600,#600,#602,.T.);
#600 = VERTEX_POINT('',#601);
#601 = CARTESIAN_POINT('',(4.,0.,19.));
#602 = SURFACE_CURVE('',#603,(#608,#615),.PCURVE_S1.);
#603 = CIRCLE('',#604,4.);
#604 = AXIS2_PLACEMENT_3D('',#605,#606,#607);
#605 = CARTESIAN_POINT('',(0.,0.,19.));
#606 = DIRECTION('',(0.,0.,1.));
#607 = DIRECTION('',(-1.,0.,0.));
#608 = PCURVE('',#506,#609);
#609 = DEFINITIONAL_REPRESENTATION('',(#610),#614);
#610 = LINE('',#611,#612);
#611 = CARTESIAN_POINT('',(0.,19.));
#612 = VECTOR('',#613,1.);
#613 = DIRECTION('',(1.,0.));
#614 = ( GEOMETRIC_REPRESENTATION_CONTEXT(2) 
PARAMETRIC_REPRESENTATION_CONTEXT() REPRESENTATION_CONTEXT('2D SPACE',''
  ) );
#615 = PCURVE('',#616,#621);
#616 = PLANE('',#617);
#617 = AXIS2_PLACEMENT_3D('',#618,#619,#620);
#618 = CARTESIAN_POINT('',(-2.7E-16,0.,19.));
#619 = DIRECTION('',(0.,0.,1.));
#620 = DIRECTION('',(1.,0.,-0.));
#621 = DEFINITIONAL_REPRESENTATION('',(#622),#626);
#622 = CIRCLE('',#623,4.);
#623 = AXIS2_PLACEMENT_2D('',#624,#625);
#624 = CARTESIAN_POINT('',(2.7E-16,0.));
#625 = DIRECTION('',(-1.,0.));
#626 = ( GEOMETRIC_REPRESENTATION_CONTEXT(2) 
PARAMETRIC_REPRESENTATION_CONTEXT() REPRESENTATION_CONTEXT('2D SPACE',''
  ) );
#627 = ORIENTED_EDGE('',*,*,#628,.F.);
#628 = EDGE_CURVE('',#465,#600,#629,.T.);
#629 = SEAM_CURVE('',#630,(#633,#640),.PCURVE_S1.);
#630 = B_SPLINE_CURVE_WITH_KNOTS('',1,(#631,#632),.UNSPECIFIED.,.F.,.F.,
  (2,2),(2.,19.),.PIECEWISE_BEZIER_KNOTS.);
#631 = CARTESIAN_POINT('',(4.,-1.47E-15,2.));
#632 = CARTESIAN_POINT('',(4.,-1.47E-15,19.));
#633 = PCURVE('',#506,#634);
#634 = DEFINITIONAL_REPRESENTATION('',(#635),#639);
#635 = LINE('',#636,#637);
#636 = CARTESIAN_POINT('',(3.14159265359,0.));
#637 = VECTOR('',#638,1.);
#638 = DIRECTION('',(0.,1.));
#639 = ( GEOMETRIC_REPRESENTATION_CONTEXT(2) 
PARAMETRIC_REPRESENTATION_CONTEXT() REPRESENTATION_CONTEXT('2D SPACE',''
  ) );
#640 = PCURVE('',#506,#641);
#641 = DEFINITIONAL_REPRESENTATION('',(#642),#646);
#642 = LINE('',#643,#644);
#643 = CARTESIAN_POINT('',(9.424777960769,0.));
#644 = VECTOR('',#645,1.);
#645 = DIRECTION('',(0.,1.));
#646 = ( GEOMETRIC_REPRESENTATION_CONTEXT(2) 
PARAMETRIC_REPRESENTATION_CONTEXT() REPRESENTATION_CONTEXT('2D SPACE',''
  ) );
#647 = ORIENTED_EDGE('',*,*,#491,.F.);
#648 = ORIENTED_EDGE('',*,*,#628,.T.);
#649 = ADVANCED_FACE('',(#650,#726),#373,.T.);
#650 = FACE_BOUND('',#651,.T.);
#651 = EDGE_LOOP('',(#652,#653,#676,#705));
#652 = ORIENTED_EDGE('',*,*,#349,.F.);
#653 = ORIENTED_EDGE('',*,*,#654,.T.);
#654 = EDGE_CURVE('',#350,#655,#657,.T.);
#655 = VERTEX_POINT('',#656);
#656 = CARTESIAN_POINT('',(-15.,5.,0.));
#657 = SURFACE_CURVE('',#658,(#662,#669),.PCURVE_S1.);
#658 = LINE('',#659,#660);
#659 = CARTESIAN_POINT('',(-2.28E-15,5.,0.));
#660 = VECTOR('',#661,1.);
#661 = DIRECTION('',(-1.,-4.E-17,0.));
#662 = PCURVE('',#373,#663);
#663 = DEFINITIONAL_REPRESENTATION('',(#664),#668);
#664 = LINE('',#665,#666);
#665 = CARTESIAN_POINT('',(7.5,5.));
#666 = VECTOR('',#667,1.);
#667 = DIRECTION('',(-1.,-4.E-17));
#668 = ( GEOMETRIC_REPRESENTATION_CONTEXT(2) 
PARAMETRIC_REPRESENTATION_CONTEXT() REPRESENTATION_CONTEXT('2D SPACE',''
  ) );
#669 = PCURVE('',#270,#670);
#670 = DEFINITIONAL_REPRESENTATION('',(#671),#675);
#671 = LINE('',#672,#673);
#672 = CARTESIAN_POINT('',(15.,0.));
#673 = VECTOR('',#674,1.);
#674 = DIRECTION('',(-1.,-0.));
#675 = ( GEOMETRIC_REPRESENTATION_CONTEXT(2) 
PARAMETRIC_REPRESENTATION_CONTEXT() REPRESENTATION_CONTEXT('2D SPACE',''
  ) );
#676 = ORIENTED_EDGE('',*,*,#677,.T.);
#677 = EDGE_CURVE('',#655,#678,#680,.T.);
#678 = VERTEX_POINT('',#679);
#679 = CARTESIAN_POINT('',(-15.,-5.,0.));
#680 = SURFACE_CURVE('',#681,(#686,#693),.PCURVE_S1.);
#681 = CIRCLE('',#682,5.);
#682 = AXIS2_PLACEMENT_3D('',#683,#684,#685);
#683 = CARTESIAN_POINT('',(-15.,-3.67E-15,0.));
#684 = DIRECTION('',(0.,-0.,1.));
#685 = DIRECTION('',(0.,1.,0.));
#686 = PCURVE('',#373,#687);
#687 = DEFINITIONAL_REPRESENTATION('',(#688),#692);
#688 = CIRCLE('',#689,5.);
#689 = AXIS2_PLACEMENT_2D('',#690,#691);
#690 = CARTESIAN_POINT('',(-7.5,-2.11E-15));
#691 = DIRECTION('',(0.,1.));
#692 = ( GEOMETRIC_REPRESENTATION_CONTEXT(2) 
PARAMETRIC_REPRESENTATION_CONTEXT() REPRESENTATION_CONTEXT('2D SPACE',''
  ) );
#693 = PCURVE('',#694,#699);
#694 = CYLINDRICAL_SURFACE('',#695,5.);
#695 = AXIS2_PLACEMENT_3D('',#696,#697,#698);
#696 = CARTESIAN_POINT('',(-15.,-3.67E-15,0.));
#697 = DIRECTION('',(0.,0.,-1.));
#698 = DIRECTION('',(0.,1.,0.));
#699 = DEFINITIONAL_REPRESENTATION('',(#700),#704);
#700 = LINE('',#701,#702);
#701 = CARTESIAN_POINT('',(6.28318530718,0.));
#702 = VECTOR('',#703,1.);
#703 = DIRECTION('',(-1.,0.));
#704 = ( GEOMETRIC_REPRESENTATION_CONTEXT(2) 
PARAMETRIC_REPRESENTATION_CONTEXT() REPRESENTATION_CONTEXT('2D SPACE',''
  ) );
#705 = ORIENTED_EDGE('',*,*,#706,.T.);
#706 = EDGE_CURVE('',#678,#352,#707,.T.);
#707 = SURFACE_CURVE('',#708,(#712,#719),.PCURVE_S1.);
#708 = LINE('',#709,#710);
#709 = CARTESIAN_POINT('',(-15.,-5.,0.));
#710 = VECTOR('',#711,1.);
#711 = DIRECTION('',(1.,4.1E-16,0.));
#712 = PCURVE('',#373,#713);
#713 = DEFINITIONAL_REPRESENTATION('',(#714),#718);
#714 = LINE('',#715,#716);
#715 = CARTESIAN_POINT('',(-7.5,-5.));
#716 = VECTOR('',#717,1.);
#717 = DIRECTION('',(1.,4.1E-16));
#718 = ( GEOMETRIC_REPRESENTATION_CONTEXT(2) 
PARAMETRIC_REPRESENTATION_CONTEXT() REPRESENTATION_CONTEXT('2D SPACE',''
  ) );
#719 = PCURVE('',#183,#720);
#720 = DEFINITIONAL_REPRESENTATION('',(#721),#725);
#721 = LINE('',#722,#723);
#722 = CARTESIAN_POINT('',(15.,0.));
#723 = VECTOR('',#724,1.);
#724 = DIRECTION('',(-1.,0.));
#725 = ( GEOMETRIC_REPRESENTATION_CONTEXT(2) 
PARAMETRIC_REPRESENTATION_CONTEXT() REPRESENTATION_CONTEXT('2D SPACE',''
  ) );
#726 = FACE_BOUND('',#727,.T.);
#727 = EDGE_LOOP('',(#728));
#728 = ORIENTED_EDGE('',*,*,#729,.T.);
#729 = EDGE_CURVE('',#730,#730,#732,.T.);
#730 = VERTEX_POINT('',#731);
#731 = CARTESIAN_POINT('',(-13.5,-3.E-15,0.));
#732 = SURFACE_CURVE('',#733,(#738,#749),.PCURVE_S1.);
#733 = CIRCLE('',#734,1.5);
#734 = AXIS2_PLACEMENT_3D('',#735,#736,#737);
#735 = CARTESIAN_POINT('',(-15.,-3.67E-15,0.));
#736 = DIRECTION('',(0.,0.,-1.));
#737 = DIRECTION('',(-1.,0.,0.));
#738 = PCURVE('',#373,#739);
#739 = DEFINITIONAL_REPRESENTATION('',(#740),#748);
#740 = ( BOUNDED_CURVE() B_SPLINE_CURVE(2,(#741,#742,#743,#744,#745,#746
,#747),.UNSPECIFIED.,.T.,.F.) B_SPLINE_CURVE_WITH_KNOTS((1,2,2,2,2,1),(
    -2.094395102393,0.,2.094395102393,4.188790204786,6.28318530718,
8.377580409573),.UNSPECIFIED.) CURVE() GEOMETRIC_REPRESENTATION_ITEM() 
RATIONAL_B_SPLINE_CURVE((1.,0.5,1.,0.5,1.,0.5,1.)) REPRESENTATION_ITEM(
  '') );
#741 = CARTESIAN_POINT('',(-9.,-2.11E-15));
#742 = CARTESIAN_POINT('',(-9.,2.598076211353));
#743 = CARTESIAN_POINT('',(-6.75,1.299038105677));
#744 = CARTESIAN_POINT('',(-4.5,-1.742605960256E-15));
#745 = CARTESIAN_POINT('',(-6.75,-1.299038105677));
#746 = CARTESIAN_POINT('',(-9.,-2.598076211353));
#747 = CARTESIAN_POINT('',(-9.,-2.11E-15));
#748 = ( GEOMETRIC_REPRESENTATION_CONTEXT(2) 
PARAMETRIC_REPRESENTATION_CONTEXT() REPRESENTATION_CONTEXT('2D SPACE',''
  ) );
#749 = PCURVE('',#750,#755);
#750 = CYLINDRICAL_SURFACE('',#751,1.5);
#751 = AXIS2_PLACEMENT_3D('',#752,#753,#754);
#752 = CARTESIAN_POINT('',(-15.,-3.67E-15,0.));
#753 = DIRECTION('',(0.,0.,-1.));
#754 = DIRECTION('',(-1.,0.,0.));
#755 = DEFINITIONAL_REPRESENTATION('',(#756),#760);
#756 = LINE('',#757,#758);
#757 = CARTESIAN_POINT('',(0.,0.));
#758 = VECTOR('',#759,1.);
#759 = DIRECTION('',(1.,0.));
#760 = ( GEOMETRIC_REPRESENTATION_CONTEXT(2) 
PARAMETRIC_REPRESENTATION_CONTEXT() REPRESENTATION_CONTEXT('2D SPACE',''
  ) );
#761 = ADVANCED_FACE('',(#762,#837),#45,.F.);
#762 = FACE_BOUND('',#763,.T.);
#763 = EDGE_LOOP('',(#764,#765,#788,#816));
#764 = ORIENTED_EDGE('',*,*,#21,.F.);
#765 = ORIENTED_EDGE('',*,*,#766,.T.);
#766 = EDGE_CURVE('',#22,#767,#769,.T.);
#767 = VERTEX_POINT('',#768);
#768 = CARTESIAN_POINT('',(-15.,-5.,-3.));
#769 = SURFACE_CURVE('',#770,(#774,#781),.PCURVE_S1.);
#770 = LINE('',#771,#772);
#771 = CARTESIAN_POINT('',(-15.,-5.,-3.));
#772 = VECTOR('',#773,1.);
#773 = DIRECTION('',(-1.,-4.1E-16,0.));
#774 = PCURVE('',#45,#775);
#775 = DEFINITIONAL_REPRESENTATION('',(#776),#780);
#776 = LINE('',#777,#778);
#777 = CARTESIAN_POINT('',(-7.5,-5.));
#778 = VECTOR('',#779,1.);
#779 = DIRECTION('',(-1.,-4.1E-16));
#780 = ( GEOMETRIC_REPRESENTATION_CONTEXT(2) 
PARAMETRIC_REPRESENTATION_CONTEXT() REPRESENTATION_CONTEXT('2D SPACE',''
  ) );
#781 = PCURVE('',#183,#782);
#782 = DEFINITIONAL_REPRESENTATION('',(#783),#787);
#783 = LINE('',#784,#785);
#784 = CARTESIAN_POINT('',(15.,3.));
#785 = VECTOR('',#786,1.);
#786 = DIRECTION('',(1.,0.));
#787 = ( GEOMETRIC_REPRESENTATION_CONTEXT(2) 
PARAMETRIC_REPRESENTATION_CONTEXT() REPRESENTATION_CONTEXT('2D SPACE',''
  ) );
#788 = ORIENTED_EDGE('',*,*,#789,.T.);
#789 = EDGE_CURVE('',#767,#790,#792,.T.);
#790 = VERTEX_POINT('',#791);
#791 = CARTESIAN_POINT('',(-15.,5.,-3.));
#792 = SURFACE_CURVE('',#793,(#798,#809),.PCURVE_S1.);
#793 = CIRCLE('',#794,5.);
#794 = AXIS2_PLACEMENT_3D('',#795,#796,#797);
#795 = CARTESIAN_POINT('',(-15.,-3.67E-15,-3.));
#796 = DIRECTION('',(0.,0.,-1.));
#797 = DIRECTION('',(0.,1.,0.));
#798 = PCURVE('',#45,#799);
#799 = DEFINITIONAL_REPRESENTATION('',(#800),#808);
#800 = ( BOUNDED_CURVE() B_SPLINE_CURVE(2,(#801,#802,#803,#804,#805,#806
,#807),.UNSPECIFIED.,.T.,.F.) B_SPLINE_CURVE_WITH_KNOTS((1,2,2,2,2,1),(
    -2.094395102393,0.,2.094395102393,4.188790204786,6.28318530718,
8.377580409573),.UNSPECIFIED.) CURVE() GEOMETRIC_REPRESENTATION_ITEM() 
RATIONAL_B_SPLINE_CURVE((1.,0.5,1.,0.5,1.,0.5,1.)) REPRESENTATION_ITEM(
  '') );
#801 = CARTESIAN_POINT('',(-7.5,5.));
#802 = CARTESIAN_POINT('',(1.160254037844,5.));
#803 = CARTESIAN_POINT('',(-3.169872981078,-2.5));
#804 = CARTESIAN_POINT('',(-7.5,-10.));
#805 = CARTESIAN_POINT('',(-11.83012701892,-2.5));
#806 = CARTESIAN_POINT('',(-16.16025403784,5.));
#807 = CARTESIAN_POINT('',(-7.5,5.));
#808 = ( GEOMETRIC_REPRESENTATION_CONTEXT(2) 
PARAMETRIC_REPRESENTATION_CONTEXT() REPRESENTATION_CONTEXT('2D SPACE',''
  ) );
#809 = PCURVE('',#694,#810);
#810 = DEFINITIONAL_REPRESENTATION('',(#811),#815);
#811 = LINE('',#812,#813);
#812 = CARTESIAN_POINT('',(0.,3.));
#813 = VECTOR('',#814,1.);
#814 = DIRECTION('',(1.,0.));
#815 = ( GEOMETRIC_REPRESENTATION_CONTEXT(2) 
PARAMETRIC_REPRESENTATION_CONTEXT() REPRESENTATION_CONTEXT('2D SPACE',''
  ) );
#816 = ORIENTED_EDGE('',*,*,#817,.T.);
#817 = EDGE_CURVE('',#790,#24,#818,.T.);
#818 = SURFACE_CURVE('',#819,(#823,#830),.PCURVE_S1.);
#819 = LINE('',#820,#821);
#820 = CARTESIAN_POINT('',(-2.28E-15,5.,-3.));
#821 = VECTOR('',#822,1.);
#822 = DIRECTION('',(1.,4.E-17,0.));
#823 = PCURVE('',#45,#824);
#824 = DEFINITIONAL_REPRESENTATION('',(#825),#829);
#825 = LINE('',#826,#827);
#826 = CARTESIAN_POINT('',(7.5,5.));
#827 = VECTOR('',#828,1.);
#828 = DIRECTION('',(1.,4.E-17));
#829 = ( GEOMETRIC_REPRESENTATION_CONTEXT(2) 
PARAMETRIC_REPRESENTATION_CONTEXT() REPRESENTATION_CONTEXT('2D SPACE',''
  ) );
#830 = PCURVE('',#270,#831);
#831 = DEFINITIONAL_REPRESENTATION('',(#832),#836);
#832 = LINE('',#833,#834);
#833 = CARTESIAN_POINT('',(15.,3.));
#834 = VECTOR('',#835,1.);
#835 = DIRECTION('',(1.,0.));
#836 = ( GEOMETRIC_REPRESENTATION_CONTEXT(2) 
PARAMETRIC_REPRESENTATION_CONTEXT() REPRESENTATION_CONTEXT('2D SPACE',''
  ) );
#837 = FACE_BOUND('',#838,.T.);
#838 = EDGE_LOOP('',(#839));
#839 = ORIENTED_EDGE('',*,*,#840,.T.);
#840 = EDGE_CURVE('',#841,#841,#843,.T.);
#841 = VERTEX_POINT('',#842);
#842 = CARTESIAN_POINT('',(-13.5,-3.E-15,-3.));
#843 = SURFACE_CURVE('',#844,(#849,#856),.PCURVE_S1.);
#844 = CIRCLE('',#845,1.5);
#845 = AXIS2_PLACEMENT_3D('',#846,#847,#848);
#846 = CARTESIAN_POINT('',(-15.,-3.67E-15,-3.));
#847 = DIRECTION('',(0.,0.,1.));
#848 = DIRECTION('',(-1.,0.,0.));
#849 = PCURVE('',#45,#850);
#850 = DEFINITIONAL_REPRESENTATION('',(#851),#855);
#851 = CIRCLE('',#852,1.5);
#852 = AXIS2_PLACEMENT_2D('',#853,#854);
#853 = CARTESIAN_POINT('',(-7.5,-2.11E-15));
#854 = DIRECTION('',(-1.,0.));
#855 = ( GEOMETRIC_REPRESENTATION_CONTEXT(2) 
PARAMETRIC_REPRESENTATION_CONTEXT() REPRESENTATION_CONTEXT('2D SPACE',''
  ) );
#856 = PCURVE('',#750,#857);
#857 = DEFINITIONAL_REPRESENTATION('',(#858),#862);
#858 = LINE('',#859,#860);
#859 = CARTESIAN_POINT('',(12.566370614359,3.));
#860 = VECTOR('',#861,1.);
#861 = DIRECTION('',(-1.,0.));
#862 = ( GEOMETRIC_REPRESENTATION_CONTEXT(2) 
PARAMETRIC_REPRESENTATION_CONTEXT() REPRESENTATION_CONTEXT('2D SPACE',''
  ) );
#863 = ADVANCED_FACE('',(#864),#750,.F.);
#864 = FACE_BOUND('',#865,.F.);
#865 = EDGE_LOOP('',(#866,#867,#887,#888));
#866 = ORIENTED_EDGE('',*,*,#840,.T.);
#867 = ORIENTED_EDGE('',*,*,#868,.F.);
#868 = EDGE_CURVE('',#730,#841,#869,.T.);
#869 = SEAM_CURVE('',#870,(#873,#880),.PCURVE_S1.);
#870 = B_SPLINE_CURVE_WITH_KNOTS('',1,(#871,#872),.UNSPECIFIED.,.F.,.F.,
  (2,2),(0.,3.),.PIECEWISE_BEZIER_KNOTS.);
#871 = CARTESIAN_POINT('',(-13.5,-3.12E-15,0.));
#872 = CARTESIAN_POINT('',(-13.5,-3.12E-15,-3.));
#873 = PCURVE('',#750,#874);
#874 = DEFINITIONAL_REPRESENTATION('',(#875),#879);
#875 = LINE('',#876,#877);
#876 = CARTESIAN_POINT('',(3.14159265359,0.));
#877 = VECTOR('',#878,1.);
#878 = DIRECTION('',(0.,1.));
#879 = ( GEOMETRIC_REPRESENTATION_CONTEXT(2) 
PARAMETRIC_REPRESENTATION_CONTEXT() REPRESENTATION_CONTEXT('2D SPACE',''
  ) );
#880 = PCURVE('',#750,#881);
#881 = DEFINITIONAL_REPRESENTATION('',(#882),#886);
#882 = LINE('',#883,#884);
#883 = CARTESIAN_POINT('',(9.424777960769,0.));
#884 = VECTOR('',#885,1.);
#885 = DIRECTION('',(0.,1.));
#886 = ( GEOMETRIC_REPRESENTATION_CONTEXT(2) 
PARAMETRIC_REPRESENTATION_CONTEXT() REPRESENTATION_CONTEXT('2D SPACE',''
  ) );
#887 = ORIENTED_EDGE('',*,*,#729,.T.);
#888 = ORIENTED_EDGE('',*,*,#868,.T.);
#889 = ADVANCED_FACE('',(#890),#217,.T.);
#890 = FACE_BOUND('',#891,.T.);
#891 = EDGE_LOOP('',(#892,#913,#914,#935,#936));
#892 = ORIENTED_EDGE('',*,*,#893,.T.);
#893 = EDGE_CURVE('',#520,#141,#894,.T.);
#894 = SURFACE_CURVE('',#895,(#899,#906),.PCURVE_S1.);
#895 = LINE('',#896,#897);
#896 = CARTESIAN_POINT('',(2.04E-15,-5.,0.));
#897 = VECTOR('',#898,1.);
#898 = DIRECTION('',(0.,0.,-1.));
#899 = PCURVE('',#217,#900);
#900 = DEFINITIONAL_REPRESENTATION('',(#901),#905);
#901 = LINE('',#902,#903);
#902 = CARTESIAN_POINT('',(6.28318530718,0.));
#903 = VECTOR('',#904,1.);
#904 = DIRECTION('',(0.,1.));
#905 = ( GEOMETRIC_REPRESENTATION_CONTEXT(2) 
PARAMETRIC_REPRESENTATION_CONTEXT() REPRESENTATION_CONTEXT('2D SPACE',''
  ) );
#906 = PCURVE('',#183,#907);
#907 = DEFINITIONAL_REPRESENTATION('',(#908),#912);
#908 = LINE('',#909,#910);
#909 = CARTESIAN_POINT('',(1.8E-16,-0.));
#910 = VECTOR('',#911,1.);
#911 = DIRECTION('',(-0.,1.));
#912 = ( GEOMETRIC_REPRESENTATION_CONTEXT(2) 
PARAMETRIC_REPRESENTATION_CONTEXT() REPRESENTATION_CONTEXT('2D SPACE',''
  ) );
#913 = ORIENTED_EDGE('',*,*,#200,.F.);
#914 = ORIENTED_EDGE('',*,*,#915,.F.);
#915 = EDGE_CURVE('',#386,#201,#916,.T.);
#916 = SURFACE_CURVE('',#917,(#921,#928),.PCURVE_S1.);
#917 = LINE('',#918,#919);
#918 = CARTESIAN_POINT('',(0.,5.,0.));
#919 = VECTOR('',#920,1.);
#920 = DIRECTION('',(0.,0.,-1.));
#921 = PCURVE('',#217,#922);
#922 = DEFINITIONAL_REPRESENTATION('',(#923),#927);
#923 = LINE('',#924,#925);
#924 = CARTESIAN_POINT('',(3.14159265359,0.));
#925 = VECTOR('',#926,1.);
#926 = DIRECTION('',(0.,1.));
#927 = ( GEOMETRIC_REPRESENTATION_CONTEXT(2) 
PARAMETRIC_REPRESENTATION_CONTEXT() REPRESENTATION_CONTEXT('2D SPACE',''
  ) );
#928 = PCURVE('',#270,#929);
#929 = DEFINITIONAL_REPRESENTATION('',(#930),#934);
#930 = LINE('',#931,#932);
#931 = CARTESIAN_POINT('',(15.,0.));
#932 = VECTOR('',#933,1.);
#933 = DIRECTION('',(0.,1.));
#934 = ( GEOMETRIC_REPRESENTATION_CONTEXT(2) 
PARAMETRIC_REPRESENTATION_CONTEXT() REPRESENTATION_CONTEXT('2D SPACE',''
  ) );
#935 = ORIENTED_EDGE('',*,*,#440,.F.);
#936 = ORIENTED_EDGE('',*,*,#519,.F.);
#937 = ADVANCED_FACE('',(#938),#270,.T.);
#938 = FACE_BOUND('',#939,.T.);
#939 = EDGE_LOOP('',(#940,#941,#942,#943,#964,#965));
#940 = ORIENTED_EDGE('',*,*,#915,.T.);
#941 = ORIENTED_EDGE('',*,*,#229,.F.);
#942 = ORIENTED_EDGE('',*,*,#817,.F.);
#943 = ORIENTED_EDGE('',*,*,#944,.F.);
#944 = EDGE_CURVE('',#655,#790,#945,.T.);
#945 = SURFACE_CURVE('',#946,(#950,#957),.PCURVE_S1.);
#946 = LINE('',#947,#948);
#947 = CARTESIAN_POINT('',(-15.,5.,0.));
#948 = VECTOR('',#949,1.);
#949 = DIRECTION('',(0.,0.,-1.));
#950 = PCURVE('',#270,#951);
#951 = DEFINITIONAL_REPRESENTATION('',(#952),#956);
#952 = LINE('',#953,#954);
#953 = CARTESIAN_POINT('',(0.,0.));
#954 = VECTOR('',#955,1.);
#955 = DIRECTION('',(0.,1.));
#956 = ( GEOMETRIC_REPRESENTATION_CONTEXT(2) 
PARAMETRIC_REPRESENTATION_CONTEXT() REPRESENTATION_CONTEXT('2D SPACE',''
  ) );
#957 = PCURVE('',#694,#958);
#958 = DEFINITIONAL_REPRESENTATION('',(#959),#963);
#959 = LINE('',#960,#961);
#960 = CARTESIAN_POINT('',(6.28318530718,0.));
#961 = VECTOR('',#962,1.);
#962 = DIRECTION('',(0.,1.));
#963 = ( GEOMETRIC_REPRESENTATION_CONTEXT(2) 
PARAMETRIC_REPRESENTATION_CONTEXT() REPRESENTATION_CONTEXT('2D SPACE',''
  ) );
#964 = ORIENTED_EDGE('',*,*,#654,.F.);
#965 = ORIENTED_EDGE('',*,*,#385,.F.);
#966 = ADVANCED_FACE('',(#967),#694,.T.);
#967 = FACE_BOUND('',#968,.T.);
#968 = EDGE_LOOP('',(#969,#970,#971,#972));
#969 = ORIENTED_EDGE('',*,*,#677,.F.);
#970 = ORIENTED_EDGE('',*,*,#944,.T.);
#971 = ORIENTED_EDGE('',*,*,#789,.F.);
#972 = ORIENTED_EDGE('',*,*,#973,.F.);
#973 = EDGE_CURVE('',#678,#767,#974,.T.);
#974 = SURFACE_CURVE('',#975,(#979,#986),.PCURVE_S1.);
#975 = LINE('',#976,#977);
#976 = CARTESIAN_POINT('',(-15.,-5.,0.));
#977 = VECTOR('',#978,1.);
#978 = DIRECTION('',(0.,0.,-1.));
#979 = PCURVE('',#694,#980);
#980 = DEFINITIONAL_REPRESENTATION('',(#981),#985);
#981 = LINE('',#982,#983);
#982 = CARTESIAN_POINT('',(3.14159265359,0.));
#983 = VECTOR('',#984,1.);
#984 = DIRECTION('',(0.,1.));
#985 = ( GEOMETRIC_REPRESENTATION_CONTEXT(2) 
PARAMETRIC_REPRESENTATION_CONTEXT() REPRESENTATION_CONTEXT('2D SPACE',''
  ) );
#986 = PCURVE('',#183,#987);
#987 = DEFINITIONAL_REPRESENTATION('',(#988),#992);
#988 = LINE('',#989,#990);
#989 = CARTESIAN_POINT('',(15.,0.));
#990 = VECTOR('',#991,1.);
#991 = DIRECTION('',(-0.,1.));
#992 = ( GEOMETRIC_REPRESENTATION_CONTEXT(2) 
PARAMETRIC_REPRESENTATION_CONTEXT() REPRESENTATION_CONTEXT('2D SPACE',''
  ) );
#993 = ADVANCED_FACE('',(#994),#183,.T.);
#994 = FACE_BOUND('',#995,.T.);
#995 = EDGE_LOOP('',(#996,#997,#998,#999,#1000,#1001));
#996 = ORIENTED_EDGE('',*,*,#706,.F.);
#997 = ORIENTED_EDGE('',*,*,#973,.T.);
#998 = ORIENTED_EDGE('',*,*,#766,.F.);
#999 = ORIENTED_EDGE('',*,*,#140,.F.);
#1000 = ORIENTED_EDGE('',*,*,#893,.F.);
#1001 = ORIENTED_EDGE('',*,*,#543,.F.);
#1002 = ADVANCED_FACE('',(#1003),#1016,.F.);
#1003 = FACE_BOUND('',#1004,.F.);
#1004 = EDGE_LOOP('',(#1005,#1034,#1056,#1082));
#1005 = ORIENTED_EDGE('',*,*,#1006,.T.);
#1006 = EDGE_CURVE('',#1007,#1007,#1009,.T.);
#1007 = VERTEX_POINT('',#1008);
#1008 = CARTESIAN_POINT('',(2.15,0.,-19.));
#1009 = SURFACE_CURVE('',#1010,(#1015,#1027),.PCURVE_S1.);
#1010 = CIRCLE('',#1011,2.15);
#1011 = AXIS2_PLACEMENT_3D('',#1012,#1013,#1014);
#1012 = CARTESIAN_POINT('',(0.,0.,-19.));
#1013 = DIRECTION('',(0.,0.,1.));
#1014 = DIRECTION('',(-1.,0.,0.));
#1015 = PCURVE('',#1016,#1021);
#1016 = CYLINDRICAL_SURFACE('',#1017,2.15);
#1017 = AXIS2_PLACEMENT_3D('',#1018,#1019,#1020);
#1018 = CARTESIAN_POINT('',(0.,0.,0.));
#1019 = DIRECTION('',(0.,0.,1.));
#1020 = DIRECTION('',(-1.,0.,0.));
#1021 = DEFINITIONAL_REPRESENTATION('',(#1022),#1026);
#1022 = LINE('',#1023,#1024);
#1023 = CARTESIAN_POINT('',(0.,-19.));
#1024 = VECTOR('',#1025,1.);
#1025 = DIRECTION('',(1.,0.));
#1026 = ( GEOMETRIC_REPRESENTATION_CONTEXT(2) 
PARAMETRIC_REPRESENTATION_CONTEXT() REPRESENTATION_CONTEXT('2D SPACE',''
  ) );
#1027 = PCURVE('',#307,#1028);
#1028 = DEFINITIONAL_REPRESENTATION('',(#1029),#1033);
#1029 = CIRCLE('',#1030,2.15);
#1030 = AXIS2_PLACEMENT_2D('',#1031,#1032);
#1031 = CARTESIAN_POINT('',(2.7E-16,0.));
#1032 = DIRECTION('',(-1.,0.));
#1033 = ( GEOMETRIC_REPRESENTATION_CONTEXT(2) 
PARAMETRIC_REPRESENTATION_CONTEXT() REPRESENTATION_CONTEXT('2D SPACE',''
  ) );
#1034 = ORIENTED_EDGE('',*,*,#1035,.T.);
#1035 = EDGE_CURVE('',#1007,#1036,#1038,.T.);
#1036 = VERTEX_POINT('',#1037);
#1037 = CARTESIAN_POINT('',(2.15,0.,19.));
#1038 = SEAM_CURVE('',#1039,(#1042,#1049),.PCURVE_S1.);
#1039 = B_SPLINE_CURVE_WITH_KNOTS('',1,(#1040,#1041),.UNSPECIFIED.,.F.,
  .F.,(2,2),(-19.,19.),.PIECEWISE_BEZIER_KNOTS.);
#1040 = CARTESIAN_POINT('',(2.15,-2.6E-16,-19.));
#1041 = CARTESIAN_POINT('',(2.15,-2.6E-16,19.));
#1042 = PCURVE('',#1016,#1043);
#1043 = DEFINITIONAL_REPRESENTATION('',(#1044),#1048);
#1044 = LINE('',#1045,#1046);
#1045 = CARTESIAN_POINT('',(9.424777960769,0.));
#1046 = VECTOR('',#1047,1.);
#1047 = DIRECTION('',(0.,1.));
#1048 = ( GEOMETRIC_REPRESENTATION_CONTEXT(2) 
PARAMETRIC_REPRESENTATION_CONTEXT() REPRESENTATION_CONTEXT('2D SPACE',''
  ) );
#1049 = PCURVE('',#1016,#1050);
#1050 = DEFINITIONAL_REPRESENTATION('',(#1051),#1055);
#1051 = LINE('',#1052,#1053);
#1052 = CARTESIAN_POINT('',(3.14159265359,0.));
#1053 = VECTOR('',#1054,1.);
#1054 = DIRECTION('',(0.,1.));
#1055 = ( GEOMETRIC_REPRESENTATION_CONTEXT(2) 
PARAMETRIC_REPRESENTATION_CONTEXT() REPRESENTATION_CONTEXT('2D SPACE',''
  ) );
#1056 = ORIENTED_EDGE('',*,*,#1057,.T.);
#1057 = EDGE_CURVE('',#1036,#1036,#1058,.T.);
#1058 = SURFACE_CURVE('',#1059,(#1064,#1071),.PCURVE_S1.);
#1059 = CIRCLE('',#1060,2.15);
#1060 = AXIS2_PLACEMENT_3D('',#1061,#1062,#1063);
#1061 = CARTESIAN_POINT('',(0.,0.,19.));
#1062 = DIRECTION('',(0.,0.,-1.));
#1063 = DIRECTION('',(-1.,0.,0.));
#1064 = PCURVE('',#1016,#1065);
#1065 = DEFINITIONAL_REPRESENTATION('',(#1066),#1070);
#1066 = LINE('',#1067,#1068);
#1067 = CARTESIAN_POINT('',(12.566370614359,19.));
#1068 = VECTOR('',#1069,1.);
#1069 = DIRECTION('',(-1.,0.));
#1070 = ( GEOMETRIC_REPRESENTATION_CONTEXT(2) 
PARAMETRIC_REPRESENTATION_CONTEXT() REPRESENTATION_CONTEXT('2D SPACE',''
  ) );
#1071 = PCURVE('',#616,#1072);
#1072 = DEFINITIONAL_REPRESENTATION('',(#1073),#1081);
#1073 = ( BOUNDED_CURVE() B_SPLINE_CURVE(2,(#1074,#1075,#1076,#1077,
#1078,#1079,#1080),.UNSPECIFIED.,.T.,.F.) B_SPLINE_CURVE_WITH_KNOTS((1,2
    ,2,2,2,1),(-2.094395102393,0.,2.094395102393,4.188790204786,
6.28318530718,8.377580409573),.UNSPECIFIED.) CURVE() 
GEOMETRIC_REPRESENTATION_ITEM() RATIONAL_B_SPLINE_CURVE((1.,0.5,1.,0.5,
1.,0.5,1.)) REPRESENTATION_ITEM('') );
#1074 = CARTESIAN_POINT('',(-2.15,0.));
#1075 = CARTESIAN_POINT('',(-2.15,3.723909236273));
#1076 = CARTESIAN_POINT('',(1.075,1.861954618137));
#1077 = CARTESIAN_POINT('',(4.3,5.265981236334E-16));
#1078 = CARTESIAN_POINT('',(1.075,-1.861954618137));
#1079 = CARTESIAN_POINT('',(-2.15,-3.723909236273));
#1080 = CARTESIAN_POINT('',(-2.15,0.));
#1081 = ( GEOMETRIC_REPRESENTATION_CONTEXT(2) 
PARAMETRIC_REPRESENTATION_CONTEXT() REPRESENTATION_CONTEXT('2D SPACE',''
  ) );
#1082 = ORIENTED_EDGE('',*,*,#1035,.F.);
#1083 = ADVANCED_FACE('',(#1084,#1087),#307,.F.);
#1084 = FACE_BOUND('',#1085,.T.);
#1085 = EDGE_LOOP('',(#1086));
#1086 = ORIENTED_EDGE('',*,*,#1006,.T.);
#1087 = FACE_BOUND('',#1088,.T.);
#1088 = EDGE_LOOP('',(#1089));
#1089 = ORIENTED_EDGE('',*,*,#290,.T.);
#1090 = ADVANCED_FACE('',(#1091,#1094),#616,.T.);
#1091 = FACE_BOUND('',#1092,.T.);
#1092 = EDGE_LOOP('',(#1093));
#1093 = ORIENTED_EDGE('',*,*,#1057,.T.);
#1094 = FACE_BOUND('',#1095,.T.);
#1095 = EDGE_LOOP('',(#1096));
#1096 = ORIENTED_EDGE('',*,*,#599,.T.);
#1097 = ( GEOMETRIC_REPRESENTATION_CONTEXT(3) 
GLOBAL_UNCERTAINTY_ASSIGNED_CONTEXT((#1101)) 
GLOBAL_UNIT_ASSIGNED_CONTEXT((#1098,#1099,#1100)) REPRESENTATION_CONTEXT
('Context #1','3D Context with UNIT and UNCERTAINTY') );
#1098 = ( LENGTH_UNIT() NAMED_UNIT(*) SI_UNIT(.MILLI.,.METRE.) );
#1099 = ( NAMED_UNIT(*) PLANE_ANGLE_UNIT() SI_UNIT($,.RADIAN.) );
#1100 = ( NAMED_UNIT(*) SI_UNIT($,.STERADIAN.) SOLID_ANGLE_UNIT() );
#1101 = UNCERTAINTY_MEASURE_WITH_UNIT(LENGTH_MEASURE(2.E-04),#1098,
  'distance_accuracy_value','confusion accuracy');
#1102 = PRODUCT_RELATED_PRODUCT_CATEGORY('part',$,(#7));
#1103 = MECHANICAL_DESIGN_GEOMETRIC_PRESENTATION_REPRESENTATION('',(
    #1104),#1097);
#1104 = STYLED_ITEM('color',(#1105),#15);
#1105 = PRESENTATION_STYLE_ASSIGNMENT((#1106,#1112));
#1106 = SURFACE_STYLE_USAGE(.BOTH.,#1107);
#1107 = SURFACE_SIDE_STYLE('',(#1108));
#1108 = SURFACE_STYLE_FILL_AREA(#1109);
#1109 = FILL_AREA_STYLE('',(#1110));
#1110 = FILL_AREA_STYLE_COLOUR('',#1111);
#1111 = COLOUR_RGB('',9.411764799993E-02,0.145098047169,0.97254901356);
#1112 = CURVE_STYLE('',#1113,POSITIVE_LENGTH_MEASURE(0.1),#1114);
#1113 = DRAUGHTING_PRE_DEFINED_CURVE_FONT('continuous');
#1114 = COLOUR_RGB('',9.803921802644E-02,9.803921802644E-02,
  9.803921802644E-02);
ENDSEC;
END-ISO-10303-21;
