ISO-10303-21;
HEADER;
/* Generated by software containing ST-Developer
 * from STEP Tools, Inc. (www.steptools.com) 
 */

FILE_DESCRIPTION(
/* description */ (''),
/* implementation_level */ '2;1');

FILE_NAME(
/* name */ 
'C:\\Users\\SvenW\\Documents\\inventor\\B-Automaten\\Export_B_Automate
n\\ExportGithub\\Lagerstock.stp',
/* time_stamp */ '2026-05-14T08:07:23+02:00',
/* author */ ('SvenW'),
/* organization */ (''),
/* preprocessor_version */ 'ST-DEVELOPER v15.2',
/* originating_system */ 'Autodesk Inventor 2014',
/* authorisation */ '');

FILE_SCHEMA (('AUTOMOTIVE_DESIGN { 1 0 10303 214 3 1 1 }'));
ENDSEC;

DATA;
#10=MECHANICAL_DESIGN_GEOMETRIC_PRESENTATION_REPRESENTATION('',(#13),#397);
#11=SHAPE_REPRESENTATION_RELATIONSHIP('SRR','None',#406,#12);
#12=ADVANCED_BREP_SHAPE_REPRESENTATION($,(#230),#396);
#13=STYLED_ITEM('',(#415),#230);
#14=LINE('',#373,#24);
#15=LINE('',#376,#25);
#16=LINE('',#379,#26);
#17=LINE('',#381,#27);
#18=LINE('',#382,#28);
#19=LINE('',#385,#29);
#20=LINE('',#387,#30);
#21=LINE('',#388,#31);
#22=LINE('',#390,#32);
#23=LINE('',#391,#33);
#24=VECTOR('',#312,9.);
#25=VECTOR('',#315,9.);
#26=VECTOR('',#318,20.);
#27=VECTOR('',#319,20.);
#28=VECTOR('',#320,9.);
#29=VECTOR('',#323,26.);
#30=VECTOR('',#324,26.);
#31=VECTOR('',#325,9.);
#32=VECTOR('',#328,18.4363639828247);
#33=VECTOR('',#329,18.4363639828247);
#34=CONICAL_SURFACE('',#244,0.625,59.);
#35=CONICAL_SURFACE('',#248,0.625,59.);
#36=PLANE('',#238);
#37=PLANE('',#257);
#38=PLANE('',#258);
#39=PLANE('',#259);
#40=PLANE('',#260);
#41=PLANE('',#261);
#42=FACE_BOUND('',#71,.T.);
#43=FACE_BOUND('',#73,.T.);
#44=FACE_BOUND('',#75,.T.);
#45=FACE_BOUND('',#77,.T.);
#46=FACE_BOUND('',#80,.T.);
#47=FACE_BOUND('',#83,.T.);
#48=FACE_BOUND('',#85,.T.);
#49=FACE_BOUND('',#88,.T.);
#50=FACE_BOUND('',#89,.T.);
#51=FACE_BOUND('',#90,.T.);
#52=FACE_BOUND('',#92,.T.);
#53=FACE_BOUND('',#93,.T.);
#54=FACE_BOUND('',#94,.T.);
#55=FACE_BOUND('',#95,.T.);
#56=FACE_BOUND('',#96,.T.);
#57=FACE_BOUND('',#97,.T.);
#58=FACE_OUTER_BOUND('',#70,.T.);
#59=FACE_OUTER_BOUND('',#72,.T.);
#60=FACE_OUTER_BOUND('',#74,.T.);
#61=FACE_OUTER_BOUND('',#76,.T.);
#62=FACE_OUTER_BOUND('',#78,.T.);
#63=FACE_OUTER_BOUND('',#79,.T.);
#64=FACE_OUTER_BOUND('',#81,.T.);
#65=FACE_OUTER_BOUND('',#82,.T.);
#66=FACE_OUTER_BOUND('',#84,.T.);
#67=FACE_OUTER_BOUND('',#86,.T.);
#68=FACE_OUTER_BOUND('',#87,.T.);
#69=FACE_OUTER_BOUND('',#91,.T.);
#70=EDGE_LOOP('',(#157));
#71=EDGE_LOOP('',(#158));
#72=EDGE_LOOP('',(#159));
#73=EDGE_LOOP('',(#160));
#74=EDGE_LOOP('',(#161,#162,#163,#164));
#75=EDGE_LOOP('',(#165));
#76=EDGE_LOOP('',(#166));
#77=EDGE_LOOP('',(#167));
#78=EDGE_LOOP('',(#168));
#79=EDGE_LOOP('',(#169));
#80=EDGE_LOOP('',(#170));
#81=EDGE_LOOP('',(#171));
#82=EDGE_LOOP('',(#172));
#83=EDGE_LOOP('',(#173));
#84=EDGE_LOOP('',(#174,#175));
#85=EDGE_LOOP('',(#176));
#86=EDGE_LOOP('',(#177,#178,#179,#180));
#87=EDGE_LOOP('',(#181,#182,#183,#184));
#88=EDGE_LOOP('',(#185));
#89=EDGE_LOOP('',(#186));
#90=EDGE_LOOP('',(#187,#188,#189,#190));
#91=EDGE_LOOP('',(#191,#192,#193,#194));
#92=EDGE_LOOP('',(#195));
#93=EDGE_LOOP('',(#196,#197,#198,#199));
#94=EDGE_LOOP('',(#200));
#95=EDGE_LOOP('',(#201));
#96=EDGE_LOOP('',(#202));
#97=EDGE_LOOP('',(#203,#204,#205,#206));
#98=CIRCLE('',#233,1.5);
#99=CIRCLE('',#234,1.5);
#100=CIRCLE('',#236,1.5);
#101=CIRCLE('',#237,1.5);
#102=CIRCLE('',#239,11.);
#103=CIRCLE('',#240,11.);
#104=CIRCLE('',#241,4.25);
#105=CIRCLE('',#243,4.25);
#106=CIRCLE('',#245,1.25);
#107=CIRCLE('',#247,1.25);
#108=CIRCLE('',#249,1.25);
#109=CIRCLE('',#251,1.25);
#110=CIRCLE('',#253,11.);
#111=CIRCLE('',#255,13.0470184152732);
#112=CIRCLE('',#256,13.0470184152732);
#113=VERTEX_POINT('',#336);
#114=VERTEX_POINT('',#338);
#115=VERTEX_POINT('',#341);
#116=VERTEX_POINT('',#343);
#117=VERTEX_POINT('',#348);
#118=VERTEX_POINT('',#351);
#119=VERTEX_POINT('',#354);
#120=VERTEX_POINT('',#357);
#121=VERTEX_POINT('',#360);
#122=VERTEX_POINT('',#363);
#123=VERTEX_POINT('',#366);
#124=VERTEX_POINT('',#369);
#125=VERTEX_POINT('',#370);
#126=VERTEX_POINT('',#372);
#127=VERTEX_POINT('',#374);
#128=VERTEX_POINT('',#378);
#129=VERTEX_POINT('',#380);
#130=VERTEX_POINT('',#384);
#131=VERTEX_POINT('',#386);
#132=EDGE_CURVE('',#113,#113,#98,.T.);
#133=EDGE_CURVE('',#114,#114,#99,.T.);
#134=EDGE_CURVE('',#115,#115,#100,.T.);
#135=EDGE_CURVE('',#116,#116,#101,.T.);
#136=EDGE_CURVE('',#114,#116,#102,.T.);
#137=EDGE_CURVE('',#116,#114,#103,.T.);
#138=EDGE_CURVE('',#117,#117,#104,.T.);
#139=EDGE_CURVE('',#118,#118,#105,.T.);
#140=EDGE_CURVE('',#119,#119,#106,.T.);
#141=EDGE_CURVE('',#120,#120,#107,.T.);
#142=EDGE_CURVE('',#121,#121,#108,.T.);
#143=EDGE_CURVE('',#122,#122,#109,.T.);
#144=EDGE_CURVE('',#123,#123,#110,.T.);
#145=EDGE_CURVE('',#124,#125,#111,.T.);
#146=EDGE_CURVE('',#125,#126,#14,.T.);
#147=EDGE_CURVE('',#127,#126,#112,.T.);
#148=EDGE_CURVE('',#124,#127,#15,.T.);
#149=EDGE_CURVE('',#128,#124,#16,.T.);
#150=EDGE_CURVE('',#129,#127,#17,.T.);
#151=EDGE_CURVE('',#128,#129,#18,.T.);
#152=EDGE_CURVE('',#130,#128,#19,.T.);
#153=EDGE_CURVE('',#131,#129,#20,.T.);
#154=EDGE_CURVE('',#130,#131,#21,.T.);
#155=EDGE_CURVE('',#125,#130,#22,.T.);
#156=EDGE_CURVE('',#126,#131,#23,.T.);
#157=ORIENTED_EDGE('',*,*,#132,.F.);
#158=ORIENTED_EDGE('',*,*,#133,.F.);
#159=ORIENTED_EDGE('',*,*,#134,.F.);
#160=ORIENTED_EDGE('',*,*,#135,.F.);
#161=ORIENTED_EDGE('',*,*,#136,.F.);
#162=ORIENTED_EDGE('',*,*,#133,.T.);
#163=ORIENTED_EDGE('',*,*,#137,.F.);
#164=ORIENTED_EDGE('',*,*,#135,.T.);
#165=ORIENTED_EDGE('',*,*,#138,.T.);
#166=ORIENTED_EDGE('',*,*,#139,.F.);
#167=ORIENTED_EDGE('',*,*,#138,.F.);
#168=ORIENTED_EDGE('',*,*,#140,.T.);
#169=ORIENTED_EDGE('',*,*,#141,.F.);
#170=ORIENTED_EDGE('',*,*,#140,.F.);
#171=ORIENTED_EDGE('',*,*,#142,.T.);
#172=ORIENTED_EDGE('',*,*,#143,.F.);
#173=ORIENTED_EDGE('',*,*,#142,.F.);
#174=ORIENTED_EDGE('',*,*,#136,.T.);
#175=ORIENTED_EDGE('',*,*,#137,.T.);
#176=ORIENTED_EDGE('',*,*,#144,.F.);
#177=ORIENTED_EDGE('',*,*,#145,.T.);
#178=ORIENTED_EDGE('',*,*,#146,.T.);
#179=ORIENTED_EDGE('',*,*,#147,.F.);
#180=ORIENTED_EDGE('',*,*,#148,.F.);
#181=ORIENTED_EDGE('',*,*,#149,.T.);
#182=ORIENTED_EDGE('',*,*,#148,.T.);
#183=ORIENTED_EDGE('',*,*,#150,.F.);
#184=ORIENTED_EDGE('',*,*,#151,.F.);
#185=ORIENTED_EDGE('',*,*,#141,.T.);
#186=ORIENTED_EDGE('',*,*,#143,.T.);
#187=ORIENTED_EDGE('',*,*,#152,.T.);
#188=ORIENTED_EDGE('',*,*,#151,.T.);
#189=ORIENTED_EDGE('',*,*,#153,.F.);
#190=ORIENTED_EDGE('',*,*,#154,.F.);
#191=ORIENTED_EDGE('',*,*,#155,.T.);
#192=ORIENTED_EDGE('',*,*,#154,.T.);
#193=ORIENTED_EDGE('',*,*,#156,.F.);
#194=ORIENTED_EDGE('',*,*,#146,.F.);
#195=ORIENTED_EDGE('',*,*,#144,.T.);
#196=ORIENTED_EDGE('',*,*,#156,.T.);
#197=ORIENTED_EDGE('',*,*,#153,.T.);
#198=ORIENTED_EDGE('',*,*,#150,.T.);
#199=ORIENTED_EDGE('',*,*,#147,.T.);
#200=ORIENTED_EDGE('',*,*,#132,.T.);
#201=ORIENTED_EDGE('',*,*,#134,.T.);
#202=ORIENTED_EDGE('',*,*,#139,.T.);
#203=ORIENTED_EDGE('',*,*,#155,.F.);
#204=ORIENTED_EDGE('',*,*,#145,.F.);
#205=ORIENTED_EDGE('',*,*,#149,.F.);
#206=ORIENTED_EDGE('',*,*,#152,.F.);
#207=CYLINDRICAL_SURFACE('',#232,1.5);
#208=CYLINDRICAL_SURFACE('',#235,1.5);
#209=CYLINDRICAL_SURFACE('',#242,4.25);
#210=CYLINDRICAL_SURFACE('',#246,1.25);
#211=CYLINDRICAL_SURFACE('',#250,1.25);
#212=CYLINDRICAL_SURFACE('',#252,11.);
#213=CYLINDRICAL_SURFACE('',#254,13.0470184152732);
#214=ADVANCED_FACE('',(#58,#42),#207,.F.);
#215=ADVANCED_FACE('',(#59,#43),#208,.F.);
#216=ADVANCED_FACE('',(#60,#44),#36,.T.);
#217=ADVANCED_FACE('',(#61,#45),#209,.F.);
#218=ADVANCED_FACE('',(#62),#34,.F.);
#219=ADVANCED_FACE('',(#63,#46),#210,.F.);
#220=ADVANCED_FACE('',(#64),#35,.F.);
#221=ADVANCED_FACE('',(#65,#47),#211,.F.);
#222=ADVANCED_FACE('',(#66,#48),#212,.F.);
#223=ADVANCED_FACE('',(#67),#213,.T.);
#224=ADVANCED_FACE('',(#68),#37,.T.);
#225=ADVANCED_FACE('',(#49,#50,#51),#38,.T.);
#226=ADVANCED_FACE('',(#69),#39,.T.);
#227=ADVANCED_FACE('',(#52,#53),#40,.T.);
#228=ADVANCED_FACE('',(#54,#55,#56,#57),#41,.F.);
#229=CLOSED_SHELL('',(#214,#215,#216,#217,#218,#219,#220,#221,#222,#223,
#224,#225,#226,#227,#228));
#230=MANIFOLD_SOLID_BREP('Volumenk\X\F6rper1',#229);
#231=AXIS2_PLACEMENT_3D('placement',#334,#262,#263);
#232=AXIS2_PLACEMENT_3D('',#335,#264,#265);
#233=AXIS2_PLACEMENT_3D('',#337,#266,#267);
#234=AXIS2_PLACEMENT_3D('',#339,#268,#269);
#235=AXIS2_PLACEMENT_3D('',#340,#270,#271);
#236=AXIS2_PLACEMENT_3D('',#342,#272,#273);
#237=AXIS2_PLACEMENT_3D('',#344,#274,#275);
#238=AXIS2_PLACEMENT_3D('',#345,#276,#277);
#239=AXIS2_PLACEMENT_3D('',#346,#278,#279);
#240=AXIS2_PLACEMENT_3D('',#347,#280,#281);
#241=AXIS2_PLACEMENT_3D('',#349,#282,#283);
#242=AXIS2_PLACEMENT_3D('',#350,#284,#285);
#243=AXIS2_PLACEMENT_3D('',#352,#286,#287);
#244=AXIS2_PLACEMENT_3D('',#353,#288,#289);
#245=AXIS2_PLACEMENT_3D('',#355,#290,#291);
#246=AXIS2_PLACEMENT_3D('',#356,#292,#293);
#247=AXIS2_PLACEMENT_3D('',#358,#294,#295);
#248=AXIS2_PLACEMENT_3D('',#359,#296,#297);
#249=AXIS2_PLACEMENT_3D('',#361,#298,#299);
#250=AXIS2_PLACEMENT_3D('',#362,#300,#301);
#251=AXIS2_PLACEMENT_3D('',#364,#302,#303);
#252=AXIS2_PLACEMENT_3D('',#365,#304,#305);
#253=AXIS2_PLACEMENT_3D('',#367,#306,#307);
#254=AXIS2_PLACEMENT_3D('',#368,#308,#309);
#255=AXIS2_PLACEMENT_3D('',#371,#310,#311);
#256=AXIS2_PLACEMENT_3D('',#375,#313,#314);
#257=AXIS2_PLACEMENT_3D('',#377,#316,#317);
#258=AXIS2_PLACEMENT_3D('',#383,#321,#322);
#259=AXIS2_PLACEMENT_3D('',#389,#326,#327);
#260=AXIS2_PLACEMENT_3D('',#392,#330,#331);
#261=AXIS2_PLACEMENT_3D('',#393,#332,#333);
#262=DIRECTION('axis',(0.,0.,1.));
#263=DIRECTION('refdir',(1.,0.,0.));
#264=DIRECTION('center_axis',(0.,0.,-1.));
#265=DIRECTION('ref_axis',(-1.,0.,0.));
#266=DIRECTION('center_axis',(0.,0.,1.));
#267=DIRECTION('ref_axis',(-1.,0.,0.));
#268=DIRECTION('center_axis',(0.,0.,-1.));
#269=DIRECTION('ref_axis',(-1.,0.,0.));
#270=DIRECTION('center_axis',(0.,0.,-1.));
#271=DIRECTION('ref_axis',(-1.,0.,0.));
#272=DIRECTION('center_axis',(0.,0.,1.));
#273=DIRECTION('ref_axis',(-1.,0.,0.));
#274=DIRECTION('center_axis',(0.,0.,-1.));
#275=DIRECTION('ref_axis',(-1.,0.,0.));
#276=DIRECTION('center_axis',(0.,0.,1.));
#277=DIRECTION('ref_axis',(1.,0.,0.));
#278=DIRECTION('center_axis',(0.,0.,-1.));
#279=DIRECTION('ref_axis',(-1.,0.,0.));
#280=DIRECTION('center_axis',(0.,0.,-1.));
#281=DIRECTION('ref_axis',(-1.,0.,0.));
#282=DIRECTION('center_axis',(0.,0.,-1.));
#283=DIRECTION('ref_axis',(-1.,0.,0.));
#284=DIRECTION('center_axis',(0.,0.,-1.));
#285=DIRECTION('ref_axis',(-1.,0.,0.));
#286=DIRECTION('center_axis',(0.,0.,1.));
#287=DIRECTION('ref_axis',(-1.,0.,0.));
#288=DIRECTION('center_axis',(0.,-1.,0.));
#289=DIRECTION('ref_axis',(1.,0.,0.));
#290=DIRECTION('center_axis',(0.,-1.,0.));
#291=DIRECTION('ref_axis',(1.,0.,0.));
#292=DIRECTION('center_axis',(0.,-1.,0.));
#293=DIRECTION('ref_axis',(1.,0.,0.));
#294=DIRECTION('center_axis',(0.,1.,0.));
#295=DIRECTION('ref_axis',(1.,0.,0.));
#296=DIRECTION('center_axis',(0.,-1.,0.));
#297=DIRECTION('ref_axis',(1.,0.,0.));
#298=DIRECTION('center_axis',(0.,-1.,0.));
#299=DIRECTION('ref_axis',(1.,0.,0.));
#300=DIRECTION('center_axis',(0.,-1.,0.));
#301=DIRECTION('ref_axis',(1.,0.,0.));
#302=DIRECTION('center_axis',(0.,1.,0.));
#303=DIRECTION('ref_axis',(1.,0.,0.));
#304=DIRECTION('center_axis',(0.,0.,-1.));
#305=DIRECTION('ref_axis',(-1.,0.,0.));
#306=DIRECTION('center_axis',(0.,0.,-1.));
#307=DIRECTION('ref_axis',(-1.,0.,0.));
#308=DIRECTION('center_axis',(0.,0.,1.));
#309=DIRECTION('ref_axis',(1.,-1.70188006069723E-016,0.));
#310=DIRECTION('center_axis',(0.,0.,1.));
#311=DIRECTION('ref_axis',(1.,-1.70188006069723E-016,0.));
#312=DIRECTION('',(0.,0.,1.));
#313=DIRECTION('center_axis',(0.,0.,1.));
#314=DIRECTION('ref_axis',(1.,-1.70188006069723E-016,0.));
#315=DIRECTION('',(0.,0.,1.));
#316=DIRECTION('center_axis',(1.,2.22044604925031E-016,0.));
#317=DIRECTION('ref_axis',(-1.77635683940025E-016,1.,0.));
#318=DIRECTION('',(-2.22044604925031E-016,1.,0.));
#319=DIRECTION('',(-2.22044604925031E-016,1.,0.));
#320=DIRECTION('',(0.,0.,1.));
#321=DIRECTION('center_axis',(0.,-1.,0.));
#322=DIRECTION('ref_axis',(1.,0.,0.));
#323=DIRECTION('',(1.,0.,0.));
#324=DIRECTION('',(1.,0.,0.));
#325=DIRECTION('',(0.,0.,1.));
#326=DIRECTION('center_axis',(-1.,0.,0.));
#327=DIRECTION('ref_axis',(0.,-1.,0.));
#328=DIRECTION('',(0.,-1.,0.));
#329=DIRECTION('',(0.,-1.,0.));
#330=DIRECTION('center_axis',(0.,0.,1.));
#331=DIRECTION('ref_axis',(1.,0.,0.));
#332=DIRECTION('center_axis',(0.,0.,1.));
#333=DIRECTION('ref_axis',(1.,0.,0.));
#334=CARTESIAN_POINT('',(0.,0.,0.));
#335=CARTESIAN_POINT('Origin',(-0.0470184152732278,29.5,2.));
#336=CARTESIAN_POINT('',(1.45298158472677,29.5,0.));
#337=CARTESIAN_POINT('Origin',(-0.0470184152732278,29.5,0.));
#338=CARTESIAN_POINT('',(-0.0470184152732278,31.,2.));
#339=CARTESIAN_POINT('Origin',(-0.0470184152732278,29.5,2.));
#340=CARTESIAN_POINT('Origin',(-0.0470184152732278,10.5,2.));
#341=CARTESIAN_POINT('',(1.45298158472677,10.5,0.));
#342=CARTESIAN_POINT('Origin',(-0.0470184152732278,10.5,0.));
#343=CARTESIAN_POINT('',(-0.0470184152732278,9.,2.));
#344=CARTESIAN_POINT('Origin',(-0.0470184152732278,10.5,2.));
#345=CARTESIAN_POINT('Origin',(-0.0470184152732286,20.,2.));
#346=CARTESIAN_POINT('Origin',(-0.0470184152732278,20.,2.));
#347=CARTESIAN_POINT('Origin',(-0.0470184152732278,20.,2.));
#348=CARTESIAN_POINT('',(4.20298158472677,20.,2.));
#349=CARTESIAN_POINT('Origin',(-0.0470184152732278,20.,2.));
#350=CARTESIAN_POINT('Origin',(-0.0470184152732278,20.,2.));
#351=CARTESIAN_POINT('',(4.20298158472677,20.,0.));
#352=CARTESIAN_POINT('Origin',(-0.0470184152732278,20.,0.));
#353=CARTESIAN_POINT('Origin',(-10.,8.37553788689223,4.5));
#354=CARTESIAN_POINT('',(-8.75,8.,4.5));
#355=CARTESIAN_POINT('Origin',(-10.,8.,4.5));
#356=CARTESIAN_POINT('Origin',(-10.,4.,4.5));
#357=CARTESIAN_POINT('',(-8.75,-5.55111512312578E-016,4.5));
#358=CARTESIAN_POINT('Origin',(-10.,-5.55111512312578E-016,4.5));
#359=CARTESIAN_POINT('Origin',(10.,8.37553788689223,4.5));
#360=CARTESIAN_POINT('',(11.25,8.,4.5));
#361=CARTESIAN_POINT('Origin',(10.,8.,4.5));
#362=CARTESIAN_POINT('Origin',(10.,4.,4.5));
#363=CARTESIAN_POINT('',(11.25,-5.55111512312578E-016,4.5));
#364=CARTESIAN_POINT('Origin',(10.,-5.55111512312578E-016,4.5));
#365=CARTESIAN_POINT('Origin',(-0.0470184152732278,20.,9.));
#366=CARTESIAN_POINT('',(10.9529815847268,20.,9.));
#367=CARTESIAN_POINT('Origin',(-0.0470184152732278,20.,9.));
#368=CARTESIAN_POINT('Origin',(-0.0470184152732278,20.,0.));
#369=CARTESIAN_POINT('',(13.,20.,0.));
#370=CARTESIAN_POINT('',(-13.,18.4363639828247,0.));
#371=CARTESIAN_POINT('Origin',(-0.0470184152732278,20.,0.));
#372=CARTESIAN_POINT('',(-13.,18.4363639828247,9.));
#373=CARTESIAN_POINT('',(-13.,18.4363639828247,0.));
#374=CARTESIAN_POINT('',(13.,20.,9.));
#375=CARTESIAN_POINT('Origin',(-0.0470184152732278,20.,9.));
#376=CARTESIAN_POINT('',(13.,20.,0.));
#377=CARTESIAN_POINT('Origin',(13.,0.,0.));
#378=CARTESIAN_POINT('',(13.,-5.55111512312578E-016,0.));
#379=CARTESIAN_POINT('',(13.,0.,0.));
#380=CARTESIAN_POINT('',(13.,0.,9.));
#381=CARTESIAN_POINT('',(13.,0.,9.));
#382=CARTESIAN_POINT('',(13.,-5.55111512312578E-016,0.));
#383=CARTESIAN_POINT('Origin',(-13.,-5.55111512312578E-016,0.));
#384=CARTESIAN_POINT('',(-13.,-5.55111512312578E-016,0.));
#385=CARTESIAN_POINT('',(-13.,-5.55111512312578E-016,0.));
#386=CARTESIAN_POINT('',(-13.,0.,9.));
#387=CARTESIAN_POINT('',(-13.,-5.55111512312578E-016,9.));
#388=CARTESIAN_POINT('',(-13.,-5.55111512312578E-016,0.));
#389=CARTESIAN_POINT('Origin',(-13.,18.4363639828247,0.));
#390=CARTESIAN_POINT('',(-13.,18.4363639828247,0.));
#391=CARTESIAN_POINT('',(-13.,18.4363639828247,9.));
#392=CARTESIAN_POINT('Origin',(0.0365943900522011,13.1049481938627,9.));
#393=CARTESIAN_POINT('Origin',(0.0365943900522011,13.1049481938627,0.));
#394=UNCERTAINTY_MEASURE_WITH_UNIT(LENGTH_MEASURE(0.01),#398,
'DISTANCE_ACCURACY_VALUE',
'Maximum model space distance between geometric entities at asserted c
onnectivities');
#395=UNCERTAINTY_MEASURE_WITH_UNIT(LENGTH_MEASURE(1.E-006),#398,
'DISTANCE_ACCURACY_VALUE',
'Maximum model space distance between geometric entities at asserted c
onnectivities');
#396=(
GEOMETRIC_REPRESENTATION_CONTEXT(3)
GLOBAL_UNCERTAINTY_ASSIGNED_CONTEXT((#394))
GLOBAL_UNIT_ASSIGNED_CONTEXT((#398,#401,#399))
REPRESENTATION_CONTEXT('','3D')
);
#397=(
GEOMETRIC_REPRESENTATION_CONTEXT(3)
GLOBAL_UNCERTAINTY_ASSIGNED_CONTEXT((#395))
GLOBAL_UNIT_ASSIGNED_CONTEXT((#398,#401,#399))
REPRESENTATION_CONTEXT('','3D')
);
#398=(
LENGTH_UNIT()
NAMED_UNIT(*)
SI_UNIT(.MILLI.,.METRE.)
);
#399=(
NAMED_UNIT(*)
SI_UNIT($,.STERADIAN.)
SOLID_ANGLE_UNIT()
);
#400=DIMENSIONAL_EXPONENTS(0.,0.,0.,0.,0.,0.,0.);
#401=(
CONVERSION_BASED_UNIT('degree',#403)
NAMED_UNIT(#400)
PLANE_ANGLE_UNIT()
);
#402=(
NAMED_UNIT(*)
PLANE_ANGLE_UNIT()
SI_UNIT($,.RADIAN.)
);
#403=PLANE_ANGLE_MEASURE_WITH_UNIT(PLANE_ANGLE_MEASURE(0.01745329252),#402);
#404=SHAPE_DEFINITION_REPRESENTATION(#405,#406);
#405=PRODUCT_DEFINITION_SHAPE('',$,#408);
#406=SHAPE_REPRESENTATION('',(#231),#396);
#407=PRODUCT_DEFINITION_CONTEXT('part definition',#412,'design');
#408=PRODUCT_DEFINITION('Lagerstock','Lagerstock',#409,#407);
#409=PRODUCT_DEFINITION_FORMATION('',$,#414);
#410=PRODUCT_RELATED_PRODUCT_CATEGORY('Lagerstock','Lagerstock',(#414));
#411=APPLICATION_PROTOCOL_DEFINITION('international standard',
'automotive_design',2009,#412);
#412=APPLICATION_CONTEXT(
'Core Data for Automotive Mechanical Design Process');
#413=PRODUCT_CONTEXT('part definition',#412,'mechanical');
#414=PRODUCT('Lagerstock','Lagerstock',$,(#413));
#415=PRESENTATION_STYLE_ASSIGNMENT((#416));
#416=SURFACE_STYLE_USAGE(.BOTH.,#417);
#417=SURFACE_SIDE_STYLE($,(#418));
#418=SURFACE_STYLE_FILL_AREA(#419);
#419=FILL_AREA_STYLE($,(#420));
#420=FILL_AREA_STYLE_COLOUR($,#421);
#421=COLOUR_RGB('',0.92156862745098,0.92156862745098,0.92156862745098);
ENDSEC;
END-ISO-10303-21;
