ISO-10303-21;
HEADER;
FILE_DESCRIPTION(('FreeCAD Model'),'2;1');
FILE_NAME('Open CASCADE Shape Model','2026-05-25T15:27:59',('Author'),(
    ''),'Open CASCADE STEP processor 7.8','FreeCAD','Unknown');
FILE_SCHEMA(('AUTOMOTIVE_DESIGN { 1 0 10303 214 1 1 1 1 }'));
ENDSEC;
DATA;
#1 = APPLICATION_PROTOCOL_DEFINITION('international standard',
  'automotive_design',2000,#2);
#2 = APPLICATION_CONTEXT(
  'core data for automotive mechanical design processes');
#3 = SHAPE_DEFINITION_REPRESENTATION(#4,#10);
#4 = PRODUCT_DEFINITION_SHAPE('','',#5);
#5 = PRODUCT_DEFINITION('design','',#6,#9);
#6 = PRODUCT_DEFINITION_FORMATION('','',#7);
#7 = PRODUCT('LED-Bel','LED-Bel','',(#8));
#8 = PRODUCT_CONTEXT('',#2,'mechanical');
#9 = PRODUCT_DEFINITION_CONTEXT('part definition',#2,'design');
#10 = ADVANCED_BREP_SHAPE_REPRESENTATION('',(#11,#15),#670);
#11 = AXIS2_PLACEMENT_3D('',#12,#13,#14);
#12 = CARTESIAN_POINT('',(0.,0.,0.));
#13 = DIRECTION('',(0.,0.,1.));
#14 = DIRECTION('',(1.,0.,-0.));
#15 = MANIFOLD_SOLID_BREP('',#16);
#16 = CLOSED_SHELL('',(#17,#112,#197,#278,#319,#377,#416,#470,#505,#627,
    #660));
#17 = ADVANCED_FACE('',(#18),#31,.F.);
#18 = FACE_BOUND('',#19,.F.);
#19 = EDGE_LOOP('',(#20,#58,#80,#111));
#20 = ORIENTED_EDGE('',*,*,#21,.T.);
#21 = EDGE_CURVE('',#22,#22,#24,.T.);
#22 = VERTEX_POINT('',#23);
#23 = CARTESIAN_POINT('',(-15.5,-7.,-0.));
#24 = SURFACE_CURVE('',#25,(#30,#42),.PCURVE_S1.);
#25 = CIRCLE('',#26,1.);
#26 = AXIS2_PLACEMENT_3D('',#27,#28,#29);
#27 = CARTESIAN_POINT('',(-16.5,-7.,0.));
#28 = DIRECTION('',(-3.7E-16,1.,0.));
#29 = DIRECTION('',(-1.,-3.7E-16,0.));
#30 = PCURVE('',#31,#36);
#31 = CYLINDRICAL_SURFACE('',#32,1.);
#32 = AXIS2_PLACEMENT_3D('',#33,#34,#35);
#33 = CARTESIAN_POINT('',(-16.5,-1.304E-14,0.));
#34 = DIRECTION('',(2.8E-16,-1.,0.));
#35 = DIRECTION('',(-1.,-2.8E-16,0.));
#36 = DEFINITIONAL_REPRESENTATION('',(#37),#41);
#37 = LINE('',#38,#39);
#38 = CARTESIAN_POINT('',(12.566370614359,7.));
#39 = VECTOR('',#40,1.);
#40 = DIRECTION('',(-1.,0.));
#41 = ( GEOMETRIC_REPRESENTATION_CONTEXT(2) 
PARAMETRIC_REPRESENTATION_CONTEXT() REPRESENTATION_CONTEXT('2D SPACE',''
  ) );
#42 = PCURVE('',#43,#48);
#43 = PLANE('',#44);
#44 = AXIS2_PLACEMENT_3D('',#45,#46,#47);
#45 = CARTESIAN_POINT('',(14.5,-7.,0.));
#46 = DIRECTION('',(3.7E-16,-1.,0.));
#47 = DIRECTION('',(0.,0.,-1.));
#48 = DEFINITIONAL_REPRESENTATION('',(#49),#57);
#49 = ( BOUNDED_CURVE() B_SPLINE_CURVE(2,(#50,#51,#52,#53,#54,#55,#56),
.UNSPECIFIED.,.T.,.F.) B_SPLINE_CURVE_WITH_KNOTS((1,2,2,2,2,1),(
    -2.094395102393,0.,2.094395102393,4.188790204786,6.28318530718,
8.377580409573),.UNSPECIFIED.) CURVE() GEOMETRIC_REPRESENTATION_ITEM() 
RATIONAL_B_SPLINE_CURVE((1.,0.5,1.,0.5,1.,0.5,1.)) REPRESENTATION_ITEM(
  '') );
#50 = CARTESIAN_POINT('',(0.,-32.));
#51 = CARTESIAN_POINT('',(-1.732050807569,-32.));
#52 = CARTESIAN_POINT('',(-0.866025403784,-30.5));
#53 = CARTESIAN_POINT('',(-2.449293598295E-16,-29.));
#54 = CARTESIAN_POINT('',(0.866025403784,-30.5));
#55 = CARTESIAN_POINT('',(1.732050807569,-32.));
#56 = CARTESIAN_POINT('',(0.,-32.));
#57 = ( GEOMETRIC_REPRESENTATION_CONTEXT(2) 
PARAMETRIC_REPRESENTATION_CONTEXT() REPRESENTATION_CONTEXT('2D SPACE',''
  ) );
#58 = ORIENTED_EDGE('',*,*,#59,.F.);
#59 = EDGE_CURVE('',#60,#22,#62,.T.);
#60 = VERTEX_POINT('',#61);
#61 = CARTESIAN_POINT('',(-15.5,-1.3E-14,-0.));
#62 = SEAM_CURVE('',#63,(#66,#73),.PCURVE_S1.);
#63 = B_SPLINE_CURVE_WITH_KNOTS('',1,(#64,#65),.UNSPECIFIED.,.F.,.F.,(2,
    2),(-3.28E-15,7.),.PIECEWISE_BEZIER_KNOTS.);
#64 = CARTESIAN_POINT('',(-15.5,-9.49E-15,-3.7E-16));
#65 = CARTESIAN_POINT('',(-15.5,-7.,-3.7E-16));
#66 = PCURVE('',#31,#67);
#67 = DEFINITIONAL_REPRESENTATION('',(#68),#72);
#68 = LINE('',#69,#70);
#69 = CARTESIAN_POINT('',(3.14159265359,0.));
#70 = VECTOR('',#71,1.);
#71 = DIRECTION('',(0.,1.));
#72 = ( GEOMETRIC_REPRESENTATION_CONTEXT(2) 
PARAMETRIC_REPRESENTATION_CONTEXT() REPRESENTATION_CONTEXT('2D SPACE',''
  ) );
#73 = PCURVE('',#31,#74);
#74 = DEFINITIONAL_REPRESENTATION('',(#75),#79);
#75 = LINE('',#76,#77);
#76 = CARTESIAN_POINT('',(9.424777960769,0.));
#77 = VECTOR('',#78,1.);
#78 = DIRECTION('',(0.,1.));
#79 = ( GEOMETRIC_REPRESENTATION_CONTEXT(2) 
PARAMETRIC_REPRESENTATION_CONTEXT() REPRESENTATION_CONTEXT('2D SPACE',''
  ) );
#80 = ORIENTED_EDGE('',*,*,#81,.T.);
#81 = EDGE_CURVE('',#60,#60,#82,.T.);
#82 = SURFACE_CURVE('',#83,(#88,#95),.PCURVE_S1.);
#83 = CIRCLE('',#84,1.);
#84 = AXIS2_PLACEMENT_3D('',#85,#86,#87);
#85 = CARTESIAN_POINT('',(-16.5,-9.85E-15,0.));
#86 = DIRECTION('',(3.7E-16,-1.,0.));
#87 = DIRECTION('',(-1.,-3.7E-16,0.));
#88 = PCURVE('',#31,#89);
#89 = DEFINITIONAL_REPRESENTATION('',(#90),#94);
#90 = LINE('',#91,#92);
#91 = CARTESIAN_POINT('',(0.,-3.28E-15));
#92 = VECTOR('',#93,1.);
#93 = DIRECTION('',(1.,0.));
#94 = ( GEOMETRIC_REPRESENTATION_CONTEXT(2) 
PARAMETRIC_REPRESENTATION_CONTEXT() REPRESENTATION_CONTEXT('2D SPACE',''
  ) );
#95 = PCURVE('',#96,#101);
#96 = PLANE('',#97);
#97 = AXIS2_PLACEMENT_3D('',#98,#99,#100);
#98 = CARTESIAN_POINT('',(19.,0.,0.));
#99 = DIRECTION('',(-3.7E-16,1.,0.));
#100 = DIRECTION('',(0.,0.,1.));
#101 = DEFINITIONAL_REPRESENTATION('',(#102),#110);
#102 = ( BOUNDED_CURVE() B_SPLINE_CURVE(2,(#103,#104,#105,#106,#107,#108
,#109),.UNSPECIFIED.,.T.,.F.) B_SPLINE_CURVE_WITH_KNOTS((1,2,2,2,2,1),(
    -2.094395102393,0.,2.094395102393,4.188790204786,6.28318530718,
8.377580409573),.UNSPECIFIED.) CURVE() GEOMETRIC_REPRESENTATION_ITEM() 
RATIONAL_B_SPLINE_CURVE((1.,0.5,1.,0.5,1.,0.5,1.)) REPRESENTATION_ITEM(
  '') );
#103 = CARTESIAN_POINT('',(0.,-36.5));
#104 = CARTESIAN_POINT('',(-1.732050807569,-36.5));
#105 = CARTESIAN_POINT('',(-0.866025403784,-35.));
#106 = CARTESIAN_POINT('',(-2.449293598295E-16,-33.5));
#107 = CARTESIAN_POINT('',(0.866025403784,-35.));
#108 = CARTESIAN_POINT('',(1.732050807569,-36.5));
#109 = CARTESIAN_POINT('',(0.,-36.5));
#110 = ( GEOMETRIC_REPRESENTATION_CONTEXT(2) 
PARAMETRIC_REPRESENTATION_CONTEXT() REPRESENTATION_CONTEXT('2D SPACE',''
  ) );
#111 = ORIENTED_EDGE('',*,*,#59,.T.);
#112 = ADVANCED_FACE('',(#113),#126,.F.);
#113 = FACE_BOUND('',#114,.F.);
#114 = EDGE_LOOP('',(#115,#148,#170,#196));
#115 = ORIENTED_EDGE('',*,*,#116,.T.);
#116 = EDGE_CURVE('',#117,#117,#119,.T.);
#117 = VERTEX_POINT('',#118);
#118 = CARTESIAN_POINT('',(17.5,-7.,-0.));
#119 = SURFACE_CURVE('',#120,(#125,#137),.PCURVE_S1.);
#120 = CIRCLE('',#121,1.);
#121 = AXIS2_PLACEMENT_3D('',#122,#123,#124);
#122 = CARTESIAN_POINT('',(16.5,-7.,0.));
#123 = DIRECTION('',(-3.7E-16,1.,0.));
#124 = DIRECTION('',(-1.,-3.7E-16,0.));
#125 = PCURVE('',#126,#131);
#126 = CYLINDRICAL_SURFACE('',#127,1.);
#127 = AXIS2_PLACEMENT_3D('',#128,#129,#130);
#128 = CARTESIAN_POINT('',(16.5,-9.2E-16,0.));
#129 = DIRECTION('',(2.8E-16,-1.,0.));
#130 = DIRECTION('',(-1.,-2.8E-16,0.));
#131 = DEFINITIONAL_REPRESENTATION('',(#132),#136);
#132 = LINE('',#133,#134);
#133 = CARTESIAN_POINT('',(12.566370614359,7.));
#134 = VECTOR('',#135,1.);
#135 = DIRECTION('',(-1.,0.));
#136 = ( GEOMETRIC_REPRESENTATION_CONTEXT(2) 
PARAMETRIC_REPRESENTATION_CONTEXT() REPRESENTATION_CONTEXT('2D SPACE',''
  ) );
#137 = PCURVE('',#43,#138);
#138 = DEFINITIONAL_REPRESENTATION('',(#139),#147);
#139 = ( BOUNDED_CURVE() B_SPLINE_CURVE(2,(#140,#141,#142,#143,#144,#145
,#146),.UNSPECIFIED.,.T.,.F.) B_SPLINE_CURVE_WITH_KNOTS((1,2,2,2,2,1),(
    -2.094395102393,0.,2.094395102393,4.188790204786,6.28318530718,
8.377580409573),.UNSPECIFIED.) CURVE() GEOMETRIC_REPRESENTATION_ITEM() 
RATIONAL_B_SPLINE_CURVE((1.,0.5,1.,0.5,1.,0.5,1.)) REPRESENTATION_ITEM(
  '') );
#140 = CARTESIAN_POINT('',(0.,1.));
#141 = CARTESIAN_POINT('',(-1.732050807569,1.));
#142 = CARTESIAN_POINT('',(-0.866025403784,2.5));
#143 = CARTESIAN_POINT('',(-2.449293598295E-16,4.));
#144 = CARTESIAN_POINT('',(0.866025403784,2.5));
#145 = CARTESIAN_POINT('',(1.732050807569,1.));
#146 = CARTESIAN_POINT('',(0.,1.));
#147 = ( GEOMETRIC_REPRESENTATION_CONTEXT(2) 
PARAMETRIC_REPRESENTATION_CONTEXT() REPRESENTATION_CONTEXT('2D SPACE',''
  ) );
#148 = ORIENTED_EDGE('',*,*,#149,.F.);
#149 = EDGE_CURVE('',#150,#117,#152,.T.);
#150 = VERTEX_POINT('',#151);
#151 = CARTESIAN_POINT('',(17.5,-1.E-15,-0.));
#152 = SEAM_CURVE('',#153,(#156,#163),.PCURVE_S1.);
#153 = B_SPLINE_CURVE_WITH_KNOTS('',1,(#154,#155),.UNSPECIFIED.,.F.,.F.,
  (2,2),(-3.1E-16,7.),.PIECEWISE_BEZIER_KNOTS.);
#154 = CARTESIAN_POINT('',(17.5,-3.3E-16,-3.7E-16));
#155 = CARTESIAN_POINT('',(17.5,-7.,-3.7E-16));
#156 = PCURVE('',#126,#157);
#157 = DEFINITIONAL_REPRESENTATION('',(#158),#162);
#158 = LINE('',#159,#160);
#159 = CARTESIAN_POINT('',(3.14159265359,0.));
#160 = VECTOR('',#161,1.);
#161 = DIRECTION('',(0.,1.));
#162 = ( GEOMETRIC_REPRESENTATION_CONTEXT(2) 
PARAMETRIC_REPRESENTATION_CONTEXT() REPRESENTATION_CONTEXT('2D SPACE',''
  ) );
#163 = PCURVE('',#126,#164);
#164 = DEFINITIONAL_REPRESENTATION('',(#165),#169);
#165 = LINE('',#166,#167);
#166 = CARTESIAN_POINT('',(9.424777960769,0.));
#167 = VECTOR('',#168,1.);
#168 = DIRECTION('',(0.,1.));
#169 = ( GEOMETRIC_REPRESENTATION_CONTEXT(2) 
PARAMETRIC_REPRESENTATION_CONTEXT() REPRESENTATION_CONTEXT('2D SPACE',''
  ) );
#170 = ORIENTED_EDGE('',*,*,#171,.T.);
#171 = EDGE_CURVE('',#150,#150,#172,.T.);
#172 = SURFACE_CURVE('',#173,(#178,#185),.PCURVE_S1.);
#173 = CIRCLE('',#174,1.);
#174 = AXIS2_PLACEMENT_3D('',#175,#176,#177);
#175 = CARTESIAN_POINT('',(16.5,-6.9E-16,0.));
#176 = DIRECTION('',(3.7E-16,-1.,0.));
#177 = DIRECTION('',(-1.,-3.7E-16,0.));
#178 = PCURVE('',#126,#179);
#179 = DEFINITIONAL_REPRESENTATION('',(#180),#184);
#180 = LINE('',#181,#182);
#181 = CARTESIAN_POINT('',(0.,-3.1E-16));
#182 = VECTOR('',#183,1.);
#183 = DIRECTION('',(1.,0.));
#184 = ( GEOMETRIC_REPRESENTATION_CONTEXT(2) 
PARAMETRIC_REPRESENTATION_CONTEXT() REPRESENTATION_CONTEXT('2D SPACE',''
  ) );
#185 = PCURVE('',#96,#186);
#186 = DEFINITIONAL_REPRESENTATION('',(#187),#195);
#187 = ( BOUNDED_CURVE() B_SPLINE_CURVE(2,(#188,#189,#190,#191,#192,#193
,#194),.UNSPECIFIED.,.T.,.F.) B_SPLINE_CURVE_WITH_KNOTS((1,2,2,2,2,1),(
    -2.094395102393,0.,2.094395102393,4.188790204786,6.28318530718,
8.377580409573),.UNSPECIFIED.) CURVE() GEOMETRIC_REPRESENTATION_ITEM() 
RATIONAL_B_SPLINE_CURVE((1.,0.5,1.,0.5,1.,0.5,1.)) REPRESENTATION_ITEM(
  '') );
#188 = CARTESIAN_POINT('',(0.,-3.5));
#189 = CARTESIAN_POINT('',(-1.732050807569,-3.5));
#190 = CARTESIAN_POINT('',(-0.866025403784,-2.));
#191 = CARTESIAN_POINT('',(-2.449293598295E-16,-0.5));
#192 = CARTESIAN_POINT('',(0.866025403784,-2.));
#193 = CARTESIAN_POINT('',(1.732050807569,-3.5));
#194 = CARTESIAN_POINT('',(0.,-3.5));
#195 = ( GEOMETRIC_REPRESENTATION_CONTEXT(2) 
PARAMETRIC_REPRESENTATION_CONTEXT() REPRESENTATION_CONTEXT('2D SPACE',''
  ) );
#196 = ORIENTED_EDGE('',*,*,#149,.T.);
#197 = ADVANCED_FACE('',(#198),#211,.T.);
#198 = FACE_BOUND('',#199,.T.);
#199 = EDGE_LOOP('',(#200,#229,#251,#277));
#200 = ORIENTED_EDGE('',*,*,#201,.F.);
#201 = EDGE_CURVE('',#202,#202,#204,.T.);
#202 = VERTEX_POINT('',#203);
#203 = CARTESIAN_POINT('',(19.,-7.,0.));
#204 = SURFACE_CURVE('',#205,(#210,#222),.PCURVE_S1.);
#205 = CIRCLE('',#206,19.);
#206 = AXIS2_PLACEMENT_3D('',#207,#208,#209);
#207 = CARTESIAN_POINT('',(2.57E-15,-7.,0.));
#208 = DIRECTION('',(3.7E-16,-1.,0.));
#209 = DIRECTION('',(1.,3.7E-16,0.));
#210 = PCURVE('',#211,#216);
#211 = CYLINDRICAL_SURFACE('',#212,19.);
#212 = AXIS2_PLACEMENT_3D('',#213,#214,#215);
#213 = CARTESIAN_POINT('',(1.29E-15,-3.5,0.));
#214 = DIRECTION('',(3.7E-16,-1.,0.));
#215 = DIRECTION('',(1.,3.7E-16,0.));
#216 = DEFINITIONAL_REPRESENTATION('',(#217),#221);
#217 = LINE('',#218,#219);
#218 = CARTESIAN_POINT('',(0.,3.5));
#219 = VECTOR('',#220,1.);
#220 = DIRECTION('',(1.,0.));
#221 = ( GEOMETRIC_REPRESENTATION_CONTEXT(2) 
PARAMETRIC_REPRESENTATION_CONTEXT() REPRESENTATION_CONTEXT('2D SPACE',''
  ) );
#222 = PCURVE('',#43,#223);
#223 = DEFINITIONAL_REPRESENTATION('',(#224),#228);
#224 = CIRCLE('',#225,19.);
#225 = AXIS2_PLACEMENT_2D('',#226,#227);
#226 = CARTESIAN_POINT('',(0.,-14.5));
#227 = DIRECTION('',(0.,1.));
#228 = ( GEOMETRIC_REPRESENTATION_CONTEXT(2) 
PARAMETRIC_REPRESENTATION_CONTEXT() REPRESENTATION_CONTEXT('2D SPACE',''
  ) );
#229 = ORIENTED_EDGE('',*,*,#230,.F.);
#230 = EDGE_CURVE('',#231,#202,#233,.T.);
#231 = VERTEX_POINT('',#232);
#232 = CARTESIAN_POINT('',(19.,0.,0.));
#233 = SEAM_CURVE('',#234,(#237,#244),.PCURVE_S1.);
#234 = B_SPLINE_CURVE_WITH_KNOTS('',1,(#235,#236),.UNSPECIFIED.,.F.,.F.,
  (2,2),(-3.5,3.5),.PIECEWISE_BEZIER_KNOTS.);
#235 = CARTESIAN_POINT('',(19.,0.,-4.65E-15));
#236 = CARTESIAN_POINT('',(19.,-7.,-4.65E-15));
#237 = PCURVE('',#211,#238);
#238 = DEFINITIONAL_REPRESENTATION('',(#239),#243);
#239 = LINE('',#240,#241);
#240 = CARTESIAN_POINT('',(0.,0.));
#241 = VECTOR('',#242,1.);
#242 = DIRECTION('',(0.,1.));
#243 = ( GEOMETRIC_REPRESENTATION_CONTEXT(2) 
PARAMETRIC_REPRESENTATION_CONTEXT() REPRESENTATION_CONTEXT('2D SPACE',''
  ) );
#244 = PCURVE('',#211,#245);
#245 = DEFINITIONAL_REPRESENTATION('',(#246),#250);
#246 = LINE('',#247,#248);
#247 = CARTESIAN_POINT('',(6.28318530718,0.));
#248 = VECTOR('',#249,1.);
#249 = DIRECTION('',(0.,1.));
#250 = ( GEOMETRIC_REPRESENTATION_CONTEXT(2) 
PARAMETRIC_REPRESENTATION_CONTEXT() REPRESENTATION_CONTEXT('2D SPACE',''
  ) );
#251 = ORIENTED_EDGE('',*,*,#252,.T.);
#252 = EDGE_CURVE('',#231,#231,#253,.T.);
#253 = SURFACE_CURVE('',#254,(#259,#266),.PCURVE_S1.);
#254 = CIRCLE('',#255,19.);
#255 = AXIS2_PLACEMENT_3D('',#256,#257,#258);
#256 = CARTESIAN_POINT('',(0.,-6.98E-15,0.));
#257 = DIRECTION('',(3.7E-16,-1.,0.));
#258 = DIRECTION('',(1.,3.7E-16,0.));
#259 = PCURVE('',#211,#260);
#260 = DEFINITIONAL_REPRESENTATION('',(#261),#265);
#261 = LINE('',#262,#263);
#262 = CARTESIAN_POINT('',(0.,-3.5));
#263 = VECTOR('',#264,1.);
#264 = DIRECTION('',(1.,0.));
#265 = ( GEOMETRIC_REPRESENTATION_CONTEXT(2) 
PARAMETRIC_REPRESENTATION_CONTEXT() REPRESENTATION_CONTEXT('2D SPACE',''
  ) );
#266 = PCURVE('',#96,#267);
#267 = DEFINITIONAL_REPRESENTATION('',(#268),#276);
#268 = ( BOUNDED_CURVE() B_SPLINE_CURVE(2,(#269,#270,#271,#272,#273,#274
,#275),.UNSPECIFIED.,.T.,.F.) B_SPLINE_CURVE_WITH_KNOTS((1,2,2,2,2,1),(
    -2.094395102393,0.,2.094395102393,4.188790204786,6.28318530718,
8.377580409573),.UNSPECIFIED.) CURVE() GEOMETRIC_REPRESENTATION_ITEM() 
RATIONAL_B_SPLINE_CURVE((1.,0.5,1.,0.5,1.,0.5,1.)) REPRESENTATION_ITEM(
  '') );
#269 = CARTESIAN_POINT('',(0.,0.));
#270 = CARTESIAN_POINT('',(32.908965343809,0.));
#271 = CARTESIAN_POINT('',(16.454482671904,-28.5));
#272 = CARTESIAN_POINT('',(4.65365783676E-15,-57.));
#273 = CARTESIAN_POINT('',(-16.4544826719,-28.5));
#274 = CARTESIAN_POINT('',(-32.9089653438,-2.84217094304E-14));
#275 = CARTESIAN_POINT('',(0.,0.));
#276 = ( GEOMETRIC_REPRESENTATION_CONTEXT(2) 
PARAMETRIC_REPRESENTATION_CONTEXT() REPRESENTATION_CONTEXT('2D SPACE',''
  ) );
#277 = ORIENTED_EDGE('',*,*,#230,.T.);
#278 = ADVANCED_FACE('',(#279,#282,#285,#316),#43,.T.);
#279 = FACE_BOUND('',#280,.T.);
#280 = EDGE_LOOP('',(#281));
#281 = ORIENTED_EDGE('',*,*,#21,.T.);
#282 = FACE_BOUND('',#283,.T.);
#283 = EDGE_LOOP('',(#284));
#284 = ORIENTED_EDGE('',*,*,#116,.T.);
#285 = FACE_BOUND('',#286,.T.);
#286 = EDGE_LOOP('',(#287));
#287 = ORIENTED_EDGE('',*,*,#288,.F.);
#288 = EDGE_CURVE('',#289,#289,#291,.T.);
#289 = VERTEX_POINT('',#290);
#290 = CARTESIAN_POINT('',(14.5,-7.,0.));
#291 = SURFACE_CURVE('',#292,(#297,#304),.PCURVE_S1.);
#292 = CIRCLE('',#293,14.5);
#293 = AXIS2_PLACEMENT_3D('',#294,#295,#296);
#294 = CARTESIAN_POINT('',(2.57E-15,-7.,0.));
#295 = DIRECTION('',(3.7E-16,-1.,0.));
#296 = DIRECTION('',(1.,3.7E-16,0.));
#297 = PCURVE('',#43,#298);
#298 = DEFINITIONAL_REPRESENTATION('',(#299),#303);
#299 = CIRCLE('',#300,14.5);
#300 = AXIS2_PLACEMENT_2D('',#301,#302);
#301 = CARTESIAN_POINT('',(0.,-14.5));
#302 = DIRECTION('',(0.,1.));
#303 = ( GEOMETRIC_REPRESENTATION_CONTEXT(2) 
PARAMETRIC_REPRESENTATION_CONTEXT() REPRESENTATION_CONTEXT('2D SPACE',''
  ) );
#304 = PCURVE('',#305,#310);
#305 = CYLINDRICAL_SURFACE('',#306,14.5);
#306 = AXIS2_PLACEMENT_3D('',#307,#308,#309);
#307 = CARTESIAN_POINT('',(2.85E-15,-7.75,0.));
#308 = DIRECTION('',(3.7E-16,-1.,0.));
#309 = DIRECTION('',(1.,3.7E-16,0.));
#310 = DEFINITIONAL_REPRESENTATION('',(#311),#315);
#311 = LINE('',#312,#313);
#312 = CARTESIAN_POINT('',(0.,-0.75));
#313 = VECTOR('',#314,1.);
#314 = DIRECTION('',(1.,0.));
#315 = ( GEOMETRIC_REPRESENTATION_CONTEXT(2) 
PARAMETRIC_REPRESENTATION_CONTEXT() REPRESENTATION_CONTEXT('2D SPACE',''
  ) );
#316 = FACE_BOUND('',#317,.T.);
#317 = EDGE_LOOP('',(#318));
#318 = ORIENTED_EDGE('',*,*,#201,.T.);
#319 = ADVANCED_FACE('',(#320),#305,.T.);
#320 = FACE_BOUND('',#321,.T.);
#321 = EDGE_LOOP('',(#322,#355,#375,#376));
#322 = ORIENTED_EDGE('',*,*,#323,.F.);
#323 = EDGE_CURVE('',#324,#324,#326,.T.);
#324 = VERTEX_POINT('',#325);
#325 = CARTESIAN_POINT('',(14.5,-8.5,0.));
#326 = SURFACE_CURVE('',#327,(#332,#339),.PCURVE_S1.);
#327 = CIRCLE('',#328,14.5);
#328 = AXIS2_PLACEMENT_3D('',#329,#330,#331);
#329 = CARTESIAN_POINT('',(3.12E-15,-8.5,0.));
#330 = DIRECTION('',(3.7E-16,-1.,0.));
#331 = DIRECTION('',(1.,3.7E-16,0.));
#332 = PCURVE('',#305,#333);
#333 = DEFINITIONAL_REPRESENTATION('',(#334),#338);
#334 = LINE('',#335,#336);
#335 = CARTESIAN_POINT('',(0.,0.75));
#336 = VECTOR('',#337,1.);
#337 = DIRECTION('',(1.,0.));
#338 = ( GEOMETRIC_REPRESENTATION_CONTEXT(2) 
PARAMETRIC_REPRESENTATION_CONTEXT() REPRESENTATION_CONTEXT('2D SPACE',''
  ) );
#339 = PCURVE('',#340,#345);
#340 = PLANE('',#341);
#341 = AXIS2_PLACEMENT_3D('',#342,#343,#344);
#342 = CARTESIAN_POINT('',(19.,-8.5,0.));
#343 = DIRECTION('',(-3.7E-16,1.,0.));
#344 = DIRECTION('',(0.,0.,1.));
#345 = DEFINITIONAL_REPRESENTATION('',(#346),#354);
#346 = ( BOUNDED_CURVE() B_SPLINE_CURVE(2,(#347,#348,#349,#350,#351,#352
,#353),.UNSPECIFIED.,.T.,.F.) B_SPLINE_CURVE_WITH_KNOTS((1,2,2,2,2,1),(
    -2.094395102393,0.,2.094395102393,4.188790204786,6.28318530718,
8.377580409573),.UNSPECIFIED.) CURVE() GEOMETRIC_REPRESENTATION_ITEM() 
RATIONAL_B_SPLINE_CURVE((1.,0.5,1.,0.5,1.,0.5,1.)) REPRESENTATION_ITEM(
  '') );
#347 = CARTESIAN_POINT('',(0.,-4.5));
#348 = CARTESIAN_POINT('',(25.114736709749,-4.5));
#349 = CARTESIAN_POINT('',(12.557368354874,-26.25));
#350 = CARTESIAN_POINT('',(3.551475717527E-15,-48.));
#351 = CARTESIAN_POINT('',(-12.55736835487,-26.25));
#352 = CARTESIAN_POINT('',(-25.11473670974,-4.5));
#353 = CARTESIAN_POINT('',(0.,-4.5));
#354 = ( GEOMETRIC_REPRESENTATION_CONTEXT(2) 
PARAMETRIC_REPRESENTATION_CONTEXT() REPRESENTATION_CONTEXT('2D SPACE',''
  ) );
#355 = ORIENTED_EDGE('',*,*,#356,.F.);
#356 = EDGE_CURVE('',#289,#324,#357,.T.);
#357 = SEAM_CURVE('',#358,(#361,#368),.PCURVE_S1.);
#358 = B_SPLINE_CURVE_WITH_KNOTS('',1,(#359,#360),.UNSPECIFIED.,.F.,.F.,
  (2,2),(-0.75,0.75),.PIECEWISE_BEZIER_KNOTS.);
#359 = CARTESIAN_POINT('',(14.5,-7.,-3.55E-15));
#360 = CARTESIAN_POINT('',(14.5,-8.5,-3.55E-15));
#361 = PCURVE('',#305,#362);
#362 = DEFINITIONAL_REPRESENTATION('',(#363),#367);
#363 = LINE('',#364,#365);
#364 = CARTESIAN_POINT('',(0.,0.));
#365 = VECTOR('',#366,1.);
#366 = DIRECTION('',(0.,1.));
#367 = ( GEOMETRIC_REPRESENTATION_CONTEXT(2) 
PARAMETRIC_REPRESENTATION_CONTEXT() REPRESENTATION_CONTEXT('2D SPACE',''
  ) );
#368 = PCURVE('',#305,#369);
#369 = DEFINITIONAL_REPRESENTATION('',(#370),#374);
#370 = LINE('',#371,#372);
#371 = CARTESIAN_POINT('',(6.28318530718,0.));
#372 = VECTOR('',#373,1.);
#373 = DIRECTION('',(0.,1.));
#374 = ( GEOMETRIC_REPRESENTATION_CONTEXT(2) 
PARAMETRIC_REPRESENTATION_CONTEXT() REPRESENTATION_CONTEXT('2D SPACE',''
  ) );
#375 = ORIENTED_EDGE('',*,*,#288,.T.);
#376 = ORIENTED_EDGE('',*,*,#356,.T.);
#377 = ADVANCED_FACE('',(#378,#413),#340,.T.);
#378 = FACE_BOUND('',#379,.T.);
#379 = EDGE_LOOP('',(#380));
#380 = ORIENTED_EDGE('',*,*,#381,.F.);
#381 = EDGE_CURVE('',#382,#382,#384,.T.);
#382 = VERTEX_POINT('',#383);
#383 = CARTESIAN_POINT('',(19.,-8.5,0.));
#384 = SURFACE_CURVE('',#385,(#390,#401),.PCURVE_S1.);
#385 = CIRCLE('',#386,19.);
#386 = AXIS2_PLACEMENT_3D('',#387,#388,#389);
#387 = CARTESIAN_POINT('',(3.12E-15,-8.5,0.));
#388 = DIRECTION('',(3.7E-16,-1.,0.));
#389 = DIRECTION('',(1.,3.7E-16,0.));
#390 = PCURVE('',#340,#391);
#391 = DEFINITIONAL_REPRESENTATION('',(#392),#400);
#392 = ( BOUNDED_CURVE() B_SPLINE_CURVE(2,(#393,#394,#395,#396,#397,#398
,#399),.UNSPECIFIED.,.T.,.F.) B_SPLINE_CURVE_WITH_KNOTS((1,2,2,2,2,1),(
    -2.094395102393,0.,2.094395102393,4.188790204786,6.28318530718,
8.377580409573),.UNSPECIFIED.) CURVE() GEOMETRIC_REPRESENTATION_ITEM() 
RATIONAL_B_SPLINE_CURVE((1.,0.5,1.,0.5,1.,0.5,1.)) REPRESENTATION_ITEM(
  '') );
#393 = CARTESIAN_POINT('',(0.,3.552713678801E-15));
#394 = CARTESIAN_POINT('',(32.908965343809,3.552713678801E-15));
#395 = CARTESIAN_POINT('',(16.454482671904,-28.5));
#396 = CARTESIAN_POINT('',(4.65365783676E-15,-57.));
#397 = CARTESIAN_POINT('',(-16.4544826719,-28.5));
#398 = CARTESIAN_POINT('',(-32.9089653438,-2.48689957516E-14));
#399 = CARTESIAN_POINT('',(0.,3.552713678801E-15));
#400 = ( GEOMETRIC_REPRESENTATION_CONTEXT(2) 
PARAMETRIC_REPRESENTATION_CONTEXT() REPRESENTATION_CONTEXT('2D SPACE',''
  ) );
#401 = PCURVE('',#402,#407);
#402 = CYLINDRICAL_SURFACE('',#403,19.);
#403 = AXIS2_PLACEMENT_3D('',#404,#405,#406);
#404 = CARTESIAN_POINT('',(3.58E-15,-9.75,0.));
#405 = DIRECTION('',(3.7E-16,-1.,0.));
#406 = DIRECTION('',(1.,3.7E-16,0.));
#407 = DEFINITIONAL_REPRESENTATION('',(#408),#412);
#408 = LINE('',#409,#410);
#409 = CARTESIAN_POINT('',(0.,-1.25));
#410 = VECTOR('',#411,1.);
#411 = DIRECTION('',(1.,0.));
#412 = ( GEOMETRIC_REPRESENTATION_CONTEXT(2) 
PARAMETRIC_REPRESENTATION_CONTEXT() REPRESENTATION_CONTEXT('2D SPACE',''
  ) );
#413 = FACE_BOUND('',#414,.T.);
#414 = EDGE_LOOP('',(#415));
#415 = ORIENTED_EDGE('',*,*,#323,.T.);
#416 = ADVANCED_FACE('',(#417),#402,.T.);
#417 = FACE_BOUND('',#418,.T.);
#418 = EDGE_LOOP('',(#419,#448,#468,#469));
#419 = ORIENTED_EDGE('',*,*,#420,.F.);
#420 = EDGE_CURVE('',#421,#421,#423,.T.);
#421 = VERTEX_POINT('',#422);
#422 = CARTESIAN_POINT('',(19.,-11.,0.));
#423 = SURFACE_CURVE('',#424,(#429,#436),.PCURVE_S1.);
#424 = CIRCLE('',#425,19.);
#425 = AXIS2_PLACEMENT_3D('',#426,#427,#428);
#426 = CARTESIAN_POINT('',(4.04E-15,-11.,0.));
#427 = DIRECTION('',(3.7E-16,-1.,0.));
#428 = DIRECTION('',(1.,3.7E-16,0.));
#429 = PCURVE('',#402,#430);
#430 = DEFINITIONAL_REPRESENTATION('',(#431),#435);
#431 = LINE('',#432,#433);
#432 = CARTESIAN_POINT('',(0.,1.25));
#433 = VECTOR('',#434,1.);
#434 = DIRECTION('',(1.,0.));
#435 = ( GEOMETRIC_REPRESENTATION_CONTEXT(2) 
PARAMETRIC_REPRESENTATION_CONTEXT() REPRESENTATION_CONTEXT('2D SPACE',''
  ) );
#436 = PCURVE('',#437,#442);
#437 = PLANE('',#438);
#438 = AXIS2_PLACEMENT_3D('',#439,#440,#441);
#439 = CARTESIAN_POINT('',(15.,-11.,0.));
#440 = DIRECTION('',(3.7E-16,-1.,0.));
#441 = DIRECTION('',(0.,0.,-1.));
#442 = DEFINITIONAL_REPRESENTATION('',(#443),#447);
#443 = CIRCLE('',#444,19.);
#444 = AXIS2_PLACEMENT_2D('',#445,#446);
#445 = CARTESIAN_POINT('',(0.,-15.));
#446 = DIRECTION('',(0.,1.));
#447 = ( GEOMETRIC_REPRESENTATION_CONTEXT(2) 
PARAMETRIC_REPRESENTATION_CONTEXT() REPRESENTATION_CONTEXT('2D SPACE',''
  ) );
#448 = ORIENTED_EDGE('',*,*,#449,.F.);
#449 = EDGE_CURVE('',#382,#421,#450,.T.);
#450 = SEAM_CURVE('',#451,(#454,#461),.PCURVE_S1.);
#451 = B_SPLINE_CURVE_WITH_KNOTS('',1,(#452,#453),.UNSPECIFIED.,.F.,.F.,
  (2,2),(-1.25,1.25),.PIECEWISE_BEZIER_KNOTS.);
#452 = CARTESIAN_POINT('',(19.,-8.5,-4.65E-15));
#453 = CARTESIAN_POINT('',(19.,-11.,-4.65E-15));
#454 = PCURVE('',#402,#455);
#455 = DEFINITIONAL_REPRESENTATION('',(#456),#460);
#456 = LINE('',#457,#458);
#457 = CARTESIAN_POINT('',(0.,0.));
#458 = VECTOR('',#459,1.);
#459 = DIRECTION('',(0.,1.));
#460 = ( GEOMETRIC_REPRESENTATION_CONTEXT(2) 
PARAMETRIC_REPRESENTATION_CONTEXT() REPRESENTATION_CONTEXT('2D SPACE',''
  ) );
#461 = PCURVE('',#402,#462);
#462 = DEFINITIONAL_REPRESENTATION('',(#463),#467);
#463 = LINE('',#464,#465);
#464 = CARTESIAN_POINT('',(6.28318530718,0.));
#465 = VECTOR('',#466,1.);
#466 = DIRECTION('',(0.,1.));
#467 = ( GEOMETRIC_REPRESENTATION_CONTEXT(2) 
PARAMETRIC_REPRESENTATION_CONTEXT() REPRESENTATION_CONTEXT('2D SPACE',''
  ) );
#468 = ORIENTED_EDGE('',*,*,#381,.T.);
#469 = ORIENTED_EDGE('',*,*,#449,.T.);
#470 = ADVANCED_FACE('',(#471,#502),#437,.T.);
#471 = FACE_BOUND('',#472,.T.);
#472 = EDGE_LOOP('',(#473));
#473 = ORIENTED_EDGE('',*,*,#474,.F.);
#474 = EDGE_CURVE('',#475,#475,#477,.T.);
#475 = VERTEX_POINT('',#476);
#476 = CARTESIAN_POINT('',(15.,-11.,0.));
#477 = SURFACE_CURVE('',#478,(#483,#490),.PCURVE_S1.);
#478 = CIRCLE('',#479,15.);
#479 = AXIS2_PLACEMENT_3D('',#480,#481,#482);
#480 = CARTESIAN_POINT('',(4.04E-15,-11.,0.));
#481 = DIRECTION('',(3.7E-16,-1.,0.));
#482 = DIRECTION('',(1.,3.7E-16,0.));
#483 = PCURVE('',#437,#484);
#484 = DEFINITIONAL_REPRESENTATION('',(#485),#489);
#485 = CIRCLE('',#486,15.);
#486 = AXIS2_PLACEMENT_2D('',#487,#488);
#487 = CARTESIAN_POINT('',(0.,-15.));
#488 = DIRECTION('',(0.,1.));
#489 = ( GEOMETRIC_REPRESENTATION_CONTEXT(2) 
PARAMETRIC_REPRESENTATION_CONTEXT() REPRESENTATION_CONTEXT('2D SPACE',''
  ) );
#490 = PCURVE('',#491,#496);
#491 = CONICAL_SURFACE('',#492,8.5,1.380808038881);
#492 = AXIS2_PLACEMENT_3D('',#493,#494,#495);
#493 = CARTESIAN_POINT('',(3.58E-15,-9.75,0.));
#494 = DIRECTION('',(3.7E-16,-1.,0.));
#495 = DIRECTION('',(1.,3.7E-16,0.));
#496 = DEFINITIONAL_REPRESENTATION('',(#497),#501);
#497 = LINE('',#498,#499);
#498 = CARTESIAN_POINT('',(0.,1.249999999971));
#499 = VECTOR('',#500,1.);
#500 = DIRECTION('',(1.,0.));
#501 = ( GEOMETRIC_REPRESENTATION_CONTEXT(2) 
PARAMETRIC_REPRESENTATION_CONTEXT() REPRESENTATION_CONTEXT('2D SPACE',''
  ) );
#502 = FACE_BOUND('',#503,.T.);
#503 = EDGE_LOOP('',(#504));
#504 = ORIENTED_EDGE('',*,*,#420,.T.);
#505 = ADVANCED_FACE('',(#506),#491,.F.);
#506 = FACE_BOUND('',#507,.F.);
#507 = EDGE_LOOP('',(#508,#561,#605,#625,#626));
#508 = ORIENTED_EDGE('',*,*,#509,.T.);
#509 = EDGE_CURVE('',#510,#512,#514,.T.);
#510 = VERTEX_POINT('',#511);
#511 = CARTESIAN_POINT('',(2.,-8.5,0.));
#512 = VERTEX_POINT('',#513);
#513 = CARTESIAN_POINT('',(2.E-15,-8.5,-2.));
#514 = SURFACE_CURVE('',#515,(#520,#527),.PCURVE_S1.);
#515 = CIRCLE('',#516,2.);
#516 = AXIS2_PLACEMENT_3D('',#517,#518,#519);
#517 = CARTESIAN_POINT('',(3.12E-15,-8.5,0.));
#518 = DIRECTION('',(3.7E-16,-1.,0.));
#519 = DIRECTION('',(1.,3.7E-16,0.));
#520 = PCURVE('',#491,#521);
#521 = DEFINITIONAL_REPRESENTATION('',(#522),#526);
#522 = LINE('',#523,#524);
#523 = CARTESIAN_POINT('',(0.,-1.249999999971));
#524 = VECTOR('',#525,1.);
#525 = DIRECTION('',(1.,0.));
#526 = ( GEOMETRIC_REPRESENTATION_CONTEXT(2) 
PARAMETRIC_REPRESENTATION_CONTEXT() REPRESENTATION_CONTEXT('2D SPACE',''
  ) );
#527 = PCURVE('',#528,#533);
#528 = SPHERICAL_SURFACE('',#529,2.);
#529 = AXIS2_PLACEMENT_3D('',#530,#531,#532);
#530 = CARTESIAN_POINT('',(1.84E-15,-8.5,0.));
#531 = DIRECTION('',(0.,1.,-6.E-17));
#532 = DIRECTION('',(0.,-6.E-17,-1.));
#533 = DEFINITIONAL_REPRESENTATION('',(#534),#560);
#534 = B_SPLINE_CURVE_WITH_KNOTS('',3,(#535,#536,#537,#538,#539,#540,
    #541,#542,#543,#544,#545,#546,#547,#548,#549,#550,#551,#552,#553,
    #554,#555,#556,#557,#558,#559),.UNSPECIFIED.,.F.,.F.,(4,1,1,1,1,1,1,
    1,1,1,1,1,1,1,1,1,1,1,1,1,1,1,4),(0.,0.285599332145,0.571198664289,
    0.856797996434,1.142397328578,1.427996660723,1.713595992867,
    1.999195325012,2.284794657156,2.570393989301,2.855993321445,
    3.14159265359,3.427191985734,3.712791317879,3.998390650023,
    4.283989982168,4.569589314312,4.855188646457,5.140787978601,
    5.426387310746,5.711986642891,5.997585975035,6.28318530718),
  .QUASI_UNIFORM_KNOTS.);
#535 = CARTESIAN_POINT('',(4.712388980385,0.));
#536 = CARTESIAN_POINT('',(4.617189203003,0.));
#537 = CARTESIAN_POINT('',(4.42678964824,0.));
#538 = CARTESIAN_POINT('',(4.141190316096,0.));
#539 = CARTESIAN_POINT('',(3.855590983951,0.));
#540 = CARTESIAN_POINT('',(3.569991651807,0.));
#541 = CARTESIAN_POINT('',(3.284392319662,0.));
#542 = CARTESIAN_POINT('',(2.998792987518,0.));
#543 = CARTESIAN_POINT('',(2.713193655373,0.));
#544 = CARTESIAN_POINT('',(2.427594323228,0.));
#545 = CARTESIAN_POINT('',(2.141994991084,0.));
#546 = CARTESIAN_POINT('',(1.856395658939,0.));
#547 = CARTESIAN_POINT('',(1.570796326795,0.));
#548 = CARTESIAN_POINT('',(1.28519699465,0.));
#549 = CARTESIAN_POINT('',(0.999597662506,0.));
#550 = CARTESIAN_POINT('',(0.713998330361,0.));
#551 = CARTESIAN_POINT('',(0.428398998217,0.));
#552 = CARTESIAN_POINT('',(0.142799666072,0.));
#553 = CARTESIAN_POINT('',(-0.142799666072,0.));
#554 = CARTESIAN_POINT('',(-0.428398998217,0.));
#555 = CARTESIAN_POINT('',(-0.713998330361,0.));
#556 = CARTESIAN_POINT('',(-0.999597662506,0.));
#557 = CARTESIAN_POINT('',(-1.28519699465,0.));
#558 = CARTESIAN_POINT('',(-1.475596549413,0.));
#559 = CARTESIAN_POINT('',(-1.570796326795,0.));
#560 = ( GEOMETRIC_REPRESENTATION_CONTEXT(2) 
PARAMETRIC_REPRESENTATION_CONTEXT() REPRESENTATION_CONTEXT('2D SPACE',''
  ) );
#561 = ORIENTED_EDGE('',*,*,#562,.T.);
#562 = EDGE_CURVE('',#512,#510,#563,.T.);
#563 = SURFACE_CURVE('',#564,(#569,#576),.PCURVE_S1.);
#564 = CIRCLE('',#565,2.);
#565 = AXIS2_PLACEMENT_3D('',#566,#567,#568);
#566 = CARTESIAN_POINT('',(3.12E-15,-8.5,0.));
#567 = DIRECTION('',(3.7E-16,-1.,0.));
#568 = DIRECTION('',(1.,3.7E-16,0.));
#569 = PCURVE('',#491,#570);
#570 = DEFINITIONAL_REPRESENTATION('',(#571),#575);
#571 = LINE('',#572,#573);
#572 = CARTESIAN_POINT('',(0.,-1.249999999971));
#573 = VECTOR('',#574,1.);
#574 = DIRECTION('',(1.,0.));
#575 = ( GEOMETRIC_REPRESENTATION_CONTEXT(2) 
PARAMETRIC_REPRESENTATION_CONTEXT() REPRESENTATION_CONTEXT('2D SPACE',''
  ) );
#576 = PCURVE('',#528,#577);
#577 = DEFINITIONAL_REPRESENTATION('',(#578),#604);
#578 = B_SPLINE_CURVE_WITH_KNOTS('',3,(#579,#580,#581,#582,#583,#584,
    #585,#586,#587,#588,#589,#590,#591,#592,#593,#594,#595,#596,#597,
    #598,#599,#600,#601,#602,#603),.UNSPECIFIED.,.F.,.F.,(4,1,1,1,1,1,1,
    1,1,1,1,1,1,1,1,1,1,1,1,1,1,1,4),(0.,0.285599332145,0.571198664289,
    0.856797996434,1.142397328578,1.427996660723,1.713595992867,
    1.999195325012,2.284794657156,2.570393989301,2.855993321445,
    3.14159265359,3.427191985734,3.712791317879,3.998390650023,
    4.283989982168,4.569589314312,4.855188646457,5.140787978601,
    5.426387310746,5.711986642891,5.997585975035,6.28318530718),
  .QUASI_UNIFORM_KNOTS.);
#579 = CARTESIAN_POINT('',(10.995574287564,0.));
#580 = CARTESIAN_POINT('',(10.900374510183,0.));
#581 = CARTESIAN_POINT('',(10.70997495542,0.));
#582 = CARTESIAN_POINT('',(10.424375623275,0.));
#583 = CARTESIAN_POINT('',(10.138776291131,0.));
#584 = CARTESIAN_POINT('',(9.853176958986,0.));
#585 = CARTESIAN_POINT('',(9.567577626842,0.));
#586 = CARTESIAN_POINT('',(9.281978294697,0.));
#587 = CARTESIAN_POINT('',(8.996378962553,0.));
#588 = CARTESIAN_POINT('',(8.710779630408,0.));
#589 = CARTESIAN_POINT('',(8.425180298264,0.));
#590 = CARTESIAN_POINT('',(8.139580966119,0.));
#591 = CARTESIAN_POINT('',(7.853981633974,0.));
#592 = CARTESIAN_POINT('',(7.56838230183,0.));
#593 = CARTESIAN_POINT('',(7.282782969685,0.));
#594 = CARTESIAN_POINT('',(6.997183637541,0.));
#595 = CARTESIAN_POINT('',(6.711584305396,0.));
#596 = CARTESIAN_POINT('',(6.425984973252,0.));
#597 = CARTESIAN_POINT('',(6.140385641107,0.));
#598 = CARTESIAN_POINT('',(5.854786308963,0.));
#599 = CARTESIAN_POINT('',(5.569186976818,0.));
#600 = CARTESIAN_POINT('',(5.283587644674,0.));
#601 = CARTESIAN_POINT('',(4.997988312529,0.));
#602 = CARTESIAN_POINT('',(4.807588757766,0.));
#603 = CARTESIAN_POINT('',(4.712388980385,0.));
#604 = ( GEOMETRIC_REPRESENTATION_CONTEXT(2) 
PARAMETRIC_REPRESENTATION_CONTEXT() REPRESENTATION_CONTEXT('2D SPACE',''
  ) );
#605 = ORIENTED_EDGE('',*,*,#606,.T.);
#606 = EDGE_CURVE('',#510,#475,#607,.T.);
#607 = SEAM_CURVE('',#608,(#611,#618),.PCURVE_S1.);
#608 = B_SPLINE_CURVE_WITH_KNOTS('',1,(#609,#610),.UNSPECIFIED.,.F.,.F.,
  (2,2),(-6.619101147437,6.619101147437),.PIECEWISE_BEZIER_KNOTS.);
#609 = CARTESIAN_POINT('',(1.999999999994,-8.500000000029,0.));
#610 = CARTESIAN_POINT('',(15.000000000006,-10.99999999997,0.));
#611 = PCURVE('',#491,#612);
#612 = DEFINITIONAL_REPRESENTATION('',(#613),#617);
#613 = LINE('',#614,#615);
#614 = CARTESIAN_POINT('',(6.28318530718,0.));
#615 = VECTOR('',#616,1.);
#616 = DIRECTION('',(0.,1.));
#617 = ( GEOMETRIC_REPRESENTATION_CONTEXT(2) 
PARAMETRIC_REPRESENTATION_CONTEXT() REPRESENTATION_CONTEXT('2D SPACE',''
  ) );
#618 = PCURVE('',#491,#619);
#619 = DEFINITIONAL_REPRESENTATION('',(#620),#624);
#620 = LINE('',#621,#622);
#621 = CARTESIAN_POINT('',(0.,0.));
#622 = VECTOR('',#623,1.);
#623 = DIRECTION('',(0.,1.));
#624 = ( GEOMETRIC_REPRESENTATION_CONTEXT(2) 
PARAMETRIC_REPRESENTATION_CONTEXT() REPRESENTATION_CONTEXT('2D SPACE',''
  ) );
#625 = ORIENTED_EDGE('',*,*,#474,.F.);
#626 = ORIENTED_EDGE('',*,*,#606,.F.);
#627 = ADVANCED_FACE('',(#628),#528,.T.);
#628 = FACE_BOUND('',#629,.T.);
#629 = EDGE_LOOP('',(#630,#631,#658,#659));
#630 = ORIENTED_EDGE('',*,*,#509,.T.);
#631 = ORIENTED_EDGE('',*,*,#632,.F.);
#632 = EDGE_CURVE('',#633,#512,#635,.T.);
#633 = VERTEX_POINT('',#634);
#634 = CARTESIAN_POINT('',(2.E-15,-10.5,-0.));
#635 = SEAM_CURVE('',#636,(#644,#651),.PCURVE_S1.);
#636 = B_SPLINE_CURVE_WITH_KNOTS('',6,(#637,#638,#639,#640,#641,#642,
    #643),.UNSPECIFIED.,.F.,.F.,(7,7),(-1.570796326795,0.),
  .PIECEWISE_BEZIER_KNOTS.);
#637 = CARTESIAN_POINT('',(1.84E-15,-10.5,0.));
#638 = CARTESIAN_POINT('',(1.97E-15,-10.5,-0.523598775598));
#639 = CARTESIAN_POINT('',(2.1E-15,-10.33554462796,-1.04715300141));
#640 = CARTESIAN_POINT('',(2.21E-15,-10.00638029928,-1.50638029928));
#641 = CARTESIAN_POINT('',(2.29E-15,-9.54715300141,-1.835544627959));
#642 = CARTESIAN_POINT('',(2.33E-15,-9.023598775598,-2.));
#643 = CARTESIAN_POINT('',(2.33E-15,-8.5,-2.));
#644 = PCURVE('',#528,#645);
#645 = DEFINITIONAL_REPRESENTATION('',(#646),#650);
#646 = LINE('',#647,#648);
#647 = CARTESIAN_POINT('',(0.,0.));
#648 = VECTOR('',#649,1.);
#649 = DIRECTION('',(0.,1.));
#650 = ( GEOMETRIC_REPRESENTATION_CONTEXT(2) 
PARAMETRIC_REPRESENTATION_CONTEXT() REPRESENTATION_CONTEXT('2D SPACE',''
  ) );
#651 = PCURVE('',#528,#652);
#652 = DEFINITIONAL_REPRESENTATION('',(#653),#657);
#653 = LINE('',#654,#655);
#654 = CARTESIAN_POINT('',(6.28318530718,0.));
#655 = VECTOR('',#656,1.);
#656 = DIRECTION('',(0.,1.));
#657 = ( GEOMETRIC_REPRESENTATION_CONTEXT(2) 
PARAMETRIC_REPRESENTATION_CONTEXT() REPRESENTATION_CONTEXT('2D SPACE',''
  ) );
#658 = ORIENTED_EDGE('',*,*,#632,.T.);
#659 = ORIENTED_EDGE('',*,*,#562,.T.);
#660 = ADVANCED_FACE('',(#661,#664,#667),#96,.T.);
#661 = FACE_BOUND('',#662,.T.);
#662 = EDGE_LOOP('',(#663));
#663 = ORIENTED_EDGE('',*,*,#81,.T.);
#664 = FACE_BOUND('',#665,.T.);
#665 = EDGE_LOOP('',(#666));
#666 = ORIENTED_EDGE('',*,*,#171,.T.);
#667 = FACE_BOUND('',#668,.T.);
#668 = EDGE_LOOP('',(#669));
#669 = ORIENTED_EDGE('',*,*,#252,.F.);
#670 = ( GEOMETRIC_REPRESENTATION_CONTEXT(3) 
GLOBAL_UNCERTAINTY_ASSIGNED_CONTEXT((#674)) GLOBAL_UNIT_ASSIGNED_CONTEXT
((#671,#672,#673)) REPRESENTATION_CONTEXT('Context #1',
  '3D Context with UNIT and UNCERTAINTY') );
#671 = ( LENGTH_UNIT() NAMED_UNIT(*) SI_UNIT(.MILLI.,.METRE.) );
#672 = ( NAMED_UNIT(*) PLANE_ANGLE_UNIT() SI_UNIT($,.RADIAN.) );
#673 = ( NAMED_UNIT(*) SI_UNIT($,.STERADIAN.) SOLID_ANGLE_UNIT() );
#674 = UNCERTAINTY_MEASURE_WITH_UNIT(LENGTH_MEASURE(1.E-05),#671,
  'distance_accuracy_value','confusion accuracy');
#675 = PRODUCT_RELATED_PRODUCT_CATEGORY('part',$,(#7));
#676 = MECHANICAL_DESIGN_GEOMETRIC_PRESENTATION_REPRESENTATION('',(#677,
    #688,#696),#670);
#677 = STYLED_ITEM('color',(#678),#15);
#678 = PRESENTATION_STYLE_ASSIGNMENT((#679,#685));
#679 = SURFACE_STYLE_USAGE(.BOTH.,#680);
#680 = SURFACE_SIDE_STYLE('',(#681));
#681 = SURFACE_STYLE_FILL_AREA(#682);
#682 = FILL_AREA_STYLE('',(#683));
#683 = FILL_AREA_STYLE_COLOUR('',#684);
#684 = COLOUR_RGB('',0.749019635948,0.749019635948,0.749019635948);
#685 = CURVE_STYLE('',#686,POSITIVE_LENGTH_MEASURE(0.1),#687);
#686 = DRAUGHTING_PRE_DEFINED_CURVE_FONT('continuous');
#687 = COLOUR_RGB('',9.803921802644E-02,9.803921802644E-02,
  9.803921802644E-02);
#688 = OVER_RIDING_STYLED_ITEM('overriding color',(#689),#505,#677);
#689 = PRESENTATION_STYLE_ASSIGNMENT((#690));
#690 = SURFACE_STYLE_USAGE(.BOTH.,#691);
#691 = SURFACE_SIDE_STYLE('',(#692));
#692 = SURFACE_STYLE_FILL_AREA(#693);
#693 = FILL_AREA_STYLE('',(#694));
#694 = FILL_AREA_STYLE_COLOUR('',#695);
#695 = COLOUR_RGB('',0.960784305148,0.960784305148,0.960784305148);
#696 = OVER_RIDING_STYLED_ITEM('overriding color',(#697),#627,#677);
#697 = PRESENTATION_STYLE_ASSIGNMENT((#698));
#698 = SURFACE_STYLE_USAGE(.BOTH.,#699);
#699 = SURFACE_SIDE_STYLE('',(#700));
#700 = SURFACE_STYLE_FILL_AREA(#701);
#701 = FILL_AREA_STYLE('',(#702));
#702 = FILL_AREA_STYLE_COLOUR('',#695);
ENDSEC;
END-ISO-10303-21;
