ISO-10303-21;
HEADER;
/* Generated by software containing ST-Developer
 * from STEP Tools, Inc. (www.steptools.com) 
 */

FILE_DESCRIPTION(
/* description */ (''),
/* implementation_level */ '2;1');

FILE_NAME(
/* name */ 
'C:\\Users\\SvenW\\Documents\\inventor\\B-Automaten\\Export_B_Automate
n\\ExportGithub\\LED-Bel.stp',
/* time_stamp */ '2026-05-14T08:07:47+02:00',
/* author */ ('SvenW'),
/* organization */ (''),
/* preprocessor_version */ 'ST-DEVELOPER v15.2',
/* originating_system */ 'Autodesk Inventor 2014',
/* authorisation */ '');

FILE_SCHEMA (('AUTOMOTIVE_DESIGN { 1 0 10303 214 3 1 1 }'));
ENDSEC;

DATA;
#10=MECHANICAL_DESIGN_GEOMETRIC_PRESENTATION_REPRESENTATION('',(#16,#15,
#17),#259);
#11=SHAPE_REPRESENTATION_RELATIONSHIP('SRR','None',#268,#12);
#12=ADVANCED_BREP_SHAPE_REPRESENTATION($,(#147),#258);
#13=SPHERICAL_SURFACE('',#170,2.);
#14=CONICAL_SURFACE('',#168,8.5,79.1144729453413);
#15=STYLED_ITEM('',(#278),#143);
#16=STYLED_ITEM('',(#278),#144);
#17=STYLED_ITEM('',(#277),#147);
#18=PLANE('',#158);
#19=PLANE('',#162);
#20=PLANE('',#166);
#21=PLANE('',#171);
#22=FACE_BOUND('',#47,.T.);
#23=FACE_BOUND('',#49,.T.);
#24=FACE_BOUND('',#51,.T.);
#25=FACE_BOUND('',#52,.T.);
#26=FACE_BOUND('',#53,.T.);
#27=FACE_BOUND('',#54,.T.);
#28=FACE_BOUND('',#55,.T.);
#29=FACE_BOUND('',#57,.T.);
#30=FACE_BOUND('',#59,.T.);
#31=FACE_BOUND('',#61,.T.);
#32=FACE_BOUND('',#62,.T.);
#33=FACE_BOUND('',#63,.T.);
#34=FACE_BOUND('',#65,.T.);
#35=FACE_BOUND('',#67,.T.);
#36=FACE_BOUND('',#68,.T.);
#37=FACE_BOUND('',#69,.T.);
#38=FACE_OUTER_BOUND('',#46,.T.);
#39=FACE_OUTER_BOUND('',#48,.T.);
#40=FACE_OUTER_BOUND('',#50,.T.);
#41=FACE_OUTER_BOUND('',#56,.T.);
#42=FACE_OUTER_BOUND('',#58,.T.);
#43=FACE_OUTER_BOUND('',#60,.T.);
#44=FACE_OUTER_BOUND('',#64,.T.);
#45=FACE_OUTER_BOUND('',#66,.T.);
#46=EDGE_LOOP('',(#106));
#47=EDGE_LOOP('',(#107));
#48=EDGE_LOOP('',(#108));
#49=EDGE_LOOP('',(#109));
#50=EDGE_LOOP('',(#110));
#51=EDGE_LOOP('',(#111));
#52=EDGE_LOOP('',(#112));
#53=EDGE_LOOP('',(#113));
#54=EDGE_LOOP('',(#114));
#55=EDGE_LOOP('',(#115));
#56=EDGE_LOOP('',(#116));
#57=EDGE_LOOP('',(#117));
#58=EDGE_LOOP('',(#118));
#59=EDGE_LOOP('',(#119));
#60=EDGE_LOOP('',(#120));
#61=EDGE_LOOP('',(#121));
#62=EDGE_LOOP('',(#122));
#63=EDGE_LOOP('',(#123));
#64=EDGE_LOOP('',(#124));
#65=EDGE_LOOP('',(#125));
#66=EDGE_LOOP('',(#126));
#67=EDGE_LOOP('',(#127));
#68=EDGE_LOOP('',(#128));
#69=EDGE_LOOP('',(#129));
#70=CIRCLE('',#150,1.);
#71=CIRCLE('',#151,1.);
#72=CIRCLE('',#153,1.);
#73=CIRCLE('',#154,1.);
#74=CIRCLE('',#156,19.);
#75=CIRCLE('',#157,19.);
#76=CIRCLE('',#159,14.5);
#77=CIRCLE('',#161,14.5);
#78=CIRCLE('',#163,19.);
#79=CIRCLE('',#165,19.);
#80=CIRCLE('',#167,15.);
#81=CIRCLE('',#169,2.);
#82=VERTEX_POINT('',#222);
#83=VERTEX_POINT('',#224);
#84=VERTEX_POINT('',#227);
#85=VERTEX_POINT('',#229);
#86=VERTEX_POINT('',#232);
#87=VERTEX_POINT('',#234);
#88=VERTEX_POINT('',#237);
#89=VERTEX_POINT('',#240);
#90=VERTEX_POINT('',#243);
#91=VERTEX_POINT('',#246);
#92=VERTEX_POINT('',#249);
#93=VERTEX_POINT('',#252);
#94=EDGE_CURVE('',#82,#82,#70,.T.);
#95=EDGE_CURVE('',#83,#83,#71,.T.);
#96=EDGE_CURVE('',#84,#84,#72,.T.);
#97=EDGE_CURVE('',#85,#85,#73,.T.);
#98=EDGE_CURVE('',#86,#86,#74,.T.);
#99=EDGE_CURVE('',#87,#87,#75,.T.);
#100=EDGE_CURVE('',#88,#88,#76,.T.);
#101=EDGE_CURVE('',#89,#89,#77,.T.);
#102=EDGE_CURVE('',#90,#90,#78,.T.);
#103=EDGE_CURVE('',#91,#91,#79,.T.);
#104=EDGE_CURVE('',#92,#92,#80,.T.);
#105=EDGE_CURVE('',#93,#93,#81,.T.);
#106=ORIENTED_EDGE('',*,*,#94,.F.);
#107=ORIENTED_EDGE('',*,*,#95,.F.);
#108=ORIENTED_EDGE('',*,*,#96,.F.);
#109=ORIENTED_EDGE('',*,*,#97,.F.);
#110=ORIENTED_EDGE('',*,*,#98,.F.);
#111=ORIENTED_EDGE('',*,*,#99,.T.);
#112=ORIENTED_EDGE('',*,*,#94,.T.);
#113=ORIENTED_EDGE('',*,*,#96,.T.);
#114=ORIENTED_EDGE('',*,*,#100,.F.);
#115=ORIENTED_EDGE('',*,*,#98,.T.);
#116=ORIENTED_EDGE('',*,*,#101,.F.);
#117=ORIENTED_EDGE('',*,*,#100,.T.);
#118=ORIENTED_EDGE('',*,*,#102,.F.);
#119=ORIENTED_EDGE('',*,*,#101,.T.);
#120=ORIENTED_EDGE('',*,*,#103,.F.);
#121=ORIENTED_EDGE('',*,*,#102,.T.);
#122=ORIENTED_EDGE('',*,*,#104,.F.);
#123=ORIENTED_EDGE('',*,*,#103,.T.);
#124=ORIENTED_EDGE('',*,*,#105,.F.);
#125=ORIENTED_EDGE('',*,*,#104,.T.);
#126=ORIENTED_EDGE('',*,*,#105,.T.);
#127=ORIENTED_EDGE('',*,*,#95,.T.);
#128=ORIENTED_EDGE('',*,*,#97,.T.);
#129=ORIENTED_EDGE('',*,*,#99,.F.);
#130=CYLINDRICAL_SURFACE('',#149,1.);
#131=CYLINDRICAL_SURFACE('',#152,1.);
#132=CYLINDRICAL_SURFACE('',#155,19.);
#133=CYLINDRICAL_SURFACE('',#160,14.5);
#134=CYLINDRICAL_SURFACE('',#164,19.);
#135=ADVANCED_FACE('',(#38,#22),#130,.F.);
#136=ADVANCED_FACE('',(#39,#23),#131,.F.);
#137=ADVANCED_FACE('',(#40,#24),#132,.T.);
#138=ADVANCED_FACE('',(#25,#26,#27,#28),#18,.T.);
#139=ADVANCED_FACE('',(#41,#29),#133,.T.);
#140=ADVANCED_FACE('',(#42,#30),#19,.T.);
#141=ADVANCED_FACE('',(#43,#31),#134,.T.);
#142=ADVANCED_FACE('',(#32,#33),#20,.T.);
#143=ADVANCED_FACE('',(#44,#34),#14,.F.);
#144=ADVANCED_FACE('',(#45),#13,.T.);
#145=ADVANCED_FACE('',(#35,#36,#37),#21,.T.);
#146=CLOSED_SHELL('',(#135,#136,#137,#138,#139,#140,#141,#142,#143,#144,
#145));
#147=MANIFOLD_SOLID_BREP('Volumenk\X\F6rper1',#146);
#148=AXIS2_PLACEMENT_3D('placement',#220,#172,#173);
#149=AXIS2_PLACEMENT_3D('',#221,#174,#175);
#150=AXIS2_PLACEMENT_3D('',#223,#176,#177);
#151=AXIS2_PLACEMENT_3D('',#225,#178,#179);
#152=AXIS2_PLACEMENT_3D('',#226,#180,#181);
#153=AXIS2_PLACEMENT_3D('',#228,#182,#183);
#154=AXIS2_PLACEMENT_3D('',#230,#184,#185);
#155=AXIS2_PLACEMENT_3D('',#231,#186,#187);
#156=AXIS2_PLACEMENT_3D('',#233,#188,#189);
#157=AXIS2_PLACEMENT_3D('',#235,#190,#191);
#158=AXIS2_PLACEMENT_3D('',#236,#192,#193);
#159=AXIS2_PLACEMENT_3D('',#238,#194,#195);
#160=AXIS2_PLACEMENT_3D('',#239,#196,#197);
#161=AXIS2_PLACEMENT_3D('',#241,#198,#199);
#162=AXIS2_PLACEMENT_3D('',#242,#200,#201);
#163=AXIS2_PLACEMENT_3D('',#244,#202,#203);
#164=AXIS2_PLACEMENT_3D('',#245,#204,#205);
#165=AXIS2_PLACEMENT_3D('',#247,#206,#207);
#166=AXIS2_PLACEMENT_3D('',#248,#208,#209);
#167=AXIS2_PLACEMENT_3D('',#250,#210,#211);
#168=AXIS2_PLACEMENT_3D('',#251,#212,#213);
#169=AXIS2_PLACEMENT_3D('',#253,#214,#215);
#170=AXIS2_PLACEMENT_3D('',#254,#216,#217);
#171=AXIS2_PLACEMENT_3D('',#255,#218,#219);
#172=DIRECTION('axis',(0.,0.,1.));
#173=DIRECTION('refdir',(1.,0.,0.));
#174=DIRECTION('center_axis',(2.77555756156289E-016,-1.,0.));
#175=DIRECTION('ref_axis',(-1.,-2.77555756156289E-016,0.));
#176=DIRECTION('center_axis',(-3.67394039744206E-016,1.,0.));
#177=DIRECTION('ref_axis',(-1.,-2.77555756156289E-016,0.));
#178=DIRECTION('center_axis',(3.67394039744206E-016,-1.,0.));
#179=DIRECTION('ref_axis',(-1.,-2.77555756156289E-016,0.));
#180=DIRECTION('center_axis',(2.77555756156289E-016,-1.,0.));
#181=DIRECTION('ref_axis',(-1.,-2.77555756156289E-016,0.));
#182=DIRECTION('center_axis',(-3.67394039744206E-016,1.,0.));
#183=DIRECTION('ref_axis',(-1.,-2.77555756156289E-016,0.));
#184=DIRECTION('center_axis',(3.67394039744206E-016,-1.,0.));
#185=DIRECTION('ref_axis',(-1.,-2.77555756156289E-016,0.));
#186=DIRECTION('center_axis',(3.67394039744206E-016,-1.,0.));
#187=DIRECTION('ref_axis',(1.,5.38125774051799E-016,0.));
#188=DIRECTION('center_axis',(3.67394039744206E-016,-1.,0.));
#189=DIRECTION('ref_axis',(1.,3.67394039744206E-016,0.));
#190=DIRECTION('center_axis',(3.67394039744206E-016,-1.,0.));
#191=DIRECTION('ref_axis',(1.,3.67394039744206E-016,0.));
#192=DIRECTION('center_axis',(3.67394039744206E-016,-1.,0.));
#193=DIRECTION('ref_axis',(0.,0.,-1.));
#194=DIRECTION('center_axis',(3.67394039744206E-016,-1.,0.));
#195=DIRECTION('ref_axis',(1.,3.67394039744206E-016,0.));
#196=DIRECTION('center_axis',(3.67394039744206E-016,-1.,0.));
#197=DIRECTION('ref_axis',(1.,5.38125774051798E-016,0.));
#198=DIRECTION('center_axis',(3.67394039744206E-016,-1.,0.));
#199=DIRECTION('ref_axis',(1.,3.67394039744206E-016,0.));
#200=DIRECTION('center_axis',(-3.67394039744206E-016,1.,0.));
#201=DIRECTION('ref_axis',(0.,0.,1.));
#202=DIRECTION('center_axis',(3.67394039744206E-016,-1.,0.));
#203=DIRECTION('ref_axis',(1.,3.67394039744206E-016,0.));
#204=DIRECTION('center_axis',(3.67394039744206E-016,-1.,0.));
#205=DIRECTION('ref_axis',(1.,5.38125774051798E-016,0.));
#206=DIRECTION('center_axis',(3.67394039744206E-016,-1.,0.));
#207=DIRECTION('ref_axis',(1.,3.67394039744206E-016,0.));
#208=DIRECTION('center_axis',(3.67394039744206E-016,-1.,0.));
#209=DIRECTION('ref_axis',(0.,0.,-1.));
#210=DIRECTION('center_axis',(3.67394039744206E-016,-1.,0.));
#211=DIRECTION('ref_axis',(1.,3.67394039744206E-016,0.));
#212=DIRECTION('center_axis',(3.67394039744206E-016,-1.,0.));
#213=DIRECTION('ref_axis',(1.,5.38125774051798E-016,0.));
#214=DIRECTION('center_axis',(3.67394039744206E-016,-1.,0.));
#215=DIRECTION('ref_axis',(1.,3.67394039744206E-016,0.));
#216=DIRECTION('center_axis',(0.,1.,-6.12323399573676E-017));
#217=DIRECTION('ref_axis',(0.,0.,-1.));
#218=DIRECTION('center_axis',(-3.67394039744206E-016,1.,0.));
#219=DIRECTION('ref_axis',(0.,0.,1.));
#220=CARTESIAN_POINT('',(0.,0.,0.));
#221=CARTESIAN_POINT('Origin',(-16.5,-1.30424884109193E-014,0.));
#222=CARTESIAN_POINT('',(-15.5,-7.00000000000001,-1.22464679914735E-016));
#223=CARTESIAN_POINT('Origin',(-16.5,-7.00000000000001,0.));
#224=CARTESIAN_POINT('',(-15.5,-1.26750943711751E-014,-1.22464679914735E-016));
#225=CARTESIAN_POINT('Origin',(-16.5,-9.85322934354827E-015,0.));
#226=CARTESIAN_POINT('Origin',(16.5,-9.18485099360516E-016,0.));
#227=CARTESIAN_POINT('',(17.5,-7.,-1.22464679914735E-016));
#228=CARTESIAN_POINT('Origin',(16.5,-7.,0.));
#229=CARTESIAN_POINT('',(17.5,-5.5109105961631E-016,-1.22464679914735E-016));
#230=CARTESIAN_POINT('Origin',(16.5,-6.93889390390723E-016,0.));
#231=CARTESIAN_POINT('Origin',(1.28587913910472E-015,-3.50000000000001,
0.));
#232=CARTESIAN_POINT('',(19.,-7.,0.));
#233=CARTESIAN_POINT('Origin',(2.57175827820944E-015,-7.00000000000001,
0.));
#234=CARTESIAN_POINT('',(19.,0.,0.));
#235=CARTESIAN_POINT('Origin',(2.90518420326804E-030,-6.98048675513991E-015,
0.));
#236=CARTESIAN_POINT('Origin',(14.5,-7.,0.));
#237=CARTESIAN_POINT('',(14.5,-7.,0.));
#238=CARTESIAN_POINT('Origin',(2.57175827820944E-015,-7.00000000000001,
0.));
#239=CARTESIAN_POINT('Origin',(2.8473038080176E-015,-7.75000000000001,0.));
#240=CARTESIAN_POINT('',(14.5,-8.5,0.));
#241=CARTESIAN_POINT('Origin',(3.12284933782575E-015,-8.50000000000001,
0.));
#242=CARTESIAN_POINT('Origin',(19.,-8.5,0.));
#243=CARTESIAN_POINT('',(19.,-8.5,0.));
#244=CARTESIAN_POINT('Origin',(3.12284933782575E-015,-8.50000000000001,
0.));
#245=CARTESIAN_POINT('Origin',(3.58209188750601E-015,-9.75000000000001,
0.));
#246=CARTESIAN_POINT('',(19.,-11.,0.));
#247=CARTESIAN_POINT('Origin',(4.04133443718627E-015,-11.,0.));
#248=CARTESIAN_POINT('Origin',(15.,-11.,0.));
#249=CARTESIAN_POINT('',(15.,-11.,0.));
#250=CARTESIAN_POINT('Origin',(4.04133443718627E-015,-11.,0.));
#251=CARTESIAN_POINT('Origin',(3.58209188750601E-015,-9.75,0.));
#252=CARTESIAN_POINT('',(2.,-8.5,0.));
#253=CARTESIAN_POINT('Origin',(3.12284933782575E-015,-8.5,0.));
#254=CARTESIAN_POINT('Origin',(1.84283453246473E-015,-8.5,0.));
#255=CARTESIAN_POINT('Origin',(19.,0.,0.));
#256=UNCERTAINTY_MEASURE_WITH_UNIT(LENGTH_MEASURE(0.01),#260,
'DISTANCE_ACCURACY_VALUE',
'Maximum model space distance between geometric entities at asserted c
onnectivities');
#257=UNCERTAINTY_MEASURE_WITH_UNIT(LENGTH_MEASURE(1.E-006),#260,
'DISTANCE_ACCURACY_VALUE',
'Maximum model space distance between geometric entities at asserted c
onnectivities');
#258=(
GEOMETRIC_REPRESENTATION_CONTEXT(3)
GLOBAL_UNCERTAINTY_ASSIGNED_CONTEXT((#256))
GLOBAL_UNIT_ASSIGNED_CONTEXT((#260,#263,#261))
REPRESENTATION_CONTEXT('','3D')
);
#259=(
GEOMETRIC_REPRESENTATION_CONTEXT(3)
GLOBAL_UNCERTAINTY_ASSIGNED_CONTEXT((#257))
GLOBAL_UNIT_ASSIGNED_CONTEXT((#260,#263,#261))
REPRESENTATION_CONTEXT('','3D')
);
#260=(
LENGTH_UNIT()
NAMED_UNIT(*)
SI_UNIT(.MILLI.,.METRE.)
);
#261=(
NAMED_UNIT(*)
SI_UNIT($,.STERADIAN.)
SOLID_ANGLE_UNIT()
);
#262=DIMENSIONAL_EXPONENTS(0.,0.,0.,0.,0.,0.,0.);
#263=(
CONVERSION_BASED_UNIT('degree',#265)
NAMED_UNIT(#262)
PLANE_ANGLE_UNIT()
);
#264=(
NAMED_UNIT(*)
PLANE_ANGLE_UNIT()
SI_UNIT($,.RADIAN.)
);
#265=PLANE_ANGLE_MEASURE_WITH_UNIT(PLANE_ANGLE_MEASURE(0.01745329252),#264);
#266=SHAPE_DEFINITION_REPRESENTATION(#267,#268);
#267=PRODUCT_DEFINITION_SHAPE('',$,#270);
#268=SHAPE_REPRESENTATION('',(#148),#258);
#269=PRODUCT_DEFINITION_CONTEXT('part definition',#274,'design');
#270=PRODUCT_DEFINITION('LED-Bel','LED-Bel',#271,#269);
#271=PRODUCT_DEFINITION_FORMATION('',$,#276);
#272=PRODUCT_RELATED_PRODUCT_CATEGORY('LED-Bel','LED-Bel',(#276));
#273=APPLICATION_PROTOCOL_DEFINITION('international standard',
'automotive_design',2009,#274);
#274=APPLICATION_CONTEXT(
'Core Data for Automotive Mechanical Design Process');
#275=PRODUCT_CONTEXT('part definition',#274,'mechanical');
#276=PRODUCT('LED-Bel','LED-Bel',$,(#275));
#277=PRESENTATION_STYLE_ASSIGNMENT((#279));
#278=PRESENTATION_STYLE_ASSIGNMENT((#280));
#279=SURFACE_STYLE_USAGE(.BOTH.,#281);
#280=SURFACE_STYLE_USAGE(.BOTH.,#282);
#281=SURFACE_SIDE_STYLE($,(#283));
#282=SURFACE_SIDE_STYLE($,(#284));
#283=SURFACE_STYLE_FILL_AREA(#285);
#284=SURFACE_STYLE_FILL_AREA(#286);
#285=FILL_AREA_STYLE($,(#287));
#286=FILL_AREA_STYLE($,(#288));
#287=FILL_AREA_STYLE_COLOUR($,#289);
#288=FILL_AREA_STYLE_COLOUR($,#290);
#289=COLOUR_RGB('',0.749019607843137,0.749019607843137,0.749019607843137);
#290=COLOUR_RGB('',0.96078431372549,0.96078431372549,0.96078431372549);
ENDSEC;
END-ISO-10303-21;
