ISO-10303-21;
HEADER;
/* Generated by software containing ST-Developer
 * from STEP Tools, Inc. (www.steptools.com) 
 */

FILE_DESCRIPTION(
/* description */ (''),
/* implementation_level */ '2;1');

FILE_NAME(
/* name */ 
'C:\\Users\\SvenW\\Documents\\inventor\\B-Automaten\\Export_B_Automate
n\\ExportGithub\\NFC Platine.stp',
/* time_stamp */ '2026-05-14T07:53:11+02:00',
/* author */ ('SvenW'),
/* organization */ (''),
/* preprocessor_version */ 'ST-DEVELOPER v15.2',
/* originating_system */ 'Autodesk Inventor 2014',
/* authorisation */ '');

FILE_SCHEMA (('AUTOMOTIVE_DESIGN { 1 0 10303 214 3 1 1 }'));
ENDSEC;

DATA;
#10=MECHANICAL_DESIGN_GEOMETRIC_PRESENTATION_REPRESENTATION('',(#381,#376,
#375,#374,#373,#371,#372,#377,#379,#378,#380),#681);
#11=SHAPE_REPRESENTATION_RELATIONSHIP('SRR','None',#690,#12);
#12=ADVANCED_BREP_SHAPE_REPRESENTATION($,(#405),#680);
#13=FACE_BOUND('',#133,.T.);
#14=FACE_BOUND('',#134,.T.);
#15=FACE_BOUND('',#139,.T.);
#16=FACE_BOUND('',#141,.T.);
#17=FACE_BOUND('',#150,.T.);
#18=FACE_BOUND('',#151,.T.);
#19=FACE_BOUND('',#152,.T.);
#20=FACE_BOUND('',#153,.T.);
#21=FACE_BOUND('',#154,.T.);
#22=FACE_BOUND('',#155,.T.);
#23=FACE_BOUND('',#156,.T.);
#24=PLANE('',#419);
#25=PLANE('',#420);
#26=PLANE('',#421);
#27=PLANE('',#422);
#28=PLANE('',#423);
#29=PLANE('',#424);
#30=PLANE('',#434);
#31=PLANE('',#438);
#32=PLANE('',#442);
#33=PLANE('',#446);
#34=PLANE('',#447);
#35=PLANE('',#448);
#36=LINE('',#579,#68);
#37=LINE('',#581,#69);
#38=LINE('',#590,#70);
#39=LINE('',#591,#71);
#40=LINE('',#596,#72);
#41=LINE('',#598,#73);
#42=LINE('',#600,#74);
#43=LINE('',#601,#75);
#44=LINE('',#604,#76);
#45=LINE('',#606,#77);
#46=LINE('',#607,#78);
#47=LINE('',#610,#79);
#48=LINE('',#612,#80);
#49=LINE('',#613,#81);
#50=LINE('',#615,#82);
#51=LINE('',#616,#83);
#52=LINE('',#633,#84);
#53=LINE('',#636,#85);
#54=LINE('',#639,#86);
#55=LINE('',#641,#87);
#56=LINE('',#642,#88);
#57=LINE('',#648,#89);
#58=LINE('',#651,#90);
#59=LINE('',#653,#91);
#60=LINE('',#654,#92);
#61=LINE('',#660,#93);
#62=LINE('',#663,#94);
#63=LINE('',#665,#95);
#64=LINE('',#666,#96);
#65=LINE('',#672,#97);
#66=LINE('',#674,#98);
#67=LINE('',#675,#99);
#68=VECTOR('',#463,6.32497487313839);
#69=VECTOR('',#464,6.32497487313839);
#70=VECTOR('',#477,6.32497487313839);
#71=VECTOR('',#478,6.32497487313839);
#72=VECTOR('',#483,17.);
#73=VECTOR('',#484,2.);
#74=VECTOR('',#485,17.);
#75=VECTOR('',#486,2.);
#76=VECTOR('',#489,11.);
#77=VECTOR('',#490,11.);
#78=VECTOR('',#491,2.);
#79=VECTOR('',#494,17.);
#80=VECTOR('',#495,17.);
#81=VECTOR('',#496,2.);
#82=VECTOR('',#499,11.);
#83=VECTOR('',#500,11.);
#84=VECTOR('',#519,1.3);
#85=VECTOR('',#522,1.3);
#86=VECTOR('',#525,39.3);
#87=VECTOR('',#526,39.3);
#88=VECTOR('',#527,1.3);
#89=VECTOR('',#534,1.3);
#90=VECTOR('',#537,36.3);
#91=VECTOR('',#538,36.3);
#92=VECTOR('',#539,1.3);
#93=VECTOR('',#546,1.3);
#94=VECTOR('',#549,39.3);
#95=VECTOR('',#550,39.3);
#96=VECTOR('',#551,1.3);
#97=VECTOR('',#558,1.3);
#98=VECTOR('',#561,36.3);
#99=VECTOR('',#562,36.3);
#100=CYLINDRICAL_SURFACE('',#412,3.2);
#101=CYLINDRICAL_SURFACE('',#418,2.8);
#102=CYLINDRICAL_SURFACE('',#425,1.25);
#103=CYLINDRICAL_SURFACE('',#428,1.25);
#104=CYLINDRICAL_SURFACE('',#431,2.);
#105=CYLINDRICAL_SURFACE('',#435,2.);
#106=CYLINDRICAL_SURFACE('',#439,1.99999999999999);
#107=CYLINDRICAL_SURFACE('',#443,2.);
#108=FACE_OUTER_BOUND('',#127,.T.);
#109=FACE_OUTER_BOUND('',#128,.T.);
#110=FACE_OUTER_BOUND('',#129,.T.);
#111=FACE_OUTER_BOUND('',#130,.T.);
#112=FACE_OUTER_BOUND('',#131,.T.);
#113=FACE_OUTER_BOUND('',#132,.T.);
#114=FACE_OUTER_BOUND('',#135,.T.);
#115=FACE_OUTER_BOUND('',#136,.T.);
#116=FACE_OUTER_BOUND('',#137,.T.);
#117=FACE_OUTER_BOUND('',#138,.T.);
#118=FACE_OUTER_BOUND('',#140,.T.);
#119=FACE_OUTER_BOUND('',#142,.T.);
#120=FACE_OUTER_BOUND('',#143,.T.);
#121=FACE_OUTER_BOUND('',#144,.T.);
#122=FACE_OUTER_BOUND('',#145,.T.);
#123=FACE_OUTER_BOUND('',#146,.T.);
#124=FACE_OUTER_BOUND('',#147,.T.);
#125=FACE_OUTER_BOUND('',#148,.T.);
#126=FACE_OUTER_BOUND('',#149,.T.);
#127=EDGE_LOOP('',(#265,#266,#267,#268));
#128=EDGE_LOOP('',(#269,#270,#271,#272));
#129=EDGE_LOOP('',(#273,#274,#275,#276));
#130=EDGE_LOOP('',(#277,#278,#279,#280));
#131=EDGE_LOOP('',(#281,#282,#283,#284));
#132=EDGE_LOOP('',(#285,#286,#287,#288));
#133=EDGE_LOOP('',(#289,#290,#291,#292));
#134=EDGE_LOOP('',(#293,#294,#295,#296));
#135=EDGE_LOOP('',(#297,#298,#299,#300));
#136=EDGE_LOOP('',(#301,#302,#303,#304));
#137=EDGE_LOOP('',(#305,#306,#307,#308));
#138=EDGE_LOOP('',(#309));
#139=EDGE_LOOP('',(#310));
#140=EDGE_LOOP('',(#311));
#141=EDGE_LOOP('',(#312));
#142=EDGE_LOOP('',(#313,#314,#315,#316));
#143=EDGE_LOOP('',(#317,#318,#319,#320));
#144=EDGE_LOOP('',(#321,#322,#323,#324));
#145=EDGE_LOOP('',(#325,#326,#327,#328));
#146=EDGE_LOOP('',(#329,#330,#331,#332));
#147=EDGE_LOOP('',(#333,#334,#335,#336));
#148=EDGE_LOOP('',(#337,#338,#339,#340));
#149=EDGE_LOOP('',(#341,#342,#343,#344));
#150=EDGE_LOOP('',(#345));
#151=EDGE_LOOP('',(#346));
#152=EDGE_LOOP('',(#347,#348,#349,#350,#351,#352,#353,#354));
#153=EDGE_LOOP('',(#355,#356,#357,#358));
#154=EDGE_LOOP('',(#359));
#155=EDGE_LOOP('',(#360));
#156=EDGE_LOOP('',(#361,#362,#363,#364,#365,#366,#367,#368));
#157=CIRCLE('',#408,0.2);
#158=CIRCLE('',#409,2.8);
#159=CIRCLE('',#410,0.2);
#160=CIRCLE('',#411,3.2);
#161=CIRCLE('',#413,3.2);
#162=CIRCLE('',#415,0.2);
#163=CIRCLE('',#416,0.2);
#164=CIRCLE('',#417,2.8);
#165=CIRCLE('',#426,1.25);
#166=CIRCLE('',#427,1.25);
#167=CIRCLE('',#429,1.25);
#168=CIRCLE('',#430,1.25);
#169=CIRCLE('',#432,2.);
#170=CIRCLE('',#433,2.);
#171=CIRCLE('',#436,2.);
#172=CIRCLE('',#437,2.);
#173=CIRCLE('',#440,1.99999999999999);
#174=CIRCLE('',#441,1.99999999999999);
#175=CIRCLE('',#444,2.);
#176=CIRCLE('',#445,2.);
#177=VERTEX_POINT('',#569);
#178=VERTEX_POINT('',#570);
#179=VERTEX_POINT('',#572);
#180=VERTEX_POINT('',#574);
#181=VERTEX_POINT('',#578);
#182=VERTEX_POINT('',#580);
#183=VERTEX_POINT('',#584);
#184=VERTEX_POINT('',#586);
#185=VERTEX_POINT('',#594);
#186=VERTEX_POINT('',#595);
#187=VERTEX_POINT('',#597);
#188=VERTEX_POINT('',#599);
#189=VERTEX_POINT('',#603);
#190=VERTEX_POINT('',#605);
#191=VERTEX_POINT('',#609);
#192=VERTEX_POINT('',#611);
#193=VERTEX_POINT('',#619);
#194=VERTEX_POINT('',#621);
#195=VERTEX_POINT('',#624);
#196=VERTEX_POINT('',#626);
#197=VERTEX_POINT('',#629);
#198=VERTEX_POINT('',#630);
#199=VERTEX_POINT('',#632);
#200=VERTEX_POINT('',#634);
#201=VERTEX_POINT('',#638);
#202=VERTEX_POINT('',#640);
#203=VERTEX_POINT('',#644);
#204=VERTEX_POINT('',#646);
#205=VERTEX_POINT('',#650);
#206=VERTEX_POINT('',#652);
#207=VERTEX_POINT('',#656);
#208=VERTEX_POINT('',#658);
#209=VERTEX_POINT('',#662);
#210=VERTEX_POINT('',#664);
#211=VERTEX_POINT('',#668);
#212=VERTEX_POINT('',#670);
#213=EDGE_CURVE('',#177,#178,#157,.T.);
#214=EDGE_CURVE('',#177,#179,#158,.T.);
#215=EDGE_CURVE('',#180,#179,#159,.T.);
#216=EDGE_CURVE('',#178,#180,#160,.T.);
#217=EDGE_CURVE('',#178,#181,#36,.T.);
#218=EDGE_CURVE('',#182,#180,#37,.T.);
#219=EDGE_CURVE('',#181,#182,#161,.T.);
#220=EDGE_CURVE('',#181,#183,#162,.T.);
#221=EDGE_CURVE('',#184,#182,#163,.T.);
#222=EDGE_CURVE('',#183,#184,#164,.T.);
#223=EDGE_CURVE('',#183,#177,#38,.T.);
#224=EDGE_CURVE('',#179,#184,#39,.T.);
#225=EDGE_CURVE('',#185,#186,#40,.T.);
#226=EDGE_CURVE('',#185,#187,#41,.T.);
#227=EDGE_CURVE('',#188,#187,#42,.T.);
#228=EDGE_CURVE('',#186,#188,#43,.T.);
#229=EDGE_CURVE('',#186,#189,#44,.T.);
#230=EDGE_CURVE('',#190,#188,#45,.T.);
#231=EDGE_CURVE('',#189,#190,#46,.T.);
#232=EDGE_CURVE('',#189,#191,#47,.T.);
#233=EDGE_CURVE('',#192,#190,#48,.T.);
#234=EDGE_CURVE('',#191,#192,#49,.T.);
#235=EDGE_CURVE('',#191,#185,#50,.T.);
#236=EDGE_CURVE('',#187,#192,#51,.T.);
#237=EDGE_CURVE('',#193,#193,#165,.T.);
#238=EDGE_CURVE('',#194,#194,#166,.T.);
#239=EDGE_CURVE('',#195,#195,#167,.T.);
#240=EDGE_CURVE('',#196,#196,#168,.T.);
#241=EDGE_CURVE('',#197,#198,#169,.T.);
#242=EDGE_CURVE('',#197,#199,#52,.T.);
#243=EDGE_CURVE('',#200,#199,#170,.T.);
#244=EDGE_CURVE('',#198,#200,#53,.T.);
#245=EDGE_CURVE('',#198,#201,#54,.T.);
#246=EDGE_CURVE('',#202,#200,#55,.T.);
#247=EDGE_CURVE('',#201,#202,#56,.T.);
#248=EDGE_CURVE('',#201,#203,#171,.T.);
#249=EDGE_CURVE('',#204,#202,#172,.T.);
#250=EDGE_CURVE('',#203,#204,#57,.T.);
#251=EDGE_CURVE('',#203,#205,#58,.T.);
#252=EDGE_CURVE('',#206,#204,#59,.T.);
#253=EDGE_CURVE('',#205,#206,#60,.T.);
#254=EDGE_CURVE('',#205,#207,#173,.T.);
#255=EDGE_CURVE('',#208,#206,#174,.T.);
#256=EDGE_CURVE('',#207,#208,#61,.T.);
#257=EDGE_CURVE('',#207,#209,#62,.T.);
#258=EDGE_CURVE('',#210,#208,#63,.T.);
#259=EDGE_CURVE('',#209,#210,#64,.T.);
#260=EDGE_CURVE('',#209,#211,#175,.T.);
#261=EDGE_CURVE('',#212,#210,#176,.T.);
#262=EDGE_CURVE('',#211,#212,#65,.T.);
#263=EDGE_CURVE('',#211,#197,#66,.T.);
#264=EDGE_CURVE('',#199,#212,#67,.T.);
#265=ORIENTED_EDGE('',*,*,#213,.F.);
#266=ORIENTED_EDGE('',*,*,#214,.T.);
#267=ORIENTED_EDGE('',*,*,#215,.F.);
#268=ORIENTED_EDGE('',*,*,#216,.F.);
#269=ORIENTED_EDGE('',*,*,#217,.F.);
#270=ORIENTED_EDGE('',*,*,#216,.T.);
#271=ORIENTED_EDGE('',*,*,#218,.F.);
#272=ORIENTED_EDGE('',*,*,#219,.F.);
#273=ORIENTED_EDGE('',*,*,#220,.F.);
#274=ORIENTED_EDGE('',*,*,#219,.T.);
#275=ORIENTED_EDGE('',*,*,#221,.F.);
#276=ORIENTED_EDGE('',*,*,#222,.F.);
#277=ORIENTED_EDGE('',*,*,#223,.F.);
#278=ORIENTED_EDGE('',*,*,#222,.T.);
#279=ORIENTED_EDGE('',*,*,#224,.F.);
#280=ORIENTED_EDGE('',*,*,#214,.F.);
#281=ORIENTED_EDGE('',*,*,#224,.T.);
#282=ORIENTED_EDGE('',*,*,#221,.T.);
#283=ORIENTED_EDGE('',*,*,#218,.T.);
#284=ORIENTED_EDGE('',*,*,#215,.T.);
#285=ORIENTED_EDGE('',*,*,#225,.F.);
#286=ORIENTED_EDGE('',*,*,#226,.T.);
#287=ORIENTED_EDGE('',*,*,#227,.F.);
#288=ORIENTED_EDGE('',*,*,#228,.F.);
#289=ORIENTED_EDGE('',*,*,#213,.T.);
#290=ORIENTED_EDGE('',*,*,#217,.T.);
#291=ORIENTED_EDGE('',*,*,#220,.T.);
#292=ORIENTED_EDGE('',*,*,#223,.T.);
#293=ORIENTED_EDGE('',*,*,#229,.F.);
#294=ORIENTED_EDGE('',*,*,#228,.T.);
#295=ORIENTED_EDGE('',*,*,#230,.F.);
#296=ORIENTED_EDGE('',*,*,#231,.F.);
#297=ORIENTED_EDGE('',*,*,#232,.F.);
#298=ORIENTED_EDGE('',*,*,#231,.T.);
#299=ORIENTED_EDGE('',*,*,#233,.F.);
#300=ORIENTED_EDGE('',*,*,#234,.F.);
#301=ORIENTED_EDGE('',*,*,#235,.F.);
#302=ORIENTED_EDGE('',*,*,#234,.T.);
#303=ORIENTED_EDGE('',*,*,#236,.F.);
#304=ORIENTED_EDGE('',*,*,#226,.F.);
#305=ORIENTED_EDGE('',*,*,#236,.T.);
#306=ORIENTED_EDGE('',*,*,#233,.T.);
#307=ORIENTED_EDGE('',*,*,#230,.T.);
#308=ORIENTED_EDGE('',*,*,#227,.T.);
#309=ORIENTED_EDGE('',*,*,#237,.F.);
#310=ORIENTED_EDGE('',*,*,#238,.F.);
#311=ORIENTED_EDGE('',*,*,#239,.F.);
#312=ORIENTED_EDGE('',*,*,#240,.F.);
#313=ORIENTED_EDGE('',*,*,#241,.F.);
#314=ORIENTED_EDGE('',*,*,#242,.T.);
#315=ORIENTED_EDGE('',*,*,#243,.F.);
#316=ORIENTED_EDGE('',*,*,#244,.F.);
#317=ORIENTED_EDGE('',*,*,#245,.F.);
#318=ORIENTED_EDGE('',*,*,#244,.T.);
#319=ORIENTED_EDGE('',*,*,#246,.F.);
#320=ORIENTED_EDGE('',*,*,#247,.F.);
#321=ORIENTED_EDGE('',*,*,#248,.F.);
#322=ORIENTED_EDGE('',*,*,#247,.T.);
#323=ORIENTED_EDGE('',*,*,#249,.F.);
#324=ORIENTED_EDGE('',*,*,#250,.F.);
#325=ORIENTED_EDGE('',*,*,#251,.F.);
#326=ORIENTED_EDGE('',*,*,#250,.T.);
#327=ORIENTED_EDGE('',*,*,#252,.F.);
#328=ORIENTED_EDGE('',*,*,#253,.F.);
#329=ORIENTED_EDGE('',*,*,#254,.F.);
#330=ORIENTED_EDGE('',*,*,#253,.T.);
#331=ORIENTED_EDGE('',*,*,#255,.F.);
#332=ORIENTED_EDGE('',*,*,#256,.F.);
#333=ORIENTED_EDGE('',*,*,#257,.F.);
#334=ORIENTED_EDGE('',*,*,#256,.T.);
#335=ORIENTED_EDGE('',*,*,#258,.F.);
#336=ORIENTED_EDGE('',*,*,#259,.F.);
#337=ORIENTED_EDGE('',*,*,#260,.F.);
#338=ORIENTED_EDGE('',*,*,#259,.T.);
#339=ORIENTED_EDGE('',*,*,#261,.F.);
#340=ORIENTED_EDGE('',*,*,#262,.F.);
#341=ORIENTED_EDGE('',*,*,#263,.F.);
#342=ORIENTED_EDGE('',*,*,#262,.T.);
#343=ORIENTED_EDGE('',*,*,#264,.F.);
#344=ORIENTED_EDGE('',*,*,#242,.F.);
#345=ORIENTED_EDGE('',*,*,#238,.T.);
#346=ORIENTED_EDGE('',*,*,#240,.T.);
#347=ORIENTED_EDGE('',*,*,#263,.T.);
#348=ORIENTED_EDGE('',*,*,#241,.T.);
#349=ORIENTED_EDGE('',*,*,#245,.T.);
#350=ORIENTED_EDGE('',*,*,#248,.T.);
#351=ORIENTED_EDGE('',*,*,#251,.T.);
#352=ORIENTED_EDGE('',*,*,#254,.T.);
#353=ORIENTED_EDGE('',*,*,#257,.T.);
#354=ORIENTED_EDGE('',*,*,#260,.T.);
#355=ORIENTED_EDGE('',*,*,#225,.T.);
#356=ORIENTED_EDGE('',*,*,#229,.T.);
#357=ORIENTED_EDGE('',*,*,#232,.T.);
#358=ORIENTED_EDGE('',*,*,#235,.T.);
#359=ORIENTED_EDGE('',*,*,#237,.T.);
#360=ORIENTED_EDGE('',*,*,#239,.T.);
#361=ORIENTED_EDGE('',*,*,#264,.T.);
#362=ORIENTED_EDGE('',*,*,#261,.T.);
#363=ORIENTED_EDGE('',*,*,#258,.T.);
#364=ORIENTED_EDGE('',*,*,#255,.T.);
#365=ORIENTED_EDGE('',*,*,#252,.T.);
#366=ORIENTED_EDGE('',*,*,#249,.T.);
#367=ORIENTED_EDGE('',*,*,#246,.T.);
#368=ORIENTED_EDGE('',*,*,#243,.T.);
#369=TOROIDAL_SURFACE('',#407,3.,0.2);
#370=TOROIDAL_SURFACE('',#414,3.,0.2);
#371=STYLED_ITEM('',(#700),#382);
#372=STYLED_ITEM('',(#700),#383);
#373=STYLED_ITEM('',(#700),#384);
#374=STYLED_ITEM('',(#700),#385);
#375=STYLED_ITEM('',(#700),#386);
#376=STYLED_ITEM('',(#701),#387);
#377=STYLED_ITEM('',(#701),#388);
#378=STYLED_ITEM('',(#701),#389);
#379=STYLED_ITEM('',(#701),#390);
#380=STYLED_ITEM('',(#701),#391);
#381=STYLED_ITEM('',(#699),#405);
#382=ADVANCED_FACE('',(#108),#369,.T.);
#383=ADVANCED_FACE('',(#109),#100,.T.);
#384=ADVANCED_FACE('',(#110),#370,.T.);
#385=ADVANCED_FACE('',(#111),#101,.F.);
#386=ADVANCED_FACE('',(#112),#24,.F.);
#387=ADVANCED_FACE('',(#113),#25,.T.);
#388=ADVANCED_FACE('',(#13,#14),#26,.T.);
#389=ADVANCED_FACE('',(#114),#27,.T.);
#390=ADVANCED_FACE('',(#115),#28,.T.);
#391=ADVANCED_FACE('',(#116),#29,.T.);
#392=ADVANCED_FACE('',(#117,#15),#102,.F.);
#393=ADVANCED_FACE('',(#118,#16),#103,.F.);
#394=ADVANCED_FACE('',(#119),#104,.T.);
#395=ADVANCED_FACE('',(#120),#30,.T.);
#396=ADVANCED_FACE('',(#121),#105,.T.);
#397=ADVANCED_FACE('',(#122),#31,.T.);
#398=ADVANCED_FACE('',(#123),#106,.T.);
#399=ADVANCED_FACE('',(#124),#32,.T.);
#400=ADVANCED_FACE('',(#125),#107,.T.);
#401=ADVANCED_FACE('',(#126),#33,.T.);
#402=ADVANCED_FACE('',(#17,#18,#19),#34,.F.);
#403=ADVANCED_FACE('',(#20,#21,#22,#23),#35,.T.);
#404=CLOSED_SHELL('',(#382,#383,#384,#385,#386,#387,#388,#389,#390,#391,
#392,#393,#394,#395,#396,#397,#398,#399,#400,#401,#402,#403));
#405=MANIFOLD_SOLID_BREP('Volumenk\X\F6rper1',#404);
#406=AXIS2_PLACEMENT_3D('placement',#567,#449,#450);
#407=AXIS2_PLACEMENT_3D('',#568,#451,#452);
#408=AXIS2_PLACEMENT_3D('',#571,#453,#454);
#409=AXIS2_PLACEMENT_3D('',#573,#455,#456);
#410=AXIS2_PLACEMENT_3D('',#575,#457,#458);
#411=AXIS2_PLACEMENT_3D('',#576,#459,#460);
#412=AXIS2_PLACEMENT_3D('',#577,#461,#462);
#413=AXIS2_PLACEMENT_3D('',#582,#465,#466);
#414=AXIS2_PLACEMENT_3D('',#583,#467,#468);
#415=AXIS2_PLACEMENT_3D('',#585,#469,#470);
#416=AXIS2_PLACEMENT_3D('',#587,#471,#472);
#417=AXIS2_PLACEMENT_3D('',#588,#473,#474);
#418=AXIS2_PLACEMENT_3D('',#589,#475,#476);
#419=AXIS2_PLACEMENT_3D('',#592,#479,#480);
#420=AXIS2_PLACEMENT_3D('',#593,#481,#482);
#421=AXIS2_PLACEMENT_3D('',#602,#487,#488);
#422=AXIS2_PLACEMENT_3D('',#608,#492,#493);
#423=AXIS2_PLACEMENT_3D('',#614,#497,#498);
#424=AXIS2_PLACEMENT_3D('',#617,#501,#502);
#425=AXIS2_PLACEMENT_3D('',#618,#503,#504);
#426=AXIS2_PLACEMENT_3D('',#620,#505,#506);
#427=AXIS2_PLACEMENT_3D('',#622,#507,#508);
#428=AXIS2_PLACEMENT_3D('',#623,#509,#510);
#429=AXIS2_PLACEMENT_3D('',#625,#511,#512);
#430=AXIS2_PLACEMENT_3D('',#627,#513,#514);
#431=AXIS2_PLACEMENT_3D('',#628,#515,#516);
#432=AXIS2_PLACEMENT_3D('',#631,#517,#518);
#433=AXIS2_PLACEMENT_3D('',#635,#520,#521);
#434=AXIS2_PLACEMENT_3D('',#637,#523,#524);
#435=AXIS2_PLACEMENT_3D('',#643,#528,#529);
#436=AXIS2_PLACEMENT_3D('',#645,#530,#531);
#437=AXIS2_PLACEMENT_3D('',#647,#532,#533);
#438=AXIS2_PLACEMENT_3D('',#649,#535,#536);
#439=AXIS2_PLACEMENT_3D('',#655,#540,#541);
#440=AXIS2_PLACEMENT_3D('',#657,#542,#543);
#441=AXIS2_PLACEMENT_3D('',#659,#544,#545);
#442=AXIS2_PLACEMENT_3D('',#661,#547,#548);
#443=AXIS2_PLACEMENT_3D('',#667,#552,#553);
#444=AXIS2_PLACEMENT_3D('',#669,#554,#555);
#445=AXIS2_PLACEMENT_3D('',#671,#556,#557);
#446=AXIS2_PLACEMENT_3D('',#673,#559,#560);
#447=AXIS2_PLACEMENT_3D('',#676,#563,#564);
#448=AXIS2_PLACEMENT_3D('',#677,#565,#566);
#449=DIRECTION('axis',(0.,0.,1.));
#450=DIRECTION('refdir',(1.,0.,0.));
#451=DIRECTION('center_axis',(-1.,0.,0.));
#452=DIRECTION('ref_axis',(0.,0.,1.));
#453=DIRECTION('center_axis',(0.,1.,0.));
#454=DIRECTION('ref_axis',(0.,0.,-1.));
#455=DIRECTION('center_axis',(-1.,0.,0.));
#456=DIRECTION('ref_axis',(0.,7.93016446160827E-016,-1.));
#457=DIRECTION('center_axis',(0.,-0.565939507432188,0.82444676840134));
#458=DIRECTION('ref_axis',(0.,0.82444676840134,0.565939507432188));
#459=DIRECTION('center_axis',(-1.,0.,0.));
#460=DIRECTION('ref_axis',(0.,1.38777878078145E-015,-1.));
#461=DIRECTION('center_axis',(-1.,0.,0.));
#462=DIRECTION('ref_axis',(0.,0.82444676840134,0.565939507432188));
#463=DIRECTION('',(-1.,0.,0.));
#464=DIRECTION('',(1.,0.,0.));
#465=DIRECTION('center_axis',(-1.,0.,0.));
#466=DIRECTION('ref_axis',(0.,1.38777878078145E-015,-1.));
#467=DIRECTION('center_axis',(-1.,0.,0.));
#468=DIRECTION('ref_axis',(0.,0.,1.));
#469=DIRECTION('center_axis',(0.,1.,0.));
#470=DIRECTION('ref_axis',(0.,0.,-1.));
#471=DIRECTION('center_axis',(0.,-0.565939507432188,0.82444676840134));
#472=DIRECTION('ref_axis',(0.,-0.82444676840134,-0.565939507432188));
#473=DIRECTION('center_axis',(-1.,0.,0.));
#474=DIRECTION('ref_axis',(0.,7.93016446160827E-016,-1.));
#475=DIRECTION('center_axis',(-1.,0.,0.));
#476=DIRECTION('ref_axis',(0.,0.82444676840134,0.565939507432188));
#477=DIRECTION('',(1.,0.,0.));
#478=DIRECTION('',(-1.,0.,0.));
#479=DIRECTION('center_axis',(0.,0.565939507432188,-0.82444676840134));
#480=DIRECTION('ref_axis',(0.,0.82444676840134,0.565939507432188));
#481=DIRECTION('center_axis',(1.,0.,0.));
#482=DIRECTION('ref_axis',(0.,1.,0.));
#483=DIRECTION('',(0.,-1.,0.));
#484=DIRECTION('',(0.,0.,1.));
#485=DIRECTION('',(0.,1.,0.));
#486=DIRECTION('',(0.,0.,1.));
#487=DIRECTION('center_axis',(0.,-1.,0.));
#488=DIRECTION('ref_axis',(1.,0.,0.));
#489=DIRECTION('',(-1.,0.,0.));
#490=DIRECTION('',(1.,0.,0.));
#491=DIRECTION('',(0.,0.,1.));
#492=DIRECTION('center_axis',(-1.,0.,0.));
#493=DIRECTION('ref_axis',(0.,-1.,0.));
#494=DIRECTION('',(0.,1.,0.));
#495=DIRECTION('',(0.,-1.,0.));
#496=DIRECTION('',(0.,0.,1.));
#497=DIRECTION('center_axis',(0.,1.,0.));
#498=DIRECTION('ref_axis',(-1.,0.,0.));
#499=DIRECTION('',(1.,0.,0.));
#500=DIRECTION('',(-1.,0.,0.));
#501=DIRECTION('center_axis',(0.,0.,1.));
#502=DIRECTION('ref_axis',(1.,0.,0.));
#503=DIRECTION('center_axis',(0.,0.,1.));
#504=DIRECTION('ref_axis',(-1.,0.,0.));
#505=DIRECTION('center_axis',(0.,0.,-1.));
#506=DIRECTION('ref_axis',(-1.,0.,0.));
#507=DIRECTION('center_axis',(0.,0.,1.));
#508=DIRECTION('ref_axis',(-1.,0.,0.));
#509=DIRECTION('center_axis',(0.,0.,1.));
#510=DIRECTION('ref_axis',(-1.,0.,0.));
#511=DIRECTION('center_axis',(0.,0.,-1.));
#512=DIRECTION('ref_axis',(-1.,0.,0.));
#513=DIRECTION('center_axis',(0.,0.,1.));
#514=DIRECTION('ref_axis',(-1.,0.,0.));
#515=DIRECTION('center_axis',(0.,0.,1.));
#516=DIRECTION('ref_axis',(-1.,-2.22044604925031E-015,0.));
#517=DIRECTION('center_axis',(0.,0.,-1.));
#518=DIRECTION('ref_axis',(-1.,-2.22044604925031E-015,0.));
#519=DIRECTION('',(0.,0.,1.));
#520=DIRECTION('center_axis',(0.,0.,1.));
#521=DIRECTION('ref_axis',(-1.,-2.22044604925031E-015,0.));
#522=DIRECTION('',(0.,0.,1.));
#523=DIRECTION('center_axis',(1.,0.,0.));
#524=DIRECTION('ref_axis',(0.,1.,0.));
#525=DIRECTION('',(0.,-1.,0.));
#526=DIRECTION('',(0.,1.,0.));
#527=DIRECTION('',(0.,0.,1.));
#528=DIRECTION('center_axis',(0.,0.,1.));
#529=DIRECTION('ref_axis',(0.,1.,0.));
#530=DIRECTION('center_axis',(0.,0.,-1.));
#531=DIRECTION('ref_axis',(0.,1.,0.));
#532=DIRECTION('center_axis',(0.,0.,1.));
#533=DIRECTION('ref_axis',(0.,1.,0.));
#534=DIRECTION('',(0.,0.,1.));
#535=DIRECTION('center_axis',(0.,-1.,0.));
#536=DIRECTION('ref_axis',(1.,0.,0.));
#537=DIRECTION('',(-1.,0.,0.));
#538=DIRECTION('',(1.,0.,0.));
#539=DIRECTION('',(0.,0.,1.));
#540=DIRECTION('center_axis',(0.,0.,1.));
#541=DIRECTION('ref_axis',(1.,2.22044604925031E-015,0.));
#542=DIRECTION('center_axis',(0.,0.,-1.));
#543=DIRECTION('ref_axis',(1.,2.22044604925031E-015,0.));
#544=DIRECTION('center_axis',(0.,0.,1.));
#545=DIRECTION('ref_axis',(1.,2.22044604925031E-015,0.));
#546=DIRECTION('',(0.,0.,1.));
#547=DIRECTION('center_axis',(-1.,0.,0.));
#548=DIRECTION('ref_axis',(0.,-1.,0.));
#549=DIRECTION('',(0.,1.,0.));
#550=DIRECTION('',(0.,-1.,0.));
#551=DIRECTION('',(0.,0.,1.));
#552=DIRECTION('center_axis',(0.,0.,1.));
#553=DIRECTION('ref_axis',(0.,-1.,0.));
#554=DIRECTION('center_axis',(0.,0.,-1.));
#555=DIRECTION('ref_axis',(0.,-1.,0.));
#556=DIRECTION('center_axis',(0.,0.,1.));
#557=DIRECTION('ref_axis',(0.,-1.,0.));
#558=DIRECTION('',(0.,0.,1.));
#559=DIRECTION('center_axis',(0.,1.,0.));
#560=DIRECTION('ref_axis',(-1.,0.,0.));
#561=DIRECTION('',(1.,0.,0.));
#562=DIRECTION('',(-1.,0.,0.));
#563=DIRECTION('center_axis',(0.,0.,1.));
#564=DIRECTION('ref_axis',(1.,0.,0.));
#565=DIRECTION('center_axis',(0.,0.,1.));
#566=DIRECTION('ref_axis',(1.,0.,0.));
#567=CARTESIAN_POINT('',(0.,0.,0.));
#568=CARTESIAN_POINT('Origin',(3.39386148482313,-15.35,5.02117295699244));
#569=CARTESIAN_POINT('',(3.39386148482313,-15.35,2.22117295699244));
#570=CARTESIAN_POINT('',(3.39386148482313,-15.35,1.82117295699244));
#571=CARTESIAN_POINT('Origin',(3.39386148482313,-15.35,2.02117295699244));
#572=CARTESIAN_POINT('',(3.39386148482313,-17.6584509515238,3.43654233618232));
#573=CARTESIAN_POINT('Origin',(3.39386148482313,-15.35,5.02117295699244));
#574=CARTESIAN_POINT('',(3.39386148482313,-17.9882296588843,3.21016653320944));
#575=CARTESIAN_POINT('Origin',(3.39386148482313,-17.823340305204,3.32335443469588));
#576=CARTESIAN_POINT('Origin',(3.39386148482313,-15.35,5.02117295699244));
#577=CARTESIAN_POINT('Origin',(0.231374048253932,-15.35,5.02117295699244));
#578=CARTESIAN_POINT('',(-2.93111338831526,-15.35,1.82117295699244));
#579=CARTESIAN_POINT('',(0.231374048253932,-15.35,1.82117295699244));
#580=CARTESIAN_POINT('',(-2.93111338831526,-17.9882296588843,3.21016653320944));
#581=CARTESIAN_POINT('',(3.39386148482313,-17.9882296588843,3.21016653320944));
#582=CARTESIAN_POINT('Origin',(-2.93111338831526,-15.35,5.02117295699244));
#583=CARTESIAN_POINT('Origin',(-2.93111338831526,-15.35,5.02117295699244));
#584=CARTESIAN_POINT('',(-2.93111338831526,-15.35,2.22117295699244));
#585=CARTESIAN_POINT('Origin',(-2.93111338831526,-15.35,2.02117295699244));
#586=CARTESIAN_POINT('',(-2.93111338831526,-17.6584509515238,3.43654233618232));
#587=CARTESIAN_POINT('Origin',(-2.93111338831526,-17.823340305204,3.32335443469588));
#588=CARTESIAN_POINT('Origin',(-2.93111338831526,-15.35,5.02117295699244));
#589=CARTESIAN_POINT('Origin',(0.231374048253932,-15.35,5.02117295699244));
#590=CARTESIAN_POINT('',(0.231374048253932,-15.35,2.22117295699244));
#591=CARTESIAN_POINT('',(-2.93111338831526,-17.6584509515238,3.43654233618232));
#592=CARTESIAN_POINT('Origin',(0.231374048253932,-17.823340305204,3.32335443469588));
#593=CARTESIAN_POINT('Origin',(5.5,-15.35,1.3));
#594=CARTESIAN_POINT('',(5.5,1.65,1.3));
#595=CARTESIAN_POINT('',(5.5,-15.35,1.3));
#596=CARTESIAN_POINT('',(5.5,-7.675,1.3));
#597=CARTESIAN_POINT('',(5.5,1.65,3.3));
#598=CARTESIAN_POINT('',(5.5,1.65,1.3));
#599=CARTESIAN_POINT('',(5.5,-15.35,3.3));
#600=CARTESIAN_POINT('',(5.5,1.65,3.3));
#601=CARTESIAN_POINT('',(5.5,-15.35,1.3));
#602=CARTESIAN_POINT('Origin',(-5.5,-15.35,1.3));
#603=CARTESIAN_POINT('',(-5.5,-15.35,1.3));
#604=CARTESIAN_POINT('',(-2.75,-15.35,1.3));
#605=CARTESIAN_POINT('',(-5.5,-15.35,3.3));
#606=CARTESIAN_POINT('',(5.5,-15.35,3.3));
#607=CARTESIAN_POINT('',(-5.5,-15.35,1.3));
#608=CARTESIAN_POINT('Origin',(-5.5,1.65,1.3));
#609=CARTESIAN_POINT('',(-5.5,1.65,1.3));
#610=CARTESIAN_POINT('',(-5.5,0.825000000000001,1.3));
#611=CARTESIAN_POINT('',(-5.5,1.65,3.3));
#612=CARTESIAN_POINT('',(-5.5,-15.35,3.3));
#613=CARTESIAN_POINT('',(-5.5,1.65,1.3));
#614=CARTESIAN_POINT('Origin',(5.5,1.65,1.3));
#615=CARTESIAN_POINT('',(2.75,1.65,1.3));
#616=CARTESIAN_POINT('',(-5.5,1.65,3.3));
#617=CARTESIAN_POINT('Origin',(0.,-6.85,3.3));
#618=CARTESIAN_POINT('Origin',(-12.3,-14.15,0.));
#619=CARTESIAN_POINT('',(-11.05,-14.15,1.3));
#620=CARTESIAN_POINT('Origin',(-12.3,-14.15,1.3));
#621=CARTESIAN_POINT('',(-11.05,-14.15,0.));
#622=CARTESIAN_POINT('Origin',(-12.3,-14.15,0.));
#623=CARTESIAN_POINT('Origin',(12.3,14.15,0.));
#624=CARTESIAN_POINT('',(13.55,14.15,1.3));
#625=CARTESIAN_POINT('Origin',(12.3,14.15,1.3));
#626=CARTESIAN_POINT('',(13.55,14.15,0.));
#627=CARTESIAN_POINT('Origin',(12.3,14.15,0.));
#628=CARTESIAN_POINT('Origin',(18.15,19.65,0.));
#629=CARTESIAN_POINT('',(18.15,21.65,0.));
#630=CARTESIAN_POINT('',(20.15,19.65,0.));
#631=CARTESIAN_POINT('Origin',(18.15,19.65,0.));
#632=CARTESIAN_POINT('',(18.15,21.65,1.3));
#633=CARTESIAN_POINT('',(18.15,21.65,0.));
#634=CARTESIAN_POINT('',(20.15,19.65,1.3));
#635=CARTESIAN_POINT('Origin',(18.15,19.65,1.3));
#636=CARTESIAN_POINT('',(20.15,19.65,0.));
#637=CARTESIAN_POINT('Origin',(20.15,-19.65,0.));
#638=CARTESIAN_POINT('',(20.15,-19.65,0.));
#639=CARTESIAN_POINT('',(20.15,19.65,0.));
#640=CARTESIAN_POINT('',(20.15,-19.65,1.3));
#641=CARTESIAN_POINT('',(20.15,19.65,1.3));
#642=CARTESIAN_POINT('',(20.15,-19.65,0.));
#643=CARTESIAN_POINT('Origin',(18.15,-19.65,0.));
#644=CARTESIAN_POINT('',(18.15,-21.65,0.));
#645=CARTESIAN_POINT('Origin',(18.15,-19.65,0.));
#646=CARTESIAN_POINT('',(18.15,-21.65,1.3));
#647=CARTESIAN_POINT('Origin',(18.15,-19.65,1.3));
#648=CARTESIAN_POINT('',(18.15,-21.65,0.));
#649=CARTESIAN_POINT('Origin',(-18.15,-21.65,0.));
#650=CARTESIAN_POINT('',(-18.15,-21.65,0.));
#651=CARTESIAN_POINT('',(18.15,-21.65,0.));
#652=CARTESIAN_POINT('',(-18.15,-21.65,1.3));
#653=CARTESIAN_POINT('',(18.15,-21.65,1.3));
#654=CARTESIAN_POINT('',(-18.15,-21.65,0.));
#655=CARTESIAN_POINT('Origin',(-18.15,-19.65,0.));
#656=CARTESIAN_POINT('',(-20.15,-19.65,0.));
#657=CARTESIAN_POINT('Origin',(-18.15,-19.65,0.));
#658=CARTESIAN_POINT('',(-20.15,-19.65,1.3));
#659=CARTESIAN_POINT('Origin',(-18.15,-19.65,1.3));
#660=CARTESIAN_POINT('',(-20.15,-19.65,0.));
#661=CARTESIAN_POINT('Origin',(-20.15,19.65,0.));
#662=CARTESIAN_POINT('',(-20.15,19.65,0.));
#663=CARTESIAN_POINT('',(-20.15,-19.65,0.));
#664=CARTESIAN_POINT('',(-20.15,19.65,1.3));
#665=CARTESIAN_POINT('',(-20.15,-19.65,1.3));
#666=CARTESIAN_POINT('',(-20.15,19.65,0.));
#667=CARTESIAN_POINT('Origin',(-18.15,19.65,0.));
#668=CARTESIAN_POINT('',(-18.15,21.65,0.));
#669=CARTESIAN_POINT('Origin',(-18.15,19.65,0.));
#670=CARTESIAN_POINT('',(-18.15,21.65,1.3));
#671=CARTESIAN_POINT('Origin',(-18.15,19.65,1.3));
#672=CARTESIAN_POINT('',(-18.15,21.65,0.));
#673=CARTESIAN_POINT('Origin',(18.15,21.65,0.));
#674=CARTESIAN_POINT('',(-18.15,21.65,0.));
#675=CARTESIAN_POINT('',(-18.15,21.65,1.3));
#676=CARTESIAN_POINT('Origin',(1.5033390920232E-015,1.76253548719962E-015,
0.));
#677=CARTESIAN_POINT('Origin',(1.5033390920232E-015,1.76253548719962E-015,
1.3));
#678=UNCERTAINTY_MEASURE_WITH_UNIT(LENGTH_MEASURE(0.01),#682,
'DISTANCE_ACCURACY_VALUE',
'Maximum model space distance between geometric entities at asserted c
onnectivities');
#679=UNCERTAINTY_MEASURE_WITH_UNIT(LENGTH_MEASURE(1.E-006),#682,
'DISTANCE_ACCURACY_VALUE',
'Maximum model space distance between geometric entities at asserted c
onnectivities');
#680=(
GEOMETRIC_REPRESENTATION_CONTEXT(3)
GLOBAL_UNCERTAINTY_ASSIGNED_CONTEXT((#678))
GLOBAL_UNIT_ASSIGNED_CONTEXT((#682,#685,#683))
REPRESENTATION_CONTEXT('','3D')
);
#681=(
GEOMETRIC_REPRESENTATION_CONTEXT(3)
GLOBAL_UNCERTAINTY_ASSIGNED_CONTEXT((#679))
GLOBAL_UNIT_ASSIGNED_CONTEXT((#682,#685,#683))
REPRESENTATION_CONTEXT('','3D')
);
#682=(
LENGTH_UNIT()
NAMED_UNIT(*)
SI_UNIT(.MILLI.,.METRE.)
);
#683=(
NAMED_UNIT(*)
SI_UNIT($,.STERADIAN.)
SOLID_ANGLE_UNIT()
);
#684=DIMENSIONAL_EXPONENTS(0.,0.,0.,0.,0.,0.,0.);
#685=(
CONVERSION_BASED_UNIT('degree',#687)
NAMED_UNIT(#684)
PLANE_ANGLE_UNIT()
);
#686=(
NAMED_UNIT(*)
PLANE_ANGLE_UNIT()
SI_UNIT($,.RADIAN.)
);
#687=PLANE_ANGLE_MEASURE_WITH_UNIT(PLANE_ANGLE_MEASURE(0.01745329252),#686);
#688=SHAPE_DEFINITION_REPRESENTATION(#689,#690);
#689=PRODUCT_DEFINITION_SHAPE('',$,#692);
#690=SHAPE_REPRESENTATION('',(#406),#680);
#691=PRODUCT_DEFINITION_CONTEXT('part definition',#696,'design');
#692=PRODUCT_DEFINITION('NFC Platine','NFC Platine',#693,#691);
#693=PRODUCT_DEFINITION_FORMATION('',$,#698);
#694=PRODUCT_RELATED_PRODUCT_CATEGORY('NFC Platine','NFC Platine',(#698));
#695=APPLICATION_PROTOCOL_DEFINITION('international standard',
'automotive_design',2009,#696);
#696=APPLICATION_CONTEXT(
'Core Data for Automotive Mechanical Design Process');
#697=PRODUCT_CONTEXT('part definition',#696,'mechanical');
#698=PRODUCT('NFC Platine','NFC Platine',$,(#697));
#699=PRESENTATION_STYLE_ASSIGNMENT((#702));
#700=PRESENTATION_STYLE_ASSIGNMENT((#703));
#701=PRESENTATION_STYLE_ASSIGNMENT((#704));
#702=SURFACE_STYLE_USAGE(.BOTH.,#705);
#703=SURFACE_STYLE_USAGE(.BOTH.,#706);
#704=SURFACE_STYLE_USAGE(.BOTH.,#707);
#705=SURFACE_SIDE_STYLE($,(#708));
#706=SURFACE_SIDE_STYLE($,(#709));
#707=SURFACE_SIDE_STYLE($,(#710));
#708=SURFACE_STYLE_FILL_AREA(#711);
#709=SURFACE_STYLE_FILL_AREA(#712);
#710=SURFACE_STYLE_FILL_AREA(#713);
#711=FILL_AREA_STYLE($,(#714));
#712=FILL_AREA_STYLE($,(#715));
#713=FILL_AREA_STYLE($,(#716));
#714=FILL_AREA_STYLE_COLOUR($,#717);
#715=FILL_AREA_STYLE_COLOUR($,#718);
#716=FILL_AREA_STYLE_COLOUR($,#719);
#717=COLOUR_RGB('',0.713725490196078,0.0705882352941176,0.0470588235294118);
#718=COLOUR_RGB('',0.270588235294118,0.313725490196078,0.368627450980392);
#719=COLOUR_RGB('',0.87843137254902,0.874509803921569,0.858823529411765);
ENDSEC;
END-ISO-10303-21;
