ISO-10303-21;
HEADER;
/* Generated by software containing ST-Developer
 * from STEP Tools, Inc. (www.steptools.com) 
 */

FILE_DESCRIPTION(
/* description */ (''),
/* implementation_level */ '2;1');

FILE_NAME(
/* name */ 
'C:\\Users\\SvenW\\Documents\\inventor\\B-Automaten\\Export_B_Automate
n\\ExportGithub\\Coinschiebeachse.stp',
/* time_stamp */ '2026-05-14T08:01:59+02:00',
/* author */ ('SvenW'),
/* organization */ (''),
/* preprocessor_version */ 'ST-DEVELOPER v15.2',
/* originating_system */ 'Autodesk Inventor 2014',
/* authorisation */ '');

FILE_SCHEMA (('AUTOMOTIVE_DESIGN { 1 0 10303 214 3 1 1 }'));
ENDSEC;

DATA;
#10=MECHANICAL_DESIGN_GEOMETRIC_PRESENTATION_REPRESENTATION('',(#13),#411);
#11=SHAPE_REPRESENTATION_RELATIONSHIP('SRR','None',#420,#12);
#12=ADVANCED_BREP_SHAPE_REPRESENTATION($,(#223),#410);
#13=STYLED_ITEM('',(#429),#223);
#14=LINE('',#378,#22);
#15=LINE('',#381,#23);
#16=LINE('',#386,#24);
#17=LINE('',#389,#25);
#18=LINE('',#394,#26);
#19=LINE('',#395,#27);
#20=LINE('',#397,#28);
#21=LINE('',#399,#29);
#22=VECTOR('',#281,11.6833752096446);
#23=VECTOR('',#284,11.6833752096446);
#24=VECTOR('',#289,11.6833752096446);
#25=VECTOR('',#292,11.6833752096446);
#26=VECTOR('',#299,3.53589838486225);
#27=VECTOR('',#300,3.53589838486225);
#28=VECTOR('',#303,3.);
#29=VECTOR('',#306,3.);
#30=PLANE('',#237);
#31=PLANE('',#240);
#32=PLANE('',#245);
#33=PLANE('',#247);
#34=PLANE('',#251);
#35=PLANE('',#252);
#36=CYLINDRICAL_SURFACE('',#229,4.);
#37=CYLINDRICAL_SURFACE('',#235,4.);
#38=CYLINDRICAL_SURFACE('',#243,1.5);
#39=CYLINDRICAL_SURFACE('',#244,5.);
#40=CYLINDRICAL_SURFACE('',#246,5.);
#41=CYLINDRICAL_SURFACE('',#248,2.15);
#42=FACE_BOUND('',#67,.T.);
#43=FACE_BOUND('',#69,.T.);
#44=FACE_BOUND('',#71,.T.);
#45=FACE_BOUND('',#73,.T.);
#46=FACE_BOUND('',#75,.T.);
#47=FACE_BOUND('',#77,.T.);
#48=FACE_BOUND('',#79,.T.);
#49=FACE_BOUND('',#85,.T.);
#50=FACE_BOUND('',#86,.T.);
#51=FACE_BOUND('',#87,.T.);
#52=FACE_BOUND('',#88,.T.);
#53=FACE_BOUND('',#89,.T.);
#54=FACE_OUTER_BOUND('',#66,.T.);
#55=FACE_OUTER_BOUND('',#68,.T.);
#56=FACE_OUTER_BOUND('',#70,.T.);
#57=FACE_OUTER_BOUND('',#72,.T.);
#58=FACE_OUTER_BOUND('',#74,.T.);
#59=FACE_OUTER_BOUND('',#76,.T.);
#60=FACE_OUTER_BOUND('',#78,.T.);
#61=FACE_OUTER_BOUND('',#80,.T.);
#62=FACE_OUTER_BOUND('',#81,.T.);
#63=FACE_OUTER_BOUND('',#82,.T.);
#64=FACE_OUTER_BOUND('',#83,.T.);
#65=FACE_OUTER_BOUND('',#84,.T.);
#66=EDGE_LOOP('',(#154,#155,#156,#157));
#67=EDGE_LOOP('',(#158));
#68=EDGE_LOOP('',(#159));
#69=EDGE_LOOP('',(#160));
#70=EDGE_LOOP('',(#161,#162,#163,#164));
#71=EDGE_LOOP('',(#165));
#72=EDGE_LOOP('',(#166));
#73=EDGE_LOOP('',(#167));
#74=EDGE_LOOP('',(#168,#169,#170,#171));
#75=EDGE_LOOP('',(#172));
#76=EDGE_LOOP('',(#173,#174,#175,#176));
#77=EDGE_LOOP('',(#177));
#78=EDGE_LOOP('',(#178));
#79=EDGE_LOOP('',(#179));
#80=EDGE_LOOP('',(#180,#181,#182,#183));
#81=EDGE_LOOP('',(#184,#185,#186,#187,#188,#189));
#82=EDGE_LOOP('',(#190,#191,#192,#193));
#83=EDGE_LOOP('',(#194,#195,#196,#197,#198,#199));
#84=EDGE_LOOP('',(#200));
#85=EDGE_LOOP('',(#201));
#86=EDGE_LOOP('',(#202));
#87=EDGE_LOOP('',(#203));
#88=EDGE_LOOP('',(#204));
#89=EDGE_LOOP('',(#205));
#90=CIRCLE('',#226,5.);
#91=CIRCLE('',#227,6.);
#92=CIRCLE('',#228,4.);
#93=CIRCLE('',#230,4.);
#94=CIRCLE('',#232,5.);
#95=CIRCLE('',#233,6.);
#96=CIRCLE('',#234,4.);
#97=CIRCLE('',#236,4.);
#98=CIRCLE('',#238,5.);
#99=CIRCLE('',#239,1.5);
#100=CIRCLE('',#241,5.);
#101=CIRCLE('',#242,1.5);
#102=CIRCLE('',#249,2.15);
#103=CIRCLE('',#250,2.15);
#104=B_SPLINE_CURVE_WITH_KNOTS('',3,(#323,#324,#325,#326,#327,#328,#329,
#330),.UNSPECIFIED.,.F.,.F.,(4,2,2,4),(2.4252857860601,2.52571559610406,
2.63173540997802,2.73775522385199),.UNSPECIFIED.);
#105=B_SPLINE_CURVE_WITH_KNOTS('',3,(#334,#335,#336,#337,#338,#339,#340,
#341),.UNSPECIFIED.,.F.,.F.,(4,2,2,4),(0.,0.106019813873966,0.212039627747933,
0.312469437791885),.UNSPECIFIED.);
#106=B_SPLINE_CURVE_WITH_KNOTS('',3,(#351,#352,#353,#354,#355,#356,#357,
#358),.UNSPECIFIED.,.F.,.F.,(4,2,2,4),(2.4252857860601,2.52571559610406,
2.63173540997802,2.73775522385199),.UNSPECIFIED.);
#107=B_SPLINE_CURVE_WITH_KNOTS('',3,(#362,#363,#364,#365,#366,#367,#368,
#369),.UNSPECIFIED.,.F.,.F.,(4,2,2,4),(0.,0.106019813873966,0.212039627747933,
0.312469437791885),.UNSPECIFIED.);
#108=VERTEX_POINT('',#321);
#109=VERTEX_POINT('',#322);
#110=VERTEX_POINT('',#331);
#111=VERTEX_POINT('',#333);
#112=VERTEX_POINT('',#343);
#113=VERTEX_POINT('',#346);
#114=VERTEX_POINT('',#349);
#115=VERTEX_POINT('',#350);
#116=VERTEX_POINT('',#359);
#117=VERTEX_POINT('',#361);
#118=VERTEX_POINT('',#371);
#119=VERTEX_POINT('',#374);
#120=VERTEX_POINT('',#377);
#121=VERTEX_POINT('',#379);
#122=VERTEX_POINT('',#382);
#123=VERTEX_POINT('',#385);
#124=VERTEX_POINT('',#387);
#125=VERTEX_POINT('',#390);
#126=VERTEX_POINT('',#402);
#127=VERTEX_POINT('',#404);
#128=EDGE_CURVE('',#108,#109,#104,.T.);
#129=EDGE_CURVE('',#109,#110,#90,.T.);
#130=EDGE_CURVE('',#111,#110,#105,.F.);
#131=EDGE_CURVE('',#111,#108,#91,.T.);
#132=EDGE_CURVE('',#112,#112,#92,.T.);
#133=EDGE_CURVE('',#113,#113,#93,.T.);
#134=EDGE_CURVE('',#114,#115,#106,.T.);
#135=EDGE_CURVE('',#115,#116,#94,.T.);
#136=EDGE_CURVE('',#117,#116,#107,.F.);
#137=EDGE_CURVE('',#117,#114,#95,.T.);
#138=EDGE_CURVE('',#118,#118,#96,.T.);
#139=EDGE_CURVE('',#119,#119,#97,.T.);
#140=EDGE_CURVE('',#117,#120,#14,.T.);
#141=EDGE_CURVE('',#120,#121,#98,.T.);
#142=EDGE_CURVE('',#121,#114,#15,.T.);
#143=EDGE_CURVE('',#122,#122,#99,.T.);
#144=EDGE_CURVE('',#111,#123,#16,.T.);
#145=EDGE_CURVE('',#123,#124,#100,.T.);
#146=EDGE_CURVE('',#124,#108,#17,.T.);
#147=EDGE_CURVE('',#125,#125,#101,.T.);
#148=EDGE_CURVE('',#110,#115,#18,.F.);
#149=EDGE_CURVE('',#116,#109,#19,.T.);
#150=EDGE_CURVE('',#120,#124,#20,.T.);
#151=EDGE_CURVE('',#121,#123,#21,.T.);
#152=EDGE_CURVE('',#126,#126,#102,.T.);
#153=EDGE_CURVE('',#127,#127,#103,.T.);
#154=ORIENTED_EDGE('',*,*,#128,.T.);
#155=ORIENTED_EDGE('',*,*,#129,.T.);
#156=ORIENTED_EDGE('',*,*,#130,.F.);
#157=ORIENTED_EDGE('',*,*,#131,.T.);
#158=ORIENTED_EDGE('',*,*,#132,.T.);
#159=ORIENTED_EDGE('',*,*,#133,.F.);
#160=ORIENTED_EDGE('',*,*,#132,.F.);
#161=ORIENTED_EDGE('',*,*,#134,.T.);
#162=ORIENTED_EDGE('',*,*,#135,.T.);
#163=ORIENTED_EDGE('',*,*,#136,.F.);
#164=ORIENTED_EDGE('',*,*,#137,.T.);
#165=ORIENTED_EDGE('',*,*,#138,.T.);
#166=ORIENTED_EDGE('',*,*,#139,.F.);
#167=ORIENTED_EDGE('',*,*,#138,.F.);
#168=ORIENTED_EDGE('',*,*,#137,.F.);
#169=ORIENTED_EDGE('',*,*,#140,.T.);
#170=ORIENTED_EDGE('',*,*,#141,.T.);
#171=ORIENTED_EDGE('',*,*,#142,.T.);
#172=ORIENTED_EDGE('',*,*,#143,.T.);
#173=ORIENTED_EDGE('',*,*,#131,.F.);
#174=ORIENTED_EDGE('',*,*,#144,.T.);
#175=ORIENTED_EDGE('',*,*,#145,.T.);
#176=ORIENTED_EDGE('',*,*,#146,.T.);
#177=ORIENTED_EDGE('',*,*,#147,.T.);
#178=ORIENTED_EDGE('',*,*,#147,.F.);
#179=ORIENTED_EDGE('',*,*,#143,.F.);
#180=ORIENTED_EDGE('',*,*,#148,.F.);
#181=ORIENTED_EDGE('',*,*,#129,.F.);
#182=ORIENTED_EDGE('',*,*,#149,.F.);
#183=ORIENTED_EDGE('',*,*,#135,.F.);
#184=ORIENTED_EDGE('',*,*,#149,.T.);
#185=ORIENTED_EDGE('',*,*,#128,.F.);
#186=ORIENTED_EDGE('',*,*,#146,.F.);
#187=ORIENTED_EDGE('',*,*,#150,.F.);
#188=ORIENTED_EDGE('',*,*,#140,.F.);
#189=ORIENTED_EDGE('',*,*,#136,.T.);
#190=ORIENTED_EDGE('',*,*,#141,.F.);
#191=ORIENTED_EDGE('',*,*,#150,.T.);
#192=ORIENTED_EDGE('',*,*,#145,.F.);
#193=ORIENTED_EDGE('',*,*,#151,.F.);
#194=ORIENTED_EDGE('',*,*,#142,.F.);
#195=ORIENTED_EDGE('',*,*,#151,.T.);
#196=ORIENTED_EDGE('',*,*,#144,.F.);
#197=ORIENTED_EDGE('',*,*,#130,.T.);
#198=ORIENTED_EDGE('',*,*,#148,.T.);
#199=ORIENTED_EDGE('',*,*,#134,.F.);
#200=ORIENTED_EDGE('',*,*,#152,.F.);
#201=ORIENTED_EDGE('',*,*,#153,.F.);
#202=ORIENTED_EDGE('',*,*,#152,.T.);
#203=ORIENTED_EDGE('',*,*,#133,.T.);
#204=ORIENTED_EDGE('',*,*,#153,.T.);
#205=ORIENTED_EDGE('',*,*,#139,.T.);
#206=TOROIDAL_SURFACE('',#225,6.,2.);
#207=TOROIDAL_SURFACE('',#231,6.,2.);
#208=ADVANCED_FACE('',(#54,#42),#206,.F.);
#209=ADVANCED_FACE('',(#55,#43),#36,.T.);
#210=ADVANCED_FACE('',(#56,#44),#207,.F.);
#211=ADVANCED_FACE('',(#57,#45),#37,.T.);
#212=ADVANCED_FACE('',(#58,#46),#30,.T.);
#213=ADVANCED_FACE('',(#59,#47),#31,.F.);
#214=ADVANCED_FACE('',(#60,#48),#38,.F.);
#215=ADVANCED_FACE('',(#61),#39,.T.);
#216=ADVANCED_FACE('',(#62),#32,.T.);
#217=ADVANCED_FACE('',(#63),#40,.T.);
#218=ADVANCED_FACE('',(#64),#33,.T.);
#219=ADVANCED_FACE('',(#65,#49),#41,.F.);
#220=ADVANCED_FACE('',(#50,#51),#34,.F.);
#221=ADVANCED_FACE('',(#52,#53),#35,.T.);
#222=CLOSED_SHELL('',(#208,#209,#210,#211,#212,#213,#214,#215,#216,#217,
#218,#219,#220,#221));
#223=MANIFOLD_SOLID_BREP('Volumenk\X\F6rper1',#222);
#224=AXIS2_PLACEMENT_3D('placement',#319,#253,#254);
#225=AXIS2_PLACEMENT_3D('',#320,#255,#256);
#226=AXIS2_PLACEMENT_3D('',#332,#257,#258);
#227=AXIS2_PLACEMENT_3D('',#342,#259,#260);
#228=AXIS2_PLACEMENT_3D('',#344,#261,#262);
#229=AXIS2_PLACEMENT_3D('',#345,#263,#264);
#230=AXIS2_PLACEMENT_3D('',#347,#265,#266);
#231=AXIS2_PLACEMENT_3D('',#348,#267,#268);
#232=AXIS2_PLACEMENT_3D('',#360,#269,#270);
#233=AXIS2_PLACEMENT_3D('',#370,#271,#272);
#234=AXIS2_PLACEMENT_3D('',#372,#273,#274);
#235=AXIS2_PLACEMENT_3D('',#373,#275,#276);
#236=AXIS2_PLACEMENT_3D('',#375,#277,#278);
#237=AXIS2_PLACEMENT_3D('',#376,#279,#280);
#238=AXIS2_PLACEMENT_3D('',#380,#282,#283);
#239=AXIS2_PLACEMENT_3D('',#383,#285,#286);
#240=AXIS2_PLACEMENT_3D('',#384,#287,#288);
#241=AXIS2_PLACEMENT_3D('',#388,#290,#291);
#242=AXIS2_PLACEMENT_3D('',#391,#293,#294);
#243=AXIS2_PLACEMENT_3D('',#392,#295,#296);
#244=AXIS2_PLACEMENT_3D('',#393,#297,#298);
#245=AXIS2_PLACEMENT_3D('',#396,#301,#302);
#246=AXIS2_PLACEMENT_3D('',#398,#304,#305);
#247=AXIS2_PLACEMENT_3D('',#400,#307,#308);
#248=AXIS2_PLACEMENT_3D('',#401,#309,#310);
#249=AXIS2_PLACEMENT_3D('',#403,#311,#312);
#250=AXIS2_PLACEMENT_3D('',#405,#313,#314);
#251=AXIS2_PLACEMENT_3D('',#406,#315,#316);
#252=AXIS2_PLACEMENT_3D('',#407,#317,#318);
#253=DIRECTION('axis',(0.,0.,1.));
#254=DIRECTION('refdir',(1.,0.,0.));
#255=DIRECTION('center_axis',(0.,0.,-1.));
#256=DIRECTION('ref_axis',(-1.,0.,0.));
#257=DIRECTION('center_axis',(0.,0.,-1.));
#258=DIRECTION('ref_axis',(3.33066907387547E-016,-1.,0.));
#259=DIRECTION('center_axis',(0.,0.,-1.));
#260=DIRECTION('ref_axis',(-1.,0.,0.));
#261=DIRECTION('center_axis',(0.,0.,1.));
#262=DIRECTION('ref_axis',(-1.,0.,0.));
#263=DIRECTION('center_axis',(0.,0.,1.));
#264=DIRECTION('ref_axis',(-1.,0.,0.));
#265=DIRECTION('center_axis',(0.,0.,-1.));
#266=DIRECTION('ref_axis',(-1.,0.,0.));
#267=DIRECTION('center_axis',(0.,0.,1.));
#268=DIRECTION('ref_axis',(1.,0.,0.));
#269=DIRECTION('center_axis',(0.,0.,1.));
#270=DIRECTION('ref_axis',(3.33066907387547E-016,-1.,0.));
#271=DIRECTION('center_axis',(0.,0.,1.));
#272=DIRECTION('ref_axis',(-1.,0.,0.));
#273=DIRECTION('center_axis',(0.,0.,-1.));
#274=DIRECTION('ref_axis',(-1.,0.,0.));
#275=DIRECTION('center_axis',(0.,0.,1.));
#276=DIRECTION('ref_axis',(-1.,0.,0.));
#277=DIRECTION('center_axis',(0.,0.,1.));
#278=DIRECTION('ref_axis',(-1.,0.,0.));
#279=DIRECTION('center_axis',(0.,0.,1.));
#280=DIRECTION('ref_axis',(1.,0.,0.));
#281=DIRECTION('',(-1.,-3.70074341541719E-017,0.));
#282=DIRECTION('center_axis',(0.,0.,1.));
#283=DIRECTION('ref_axis',(0.,1.,0.));
#284=DIRECTION('',(1.,4.07081775695891E-016,0.));
#285=DIRECTION('center_axis',(0.,0.,-1.));
#286=DIRECTION('ref_axis',(-1.,0.,0.));
#287=DIRECTION('center_axis',(0.,0.,1.));
#288=DIRECTION('ref_axis',(1.,0.,0.));
#289=DIRECTION('',(-1.,-4.07081775695891E-016,0.));
#290=DIRECTION('center_axis',(0.,0.,-1.));
#291=DIRECTION('ref_axis',(0.,1.,0.));
#292=DIRECTION('',(1.,3.70074341541719E-017,0.));
#293=DIRECTION('center_axis',(0.,0.,1.));
#294=DIRECTION('ref_axis',(-1.,0.,0.));
#295=DIRECTION('center_axis',(0.,0.,-1.));
#296=DIRECTION('ref_axis',(-1.,0.,0.));
#297=DIRECTION('center_axis',(0.,0.,-1.));
#298=DIRECTION('ref_axis',(3.33066907387547E-016,-1.,0.));
#299=DIRECTION('',(0.,0.,-1.));
#300=DIRECTION('',(0.,0.,-1.));
#301=DIRECTION('center_axis',(-3.70074341541719E-017,1.,0.));
#302=DIRECTION('ref_axis',(1.,0.,0.));
#303=DIRECTION('',(0.,0.,-1.));
#304=DIRECTION('center_axis',(0.,0.,-1.));
#305=DIRECTION('ref_axis',(0.,1.,0.));
#306=DIRECTION('',(0.,0.,-1.));
#307=DIRECTION('center_axis',(4.07081775695891E-016,-1.,0.));
#308=DIRECTION('ref_axis',(-1.,-4.44089209850063E-016,0.));
#309=DIRECTION('center_axis',(0.,0.,1.));
#310=DIRECTION('ref_axis',(-1.,0.,0.));
#311=DIRECTION('center_axis',(0.,0.,1.));
#312=DIRECTION('ref_axis',(-1.,0.,0.));
#313=DIRECTION('center_axis',(0.,0.,-1.));
#314=DIRECTION('ref_axis',(-1.,0.,0.));
#315=DIRECTION('center_axis',(0.,0.,1.));
#316=DIRECTION('ref_axis',(1.,0.,0.));
#317=DIRECTION('center_axis',(0.,0.,1.));
#318=DIRECTION('ref_axis',(1.,0.,0.));
#319=CARTESIAN_POINT('',(0.,0.,0.));
#320=CARTESIAN_POINT('Origin',(0.,0.,-5.));
#321=CARTESIAN_POINT('',(-3.3166247903554,5.,-3.));
#322=CARTESIAN_POINT('',(-2.77555756156289E-016,5.,-3.26794919243112));
#323=CARTESIAN_POINT('Ctrl Pts',(-3.3166247903554,5.,-3.));
#324=CARTESIAN_POINT('Ctrl Pts',(-2.98185875687556,5.,-3.));
#325=CARTESIAN_POINT('Ctrl Pts',(-2.58138252753032,5.,-3.03157748655048));
#326=CARTESIAN_POINT('Ctrl Pts',(-1.89733573708383,5.,-3.10675477176039));
#327=CARTESIAN_POINT('Ctrl Pts',(-1.51225111881445,5.,-3.16017455587487));
#328=CARTESIAN_POINT('Ctrl Pts',(-0.740482389794875,5.,-3.24265975592311));
#329=CARTESIAN_POINT('Ctrl Pts',(-0.353399379579889,5.,-3.26794919243112));
#330=CARTESIAN_POINT('Ctrl Pts',(-2.77555756156289E-016,5.,-3.26794919243112));
#331=CARTESIAN_POINT('',(2.03540887847945E-015,-5.,-3.26794919243112));
#332=CARTESIAN_POINT('Origin',(0.,0.,-3.26794919243112));
#333=CARTESIAN_POINT('',(-3.3166247903554,-5.,-3.));
#334=CARTESIAN_POINT('Ctrl Pts',(1.94289029309402E-015,-5.,-3.26794919243112));
#335=CARTESIAN_POINT('Ctrl Pts',(-0.353399379579886,-5.,-3.26794919243112));
#336=CARTESIAN_POINT('Ctrl Pts',(-0.740482389794871,-5.,-3.24265975592311));
#337=CARTESIAN_POINT('Ctrl Pts',(-1.51225111881444,-5.,-3.16017455587487));
#338=CARTESIAN_POINT('Ctrl Pts',(-1.89733573708383,-5.,-3.10675477176039));
#339=CARTESIAN_POINT('Ctrl Pts',(-2.58138252753032,-5.,-3.03157748655048));
#340=CARTESIAN_POINT('Ctrl Pts',(-2.98185875687556,-5.,-3.));
#341=CARTESIAN_POINT('Ctrl Pts',(-3.3166247903554,-5.,-3.));
#342=CARTESIAN_POINT('Origin',(0.,0.,-3.));
#343=CARTESIAN_POINT('',(4.,4.89858719658941E-016,-5.));
#344=CARTESIAN_POINT('Origin',(0.,0.,-5.));
#345=CARTESIAN_POINT('Origin',(0.,0.,0.));
#346=CARTESIAN_POINT('',(4.,4.89858719658941E-016,-19.));
#347=CARTESIAN_POINT('Origin',(0.,0.,-19.));
#348=CARTESIAN_POINT('Origin',(0.,0.,2.));
#349=CARTESIAN_POINT('',(-3.3166247903554,-5.,0.));
#350=CARTESIAN_POINT('',(2.0122792321331E-015,-5.,0.267949192431124));
#351=CARTESIAN_POINT('Ctrl Pts',(-3.3166247903554,-5.,-1.0842021724855E-018));
#352=CARTESIAN_POINT('Ctrl Pts',(-2.98185875687556,-5.,-1.50216381061764E-017));
#353=CARTESIAN_POINT('Ctrl Pts',(-2.58138252753032,-5.,0.0315774865504807));
#354=CARTESIAN_POINT('Ctrl Pts',(-1.89733573708383,-5.,0.106754771760393));
#355=CARTESIAN_POINT('Ctrl Pts',(-1.51225111881444,-5.,0.160174555874866));
#356=CARTESIAN_POINT('Ctrl Pts',(-0.74048238979487,-5.,0.242659755923105));
#357=CARTESIAN_POINT('Ctrl Pts',(-0.353399379579885,-5.,0.267949192431124));
#358=CARTESIAN_POINT('Ctrl Pts',(2.0122792321331E-015,-5.,0.267949192431124));
#359=CARTESIAN_POINT('',(0.,5.,0.267949192431123));
#360=CARTESIAN_POINT('Origin',(0.,0.,0.267949192431123));
#361=CARTESIAN_POINT('',(-3.3166247903554,5.,0.));
#362=CARTESIAN_POINT('Ctrl Pts',(-1.38777878078145E-016,5.,0.267949192431124));
#363=CARTESIAN_POINT('Ctrl Pts',(-0.353399379579888,5.,0.267949192431124));
#364=CARTESIAN_POINT('Ctrl Pts',(-0.740482389794873,5.,0.242659755923107));
#365=CARTESIAN_POINT('Ctrl Pts',(-1.51225111881444,5.,0.160174555874867));
#366=CARTESIAN_POINT('Ctrl Pts',(-1.89733573708383,5.,0.106754771760393));
#367=CARTESIAN_POINT('Ctrl Pts',(-2.58138252753032,5.,0.0315774865504807));
#368=CARTESIAN_POINT('Ctrl Pts',(-2.98185875687556,5.,0.));
#369=CARTESIAN_POINT('Ctrl Pts',(-3.3166247903554,5.,0.));
#370=CARTESIAN_POINT('Origin',(0.,0.,0.));
#371=CARTESIAN_POINT('',(4.,-4.89858719658941E-016,2.));
#372=CARTESIAN_POINT('Origin',(0.,0.,2.));
#373=CARTESIAN_POINT('Origin',(0.,0.,0.));
#374=CARTESIAN_POINT('',(4.,4.89858719658941E-016,19.));
#375=CARTESIAN_POINT('Origin',(0.,0.,19.));
#376=CARTESIAN_POINT('Origin',(-7.5,-1.56363333054176E-015,0.));
#377=CARTESIAN_POINT('',(-15.,5.,0.));
#378=CARTESIAN_POINT('',(-2.27765793651141E-015,5.,0.));
#379=CARTESIAN_POINT('',(-15.,-5.00000000000001,0.));
#380=CARTESIAN_POINT('Origin',(-15.,-3.67394039744206E-015,0.));
#381=CARTESIAN_POINT('',(-15.,-5.00000000000001,0.));
#382=CARTESIAN_POINT('',(-13.5,-3.49024337756996E-015,0.));
#383=CARTESIAN_POINT('Origin',(-15.,-3.67394039744206E-015,0.));
#384=CARTESIAN_POINT('Origin',(-7.5,-1.56363333054176E-015,-3.));
#385=CARTESIAN_POINT('',(-15.,-5.00000000000001,-3.));
#386=CARTESIAN_POINT('',(-15.,-5.00000000000001,-3.));
#387=CARTESIAN_POINT('',(-15.,5.,-3.));
#388=CARTESIAN_POINT('Origin',(-15.,-3.67394039744206E-015,-3.));
#389=CARTESIAN_POINT('',(-2.27765793651141E-015,5.,-3.));
#390=CARTESIAN_POINT('',(-13.5,-3.49024337756996E-015,-3.));
#391=CARTESIAN_POINT('Origin',(-15.,-3.67394039744206E-015,-3.));
#392=CARTESIAN_POINT('Origin',(-15.,-3.67394039744206E-015,0.));
#393=CARTESIAN_POINT('Origin',(0.,0.,0.));
#394=CARTESIAN_POINT('',(2.03540887847945E-015,-5.,0.));
#395=CARTESIAN_POINT('',(0.,5.,0.));
#396=CARTESIAN_POINT('Origin',(-15.,5.,0.));
#397=CARTESIAN_POINT('',(-15.,5.,0.));
#398=CARTESIAN_POINT('Origin',(-15.,-3.67394039744206E-015,0.));
#399=CARTESIAN_POINT('',(-15.,-5.00000000000001,0.));
#400=CARTESIAN_POINT('Origin',(2.22044604925031E-015,-5.,0.));
#401=CARTESIAN_POINT('Origin',(0.,0.,0.));
#402=CARTESIAN_POINT('',(2.15,2.63299061816681E-016,-19.));
#403=CARTESIAN_POINT('Origin',(0.,0.,-19.));
#404=CARTESIAN_POINT('',(2.15,2.63299061816681E-016,19.));
#405=CARTESIAN_POINT('Origin',(0.,0.,19.));
#406=CARTESIAN_POINT('Origin',(-2.72118023435153E-016,0.,-19.));
#407=CARTESIAN_POINT('Origin',(-2.72118023435153E-016,0.,19.));
#408=UNCERTAINTY_MEASURE_WITH_UNIT(LENGTH_MEASURE(0.01),#412,
'DISTANCE_ACCURACY_VALUE',
'Maximum model space distance between geometric entities at asserted c
onnectivities');
#409=UNCERTAINTY_MEASURE_WITH_UNIT(LENGTH_MEASURE(1.E-006),#412,
'DISTANCE_ACCURACY_VALUE',
'Maximum model space distance between geometric entities at asserted c
onnectivities');
#410=(
GEOMETRIC_REPRESENTATION_CONTEXT(3)
GLOBAL_UNCERTAINTY_ASSIGNED_CONTEXT((#408))
GLOBAL_UNIT_ASSIGNED_CONTEXT((#412,#415,#413))
REPRESENTATION_CONTEXT('','3D')
);
#411=(
GEOMETRIC_REPRESENTATION_CONTEXT(3)
GLOBAL_UNCERTAINTY_ASSIGNED_CONTEXT((#409))
GLOBAL_UNIT_ASSIGNED_CONTEXT((#412,#415,#413))
REPRESENTATION_CONTEXT('','3D')
);
#412=(
LENGTH_UNIT()
NAMED_UNIT(*)
SI_UNIT(.MILLI.,.METRE.)
);
#413=(
NAMED_UNIT(*)
SI_UNIT($,.STERADIAN.)
SOLID_ANGLE_UNIT()
);
#414=DIMENSIONAL_EXPONENTS(0.,0.,0.,0.,0.,0.,0.);
#415=(
CONVERSION_BASED_UNIT('degree',#417)
NAMED_UNIT(#414)
PLANE_ANGLE_UNIT()
);
#416=(
NAMED_UNIT(*)
PLANE_ANGLE_UNIT()
SI_UNIT($,.RADIAN.)
);
#417=PLANE_ANGLE_MEASURE_WITH_UNIT(PLANE_ANGLE_MEASURE(0.01745329252),#416);
#418=SHAPE_DEFINITION_REPRESENTATION(#419,#420);
#419=PRODUCT_DEFINITION_SHAPE('',$,#422);
#420=SHAPE_REPRESENTATION('',(#224),#410);
#421=PRODUCT_DEFINITION_CONTEXT('part definition',#426,'design');
#422=PRODUCT_DEFINITION('Coinschiebeachse','Coinschiebeachse',#423,#421);
#423=PRODUCT_DEFINITION_FORMATION('',$,#428);
#424=PRODUCT_RELATED_PRODUCT_CATEGORY('Coinschiebeachse',
'Coinschiebeachse',(#428));
#425=APPLICATION_PROTOCOL_DEFINITION('international standard',
'automotive_design',2009,#426);
#426=APPLICATION_CONTEXT(
'Core Data for Automotive Mechanical Design Process');
#427=PRODUCT_CONTEXT('part definition',#426,'mechanical');
#428=PRODUCT('Coinschiebeachse','Coinschiebeachse',$,(#427));
#429=PRESENTATION_STYLE_ASSIGNMENT((#430));
#430=SURFACE_STYLE_USAGE(.BOTH.,#431);
#431=SURFACE_SIDE_STYLE($,(#432));
#432=SURFACE_STYLE_FILL_AREA(#433);
#433=FILL_AREA_STYLE($,(#434));
#434=FILL_AREA_STYLE_COLOUR($,#435);
#435=COLOUR_RGB('',0.0941176470588235,0.145098039215686,0.972549019607843);
ENDSEC;
END-ISO-10303-21;
