ISO-10303-21;
HEADER;
/* Generated by software containing ST-Developer
 * from STEP Tools, Inc. (www.steptools.com) 
 */

FILE_DESCRIPTION(
/* description */ ('Zylinderkopfschraube'),
/* implementation_level */ '2;1');

FILE_NAME(
/* name */ 
'C:\\Users\\SvenW\\Documents\\inventor\\B-Automaten\\Export_B_Automate
n\\ExportGithub\\DIN 912 - M4 x 0,7 x 40 x 20.stp',
/* time_stamp */ '2026-05-14T08:08:39+02:00',
/* author */ ('SvenW'),
/* organization */ (''),
/* preprocessor_version */ 'ST-DEVELOPER v15.2',
/* originating_system */ 'Autodesk Inventor 2014',
/* authorisation */ '');

FILE_SCHEMA (('AUTOMOTIVE_DESIGN { 1 0 10303 214 3 1 1 }'));
ENDSEC;

DATA;
#10=MECHANICAL_DESIGN_GEOMETRIC_PRESENTATION_REPRESENTATION('',(#13),#377);
#11=SHAPE_REPRESENTATION_RELATIONSHIP('SRR','None',#386,#12);
#12=ADVANCED_BREP_SHAPE_REPRESENTATION($,(#220),#376);
#13=STYLED_ITEM('',(#395),#220);
#14=(
BOUNDED_CURVE()
B_SPLINE_CURVE(2,(#340,#341,#342),.UNSPECIFIED.,.F.,.F.)
B_SPLINE_CURVE_WITH_KNOTS((3,3),(0.,0.175265420711686),.UNSPECIFIED.)
CURVE()
GEOMETRIC_REPRESENTATION_ITEM()
RATIONAL_B_SPLINE_CURVE((1.,1.15470053837925,1.))
REPRESENTATION_ITEM('')
);
#15=(
BOUNDED_CURVE()
B_SPLINE_CURVE(2,(#347,#348,#349),.UNSPECIFIED.,.F.,.F.)
B_SPLINE_CURVE_WITH_KNOTS((3,3),(0.,0.175265420711686),.UNSPECIFIED.)
CURVE()
GEOMETRIC_REPRESENTATION_ITEM()
RATIONAL_B_SPLINE_CURVE((1.,1.15470053837925,1.))
REPRESENTATION_ITEM('')
);
#16=(
BOUNDED_CURVE()
B_SPLINE_CURVE(2,(#353,#354,#355),.UNSPECIFIED.,.F.,.F.)
B_SPLINE_CURVE_WITH_KNOTS((3,3),(0.,0.175265420711686),.UNSPECIFIED.)
CURVE()
GEOMETRIC_REPRESENTATION_ITEM()
RATIONAL_B_SPLINE_CURVE((1.,1.15470053837925,1.))
REPRESENTATION_ITEM('')
);
#17=(
BOUNDED_CURVE()
B_SPLINE_CURVE(2,(#359,#360,#361),.UNSPECIFIED.,.F.,.F.)
B_SPLINE_CURVE_WITH_KNOTS((3,3),(0.,0.175265420711686),.UNSPECIFIED.)
CURVE()
GEOMETRIC_REPRESENTATION_ITEM()
RATIONAL_B_SPLINE_CURVE((1.,1.15470053837925,1.))
REPRESENTATION_ITEM('')
);
#18=(
BOUNDED_CURVE()
B_SPLINE_CURVE(2,(#365,#366,#367),.UNSPECIFIED.,.F.,.F.)
B_SPLINE_CURVE_WITH_KNOTS((3,3),(0.,0.175265420711686),.UNSPECIFIED.)
CURVE()
GEOMETRIC_REPRESENTATION_ITEM()
RATIONAL_B_SPLINE_CURVE((1.,1.15470053837925,1.))
REPRESENTATION_ITEM('')
);
#19=(
BOUNDED_CURVE()
B_SPLINE_CURVE(2,(#370,#371,#372),.UNSPECIFIED.,.F.,.F.)
B_SPLINE_CURVE_WITH_KNOTS((3,3),(0.,0.175265420711686),.UNSPECIFIED.)
CURVE()
GEOMETRIC_REPRESENTATION_ITEM()
RATIONAL_B_SPLINE_CURVE((1.,1.15470053837925,1.))
REPRESENTATION_ITEM('')
);
#20=LINE('',#326,#32);
#21=LINE('',#328,#33);
#22=LINE('',#330,#34);
#23=LINE('',#332,#35);
#24=LINE('',#334,#36);
#25=LINE('',#335,#37);
#26=LINE('',#343,#38);
#27=LINE('',#344,#39);
#28=LINE('',#350,#40);
#29=LINE('',#356,#41);
#30=LINE('',#362,#42);
#31=LINE('',#368,#43);
#32=VECTOR('',#274,1.73205080756888);
#33=VECTOR('',#275,1.73205080756888);
#34=VECTOR('',#276,1.73205080756888);
#35=VECTOR('',#277,1.73205080756888);
#36=VECTOR('',#278,1.73205080756888);
#37=VECTOR('',#279,1.73205080756888);
#38=VECTOR('',#284,2.);
#39=VECTOR('',#285,2.);
#40=VECTOR('',#288,2.);
#41=VECTOR('',#291,2.);
#42=VECTOR('',#294,2.);
#43=VECTOR('',#297,2.);
#44=CONICAL_SURFACE('',#229,1.7852925,45.);
#45=CONICAL_SURFACE('',#243,0.866025403784439,59.9999999999999);
#46=PLANE('',#227);
#47=PLANE('',#231);
#48=PLANE('',#235);
#49=PLANE('',#237);
#50=PLANE('',#238);
#51=PLANE('',#239);
#52=PLANE('',#240);
#53=PLANE('',#241);
#54=PLANE('',#242);
#55=CYLINDRICAL_SURFACE('',#225,2.);
#56=CYLINDRICAL_SURFACE('',#236,3.5);
#57=FACE_BOUND('',#80,.T.);
#58=FACE_BOUND('',#82,.T.);
#59=FACE_BOUND('',#84,.T.);
#60=FACE_BOUND('',#86,.T.);
#61=FACE_BOUND('',#89,.T.);
#62=FACE_BOUND('',#90,.T.);
#63=FACE_BOUND('',#91,.T.);
#64=FACE_BOUND('',#93,.T.);
#65=FACE_OUTER_BOUND('',#79,.T.);
#66=FACE_OUTER_BOUND('',#81,.T.);
#67=FACE_OUTER_BOUND('',#83,.T.);
#68=FACE_OUTER_BOUND('',#85,.T.);
#69=FACE_OUTER_BOUND('',#87,.T.);
#70=FACE_OUTER_BOUND('',#88,.T.);
#71=FACE_OUTER_BOUND('',#92,.T.);
#72=FACE_OUTER_BOUND('',#94,.T.);
#73=FACE_OUTER_BOUND('',#95,.T.);
#74=FACE_OUTER_BOUND('',#96,.T.);
#75=FACE_OUTER_BOUND('',#97,.T.);
#76=FACE_OUTER_BOUND('',#98,.T.);
#77=FACE_OUTER_BOUND('',#99,.T.);
#78=FACE_OUTER_BOUND('',#100,.T.);
#79=EDGE_LOOP('',(#152));
#80=EDGE_LOOP('',(#153));
#81=EDGE_LOOP('',(#154));
#82=EDGE_LOOP('',(#155));
#83=EDGE_LOOP('',(#156));
#84=EDGE_LOOP('',(#157));
#85=EDGE_LOOP('',(#158));
#86=EDGE_LOOP('',(#159));
#87=EDGE_LOOP('',(#160));
#88=EDGE_LOOP('',(#161));
#89=EDGE_LOOP('',(#162));
#90=EDGE_LOOP('',(#163,#164,#165,#166,#167,#168));
#91=EDGE_LOOP('',(#169));
#92=EDGE_LOOP('',(#170));
#93=EDGE_LOOP('',(#171));
#94=EDGE_LOOP('',(#172,#173,#174,#175));
#95=EDGE_LOOP('',(#176,#177,#178,#179));
#96=EDGE_LOOP('',(#180,#181,#182,#183));
#97=EDGE_LOOP('',(#184,#185,#186,#187));
#98=EDGE_LOOP('',(#188,#189,#190,#191));
#99=EDGE_LOOP('',(#192,#193,#194,#195));
#100=EDGE_LOOP('',(#196,#197,#198,#199,#200,#201));
#101=CIRCLE('',#223,2.1);
#102=CIRCLE('',#224,2.);
#103=CIRCLE('',#226,2.);
#104=CIRCLE('',#228,3.5);
#105=CIRCLE('',#230,1.570585);
#106=CIRCLE('',#233,3.1);
#107=CIRCLE('',#234,3.5);
#108=VERTEX_POINT('',#304);
#109=VERTEX_POINT('',#306);
#110=VERTEX_POINT('',#309);
#111=VERTEX_POINT('',#312);
#112=VERTEX_POINT('',#315);
#113=VERTEX_POINT('',#319);
#114=VERTEX_POINT('',#321);
#115=VERTEX_POINT('',#324);
#116=VERTEX_POINT('',#325);
#117=VERTEX_POINT('',#327);
#118=VERTEX_POINT('',#329);
#119=VERTEX_POINT('',#331);
#120=VERTEX_POINT('',#333);
#121=VERTEX_POINT('',#338);
#122=VERTEX_POINT('',#339);
#123=VERTEX_POINT('',#346);
#124=VERTEX_POINT('',#352);
#125=VERTEX_POINT('',#358);
#126=VERTEX_POINT('',#364);
#127=EDGE_CURVE('',#108,#108,#101,.T.);
#128=EDGE_CURVE('',#109,#109,#102,.T.);
#129=EDGE_CURVE('',#110,#110,#103,.T.);
#130=EDGE_CURVE('',#111,#111,#104,.T.);
#131=EDGE_CURVE('',#112,#112,#105,.T.);
#132=EDGE_CURVE('',#113,#113,#106,.T.);
#133=EDGE_CURVE('',#114,#114,#107,.T.);
#134=EDGE_CURVE('',#115,#116,#20,.T.);
#135=EDGE_CURVE('',#116,#117,#21,.T.);
#136=EDGE_CURVE('',#117,#118,#22,.T.);
#137=EDGE_CURVE('',#118,#119,#23,.T.);
#138=EDGE_CURVE('',#119,#120,#24,.T.);
#139=EDGE_CURVE('',#120,#115,#25,.T.);
#140=EDGE_CURVE('',#121,#122,#14,.T.);
#141=EDGE_CURVE('',#121,#120,#26,.T.);
#142=EDGE_CURVE('',#122,#119,#27,.T.);
#143=EDGE_CURVE('',#123,#121,#15,.T.);
#144=EDGE_CURVE('',#123,#115,#28,.T.);
#145=EDGE_CURVE('',#124,#123,#16,.T.);
#146=EDGE_CURVE('',#124,#116,#29,.T.);
#147=EDGE_CURVE('',#125,#124,#17,.T.);
#148=EDGE_CURVE('',#117,#125,#30,.T.);
#149=EDGE_CURVE('',#122,#126,#18,.T.);
#150=EDGE_CURVE('',#126,#118,#31,.T.);
#151=EDGE_CURVE('',#126,#125,#19,.T.);
#152=ORIENTED_EDGE('',*,*,#127,.T.);
#153=ORIENTED_EDGE('',*,*,#128,.T.);
#154=ORIENTED_EDGE('',*,*,#129,.F.);
#155=ORIENTED_EDGE('',*,*,#128,.F.);
#156=ORIENTED_EDGE('',*,*,#130,.T.);
#157=ORIENTED_EDGE('',*,*,#127,.F.);
#158=ORIENTED_EDGE('',*,*,#129,.T.);
#159=ORIENTED_EDGE('',*,*,#131,.T.);
#160=ORIENTED_EDGE('',*,*,#131,.F.);
#161=ORIENTED_EDGE('',*,*,#132,.T.);
#162=ORIENTED_EDGE('',*,*,#133,.T.);
#163=ORIENTED_EDGE('',*,*,#134,.T.);
#164=ORIENTED_EDGE('',*,*,#135,.T.);
#165=ORIENTED_EDGE('',*,*,#136,.T.);
#166=ORIENTED_EDGE('',*,*,#137,.T.);
#167=ORIENTED_EDGE('',*,*,#138,.T.);
#168=ORIENTED_EDGE('',*,*,#139,.T.);
#169=ORIENTED_EDGE('',*,*,#132,.F.);
#170=ORIENTED_EDGE('',*,*,#130,.F.);
#171=ORIENTED_EDGE('',*,*,#133,.F.);
#172=ORIENTED_EDGE('',*,*,#140,.F.);
#173=ORIENTED_EDGE('',*,*,#141,.T.);
#174=ORIENTED_EDGE('',*,*,#138,.F.);
#175=ORIENTED_EDGE('',*,*,#142,.F.);
#176=ORIENTED_EDGE('',*,*,#143,.F.);
#177=ORIENTED_EDGE('',*,*,#144,.T.);
#178=ORIENTED_EDGE('',*,*,#139,.F.);
#179=ORIENTED_EDGE('',*,*,#141,.F.);
#180=ORIENTED_EDGE('',*,*,#145,.F.);
#181=ORIENTED_EDGE('',*,*,#146,.T.);
#182=ORIENTED_EDGE('',*,*,#134,.F.);
#183=ORIENTED_EDGE('',*,*,#144,.F.);
#184=ORIENTED_EDGE('',*,*,#147,.F.);
#185=ORIENTED_EDGE('',*,*,#148,.F.);
#186=ORIENTED_EDGE('',*,*,#135,.F.);
#187=ORIENTED_EDGE('',*,*,#146,.F.);
#188=ORIENTED_EDGE('',*,*,#149,.F.);
#189=ORIENTED_EDGE('',*,*,#142,.T.);
#190=ORIENTED_EDGE('',*,*,#137,.F.);
#191=ORIENTED_EDGE('',*,*,#150,.F.);
#192=ORIENTED_EDGE('',*,*,#151,.F.);
#193=ORIENTED_EDGE('',*,*,#150,.T.);
#194=ORIENTED_EDGE('',*,*,#136,.F.);
#195=ORIENTED_EDGE('',*,*,#148,.T.);
#196=ORIENTED_EDGE('',*,*,#147,.T.);
#197=ORIENTED_EDGE('',*,*,#145,.T.);
#198=ORIENTED_EDGE('',*,*,#143,.T.);
#199=ORIENTED_EDGE('',*,*,#140,.T.);
#200=ORIENTED_EDGE('',*,*,#149,.T.);
#201=ORIENTED_EDGE('',*,*,#151,.T.);
#202=TOROIDAL_SURFACE('',#222,2.1,0.1);
#203=TOROIDAL_SURFACE('',#232,3.1,0.4);
#204=ADVANCED_FACE('',(#65,#57),#202,.F.);
#205=ADVANCED_FACE('',(#66,#58),#55,.T.);
#206=ADVANCED_FACE('',(#67,#59),#46,.T.);
#207=ADVANCED_FACE('',(#68,#60),#44,.T.);
#208=ADVANCED_FACE('',(#69),#47,.T.);
#209=ADVANCED_FACE('',(#70,#61),#203,.T.);
#210=ADVANCED_FACE('',(#62,#63),#48,.T.);
#211=ADVANCED_FACE('',(#71,#64),#56,.T.);
#212=ADVANCED_FACE('',(#72),#49,.F.);
#213=ADVANCED_FACE('',(#73),#50,.F.);
#214=ADVANCED_FACE('',(#74),#51,.F.);
#215=ADVANCED_FACE('',(#75),#52,.F.);
#216=ADVANCED_FACE('',(#76),#53,.F.);
#217=ADVANCED_FACE('',(#77),#54,.F.);
#218=ADVANCED_FACE('',(#78),#45,.F.);
#219=CLOSED_SHELL('',(#204,#205,#206,#207,#208,#209,#210,#211,#212,#213,
#214,#215,#216,#217,#218));
#220=MANIFOLD_SOLID_BREP('Solid1',#219);
#221=AXIS2_PLACEMENT_3D('placement',#302,#244,#245);
#222=AXIS2_PLACEMENT_3D('',#303,#246,#247);
#223=AXIS2_PLACEMENT_3D('',#305,#248,#249);
#224=AXIS2_PLACEMENT_3D('',#307,#250,#251);
#225=AXIS2_PLACEMENT_3D('',#308,#252,#253);
#226=AXIS2_PLACEMENT_3D('',#310,#254,#255);
#227=AXIS2_PLACEMENT_3D('',#311,#256,#257);
#228=AXIS2_PLACEMENT_3D('',#313,#258,#259);
#229=AXIS2_PLACEMENT_3D('',#314,#260,#261);
#230=AXIS2_PLACEMENT_3D('',#316,#262,#263);
#231=AXIS2_PLACEMENT_3D('',#317,#264,#265);
#232=AXIS2_PLACEMENT_3D('',#318,#266,#267);
#233=AXIS2_PLACEMENT_3D('',#320,#268,#269);
#234=AXIS2_PLACEMENT_3D('',#322,#270,#271);
#235=AXIS2_PLACEMENT_3D('',#323,#272,#273);
#236=AXIS2_PLACEMENT_3D('',#336,#280,#281);
#237=AXIS2_PLACEMENT_3D('',#337,#282,#283);
#238=AXIS2_PLACEMENT_3D('',#345,#286,#287);
#239=AXIS2_PLACEMENT_3D('',#351,#289,#290);
#240=AXIS2_PLACEMENT_3D('',#357,#292,#293);
#241=AXIS2_PLACEMENT_3D('',#363,#295,#296);
#242=AXIS2_PLACEMENT_3D('',#369,#298,#299);
#243=AXIS2_PLACEMENT_3D('',#373,#300,#301);
#244=DIRECTION('axis',(0.,0.,1.));
#245=DIRECTION('refdir',(1.,0.,0.));
#246=DIRECTION('center_axis',(1.,2.93835360817607E-018,0.));
#247=DIRECTION('ref_axis',(0.,0.,-1.));
#248=DIRECTION('center_axis',(1.,2.93835360817607E-018,0.));
#249=DIRECTION('ref_axis',(2.93835360817607E-018,-1.,1.22464679914735E-016));
#250=DIRECTION('center_axis',(-1.,-2.93835360817607E-018,0.));
#251=DIRECTION('ref_axis',(0.,-1.,1.22464679914735E-016));
#252=DIRECTION('center_axis',(1.,2.93835360817607E-018,0.));
#253=DIRECTION('ref_axis',(0.,1.,0.));
#254=DIRECTION('center_axis',(1.,2.93835360817607E-018,0.));
#255=DIRECTION('ref_axis',(0.,-1.,0.));
#256=DIRECTION('center_axis',(1.,2.93835360817607E-018,0.));
#257=DIRECTION('ref_axis',(0.,0.,-1.));
#258=DIRECTION('center_axis',(1.,2.93835360817607E-018,0.));
#259=DIRECTION('ref_axis',(0.,1.,0.));
#260=DIRECTION('center_axis',(-1.,-2.93835360817607E-018,0.));
#261=DIRECTION('ref_axis',(1.29248683386538E-018,-1.,0.));
#262=DIRECTION('center_axis',(-1.,-2.93835360817607E-018,0.));
#263=DIRECTION('ref_axis',(2.93835360817607E-018,-1.,0.));
#264=DIRECTION('center_axis',(1.,2.93835360817607E-018,0.));
#265=DIRECTION('ref_axis',(0.,0.,-1.));
#266=DIRECTION('center_axis',(1.,2.93835360817607E-018,0.));
#267=DIRECTION('ref_axis',(0.,0.,-1.));
#268=DIRECTION('center_axis',(1.,2.93835360817607E-018,0.));
#269=DIRECTION('ref_axis',(2.93835360817607E-018,-1.,1.22464679914735E-016));
#270=DIRECTION('center_axis',(-1.,-2.93835360817607E-018,0.));
#271=DIRECTION('ref_axis',(0.,-1.,1.22464679914735E-016));
#272=DIRECTION('center_axis',(-1.,-2.93835360817607E-018,0.));
#273=DIRECTION('ref_axis',(0.,0.,1.));
#274=DIRECTION('',(-3.29603420295514E-033,1.12172823372375E-015,1.));
#275=DIRECTION('',(2.54468886998214E-018,-0.866025403784438,0.500000000000001));
#276=DIRECTION('',(2.54468886998214E-018,-0.866025403784439,-0.5));
#277=DIRECTION('',(4.70862028993591E-034,-1.60246890531964E-016,-1.));
#278=DIRECTION('',(-2.54468886998214E-018,0.866025403784438,-0.5));
#279=DIRECTION('',(-2.54468886998214E-018,0.866025403784439,0.5));
#280=DIRECTION('center_axis',(1.,2.93835360817607E-018,0.));
#281=DIRECTION('ref_axis',(0.,1.,0.));
#282=DIRECTION('center_axis',(1.46917680408804E-018,-0.5,-0.866025403784439));
#283=DIRECTION('ref_axis',(-1.,0.,0.));
#284=DIRECTION('',(-1.,-2.93835360817607E-018,0.));
#285=DIRECTION('',(-1.,-2.93835360817607E-018,0.));
#286=DIRECTION('center_axis',(-1.46917680408803E-018,0.5,-0.866025403784439));
#287=DIRECTION('ref_axis',(-1.,0.,0.));
#288=DIRECTION('',(-1.,-2.93835360817607E-018,0.));
#289=DIRECTION('center_axis',(-2.93835360817607E-018,1.,-1.12172823372375E-015));
#290=DIRECTION('ref_axis',(0.,1.13242748511766E-015,1.));
#291=DIRECTION('',(-1.,-2.93835360817607E-018,0.));
#292=DIRECTION('center_axis',(-1.46917680408804E-018,0.500000000000001,
0.866025403784438));
#293=DIRECTION('ref_axis',(1.,0.,0.));
#294=DIRECTION('',(1.,2.93835360817607E-018,0.));
#295=DIRECTION('center_axis',(2.93835360817607E-018,-1.,1.60246890531964E-016));
#296=DIRECTION('ref_axis',(0.,-1.55431223447522E-016,-1.));
#297=DIRECTION('',(-1.,-2.93835360817607E-018,0.));
#298=DIRECTION('center_axis',(1.46917680408803E-018,-0.5,0.866025403784439));
#299=DIRECTION('ref_axis',(1.,0.,0.));
#300=DIRECTION('center_axis',(-1.,-2.93835360817607E-018,0.));
#301=DIRECTION('ref_axis',(0.,1.,0.));
#302=CARTESIAN_POINT('',(0.,0.,0.));
#303=CARTESIAN_POINT('Origin',(0.100000000000002,-1.17240308966225E-016,
0.));
#304=CARTESIAN_POINT('',(2.21427550667314E-015,2.1,0.));
#305=CARTESIAN_POINT('Origin',(2.22044604925031E-015,-1.17534144327043E-016,
0.));
#306=CARTESIAN_POINT('',(0.100000000000002,2.,-4.89858719658942E-016));
#307=CARTESIAN_POINT('Origin',(0.100000000000002,-1.17240308966225E-016,
0.));
#308=CARTESIAN_POINT('Origin',(30.,-2.93835360817607E-017,0.));
#309=CARTESIAN_POINT('',(39.570585,2.,2.44929359829471E-016));
#310=CARTESIAN_POINT('Origin',(39.570585,-1.26177311465493E-018,0.));
#311=CARTESIAN_POINT('Origin',(2.22044604925031E-015,2.75,0.));
#312=CARTESIAN_POINT('',(2.22044604925031E-015,3.5,0.));
#313=CARTESIAN_POINT('Origin',(0.,-1.17534144327043E-016,0.));
#314=CARTESIAN_POINT('Origin',(39.7852925,-6.30886557327463E-019,0.));
#315=CARTESIAN_POINT('',(40.,1.570585,-1.92341189303885E-016));
#316=CARTESIAN_POINT('Origin',(40.,-2.40741243048404E-034,0.));
#317=CARTESIAN_POINT('Origin',(40.,1.,0.));
#318=CARTESIAN_POINT('Origin',(-3.59999999999999,-1.28112217316477E-016,
0.));
#319=CARTESIAN_POINT('',(-3.99999999999999,3.1,0.));
#320=CARTESIAN_POINT('Origin',(-3.99999999999999,-1.29287558759747E-016,
0.));
#321=CARTESIAN_POINT('',(-3.59999999999999,3.5,-8.57252759403148E-016));
#322=CARTESIAN_POINT('Origin',(-3.59999999999999,-1.28112217316477E-016,
0.));
#323=CARTESIAN_POINT('Origin',(-3.99999999999999,2.61602540378444,0.));
#324=CARTESIAN_POINT('',(-3.99999999999999,1.5,-0.86602540378444));
#325=CARTESIAN_POINT('',(-3.99999999999999,1.5,0.866025403784437));
#326=CARTESIAN_POINT('',(-3.99999999999999,1.5,0.433012701892218));
#327=CARTESIAN_POINT('',(-3.99999999999999,8.28274889852343E-017,1.73205080756888));
#328=CARTESIAN_POINT('',(-3.99999999999999,0.375,1.51554445662277));
#329=CARTESIAN_POINT('',(-3.99999999999999,-1.5,0.866025403784439));
#330=CARTESIAN_POINT('',(-3.99999999999999,-1.125,1.08253175473055));
#331=CARTESIAN_POINT('',(-3.99999999999999,-1.5,-0.866025403784438));
#332=CARTESIAN_POINT('',(-3.99999999999999,-1.5,-0.433012701892219));
#333=CARTESIAN_POINT('',(-3.99999999999999,-3.38174474100171E-016,-1.73205080756888));
#334=CARTESIAN_POINT('',(-3.99999999999999,-0.375,-1.51554445662277));
#335=CARTESIAN_POINT('',(-3.99999999999999,1.125,-1.08253175473055));
#336=CARTESIAN_POINT('Origin',(-1.99999999999999,-1.23410851543395E-016,
0.));
#337=CARTESIAN_POINT('Origin',(-3.99999999999999,-3.38174474100171E-016,
-1.73205080756888));
#338=CARTESIAN_POINT('',(-2.,5.87670721635212E-018,-1.73205080756888));
#339=CARTESIAN_POINT('',(-2.,-1.5,-0.866025403784438));
#340=CARTESIAN_POINT('Ctrl Pts',(-1.99999999999999,-8.90008957714415E-015,
-1.73205080756887));
#341=CARTESIAN_POINT('Ctrl Pts',(-1.75,-0.750000000000001,-1.29903810567666));
#342=CARTESIAN_POINT('Ctrl Pts',(-1.99999999999999,-1.49999999999999,-0.866025403784443));
#343=CARTESIAN_POINT('',(-2.99999999999999,0.,-1.73205080756888));
#344=CARTESIAN_POINT('',(-2.99999999999999,-1.5,-0.866025403784438));
#345=CARTESIAN_POINT('Origin',(-3.99999999999999,1.5,-0.86602540378444));
#346=CARTESIAN_POINT('',(-2.,1.5,-0.86602540378444));
#347=CARTESIAN_POINT('Ctrl Pts',(-1.99999999999999,1.49999999999999,-0.866025403784444));
#348=CARTESIAN_POINT('Ctrl Pts',(-1.75,0.749999999999999,-1.29903810567666));
#349=CARTESIAN_POINT('Ctrl Pts',(-1.99999999999999,7.47570003607686E-015,
-1.73205080756887));
#350=CARTESIAN_POINT('',(-2.99999999999999,1.5,-0.86602540378444));
#351=CARTESIAN_POINT('Origin',(-3.99999999999999,1.5,0.866025403784437));
#352=CARTESIAN_POINT('',(-2.,1.5,0.866025403784437));
#353=CARTESIAN_POINT('Ctrl Pts',(-1.99999999999999,1.5,0.866025403784427));
#354=CARTESIAN_POINT('Ctrl Pts',(-1.75,1.5,-8.95195065805415E-016));
#355=CARTESIAN_POINT('Ctrl Pts',(-1.99999999999999,1.5,-0.86602540378443));
#356=CARTESIAN_POINT('',(-2.99999999999999,1.5,0.866025403784437));
#357=CARTESIAN_POINT('Origin',(-3.99999999999999,-1.17534144327043E-017,
1.73205080756888));
#358=CARTESIAN_POINT('',(-2.,-1.32901170861792E-016,1.73205080756888));
#359=CARTESIAN_POINT('Ctrl Pts',(-1.99999999999999,7.614477914155E-015,
1.73205080756887));
#360=CARTESIAN_POINT('Ctrl Pts',(-1.75,0.75,1.29903810567666));
#361=CARTESIAN_POINT('Ctrl Pts',(-1.99999999999999,1.49999999999999,0.866025403784441));
#362=CARTESIAN_POINT('',(-2.99999999999999,-1.38777878078145E-016,1.73205080756888));
#363=CARTESIAN_POINT('Origin',(-3.99999999999999,-1.5,-0.866025403784438));
#364=CARTESIAN_POINT('',(-2.,-1.5,0.866025403784439));
#365=CARTESIAN_POINT('Ctrl Pts',(-1.99999999999999,-1.5,-0.866025403784429));
#366=CARTESIAN_POINT('Ctrl Pts',(-1.75,-1.5,2.77555756156289E-016));
#367=CARTESIAN_POINT('Ctrl Pts',(-1.99999999999999,-1.5,0.86602540378443));
#368=CARTESIAN_POINT('',(-2.99999999999999,-1.5,0.866025403784438));
#369=CARTESIAN_POINT('Origin',(-3.99999999999999,-1.5,0.866025403784439));
#370=CARTESIAN_POINT('Ctrl Pts',(-1.99999999999999,-1.49999999999999,0.866025403784444));
#371=CARTESIAN_POINT('Ctrl Pts',(-1.75,-0.75,1.29903810567666));
#372=CARTESIAN_POINT('Ctrl Pts',(-1.99999999999999,-8.76131169906601E-015,
1.73205080756887));
#373=CARTESIAN_POINT('Origin',(-1.49999999999999,-1.21941674739307E-016,
0.));
#374=UNCERTAINTY_MEASURE_WITH_UNIT(LENGTH_MEASURE(0.01),#378,
'DISTANCE_ACCURACY_VALUE',
'Maximum model space distance between geometric entities at asserted c
onnectivities');
#375=UNCERTAINTY_MEASURE_WITH_UNIT(LENGTH_MEASURE(1.E-006),#378,
'DISTANCE_ACCURACY_VALUE',
'Maximum model space distance between geometric entities at asserted c
onnectivities');
#376=(
GEOMETRIC_REPRESENTATION_CONTEXT(3)
GLOBAL_UNCERTAINTY_ASSIGNED_CONTEXT((#374))
GLOBAL_UNIT_ASSIGNED_CONTEXT((#378,#381,#379))
REPRESENTATION_CONTEXT('','3D')
);
#377=(
GEOMETRIC_REPRESENTATION_CONTEXT(3)
GLOBAL_UNCERTAINTY_ASSIGNED_CONTEXT((#375))
GLOBAL_UNIT_ASSIGNED_CONTEXT((#378,#381,#379))
REPRESENTATION_CONTEXT('','3D')
);
#378=(
LENGTH_UNIT()
NAMED_UNIT(*)
SI_UNIT(.MILLI.,.METRE.)
);
#379=(
NAMED_UNIT(*)
SI_UNIT($,.STERADIAN.)
SOLID_ANGLE_UNIT()
);
#380=DIMENSIONAL_EXPONENTS(0.,0.,0.,0.,0.,0.,0.);
#381=(
CONVERSION_BASED_UNIT('degree',#383)
NAMED_UNIT(#380)
PLANE_ANGLE_UNIT()
);
#382=(
NAMED_UNIT(*)
PLANE_ANGLE_UNIT()
SI_UNIT($,.RADIAN.)
);
#383=PLANE_ANGLE_MEASURE_WITH_UNIT(PLANE_ANGLE_MEASURE(0.01745329252),#382);
#384=SHAPE_DEFINITION_REPRESENTATION(#385,#386);
#385=PRODUCT_DEFINITION_SHAPE('',$,#388);
#386=SHAPE_REPRESENTATION('',(#221),#376);
#387=PRODUCT_DEFINITION_CONTEXT('part definition',#392,'design');
#388=PRODUCT_DEFINITION('DIN 912 - M4 x 0,7 x 40 x 20',
'DIN 912 - M4 x 0,7 x 40 x 20',#389,#387);
#389=PRODUCT_DEFINITION_FORMATION('',$,#394);
#390=PRODUCT_RELATED_PRODUCT_CATEGORY('DIN 912 - M4 x 0,7 x 40 x 20',
'DIN 912 - M4 x 0,7 x 40 x 20',(#394));
#391=APPLICATION_PROTOCOL_DEFINITION('international standard',
'automotive_design',2009,#392);
#392=APPLICATION_CONTEXT(
'Core Data for Automotive Mechanical Design Process');
#393=PRODUCT_CONTEXT('part definition',#392,'mechanical');
#394=PRODUCT('DIN 912 - M4 x 0,7 x 40 x 20',
'DIN 912 - M4 x 0,7 x 40 x 20',$,(#393));
#395=PRESENTATION_STYLE_ASSIGNMENT((#396));
#396=SURFACE_STYLE_USAGE(.BOTH.,#397);
#397=SURFACE_SIDE_STYLE($,(#398));
#398=SURFACE_STYLE_FILL_AREA(#399);
#399=FILL_AREA_STYLE($,(#400));
#400=FILL_AREA_STYLE_COLOUR($,#401);
#401=COLOUR_RGB('',0.63921568627451,0.63921568627451,0.686274509803922);
ENDSEC;
END-ISO-10303-21;
