ISO-10303-21;
HEADER;
/* Generated by software containing ST-Developer
 * from STEP Tools, Inc. (www.steptools.com) 
 */

FILE_DESCRIPTION(
/* description */ ('Innensechskant-Rundkopfschraube - Produktklasse A'),

/* implementation_level */ '2;1');

FILE_NAME(
/* name */ 
'C:\\Users\\SvenW\\Documents\\inventor\\B-Automaten\\Export_B_Automate
n\\ExportGithub\\ISO 7380 - M3 x 6.stp',
/* time_stamp */ '2026-05-14T08:05:35+02:00',
/* author */ ('SvenW'),
/* organization */ (''),
/* preprocessor_version */ 'ST-DEVELOPER v15.2',
/* originating_system */ 'Autodesk Inventor 2014',
/* authorisation */ '');

FILE_SCHEMA (('AUTOMOTIVE_DESIGN { 1 0 10303 214 3 1 1 }'));
ENDSEC;

DATA;
#10=MECHANICAL_DESIGN_GEOMETRIC_PRESENTATION_REPRESENTATION('',(#13),#425);
#11=SHAPE_REPRESENTATION_RELATIONSHIP('SRR','None',#434,#12);
#12=ADVANCED_BREP_SHAPE_REPRESENTATION($,(#232),#424);
#13=STYLED_ITEM('',(#443),#232);
#14=LINE('',#374,#26);
#15=LINE('',#376,#27);
#16=LINE('',#378,#28);
#17=LINE('',#380,#29);
#18=LINE('',#382,#30);
#19=LINE('',#383,#31);
#20=LINE('',#391,#32);
#21=LINE('',#392,#33);
#22=LINE('',#398,#34);
#23=LINE('',#404,#35);
#24=LINE('',#410,#36);
#25=LINE('',#416,#37);
#26=VECTOR('',#289,1.15470053837925);
#27=VECTOR('',#290,1.15470053837925);
#28=VECTOR('',#291,1.15470053837925);
#29=VECTOR('',#292,1.15470053837925);
#30=VECTOR('',#293,1.15470053837925);
#31=VECTOR('',#294,1.15470053837925);
#32=VECTOR('',#299,1.04);
#33=VECTOR('',#300,1.04);
#34=VECTOR('',#303,1.04);
#35=VECTOR('',#306,1.04);
#36=VECTOR('',#309,1.04);
#37=VECTOR('',#312,1.04);
#38=(
BOUNDED_CURVE()
B_SPLINE_CURVE(2,(#364,#365,#366),.UNSPECIFIED.,.F.,.F.)
B_SPLINE_CURVE_WITH_KNOTS((3,3),(-3.98414086041009E-017,1.5707963267949),
 .UNSPECIFIED.)
CURVE()
GEOMETRIC_REPRESENTATION_ITEM()
RATIONAL_B_SPLINE_CURVE((1.,0.707106781186547,1.))
REPRESENTATION_ITEM('')
);
#39=(
BOUNDED_CURVE()
B_SPLINE_CURVE(2,(#388,#389,#390),.UNSPECIFIED.,.F.,.F.)
B_SPLINE_CURVE_WITH_KNOTS((3,3),(0.,0.116843613807792),.UNSPECIFIED.)
CURVE()
GEOMETRIC_REPRESENTATION_ITEM()
RATIONAL_B_SPLINE_CURVE((1.,1.15470053837925,1.))
REPRESENTATION_ITEM('')
);
#40=(
BOUNDED_CURVE()
B_SPLINE_CURVE(2,(#395,#396,#397),.UNSPECIFIED.,.F.,.F.)
B_SPLINE_CURVE_WITH_KNOTS((3,3),(0.,0.116843613807792),.UNSPECIFIED.)
CURVE()
GEOMETRIC_REPRESENTATION_ITEM()
RATIONAL_B_SPLINE_CURVE((1.,1.15470053837925,1.))
REPRESENTATION_ITEM('')
);
#41=(
BOUNDED_CURVE()
B_SPLINE_CURVE(2,(#401,#402,#403),.UNSPECIFIED.,.F.,.F.)
B_SPLINE_CURVE_WITH_KNOTS((3,3),(0.,0.116843613807792),.UNSPECIFIED.)
CURVE()
GEOMETRIC_REPRESENTATION_ITEM()
RATIONAL_B_SPLINE_CURVE((1.,1.15470053837925,1.))
REPRESENTATION_ITEM('')
);
#42=(
BOUNDED_CURVE()
B_SPLINE_CURVE(2,(#407,#408,#409),.UNSPECIFIED.,.F.,.F.)
B_SPLINE_CURVE_WITH_KNOTS((3,3),(0.,0.116843613807792),.UNSPECIFIED.)
CURVE()
GEOMETRIC_REPRESENTATION_ITEM()
RATIONAL_B_SPLINE_CURVE((1.,1.15470053837925,1.))
REPRESENTATION_ITEM('')
);
#43=(
BOUNDED_CURVE()
B_SPLINE_CURVE(2,(#413,#414,#415),.UNSPECIFIED.,.F.,.F.)
B_SPLINE_CURVE_WITH_KNOTS((3,3),(0.,0.116843613807792),.UNSPECIFIED.)
CURVE()
GEOMETRIC_REPRESENTATION_ITEM()
RATIONAL_B_SPLINE_CURVE((1.,1.15470053837925,1.))
REPRESENTATION_ITEM('')
);
#44=(
BOUNDED_CURVE()
B_SPLINE_CURVE(2,(#418,#419,#420),.UNSPECIFIED.,.F.,.F.)
B_SPLINE_CURVE_WITH_KNOTS((3,3),(0.,0.116843613807792),.UNSPECIFIED.)
CURVE()
GEOMETRIC_REPRESENTATION_ITEM()
RATIONAL_B_SPLINE_CURVE((1.,1.15470053837925,1.))
REPRESENTATION_ITEM('')
);
#45=(
BOUNDED_SURFACE()
B_SPLINE_SURFACE(2,2,((#333,#334,#335,#336,#337,#338,#339,#340,#341),(#342,
#343,#344,#345,#346,#347,#348,#349,#350),(#351,#352,#353,#354,#355,#356,
#357,#358,#359)),.UNSPECIFIED.,.F.,.T.,.F.)
B_SPLINE_SURFACE_WITH_KNOTS((3,3),(3,2,2,2,3),(-1.5707963267949,3.98414086041009E-017),
(-3.14159265358979,-1.5707963267949,0.,1.5707963267949,3.14159265358979),
 .UNSPECIFIED.)
GEOMETRIC_REPRESENTATION_ITEM()
RATIONAL_B_SPLINE_SURFACE(((1.,0.707106781186548,1.,0.707106781186548,1.,
0.707106781186548,1.,0.707106781186548,1.),(0.707106781186547,0.5,0.707106781186547,
0.5,0.707106781186547,0.5,0.707106781186547,0.5,0.707106781186547),(1.,
0.707106781186548,1.,0.707106781186548,1.,0.707106781186548,1.,0.707106781186548,
1.)))
REPRESENTATION_ITEM('')
SURFACE()
);
#46=CONICAL_SURFACE('',#241,1.3466375,45.);
#47=CONICAL_SURFACE('',#256,0.577350269189626,60.);
#48=PLANE('',#239);
#49=PLANE('',#243);
#50=PLANE('',#248);
#51=PLANE('',#250);
#52=PLANE('',#251);
#53=PLANE('',#252);
#54=PLANE('',#253);
#55=PLANE('',#254);
#56=PLANE('',#255);
#57=CYLINDRICAL_SURFACE('',#237,1.5);
#58=CYLINDRICAL_SURFACE('',#249,2.85);
#59=FACE_BOUND('',#81,.T.);
#60=FACE_BOUND('',#83,.T.);
#61=FACE_BOUND('',#85,.T.);
#62=FACE_BOUND('',#87,.T.);
#63=FACE_BOUND('',#90,.T.);
#64=FACE_BOUND('',#91,.T.);
#65=FACE_BOUND('',#93,.T.);
#66=FACE_OUTER_BOUND('',#80,.T.);
#67=FACE_OUTER_BOUND('',#82,.T.);
#68=FACE_OUTER_BOUND('',#84,.T.);
#69=FACE_OUTER_BOUND('',#86,.T.);
#70=FACE_OUTER_BOUND('',#88,.T.);
#71=FACE_OUTER_BOUND('',#89,.T.);
#72=FACE_OUTER_BOUND('',#92,.T.);
#73=FACE_OUTER_BOUND('',#94,.T.);
#74=FACE_OUTER_BOUND('',#95,.T.);
#75=FACE_OUTER_BOUND('',#96,.T.);
#76=FACE_OUTER_BOUND('',#97,.T.);
#77=FACE_OUTER_BOUND('',#98,.T.);
#78=FACE_OUTER_BOUND('',#99,.T.);
#79=FACE_OUTER_BOUND('',#100,.T.);
#80=EDGE_LOOP('',(#159));
#81=EDGE_LOOP('',(#160));
#82=EDGE_LOOP('',(#161));
#83=EDGE_LOOP('',(#162));
#84=EDGE_LOOP('',(#163));
#85=EDGE_LOOP('',(#164));
#86=EDGE_LOOP('',(#165));
#87=EDGE_LOOP('',(#166));
#88=EDGE_LOOP('',(#167));
#89=EDGE_LOOP('',(#168,#169,#170,#171,#172,#173));
#90=EDGE_LOOP('',(#174,#175,#176,#177,#178,#179));
#91=EDGE_LOOP('',(#180,#181));
#92=EDGE_LOOP('',(#182));
#93=EDGE_LOOP('',(#183,#184));
#94=EDGE_LOOP('',(#185,#186,#187,#188));
#95=EDGE_LOOP('',(#189,#190,#191,#192));
#96=EDGE_LOOP('',(#193,#194,#195,#196));
#97=EDGE_LOOP('',(#197,#198,#199,#200));
#98=EDGE_LOOP('',(#201,#202,#203,#204));
#99=EDGE_LOOP('',(#205,#206,#207,#208));
#100=EDGE_LOOP('',(#209,#210,#211,#212,#213,#214));
#101=CIRCLE('',#235,1.6);
#102=CIRCLE('',#236,1.5);
#103=CIRCLE('',#238,1.5);
#104=CIRCLE('',#240,2.85);
#105=CIRCLE('',#242,1.193275);
#106=CIRCLE('',#244,2.85);
#107=CIRCLE('',#245,1.4);
#108=CIRCLE('',#246,1.4);
#109=CIRCLE('',#247,2.85);
#110=VERTEX_POINT('',#319);
#111=VERTEX_POINT('',#321);
#112=VERTEX_POINT('',#324);
#113=VERTEX_POINT('',#327);
#114=VERTEX_POINT('',#330);
#115=VERTEX_POINT('',#360);
#116=VERTEX_POINT('',#361);
#117=VERTEX_POINT('',#363);
#118=VERTEX_POINT('',#367);
#119=VERTEX_POINT('',#372);
#120=VERTEX_POINT('',#373);
#121=VERTEX_POINT('',#375);
#122=VERTEX_POINT('',#377);
#123=VERTEX_POINT('',#379);
#124=VERTEX_POINT('',#381);
#125=VERTEX_POINT('',#386);
#126=VERTEX_POINT('',#387);
#127=VERTEX_POINT('',#394);
#128=VERTEX_POINT('',#400);
#129=VERTEX_POINT('',#406);
#130=VERTEX_POINT('',#412);
#131=EDGE_CURVE('',#110,#110,#101,.T.);
#132=EDGE_CURVE('',#111,#111,#102,.T.);
#133=EDGE_CURVE('',#112,#112,#103,.T.);
#134=EDGE_CURVE('',#113,#113,#104,.T.);
#135=EDGE_CURVE('',#114,#114,#105,.T.);
#136=EDGE_CURVE('',#115,#116,#106,.T.);
#137=EDGE_CURVE('',#116,#117,#38,.T.);
#138=EDGE_CURVE('',#117,#118,#107,.T.);
#139=EDGE_CURVE('',#118,#117,#108,.T.);
#140=EDGE_CURVE('',#116,#115,#109,.T.);
#141=EDGE_CURVE('',#119,#120,#14,.T.);
#142=EDGE_CURVE('',#120,#121,#15,.T.);
#143=EDGE_CURVE('',#121,#122,#16,.T.);
#144=EDGE_CURVE('',#122,#123,#17,.T.);
#145=EDGE_CURVE('',#123,#124,#18,.T.);
#146=EDGE_CURVE('',#124,#119,#19,.T.);
#147=EDGE_CURVE('',#125,#126,#39,.T.);
#148=EDGE_CURVE('',#125,#124,#20,.T.);
#149=EDGE_CURVE('',#126,#123,#21,.T.);
#150=EDGE_CURVE('',#127,#125,#40,.T.);
#151=EDGE_CURVE('',#127,#119,#22,.T.);
#152=EDGE_CURVE('',#128,#127,#41,.T.);
#153=EDGE_CURVE('',#128,#120,#23,.T.);
#154=EDGE_CURVE('',#129,#128,#42,.T.);
#155=EDGE_CURVE('',#121,#129,#24,.T.);
#156=EDGE_CURVE('',#126,#130,#43,.T.);
#157=EDGE_CURVE('',#130,#122,#25,.T.);
#158=EDGE_CURVE('',#130,#129,#44,.T.);
#159=ORIENTED_EDGE('',*,*,#131,.T.);
#160=ORIENTED_EDGE('',*,*,#132,.T.);
#161=ORIENTED_EDGE('',*,*,#133,.F.);
#162=ORIENTED_EDGE('',*,*,#132,.F.);
#163=ORIENTED_EDGE('',*,*,#134,.T.);
#164=ORIENTED_EDGE('',*,*,#131,.F.);
#165=ORIENTED_EDGE('',*,*,#133,.T.);
#166=ORIENTED_EDGE('',*,*,#135,.T.);
#167=ORIENTED_EDGE('',*,*,#135,.F.);
#168=ORIENTED_EDGE('',*,*,#136,.T.);
#169=ORIENTED_EDGE('',*,*,#137,.T.);
#170=ORIENTED_EDGE('',*,*,#138,.T.);
#171=ORIENTED_EDGE('',*,*,#139,.T.);
#172=ORIENTED_EDGE('',*,*,#137,.F.);
#173=ORIENTED_EDGE('',*,*,#140,.T.);
#174=ORIENTED_EDGE('',*,*,#141,.T.);
#175=ORIENTED_EDGE('',*,*,#142,.T.);
#176=ORIENTED_EDGE('',*,*,#143,.T.);
#177=ORIENTED_EDGE('',*,*,#144,.T.);
#178=ORIENTED_EDGE('',*,*,#145,.T.);
#179=ORIENTED_EDGE('',*,*,#146,.T.);
#180=ORIENTED_EDGE('',*,*,#139,.F.);
#181=ORIENTED_EDGE('',*,*,#138,.F.);
#182=ORIENTED_EDGE('',*,*,#134,.F.);
#183=ORIENTED_EDGE('',*,*,#136,.F.);
#184=ORIENTED_EDGE('',*,*,#140,.F.);
#185=ORIENTED_EDGE('',*,*,#147,.F.);
#186=ORIENTED_EDGE('',*,*,#148,.T.);
#187=ORIENTED_EDGE('',*,*,#145,.F.);
#188=ORIENTED_EDGE('',*,*,#149,.F.);
#189=ORIENTED_EDGE('',*,*,#150,.F.);
#190=ORIENTED_EDGE('',*,*,#151,.T.);
#191=ORIENTED_EDGE('',*,*,#146,.F.);
#192=ORIENTED_EDGE('',*,*,#148,.F.);
#193=ORIENTED_EDGE('',*,*,#152,.F.);
#194=ORIENTED_EDGE('',*,*,#153,.T.);
#195=ORIENTED_EDGE('',*,*,#141,.F.);
#196=ORIENTED_EDGE('',*,*,#151,.F.);
#197=ORIENTED_EDGE('',*,*,#154,.F.);
#198=ORIENTED_EDGE('',*,*,#155,.F.);
#199=ORIENTED_EDGE('',*,*,#142,.F.);
#200=ORIENTED_EDGE('',*,*,#153,.F.);
#201=ORIENTED_EDGE('',*,*,#156,.F.);
#202=ORIENTED_EDGE('',*,*,#149,.T.);
#203=ORIENTED_EDGE('',*,*,#144,.F.);
#204=ORIENTED_EDGE('',*,*,#157,.F.);
#205=ORIENTED_EDGE('',*,*,#158,.F.);
#206=ORIENTED_EDGE('',*,*,#157,.T.);
#207=ORIENTED_EDGE('',*,*,#143,.F.);
#208=ORIENTED_EDGE('',*,*,#155,.T.);
#209=ORIENTED_EDGE('',*,*,#154,.T.);
#210=ORIENTED_EDGE('',*,*,#152,.T.);
#211=ORIENTED_EDGE('',*,*,#150,.T.);
#212=ORIENTED_EDGE('',*,*,#147,.T.);
#213=ORIENTED_EDGE('',*,*,#156,.T.);
#214=ORIENTED_EDGE('',*,*,#158,.T.);
#215=TOROIDAL_SURFACE('',#234,1.6,0.1);
#216=ADVANCED_FACE('',(#66,#59),#215,.F.);
#217=ADVANCED_FACE('',(#67,#60),#57,.T.);
#218=ADVANCED_FACE('',(#68,#61),#48,.T.);
#219=ADVANCED_FACE('',(#69,#62),#46,.T.);
#220=ADVANCED_FACE('',(#70),#49,.T.);
#221=ADVANCED_FACE('',(#71),#45,.F.);
#222=ADVANCED_FACE('',(#63,#64),#50,.T.);
#223=ADVANCED_FACE('',(#72,#65),#58,.T.);
#224=ADVANCED_FACE('',(#73),#51,.F.);
#225=ADVANCED_FACE('',(#74),#52,.F.);
#226=ADVANCED_FACE('',(#75),#53,.F.);
#227=ADVANCED_FACE('',(#76),#54,.F.);
#228=ADVANCED_FACE('',(#77),#55,.F.);
#229=ADVANCED_FACE('',(#78),#56,.F.);
#230=ADVANCED_FACE('',(#79),#47,.F.);
#231=CLOSED_SHELL('',(#216,#217,#218,#219,#220,#221,#222,#223,#224,#225,
#226,#227,#228,#229,#230));
#232=MANIFOLD_SOLID_BREP('Solid1',#231);
#233=AXIS2_PLACEMENT_3D('placement',#317,#257,#258);
#234=AXIS2_PLACEMENT_3D('',#318,#259,#260);
#235=AXIS2_PLACEMENT_3D('',#320,#261,#262);
#236=AXIS2_PLACEMENT_3D('',#322,#263,#264);
#237=AXIS2_PLACEMENT_3D('',#323,#265,#266);
#238=AXIS2_PLACEMENT_3D('',#325,#267,#268);
#239=AXIS2_PLACEMENT_3D('',#326,#269,#270);
#240=AXIS2_PLACEMENT_3D('',#328,#271,#272);
#241=AXIS2_PLACEMENT_3D('',#329,#273,#274);
#242=AXIS2_PLACEMENT_3D('',#331,#275,#276);
#243=AXIS2_PLACEMENT_3D('',#332,#277,#278);
#244=AXIS2_PLACEMENT_3D('',#362,#279,#280);
#245=AXIS2_PLACEMENT_3D('',#368,#281,#282);
#246=AXIS2_PLACEMENT_3D('',#369,#283,#284);
#247=AXIS2_PLACEMENT_3D('',#370,#285,#286);
#248=AXIS2_PLACEMENT_3D('',#371,#287,#288);
#249=AXIS2_PLACEMENT_3D('',#384,#295,#296);
#250=AXIS2_PLACEMENT_3D('',#385,#297,#298);
#251=AXIS2_PLACEMENT_3D('',#393,#301,#302);
#252=AXIS2_PLACEMENT_3D('',#399,#304,#305);
#253=AXIS2_PLACEMENT_3D('',#405,#307,#308);
#254=AXIS2_PLACEMENT_3D('',#411,#310,#311);
#255=AXIS2_PLACEMENT_3D('',#417,#313,#314);
#256=AXIS2_PLACEMENT_3D('',#421,#315,#316);
#257=DIRECTION('axis',(0.,0.,1.));
#258=DIRECTION('refdir',(1.,0.,0.));
#259=DIRECTION('center_axis',(1.,2.02701903424373E-017,0.));
#260=DIRECTION('ref_axis',(0.,0.,-1.));
#261=DIRECTION('center_axis',(1.,2.02701903424373E-017,0.));
#262=DIRECTION('ref_axis',(2.02701903424373E-017,-1.,1.22464679914735E-016));
#263=DIRECTION('center_axis',(-1.,-2.02701903424373E-017,0.));
#264=DIRECTION('ref_axis',(2.31296463463574E-017,-1.,1.22464679914735E-016));
#265=DIRECTION('center_axis',(1.,2.02701903424373E-017,0.));
#266=DIRECTION('ref_axis',(0.,1.,0.));
#267=DIRECTION('center_axis',(1.,2.02701903424373E-017,0.));
#268=DIRECTION('ref_axis',(0.,-1.,0.));
#269=DIRECTION('center_axis',(1.,2.02701903424373E-017,0.));
#270=DIRECTION('ref_axis',(0.,0.,-1.));
#271=DIRECTION('center_axis',(1.,2.02701903424373E-017,0.));
#272=DIRECTION('ref_axis',(0.,1.,0.));
#273=DIRECTION('center_axis',(-1.,-2.02701903424373E-017,0.));
#274=DIRECTION('ref_axis',(8.9808546772505E-018,-1.,0.));
#275=DIRECTION('center_axis',(-1.,-2.02701903424373E-017,0.));
#276=DIRECTION('ref_axis',(2.02701903424373E-017,-1.,0.));
#277=DIRECTION('center_axis',(1.,2.02701903424373E-017,0.));
#278=DIRECTION('ref_axis',(0.,0.,-1.));
#279=DIRECTION('center_axis',(-1.,-2.02701903424373E-017,0.));
#280=DIRECTION('ref_axis',(0.,-1.,1.22464679914735E-016));
#281=DIRECTION('center_axis',(1.,2.02701903424373E-017,0.));
#282=DIRECTION('ref_axis',(2.02701903424373E-017,-1.,1.22464679914735E-016));
#283=DIRECTION('center_axis',(1.,2.02701903424373E-017,0.));
#284=DIRECTION('ref_axis',(2.02701903424373E-017,-1.,1.22464679914735E-016));
#285=DIRECTION('center_axis',(-1.,-2.02701903424373E-017,0.));
#286=DIRECTION('ref_axis',(0.,-1.,1.22464679914735E-016));
#287=DIRECTION('center_axis',(-1.,-2.02701903424373E-017,0.));
#288=DIRECTION('ref_axis',(0.,0.,1.));
#289=DIRECTION('',(-2.92341147557995E-032,1.44222201478767E-015,1.));
#290=DIRECTION('',(1.75544997760967E-017,-0.866025403784438,0.500000000000001));
#291=DIRECTION('',(1.75544997760967E-017,-0.866025403784439,-0.5));
#292=DIRECTION('',(0.,0.,-1.));
#293=DIRECTION('',(-1.75544997760967E-017,0.866025403784439,-0.5));
#294=DIRECTION('',(-1.75544997760967E-017,0.866025403784439,0.5));
#295=DIRECTION('center_axis',(1.,2.02701903424373E-017,0.));
#296=DIRECTION('ref_axis',(0.,1.,0.));
#297=DIRECTION('center_axis',(1.01350951712186E-017,-0.5,-0.866025403784438));
#298=DIRECTION('ref_axis',(-1.,0.,-2.22044604925031E-017));
#299=DIRECTION('',(-1.,-2.02701903424373E-017,0.));
#300=DIRECTION('',(-1.,-2.02701903424373E-017,0.));
#301=DIRECTION('center_axis',(-1.01350951712186E-017,0.5,-0.866025403784439));
#302=DIRECTION('ref_axis',(-1.,0.,1.11022302462516E-017));
#303=DIRECTION('',(-1.,-2.02701903424373E-017,0.));
#304=DIRECTION('center_axis',(-2.02701903424373E-017,1.,-1.44222201478767E-015));
#305=DIRECTION('ref_axis',(0.,1.4432899320127E-015,1.));
#306=DIRECTION('',(-1.,-2.02701903424373E-017,0.));
#307=DIRECTION('center_axis',(-1.01350951712187E-017,0.500000000000001,
0.866025403784438));
#308=DIRECTION('ref_axis',(1.,0.,2.22044604925031E-017));
#309=DIRECTION('',(1.,2.02701903424373E-017,0.));
#310=DIRECTION('center_axis',(2.02701903424373E-017,-1.,0.));
#311=DIRECTION('ref_axis',(0.,0.,-1.));
#312=DIRECTION('',(-1.,-2.02701903424373E-017,0.));
#313=DIRECTION('center_axis',(1.01350951712186E-017,-0.5,0.866025403784439));
#314=DIRECTION('ref_axis',(1.,0.,-1.11022302462516E-017));
#315=DIRECTION('center_axis',(-1.,-2.02701903424373E-017,0.));
#316=DIRECTION('ref_axis',(0.,1.,0.));
#317=CARTESIAN_POINT('',(0.,0.,0.));
#318=CARTESIAN_POINT('Origin',(0.100000000000002,-1.1959412302038E-016,
0.));
#319=CARTESIAN_POINT('',(2.24005544898172E-015,1.6,0.));
#320=CARTESIAN_POINT('Origin',(2.27248775352962E-015,-1.21621142054624E-016,
0.));
#321=CARTESIAN_POINT('',(0.100000000000002,1.5,-3.67394039744205E-016));
#322=CARTESIAN_POINT('Origin',(0.100000000000002,-1.1959412302038E-016,
0.));
#323=CARTESIAN_POINT('Origin',(3.5,-5.06754758560932E-017,0.));
#324=CARTESIAN_POINT('',(5.69327500000001,1.5,1.83697019872103E-016));
#325=CARTESIAN_POINT('Origin',(5.69327500000001,-6.21737413278406E-018,
0.));
#326=CARTESIAN_POINT('Origin',(2.22044604925031E-015,2.175,0.));
#327=CARTESIAN_POINT('',(2.22044604925031E-015,2.85,0.));
#328=CARTESIAN_POINT('Origin',(2.22044604925031E-015,-1.21621142054624E-016,
0.));
#329=CARTESIAN_POINT('Origin',(5.84663750000001,-3.10868706639202E-018,
0.));
#330=CARTESIAN_POINT('',(6.00000000000001,1.193275,-1.46134040925256E-016));
#331=CARTESIAN_POINT('Origin',(6.00000000000001,1.34815096107107E-032,0.));
#332=CARTESIAN_POINT('Origin',(6.00000000000001,0.749999999999999,0.));
#333=CARTESIAN_POINT('Ctrl Pts',(-1.65,-1.55066956119645E-016,1.4));
#334=CARTESIAN_POINT('Ctrl Pts',(-1.65,-1.4,1.4));
#335=CARTESIAN_POINT('Ctrl Pts',(-1.65,-1.4,0.));
#336=CARTESIAN_POINT('Ctrl Pts',(-1.65,-1.4,-1.4));
#337=CARTESIAN_POINT('Ctrl Pts',(-1.65,-1.55066956119645E-016,-1.4));
#338=CARTESIAN_POINT('Ctrl Pts',(-1.65,1.4,-1.4));
#339=CARTESIAN_POINT('Ctrl Pts',(-1.65,1.4,0.));
#340=CARTESIAN_POINT('Ctrl Pts',(-1.65,1.4,1.4));
#341=CARTESIAN_POINT('Ctrl Pts',(-1.65,-1.55066956119645E-016,1.4));
#342=CARTESIAN_POINT('Ctrl Pts',(-1.65,-1.55066956119645E-016,2.85));
#343=CARTESIAN_POINT('Ctrl Pts',(-1.65,-2.85,2.85));
#344=CARTESIAN_POINT('Ctrl Pts',(-1.65,-2.85,0.));
#345=CARTESIAN_POINT('Ctrl Pts',(-1.65,-2.85,-2.85));
#346=CARTESIAN_POINT('Ctrl Pts',(-1.65,-1.55066956119645E-016,-2.85));
#347=CARTESIAN_POINT('Ctrl Pts',(-1.65,2.85,-2.85));
#348=CARTESIAN_POINT('Ctrl Pts',(-1.65,2.85,0.));
#349=CARTESIAN_POINT('Ctrl Pts',(-1.65,2.85,2.85));
#350=CARTESIAN_POINT('Ctrl Pts',(-1.65,-1.55066956119645E-016,2.85));
#351=CARTESIAN_POINT('Ctrl Pts',(-0.199999999999996,-1.25675180123111E-016,
2.85));
#352=CARTESIAN_POINT('Ctrl Pts',(-0.199999999999996,-2.85,2.85));
#353=CARTESIAN_POINT('Ctrl Pts',(-0.199999999999996,-2.85,0.));
#354=CARTESIAN_POINT('Ctrl Pts',(-0.199999999999996,-2.85,-2.85));
#355=CARTESIAN_POINT('Ctrl Pts',(-0.199999999999996,-1.25675180123111E-016,
-2.85));
#356=CARTESIAN_POINT('Ctrl Pts',(-0.199999999999996,2.85,-2.85));
#357=CARTESIAN_POINT('Ctrl Pts',(-0.199999999999996,2.85,0.));
#358=CARTESIAN_POINT('Ctrl Pts',(-0.199999999999996,2.85,2.85));
#359=CARTESIAN_POINT('Ctrl Pts',(-0.199999999999996,-1.25675180123111E-016,
2.85));
#360=CARTESIAN_POINT('',(-0.199999999999996,2.85,-6.98048675513992E-016));
#361=CARTESIAN_POINT('',(-0.199999999999996,-1.25675180123111E-016,2.85));
#362=CARTESIAN_POINT('Origin',(-0.199999999999996,-1.25675180123111E-016,
0.));
#363=CARTESIAN_POINT('',(-1.65,-1.55066956119645E-016,1.4));
#364=CARTESIAN_POINT('Ctrl Pts',(-0.199999999999996,-1.25675180123111E-016,
2.85));
#365=CARTESIAN_POINT('Ctrl Pts',(-1.65,-1.55066956119645E-016,2.85));
#366=CARTESIAN_POINT('Ctrl Pts',(-1.65,-1.55066956119645E-016,1.4));
#367=CARTESIAN_POINT('',(-1.65,1.4,0.));
#368=CARTESIAN_POINT('Origin',(-1.65,-1.55066956119645E-016,0.));
#369=CARTESIAN_POINT('Origin',(-1.65,-1.55066956119645E-016,0.));
#370=CARTESIAN_POINT('Origin',(-0.199999999999996,-1.25675180123111E-016,
0.));
#371=CARTESIAN_POINT('Origin',(-1.65,2.00235026918963,0.));
#372=CARTESIAN_POINT('',(-1.65,0.999999999999999,-0.577350269189627));
#373=CARTESIAN_POINT('',(-1.65,1.,0.577350269189624));
#374=CARTESIAN_POINT('',(-1.65,1.,0.288675134594811));
#375=CARTESIAN_POINT('',(-1.65,-1.36569242896576E-017,1.15470053837925));
#376=CARTESIAN_POINT('',(-1.65,0.25,1.01036297108184));
#377=CARTESIAN_POINT('',(-1.65,-1.,0.577350269189626));
#378=CARTESIAN_POINT('',(-1.65,-0.75,0.721687836487033));
#379=CARTESIAN_POINT('',(-1.65,-1.,-0.577350269189625));
#380=CARTESIAN_POINT('',(-1.65,-1.,-0.288675134594813));
#381=CARTESIAN_POINT('',(-1.65,-2.94324899679928E-016,-1.15470053837925));
#382=CARTESIAN_POINT('',(-1.65,-0.25,-1.01036297108184));
#383=CARTESIAN_POINT('',(-1.65,0.749999999999999,-0.721687836487033));
#384=CARTESIAN_POINT('Origin',(-0.824999999999997,-1.38344049087134E-016,
0.));
#385=CARTESIAN_POINT('Origin',(-1.65,-2.94324899679928E-016,-1.15470053837925));
#386=CARTESIAN_POINT('',(-0.609999999999996,-3.95252636278299E-016,-1.15470053837925));
#387=CARTESIAN_POINT('',(-0.609999999999996,-1.,-0.577350269189625));
#388=CARTESIAN_POINT('Ctrl Pts',(-0.609999999999996,-5.04027953416432E-016,
-1.15470053837925));
#389=CARTESIAN_POINT('Ctrl Pts',(-0.443333333333329,-0.5,-0.866025403784438));
#390=CARTESIAN_POINT('Ctrl Pts',(-0.609999999999996,-1.,-0.577350269189625));
#391=CARTESIAN_POINT('',(-1.13,-4.16333634234434E-016,-1.15470053837925));
#392=CARTESIAN_POINT('',(-1.13,-1.,-0.577350269189625));
#393=CARTESIAN_POINT('Origin',(-1.65,0.999999999999999,-0.577350269189627));
#394=CARTESIAN_POINT('',(-0.609999999999996,0.999999999999999,-0.577350269189627));
#395=CARTESIAN_POINT('Ctrl Pts',(-0.609999999999996,1.,-0.577350269189626));
#396=CARTESIAN_POINT('Ctrl Pts',(-0.44333333333333,0.5,-0.866025403784439));
#397=CARTESIAN_POINT('Ctrl Pts',(-0.609999999999996,-2.95861136299215E-016,
-1.15470053837925));
#398=CARTESIAN_POINT('',(-1.13,0.999999999999999,-0.577350269189627));
#399=CARTESIAN_POINT('Origin',(-1.65,1.,0.577350269189624));
#400=CARTESIAN_POINT('',(-0.609999999999996,1.,0.577350269189624));
#401=CARTESIAN_POINT('Ctrl Pts',(-0.609999999999996,1.,0.577350269189624));
#402=CARTESIAN_POINT('Ctrl Pts',(-0.44333333333333,1.,-1.49186218934005E-015));
#403=CARTESIAN_POINT('Ctrl Pts',(-0.609999999999996,0.999999999999999,-0.577350269189627));
#404=CARTESIAN_POINT('',(-1.13,1.,0.577350269189624));
#405=CARTESIAN_POINT('Origin',(-1.65,-3.34458140650214E-017,1.15470053837925));
#406=CARTESIAN_POINT('',(-0.609999999999996,-1.87085819161082E-016,1.15470053837925));
#407=CARTESIAN_POINT('Ctrl Pts',(-0.609999999999996,-5.73416892455504E-016,
1.15470053837925));
#408=CARTESIAN_POINT('Ctrl Pts',(-0.443333333333329,0.5,0.866025403784438));
#409=CARTESIAN_POINT('Ctrl Pts',(-0.609999999999996,1.,0.577350269189624));
#410=CARTESIAN_POINT('',(-1.13,-2.08166817117217E-016,1.15470053837925));
#411=CARTESIAN_POINT('Origin',(-1.65,-1.,-0.577350269189625));
#412=CARTESIAN_POINT('',(-0.609999999999996,-1.,0.577350269189626));
#413=CARTESIAN_POINT('Ctrl Pts',(-0.609999999999996,-1.,-0.577350269189626));
#414=CARTESIAN_POINT('Ctrl Pts',(-0.443333333333329,-1.,0.));
#415=CARTESIAN_POINT('Ctrl Pts',(-0.609999999999996,-1.,0.577350269189626));
#416=CARTESIAN_POINT('',(-1.13,-1.,0.577350269189626));
#417=CARTESIAN_POINT('Origin',(-1.65,-1.,0.577350269189626));
#418=CARTESIAN_POINT('Ctrl Pts',(-0.609999999999996,-1.,0.577350269189626));
#419=CARTESIAN_POINT('Ctrl Pts',(-0.443333333333329,-0.500000000000001,
0.866025403784438));
#420=CARTESIAN_POINT('Ctrl Pts',(-0.609999999999996,3.98028254091508E-016,
1.15470053837925));
#421=CARTESIAN_POINT('Origin',(-0.276666666666663,-1.27229228049365E-016,
0.));
#422=UNCERTAINTY_MEASURE_WITH_UNIT(LENGTH_MEASURE(0.01),#426,
'DISTANCE_ACCURACY_VALUE',
'Maximum model space distance between geometric entities at asserted c
onnectivities');
#423=UNCERTAINTY_MEASURE_WITH_UNIT(LENGTH_MEASURE(1.E-006),#426,
'DISTANCE_ACCURACY_VALUE',
'Maximum model space distance between geometric entities at asserted c
onnectivities');
#424=(
GEOMETRIC_REPRESENTATION_CONTEXT(3)
GLOBAL_UNCERTAINTY_ASSIGNED_CONTEXT((#422))
GLOBAL_UNIT_ASSIGNED_CONTEXT((#426,#429,#427))
REPRESENTATION_CONTEXT('','3D')
);
#425=(
GEOMETRIC_REPRESENTATION_CONTEXT(3)
GLOBAL_UNCERTAINTY_ASSIGNED_CONTEXT((#423))
GLOBAL_UNIT_ASSIGNED_CONTEXT((#426,#429,#427))
REPRESENTATION_CONTEXT('','3D')
);
#426=(
LENGTH_UNIT()
NAMED_UNIT(*)
SI_UNIT(.MILLI.,.METRE.)
);
#427=(
NAMED_UNIT(*)
SI_UNIT($,.STERADIAN.)
SOLID_ANGLE_UNIT()
);
#428=DIMENSIONAL_EXPONENTS(0.,0.,0.,0.,0.,0.,0.);
#429=(
CONVERSION_BASED_UNIT('degree',#431)
NAMED_UNIT(#428)
PLANE_ANGLE_UNIT()
);
#430=(
NAMED_UNIT(*)
PLANE_ANGLE_UNIT()
SI_UNIT($,.RADIAN.)
);
#431=PLANE_ANGLE_MEASURE_WITH_UNIT(PLANE_ANGLE_MEASURE(0.01745329252),#430);
#432=SHAPE_DEFINITION_REPRESENTATION(#433,#434);
#433=PRODUCT_DEFINITION_SHAPE('',$,#436);
#434=SHAPE_REPRESENTATION('',(#233),#424);
#435=PRODUCT_DEFINITION_CONTEXT('part definition',#440,'design');
#436=PRODUCT_DEFINITION('ISO 7380 - M3 x 6','ISO 7380 - M3 x 6',#437,#435);
#437=PRODUCT_DEFINITION_FORMATION('',$,#442);
#438=PRODUCT_RELATED_PRODUCT_CATEGORY('ISO 7380 - M3 x 6',
'ISO 7380 - M3 x 6',(#442));
#439=APPLICATION_PROTOCOL_DEFINITION('international standard',
'automotive_design',2009,#440);
#440=APPLICATION_CONTEXT(
'Core Data for Automotive Mechanical Design Process');
#441=PRODUCT_CONTEXT('part definition',#440,'mechanical');
#442=PRODUCT('ISO 7380 - M3 x 6','ISO 7380 - M3 x 6',$,(#441));
#443=PRESENTATION_STYLE_ASSIGNMENT((#444));
#444=SURFACE_STYLE_USAGE(.BOTH.,#445);
#445=SURFACE_SIDE_STYLE($,(#446));
#446=SURFACE_STYLE_FILL_AREA(#447);
#447=FILL_AREA_STYLE($,(#448));
#448=FILL_AREA_STYLE_COLOUR($,#449);
#449=COLOUR_RGB('',0.63921568627451,0.63921568627451,0.686274509803922);
ENDSEC;
END-ISO-10303-21;
