ISO-10303-21;
HEADER;
/* Generated by software containing ST-Developer
 * from STEP Tools, Inc. (www.steptools.com) 
 */

FILE_DESCRIPTION(
/* description */ (''),
/* implementation_level */ '2;1');

FILE_NAME(
/* name */ 
'C:\\Users\\SvenW\\Documents\\inventor\\B-Automaten\\Export_B_Automate
n\\ExportGithub\\Ruekseitecoinomat.stp',
/* time_stamp */ '2026-05-14T07:59:59+02:00',
/* author */ ('SvenW'),
/* organization */ (''),
/* preprocessor_version */ 'ST-DEVELOPER v15.2',
/* originating_system */ 'Autodesk Inventor 2014',
/* authorisation */ '');

FILE_SCHEMA (('AUTOMOTIVE_DESIGN { 1 0 10303 214 3 1 1 }'));
ENDSEC;

DATA;
#10=MECHANICAL_DESIGN_GEOMETRIC_PRESENTATION_REPRESENTATION('',(#13),#587);
#11=SHAPE_REPRESENTATION_RELATIONSHIP('SRR','None',#596,#12);
#12=ADVANCED_BREP_SHAPE_REPRESENTATION($,(#347),#586);
#13=STYLED_ITEM('',(#605),#347);
#14=FACE_BOUND('',#60,.T.);
#15=FACE_BOUND('',#61,.T.);
#16=FACE_BOUND('',#62,.T.);
#17=FACE_BOUND('',#63,.T.);
#18=PLANE('',#352);
#19=PLANE('',#356);
#20=PLANE('',#360);
#21=PLANE('',#364);
#22=PLANE('',#368);
#23=PLANE('',#372);
#24=PLANE('',#376);
#25=PLANE('',#380);
#26=PLANE('',#381);
#27=PLANE('',#382);
#28=FACE_OUTER_BOUND('',#44,.T.);
#29=FACE_OUTER_BOUND('',#45,.T.);
#30=FACE_OUTER_BOUND('',#46,.T.);
#31=FACE_OUTER_BOUND('',#47,.T.);
#32=FACE_OUTER_BOUND('',#48,.T.);
#33=FACE_OUTER_BOUND('',#49,.T.);
#34=FACE_OUTER_BOUND('',#50,.T.);
#35=FACE_OUTER_BOUND('',#51,.T.);
#36=FACE_OUTER_BOUND('',#52,.T.);
#37=FACE_OUTER_BOUND('',#53,.T.);
#38=FACE_OUTER_BOUND('',#54,.T.);
#39=FACE_OUTER_BOUND('',#55,.T.);
#40=FACE_OUTER_BOUND('',#56,.T.);
#41=FACE_OUTER_BOUND('',#57,.T.);
#42=FACE_OUTER_BOUND('',#58,.T.);
#43=FACE_OUTER_BOUND('',#59,.T.);
#44=EDGE_LOOP('',(#224,#225,#226,#227));
#45=EDGE_LOOP('',(#228,#229,#230,#231));
#46=EDGE_LOOP('',(#232,#233,#234,#235));
#47=EDGE_LOOP('',(#236,#237,#238,#239));
#48=EDGE_LOOP('',(#240,#241,#242,#243));
#49=EDGE_LOOP('',(#244,#245,#246,#247));
#50=EDGE_LOOP('',(#248,#249,#250,#251));
#51=EDGE_LOOP('',(#252,#253,#254,#255));
#52=EDGE_LOOP('',(#256,#257,#258,#259));
#53=EDGE_LOOP('',(#260,#261,#262,#263));
#54=EDGE_LOOP('',(#264,#265,#266,#267));
#55=EDGE_LOOP('',(#268,#269,#270,#271));
#56=EDGE_LOOP('',(#272,#273,#274,#275));
#57=EDGE_LOOP('',(#276,#277,#278,#279));
#58=EDGE_LOOP('',(#280,#281,#282,#283));
#59=EDGE_LOOP('',(#284,#285,#286,#287));
#60=EDGE_LOOP('',(#288,#289,#290,#291,#292,#293,#294,#295));
#61=EDGE_LOOP('',(#296,#297,#298,#299,#300,#301,#302,#303));
#62=EDGE_LOOP('',(#304,#305,#306,#307,#308,#309,#310,#311));
#63=EDGE_LOOP('',(#312,#313,#314,#315,#316,#317,#318,#319));
#64=LINE('',#491,#96);
#65=LINE('',#494,#97);
#66=LINE('',#497,#98);
#67=LINE('',#499,#99);
#68=LINE('',#500,#100);
#69=LINE('',#506,#101);
#70=LINE('',#509,#102);
#71=LINE('',#511,#103);
#72=LINE('',#512,#104);
#73=LINE('',#518,#105);
#74=LINE('',#521,#106);
#75=LINE('',#523,#107);
#76=LINE('',#524,#108);
#77=LINE('',#530,#109);
#78=LINE('',#532,#110);
#79=LINE('',#533,#111);
#80=LINE('',#539,#112);
#81=LINE('',#542,#113);
#82=LINE('',#545,#114);
#83=LINE('',#547,#115);
#84=LINE('',#548,#116);
#85=LINE('',#554,#117);
#86=LINE('',#557,#118);
#87=LINE('',#559,#119);
#88=LINE('',#560,#120);
#89=LINE('',#566,#121);
#90=LINE('',#569,#122);
#91=LINE('',#571,#123);
#92=LINE('',#572,#124);
#93=LINE('',#578,#125);
#94=LINE('',#580,#126);
#95=LINE('',#581,#127);
#96=VECTOR('',#389,3.);
#97=VECTOR('',#392,3.);
#98=VECTOR('',#395,7.);
#99=VECTOR('',#396,7.);
#100=VECTOR('',#397,3.);
#101=VECTOR('',#404,3.);
#102=VECTOR('',#407,6.99999999999999);
#103=VECTOR('',#408,6.99999999999999);
#104=VECTOR('',#409,3.);
#105=VECTOR('',#416,3.);
#106=VECTOR('',#419,7.);
#107=VECTOR('',#420,7.);
#108=VECTOR('',#421,3.);
#109=VECTOR('',#428,3.);
#110=VECTOR('',#431,6.99999999999999);
#111=VECTOR('',#432,6.99999999999999);
#112=VECTOR('',#437,3.);
#113=VECTOR('',#440,3.);
#114=VECTOR('',#443,140.);
#115=VECTOR('',#444,140.);
#116=VECTOR('',#445,3.);
#117=VECTOR('',#452,3.);
#118=VECTOR('',#455,186.);
#119=VECTOR('',#456,186.);
#120=VECTOR('',#457,3.);
#121=VECTOR('',#464,3.);
#122=VECTOR('',#467,140.);
#123=VECTOR('',#468,140.);
#124=VECTOR('',#469,3.);
#125=VECTOR('',#476,3.);
#126=VECTOR('',#479,186.);
#127=VECTOR('',#480,186.);
#128=CIRCLE('',#350,5.);
#129=CIRCLE('',#351,5.);
#130=CIRCLE('',#354,5.);
#131=CIRCLE('',#355,5.);
#132=CIRCLE('',#358,5.);
#133=CIRCLE('',#359,5.);
#134=CIRCLE('',#362,5.);
#135=CIRCLE('',#363,5.);
#136=CIRCLE('',#366,5.);
#137=CIRCLE('',#367,5.);
#138=CIRCLE('',#370,5.);
#139=CIRCLE('',#371,5.);
#140=CIRCLE('',#374,5.);
#141=CIRCLE('',#375,5.);
#142=CIRCLE('',#378,5.);
#143=CIRCLE('',#379,5.);
#144=VERTEX_POINT('',#487);
#145=VERTEX_POINT('',#488);
#146=VERTEX_POINT('',#490);
#147=VERTEX_POINT('',#492);
#148=VERTEX_POINT('',#496);
#149=VERTEX_POINT('',#498);
#150=VERTEX_POINT('',#502);
#151=VERTEX_POINT('',#504);
#152=VERTEX_POINT('',#508);
#153=VERTEX_POINT('',#510);
#154=VERTEX_POINT('',#514);
#155=VERTEX_POINT('',#516);
#156=VERTEX_POINT('',#520);
#157=VERTEX_POINT('',#522);
#158=VERTEX_POINT('',#526);
#159=VERTEX_POINT('',#528);
#160=VERTEX_POINT('',#535);
#161=VERTEX_POINT('',#536);
#162=VERTEX_POINT('',#538);
#163=VERTEX_POINT('',#540);
#164=VERTEX_POINT('',#544);
#165=VERTEX_POINT('',#546);
#166=VERTEX_POINT('',#550);
#167=VERTEX_POINT('',#552);
#168=VERTEX_POINT('',#556);
#169=VERTEX_POINT('',#558);
#170=VERTEX_POINT('',#562);
#171=VERTEX_POINT('',#564);
#172=VERTEX_POINT('',#568);
#173=VERTEX_POINT('',#570);
#174=VERTEX_POINT('',#574);
#175=VERTEX_POINT('',#576);
#176=EDGE_CURVE('',#144,#145,#128,.T.);
#177=EDGE_CURVE('',#146,#144,#64,.T.);
#178=EDGE_CURVE('',#147,#146,#129,.T.);
#179=EDGE_CURVE('',#147,#145,#65,.T.);
#180=EDGE_CURVE('',#145,#148,#66,.T.);
#181=EDGE_CURVE('',#149,#147,#67,.T.);
#182=EDGE_CURVE('',#149,#148,#68,.T.);
#183=EDGE_CURVE('',#148,#150,#130,.T.);
#184=EDGE_CURVE('',#151,#149,#131,.T.);
#185=EDGE_CURVE('',#151,#150,#69,.T.);
#186=EDGE_CURVE('',#150,#152,#70,.T.);
#187=EDGE_CURVE('',#153,#151,#71,.T.);
#188=EDGE_CURVE('',#153,#152,#72,.T.);
#189=EDGE_CURVE('',#152,#154,#132,.T.);
#190=EDGE_CURVE('',#155,#153,#133,.T.);
#191=EDGE_CURVE('',#155,#154,#73,.T.);
#192=EDGE_CURVE('',#154,#156,#74,.T.);
#193=EDGE_CURVE('',#157,#155,#75,.T.);
#194=EDGE_CURVE('',#157,#156,#76,.T.);
#195=EDGE_CURVE('',#156,#158,#134,.T.);
#196=EDGE_CURVE('',#159,#157,#135,.T.);
#197=EDGE_CURVE('',#159,#158,#77,.T.);
#198=EDGE_CURVE('',#158,#144,#78,.T.);
#199=EDGE_CURVE('',#146,#159,#79,.T.);
#200=EDGE_CURVE('',#160,#161,#136,.T.);
#201=EDGE_CURVE('',#160,#162,#80,.T.);
#202=EDGE_CURVE('',#163,#162,#137,.T.);
#203=EDGE_CURVE('',#161,#163,#81,.T.);
#204=EDGE_CURVE('',#161,#164,#82,.T.);
#205=EDGE_CURVE('',#165,#163,#83,.T.);
#206=EDGE_CURVE('',#164,#165,#84,.T.);
#207=EDGE_CURVE('',#164,#166,#138,.T.);
#208=EDGE_CURVE('',#167,#165,#139,.T.);
#209=EDGE_CURVE('',#166,#167,#85,.T.);
#210=EDGE_CURVE('',#166,#168,#86,.T.);
#211=EDGE_CURVE('',#169,#167,#87,.T.);
#212=EDGE_CURVE('',#168,#169,#88,.T.);
#213=EDGE_CURVE('',#168,#170,#140,.T.);
#214=EDGE_CURVE('',#171,#169,#141,.T.);
#215=EDGE_CURVE('',#170,#171,#89,.T.);
#216=EDGE_CURVE('',#170,#172,#90,.T.);
#217=EDGE_CURVE('',#173,#171,#91,.T.);
#218=EDGE_CURVE('',#172,#173,#92,.T.);
#219=EDGE_CURVE('',#172,#174,#142,.T.);
#220=EDGE_CURVE('',#175,#173,#143,.T.);
#221=EDGE_CURVE('',#174,#175,#93,.T.);
#222=EDGE_CURVE('',#174,#160,#94,.T.);
#223=EDGE_CURVE('',#162,#175,#95,.T.);
#224=ORIENTED_EDGE('',*,*,#176,.F.);
#225=ORIENTED_EDGE('',*,*,#177,.F.);
#226=ORIENTED_EDGE('',*,*,#178,.F.);
#227=ORIENTED_EDGE('',*,*,#179,.T.);
#228=ORIENTED_EDGE('',*,*,#180,.F.);
#229=ORIENTED_EDGE('',*,*,#179,.F.);
#230=ORIENTED_EDGE('',*,*,#181,.F.);
#231=ORIENTED_EDGE('',*,*,#182,.T.);
#232=ORIENTED_EDGE('',*,*,#183,.F.);
#233=ORIENTED_EDGE('',*,*,#182,.F.);
#234=ORIENTED_EDGE('',*,*,#184,.F.);
#235=ORIENTED_EDGE('',*,*,#185,.T.);
#236=ORIENTED_EDGE('',*,*,#186,.F.);
#237=ORIENTED_EDGE('',*,*,#185,.F.);
#238=ORIENTED_EDGE('',*,*,#187,.F.);
#239=ORIENTED_EDGE('',*,*,#188,.T.);
#240=ORIENTED_EDGE('',*,*,#189,.F.);
#241=ORIENTED_EDGE('',*,*,#188,.F.);
#242=ORIENTED_EDGE('',*,*,#190,.F.);
#243=ORIENTED_EDGE('',*,*,#191,.T.);
#244=ORIENTED_EDGE('',*,*,#192,.F.);
#245=ORIENTED_EDGE('',*,*,#191,.F.);
#246=ORIENTED_EDGE('',*,*,#193,.F.);
#247=ORIENTED_EDGE('',*,*,#194,.T.);
#248=ORIENTED_EDGE('',*,*,#195,.F.);
#249=ORIENTED_EDGE('',*,*,#194,.F.);
#250=ORIENTED_EDGE('',*,*,#196,.F.);
#251=ORIENTED_EDGE('',*,*,#197,.T.);
#252=ORIENTED_EDGE('',*,*,#198,.F.);
#253=ORIENTED_EDGE('',*,*,#197,.F.);
#254=ORIENTED_EDGE('',*,*,#199,.F.);
#255=ORIENTED_EDGE('',*,*,#177,.T.);
#256=ORIENTED_EDGE('',*,*,#200,.F.);
#257=ORIENTED_EDGE('',*,*,#201,.T.);
#258=ORIENTED_EDGE('',*,*,#202,.F.);
#259=ORIENTED_EDGE('',*,*,#203,.F.);
#260=ORIENTED_EDGE('',*,*,#204,.F.);
#261=ORIENTED_EDGE('',*,*,#203,.T.);
#262=ORIENTED_EDGE('',*,*,#205,.F.);
#263=ORIENTED_EDGE('',*,*,#206,.F.);
#264=ORIENTED_EDGE('',*,*,#207,.F.);
#265=ORIENTED_EDGE('',*,*,#206,.T.);
#266=ORIENTED_EDGE('',*,*,#208,.F.);
#267=ORIENTED_EDGE('',*,*,#209,.F.);
#268=ORIENTED_EDGE('',*,*,#210,.F.);
#269=ORIENTED_EDGE('',*,*,#209,.T.);
#270=ORIENTED_EDGE('',*,*,#211,.F.);
#271=ORIENTED_EDGE('',*,*,#212,.F.);
#272=ORIENTED_EDGE('',*,*,#213,.F.);
#273=ORIENTED_EDGE('',*,*,#212,.T.);
#274=ORIENTED_EDGE('',*,*,#214,.F.);
#275=ORIENTED_EDGE('',*,*,#215,.F.);
#276=ORIENTED_EDGE('',*,*,#216,.F.);
#277=ORIENTED_EDGE('',*,*,#215,.T.);
#278=ORIENTED_EDGE('',*,*,#217,.F.);
#279=ORIENTED_EDGE('',*,*,#218,.F.);
#280=ORIENTED_EDGE('',*,*,#219,.F.);
#281=ORIENTED_EDGE('',*,*,#218,.T.);
#282=ORIENTED_EDGE('',*,*,#220,.F.);
#283=ORIENTED_EDGE('',*,*,#221,.F.);
#284=ORIENTED_EDGE('',*,*,#222,.F.);
#285=ORIENTED_EDGE('',*,*,#221,.T.);
#286=ORIENTED_EDGE('',*,*,#223,.F.);
#287=ORIENTED_EDGE('',*,*,#201,.F.);
#288=ORIENTED_EDGE('',*,*,#189,.T.);
#289=ORIENTED_EDGE('',*,*,#192,.T.);
#290=ORIENTED_EDGE('',*,*,#195,.T.);
#291=ORIENTED_EDGE('',*,*,#198,.T.);
#292=ORIENTED_EDGE('',*,*,#176,.T.);
#293=ORIENTED_EDGE('',*,*,#180,.T.);
#294=ORIENTED_EDGE('',*,*,#183,.T.);
#295=ORIENTED_EDGE('',*,*,#186,.T.);
#296=ORIENTED_EDGE('',*,*,#222,.T.);
#297=ORIENTED_EDGE('',*,*,#200,.T.);
#298=ORIENTED_EDGE('',*,*,#204,.T.);
#299=ORIENTED_EDGE('',*,*,#207,.T.);
#300=ORIENTED_EDGE('',*,*,#210,.T.);
#301=ORIENTED_EDGE('',*,*,#213,.T.);
#302=ORIENTED_EDGE('',*,*,#216,.T.);
#303=ORIENTED_EDGE('',*,*,#219,.T.);
#304=ORIENTED_EDGE('',*,*,#190,.T.);
#305=ORIENTED_EDGE('',*,*,#187,.T.);
#306=ORIENTED_EDGE('',*,*,#184,.T.);
#307=ORIENTED_EDGE('',*,*,#181,.T.);
#308=ORIENTED_EDGE('',*,*,#178,.T.);
#309=ORIENTED_EDGE('',*,*,#199,.T.);
#310=ORIENTED_EDGE('',*,*,#196,.T.);
#311=ORIENTED_EDGE('',*,*,#193,.T.);
#312=ORIENTED_EDGE('',*,*,#223,.T.);
#313=ORIENTED_EDGE('',*,*,#220,.T.);
#314=ORIENTED_EDGE('',*,*,#217,.T.);
#315=ORIENTED_EDGE('',*,*,#214,.T.);
#316=ORIENTED_EDGE('',*,*,#211,.T.);
#317=ORIENTED_EDGE('',*,*,#208,.T.);
#318=ORIENTED_EDGE('',*,*,#205,.T.);
#319=ORIENTED_EDGE('',*,*,#202,.T.);
#320=CYLINDRICAL_SURFACE('',#349,5.);
#321=CYLINDRICAL_SURFACE('',#353,5.);
#322=CYLINDRICAL_SURFACE('',#357,5.);
#323=CYLINDRICAL_SURFACE('',#361,5.);
#324=CYLINDRICAL_SURFACE('',#365,5.);
#325=CYLINDRICAL_SURFACE('',#369,5.);
#326=CYLINDRICAL_SURFACE('',#373,5.);
#327=CYLINDRICAL_SURFACE('',#377,5.);
#328=ADVANCED_FACE('',(#28),#320,.F.);
#329=ADVANCED_FACE('',(#29),#18,.F.);
#330=ADVANCED_FACE('',(#30),#321,.F.);
#331=ADVANCED_FACE('',(#31),#19,.F.);
#332=ADVANCED_FACE('',(#32),#322,.F.);
#333=ADVANCED_FACE('',(#33),#20,.F.);
#334=ADVANCED_FACE('',(#34),#323,.F.);
#335=ADVANCED_FACE('',(#35),#21,.F.);
#336=ADVANCED_FACE('',(#36),#324,.T.);
#337=ADVANCED_FACE('',(#37),#22,.T.);
#338=ADVANCED_FACE('',(#38),#325,.T.);
#339=ADVANCED_FACE('',(#39),#23,.T.);
#340=ADVANCED_FACE('',(#40),#326,.T.);
#341=ADVANCED_FACE('',(#41),#24,.T.);
#342=ADVANCED_FACE('',(#42),#327,.T.);
#343=ADVANCED_FACE('',(#43),#25,.T.);
#344=ADVANCED_FACE('',(#14,#15),#26,.F.);
#345=ADVANCED_FACE('',(#16,#17),#27,.T.);
#346=CLOSED_SHELL('',(#328,#329,#330,#331,#332,#333,#334,#335,#336,#337,
#338,#339,#340,#341,#342,#343,#344,#345));
#347=MANIFOLD_SOLID_BREP('Volumenk\X\F6rper1',#346);
#348=AXIS2_PLACEMENT_3D('placement',#485,#383,#384);
#349=AXIS2_PLACEMENT_3D('',#486,#385,#386);
#350=AXIS2_PLACEMENT_3D('',#489,#387,#388);
#351=AXIS2_PLACEMENT_3D('',#493,#390,#391);
#352=AXIS2_PLACEMENT_3D('',#495,#393,#394);
#353=AXIS2_PLACEMENT_3D('',#501,#398,#399);
#354=AXIS2_PLACEMENT_3D('',#503,#400,#401);
#355=AXIS2_PLACEMENT_3D('',#505,#402,#403);
#356=AXIS2_PLACEMENT_3D('',#507,#405,#406);
#357=AXIS2_PLACEMENT_3D('',#513,#410,#411);
#358=AXIS2_PLACEMENT_3D('',#515,#412,#413);
#359=AXIS2_PLACEMENT_3D('',#517,#414,#415);
#360=AXIS2_PLACEMENT_3D('',#519,#417,#418);
#361=AXIS2_PLACEMENT_3D('',#525,#422,#423);
#362=AXIS2_PLACEMENT_3D('',#527,#424,#425);
#363=AXIS2_PLACEMENT_3D('',#529,#426,#427);
#364=AXIS2_PLACEMENT_3D('',#531,#429,#430);
#365=AXIS2_PLACEMENT_3D('',#534,#433,#434);
#366=AXIS2_PLACEMENT_3D('',#537,#435,#436);
#367=AXIS2_PLACEMENT_3D('',#541,#438,#439);
#368=AXIS2_PLACEMENT_3D('',#543,#441,#442);
#369=AXIS2_PLACEMENT_3D('',#549,#446,#447);
#370=AXIS2_PLACEMENT_3D('',#551,#448,#449);
#371=AXIS2_PLACEMENT_3D('',#553,#450,#451);
#372=AXIS2_PLACEMENT_3D('',#555,#453,#454);
#373=AXIS2_PLACEMENT_3D('',#561,#458,#459);
#374=AXIS2_PLACEMENT_3D('',#563,#460,#461);
#375=AXIS2_PLACEMENT_3D('',#565,#462,#463);
#376=AXIS2_PLACEMENT_3D('',#567,#465,#466);
#377=AXIS2_PLACEMENT_3D('',#573,#470,#471);
#378=AXIS2_PLACEMENT_3D('',#575,#472,#473);
#379=AXIS2_PLACEMENT_3D('',#577,#474,#475);
#380=AXIS2_PLACEMENT_3D('',#579,#477,#478);
#381=AXIS2_PLACEMENT_3D('',#582,#481,#482);
#382=AXIS2_PLACEMENT_3D('',#583,#483,#484);
#383=DIRECTION('axis',(0.,0.,1.));
#384=DIRECTION('refdir',(1.,0.,0.));
#385=DIRECTION('center_axis',(0.,0.,-1.));
#386=DIRECTION('ref_axis',(0.,1.,0.));
#387=DIRECTION('center_axis',(0.,0.,1.));
#388=DIRECTION('ref_axis',(0.,1.,0.));
#389=DIRECTION('',(0.,0.,-1.));
#390=DIRECTION('center_axis',(0.,0.,-1.));
#391=DIRECTION('ref_axis',(0.,1.,0.));
#392=DIRECTION('',(0.,0.,-1.));
#393=DIRECTION('center_axis',(1.,0.,0.));
#394=DIRECTION('ref_axis',(0.,-1.,0.));
#395=DIRECTION('',(0.,1.,0.));
#396=DIRECTION('',(0.,-1.,0.));
#397=DIRECTION('',(0.,0.,-1.));
#398=DIRECTION('center_axis',(0.,0.,-1.));
#399=DIRECTION('ref_axis',(-1.,1.11022302462516E-016,0.));
#400=DIRECTION('center_axis',(0.,0.,1.));
#401=DIRECTION('ref_axis',(-1.,1.11022302462516E-016,0.));
#402=DIRECTION('center_axis',(0.,0.,-1.));
#403=DIRECTION('ref_axis',(-1.,1.11022302462516E-016,0.));
#404=DIRECTION('',(0.,0.,-1.));
#405=DIRECTION('center_axis',(-3.17206578464331E-016,1.,0.));
#406=DIRECTION('ref_axis',(1.,3.5527136788005E-016,0.));
#407=DIRECTION('',(-1.,-3.17206578464331E-016,0.));
#408=DIRECTION('',(1.,3.17206578464331E-016,0.));
#409=DIRECTION('',(0.,0.,-1.));
#410=DIRECTION('center_axis',(0.,0.,-1.));
#411=DIRECTION('ref_axis',(0.,-1.,0.));
#412=DIRECTION('center_axis',(0.,0.,1.));
#413=DIRECTION('ref_axis',(0.,-1.,0.));
#414=DIRECTION('center_axis',(0.,0.,-1.));
#415=DIRECTION('ref_axis',(0.,-1.,0.));
#416=DIRECTION('',(0.,0.,-1.));
#417=DIRECTION('center_axis',(-1.,0.,0.));
#418=DIRECTION('ref_axis',(0.,1.,0.));
#419=DIRECTION('',(0.,-1.,0.));
#420=DIRECTION('',(0.,1.,0.));
#421=DIRECTION('',(0.,0.,-1.));
#422=DIRECTION('center_axis',(0.,0.,-1.));
#423=DIRECTION('ref_axis',(1.,2.22044604925031E-016,0.));
#424=DIRECTION('center_axis',(0.,0.,1.));
#425=DIRECTION('ref_axis',(1.,2.22044604925031E-016,0.));
#426=DIRECTION('center_axis',(0.,0.,-1.));
#427=DIRECTION('ref_axis',(1.,2.22044604925031E-016,0.));
#428=DIRECTION('',(0.,0.,-1.));
#429=DIRECTION('center_axis',(-3.17206578464331E-016,-1.,0.));
#430=DIRECTION('ref_axis',(-1.,3.5527136788005E-016,0.));
#431=DIRECTION('',(1.,-3.17206578464331E-016,0.));
#432=DIRECTION('',(-1.,3.17206578464331E-016,0.));
#433=DIRECTION('center_axis',(0.,0.,1.));
#434=DIRECTION('ref_axis',(0.,1.,0.));
#435=DIRECTION('center_axis',(0.,0.,-1.));
#436=DIRECTION('ref_axis',(0.,1.,0.));
#437=DIRECTION('',(0.,0.,1.));
#438=DIRECTION('center_axis',(0.,0.,1.));
#439=DIRECTION('ref_axis',(0.,1.,0.));
#440=DIRECTION('',(0.,0.,1.));
#441=DIRECTION('center_axis',(0.,-1.,0.));
#442=DIRECTION('ref_axis',(1.,0.,0.));
#443=DIRECTION('',(-1.,0.,0.));
#444=DIRECTION('',(1.,0.,0.));
#445=DIRECTION('',(0.,0.,1.));
#446=DIRECTION('center_axis',(0.,0.,1.));
#447=DIRECTION('ref_axis',(1.,0.,0.));
#448=DIRECTION('center_axis',(0.,0.,-1.));
#449=DIRECTION('ref_axis',(1.,0.,0.));
#450=DIRECTION('center_axis',(0.,0.,1.));
#451=DIRECTION('ref_axis',(1.,0.,0.));
#452=DIRECTION('',(0.,0.,1.));
#453=DIRECTION('center_axis',(-1.,0.,0.));
#454=DIRECTION('ref_axis',(0.,-1.,0.));
#455=DIRECTION('',(0.,1.,0.));
#456=DIRECTION('',(0.,-1.,0.));
#457=DIRECTION('',(0.,0.,1.));
#458=DIRECTION('center_axis',(0.,0.,1.));
#459=DIRECTION('ref_axis',(0.,-1.,0.));
#460=DIRECTION('center_axis',(0.,0.,-1.));
#461=DIRECTION('ref_axis',(0.,-1.,0.));
#462=DIRECTION('center_axis',(0.,0.,1.));
#463=DIRECTION('ref_axis',(0.,-1.,0.));
#464=DIRECTION('',(0.,0.,1.));
#465=DIRECTION('center_axis',(0.,1.,0.));
#466=DIRECTION('ref_axis',(-1.,0.,0.));
#467=DIRECTION('',(1.,0.,0.));
#468=DIRECTION('',(-1.,0.,0.));
#469=DIRECTION('',(0.,0.,1.));
#470=DIRECTION('center_axis',(0.,0.,1.));
#471=DIRECTION('ref_axis',(-1.,0.,0.));
#472=DIRECTION('center_axis',(0.,0.,-1.));
#473=DIRECTION('ref_axis',(-1.,0.,0.));
#474=DIRECTION('center_axis',(0.,0.,1.));
#475=DIRECTION('ref_axis',(-1.,0.,0.));
#476=DIRECTION('',(0.,0.,1.));
#477=DIRECTION('center_axis',(1.,0.,0.));
#478=DIRECTION('ref_axis',(0.,1.,0.));
#479=DIRECTION('',(0.,-1.,0.));
#480=DIRECTION('',(0.,1.,0.));
#481=DIRECTION('center_axis',(0.,0.,1.));
#482=DIRECTION('ref_axis',(1.,0.,0.));
#483=DIRECTION('center_axis',(0.,0.,1.));
#484=DIRECTION('ref_axis',(1.,0.,0.));
#485=CARTESIAN_POINT('',(0.,0.,0.));
#486=CARTESIAN_POINT('Origin',(60.,-3.5,3.));
#487=CARTESIAN_POINT('',(60.,-8.5,0.));
#488=CARTESIAN_POINT('',(65.,-3.5,0.));
#489=CARTESIAN_POINT('Origin',(60.,-3.5,0.));
#490=CARTESIAN_POINT('',(60.,-8.5,3.));
#491=CARTESIAN_POINT('',(60.,-8.5,3.));
#492=CARTESIAN_POINT('',(65.,-3.5,3.));
#493=CARTESIAN_POINT('Origin',(60.,-3.5,3.));
#494=CARTESIAN_POINT('',(65.,-3.5,3.));
#495=CARTESIAN_POINT('Origin',(65.,3.5,3.));
#496=CARTESIAN_POINT('',(65.,3.5,0.));
#497=CARTESIAN_POINT('',(65.,1.75,0.));
#498=CARTESIAN_POINT('',(65.,3.5,3.));
#499=CARTESIAN_POINT('',(65.,1.75,3.));
#500=CARTESIAN_POINT('',(65.,3.5,3.));
#501=CARTESIAN_POINT('Origin',(60.,3.5,3.));
#502=CARTESIAN_POINT('',(60.,8.5,0.));
#503=CARTESIAN_POINT('Origin',(60.,3.5,0.));
#504=CARTESIAN_POINT('',(60.,8.5,3.));
#505=CARTESIAN_POINT('Origin',(60.,3.5,3.));
#506=CARTESIAN_POINT('',(60.,8.5,3.));
#507=CARTESIAN_POINT('Origin',(53.,8.5,3.));
#508=CARTESIAN_POINT('',(53.,8.5,0.));
#509=CARTESIAN_POINT('',(26.5,8.49999999999999,0.));
#510=CARTESIAN_POINT('',(53.,8.5,3.));
#511=CARTESIAN_POINT('',(26.5,8.49999999999999,3.));
#512=CARTESIAN_POINT('',(53.,8.5,3.));
#513=CARTESIAN_POINT('Origin',(53.,3.5,3.));
#514=CARTESIAN_POINT('',(48.,3.5,0.));
#515=CARTESIAN_POINT('Origin',(53.,3.5,0.));
#516=CARTESIAN_POINT('',(48.,3.5,3.));
#517=CARTESIAN_POINT('Origin',(53.,3.5,3.));
#518=CARTESIAN_POINT('',(48.,3.5,3.));
#519=CARTESIAN_POINT('Origin',(48.,-3.5,3.));
#520=CARTESIAN_POINT('',(48.,-3.5,0.));
#521=CARTESIAN_POINT('',(48.,-1.75,0.));
#522=CARTESIAN_POINT('',(48.,-3.5,3.));
#523=CARTESIAN_POINT('',(48.,-1.75,3.));
#524=CARTESIAN_POINT('',(48.,-3.5,3.));
#525=CARTESIAN_POINT('Origin',(53.,-3.5,3.));
#526=CARTESIAN_POINT('',(53.,-8.5,0.));
#527=CARTESIAN_POINT('Origin',(53.,-3.5,0.));
#528=CARTESIAN_POINT('',(53.,-8.5,3.));
#529=CARTESIAN_POINT('Origin',(53.,-3.5,3.));
#530=CARTESIAN_POINT('',(53.,-8.5,3.));
#531=CARTESIAN_POINT('Origin',(60.,-8.5,3.));
#532=CARTESIAN_POINT('',(30.,-8.49999999999999,0.));
#533=CARTESIAN_POINT('',(30.,-8.49999999999999,3.));
#534=CARTESIAN_POINT('Origin',(70.,-93.,0.));
#535=CARTESIAN_POINT('',(75.,-93.,0.));
#536=CARTESIAN_POINT('',(70.,-98.,0.));
#537=CARTESIAN_POINT('Origin',(70.,-93.,0.));
#538=CARTESIAN_POINT('',(75.,-93.,3.));
#539=CARTESIAN_POINT('',(75.,-93.,0.));
#540=CARTESIAN_POINT('',(70.,-98.,3.));
#541=CARTESIAN_POINT('Origin',(70.,-93.,3.));
#542=CARTESIAN_POINT('',(70.,-98.,0.));
#543=CARTESIAN_POINT('Origin',(-70.,-98.,0.));
#544=CARTESIAN_POINT('',(-70.,-98.,0.));
#545=CARTESIAN_POINT('',(70.,-98.,0.));
#546=CARTESIAN_POINT('',(-70.,-98.,3.));
#547=CARTESIAN_POINT('',(70.,-98.,3.));
#548=CARTESIAN_POINT('',(-70.,-98.,0.));
#549=CARTESIAN_POINT('Origin',(-70.,-93.,0.));
#550=CARTESIAN_POINT('',(-75.,-93.,0.));
#551=CARTESIAN_POINT('Origin',(-70.,-93.,0.));
#552=CARTESIAN_POINT('',(-75.,-93.,3.));
#553=CARTESIAN_POINT('Origin',(-70.,-93.,3.));
#554=CARTESIAN_POINT('',(-75.,-93.,0.));
#555=CARTESIAN_POINT('Origin',(-75.,93.,0.));
#556=CARTESIAN_POINT('',(-75.,93.,0.));
#557=CARTESIAN_POINT('',(-75.,-93.,0.));
#558=CARTESIAN_POINT('',(-75.,93.,3.));
#559=CARTESIAN_POINT('',(-75.,-93.,3.));
#560=CARTESIAN_POINT('',(-75.,93.,0.));
#561=CARTESIAN_POINT('Origin',(-70.,93.,0.));
#562=CARTESIAN_POINT('',(-70.,98.,0.));
#563=CARTESIAN_POINT('Origin',(-70.,93.,0.));
#564=CARTESIAN_POINT('',(-70.,98.,3.));
#565=CARTESIAN_POINT('Origin',(-70.,93.,3.));
#566=CARTESIAN_POINT('',(-70.,98.,0.));
#567=CARTESIAN_POINT('Origin',(70.,98.,0.));
#568=CARTESIAN_POINT('',(70.,98.,0.));
#569=CARTESIAN_POINT('',(-70.,98.,0.));
#570=CARTESIAN_POINT('',(70.,98.,3.));
#571=CARTESIAN_POINT('',(-70.,98.,3.));
#572=CARTESIAN_POINT('',(70.,98.,0.));
#573=CARTESIAN_POINT('Origin',(70.,93.,0.));
#574=CARTESIAN_POINT('',(75.,93.,0.));
#575=CARTESIAN_POINT('Origin',(70.,93.,0.));
#576=CARTESIAN_POINT('',(75.,93.,3.));
#577=CARTESIAN_POINT('Origin',(70.,93.,3.));
#578=CARTESIAN_POINT('',(75.,93.,0.));
#579=CARTESIAN_POINT('Origin',(75.,-93.,0.));
#580=CARTESIAN_POINT('',(75.,93.,0.));
#581=CARTESIAN_POINT('',(75.,93.,3.));
#582=CARTESIAN_POINT('Origin',(-9.86044018319892E-017,-2.95813205495968E-016,
0.));
#583=CARTESIAN_POINT('Origin',(-9.86044018319892E-017,-2.95813205495968E-016,
3.));
#584=UNCERTAINTY_MEASURE_WITH_UNIT(LENGTH_MEASURE(0.01),#588,
'DISTANCE_ACCURACY_VALUE',
'Maximum model space distance between geometric entities at asserted c
onnectivities');
#585=UNCERTAINTY_MEASURE_WITH_UNIT(LENGTH_MEASURE(1.E-006),#588,
'DISTANCE_ACCURACY_VALUE',
'Maximum model space distance between geometric entities at asserted c
onnectivities');
#586=(
GEOMETRIC_REPRESENTATION_CONTEXT(3)
GLOBAL_UNCERTAINTY_ASSIGNED_CONTEXT((#584))
GLOBAL_UNIT_ASSIGNED_CONTEXT((#588,#591,#589))
REPRESENTATION_CONTEXT('','3D')
);
#587=(
GEOMETRIC_REPRESENTATION_CONTEXT(3)
GLOBAL_UNCERTAINTY_ASSIGNED_CONTEXT((#585))
GLOBAL_UNIT_ASSIGNED_CONTEXT((#588,#591,#589))
REPRESENTATION_CONTEXT('','3D')
);
#588=(
LENGTH_UNIT()
NAMED_UNIT(*)
SI_UNIT(.MILLI.,.METRE.)
);
#589=(
NAMED_UNIT(*)
SI_UNIT($,.STERADIAN.)
SOLID_ANGLE_UNIT()
);
#590=DIMENSIONAL_EXPONENTS(0.,0.,0.,0.,0.,0.,0.);
#591=(
CONVERSION_BASED_UNIT('degree',#593)
NAMED_UNIT(#590)
PLANE_ANGLE_UNIT()
);
#592=(
NAMED_UNIT(*)
PLANE_ANGLE_UNIT()
SI_UNIT($,.RADIAN.)
);
#593=PLANE_ANGLE_MEASURE_WITH_UNIT(PLANE_ANGLE_MEASURE(0.01745329252),#592);
#594=SHAPE_DEFINITION_REPRESENTATION(#595,#596);
#595=PRODUCT_DEFINITION_SHAPE('',$,#598);
#596=SHAPE_REPRESENTATION('',(#348),#586);
#597=PRODUCT_DEFINITION_CONTEXT('part definition',#602,'design');
#598=PRODUCT_DEFINITION('Ruekseitecoinomat','Ruekseitecoinomat',#599,#597);
#599=PRODUCT_DEFINITION_FORMATION('',$,#604);
#600=PRODUCT_RELATED_PRODUCT_CATEGORY('Ruekseitecoinomat',
'Ruekseitecoinomat',(#604));
#601=APPLICATION_PROTOCOL_DEFINITION('international standard',
'automotive_design',2009,#602);
#602=APPLICATION_CONTEXT(
'Core Data for Automotive Mechanical Design Process');
#603=PRODUCT_CONTEXT('part definition',#602,'mechanical');
#604=PRODUCT('Ruekseitecoinomat','Ruekseitecoinomat',$,(#603));
#605=PRESENTATION_STYLE_ASSIGNMENT((#606));
#606=SURFACE_STYLE_USAGE(.BOTH.,#607);
#607=SURFACE_SIDE_STYLE($,(#608));
#608=SURFACE_STYLE_FILL_AREA(#609);
#609=FILL_AREA_STYLE($,(#610));
#610=FILL_AREA_STYLE_COLOUR($,#611);
#611=COLOUR_RGB('',0.8,0.8,0.8);
ENDSEC;
END-ISO-10303-21;
