ISO-10303-21;
HEADER;
/* Generated by software containing ST-Developer
 * from STEP Tools, Inc. (www.steptools.com) 
 */

FILE_DESCRIPTION(
/* description */ (''),
/* implementation_level */ '2;1');

FILE_NAME(
/* name */ 
'C:\\Users\\SvenW\\Documents\\inventor\\B-Automaten\\Export_B_Automate
n\\ExportGithub\\Scharnier 1.stp',
/* time_stamp */ '2026-05-14T08:00:32+02:00',
/* author */ ('SvenW'),
/* organization */ (''),
/* preprocessor_version */ 'ST-DEVELOPER v15.2',
/* originating_system */ 'Autodesk Inventor 2014',
/* authorisation */ '');

FILE_SCHEMA (('AUTOMOTIVE_DESIGN { 1 0 10303 214 3 1 1 }'));
ENDSEC;

DATA;
#10=MECHANICAL_DESIGN_GEOMETRIC_PRESENTATION_REPRESENTATION('',(#16),#750);
#11=DIMENSIONAL_EXPONENTS(0.,0.,0.,0.,0.,0.,0.);
#12=(
CONVERSION_BASED_UNIT('degree',#13)
NAMED_UNIT(#11)
PLANE_ANGLE_UNIT()
);
#13=PLANE_ANGLE_MEASURE_WITH_UNIT(PLANE_ANGLE_MEASURE(0.01745329252),#753);
#14=SHAPE_REPRESENTATION_RELATIONSHIP('SRR','None',#756,#15);
#15=ADVANCED_BREP_SHAPE_REPRESENTATION($,(#452),#749);
#16=STYLED_ITEM('',(#765),#452);
#17=CYLINDRICAL_SURFACE('',#470,1.75);
#18=CYLINDRICAL_SURFACE('',#474,2.75);
#19=CYLINDRICAL_SURFACE('',#476,2.75);
#20=CYLINDRICAL_SURFACE('',#478,1.75);
#21=CYLINDRICAL_SURFACE('',#480,1.75);
#22=CYLINDRICAL_SURFACE('',#483,2.75);
#23=LINE('',#640,#65);
#24=LINE('',#642,#66);
#25=LINE('',#644,#67);
#26=LINE('',#648,#68);
#27=LINE('',#652,#69);
#28=LINE('',#654,#70);
#29=LINE('',#655,#71);
#30=LINE('',#658,#72);
#31=LINE('',#662,#73);
#32=LINE('',#665,#74);
#33=LINE('',#668,#75);
#34=LINE('',#671,#76);
#35=LINE('',#674,#77);
#36=LINE('',#675,#78);
#37=LINE('',#678,#79);
#38=LINE('',#680,#80);
#39=LINE('',#682,#81);
#40=LINE('',#684,#82);
#41=LINE('',#686,#83);
#42=LINE('',#688,#84);
#43=LINE('',#690,#85);
#44=LINE('',#692,#86);
#45=LINE('',#693,#87);
#46=LINE('',#698,#88);
#47=LINE('',#702,#89);
#48=LINE('',#705,#90);
#49=LINE('',#711,#91);
#50=LINE('',#714,#92);
#51=LINE('',#720,#93);
#52=LINE('',#724,#94);
#53=LINE('',#725,#95);
#54=LINE('',#726,#96);
#55=LINE('',#728,#97);
#56=LINE('',#729,#98);
#57=LINE('',#731,#99);
#58=LINE('',#734,#100);
#59=LINE('',#736,#101);
#60=LINE('',#737,#102);
#61=LINE('',#739,#103);
#62=LINE('',#741,#104);
#63=LINE('',#742,#105);
#64=LINE('',#744,#106);
#65=VECTOR('',#517,17.25);
#66=VECTOR('',#518,1.);
#67=VECTOR('',#519,17.25);
#68=VECTOR('',#522,1.);
#69=VECTOR('',#527,60.);
#70=VECTOR('',#528,1.);
#71=VECTOR('',#529,60.);
#72=VECTOR('',#532,17.25);
#73=VECTOR('',#535,1.00000000000001);
#74=VECTOR('',#538,17.25);
#75=VECTOR('',#541,8.75);
#76=VECTOR('',#544,8.75);
#77=VECTOR('',#547,8.75);
#78=VECTOR('',#548,1.00000000000001);
#79=VECTOR('',#551,8.75);
#80=VECTOR('',#552,2.95000000000001);
#81=VECTOR('',#553,14.5);
#82=VECTOR('',#554,2.95000000000001);
#83=VECTOR('',#555,13.5);
#84=VECTOR('',#556,2.95);
#85=VECTOR('',#557,14.5);
#86=VECTOR('',#558,2.95);
#87=VECTOR('',#559,8.75);
#88=VECTOR('',#566,8.75);
#89=VECTOR('',#571,8.75);
#90=VECTOR('',#574,8.75);
#91=VECTOR('',#579,13.5);
#92=VECTOR('',#582,13.5);
#93=VECTOR('',#589,13.5);
#94=VECTOR('',#592,14.5);
#95=VECTOR('',#593,1.);
#96=VECTOR('',#594,1.);
#97=VECTOR('',#597,2.95);
#98=VECTOR('',#598,1.00000000000001);
#99=VECTOR('',#601,2.95);
#100=VECTOR('',#604,2.95000000000001);
#101=VECTOR('',#605,14.5);
#102=VECTOR('',#606,2.95000000000001);
#103=VECTOR('',#609,0.999999999999997);
#104=VECTOR('',#612,1.);
#105=VECTOR('',#613,1.);
#106=VECTOR('',#616,0.999999999999997);
#107=PLANE('',#463);
#108=PLANE('',#466);
#109=PLANE('',#467);
#110=PLANE('',#472);
#111=PLANE('',#473);
#112=PLANE('',#486);
#113=PLANE('',#487);
#114=PLANE('',#488);
#115=PLANE('',#489);
#116=PLANE('',#490);
#117=PLANE('',#491);
#118=PLANE('',#492);
#119=PLANE('',#493);
#120=PLANE('',#494);
#121=FACE_BOUND('',#154,.T.);
#122=FACE_BOUND('',#156,.T.);
#123=FACE_BOUND('',#158,.T.);
#124=FACE_BOUND('',#164,.T.);
#125=FACE_BOUND('',#165,.T.);
#126=FACE_BOUND('',#166,.T.);
#127=FACE_BOUND('',#167,.T.);
#128=FACE_BOUND('',#176,.T.);
#129=FACE_BOUND('',#177,.T.);
#130=FACE_BOUND('',#178,.T.);
#131=FACE_BOUND('',#179,.T.);
#132=FACE_OUTER_BOUND('',#153,.T.);
#133=FACE_OUTER_BOUND('',#155,.T.);
#134=FACE_OUTER_BOUND('',#157,.T.);
#135=FACE_OUTER_BOUND('',#159,.T.);
#136=FACE_OUTER_BOUND('',#160,.T.);
#137=FACE_OUTER_BOUND('',#161,.T.);
#138=FACE_OUTER_BOUND('',#162,.T.);
#139=FACE_OUTER_BOUND('',#163,.T.);
#140=FACE_OUTER_BOUND('',#168,.T.);
#141=FACE_OUTER_BOUND('',#169,.T.);
#142=FACE_OUTER_BOUND('',#170,.T.);
#143=FACE_OUTER_BOUND('',#171,.T.);
#144=FACE_OUTER_BOUND('',#172,.T.);
#145=FACE_OUTER_BOUND('',#173,.T.);
#146=FACE_OUTER_BOUND('',#174,.T.);
#147=FACE_OUTER_BOUND('',#175,.T.);
#148=FACE_OUTER_BOUND('',#180,.T.);
#149=FACE_OUTER_BOUND('',#181,.T.);
#150=FACE_OUTER_BOUND('',#182,.T.);
#151=FACE_OUTER_BOUND('',#183,.T.);
#152=FACE_OUTER_BOUND('',#184,.T.);
#153=EDGE_LOOP('',(#305));
#154=EDGE_LOOP('',(#306));
#155=EDGE_LOOP('',(#307));
#156=EDGE_LOOP('',(#308));
#157=EDGE_LOOP('',(#309));
#158=EDGE_LOOP('',(#310));
#159=EDGE_LOOP('',(#311,#312,#313,#314,#315,#316));
#160=EDGE_LOOP('',(#317,#318,#319,#320));
#161=EDGE_LOOP('',(#321,#322,#323,#324,#325,#326));
#162=EDGE_LOOP('',(#327,#328,#329,#330));
#163=EDGE_LOOP('',(#331,#332,#333,#334));
#164=EDGE_LOOP('',(#335));
#165=EDGE_LOOP('',(#336));
#166=EDGE_LOOP('',(#337));
#167=EDGE_LOOP('',(#338,#339,#340,#341,#342,#343,#344,#345,#346,#347,#348,
#349));
#168=EDGE_LOOP('',(#350,#351,#352,#353));
#169=EDGE_LOOP('',(#354,#355,#356,#357));
#170=EDGE_LOOP('',(#358,#359,#360,#361));
#171=EDGE_LOOP('',(#362,#363,#364,#365));
#172=EDGE_LOOP('',(#366,#367,#368,#369));
#173=EDGE_LOOP('',(#370,#371,#372,#373));
#174=EDGE_LOOP('',(#374,#375,#376,#377,#378,#379));
#175=EDGE_LOOP('',(#380,#381,#382,#383,#384,#385));
#176=EDGE_LOOP('',(#386));
#177=EDGE_LOOP('',(#387));
#178=EDGE_LOOP('',(#388));
#179=EDGE_LOOP('',(#389,#390,#391,#392,#393,#394,#395,#396,#397,#398,#399,
#400));
#180=EDGE_LOOP('',(#401,#402,#403,#404));
#181=EDGE_LOOP('',(#405,#406,#407,#408));
#182=EDGE_LOOP('',(#409,#410,#411,#412,#413,#414));
#183=EDGE_LOOP('',(#415,#416,#417,#418,#419,#420));
#184=EDGE_LOOP('',(#421,#422,#423,#424));
#185=CIRCLE('',#455,3.);
#186=CIRCLE('',#456,2.);
#187=CIRCLE('',#458,3.);
#188=CIRCLE('',#459,2.);
#189=CIRCLE('',#461,3.);
#190=CIRCLE('',#462,2.);
#191=CIRCLE('',#464,2.75);
#192=CIRCLE('',#465,1.75);
#193=CIRCLE('',#468,1.75);
#194=CIRCLE('',#469,2.75);
#195=CIRCLE('',#471,1.75);
#196=CIRCLE('',#475,2.75);
#197=CIRCLE('',#477,2.75);
#198=CIRCLE('',#479,1.75);
#199=CIRCLE('',#481,1.75);
#200=CIRCLE('',#482,1.75);
#201=CIRCLE('',#484,2.75);
#202=CIRCLE('',#485,2.75);
#203=VERTEX_POINT('',#623);
#204=VERTEX_POINT('',#625);
#205=VERTEX_POINT('',#628);
#206=VERTEX_POINT('',#630);
#207=VERTEX_POINT('',#633);
#208=VERTEX_POINT('',#635);
#209=VERTEX_POINT('',#638);
#210=VERTEX_POINT('',#639);
#211=VERTEX_POINT('',#641);
#212=VERTEX_POINT('',#643);
#213=VERTEX_POINT('',#645);
#214=VERTEX_POINT('',#647);
#215=VERTEX_POINT('',#651);
#216=VERTEX_POINT('',#653);
#217=VERTEX_POINT('',#657);
#218=VERTEX_POINT('',#659);
#219=VERTEX_POINT('',#661);
#220=VERTEX_POINT('',#663);
#221=VERTEX_POINT('',#667);
#222=VERTEX_POINT('',#669);
#223=VERTEX_POINT('',#673);
#224=VERTEX_POINT('',#677);
#225=VERTEX_POINT('',#679);
#226=VERTEX_POINT('',#681);
#227=VERTEX_POINT('',#683);
#228=VERTEX_POINT('',#685);
#229=VERTEX_POINT('',#687);
#230=VERTEX_POINT('',#689);
#231=VERTEX_POINT('',#691);
#232=VERTEX_POINT('',#697);
#233=VERTEX_POINT('',#701);
#234=VERTEX_POINT('',#703);
#235=VERTEX_POINT('',#707);
#236=VERTEX_POINT('',#708);
#237=VERTEX_POINT('',#710);
#238=VERTEX_POINT('',#712);
#239=VERTEX_POINT('',#716);
#240=VERTEX_POINT('',#718);
#241=VERTEX_POINT('',#722);
#242=VERTEX_POINT('',#723);
#243=VERTEX_POINT('',#733);
#244=VERTEX_POINT('',#735);
#245=EDGE_CURVE('',#203,#203,#185,.T.);
#246=EDGE_CURVE('',#204,#204,#186,.T.);
#247=EDGE_CURVE('',#205,#205,#187,.T.);
#248=EDGE_CURVE('',#206,#206,#188,.T.);
#249=EDGE_CURVE('',#207,#207,#189,.T.);
#250=EDGE_CURVE('',#208,#208,#190,.T.);
#251=EDGE_CURVE('',#209,#210,#23,.T.);
#252=EDGE_CURVE('',#209,#211,#24,.T.);
#253=EDGE_CURVE('',#212,#211,#25,.T.);
#254=EDGE_CURVE('',#213,#212,#191,.T.);
#255=EDGE_CURVE('',#214,#213,#26,.T.);
#256=EDGE_CURVE('',#210,#214,#192,.T.);
#257=EDGE_CURVE('',#215,#209,#27,.T.);
#258=EDGE_CURVE('',#216,#215,#28,.T.);
#259=EDGE_CURVE('',#211,#216,#29,.T.);
#260=EDGE_CURVE('',#217,#215,#30,.T.);
#261=EDGE_CURVE('',#218,#217,#193,.T.);
#262=EDGE_CURVE('',#219,#218,#31,.T.);
#263=EDGE_CURVE('',#220,#219,#194,.T.);
#264=EDGE_CURVE('',#216,#220,#32,.T.);
#265=EDGE_CURVE('',#214,#221,#33,.T.);
#266=EDGE_CURVE('',#221,#222,#195,.T.);
#267=EDGE_CURVE('',#210,#222,#34,.T.);
#268=EDGE_CURVE('',#213,#223,#35,.T.);
#269=EDGE_CURVE('',#223,#221,#36,.T.);
#270=EDGE_CURVE('',#224,#220,#37,.T.);
#271=EDGE_CURVE('',#224,#225,#38,.T.);
#272=EDGE_CURVE('',#225,#226,#39,.T.);
#273=EDGE_CURVE('',#226,#227,#40,.T.);
#274=EDGE_CURVE('',#228,#227,#41,.T.);
#275=EDGE_CURVE('',#228,#229,#42,.T.);
#276=EDGE_CURVE('',#229,#230,#43,.T.);
#277=EDGE_CURVE('',#230,#231,#44,.T.);
#278=EDGE_CURVE('',#212,#231,#45,.T.);
#279=EDGE_CURVE('',#231,#223,#196,.T.);
#280=EDGE_CURVE('',#232,#219,#46,.T.);
#281=EDGE_CURVE('',#232,#224,#197,.T.);
#282=EDGE_CURVE('',#233,#217,#47,.T.);
#283=EDGE_CURVE('',#233,#234,#198,.T.);
#284=EDGE_CURVE('',#234,#218,#48,.T.);
#285=EDGE_CURVE('',#235,#236,#199,.T.);
#286=EDGE_CURVE('',#236,#237,#49,.T.);
#287=EDGE_CURVE('',#237,#238,#200,.T.);
#288=EDGE_CURVE('',#235,#238,#50,.T.);
#289=EDGE_CURVE('',#239,#228,#201,.T.);
#290=EDGE_CURVE('',#227,#240,#202,.T.);
#291=EDGE_CURVE('',#239,#240,#51,.T.);
#292=EDGE_CURVE('',#241,#242,#52,.T.);
#293=EDGE_CURVE('',#241,#230,#53,.T.);
#294=EDGE_CURVE('',#229,#242,#54,.T.);
#295=EDGE_CURVE('',#242,#235,#55,.T.);
#296=EDGE_CURVE('',#236,#239,#56,.T.);
#297=EDGE_CURVE('',#222,#241,#57,.T.);
#298=EDGE_CURVE('',#238,#243,#58,.T.);
#299=EDGE_CURVE('',#243,#244,#59,.T.);
#300=EDGE_CURVE('',#244,#233,#60,.T.);
#301=EDGE_CURVE('',#240,#237,#61,.T.);
#302=EDGE_CURVE('',#243,#226,#62,.T.);
#303=EDGE_CURVE('',#225,#244,#63,.T.);
#304=EDGE_CURVE('',#234,#232,#64,.T.);
#305=ORIENTED_EDGE('',*,*,#245,.F.);
#306=ORIENTED_EDGE('',*,*,#246,.F.);
#307=ORIENTED_EDGE('',*,*,#247,.F.);
#308=ORIENTED_EDGE('',*,*,#248,.F.);
#309=ORIENTED_EDGE('',*,*,#249,.F.);
#310=ORIENTED_EDGE('',*,*,#250,.F.);
#311=ORIENTED_EDGE('',*,*,#251,.F.);
#312=ORIENTED_EDGE('',*,*,#252,.T.);
#313=ORIENTED_EDGE('',*,*,#253,.F.);
#314=ORIENTED_EDGE('',*,*,#254,.F.);
#315=ORIENTED_EDGE('',*,*,#255,.F.);
#316=ORIENTED_EDGE('',*,*,#256,.F.);
#317=ORIENTED_EDGE('',*,*,#257,.F.);
#318=ORIENTED_EDGE('',*,*,#258,.F.);
#319=ORIENTED_EDGE('',*,*,#259,.F.);
#320=ORIENTED_EDGE('',*,*,#252,.F.);
#321=ORIENTED_EDGE('',*,*,#260,.F.);
#322=ORIENTED_EDGE('',*,*,#261,.F.);
#323=ORIENTED_EDGE('',*,*,#262,.F.);
#324=ORIENTED_EDGE('',*,*,#263,.F.);
#325=ORIENTED_EDGE('',*,*,#264,.F.);
#326=ORIENTED_EDGE('',*,*,#258,.T.);
#327=ORIENTED_EDGE('',*,*,#256,.T.);
#328=ORIENTED_EDGE('',*,*,#265,.T.);
#329=ORIENTED_EDGE('',*,*,#266,.T.);
#330=ORIENTED_EDGE('',*,*,#267,.F.);
#331=ORIENTED_EDGE('',*,*,#255,.T.);
#332=ORIENTED_EDGE('',*,*,#268,.T.);
#333=ORIENTED_EDGE('',*,*,#269,.T.);
#334=ORIENTED_EDGE('',*,*,#265,.F.);
#335=ORIENTED_EDGE('',*,*,#246,.T.);
#336=ORIENTED_EDGE('',*,*,#248,.T.);
#337=ORIENTED_EDGE('',*,*,#250,.T.);
#338=ORIENTED_EDGE('',*,*,#253,.T.);
#339=ORIENTED_EDGE('',*,*,#259,.T.);
#340=ORIENTED_EDGE('',*,*,#264,.T.);
#341=ORIENTED_EDGE('',*,*,#270,.F.);
#342=ORIENTED_EDGE('',*,*,#271,.T.);
#343=ORIENTED_EDGE('',*,*,#272,.T.);
#344=ORIENTED_EDGE('',*,*,#273,.T.);
#345=ORIENTED_EDGE('',*,*,#274,.F.);
#346=ORIENTED_EDGE('',*,*,#275,.T.);
#347=ORIENTED_EDGE('',*,*,#276,.T.);
#348=ORIENTED_EDGE('',*,*,#277,.T.);
#349=ORIENTED_EDGE('',*,*,#278,.F.);
#350=ORIENTED_EDGE('',*,*,#254,.T.);
#351=ORIENTED_EDGE('',*,*,#278,.T.);
#352=ORIENTED_EDGE('',*,*,#279,.T.);
#353=ORIENTED_EDGE('',*,*,#268,.F.);
#354=ORIENTED_EDGE('',*,*,#263,.T.);
#355=ORIENTED_EDGE('',*,*,#280,.F.);
#356=ORIENTED_EDGE('',*,*,#281,.T.);
#357=ORIENTED_EDGE('',*,*,#270,.T.);
#358=ORIENTED_EDGE('',*,*,#261,.T.);
#359=ORIENTED_EDGE('',*,*,#282,.F.);
#360=ORIENTED_EDGE('',*,*,#283,.T.);
#361=ORIENTED_EDGE('',*,*,#284,.T.);
#362=ORIENTED_EDGE('',*,*,#285,.T.);
#363=ORIENTED_EDGE('',*,*,#286,.T.);
#364=ORIENTED_EDGE('',*,*,#287,.T.);
#365=ORIENTED_EDGE('',*,*,#288,.F.);
#366=ORIENTED_EDGE('',*,*,#289,.T.);
#367=ORIENTED_EDGE('',*,*,#274,.T.);
#368=ORIENTED_EDGE('',*,*,#290,.T.);
#369=ORIENTED_EDGE('',*,*,#291,.F.);
#370=ORIENTED_EDGE('',*,*,#292,.F.);
#371=ORIENTED_EDGE('',*,*,#293,.T.);
#372=ORIENTED_EDGE('',*,*,#276,.F.);
#373=ORIENTED_EDGE('',*,*,#294,.T.);
#374=ORIENTED_EDGE('',*,*,#295,.F.);
#375=ORIENTED_EDGE('',*,*,#294,.F.);
#376=ORIENTED_EDGE('',*,*,#275,.F.);
#377=ORIENTED_EDGE('',*,*,#289,.F.);
#378=ORIENTED_EDGE('',*,*,#296,.F.);
#379=ORIENTED_EDGE('',*,*,#285,.F.);
#380=ORIENTED_EDGE('',*,*,#297,.F.);
#381=ORIENTED_EDGE('',*,*,#266,.F.);
#382=ORIENTED_EDGE('',*,*,#269,.F.);
#383=ORIENTED_EDGE('',*,*,#279,.F.);
#384=ORIENTED_EDGE('',*,*,#277,.F.);
#385=ORIENTED_EDGE('',*,*,#293,.F.);
#386=ORIENTED_EDGE('',*,*,#245,.T.);
#387=ORIENTED_EDGE('',*,*,#247,.T.);
#388=ORIENTED_EDGE('',*,*,#249,.T.);
#389=ORIENTED_EDGE('',*,*,#251,.T.);
#390=ORIENTED_EDGE('',*,*,#267,.T.);
#391=ORIENTED_EDGE('',*,*,#297,.T.);
#392=ORIENTED_EDGE('',*,*,#292,.T.);
#393=ORIENTED_EDGE('',*,*,#295,.T.);
#394=ORIENTED_EDGE('',*,*,#288,.T.);
#395=ORIENTED_EDGE('',*,*,#298,.T.);
#396=ORIENTED_EDGE('',*,*,#299,.T.);
#397=ORIENTED_EDGE('',*,*,#300,.T.);
#398=ORIENTED_EDGE('',*,*,#282,.T.);
#399=ORIENTED_EDGE('',*,*,#260,.T.);
#400=ORIENTED_EDGE('',*,*,#257,.T.);
#401=ORIENTED_EDGE('',*,*,#296,.T.);
#402=ORIENTED_EDGE('',*,*,#291,.T.);
#403=ORIENTED_EDGE('',*,*,#301,.T.);
#404=ORIENTED_EDGE('',*,*,#286,.F.);
#405=ORIENTED_EDGE('',*,*,#299,.F.);
#406=ORIENTED_EDGE('',*,*,#302,.T.);
#407=ORIENTED_EDGE('',*,*,#272,.F.);
#408=ORIENTED_EDGE('',*,*,#303,.T.);
#409=ORIENTED_EDGE('',*,*,#300,.F.);
#410=ORIENTED_EDGE('',*,*,#303,.F.);
#411=ORIENTED_EDGE('',*,*,#271,.F.);
#412=ORIENTED_EDGE('',*,*,#281,.F.);
#413=ORIENTED_EDGE('',*,*,#304,.F.);
#414=ORIENTED_EDGE('',*,*,#283,.F.);
#415=ORIENTED_EDGE('',*,*,#298,.F.);
#416=ORIENTED_EDGE('',*,*,#287,.F.);
#417=ORIENTED_EDGE('',*,*,#301,.F.);
#418=ORIENTED_EDGE('',*,*,#290,.F.);
#419=ORIENTED_EDGE('',*,*,#273,.F.);
#420=ORIENTED_EDGE('',*,*,#302,.F.);
#421=ORIENTED_EDGE('',*,*,#262,.T.);
#422=ORIENTED_EDGE('',*,*,#284,.F.);
#423=ORIENTED_EDGE('',*,*,#304,.T.);
#424=ORIENTED_EDGE('',*,*,#280,.T.);
#425=CONICAL_SURFACE('',#454,2.5,0.785398163397448);
#426=CONICAL_SURFACE('',#457,2.5,0.785398163397448);
#427=CONICAL_SURFACE('',#460,2.5,0.785398163397448);
#428=ADVANCED_FACE('',(#132,#121),#425,.F.);
#429=ADVANCED_FACE('',(#133,#122),#426,.F.);
#430=ADVANCED_FACE('',(#134,#123),#427,.F.);
#431=ADVANCED_FACE('',(#135),#107,.T.);
#432=ADVANCED_FACE('',(#136),#108,.T.);
#433=ADVANCED_FACE('',(#137),#109,.T.);
#434=ADVANCED_FACE('',(#138),#17,.F.);
#435=ADVANCED_FACE('',(#139),#110,.T.);
#436=ADVANCED_FACE('',(#124,#125,#126,#127),#111,.T.);
#437=ADVANCED_FACE('',(#140),#18,.T.);
#438=ADVANCED_FACE('',(#141),#19,.T.);
#439=ADVANCED_FACE('',(#142),#20,.F.);
#440=ADVANCED_FACE('',(#143),#21,.F.);
#441=ADVANCED_FACE('',(#144),#22,.T.);
#442=ADVANCED_FACE('',(#145),#112,.T.);
#443=ADVANCED_FACE('',(#146),#113,.T.);
#444=ADVANCED_FACE('',(#147),#114,.F.);
#445=ADVANCED_FACE('',(#128,#129,#130,#131),#115,.T.);
#446=ADVANCED_FACE('',(#148),#116,.T.);
#447=ADVANCED_FACE('',(#149),#117,.T.);
#448=ADVANCED_FACE('',(#150),#118,.T.);
#449=ADVANCED_FACE('',(#151),#119,.F.);
#450=ADVANCED_FACE('',(#152),#120,.T.);
#451=CLOSED_SHELL('',(#428,#429,#430,#431,#432,#433,#434,#435,#436,#437,
#438,#439,#440,#441,#442,#443,#444,#445,#446,#447,#448,#449,#450));
#452=MANIFOLD_SOLID_BREP('50-7-3553_2',#451);
#453=AXIS2_PLACEMENT_3D('placement',#621,#495,#496);
#454=AXIS2_PLACEMENT_3D('',#622,#497,#498);
#455=AXIS2_PLACEMENT_3D('',#624,#499,#500);
#456=AXIS2_PLACEMENT_3D('',#626,#501,#502);
#457=AXIS2_PLACEMENT_3D('',#627,#503,#504);
#458=AXIS2_PLACEMENT_3D('',#629,#505,#506);
#459=AXIS2_PLACEMENT_3D('',#631,#507,#508);
#460=AXIS2_PLACEMENT_3D('',#632,#509,#510);
#461=AXIS2_PLACEMENT_3D('',#634,#511,#512);
#462=AXIS2_PLACEMENT_3D('',#636,#513,#514);
#463=AXIS2_PLACEMENT_3D('',#637,#515,#516);
#464=AXIS2_PLACEMENT_3D('',#646,#520,#521);
#465=AXIS2_PLACEMENT_3D('',#649,#523,#524);
#466=AXIS2_PLACEMENT_3D('',#650,#525,#526);
#467=AXIS2_PLACEMENT_3D('',#656,#530,#531);
#468=AXIS2_PLACEMENT_3D('',#660,#533,#534);
#469=AXIS2_PLACEMENT_3D('',#664,#536,#537);
#470=AXIS2_PLACEMENT_3D('',#666,#539,#540);
#471=AXIS2_PLACEMENT_3D('',#670,#542,#543);
#472=AXIS2_PLACEMENT_3D('',#672,#545,#546);
#473=AXIS2_PLACEMENT_3D('',#676,#549,#550);
#474=AXIS2_PLACEMENT_3D('',#694,#560,#561);
#475=AXIS2_PLACEMENT_3D('',#695,#562,#563);
#476=AXIS2_PLACEMENT_3D('',#696,#564,#565);
#477=AXIS2_PLACEMENT_3D('',#699,#567,#568);
#478=AXIS2_PLACEMENT_3D('',#700,#569,#570);
#479=AXIS2_PLACEMENT_3D('',#704,#572,#573);
#480=AXIS2_PLACEMENT_3D('',#706,#575,#576);
#481=AXIS2_PLACEMENT_3D('',#709,#577,#578);
#482=AXIS2_PLACEMENT_3D('',#713,#580,#581);
#483=AXIS2_PLACEMENT_3D('',#715,#583,#584);
#484=AXIS2_PLACEMENT_3D('',#717,#585,#586);
#485=AXIS2_PLACEMENT_3D('',#719,#587,#588);
#486=AXIS2_PLACEMENT_3D('',#721,#590,#591);
#487=AXIS2_PLACEMENT_3D('',#727,#595,#596);
#488=AXIS2_PLACEMENT_3D('',#730,#599,#600);
#489=AXIS2_PLACEMENT_3D('',#732,#602,#603);
#490=AXIS2_PLACEMENT_3D('',#738,#607,#608);
#491=AXIS2_PLACEMENT_3D('',#740,#610,#611);
#492=AXIS2_PLACEMENT_3D('',#743,#614,#615);
#493=AXIS2_PLACEMENT_3D('',#745,#617,#618);
#494=AXIS2_PLACEMENT_3D('',#746,#619,#620);
#495=DIRECTION('axis',(0.,0.,1.));
#496=DIRECTION('refdir',(1.,0.,0.));
#497=DIRECTION('center_axis',(0.,1.,6.12303176911189E-017));
#498=DIRECTION('ref_axis',(1.,0.,0.));
#499=DIRECTION('center_axis',(0.,-1.,-6.12303176911189E-017));
#500=DIRECTION('ref_axis',(1.,0.,0.));
#501=DIRECTION('center_axis',(0.,1.,6.12303176911189E-017));
#502=DIRECTION('ref_axis',(1.,0.,0.));
#503=DIRECTION('center_axis',(0.,1.,6.12303176911189E-017));
#504=DIRECTION('ref_axis',(1.,0.,0.));
#505=DIRECTION('center_axis',(0.,-1.,-6.12303176911189E-017));
#506=DIRECTION('ref_axis',(1.,0.,0.));
#507=DIRECTION('center_axis',(0.,1.,6.12303176911189E-017));
#508=DIRECTION('ref_axis',(1.,0.,0.));
#509=DIRECTION('center_axis',(0.,1.,6.12303176911189E-017));
#510=DIRECTION('ref_axis',(1.,0.,0.));
#511=DIRECTION('center_axis',(0.,-1.,-6.12303176911189E-017));
#512=DIRECTION('ref_axis',(1.,0.,0.));
#513=DIRECTION('center_axis',(0.,1.,6.12303176911189E-017));
#514=DIRECTION('ref_axis',(1.,0.,0.));
#515=DIRECTION('center_axis',(1.,0.,0.));
#516=DIRECTION('ref_axis',(0.,0.,-1.));
#517=DIRECTION('',(0.,6.12303176911189E-017,-1.));
#518=DIRECTION('',(0.,-1.,0.));
#519=DIRECTION('',(0.,-6.12303176911189E-017,1.));
#520=DIRECTION('center_axis',(-1.,0.,0.));
#521=DIRECTION('ref_axis',(-1.22460635382238E-016,-6.12303176911189E-017,
1.));
#522=DIRECTION('',(0.,-0.484809620246337,0.874619707139396));
#523=DIRECTION('center_axis',(1.,0.,0.));
#524=DIRECTION('ref_axis',(-1.22460635382238E-016,-6.12303176911189E-017,
1.));
#525=DIRECTION('center_axis',(0.,0.,1.));
#526=DIRECTION('ref_axis',(1.,0.,0.));
#527=DIRECTION('',(1.,0.,0.));
#528=DIRECTION('',(0.,1.,0.));
#529=DIRECTION('',(-1.,0.,0.));
#530=DIRECTION('center_axis',(-1.,0.,0.));
#531=DIRECTION('ref_axis',(0.,0.,1.));
#532=DIRECTION('',(0.,-6.12303176911189E-017,1.));
#533=DIRECTION('center_axis',(-1.,0.,0.));
#534=DIRECTION('ref_axis',(-1.22460635382238E-016,-6.12303176911189E-017,
1.));
#535=DIRECTION('',(0.,0.484809620246337,-0.874619707139396));
#536=DIRECTION('center_axis',(1.,0.,0.));
#537=DIRECTION('ref_axis',(-1.22460635382238E-016,-6.12303176911189E-017,
1.));
#538=DIRECTION('',(0.,6.12303176911189E-017,-1.));
#539=DIRECTION('center_axis',(-1.,1.23259516440783E-032,-1.22460635382238E-016));
#540=DIRECTION('ref_axis',(-1.22460635382238E-016,-6.12303176911189E-017,
1.));
#541=DIRECTION('',(-1.,1.23259516440783E-032,-1.22460635382238E-016));
#542=DIRECTION('center_axis',(-1.,-2.29561756065155E-049,-1.40561392536006E-065));
#543=DIRECTION('ref_axis',(-1.89759562978149E-080,-6.12303176911189E-017,
1.));
#544=DIRECTION('',(-1.,1.23259516440783E-032,-1.22460635382238E-016));
#545=DIRECTION('center_axis',(5.93700941347878E-017,-0.874619707139396,
-0.484809620246337));
#546=DIRECTION('ref_axis',(0.,-0.484809620246337,0.874619707139396));
#547=DIRECTION('',(-1.,1.23259516440783E-032,-1.22460635382238E-016));
#548=DIRECTION('',(6.16297582203915E-033,0.484809620246337,-0.874619707139396));
#549=DIRECTION('center_axis',(0.,-1.,-6.12303176911189E-017));
#550=DIRECTION('ref_axis',(0.,0.,1.));
#551=DIRECTION('',(-1.,1.23259516440783E-032,-1.22460635382238E-016));
#552=DIRECTION('',(-3.74915180455534E-033,-6.12303176911189E-017,1.));
#553=DIRECTION('',(1.,0.,3.74915180455534E-033));
#554=DIRECTION('',(3.74915180455534E-033,6.12303176911189E-017,-1.));
#555=DIRECTION('',(-1.,1.23259516440783E-032,-1.22460635382238E-016));
#556=DIRECTION('',(-3.74915180455534E-033,-6.12303176911189E-017,1.));
#557=DIRECTION('',(1.,0.,3.74915180455534E-033));
#558=DIRECTION('',(3.74915180455534E-033,6.12303176911189E-017,-1.));
#559=DIRECTION('',(-1.,1.23259516440783E-032,-1.22460635382238E-016));
#560=DIRECTION('center_axis',(-1.,1.23259516440783E-032,-1.22460635382238E-016));
#561=DIRECTION('ref_axis',(-1.22460635382238E-016,-6.12303176911189E-017,
1.));
#562=DIRECTION('center_axis',(1.,2.29561756065155E-049,1.40561392536006E-065));
#563=DIRECTION('ref_axis',(-1.89759562978149E-080,-6.12303176911189E-017,
1.));
#564=DIRECTION('center_axis',(-1.,1.23259516440783E-032,-1.22460635382238E-016));
#565=DIRECTION('ref_axis',(-1.22460635382238E-016,-6.12303176911189E-017,
1.));
#566=DIRECTION('',(-1.,1.23259516440783E-032,-1.22460635382238E-016));
#567=DIRECTION('center_axis',(-1.,-2.29561756065155E-049,-1.40561392536006E-065));
#568=DIRECTION('ref_axis',(-1.89759562978149E-080,-6.12303176911189E-017,
1.));
#569=DIRECTION('center_axis',(-1.,1.23259516440783E-032,-1.22460635382238E-016));
#570=DIRECTION('ref_axis',(-1.22460635382238E-016,-6.12303176911189E-017,
1.));
#571=DIRECTION('',(-1.,1.23259516440783E-032,-1.22460635382238E-016));
#572=DIRECTION('center_axis',(1.,2.29561756065155E-049,1.40561392536006E-065));
#573=DIRECTION('ref_axis',(-1.89759562978149E-080,-6.12303176911189E-017,
1.));
#574=DIRECTION('',(-1.,1.23259516440783E-032,-1.22460635382238E-016));
#575=DIRECTION('center_axis',(-1.,1.23259516440783E-032,-1.22460635382238E-016));
#576=DIRECTION('ref_axis',(-1.22460635382238E-016,-6.12303176911189E-017,
1.));
#577=DIRECTION('center_axis',(1.,2.29561756065155E-049,1.40561392536006E-065));
#578=DIRECTION('ref_axis',(-1.89759562978149E-080,-6.12303176911189E-017,
1.));
#579=DIRECTION('',(-1.,1.23259516440783E-032,-1.22460635382238E-016));
#580=DIRECTION('center_axis',(-1.,-2.29561756065155E-049,-1.40561392536006E-065));
#581=DIRECTION('ref_axis',(-1.89759562978149E-080,-6.12303176911189E-017,
1.));
#582=DIRECTION('',(-1.,1.23259516440783E-032,-1.22460635382238E-016));
#583=DIRECTION('center_axis',(-1.,1.23259516440783E-032,-1.22460635382238E-016));
#584=DIRECTION('ref_axis',(-1.22460635382238E-016,-6.12303176911189E-017,
1.));
#585=DIRECTION('center_axis',(-1.,-2.29561756065155E-049,-1.40561392536006E-065));
#586=DIRECTION('ref_axis',(-1.89759562978149E-080,-6.12303176911189E-017,
1.));
#587=DIRECTION('center_axis',(1.,2.29561756065155E-049,1.40561392536006E-065));
#588=DIRECTION('ref_axis',(-1.89759562978149E-080,-6.12303176911189E-017,
1.));
#589=DIRECTION('',(-1.,1.23259516440783E-032,-1.22460635382238E-016));
#590=DIRECTION('center_axis',(3.74915180455534E-033,6.12303176911189E-017,
-1.));
#591=DIRECTION('ref_axis',(-1.,0.,0.));
#592=DIRECTION('',(-1.,0.,-3.74915180455534E-033));
#593=DIRECTION('',(0.,-1.,-6.12303176911189E-017));
#594=DIRECTION('',(0.,1.,6.12303176911189E-017));
#595=DIRECTION('center_axis',(1.,0.,3.74915180455534E-033));
#596=DIRECTION('ref_axis',(0.,6.12303176911189E-017,-1.));
#597=DIRECTION('',(3.74915180455534E-033,6.12303176911189E-017,-1.));
#598=DIRECTION('',(-6.16297582203915E-033,-0.484809620246337,0.874619707139396));
#599=DIRECTION('center_axis',(1.,0.,3.74915180455534E-033));
#600=DIRECTION('ref_axis',(0.,6.12303176911189E-017,-1.));
#601=DIRECTION('',(-3.74915180455534E-033,-6.12303176911189E-017,1.));
#602=DIRECTION('center_axis',(0.,1.,6.12303176911189E-017));
#603=DIRECTION('ref_axis',(0.,0.,-1.));
#604=DIRECTION('',(-3.74915180455534E-033,-6.12303176911189E-017,1.));
#605=DIRECTION('',(-1.,0.,-3.74915180455534E-033));
#606=DIRECTION('',(3.74915180455534E-033,6.12303176911189E-017,-1.));
#607=DIRECTION('center_axis',(5.93700941347878E-017,-0.874619707139396,
-0.484809620246337));
#608=DIRECTION('ref_axis',(0.,-0.484809620246337,0.874619707139396));
#609=DIRECTION('',(6.16297582203915E-033,0.484809620246337,-0.874619707139396));
#610=DIRECTION('center_axis',(3.74915180455534E-033,6.12303176911189E-017,
-1.));
#611=DIRECTION('ref_axis',(-1.,0.,0.));
#612=DIRECTION('',(0.,-1.,-6.12303176911189E-017));
#613=DIRECTION('',(0.,1.,6.12303176911189E-017));
#614=DIRECTION('center_axis',(1.,0.,3.74915180455534E-033));
#615=DIRECTION('ref_axis',(0.,6.12303176911189E-017,-1.));
#616=DIRECTION('',(-6.16297582203915E-033,-0.484809620246337,0.874619707139396));
#617=DIRECTION('center_axis',(1.,0.,3.74915180455534E-033));
#618=DIRECTION('ref_axis',(0.,6.12303176911189E-017,-1.));
#619=DIRECTION('center_axis',(5.93700941347878E-017,-0.874619707139396,
-0.484809620246337));
#620=DIRECTION('ref_axis',(0.,-0.484809620246337,0.874619707139396));
#621=CARTESIAN_POINT('',(0.,0.,0.));
#622=CARTESIAN_POINT('Origin',(35.,-2.25,9.75));
#623=CARTESIAN_POINT('',(38.,-1.75,9.75));
#624=CARTESIAN_POINT('Origin',(35.,-1.75,9.75));
#625=CARTESIAN_POINT('',(37.,-2.75,9.75));
#626=CARTESIAN_POINT('Origin',(35.,-2.75,9.75));
#627=CARTESIAN_POINT('Origin',(14.,-2.25,9.75));
#628=CARTESIAN_POINT('',(17.,-1.75,9.75));
#629=CARTESIAN_POINT('Origin',(14.,-1.75,9.75));
#630=CARTESIAN_POINT('',(16.,-2.75,9.75));
#631=CARTESIAN_POINT('Origin',(14.,-2.75,9.75));
#632=CARTESIAN_POINT('Origin',(56.,-2.25,9.75));
#633=CARTESIAN_POINT('',(59.,-1.75,9.75));
#634=CARTESIAN_POINT('Origin',(56.,-1.75,9.75));
#635=CARTESIAN_POINT('',(58.,-2.75,9.75));
#636=CARTESIAN_POINT('Origin',(56.,-2.75,9.75));
#637=CARTESIAN_POINT('Origin',(65.,0.,17.25));
#638=CARTESIAN_POINT('',(65.,-1.75,17.25));
#639=CARTESIAN_POINT('',(65.,-1.75,-1.01064662790024E-015));
#640=CARTESIAN_POINT('',(65.,-1.75,13.8125));
#641=CARTESIAN_POINT('',(65.,-2.75,17.25));
#642=CARTESIAN_POINT('',(65.,0.,17.25));
#643=CARTESIAN_POINT('',(65.,-2.75,-1.25556789866471E-015));
#644=CARTESIAN_POINT('',(65.,-2.75,13.8125));
#645=CARTESIAN_POINT('',(65.,-1.33322645567743,2.40520419463334));
#646=CARTESIAN_POINT('Origin',(65.,-5.13861793326371E-017,-5.82034404062407E-016));
#647=CARTESIAN_POINT('',(65.,-0.848416835431089,1.53058448749394));
#648=CARTESIAN_POINT('',(65.,-4.20261823745172,7.58172399753752));
#649=CARTESIAN_POINT('Origin',(65.,-5.13861793326371E-017,-5.82034404062407E-016));
#650=CARTESIAN_POINT('Origin',(5.,0.,17.25));
#651=CARTESIAN_POINT('',(5.,-1.75,17.25));
#652=CARTESIAN_POINT('',(37.5,-1.75,17.25));
#653=CARTESIAN_POINT('',(5.,-2.75,17.25));
#654=CARTESIAN_POINT('',(5.,0.,17.25));
#655=CARTESIAN_POINT('',(37.5,-2.75,17.25));
#656=CARTESIAN_POINT('Origin',(5.,0.,-2.75000000000001));
#657=CARTESIAN_POINT('',(5.,-1.75,-8.35828475083452E-015));
#658=CARTESIAN_POINT('',(5.,-1.75,3.8125));
#659=CARTESIAN_POINT('',(5.,-0.848416835431089,1.53058448749393));
#660=CARTESIAN_POINT('Origin',(5.,-5.13861793326364E-017,-7.92967252699669E-015));
#661=CARTESIAN_POINT('',(5.,-1.33322645567743,2.40520419463333));
#662=CARTESIAN_POINT('',(5.,0.0376222433304106,-0.0678723236285147));
#663=CARTESIAN_POINT('',(5.,-2.75,-8.60320602159899E-015));
#664=CARTESIAN_POINT('Origin',(5.,-5.13861793326364E-017,-7.92967252699669E-015));
#665=CARTESIAN_POINT('',(5.,-2.75,3.8125));
#666=CARTESIAN_POINT('Origin',(70.,-5.13861793326372E-017,3.0268772848783E-017));
#667=CARTESIAN_POINT('',(56.25,-0.848416835431089,1.53058448749394));
#668=CARTESIAN_POINT('',(70.,-0.848416835431089,1.53058448749394));
#669=CARTESIAN_POINT('',(56.25,-1.75,-2.08217718749482E-015));
#670=CARTESIAN_POINT('Origin',(56.25,-5.13861793326372E-017,-1.65356496365699E-015));
#671=CARTESIAN_POINT('',(70.,-1.75,-3.98343450989049E-016));
#672=CARTESIAN_POINT('Origin',(70.,-1.09082164555426,1.96789434106364));
#673=CARTESIAN_POINT('',(56.25,-1.33322645567743,2.40520419463334));
#674=CARTESIAN_POINT('',(70.,-1.33322645567743,2.40520419463334));
#675=CARTESIAN_POINT('',(56.25,-0.566612025181041,1.02219515213765));
#676=CARTESIAN_POINT('Origin',(70.,-2.75,10.375));
#677=CARTESIAN_POINT('',(13.75,-2.75,-7.02652534105267E-015));
#678=CARTESIAN_POINT('',(70.,-2.75,-6.43264721753524E-016));
#679=CARTESIAN_POINT('',(13.75,-2.75,2.95));
#680=CARTESIAN_POINT('',(13.75,-2.75,5.2375));
#681=CARTESIAN_POINT('',(28.25,-2.75,2.95));
#682=CARTESIAN_POINT('',(45.5,-2.75,2.95));
#683=CARTESIAN_POINT('',(28.25,-2.75,-5.25084612801022E-015));
#684=CARTESIAN_POINT('',(28.25,-2.75,5.2375));
#685=CARTESIAN_POINT('',(41.75,-2.75,-3.59762755035001E-015));
#686=CARTESIAN_POINT('',(70.,-2.75,-6.43264721753524E-016));
#687=CARTESIAN_POINT('',(41.75,-2.75,2.95));
#688=CARTESIAN_POINT('',(41.75,-2.75,5.2375));
#689=CARTESIAN_POINT('',(56.25,-2.75,2.95));
#690=CARTESIAN_POINT('',(59.5,-2.75,2.95));
#691=CARTESIAN_POINT('',(56.25,-2.75,-1.82194833730756E-015));
#692=CARTESIAN_POINT('',(56.25,-2.75,5.2375));
#693=CARTESIAN_POINT('',(70.,-2.75,-6.43264721753524E-016));
#694=CARTESIAN_POINT('Origin',(70.,-5.13861793326372E-017,3.0268772848783E-017));
#695=CARTESIAN_POINT('Origin',(56.25,-5.13861793326372E-017,-1.65356496365699E-015));
#696=CARTESIAN_POINT('Origin',(70.,-5.13861793326372E-017,3.0268772848783E-017));
#697=CARTESIAN_POINT('',(13.75,-1.33322645567743,2.40520419463333));
#698=CARTESIAN_POINT('',(70.,-1.33322645567743,2.40520419463334));
#699=CARTESIAN_POINT('Origin',(13.75,-5.1386179332637E-017,-6.85814196740209E-015));
#700=CARTESIAN_POINT('Origin',(70.,-5.13861793326372E-017,3.0268772848783E-017));
#701=CARTESIAN_POINT('',(13.75,-1.75,-7.28675419123992E-015));
#702=CARTESIAN_POINT('',(70.,-1.75,-3.98343450989049E-016));
#703=CARTESIAN_POINT('',(13.75,-0.848416835431089,1.53058448749394));
#704=CARTESIAN_POINT('Origin',(13.75,-5.1386179332637E-017,-6.85814196740209E-015));
#705=CARTESIAN_POINT('',(70.,-0.848416835431089,1.53058448749394));
#706=CARTESIAN_POINT('Origin',(70.,-5.13861793326372E-017,3.0268772848783E-017));
#707=CARTESIAN_POINT('',(41.75,-1.75,-3.85785640053727E-015));
#708=CARTESIAN_POINT('',(41.75,-0.848416835431089,1.53058448749394));
#709=CARTESIAN_POINT('Origin',(41.75,-5.13861793326368E-017,-3.42924417669943E-015));
#710=CARTESIAN_POINT('',(28.25,-0.848416835431089,1.53058448749394));
#711=CARTESIAN_POINT('',(70.,-0.848416835431089,1.53058448749394));
#712=CARTESIAN_POINT('',(28.25,-1.75,-5.51107497819747E-015));
#713=CARTESIAN_POINT('Origin',(28.25,-5.1386179332637E-017,-5.08246275435964E-015));
#714=CARTESIAN_POINT('',(70.,-1.75,-3.98343450989049E-016));
#715=CARTESIAN_POINT('Origin',(70.,-5.13861793326372E-017,3.0268772848783E-017));
#716=CARTESIAN_POINT('',(41.75,-1.33322645567743,2.40520419463334));
#717=CARTESIAN_POINT('Origin',(41.75,-5.13861793326368E-017,-3.42924417669943E-015));
#718=CARTESIAN_POINT('',(28.25,-1.33322645567743,2.40520419463333));
#719=CARTESIAN_POINT('Origin',(28.25,-5.1386179332637E-017,-5.08246275435964E-015));
#720=CARTESIAN_POINT('',(70.,-1.33322645567743,2.40520419463334));
#721=CARTESIAN_POINT('Origin',(49.,-1.80629437188801E-016,2.95));
#722=CARTESIAN_POINT('',(56.25,-1.75,2.95));
#723=CARTESIAN_POINT('',(41.75,-1.75,2.95));
#724=CARTESIAN_POINT('',(59.5,-1.75,2.95));
#725=CARTESIAN_POINT('',(56.25,-1.80629437188801E-016,2.95));
#726=CARTESIAN_POINT('',(41.75,-1.80629437188801E-016,2.95));
#727=CARTESIAN_POINT('Origin',(41.75,-6.12303176911173E-018,0.1));
#728=CARTESIAN_POINT('',(41.75,-1.75,5.2375));
#729=CARTESIAN_POINT('',(41.75,-0.566612025181041,1.02219515213765));
#730=CARTESIAN_POINT('Origin',(56.25,-6.12303176911173E-018,0.1));
#731=CARTESIAN_POINT('',(56.25,-1.75,5.2375));
#732=CARTESIAN_POINT('Origin',(70.,-1.75,10.375));
#733=CARTESIAN_POINT('',(28.25,-1.75,2.95));
#734=CARTESIAN_POINT('',(28.25,-1.75,5.2375));
#735=CARTESIAN_POINT('',(13.75,-1.75,2.95));
#736=CARTESIAN_POINT('',(45.5,-1.75,2.95));
#737=CARTESIAN_POINT('',(13.75,-1.75,5.2375));
#738=CARTESIAN_POINT('Origin',(70.,-1.09082164555426,1.96789434106364));
#739=CARTESIAN_POINT('',(28.25,-0.566612025181042,1.02219515213765));
#740=CARTESIAN_POINT('Origin',(21.,-1.80629437188801E-016,2.95));
#741=CARTESIAN_POINT('',(28.25,-1.80629437188801E-016,2.95));
#742=CARTESIAN_POINT('',(13.75,-1.80629437188801E-016,2.95));
#743=CARTESIAN_POINT('Origin',(13.75,-6.12303176911193E-018,0.1));
#744=CARTESIAN_POINT('',(13.75,-0.566612025181043,1.02219515213765));
#745=CARTESIAN_POINT('Origin',(28.25,-6.12303176911193E-018,0.1));
#746=CARTESIAN_POINT('Origin',(70.,-1.09082164555426,1.96789434106364));
#747=UNCERTAINTY_MEASURE_WITH_UNIT(LENGTH_MEASURE(0.01),#751,
'DISTANCE_ACCURACY_VALUE',
'Maximum model space distance between geometric entities at asserted c
onnectivities');
#748=UNCERTAINTY_MEASURE_WITH_UNIT(LENGTH_MEASURE(1.E-006),#751,
'DISTANCE_ACCURACY_VALUE',
'Maximum model space distance between geometric entities at asserted c
onnectivities');
#749=(
GEOMETRIC_REPRESENTATION_CONTEXT(3)
GLOBAL_UNCERTAINTY_ASSIGNED_CONTEXT((#747))
GLOBAL_UNIT_ASSIGNED_CONTEXT((#751,#753,#752))
REPRESENTATION_CONTEXT('','3D')
);
#750=(
GEOMETRIC_REPRESENTATION_CONTEXT(3)
GLOBAL_UNCERTAINTY_ASSIGNED_CONTEXT((#748))
GLOBAL_UNIT_ASSIGNED_CONTEXT((#751,#12,#752))
REPRESENTATION_CONTEXT('','3D')
);
#751=(
LENGTH_UNIT()
NAMED_UNIT(*)
SI_UNIT(.MILLI.,.METRE.)
);
#752=(
NAMED_UNIT(*)
SI_UNIT($,.STERADIAN.)
SOLID_ANGLE_UNIT()
);
#753=(
NAMED_UNIT(*)
PLANE_ANGLE_UNIT()
SI_UNIT($,.RADIAN.)
);
#754=SHAPE_DEFINITION_REPRESENTATION(#755,#756);
#755=PRODUCT_DEFINITION_SHAPE('',$,#758);
#756=SHAPE_REPRESENTATION('',(#453),#749);
#757=PRODUCT_DEFINITION_CONTEXT('part definition',#762,'design');
#758=PRODUCT_DEFINITION('Scharnier 1','Scharnier 1',#759,#757);
#759=PRODUCT_DEFINITION_FORMATION('',$,#764);
#760=PRODUCT_RELATED_PRODUCT_CATEGORY('Scharnier 1','Scharnier 1',(#764));
#761=APPLICATION_PROTOCOL_DEFINITION('international standard',
'automotive_design',2009,#762);
#762=APPLICATION_CONTEXT(
'Core Data for Automotive Mechanical Design Process');
#763=PRODUCT_CONTEXT('part definition',#762,'mechanical');
#764=PRODUCT('Scharnier 1','Scharnier 1',$,(#763));
#765=PRESENTATION_STYLE_ASSIGNMENT((#766));
#766=SURFACE_STYLE_USAGE(.BOTH.,#767);
#767=SURFACE_SIDE_STYLE($,(#768));
#768=SURFACE_STYLE_FILL_AREA(#769);
#769=FILL_AREA_STYLE($,(#770));
#770=FILL_AREA_STYLE_COLOUR($,#771);
#771=COLOUR_RGB('',0.749019607843137,0.749019607843137,0.749019607843137);
ENDSEC;
END-ISO-10303-21;
