ISO-10303-21;
HEADER;
/* Generated by software containing ST-Developer
 * from STEP Tools, Inc. (www.steptools.com) 
 */

FILE_DESCRIPTION(
/* description */ (''),
/* implementation_level */ '2;1');

FILE_NAME(
/* name */ 
'C:\\Users\\SvenW\\Documents\\inventor\\B-Automaten\\Export_B_Automate
n\\ExportGithub\\ServohebelDoppelt.stp',
/* time_stamp */ '2026-05-14T07:52:37+02:00',
/* author */ ('SvenW'),
/* organization */ (''),
/* preprocessor_version */ 'ST-DEVELOPER v15.2',
/* originating_system */ 'Autodesk Inventor 2014',
/* authorisation */ '');

FILE_SCHEMA (('AUTOMOTIVE_DESIGN { 1 0 10303 214 3 1 1 }'));
ENDSEC;

DATA;
#10=MECHANICAL_DESIGN_GEOMETRIC_PRESENTATION_REPRESENTATION('',(#13),#519);
#11=SHAPE_REPRESENTATION_RELATIONSHIP('SRR','None',#528,#12);
#12=ADVANCED_BREP_SHAPE_REPRESENTATION($,(#307),#518);
#13=STYLED_ITEM('',(#537),#307);
#14=CYLINDRICAL_SURFACE('',#320,0.5);
#15=CYLINDRICAL_SURFACE('',#322,0.5);
#16=CYLINDRICAL_SURFACE('',#324,0.5);
#17=CYLINDRICAL_SURFACE('',#326,0.5);
#18=CYLINDRICAL_SURFACE('',#329,6.);
#19=CYLINDRICAL_SURFACE('',#332,2.5);
#20=CYLINDRICAL_SURFACE('',#335,6.);
#21=CYLINDRICAL_SURFACE('',#339,3.);
#22=CYLINDRICAL_SURFACE('',#341,4.25);
#23=FACE_BOUND('',#77,.T.);
#24=FACE_BOUND('',#78,.T.);
#25=FACE_BOUND('',#79,.T.);
#26=FACE_BOUND('',#80,.T.);
#27=FACE_BOUND('',#81,.T.);
#28=FACE_BOUND('',#82,.T.);
#29=FACE_BOUND('',#84,.T.);
#30=FACE_BOUND('',#86,.T.);
#31=FACE_BOUND('',#88,.T.);
#32=FACE_BOUND('',#90,.T.);
#33=FACE_BOUND('',#98,.T.);
#34=FACE_BOUND('',#99,.T.);
#35=FACE_BOUND('',#100,.T.);
#36=FACE_BOUND('',#101,.T.);
#37=FACE_BOUND('',#102,.T.);
#38=FACE_BOUND('',#104,.T.);
#39=FACE_BOUND('',#106,.T.);
#40=FACE_BOUND('',#107,.T.);
#41=FACE_BOUND('',#108,.T.);
#42=CIRCLE('',#312,4.25);
#43=CIRCLE('',#313,0.5);
#44=CIRCLE('',#314,0.5);
#45=CIRCLE('',#315,0.5);
#46=CIRCLE('',#316,0.5);
#47=CIRCLE('',#317,6.);
#48=CIRCLE('',#318,2.5);
#49=CIRCLE('',#319,6.);
#50=CIRCLE('',#321,0.5);
#51=CIRCLE('',#323,0.5);
#52=CIRCLE('',#325,0.5);
#53=CIRCLE('',#327,0.5);
#54=CIRCLE('',#330,6.);
#55=CIRCLE('',#333,2.5);
#56=CIRCLE('',#336,6.);
#57=CIRCLE('',#338,3.);
#58=CIRCLE('',#340,3.);
#59=CIRCLE('',#342,4.25);
#60=FACE_OUTER_BOUND('',#75,.T.);
#61=FACE_OUTER_BOUND('',#76,.T.);
#62=FACE_OUTER_BOUND('',#83,.T.);
#63=FACE_OUTER_BOUND('',#85,.T.);
#64=FACE_OUTER_BOUND('',#87,.T.);
#65=FACE_OUTER_BOUND('',#89,.T.);
#66=FACE_OUTER_BOUND('',#91,.T.);
#67=FACE_OUTER_BOUND('',#92,.T.);
#68=FACE_OUTER_BOUND('',#93,.T.);
#69=FACE_OUTER_BOUND('',#94,.T.);
#70=FACE_OUTER_BOUND('',#95,.T.);
#71=FACE_OUTER_BOUND('',#96,.T.);
#72=FACE_OUTER_BOUND('',#97,.T.);
#73=FACE_OUTER_BOUND('',#103,.T.);
#74=FACE_OUTER_BOUND('',#105,.T.);
#75=EDGE_LOOP('',(#209,#210,#211,#212));
#76=EDGE_LOOP('',(#213,#214,#215,#216));
#77=EDGE_LOOP('',(#217));
#78=EDGE_LOOP('',(#218));
#79=EDGE_LOOP('',(#219));
#80=EDGE_LOOP('',(#220));
#81=EDGE_LOOP('',(#221));
#82=EDGE_LOOP('',(#222,#223,#224,#225,#226,#227,#228,#229));
#83=EDGE_LOOP('',(#230));
#84=EDGE_LOOP('',(#231));
#85=EDGE_LOOP('',(#232));
#86=EDGE_LOOP('',(#233));
#87=EDGE_LOOP('',(#234));
#88=EDGE_LOOP('',(#235));
#89=EDGE_LOOP('',(#236));
#90=EDGE_LOOP('',(#237));
#91=EDGE_LOOP('',(#238,#239,#240,#241));
#92=EDGE_LOOP('',(#242,#243,#244,#245));
#93=EDGE_LOOP('',(#246,#247,#248,#249));
#94=EDGE_LOOP('',(#250,#251,#252,#253));
#95=EDGE_LOOP('',(#254,#255,#256,#257));
#96=EDGE_LOOP('',(#258,#259,#260,#261));
#97=EDGE_LOOP('',(#262,#263,#264,#265,#266,#267,#268,#269));
#98=EDGE_LOOP('',(#270));
#99=EDGE_LOOP('',(#271));
#100=EDGE_LOOP('',(#272));
#101=EDGE_LOOP('',(#273));
#102=EDGE_LOOP('',(#274));
#103=EDGE_LOOP('',(#275));
#104=EDGE_LOOP('',(#276));
#105=EDGE_LOOP('',(#277));
#106=EDGE_LOOP('',(#278));
#107=EDGE_LOOP('',(#279));
#108=EDGE_LOOP('',(#280));
#109=LINE('',#438,#127);
#110=LINE('',#440,#128);
#111=LINE('',#442,#129);
#112=LINE('',#443,#130);
#113=LINE('',#446,#131);
#114=LINE('',#448,#132);
#115=LINE('',#449,#133);
#116=LINE('',#462,#134);
#117=LINE('',#466,#135);
#118=LINE('',#470,#136);
#119=LINE('',#486,#137);
#120=LINE('',#487,#138);
#121=LINE('',#491,#139);
#122=LINE('',#494,#140);
#123=LINE('',#495,#141);
#124=LINE('',#499,#142);
#125=LINE('',#502,#143);
#126=LINE('',#503,#144);
#127=VECTOR('',#348,2.);
#128=VECTOR('',#349,9.02777199827989);
#129=VECTOR('',#350,2.);
#130=VECTOR('',#351,9.02777199827989);
#131=VECTOR('',#354,1.44042557102342);
#132=VECTOR('',#355,2.);
#133=VECTOR('',#356,1.44042557102342);
#134=VECTOR('',#369,1.44042557102342);
#135=VECTOR('',#372,13.9325351053486);
#136=VECTOR('',#375,13.9325351053486);
#137=VECTOR('',#396,1.44042557102342);
#138=VECTOR('',#397,2.);
#139=VECTOR('',#402,2.);
#140=VECTOR('',#405,13.9325351053486);
#141=VECTOR('',#406,2.);
#142=VECTOR('',#411,2.);
#143=VECTOR('',#414,13.9325351053486);
#144=VECTOR('',#415,2.);
#145=VERTEX_POINT('',#436);
#146=VERTEX_POINT('',#437);
#147=VERTEX_POINT('',#439);
#148=VERTEX_POINT('',#441);
#149=VERTEX_POINT('',#445);
#150=VERTEX_POINT('',#447);
#151=VERTEX_POINT('',#451);
#152=VERTEX_POINT('',#453);
#153=VERTEX_POINT('',#455);
#154=VERTEX_POINT('',#457);
#155=VERTEX_POINT('',#459);
#156=VERTEX_POINT('',#461);
#157=VERTEX_POINT('',#463);
#158=VERTEX_POINT('',#465);
#159=VERTEX_POINT('',#467);
#160=VERTEX_POINT('',#469);
#161=VERTEX_POINT('',#473);
#162=VERTEX_POINT('',#476);
#163=VERTEX_POINT('',#479);
#164=VERTEX_POINT('',#482);
#165=VERTEX_POINT('',#485);
#166=VERTEX_POINT('',#489);
#167=VERTEX_POINT('',#493);
#168=VERTEX_POINT('',#497);
#169=VERTEX_POINT('',#501);
#170=VERTEX_POINT('',#507);
#171=VERTEX_POINT('',#510);
#172=VERTEX_POINT('',#513);
#173=EDGE_CURVE('',#145,#146,#109,.T.);
#174=EDGE_CURVE('',#147,#145,#110,.T.);
#175=EDGE_CURVE('',#148,#147,#111,.T.);
#176=EDGE_CURVE('',#146,#148,#112,.T.);
#177=EDGE_CURVE('',#146,#149,#113,.T.);
#178=EDGE_CURVE('',#149,#150,#114,.T.);
#179=EDGE_CURVE('',#145,#150,#115,.T.);
#180=EDGE_CURVE('',#151,#151,#42,.T.);
#181=EDGE_CURVE('',#152,#152,#43,.T.);
#182=EDGE_CURVE('',#153,#153,#44,.T.);
#183=EDGE_CURVE('',#154,#154,#45,.T.);
#184=EDGE_CURVE('',#155,#155,#46,.T.);
#185=EDGE_CURVE('',#156,#148,#116,.T.);
#186=EDGE_CURVE('',#157,#156,#47,.T.);
#187=EDGE_CURVE('',#158,#157,#117,.T.);
#188=EDGE_CURVE('',#159,#158,#48,.T.);
#189=EDGE_CURVE('',#160,#159,#118,.T.);
#190=EDGE_CURVE('',#149,#160,#49,.T.);
#191=EDGE_CURVE('',#161,#161,#50,.T.);
#192=EDGE_CURVE('',#162,#162,#51,.T.);
#193=EDGE_CURVE('',#163,#163,#52,.T.);
#194=EDGE_CURVE('',#164,#164,#53,.T.);
#195=EDGE_CURVE('',#165,#147,#119,.T.);
#196=EDGE_CURVE('',#156,#165,#120,.T.);
#197=EDGE_CURVE('',#166,#165,#54,.T.);
#198=EDGE_CURVE('',#157,#166,#121,.T.);
#199=EDGE_CURVE('',#167,#166,#122,.T.);
#200=EDGE_CURVE('',#158,#167,#123,.T.);
#201=EDGE_CURVE('',#168,#167,#55,.T.);
#202=EDGE_CURVE('',#159,#168,#124,.T.);
#203=EDGE_CURVE('',#169,#168,#125,.T.);
#204=EDGE_CURVE('',#160,#169,#126,.T.);
#205=EDGE_CURVE('',#150,#169,#56,.T.);
#206=EDGE_CURVE('',#170,#170,#57,.T.);
#207=EDGE_CURVE('',#171,#171,#58,.T.);
#208=EDGE_CURVE('',#172,#172,#59,.T.);
#209=ORIENTED_EDGE('',*,*,#173,.F.);
#210=ORIENTED_EDGE('',*,*,#174,.F.);
#211=ORIENTED_EDGE('',*,*,#175,.F.);
#212=ORIENTED_EDGE('',*,*,#176,.F.);
#213=ORIENTED_EDGE('',*,*,#173,.T.);
#214=ORIENTED_EDGE('',*,*,#177,.T.);
#215=ORIENTED_EDGE('',*,*,#178,.T.);
#216=ORIENTED_EDGE('',*,*,#179,.F.);
#217=ORIENTED_EDGE('',*,*,#180,.T.);
#218=ORIENTED_EDGE('',*,*,#181,.T.);
#219=ORIENTED_EDGE('',*,*,#182,.T.);
#220=ORIENTED_EDGE('',*,*,#183,.T.);
#221=ORIENTED_EDGE('',*,*,#184,.T.);
#222=ORIENTED_EDGE('',*,*,#176,.T.);
#223=ORIENTED_EDGE('',*,*,#185,.F.);
#224=ORIENTED_EDGE('',*,*,#186,.F.);
#225=ORIENTED_EDGE('',*,*,#187,.F.);
#226=ORIENTED_EDGE('',*,*,#188,.F.);
#227=ORIENTED_EDGE('',*,*,#189,.F.);
#228=ORIENTED_EDGE('',*,*,#190,.F.);
#229=ORIENTED_EDGE('',*,*,#177,.F.);
#230=ORIENTED_EDGE('',*,*,#191,.F.);
#231=ORIENTED_EDGE('',*,*,#181,.F.);
#232=ORIENTED_EDGE('',*,*,#192,.F.);
#233=ORIENTED_EDGE('',*,*,#182,.F.);
#234=ORIENTED_EDGE('',*,*,#193,.F.);
#235=ORIENTED_EDGE('',*,*,#183,.F.);
#236=ORIENTED_EDGE('',*,*,#194,.F.);
#237=ORIENTED_EDGE('',*,*,#184,.F.);
#238=ORIENTED_EDGE('',*,*,#175,.T.);
#239=ORIENTED_EDGE('',*,*,#195,.F.);
#240=ORIENTED_EDGE('',*,*,#196,.F.);
#241=ORIENTED_EDGE('',*,*,#185,.T.);
#242=ORIENTED_EDGE('',*,*,#186,.T.);
#243=ORIENTED_EDGE('',*,*,#196,.T.);
#244=ORIENTED_EDGE('',*,*,#197,.F.);
#245=ORIENTED_EDGE('',*,*,#198,.F.);
#246=ORIENTED_EDGE('',*,*,#187,.T.);
#247=ORIENTED_EDGE('',*,*,#198,.T.);
#248=ORIENTED_EDGE('',*,*,#199,.F.);
#249=ORIENTED_EDGE('',*,*,#200,.F.);
#250=ORIENTED_EDGE('',*,*,#188,.T.);
#251=ORIENTED_EDGE('',*,*,#200,.T.);
#252=ORIENTED_EDGE('',*,*,#201,.F.);
#253=ORIENTED_EDGE('',*,*,#202,.F.);
#254=ORIENTED_EDGE('',*,*,#189,.T.);
#255=ORIENTED_EDGE('',*,*,#202,.T.);
#256=ORIENTED_EDGE('',*,*,#203,.F.);
#257=ORIENTED_EDGE('',*,*,#204,.F.);
#258=ORIENTED_EDGE('',*,*,#190,.T.);
#259=ORIENTED_EDGE('',*,*,#204,.T.);
#260=ORIENTED_EDGE('',*,*,#205,.F.);
#261=ORIENTED_EDGE('',*,*,#178,.F.);
#262=ORIENTED_EDGE('',*,*,#174,.T.);
#263=ORIENTED_EDGE('',*,*,#179,.T.);
#264=ORIENTED_EDGE('',*,*,#205,.T.);
#265=ORIENTED_EDGE('',*,*,#203,.T.);
#266=ORIENTED_EDGE('',*,*,#201,.T.);
#267=ORIENTED_EDGE('',*,*,#199,.T.);
#268=ORIENTED_EDGE('',*,*,#197,.T.);
#269=ORIENTED_EDGE('',*,*,#195,.T.);
#270=ORIENTED_EDGE('',*,*,#206,.T.);
#271=ORIENTED_EDGE('',*,*,#191,.T.);
#272=ORIENTED_EDGE('',*,*,#192,.T.);
#273=ORIENTED_EDGE('',*,*,#193,.T.);
#274=ORIENTED_EDGE('',*,*,#194,.T.);
#275=ORIENTED_EDGE('',*,*,#206,.F.);
#276=ORIENTED_EDGE('',*,*,#207,.F.);
#277=ORIENTED_EDGE('',*,*,#208,.F.);
#278=ORIENTED_EDGE('',*,*,#180,.F.);
#279=ORIENTED_EDGE('',*,*,#207,.T.);
#280=ORIENTED_EDGE('',*,*,#208,.T.);
#281=PLANE('',#309);
#282=PLANE('',#310);
#283=PLANE('',#311);
#284=PLANE('',#328);
#285=PLANE('',#331);
#286=PLANE('',#334);
#287=PLANE('',#337);
#288=PLANE('',#343);
#289=ADVANCED_FACE('',(#60),#281,.F.);
#290=ADVANCED_FACE('',(#61),#282,.T.);
#291=ADVANCED_FACE('',(#23,#24,#25,#26,#27,#28),#283,.T.);
#292=ADVANCED_FACE('',(#62,#29),#14,.F.);
#293=ADVANCED_FACE('',(#63,#30),#15,.F.);
#294=ADVANCED_FACE('',(#64,#31),#16,.F.);
#295=ADVANCED_FACE('',(#65,#32),#17,.F.);
#296=ADVANCED_FACE('',(#66),#284,.T.);
#297=ADVANCED_FACE('',(#67),#18,.T.);
#298=ADVANCED_FACE('',(#68),#285,.T.);
#299=ADVANCED_FACE('',(#69),#19,.T.);
#300=ADVANCED_FACE('',(#70),#286,.T.);
#301=ADVANCED_FACE('',(#71),#20,.T.);
#302=ADVANCED_FACE('',(#72,#33,#34,#35,#36,#37),#287,.F.);
#303=ADVANCED_FACE('',(#73,#38),#21,.F.);
#304=ADVANCED_FACE('',(#74,#39),#22,.T.);
#305=ADVANCED_FACE('',(#40,#41),#288,.T.);
#306=CLOSED_SHELL('',(#289,#290,#291,#292,#293,#294,#295,#296,#297,#298,
#299,#300,#301,#302,#303,#304,#305));
#307=MANIFOLD_SOLID_BREP('Volumenk\X\F6rper1',#306);
#308=AXIS2_PLACEMENT_3D('placement',#434,#344,#345);
#309=AXIS2_PLACEMENT_3D('',#435,#346,#347);
#310=AXIS2_PLACEMENT_3D('',#444,#352,#353);
#311=AXIS2_PLACEMENT_3D('',#450,#357,#358);
#312=AXIS2_PLACEMENT_3D('',#452,#359,#360);
#313=AXIS2_PLACEMENT_3D('',#454,#361,#362);
#314=AXIS2_PLACEMENT_3D('',#456,#363,#364);
#315=AXIS2_PLACEMENT_3D('',#458,#365,#366);
#316=AXIS2_PLACEMENT_3D('',#460,#367,#368);
#317=AXIS2_PLACEMENT_3D('',#464,#370,#371);
#318=AXIS2_PLACEMENT_3D('',#468,#373,#374);
#319=AXIS2_PLACEMENT_3D('',#471,#376,#377);
#320=AXIS2_PLACEMENT_3D('',#472,#378,#379);
#321=AXIS2_PLACEMENT_3D('',#474,#380,#381);
#322=AXIS2_PLACEMENT_3D('',#475,#382,#383);
#323=AXIS2_PLACEMENT_3D('',#477,#384,#385);
#324=AXIS2_PLACEMENT_3D('',#478,#386,#387);
#325=AXIS2_PLACEMENT_3D('',#480,#388,#389);
#326=AXIS2_PLACEMENT_3D('',#481,#390,#391);
#327=AXIS2_PLACEMENT_3D('',#483,#392,#393);
#328=AXIS2_PLACEMENT_3D('',#484,#394,#395);
#329=AXIS2_PLACEMENT_3D('',#488,#398,#399);
#330=AXIS2_PLACEMENT_3D('',#490,#400,#401);
#331=AXIS2_PLACEMENT_3D('',#492,#403,#404);
#332=AXIS2_PLACEMENT_3D('',#496,#407,#408);
#333=AXIS2_PLACEMENT_3D('',#498,#409,#410);
#334=AXIS2_PLACEMENT_3D('',#500,#412,#413);
#335=AXIS2_PLACEMENT_3D('',#504,#416,#417);
#336=AXIS2_PLACEMENT_3D('',#505,#418,#419);
#337=AXIS2_PLACEMENT_3D('',#506,#420,#421);
#338=AXIS2_PLACEMENT_3D('',#508,#422,#423);
#339=AXIS2_PLACEMENT_3D('',#509,#424,#425);
#340=AXIS2_PLACEMENT_3D('',#511,#426,#427);
#341=AXIS2_PLACEMENT_3D('',#512,#428,#429);
#342=AXIS2_PLACEMENT_3D('',#514,#430,#431);
#343=AXIS2_PLACEMENT_3D('',#515,#432,#433);
#344=DIRECTION('axis',(0.,0.,1.));
#345=DIRECTION('refdir',(1.,0.,0.));
#346=DIRECTION('center_axis',(0.,-1.,0.));
#347=DIRECTION('ref_axis',(-1.,0.,0.));
#348=DIRECTION('',(0.,0.,1.));
#349=DIRECTION('',(1.,0.,0.));
#350=DIRECTION('',(0.,0.,-1.));
#351=DIRECTION('',(-1.,0.,0.));
#352=DIRECTION('center_axis',(0.98647369998861,0.163919612099289,0.));
#353=DIRECTION('ref_axis',(0.163919612099289,-0.98647369998861,0.));
#354=DIRECTION('',(0.163919612099289,-0.98647369998861,0.));
#355=DIRECTION('',(0.,0.,-1.));
#356=DIRECTION('',(0.163919612099289,-0.98647369998861,0.));
#357=DIRECTION('center_axis',(0.,0.,1.));
#358=DIRECTION('ref_axis',(1.,0.,0.));
#359=DIRECTION('center_axis',(0.,0.,-1.));
#360=DIRECTION('ref_axis',(-1.,0.,0.));
#361=DIRECTION('center_axis',(0.,0.,-1.));
#362=DIRECTION('ref_axis',(1.,0.,0.));
#363=DIRECTION('center_axis',(0.,0.,-1.));
#364=DIRECTION('ref_axis',(1.,0.,0.));
#365=DIRECTION('center_axis',(0.,0.,-1.));
#366=DIRECTION('ref_axis',(1.,0.,0.));
#367=DIRECTION('center_axis',(0.,0.,-1.));
#368=DIRECTION('ref_axis',(1.,0.,0.));
#369=DIRECTION('',(0.163919612099289,0.98647369998861,0.));
#370=DIRECTION('center_axis',(0.,0.,-1.));
#371=DIRECTION('ref_axis',(-0.791666666666667,-0.610953262442299,0.));
#372=DIRECTION('',(-0.163919612099289,0.98647369998861,0.));
#373=DIRECTION('center_axis',(0.,0.,-1.));
#374=DIRECTION('ref_axis',(0.98647369998861,-0.16391961209929,0.));
#375=DIRECTION('',(-0.16391961209929,-0.98647369998861,0.));
#376=DIRECTION('center_axis',(0.,0.,-1.));
#377=DIRECTION('ref_axis',(0.791666666666667,0.610953262442299,0.));
#378=DIRECTION('center_axis',(0.,0.,-1.));
#379=DIRECTION('ref_axis',(1.,0.,0.));
#380=DIRECTION('center_axis',(0.,0.,1.));
#381=DIRECTION('ref_axis',(1.,0.,0.));
#382=DIRECTION('center_axis',(0.,0.,-1.));
#383=DIRECTION('ref_axis',(1.,0.,0.));
#384=DIRECTION('center_axis',(0.,0.,1.));
#385=DIRECTION('ref_axis',(1.,0.,0.));
#386=DIRECTION('center_axis',(0.,0.,-1.));
#387=DIRECTION('ref_axis',(1.,0.,0.));
#388=DIRECTION('center_axis',(0.,0.,1.));
#389=DIRECTION('ref_axis',(1.,0.,0.));
#390=DIRECTION('center_axis',(0.,0.,-1.));
#391=DIRECTION('ref_axis',(1.,0.,0.));
#392=DIRECTION('center_axis',(0.,0.,1.));
#393=DIRECTION('ref_axis',(1.,0.,0.));
#394=DIRECTION('center_axis',(-0.98647369998861,0.163919612099289,0.));
#395=DIRECTION('ref_axis',(0.163919612099289,0.98647369998861,0.));
#396=DIRECTION('',(0.163919612099289,0.98647369998861,0.));
#397=DIRECTION('',(0.,0.,-1.));
#398=DIRECTION('center_axis',(0.,0.,-1.));
#399=DIRECTION('ref_axis',(-0.791666666666667,-0.610953262442299,0.));
#400=DIRECTION('center_axis',(0.,0.,-1.));
#401=DIRECTION('ref_axis',(-0.791666666666667,-0.610953262442299,0.));
#402=DIRECTION('',(0.,0.,-1.));
#403=DIRECTION('center_axis',(-0.98647369998861,-0.163919612099289,0.));
#404=DIRECTION('ref_axis',(-0.163919612099289,0.98647369998861,0.));
#405=DIRECTION('',(-0.163919612099289,0.98647369998861,0.));
#406=DIRECTION('',(0.,0.,-1.));
#407=DIRECTION('center_axis',(0.,0.,-1.));
#408=DIRECTION('ref_axis',(0.98647369998861,-0.16391961209929,0.));
#409=DIRECTION('center_axis',(0.,0.,-1.));
#410=DIRECTION('ref_axis',(0.98647369998861,-0.16391961209929,0.));
#411=DIRECTION('',(0.,0.,-1.));
#412=DIRECTION('center_axis',(0.98647369998861,-0.16391961209929,0.));
#413=DIRECTION('ref_axis',(-0.16391961209929,-0.98647369998861,0.));
#414=DIRECTION('',(-0.16391961209929,-0.98647369998861,0.));
#415=DIRECTION('',(0.,0.,-1.));
#416=DIRECTION('center_axis',(0.,0.,-1.));
#417=DIRECTION('ref_axis',(0.791666666666667,0.610953262442299,0.));
#418=DIRECTION('center_axis',(0.,0.,-1.));
#419=DIRECTION('ref_axis',(0.791666666666667,0.610953262442299,0.));
#420=DIRECTION('center_axis',(0.,0.,1.));
#421=DIRECTION('ref_axis',(1.,0.,0.));
#422=DIRECTION('center_axis',(0.,0.,1.));
#423=DIRECTION('ref_axis',(1.,0.,0.));
#424=DIRECTION('center_axis',(0.,0.,1.));
#425=DIRECTION('ref_axis',(-1.,0.,0.));
#426=DIRECTION('center_axis',(0.,0.,-1.));
#427=DIRECTION('ref_axis',(-1.,0.,0.));
#428=DIRECTION('center_axis',(0.,0.,1.));
#429=DIRECTION('ref_axis',(-1.,0.,0.));
#430=DIRECTION('center_axis',(0.,0.,1.));
#431=DIRECTION('ref_axis',(-1.,0.,0.));
#432=DIRECTION('center_axis',(0.,0.,1.));
#433=DIRECTION('ref_axis',(1.,0.,0.));
#434=CARTESIAN_POINT('',(0.,0.,0.));
#435=CARTESIAN_POINT('Origin',(5.86231284396528,5.08666151725948,0.));
#436=CARTESIAN_POINT('',(4.51388599913994,5.08666151725948,-2.));
#437=CARTESIAN_POINT('',(4.51388599913994,5.08666151725948,0.));
#438=CARTESIAN_POINT('',(4.51388599913994,5.08666151725948,0.));
#439=CARTESIAN_POINT('',(-4.51388599913994,5.08666151725948,-2.));
#440=CARTESIAN_POINT('',(2.93115642198264,5.08666151725948,-2.));
#441=CARTESIAN_POINT('',(-4.51388599913994,5.08666151725948,0.));
#442=CARTESIAN_POINT('',(-4.51388599913994,5.08666151725948,0.));
#443=CARTESIAN_POINT('',(2.93115642198264,5.08666151725948,0.));
#444=CARTESIAN_POINT('Origin',(2.46618424997153,17.4097990302482,0.));
#445=CARTESIAN_POINT('',(4.75,3.6657195746538,0.));
#446=CARTESIAN_POINT('',(2.46618424997153,17.4097990302482,0.));
#447=CARTESIAN_POINT('',(4.75,3.6657195746538,-2.));
#448=CARTESIAN_POINT('',(4.75,3.6657195746538,0.));
#449=CARTESIAN_POINT('',(2.46618424997153,17.4097990302482,-2.));
#450=CARTESIAN_POINT('Origin',(-2.12041112276691E-015,6.39636675235984E-016,
0.));
#451=CARTESIAN_POINT('',(4.25,5.20474889637625E-016,0.));
#452=CARTESIAN_POINT('Origin',(0.,0.,0.));
#453=CARTESIAN_POINT('',(-0.500000000000004,-8.,0.));
#454=CARTESIAN_POINT('Origin',(-3.99680288865056E-015,-8.,0.));
#455=CARTESIAN_POINT('',(-0.500000000000006,-11.,0.));
#456=CARTESIAN_POINT('Origin',(-5.49560397189453E-015,-11.,0.));
#457=CARTESIAN_POINT('',(-0.500000000000007,-14.,0.));
#458=CARTESIAN_POINT('Origin',(-6.99440505513849E-015,-14.,0.));
#459=CARTESIAN_POINT('',(-0.500000000000008,-17.,0.));
#460=CARTESIAN_POINT('Origin',(-8.49320613838245E-015,-17.,0.));
#461=CARTESIAN_POINT('',(-4.75,3.6657195746538,0.));
#462=CARTESIAN_POINT('',(-4.75,3.6657195746538,0.));
#463=CARTESIAN_POINT('',(-4.75,-3.66571957465379,0.));
#464=CARTESIAN_POINT('Origin',(0.,0.,0.));
#465=CARTESIAN_POINT('',(-2.46618424997153,-17.4097990302482,0.));
#466=CARTESIAN_POINT('',(-2.46618424997153,-17.4097990302482,0.));
#467=CARTESIAN_POINT('',(2.46618424997152,-17.4097990302482,0.));
#468=CARTESIAN_POINT('Origin',(-8.49320613838245E-015,-17.,0.));
#469=CARTESIAN_POINT('',(4.75,-3.6657195746538,0.));
#470=CARTESIAN_POINT('',(4.75,-3.6657195746538,0.));
#471=CARTESIAN_POINT('Origin',(0.,0.,0.));
#472=CARTESIAN_POINT('Origin',(-3.99680288865056E-015,-8.,0.));
#473=CARTESIAN_POINT('',(-0.500000000000004,-8.,-2.));
#474=CARTESIAN_POINT('Origin',(-3.99680288865056E-015,-8.,-2.));
#475=CARTESIAN_POINT('Origin',(-5.49560397189453E-015,-11.,0.));
#476=CARTESIAN_POINT('',(-0.500000000000006,-11.,-2.));
#477=CARTESIAN_POINT('Origin',(-5.49560397189453E-015,-11.,-2.));
#478=CARTESIAN_POINT('Origin',(-6.99440505513849E-015,-14.,0.));
#479=CARTESIAN_POINT('',(-0.500000000000007,-14.,-2.));
#480=CARTESIAN_POINT('Origin',(-6.99440505513849E-015,-14.,-2.));
#481=CARTESIAN_POINT('Origin',(-8.49320613838245E-015,-17.,0.));
#482=CARTESIAN_POINT('',(-0.500000000000008,-17.,-2.));
#483=CARTESIAN_POINT('Origin',(-8.49320613838245E-015,-17.,-2.));
#484=CARTESIAN_POINT('Origin',(-4.75,3.6657195746538,0.));
#485=CARTESIAN_POINT('',(-4.75,3.6657195746538,-2.));
#486=CARTESIAN_POINT('',(-4.75,3.6657195746538,-2.));
#487=CARTESIAN_POINT('',(-4.75,3.6657195746538,0.));
#488=CARTESIAN_POINT('Origin',(0.,0.,0.));
#489=CARTESIAN_POINT('',(-4.75,-3.6657195746538,-2.));
#490=CARTESIAN_POINT('Origin',(0.,0.,-2.));
#491=CARTESIAN_POINT('',(-4.75,-3.66571957465379,0.));
#492=CARTESIAN_POINT('Origin',(-2.46618424997153,-17.4097990302482,0.));
#493=CARTESIAN_POINT('',(-2.46618424997153,-17.4097990302482,-2.));
#494=CARTESIAN_POINT('',(-2.46618424997153,-17.4097990302482,-2.));
#495=CARTESIAN_POINT('',(-2.46618424997153,-17.4097990302482,0.));
#496=CARTESIAN_POINT('Origin',(-8.49320613838245E-015,-17.,0.));
#497=CARTESIAN_POINT('',(2.46618424997152,-17.4097990302482,-2.));
#498=CARTESIAN_POINT('Origin',(-8.49320613838245E-015,-17.,-2.));
#499=CARTESIAN_POINT('',(2.46618424997152,-17.4097990302482,0.));
#500=CARTESIAN_POINT('Origin',(4.75,-3.6657195746538,0.));
#501=CARTESIAN_POINT('',(4.75,-3.6657195746538,-2.));
#502=CARTESIAN_POINT('',(4.75,-3.6657195746538,-2.));
#503=CARTESIAN_POINT('',(4.75,-3.6657195746538,0.));
#504=CARTESIAN_POINT('Origin',(0.,0.,0.));
#505=CARTESIAN_POINT('Origin',(0.,0.,-2.));
#506=CARTESIAN_POINT('Origin',(-2.12041112276691E-015,6.39636675235984E-016,
-2.));
#507=CARTESIAN_POINT('',(-3.,3.67394039744206E-016,-2.));
#508=CARTESIAN_POINT('Origin',(0.,0.,-2.));
#509=CARTESIAN_POINT('Origin',(0.,0.,0.));
#510=CARTESIAN_POINT('',(3.,3.67394039744206E-016,3.));
#511=CARTESIAN_POINT('Origin',(0.,0.,3.));
#512=CARTESIAN_POINT('Origin',(0.,0.,0.));
#513=CARTESIAN_POINT('',(4.25,5.20474889637625E-016,3.));
#514=CARTESIAN_POINT('Origin',(0.,0.,3.));
#515=CARTESIAN_POINT('Origin',(-2.6106369661199E-016,-1.08845394571094E-016,
3.));
#516=UNCERTAINTY_MEASURE_WITH_UNIT(LENGTH_MEASURE(0.01),#520,
'DISTANCE_ACCURACY_VALUE',
'Maximum model space distance between geometric entities at asserted c
onnectivities');
#517=UNCERTAINTY_MEASURE_WITH_UNIT(LENGTH_MEASURE(1.E-006),#520,
'DISTANCE_ACCURACY_VALUE',
'Maximum model space distance between geometric entities at asserted c
onnectivities');
#518=(
GEOMETRIC_REPRESENTATION_CONTEXT(3)
GLOBAL_UNCERTAINTY_ASSIGNED_CONTEXT((#516))
GLOBAL_UNIT_ASSIGNED_CONTEXT((#520,#523,#521))
REPRESENTATION_CONTEXT('','3D')
);
#519=(
GEOMETRIC_REPRESENTATION_CONTEXT(3)
GLOBAL_UNCERTAINTY_ASSIGNED_CONTEXT((#517))
GLOBAL_UNIT_ASSIGNED_CONTEXT((#520,#523,#521))
REPRESENTATION_CONTEXT('','3D')
);
#520=(
LENGTH_UNIT()
NAMED_UNIT(*)
SI_UNIT(.MILLI.,.METRE.)
);
#521=(
NAMED_UNIT(*)
SI_UNIT($,.STERADIAN.)
SOLID_ANGLE_UNIT()
);
#522=DIMENSIONAL_EXPONENTS(0.,0.,0.,0.,0.,0.,0.);
#523=(
CONVERSION_BASED_UNIT('degree',#525)
NAMED_UNIT(#522)
PLANE_ANGLE_UNIT()
);
#524=(
NAMED_UNIT(*)
PLANE_ANGLE_UNIT()
SI_UNIT($,.RADIAN.)
);
#525=PLANE_ANGLE_MEASURE_WITH_UNIT(PLANE_ANGLE_MEASURE(0.01745329252),#524);
#526=SHAPE_DEFINITION_REPRESENTATION(#527,#528);
#527=PRODUCT_DEFINITION_SHAPE('',$,#530);
#528=SHAPE_REPRESENTATION('',(#308),#518);
#529=PRODUCT_DEFINITION_CONTEXT('part definition',#534,'design');
#530=PRODUCT_DEFINITION('ServohebelDoppelt','ServohebelDoppelt',#531,#529);
#531=PRODUCT_DEFINITION_FORMATION('',$,#536);
#532=PRODUCT_RELATED_PRODUCT_CATEGORY('ServohebelDoppelt',
'ServohebelDoppelt',(#536));
#533=APPLICATION_PROTOCOL_DEFINITION('international standard',
'automotive_design',2009,#534);
#534=APPLICATION_CONTEXT(
'Core Data for Automotive Mechanical Design Process');
#535=PRODUCT_CONTEXT('part definition',#534,'mechanical');
#536=PRODUCT('ServohebelDoppelt','ServohebelDoppelt',$,(#535));
#537=PRESENTATION_STYLE_ASSIGNMENT((#538));
#538=SURFACE_STYLE_USAGE(.BOTH.,#539);
#539=SURFACE_SIDE_STYLE($,(#540));
#540=SURFACE_STYLE_FILL_AREA(#541);
#541=FILL_AREA_STYLE($,(#542));
#542=FILL_AREA_STYLE_COLOUR($,#543);
#543=COLOUR_RGB('',0.749019607843137,0.749019607843137,0.749019607843137);
ENDSEC;
END-ISO-10303-21;
