ISO-10303-21;
HEADER;
/* Generated by software containing ST-Developer
 * from STEP Tools, Inc. (www.steptools.com) 
 */

FILE_DESCRIPTION(
/* description */ (''),
/* implementation_level */ '2;1');

FILE_NAME(
/* name */ 
'C:\\Users\\SvenW\\Documents\\inventor\\B-Automaten\\Export_B_Automate
n\\ExportGithub\\sockelplatte.stp',
/* time_stamp */ '2026-05-14T08:04:40+02:00',
/* author */ ('SvenW'),
/* organization */ (''),
/* preprocessor_version */ 'ST-DEVELOPER v15.2',
/* originating_system */ 'Autodesk Inventor 2014',
/* authorisation */ '');

FILE_SCHEMA (('AUTOMOTIVE_DESIGN { 1 0 10303 214 3 1 1 }'));
ENDSEC;

DATA;
#10=MECHANICAL_DESIGN_GEOMETRIC_PRESENTATION_REPRESENTATION('',(#13),#1375);
#11=SHAPE_REPRESENTATION_RELATIONSHIP('SRR','None',#1384,#12);
#12=ADVANCED_BREP_SHAPE_REPRESENTATION($,(#704),#1374);
#13=STYLED_ITEM('',(#1393),#704);
#14=LINE('',#1255,#46);
#15=LINE('',#1259,#47);
#16=LINE('',#1263,#48);
#17=LINE('',#1267,#49);
#18=LINE('',#1310,#50);
#19=LINE('',#1312,#51);
#20=LINE('',#1314,#52);
#21=LINE('',#1315,#53);
#22=LINE('',#1318,#54);
#23=LINE('',#1320,#55);
#24=LINE('',#1321,#56);
#25=LINE('',#1324,#57);
#26=LINE('',#1326,#58);
#27=LINE('',#1331,#59);
#28=LINE('',#1333,#60);
#29=LINE('',#1335,#61);
#30=LINE('',#1336,#62);
#31=LINE('',#1339,#63);
#32=LINE('',#1341,#64);
#33=LINE('',#1342,#65);
#34=LINE('',#1345,#66);
#35=LINE('',#1348,#67);
#36=LINE('',#1352,#68);
#37=LINE('',#1353,#69);
#38=LINE('',#1356,#70);
#39=LINE('',#1357,#71);
#40=LINE('',#1360,#72);
#41=LINE('',#1362,#73);
#42=LINE('',#1364,#74);
#43=LINE('',#1366,#75);
#44=LINE('',#1367,#76);
#45=LINE('',#1369,#77);
#46=VECTOR('',#870,76.);
#47=VECTOR('',#873,60.);
#48=VECTOR('',#876,76.);
#49=VECTOR('',#879,60.);
#50=VECTOR('',#940,81.);
#51=VECTOR('',#941,3.6);
#52=VECTOR('',#942,81.);
#53=VECTOR('',#943,3.6);
#54=VECTOR('',#946,11.);
#55=VECTOR('',#947,11.);
#56=VECTOR('',#948,3.6);
#57=VECTOR('',#951,76.);
#58=VECTOR('',#952,6.00000000000001);
#59=VECTOR('',#957,11.);
#60=VECTOR('',#958,3.6);
#61=VECTOR('',#959,11.);
#62=VECTOR('',#960,3.6);
#63=VECTOR('',#963,81.);
#64=VECTOR('',#964,81.);
#65=VECTOR('',#965,3.6);
#66=VECTOR('',#968,76.);
#67=VECTOR('',#971,6.00000000000002);
#68=VECTOR('',#976,9.);
#69=VECTOR('',#977,9.);
#70=VECTOR('',#980,60.);
#71=VECTOR('',#981,9.);
#72=VECTOR('',#986,9.);
#73=VECTOR('',#989,12.6);
#74=VECTOR('',#992,12.6);
#75=VECTOR('',#995,12.6);
#76=VECTOR('',#996,48.);
#77=VECTOR('',#999,12.6);
#78=PLANE('',#742);
#79=PLANE('',#749);
#80=PLANE('',#750);
#81=PLANE('',#753);
#82=PLANE('',#754);
#83=PLANE('',#755);
#84=PLANE('',#756);
#85=PLANE('',#775);
#86=PLANE('',#776);
#87=PLANE('',#777);
#88=PLANE('',#779);
#89=PLANE('',#780);
#90=PLANE('',#781);
#91=PLANE('',#785);
#92=PLANE('',#788);
#93=PLANE('',#790);
#94=PLANE('',#792);
#95=PLANE('',#793);
#96=CYLINDRICAL_SURFACE('',#716,20.5);
#97=CYLINDRICAL_SURFACE('',#718,1.15);
#98=CYLINDRICAL_SURFACE('',#721,1.15);
#99=CYLINDRICAL_SURFACE('',#724,1.15);
#100=CYLINDRICAL_SURFACE('',#739,1.15);
#101=CYLINDRICAL_SURFACE('',#752,1.15);
#102=CYLINDRICAL_SURFACE('',#758,1.15);
#103=CYLINDRICAL_SURFACE('',#761,1.4);
#104=CYLINDRICAL_SURFACE('',#765,1.4);
#105=CYLINDRICAL_SURFACE('',#769,1.4);
#106=CYLINDRICAL_SURFACE('',#773,1.4);
#107=CYLINDRICAL_SURFACE('',#783,4.99999999999999);
#108=CYLINDRICAL_SURFACE('',#786,5.);
#109=CYLINDRICAL_SURFACE('',#789,5.00000000000001);
#110=CYLINDRICAL_SURFACE('',#791,4.99999999999999);
#111=B_SPLINE_CURVE_WITH_KNOTS('',3,(#1013,#1014,#1015,#1016,#1017,#1018,
#1019,#1020,#1021,#1022,#1023,#1024,#1025,#1026,#1027,#1028,#1029,#1030),
 .UNSPECIFIED.,.F.,.F.,(4,2,2,2,2,2,2,2,4),(0.842836005718362,0.90127335837875,
0.95348413485258,0.968290050151571,0.983095965450561,0.997901880749552,
1.01270779604854,1.06491857252237,1.12335592518276),.UNSPECIFIED.);
#112=B_SPLINE_CURVE_WITH_KNOTS('',3,(#1034,#1035,#1036,#1037,#1038,#1039,
#1040,#1041,#1042,#1043,#1044,#1045,#1046,#1047,#1048,#1049,#1050,#1051),
 .UNSPECIFIED.,.F.,.F.,(4,2,2,2,2,2,2,2,4),(0.842836005718361,0.90127335837875,
0.95348413485258,0.968290050151571,0.983095965450561,0.997901880749552,
1.01270779604854,1.06491857252237,1.12335592518276),.UNSPECIFIED.);
#113=B_SPLINE_CURVE_WITH_KNOTS('',3,(#1055,#1056,#1057,#1058,#1059,#1060,
#1061,#1062,#1063,#1064,#1065,#1066,#1067,#1068,#1069,#1070,#1071,#1072),
 .UNSPECIFIED.,.F.,.F.,(4,2,2,2,2,2,2,2,4),(0.842836005718361,0.901273358378751,
0.95348413485258,0.968290050151571,0.983095965450562,0.997901880749552,
1.01270779604854,1.06491857252237,1.12335592518276),.UNSPECIFIED.);
#114=B_SPLINE_CURVE_WITH_KNOTS('',3,(#1076,#1077,#1078,#1079,#1080,#1081,
#1082,#1083,#1084,#1085,#1086,#1087,#1088,#1089,#1090,#1091,#1092,#1093),
 .UNSPECIFIED.,.F.,.F.,(4,2,2,2,2,2,2,2,4),(0.842836005718365,0.901273358378754,
0.953484134852582,0.968290050151573,0.983095965450564,0.997901880749555,
1.01270779604855,1.06491857252237,1.12335592518276),.UNSPECIFIED.);
#115=B_SPLINE_CURVE_WITH_KNOTS('',3,(#1097,#1098,#1099,#1100,#1101,#1102,
#1103,#1104,#1105,#1106,#1107,#1108,#1109,#1110,#1111,#1112,#1113,#1114),
 .UNSPECIFIED.,.F.,.F.,(4,2,2,2,2,2,2,2,4),(0.842836005718365,0.901273358378752,
0.953484134852582,0.968290050151573,0.983095965450563,0.997901880749554,
1.01270779604854,1.06491857252237,1.12335592518276),.UNSPECIFIED.);
#116=B_SPLINE_CURVE_WITH_KNOTS('',3,(#1118,#1119,#1120,#1121,#1122,#1123,
#1124,#1125,#1126,#1127,#1128,#1129,#1130,#1131,#1132,#1133,#1134,#1135),
 .UNSPECIFIED.,.F.,.F.,(4,2,2,2,2,2,2,2,4),(0.842836005718363,0.90127335837875,
0.953484134852579,0.96829005015157,0.983095965450561,0.997901880749552,
1.01270779604854,1.06491857252237,1.12335592518276),.UNSPECIFIED.);
#117=B_SPLINE_CURVE_WITH_KNOTS('',3,(#1144,#1145,#1146,#1147,#1148,#1149),
 .UNSPECIFIED.,.F.,.F.,(4,2,4),(0.744941730937501,0.782809481277687,0.826828089973066),
 .UNSPECIFIED.);
#118=B_SPLINE_CURVE_WITH_KNOTS('',3,(#1152,#1153,#1154,#1155,#1156,#1157),
 .UNSPECIFIED.,.F.,.F.,(4,2,4),(0.452026596909148,0.496045205604526,0.533912955944713),
 .UNSPECIFIED.);
#119=B_SPLINE_CURVE_WITH_KNOTS('',3,(#1162,#1163,#1164,#1165,#1166,#1167),
 .UNSPECIFIED.,.F.,.F.,(4,2,4),(0.744941730937502,0.782809481277687,0.826828089973066),
 .UNSPECIFIED.);
#120=B_SPLINE_CURVE_WITH_KNOTS('',3,(#1170,#1171,#1172,#1173,#1174,#1175),
 .UNSPECIFIED.,.F.,.F.,(4,2,4),(0.452026596909148,0.496045205604527,0.533912955944713),
 .UNSPECIFIED.);
#121=B_SPLINE_CURVE_WITH_KNOTS('',3,(#1178,#1179,#1180,#1181,#1182,#1183),
 .UNSPECIFIED.,.F.,.F.,(4,2,4),(0.744941730937501,0.782809481277687,0.826828089973066),
 .UNSPECIFIED.);
#122=B_SPLINE_CURVE_WITH_KNOTS('',3,(#1186,#1187,#1188,#1189,#1190,#1191),
 .UNSPECIFIED.,.F.,.F.,(4,2,4),(0.452026596909148,0.496045205604527,0.533912955944713),
 .UNSPECIFIED.);
#123=B_SPLINE_CURVE_WITH_KNOTS('',3,(#1200,#1201,#1202,#1203,#1204,#1205),
 .UNSPECIFIED.,.F.,.F.,(4,2,4),(0.452026596909148,0.496045205604527,0.533912955944714),
 .UNSPECIFIED.);
#124=B_SPLINE_CURVE_WITH_KNOTS('',3,(#1209,#1210,#1211,#1212,#1213,#1214),
 .UNSPECIFIED.,.F.,.F.,(4,2,4),(0.452026596909147,0.496045205604526,0.533912955944713),
 .UNSPECIFIED.);
#125=B_SPLINE_CURVE_WITH_KNOTS('',3,(#1217,#1218,#1219,#1220,#1221,#1222),
 .UNSPECIFIED.,.F.,.F.,(4,2,4),(0.744941730937501,0.782809481277687,0.826828089973066),
 .UNSPECIFIED.);
#126=B_SPLINE_CURVE_WITH_KNOTS('',3,(#1225,#1226,#1227,#1228,#1229,#1230),
 .UNSPECIFIED.,.F.,.F.,(4,2,4),(0.452026596909147,0.496045205604526,0.533912955944712),
 .UNSPECIFIED.);
#127=B_SPLINE_CURVE_WITH_KNOTS('',3,(#1233,#1234,#1235,#1236,#1237,#1238),
 .UNSPECIFIED.,.F.,.F.,(4,2,4),(0.7449417309375,0.782809481277687,0.826828089973066),
 .UNSPECIFIED.);
#128=B_SPLINE_CURVE_WITH_KNOTS('',3,(#1242,#1243,#1244,#1245,#1246,#1247),
 .UNSPECIFIED.,.F.,.F.,(4,2,4),(0.744941730937501,0.782809481277687,0.826828089973066),
 .UNSPECIFIED.);
#129=FACE_BOUND('',#194,.T.);
#130=FACE_BOUND('',#196,.T.);
#131=FACE_BOUND('',#198,.T.);
#132=FACE_BOUND('',#200,.T.);
#133=FACE_BOUND('',#202,.T.);
#134=FACE_BOUND('',#204,.T.);
#135=FACE_BOUND('',#212,.T.);
#136=FACE_BOUND('',#214,.T.);
#137=FACE_BOUND('',#218,.T.);
#138=FACE_BOUND('',#224,.T.);
#139=FACE_BOUND('',#227,.T.);
#140=FACE_BOUND('',#230,.T.);
#141=FACE_BOUND('',#233,.T.);
#142=FACE_BOUND('',#236,.T.);
#143=FACE_BOUND('',#239,.T.);
#144=FACE_BOUND('',#240,.T.);
#145=FACE_BOUND('',#241,.T.);
#146=FACE_BOUND('',#244,.T.);
#147=FACE_BOUND('',#245,.T.);
#148=FACE_BOUND('',#246,.T.);
#149=FACE_BOUND('',#256,.T.);
#150=FACE_OUTER_BOUND('',#193,.T.);
#151=FACE_OUTER_BOUND('',#195,.T.);
#152=FACE_OUTER_BOUND('',#197,.T.);
#153=FACE_OUTER_BOUND('',#199,.T.);
#154=FACE_OUTER_BOUND('',#201,.T.);
#155=FACE_OUTER_BOUND('',#203,.T.);
#156=FACE_OUTER_BOUND('',#205,.T.);
#157=FACE_OUTER_BOUND('',#206,.T.);
#158=FACE_OUTER_BOUND('',#207,.T.);
#159=FACE_OUTER_BOUND('',#208,.T.);
#160=FACE_OUTER_BOUND('',#209,.T.);
#161=FACE_OUTER_BOUND('',#210,.T.);
#162=FACE_OUTER_BOUND('',#211,.T.);
#163=FACE_OUTER_BOUND('',#213,.T.);
#164=FACE_OUTER_BOUND('',#215,.T.);
#165=FACE_OUTER_BOUND('',#216,.T.);
#166=FACE_OUTER_BOUND('',#217,.T.);
#167=FACE_OUTER_BOUND('',#219,.T.);
#168=FACE_OUTER_BOUND('',#220,.T.);
#169=FACE_OUTER_BOUND('',#221,.T.);
#170=FACE_OUTER_BOUND('',#222,.T.);
#171=FACE_OUTER_BOUND('',#223,.T.);
#172=FACE_OUTER_BOUND('',#225,.T.);
#173=FACE_OUTER_BOUND('',#226,.T.);
#174=FACE_OUTER_BOUND('',#228,.T.);
#175=FACE_OUTER_BOUND('',#229,.T.);
#176=FACE_OUTER_BOUND('',#231,.T.);
#177=FACE_OUTER_BOUND('',#232,.T.);
#178=FACE_OUTER_BOUND('',#234,.T.);
#179=FACE_OUTER_BOUND('',#235,.T.);
#180=FACE_OUTER_BOUND('',#237,.T.);
#181=FACE_OUTER_BOUND('',#238,.T.);
#182=FACE_OUTER_BOUND('',#242,.T.);
#183=FACE_OUTER_BOUND('',#243,.T.);
#184=FACE_OUTER_BOUND('',#247,.T.);
#185=FACE_OUTER_BOUND('',#248,.T.);
#186=FACE_OUTER_BOUND('',#249,.T.);
#187=FACE_OUTER_BOUND('',#250,.T.);
#188=FACE_OUTER_BOUND('',#251,.T.);
#189=FACE_OUTER_BOUND('',#252,.T.);
#190=FACE_OUTER_BOUND('',#253,.T.);
#191=FACE_OUTER_BOUND('',#254,.T.);
#192=FACE_OUTER_BOUND('',#255,.T.);
#193=EDGE_LOOP('',(#460));
#194=EDGE_LOOP('',(#461));
#195=EDGE_LOOP('',(#462,#463,#464,#465,#466,#467,#468,#469,#470,#471,#472,
#473));
#196=EDGE_LOOP('',(#474));
#197=EDGE_LOOP('',(#475));
#198=EDGE_LOOP('',(#476));
#199=EDGE_LOOP('',(#477));
#200=EDGE_LOOP('',(#478,#479,#480,#481));
#201=EDGE_LOOP('',(#482));
#202=EDGE_LOOP('',(#483,#484,#485,#486));
#203=EDGE_LOOP('',(#487,#488,#489,#490));
#204=EDGE_LOOP('',(#491));
#205=EDGE_LOOP('',(#492,#493,#494,#495));
#206=EDGE_LOOP('',(#496,#497,#498,#499));
#207=EDGE_LOOP('',(#500,#501,#502,#503));
#208=EDGE_LOOP('',(#504,#505,#506,#507));
#209=EDGE_LOOP('',(#508,#509,#510,#511));
#210=EDGE_LOOP('',(#512,#513,#514,#515));
#211=EDGE_LOOP('',(#516,#517,#518,#519));
#212=EDGE_LOOP('',(#520));
#213=EDGE_LOOP('',(#521,#522,#523,#524,#525,#526,#527,#528));
#214=EDGE_LOOP('',(#529,#530,#531,#532,#533,#534,#535,#536,#537,#538,#539,
#540));
#215=EDGE_LOOP('',(#541));
#216=EDGE_LOOP('',(#542));
#217=EDGE_LOOP('',(#543,#544,#545,#546));
#218=EDGE_LOOP('',(#547));
#219=EDGE_LOOP('',(#548));
#220=EDGE_LOOP('',(#549));
#221=EDGE_LOOP('',(#550));
#222=EDGE_LOOP('',(#551));
#223=EDGE_LOOP('',(#552,#553,#554,#555));
#224=EDGE_LOOP('',(#556));
#225=EDGE_LOOP('',(#557));
#226=EDGE_LOOP('',(#558));
#227=EDGE_LOOP('',(#559));
#228=EDGE_LOOP('',(#560));
#229=EDGE_LOOP('',(#561));
#230=EDGE_LOOP('',(#562));
#231=EDGE_LOOP('',(#563));
#232=EDGE_LOOP('',(#564));
#233=EDGE_LOOP('',(#565));
#234=EDGE_LOOP('',(#566));
#235=EDGE_LOOP('',(#567));
#236=EDGE_LOOP('',(#568));
#237=EDGE_LOOP('',(#569,#570,#571,#572));
#238=EDGE_LOOP('',(#573,#574,#575,#576));
#239=EDGE_LOOP('',(#577));
#240=EDGE_LOOP('',(#578));
#241=EDGE_LOOP('',(#579,#580,#581,#582,#583));
#242=EDGE_LOOP('',(#584,#585,#586,#587));
#243=EDGE_LOOP('',(#588,#589,#590,#591));
#244=EDGE_LOOP('',(#592));
#245=EDGE_LOOP('',(#593));
#246=EDGE_LOOP('',(#594,#595,#596,#597,#598));
#247=EDGE_LOOP('',(#599,#600,#601,#602));
#248=EDGE_LOOP('',(#603,#604,#605,#606));
#249=EDGE_LOOP('',(#607,#608,#609,#610));
#250=EDGE_LOOP('',(#611,#612,#613,#614,#615));
#251=EDGE_LOOP('',(#616,#617,#618,#619));
#252=EDGE_LOOP('',(#620,#621,#622,#623,#624,#625,#626,#627));
#253=EDGE_LOOP('',(#628,#629,#630,#631));
#254=EDGE_LOOP('',(#632,#633,#634,#635,#636));
#255=EDGE_LOOP('',(#637,#638,#639,#640,#641,#642,#643,#644));
#256=EDGE_LOOP('',(#645));
#257=CIRCLE('',#707,20.5);
#258=CIRCLE('',#708,21.2653668647302);
#259=CIRCLE('',#710,21.9142135623731);
#260=CIRCLE('',#711,21.9142135623731);
#261=CIRCLE('',#712,21.9142135623731);
#262=CIRCLE('',#713,21.9142135623731);
#263=CIRCLE('',#714,21.9142135623731);
#264=CIRCLE('',#715,21.9142135623731);
#265=CIRCLE('',#717,20.5);
#266=CIRCLE('',#719,1.15);
#267=CIRCLE('',#720,1.15);
#268=CIRCLE('',#722,1.15);
#269=CIRCLE('',#723,1.15);
#270=CIRCLE('',#725,1.15);
#271=CIRCLE('',#726,1.15);
#272=CIRCLE('',#728,22.5);
#273=CIRCLE('',#730,22.5);
#274=CIRCLE('',#732,22.5);
#275=CIRCLE('',#734,22.5);
#276=CIRCLE('',#736,22.5);
#277=CIRCLE('',#738,22.5);
#278=CIRCLE('',#740,1.15);
#279=CIRCLE('',#741,1.15);
#280=CIRCLE('',#743,4.99999999999999);
#281=CIRCLE('',#744,5.00000000000001);
#282=CIRCLE('',#745,5.);
#283=CIRCLE('',#746,4.99999999999999);
#284=CIRCLE('',#747,1.15);
#285=CIRCLE('',#748,1.15);
#286=CIRCLE('',#751,1.15);
#287=CIRCLE('',#757,1.15);
#288=CIRCLE('',#760,1.4);
#289=CIRCLE('',#762,1.4);
#290=CIRCLE('',#764,1.4);
#291=CIRCLE('',#766,1.4);
#292=CIRCLE('',#768,1.4);
#293=CIRCLE('',#770,1.4);
#294=CIRCLE('',#772,1.4);
#295=CIRCLE('',#774,1.4);
#296=CIRCLE('',#778,5.00000000000003);
#297=CIRCLE('',#782,5.00000000000001);
#298=CIRCLE('',#784,4.99999999999999);
#299=CIRCLE('',#787,5.);
#300=VERTEX_POINT('',#1006);
#301=VERTEX_POINT('',#1008);
#302=VERTEX_POINT('',#1011);
#303=VERTEX_POINT('',#1012);
#304=VERTEX_POINT('',#1031);
#305=VERTEX_POINT('',#1033);
#306=VERTEX_POINT('',#1052);
#307=VERTEX_POINT('',#1054);
#308=VERTEX_POINT('',#1073);
#309=VERTEX_POINT('',#1075);
#310=VERTEX_POINT('',#1094);
#311=VERTEX_POINT('',#1096);
#312=VERTEX_POINT('',#1115);
#313=VERTEX_POINT('',#1117);
#314=VERTEX_POINT('',#1138);
#315=VERTEX_POINT('',#1141);
#316=VERTEX_POINT('',#1143);
#317=VERTEX_POINT('',#1150);
#318=VERTEX_POINT('',#1159);
#319=VERTEX_POINT('',#1161);
#320=VERTEX_POINT('',#1168);
#321=VERTEX_POINT('',#1177);
#322=VERTEX_POINT('',#1184);
#323=VERTEX_POINT('',#1192);
#324=VERTEX_POINT('',#1199);
#325=VERTEX_POINT('',#1208);
#326=VERTEX_POINT('',#1215);
#327=VERTEX_POINT('',#1224);
#328=VERTEX_POINT('',#1231);
#329=VERTEX_POINT('',#1240);
#330=VERTEX_POINT('',#1250);
#331=VERTEX_POINT('',#1253);
#332=VERTEX_POINT('',#1254);
#333=VERTEX_POINT('',#1256);
#334=VERTEX_POINT('',#1258);
#335=VERTEX_POINT('',#1260);
#336=VERTEX_POINT('',#1262);
#337=VERTEX_POINT('',#1264);
#338=VERTEX_POINT('',#1266);
#339=VERTEX_POINT('',#1273);
#340=VERTEX_POINT('',#1280);
#341=VERTEX_POINT('',#1284);
#342=VERTEX_POINT('',#1287);
#343=VERTEX_POINT('',#1290);
#344=VERTEX_POINT('',#1293);
#345=VERTEX_POINT('',#1296);
#346=VERTEX_POINT('',#1299);
#347=VERTEX_POINT('',#1302);
#348=VERTEX_POINT('',#1305);
#349=VERTEX_POINT('',#1308);
#350=VERTEX_POINT('',#1309);
#351=VERTEX_POINT('',#1311);
#352=VERTEX_POINT('',#1313);
#353=VERTEX_POINT('',#1317);
#354=VERTEX_POINT('',#1319);
#355=VERTEX_POINT('',#1323);
#356=VERTEX_POINT('',#1325);
#357=VERTEX_POINT('',#1329);
#358=VERTEX_POINT('',#1330);
#359=VERTEX_POINT('',#1332);
#360=VERTEX_POINT('',#1334);
#361=VERTEX_POINT('',#1338);
#362=VERTEX_POINT('',#1340);
#363=VERTEX_POINT('',#1344);
#364=VERTEX_POINT('',#1346);
#365=VERTEX_POINT('',#1350);
#366=VERTEX_POINT('',#1355);
#367=EDGE_CURVE('',#300,#300,#257,.T.);
#368=EDGE_CURVE('',#301,#301,#258,.T.);
#369=EDGE_CURVE('',#302,#303,#111,.T.);
#370=EDGE_CURVE('',#302,#304,#259,.T.);
#371=EDGE_CURVE('',#305,#304,#112,.T.);
#372=EDGE_CURVE('',#305,#306,#260,.T.);
#373=EDGE_CURVE('',#307,#306,#113,.T.);
#374=EDGE_CURVE('',#307,#308,#261,.T.);
#375=EDGE_CURVE('',#309,#308,#114,.T.);
#376=EDGE_CURVE('',#309,#310,#262,.T.);
#377=EDGE_CURVE('',#311,#310,#115,.T.);
#378=EDGE_CURVE('',#311,#312,#263,.T.);
#379=EDGE_CURVE('',#313,#312,#116,.T.);
#380=EDGE_CURVE('',#313,#303,#264,.T.);
#381=EDGE_CURVE('',#314,#314,#265,.T.);
#382=EDGE_CURVE('',#315,#315,#266,.T.);
#383=EDGE_CURVE('',#308,#316,#117,.T.);
#384=EDGE_CURVE('',#317,#316,#267,.T.);
#385=EDGE_CURVE('',#317,#309,#118,.T.);
#386=EDGE_CURVE('',#318,#318,#268,.T.);
#387=EDGE_CURVE('',#306,#319,#119,.T.);
#388=EDGE_CURVE('',#320,#319,#269,.T.);
#389=EDGE_CURVE('',#320,#307,#120,.T.);
#390=EDGE_CURVE('',#304,#321,#121,.T.);
#391=EDGE_CURVE('',#322,#321,#270,.T.);
#392=EDGE_CURVE('',#322,#305,#122,.T.);
#393=EDGE_CURVE('',#323,#323,#271,.T.);
#394=EDGE_CURVE('',#320,#316,#272,.T.);
#395=EDGE_CURVE('',#322,#319,#273,.T.);
#396=EDGE_CURVE('',#324,#302,#123,.T.);
#397=EDGE_CURVE('',#324,#321,#274,.T.);
#398=EDGE_CURVE('',#325,#313,#124,.T.);
#399=EDGE_CURVE('',#325,#326,#275,.T.);
#400=EDGE_CURVE('',#303,#326,#125,.T.);
#401=EDGE_CURVE('',#327,#311,#126,.T.);
#402=EDGE_CURVE('',#327,#328,#276,.T.);
#403=EDGE_CURVE('',#312,#328,#127,.T.);
#404=EDGE_CURVE('',#317,#329,#277,.T.);
#405=EDGE_CURVE('',#310,#329,#128,.T.);
#406=EDGE_CURVE('',#324,#326,#278,.T.);
#407=EDGE_CURVE('',#330,#330,#279,.T.);
#408=EDGE_CURVE('',#331,#332,#14,.T.);
#409=EDGE_CURVE('',#332,#333,#280,.T.);
#410=EDGE_CURVE('',#333,#334,#15,.T.);
#411=EDGE_CURVE('',#334,#335,#281,.T.);
#412=EDGE_CURVE('',#335,#336,#16,.T.);
#413=EDGE_CURVE('',#336,#337,#282,.T.);
#414=EDGE_CURVE('',#337,#338,#17,.T.);
#415=EDGE_CURVE('',#338,#331,#283,.T.);
#416=EDGE_CURVE('',#325,#328,#284,.T.);
#417=EDGE_CURVE('',#327,#329,#285,.T.);
#418=EDGE_CURVE('',#339,#339,#286,.T.);
#419=EDGE_CURVE('',#340,#340,#287,.T.);
#420=EDGE_CURVE('',#341,#341,#288,.T.);
#421=EDGE_CURVE('',#342,#342,#289,.T.);
#422=EDGE_CURVE('',#343,#343,#290,.T.);
#423=EDGE_CURVE('',#344,#344,#291,.T.);
#424=EDGE_CURVE('',#345,#345,#292,.T.);
#425=EDGE_CURVE('',#346,#346,#293,.T.);
#426=EDGE_CURVE('',#347,#347,#294,.T.);
#427=EDGE_CURVE('',#348,#348,#295,.T.);
#428=EDGE_CURVE('',#349,#350,#18,.T.);
#429=EDGE_CURVE('',#349,#351,#19,.T.);
#430=EDGE_CURVE('',#352,#351,#20,.T.);
#431=EDGE_CURVE('',#350,#352,#21,.T.);
#432=EDGE_CURVE('',#350,#353,#22,.T.);
#433=EDGE_CURVE('',#354,#352,#23,.T.);
#434=EDGE_CURVE('',#353,#354,#24,.T.);
#435=EDGE_CURVE('',#355,#354,#25,.T.);
#436=EDGE_CURVE('',#351,#356,#26,.T.);
#437=EDGE_CURVE('',#356,#355,#296,.T.);
#438=EDGE_CURVE('',#357,#358,#27,.T.);
#439=EDGE_CURVE('',#357,#359,#28,.T.);
#440=EDGE_CURVE('',#360,#359,#29,.T.);
#441=EDGE_CURVE('',#358,#360,#30,.T.);
#442=EDGE_CURVE('',#358,#361,#31,.T.);
#443=EDGE_CURVE('',#362,#360,#32,.T.);
#444=EDGE_CURVE('',#361,#362,#33,.T.);
#445=EDGE_CURVE('',#359,#363,#34,.T.);
#446=EDGE_CURVE('',#363,#364,#297,.T.);
#447=EDGE_CURVE('',#364,#362,#35,.T.);
#448=EDGE_CURVE('',#353,#365,#298,.T.);
#449=EDGE_CURVE('',#353,#331,#36,.T.);
#450=EDGE_CURVE('',#365,#338,#37,.T.);
#451=EDGE_CURVE('',#365,#366,#38,.T.);
#452=EDGE_CURVE('',#366,#337,#39,.T.);
#453=EDGE_CURVE('',#366,#357,#299,.T.);
#454=EDGE_CURVE('',#357,#336,#40,.T.);
#455=EDGE_CURVE('',#335,#363,#41,.T.);
#456=EDGE_CURVE('',#334,#364,#42,.T.);
#457=EDGE_CURVE('',#333,#356,#43,.T.);
#458=EDGE_CURVE('',#361,#349,#44,.T.);
#459=EDGE_CURVE('',#355,#332,#45,.T.);
#460=ORIENTED_EDGE('',*,*,#367,.T.);
#461=ORIENTED_EDGE('',*,*,#368,.T.);
#462=ORIENTED_EDGE('',*,*,#369,.F.);
#463=ORIENTED_EDGE('',*,*,#370,.T.);
#464=ORIENTED_EDGE('',*,*,#371,.F.);
#465=ORIENTED_EDGE('',*,*,#372,.T.);
#466=ORIENTED_EDGE('',*,*,#373,.F.);
#467=ORIENTED_EDGE('',*,*,#374,.T.);
#468=ORIENTED_EDGE('',*,*,#375,.F.);
#469=ORIENTED_EDGE('',*,*,#376,.T.);
#470=ORIENTED_EDGE('',*,*,#377,.F.);
#471=ORIENTED_EDGE('',*,*,#378,.T.);
#472=ORIENTED_EDGE('',*,*,#379,.F.);
#473=ORIENTED_EDGE('',*,*,#380,.T.);
#474=ORIENTED_EDGE('',*,*,#368,.F.);
#475=ORIENTED_EDGE('',*,*,#381,.F.);
#476=ORIENTED_EDGE('',*,*,#367,.F.);
#477=ORIENTED_EDGE('',*,*,#382,.T.);
#478=ORIENTED_EDGE('',*,*,#375,.T.);
#479=ORIENTED_EDGE('',*,*,#383,.T.);
#480=ORIENTED_EDGE('',*,*,#384,.F.);
#481=ORIENTED_EDGE('',*,*,#385,.T.);
#482=ORIENTED_EDGE('',*,*,#386,.T.);
#483=ORIENTED_EDGE('',*,*,#373,.T.);
#484=ORIENTED_EDGE('',*,*,#387,.T.);
#485=ORIENTED_EDGE('',*,*,#388,.F.);
#486=ORIENTED_EDGE('',*,*,#389,.T.);
#487=ORIENTED_EDGE('',*,*,#371,.T.);
#488=ORIENTED_EDGE('',*,*,#390,.T.);
#489=ORIENTED_EDGE('',*,*,#391,.F.);
#490=ORIENTED_EDGE('',*,*,#392,.T.);
#491=ORIENTED_EDGE('',*,*,#393,.T.);
#492=ORIENTED_EDGE('',*,*,#374,.F.);
#493=ORIENTED_EDGE('',*,*,#389,.F.);
#494=ORIENTED_EDGE('',*,*,#394,.T.);
#495=ORIENTED_EDGE('',*,*,#383,.F.);
#496=ORIENTED_EDGE('',*,*,#372,.F.);
#497=ORIENTED_EDGE('',*,*,#392,.F.);
#498=ORIENTED_EDGE('',*,*,#395,.T.);
#499=ORIENTED_EDGE('',*,*,#387,.F.);
#500=ORIENTED_EDGE('',*,*,#370,.F.);
#501=ORIENTED_EDGE('',*,*,#396,.F.);
#502=ORIENTED_EDGE('',*,*,#397,.T.);
#503=ORIENTED_EDGE('',*,*,#390,.F.);
#504=ORIENTED_EDGE('',*,*,#380,.F.);
#505=ORIENTED_EDGE('',*,*,#398,.F.);
#506=ORIENTED_EDGE('',*,*,#399,.T.);
#507=ORIENTED_EDGE('',*,*,#400,.F.);
#508=ORIENTED_EDGE('',*,*,#378,.F.);
#509=ORIENTED_EDGE('',*,*,#401,.F.);
#510=ORIENTED_EDGE('',*,*,#402,.T.);
#511=ORIENTED_EDGE('',*,*,#403,.F.);
#512=ORIENTED_EDGE('',*,*,#376,.F.);
#513=ORIENTED_EDGE('',*,*,#385,.F.);
#514=ORIENTED_EDGE('',*,*,#404,.T.);
#515=ORIENTED_EDGE('',*,*,#405,.F.);
#516=ORIENTED_EDGE('',*,*,#369,.T.);
#517=ORIENTED_EDGE('',*,*,#400,.T.);
#518=ORIENTED_EDGE('',*,*,#406,.F.);
#519=ORIENTED_EDGE('',*,*,#396,.T.);
#520=ORIENTED_EDGE('',*,*,#407,.T.);
#521=ORIENTED_EDGE('',*,*,#408,.T.);
#522=ORIENTED_EDGE('',*,*,#409,.T.);
#523=ORIENTED_EDGE('',*,*,#410,.T.);
#524=ORIENTED_EDGE('',*,*,#411,.T.);
#525=ORIENTED_EDGE('',*,*,#412,.T.);
#526=ORIENTED_EDGE('',*,*,#413,.T.);
#527=ORIENTED_EDGE('',*,*,#414,.T.);
#528=ORIENTED_EDGE('',*,*,#415,.T.);
#529=ORIENTED_EDGE('',*,*,#395,.F.);
#530=ORIENTED_EDGE('',*,*,#391,.T.);
#531=ORIENTED_EDGE('',*,*,#397,.F.);
#532=ORIENTED_EDGE('',*,*,#406,.T.);
#533=ORIENTED_EDGE('',*,*,#399,.F.);
#534=ORIENTED_EDGE('',*,*,#416,.T.);
#535=ORIENTED_EDGE('',*,*,#402,.F.);
#536=ORIENTED_EDGE('',*,*,#417,.T.);
#537=ORIENTED_EDGE('',*,*,#404,.F.);
#538=ORIENTED_EDGE('',*,*,#384,.T.);
#539=ORIENTED_EDGE('',*,*,#394,.F.);
#540=ORIENTED_EDGE('',*,*,#388,.T.);
#541=ORIENTED_EDGE('',*,*,#407,.F.);
#542=ORIENTED_EDGE('',*,*,#418,.F.);
#543=ORIENTED_EDGE('',*,*,#377,.T.);
#544=ORIENTED_EDGE('',*,*,#405,.T.);
#545=ORIENTED_EDGE('',*,*,#417,.F.);
#546=ORIENTED_EDGE('',*,*,#401,.T.);
#547=ORIENTED_EDGE('',*,*,#418,.T.);
#548=ORIENTED_EDGE('',*,*,#386,.F.);
#549=ORIENTED_EDGE('',*,*,#393,.F.);
#550=ORIENTED_EDGE('',*,*,#382,.F.);
#551=ORIENTED_EDGE('',*,*,#419,.F.);
#552=ORIENTED_EDGE('',*,*,#379,.T.);
#553=ORIENTED_EDGE('',*,*,#403,.T.);
#554=ORIENTED_EDGE('',*,*,#416,.F.);
#555=ORIENTED_EDGE('',*,*,#398,.T.);
#556=ORIENTED_EDGE('',*,*,#419,.T.);
#557=ORIENTED_EDGE('',*,*,#420,.T.);
#558=ORIENTED_EDGE('',*,*,#421,.F.);
#559=ORIENTED_EDGE('',*,*,#420,.F.);
#560=ORIENTED_EDGE('',*,*,#422,.T.);
#561=ORIENTED_EDGE('',*,*,#423,.F.);
#562=ORIENTED_EDGE('',*,*,#422,.F.);
#563=ORIENTED_EDGE('',*,*,#424,.T.);
#564=ORIENTED_EDGE('',*,*,#425,.F.);
#565=ORIENTED_EDGE('',*,*,#424,.F.);
#566=ORIENTED_EDGE('',*,*,#426,.T.);
#567=ORIENTED_EDGE('',*,*,#427,.F.);
#568=ORIENTED_EDGE('',*,*,#426,.F.);
#569=ORIENTED_EDGE('',*,*,#428,.F.);
#570=ORIENTED_EDGE('',*,*,#429,.T.);
#571=ORIENTED_EDGE('',*,*,#430,.F.);
#572=ORIENTED_EDGE('',*,*,#431,.F.);
#573=ORIENTED_EDGE('',*,*,#432,.F.);
#574=ORIENTED_EDGE('',*,*,#431,.T.);
#575=ORIENTED_EDGE('',*,*,#433,.F.);
#576=ORIENTED_EDGE('',*,*,#434,.F.);
#577=ORIENTED_EDGE('',*,*,#421,.T.);
#578=ORIENTED_EDGE('',*,*,#427,.T.);
#579=ORIENTED_EDGE('',*,*,#435,.T.);
#580=ORIENTED_EDGE('',*,*,#433,.T.);
#581=ORIENTED_EDGE('',*,*,#430,.T.);
#582=ORIENTED_EDGE('',*,*,#436,.T.);
#583=ORIENTED_EDGE('',*,*,#437,.T.);
#584=ORIENTED_EDGE('',*,*,#438,.F.);
#585=ORIENTED_EDGE('',*,*,#439,.T.);
#586=ORIENTED_EDGE('',*,*,#440,.F.);
#587=ORIENTED_EDGE('',*,*,#441,.F.);
#588=ORIENTED_EDGE('',*,*,#442,.F.);
#589=ORIENTED_EDGE('',*,*,#441,.T.);
#590=ORIENTED_EDGE('',*,*,#443,.F.);
#591=ORIENTED_EDGE('',*,*,#444,.F.);
#592=ORIENTED_EDGE('',*,*,#423,.T.);
#593=ORIENTED_EDGE('',*,*,#425,.T.);
#594=ORIENTED_EDGE('',*,*,#445,.T.);
#595=ORIENTED_EDGE('',*,*,#446,.T.);
#596=ORIENTED_EDGE('',*,*,#447,.T.);
#597=ORIENTED_EDGE('',*,*,#443,.T.);
#598=ORIENTED_EDGE('',*,*,#440,.T.);
#599=ORIENTED_EDGE('',*,*,#448,.F.);
#600=ORIENTED_EDGE('',*,*,#449,.T.);
#601=ORIENTED_EDGE('',*,*,#415,.F.);
#602=ORIENTED_EDGE('',*,*,#450,.F.);
#603=ORIENTED_EDGE('',*,*,#451,.F.);
#604=ORIENTED_EDGE('',*,*,#450,.T.);
#605=ORIENTED_EDGE('',*,*,#414,.F.);
#606=ORIENTED_EDGE('',*,*,#452,.F.);
#607=ORIENTED_EDGE('',*,*,#453,.F.);
#608=ORIENTED_EDGE('',*,*,#452,.T.);
#609=ORIENTED_EDGE('',*,*,#413,.F.);
#610=ORIENTED_EDGE('',*,*,#454,.F.);
#611=ORIENTED_EDGE('',*,*,#454,.T.);
#612=ORIENTED_EDGE('',*,*,#412,.F.);
#613=ORIENTED_EDGE('',*,*,#455,.T.);
#614=ORIENTED_EDGE('',*,*,#445,.F.);
#615=ORIENTED_EDGE('',*,*,#439,.F.);
#616=ORIENTED_EDGE('',*,*,#455,.F.);
#617=ORIENTED_EDGE('',*,*,#411,.F.);
#618=ORIENTED_EDGE('',*,*,#456,.T.);
#619=ORIENTED_EDGE('',*,*,#446,.F.);
#620=ORIENTED_EDGE('',*,*,#456,.F.);
#621=ORIENTED_EDGE('',*,*,#410,.F.);
#622=ORIENTED_EDGE('',*,*,#457,.T.);
#623=ORIENTED_EDGE('',*,*,#436,.F.);
#624=ORIENTED_EDGE('',*,*,#429,.F.);
#625=ORIENTED_EDGE('',*,*,#458,.F.);
#626=ORIENTED_EDGE('',*,*,#444,.T.);
#627=ORIENTED_EDGE('',*,*,#447,.F.);
#628=ORIENTED_EDGE('',*,*,#457,.F.);
#629=ORIENTED_EDGE('',*,*,#409,.F.);
#630=ORIENTED_EDGE('',*,*,#459,.F.);
#631=ORIENTED_EDGE('',*,*,#437,.F.);
#632=ORIENTED_EDGE('',*,*,#459,.T.);
#633=ORIENTED_EDGE('',*,*,#408,.F.);
#634=ORIENTED_EDGE('',*,*,#449,.F.);
#635=ORIENTED_EDGE('',*,*,#434,.T.);
#636=ORIENTED_EDGE('',*,*,#435,.F.);
#637=ORIENTED_EDGE('',*,*,#432,.T.);
#638=ORIENTED_EDGE('',*,*,#448,.T.);
#639=ORIENTED_EDGE('',*,*,#451,.T.);
#640=ORIENTED_EDGE('',*,*,#453,.T.);
#641=ORIENTED_EDGE('',*,*,#438,.T.);
#642=ORIENTED_EDGE('',*,*,#442,.T.);
#643=ORIENTED_EDGE('',*,*,#458,.T.);
#644=ORIENTED_EDGE('',*,*,#428,.T.);
#645=ORIENTED_EDGE('',*,*,#381,.T.);
#646=CONICAL_SURFACE('',#706,20.8826834323651,11.2500000000001);
#647=CONICAL_SURFACE('',#709,21.2071067811866,22.5000000000001);
#648=CONICAL_SURFACE('',#727,21.5,45.);
#649=CONICAL_SURFACE('',#729,21.5,45.);
#650=CONICAL_SURFACE('',#731,21.5,45.);
#651=CONICAL_SURFACE('',#733,21.5,45.);
#652=CONICAL_SURFACE('',#735,21.5,45.);
#653=CONICAL_SURFACE('',#737,21.5,45.);
#654=CONICAL_SURFACE('',#759,0.7,59.);
#655=CONICAL_SURFACE('',#763,0.7,59.);
#656=CONICAL_SURFACE('',#767,0.7,59.);
#657=CONICAL_SURFACE('',#771,0.7,59.);
#658=ADVANCED_FACE('',(#150,#129),#646,.F.);
#659=ADVANCED_FACE('',(#151,#130),#647,.F.);
#660=ADVANCED_FACE('',(#152,#131),#96,.F.);
#661=ADVANCED_FACE('',(#153,#132),#97,.F.);
#662=ADVANCED_FACE('',(#154,#133),#98,.F.);
#663=ADVANCED_FACE('',(#155,#134),#99,.F.);
#664=ADVANCED_FACE('',(#156),#648,.F.);
#665=ADVANCED_FACE('',(#157),#649,.F.);
#666=ADVANCED_FACE('',(#158),#650,.F.);
#667=ADVANCED_FACE('',(#159),#651,.F.);
#668=ADVANCED_FACE('',(#160),#652,.F.);
#669=ADVANCED_FACE('',(#161),#653,.F.);
#670=ADVANCED_FACE('',(#162,#135),#100,.F.);
#671=ADVANCED_FACE('',(#163,#136),#78,.T.);
#672=ADVANCED_FACE('',(#164),#79,.T.);
#673=ADVANCED_FACE('',(#165),#80,.T.);
#674=ADVANCED_FACE('',(#166,#137),#101,.F.);
#675=ADVANCED_FACE('',(#167),#81,.T.);
#676=ADVANCED_FACE('',(#168),#82,.T.);
#677=ADVANCED_FACE('',(#169),#83,.T.);
#678=ADVANCED_FACE('',(#170),#84,.T.);
#679=ADVANCED_FACE('',(#171,#138),#102,.F.);
#680=ADVANCED_FACE('',(#172),#654,.F.);
#681=ADVANCED_FACE('',(#173,#139),#103,.F.);
#682=ADVANCED_FACE('',(#174),#655,.F.);
#683=ADVANCED_FACE('',(#175,#140),#104,.F.);
#684=ADVANCED_FACE('',(#176),#656,.F.);
#685=ADVANCED_FACE('',(#177,#141),#105,.F.);
#686=ADVANCED_FACE('',(#178),#657,.F.);
#687=ADVANCED_FACE('',(#179,#142),#106,.F.);
#688=ADVANCED_FACE('',(#180),#85,.T.);
#689=ADVANCED_FACE('',(#181),#86,.T.);
#690=ADVANCED_FACE('',(#143,#144,#145),#87,.F.);
#691=ADVANCED_FACE('',(#182),#88,.T.);
#692=ADVANCED_FACE('',(#183),#89,.T.);
#693=ADVANCED_FACE('',(#146,#147,#148),#90,.F.);
#694=ADVANCED_FACE('',(#184),#107,.T.);
#695=ADVANCED_FACE('',(#185),#91,.T.);
#696=ADVANCED_FACE('',(#186),#108,.T.);
#697=ADVANCED_FACE('',(#187),#92,.T.);
#698=ADVANCED_FACE('',(#188),#109,.T.);
#699=ADVANCED_FACE('',(#189),#93,.T.);
#700=ADVANCED_FACE('',(#190),#110,.T.);
#701=ADVANCED_FACE('',(#191),#94,.T.);
#702=ADVANCED_FACE('',(#192,#149),#95,.F.);
#703=CLOSED_SHELL('',(#658,#659,#660,#661,#662,#663,#664,#665,#666,#667,
#668,#669,#670,#671,#672,#673,#674,#675,#676,#677,#678,#679,#680,#681,#682,
#683,#684,#685,#686,#687,#688,#689,#690,#691,#692,#693,#694,#695,#696,#697,
#698,#699,#700,#701,#702));
#704=MANIFOLD_SOLID_BREP('Volumenk\X\F6rper1',#703);
#705=AXIS2_PLACEMENT_3D('placement',#1004,#794,#795);
#706=AXIS2_PLACEMENT_3D('',#1005,#796,#797);
#707=AXIS2_PLACEMENT_3D('',#1007,#798,#799);
#708=AXIS2_PLACEMENT_3D('',#1009,#800,#801);
#709=AXIS2_PLACEMENT_3D('',#1010,#802,#803);
#710=AXIS2_PLACEMENT_3D('',#1032,#804,#805);
#711=AXIS2_PLACEMENT_3D('',#1053,#806,#807);
#712=AXIS2_PLACEMENT_3D('',#1074,#808,#809);
#713=AXIS2_PLACEMENT_3D('',#1095,#810,#811);
#714=AXIS2_PLACEMENT_3D('',#1116,#812,#813);
#715=AXIS2_PLACEMENT_3D('',#1136,#814,#815);
#716=AXIS2_PLACEMENT_3D('',#1137,#816,#817);
#717=AXIS2_PLACEMENT_3D('',#1139,#818,#819);
#718=AXIS2_PLACEMENT_3D('',#1140,#820,#821);
#719=AXIS2_PLACEMENT_3D('',#1142,#822,#823);
#720=AXIS2_PLACEMENT_3D('',#1151,#824,#825);
#721=AXIS2_PLACEMENT_3D('',#1158,#826,#827);
#722=AXIS2_PLACEMENT_3D('',#1160,#828,#829);
#723=AXIS2_PLACEMENT_3D('',#1169,#830,#831);
#724=AXIS2_PLACEMENT_3D('',#1176,#832,#833);
#725=AXIS2_PLACEMENT_3D('',#1185,#834,#835);
#726=AXIS2_PLACEMENT_3D('',#1193,#836,#837);
#727=AXIS2_PLACEMENT_3D('',#1194,#838,#839);
#728=AXIS2_PLACEMENT_3D('',#1195,#840,#841);
#729=AXIS2_PLACEMENT_3D('',#1196,#842,#843);
#730=AXIS2_PLACEMENT_3D('',#1197,#844,#845);
#731=AXIS2_PLACEMENT_3D('',#1198,#846,#847);
#732=AXIS2_PLACEMENT_3D('',#1206,#848,#849);
#733=AXIS2_PLACEMENT_3D('',#1207,#850,#851);
#734=AXIS2_PLACEMENT_3D('',#1216,#852,#853);
#735=AXIS2_PLACEMENT_3D('',#1223,#854,#855);
#736=AXIS2_PLACEMENT_3D('',#1232,#856,#857);
#737=AXIS2_PLACEMENT_3D('',#1239,#858,#859);
#738=AXIS2_PLACEMENT_3D('',#1241,#860,#861);
#739=AXIS2_PLACEMENT_3D('',#1248,#862,#863);
#740=AXIS2_PLACEMENT_3D('',#1249,#864,#865);
#741=AXIS2_PLACEMENT_3D('',#1251,#866,#867);
#742=AXIS2_PLACEMENT_3D('',#1252,#868,#869);
#743=AXIS2_PLACEMENT_3D('',#1257,#871,#872);
#744=AXIS2_PLACEMENT_3D('',#1261,#874,#875);
#745=AXIS2_PLACEMENT_3D('',#1265,#877,#878);
#746=AXIS2_PLACEMENT_3D('',#1268,#880,#881);
#747=AXIS2_PLACEMENT_3D('',#1269,#882,#883);
#748=AXIS2_PLACEMENT_3D('',#1270,#884,#885);
#749=AXIS2_PLACEMENT_3D('',#1271,#886,#887);
#750=AXIS2_PLACEMENT_3D('',#1272,#888,#889);
#751=AXIS2_PLACEMENT_3D('',#1274,#890,#891);
#752=AXIS2_PLACEMENT_3D('',#1275,#892,#893);
#753=AXIS2_PLACEMENT_3D('',#1276,#894,#895);
#754=AXIS2_PLACEMENT_3D('',#1277,#896,#897);
#755=AXIS2_PLACEMENT_3D('',#1278,#898,#899);
#756=AXIS2_PLACEMENT_3D('',#1279,#900,#901);
#757=AXIS2_PLACEMENT_3D('',#1281,#902,#903);
#758=AXIS2_PLACEMENT_3D('',#1282,#904,#905);
#759=AXIS2_PLACEMENT_3D('',#1283,#906,#907);
#760=AXIS2_PLACEMENT_3D('',#1285,#908,#909);
#761=AXIS2_PLACEMENT_3D('',#1286,#910,#911);
#762=AXIS2_PLACEMENT_3D('',#1288,#912,#913);
#763=AXIS2_PLACEMENT_3D('',#1289,#914,#915);
#764=AXIS2_PLACEMENT_3D('',#1291,#916,#917);
#765=AXIS2_PLACEMENT_3D('',#1292,#918,#919);
#766=AXIS2_PLACEMENT_3D('',#1294,#920,#921);
#767=AXIS2_PLACEMENT_3D('',#1295,#922,#923);
#768=AXIS2_PLACEMENT_3D('',#1297,#924,#925);
#769=AXIS2_PLACEMENT_3D('',#1298,#926,#927);
#770=AXIS2_PLACEMENT_3D('',#1300,#928,#929);
#771=AXIS2_PLACEMENT_3D('',#1301,#930,#931);
#772=AXIS2_PLACEMENT_3D('',#1303,#932,#933);
#773=AXIS2_PLACEMENT_3D('',#1304,#934,#935);
#774=AXIS2_PLACEMENT_3D('',#1306,#936,#937);
#775=AXIS2_PLACEMENT_3D('',#1307,#938,#939);
#776=AXIS2_PLACEMENT_3D('',#1316,#944,#945);
#777=AXIS2_PLACEMENT_3D('',#1322,#949,#950);
#778=AXIS2_PLACEMENT_3D('',#1327,#953,#954);
#779=AXIS2_PLACEMENT_3D('',#1328,#955,#956);
#780=AXIS2_PLACEMENT_3D('',#1337,#961,#962);
#781=AXIS2_PLACEMENT_3D('',#1343,#966,#967);
#782=AXIS2_PLACEMENT_3D('',#1347,#969,#970);
#783=AXIS2_PLACEMENT_3D('',#1349,#972,#973);
#784=AXIS2_PLACEMENT_3D('',#1351,#974,#975);
#785=AXIS2_PLACEMENT_3D('',#1354,#978,#979);
#786=AXIS2_PLACEMENT_3D('',#1358,#982,#983);
#787=AXIS2_PLACEMENT_3D('',#1359,#984,#985);
#788=AXIS2_PLACEMENT_3D('',#1361,#987,#988);
#789=AXIS2_PLACEMENT_3D('',#1363,#990,#991);
#790=AXIS2_PLACEMENT_3D('',#1365,#993,#994);
#791=AXIS2_PLACEMENT_3D('',#1368,#997,#998);
#792=AXIS2_PLACEMENT_3D('',#1370,#1000,#1001);
#793=AXIS2_PLACEMENT_3D('',#1371,#1002,#1003);
#794=DIRECTION('axis',(0.,0.,1.));
#795=DIRECTION('refdir',(1.,0.,0.));
#796=DIRECTION('center_axis',(0.,6.85660646715459E-016,1.));
#797=DIRECTION('ref_axis',(-1.,-3.26821136572E-017,0.));
#798=DIRECTION('center_axis',(0.,0.,-1.));
#799=DIRECTION('ref_axis',(-1.,0.,0.));
#800=DIRECTION('center_axis',(1.00533814759153E-032,-1.56624105996477E-016,
1.));
#801=DIRECTION('ref_axis',(-1.,-6.41879576068667E-017,0.));
#802=DIRECTION('center_axis',(0.,3.93021277150838E-016,1.));
#803=DIRECTION('ref_axis',(-1.,-3.16370023642261E-017,0.));
#804=DIRECTION('center_axis',(0.,0.,1.));
#805=DIRECTION('ref_axis',(-1.,-6.12323399573676E-017,0.));
#806=DIRECTION('center_axis',(0.,0.,1.));
#807=DIRECTION('ref_axis',(-1.,-6.12323399573676E-017,0.));
#808=DIRECTION('center_axis',(0.,0.,1.));
#809=DIRECTION('ref_axis',(-1.,-6.12323399573676E-017,0.));
#810=DIRECTION('center_axis',(0.,0.,1.));
#811=DIRECTION('ref_axis',(-1.,-6.12323399573676E-017,0.));
#812=DIRECTION('center_axis',(0.,0.,1.));
#813=DIRECTION('ref_axis',(-1.,-6.12323399573676E-017,0.));
#814=DIRECTION('center_axis',(0.,0.,1.));
#815=DIRECTION('ref_axis',(-1.,-6.12323399573676E-017,0.));
#816=DIRECTION('center_axis',(0.,0.,1.));
#817=DIRECTION('ref_axis',(-1.,0.,0.));
#818=DIRECTION('center_axis',(0.,0.,1.));
#819=DIRECTION('ref_axis',(-1.,0.,0.));
#820=DIRECTION('center_axis',(0.,0.,1.));
#821=DIRECTION('ref_axis',(-1.,0.,0.));
#822=DIRECTION('center_axis',(0.,0.,-1.));
#823=DIRECTION('ref_axis',(-1.,0.,0.));
#824=DIRECTION('center_axis',(0.,0.,-1.));
#825=DIRECTION('ref_axis',(-1.,0.,0.));
#826=DIRECTION('center_axis',(0.,0.,1.));
#827=DIRECTION('ref_axis',(-1.,0.,0.));
#828=DIRECTION('center_axis',(0.,0.,-1.));
#829=DIRECTION('ref_axis',(-1.,0.,0.));
#830=DIRECTION('center_axis',(0.,0.,-1.));
#831=DIRECTION('ref_axis',(-1.,0.,0.));
#832=DIRECTION('center_axis',(0.,0.,1.));
#833=DIRECTION('ref_axis',(-1.,0.,0.));
#834=DIRECTION('center_axis',(0.,0.,-1.));
#835=DIRECTION('ref_axis',(-1.,0.,0.));
#836=DIRECTION('center_axis',(0.,0.,-1.));
#837=DIRECTION('ref_axis',(-1.,0.,0.));
#838=DIRECTION('center_axis',(0.,0.,1.));
#839=DIRECTION('ref_axis',(-1.,0.,0.));
#840=DIRECTION('center_axis',(0.,0.,1.));
#841=DIRECTION('ref_axis',(-1.,0.,0.));
#842=DIRECTION('center_axis',(0.,0.,1.));
#843=DIRECTION('ref_axis',(-1.,0.,0.));
#844=DIRECTION('center_axis',(0.,0.,1.));
#845=DIRECTION('ref_axis',(-1.,0.,0.));
#846=DIRECTION('center_axis',(0.,0.,1.));
#847=DIRECTION('ref_axis',(-1.,0.,0.));
#848=DIRECTION('center_axis',(0.,0.,1.));
#849=DIRECTION('ref_axis',(-1.,0.,0.));
#850=DIRECTION('center_axis',(0.,0.,1.));
#851=DIRECTION('ref_axis',(-1.,0.,0.));
#852=DIRECTION('center_axis',(0.,0.,1.));
#853=DIRECTION('ref_axis',(-1.,0.,0.));
#854=DIRECTION('center_axis',(0.,0.,1.));
#855=DIRECTION('ref_axis',(-1.,0.,0.));
#856=DIRECTION('center_axis',(0.,0.,1.));
#857=DIRECTION('ref_axis',(-1.,0.,0.));
#858=DIRECTION('center_axis',(0.,0.,1.));
#859=DIRECTION('ref_axis',(-1.,0.,0.));
#860=DIRECTION('center_axis',(0.,0.,1.));
#861=DIRECTION('ref_axis',(-1.,0.,0.));
#862=DIRECTION('center_axis',(0.,0.,1.));
#863=DIRECTION('ref_axis',(-1.,0.,0.));
#864=DIRECTION('center_axis',(0.,0.,-1.));
#865=DIRECTION('ref_axis',(-1.,0.,0.));
#866=DIRECTION('center_axis',(0.,0.,-1.));
#867=DIRECTION('ref_axis',(-1.,0.,0.));
#868=DIRECTION('center_axis',(0.,0.,1.));
#869=DIRECTION('ref_axis',(1.,0.,0.));
#870=DIRECTION('',(-1.,5.84327907697451E-017,0.));
#871=DIRECTION('center_axis',(0.,0.,1.));
#872=DIRECTION('ref_axis',(0.,-1.,0.));
#873=DIRECTION('',(0.,-1.,0.));
#874=DIRECTION('center_axis',(0.,0.,1.));
#875=DIRECTION('ref_axis',(1.,0.,0.));
#876=DIRECTION('',(1.,5.84327907697451E-017,0.));
#877=DIRECTION('center_axis',(0.,0.,1.));
#878=DIRECTION('ref_axis',(0.,1.,0.));
#879=DIRECTION('',(0.,1.,0.));
#880=DIRECTION('center_axis',(0.,0.,1.));
#881=DIRECTION('ref_axis',(-1.,0.,0.));
#882=DIRECTION('center_axis',(0.,0.,-1.));
#883=DIRECTION('ref_axis',(-1.,0.,0.));
#884=DIRECTION('center_axis',(0.,0.,-1.));
#885=DIRECTION('ref_axis',(-1.,0.,0.));
#886=DIRECTION('center_axis',(0.,0.,1.));
#887=DIRECTION('ref_axis',(1.,0.,0.));
#888=DIRECTION('center_axis',(0.,0.,1.));
#889=DIRECTION('ref_axis',(1.,0.,0.));
#890=DIRECTION('center_axis',(0.,0.,-1.));
#891=DIRECTION('ref_axis',(-1.,0.,0.));
#892=DIRECTION('center_axis',(0.,0.,1.));
#893=DIRECTION('ref_axis',(-1.,0.,0.));
#894=DIRECTION('center_axis',(0.,0.,1.));
#895=DIRECTION('ref_axis',(1.,0.,0.));
#896=DIRECTION('center_axis',(0.,0.,1.));
#897=DIRECTION('ref_axis',(1.,0.,0.));
#898=DIRECTION('center_axis',(0.,0.,1.));
#899=DIRECTION('ref_axis',(1.,0.,0.));
#900=DIRECTION('center_axis',(0.,0.,1.));
#901=DIRECTION('ref_axis',(1.,0.,0.));
#902=DIRECTION('center_axis',(0.,0.,-1.));
#903=DIRECTION('ref_axis',(-1.,0.,0.));
#904=DIRECTION('center_axis',(0.,0.,1.));
#905=DIRECTION('ref_axis',(-1.,0.,0.));
#906=DIRECTION('center_axis',(0.,0.,-1.));
#907=DIRECTION('ref_axis',(-1.,0.,0.));
#908=DIRECTION('center_axis',(0.,0.,-1.));
#909=DIRECTION('ref_axis',(-1.,0.,0.));
#910=DIRECTION('center_axis',(0.,0.,-1.));
#911=DIRECTION('ref_axis',(-1.,0.,0.));
#912=DIRECTION('center_axis',(0.,0.,1.));
#913=DIRECTION('ref_axis',(-1.,0.,0.));
#914=DIRECTION('center_axis',(0.,0.,-1.));
#915=DIRECTION('ref_axis',(-1.,0.,0.));
#916=DIRECTION('center_axis',(0.,0.,-1.));
#917=DIRECTION('ref_axis',(-1.,0.,0.));
#918=DIRECTION('center_axis',(0.,0.,-1.));
#919=DIRECTION('ref_axis',(-1.,0.,0.));
#920=DIRECTION('center_axis',(0.,0.,1.));
#921=DIRECTION('ref_axis',(-1.,0.,0.));
#922=DIRECTION('center_axis',(0.,0.,-1.));
#923=DIRECTION('ref_axis',(-1.,0.,0.));
#924=DIRECTION('center_axis',(0.,0.,-1.));
#925=DIRECTION('ref_axis',(-1.,0.,0.));
#926=DIRECTION('center_axis',(0.,0.,-1.));
#927=DIRECTION('ref_axis',(-1.,0.,0.));
#928=DIRECTION('center_axis',(0.,0.,1.));
#929=DIRECTION('ref_axis',(-1.,0.,0.));
#930=DIRECTION('center_axis',(0.,0.,-1.));
#931=DIRECTION('ref_axis',(-1.,0.,0.));
#932=DIRECTION('center_axis',(0.,0.,-1.));
#933=DIRECTION('ref_axis',(-1.,0.,0.));
#934=DIRECTION('center_axis',(0.,0.,-1.));
#935=DIRECTION('ref_axis',(-1.,0.,0.));
#936=DIRECTION('center_axis',(0.,0.,1.));
#937=DIRECTION('ref_axis',(-1.,0.,0.));
#938=DIRECTION('center_axis',(0.,-1.,0.));
#939=DIRECTION('ref_axis',(-1.,0.,0.));
#940=DIRECTION('',(1.,0.,0.));
#941=DIRECTION('',(0.,0.,-1.));
#942=DIRECTION('',(-1.,0.,0.));
#943=DIRECTION('',(0.,0.,-1.));
#944=DIRECTION('center_axis',(1.,0.,0.));
#945=DIRECTION('ref_axis',(0.,-1.,0.));
#946=DIRECTION('',(0.,1.,0.));
#947=DIRECTION('',(0.,-1.,0.));
#948=DIRECTION('',(0.,0.,-1.));
#949=DIRECTION('center_axis',(0.,0.,1.));
#950=DIRECTION('ref_axis',(1.,0.,0.));
#951=DIRECTION('',(1.,-5.84327907697451E-017,0.));
#952=DIRECTION('',(-4.44089209850062E-015,1.,0.));
#953=DIRECTION('center_axis',(0.,0.,-1.));
#954=DIRECTION('ref_axis',(-1.,1.77635683940025E-015,0.));
#955=DIRECTION('center_axis',(1.,8.07434927000114E-016,0.));
#956=DIRECTION('ref_axis',(7.105427357601E-016,-1.,0.));
#957=DIRECTION('',(-8.07434927000114E-016,1.,0.));
#958=DIRECTION('',(0.,0.,-1.));
#959=DIRECTION('',(8.07434927000114E-016,-1.,0.));
#960=DIRECTION('',(0.,0.,-1.));
#961=DIRECTION('center_axis',(2.19303313506204E-016,1.,0.));
#962=DIRECTION('ref_axis',(1.,-3.5527136788005E-016,0.));
#963=DIRECTION('',(-1.,2.19303313506204E-016,0.));
#964=DIRECTION('',(1.,-2.19303313506204E-016,0.));
#965=DIRECTION('',(0.,0.,-1.));
#966=DIRECTION('center_axis',(0.,0.,1.));
#967=DIRECTION('ref_axis',(1.,0.,0.));
#968=DIRECTION('',(-1.,-5.84327907697451E-017,0.));
#969=DIRECTION('center_axis',(0.,0.,-1.));
#970=DIRECTION('ref_axis',(0.,-1.,0.));
#971=DIRECTION('',(0.,1.,0.));
#972=DIRECTION('center_axis',(0.,0.,1.));
#973=DIRECTION('ref_axis',(-1.,0.,0.));
#974=DIRECTION('center_axis',(0.,0.,-1.));
#975=DIRECTION('ref_axis',(-1.,0.,0.));
#976=DIRECTION('',(0.,0.,1.));
#977=DIRECTION('',(0.,0.,1.));
#978=DIRECTION('center_axis',(1.,0.,0.));
#979=DIRECTION('ref_axis',(0.,1.,0.));
#980=DIRECTION('',(0.,-1.,0.));
#981=DIRECTION('',(0.,0.,1.));
#982=DIRECTION('center_axis',(0.,0.,1.));
#983=DIRECTION('ref_axis',(0.,1.,0.));
#984=DIRECTION('center_axis',(0.,0.,-1.));
#985=DIRECTION('ref_axis',(0.,1.,0.));
#986=DIRECTION('',(0.,0.,1.));
#987=DIRECTION('center_axis',(5.84327907697451E-017,-1.,0.));
#988=DIRECTION('ref_axis',(1.,0.,0.));
#989=DIRECTION('',(0.,0.,-1.));
#990=DIRECTION('center_axis',(0.,0.,1.));
#991=DIRECTION('ref_axis',(1.,0.,0.));
#992=DIRECTION('',(0.,0.,-1.));
#993=DIRECTION('center_axis',(-1.,0.,0.));
#994=DIRECTION('ref_axis',(0.,-1.,0.));
#995=DIRECTION('',(0.,0.,-1.));
#996=DIRECTION('',(0.,1.,0.));
#997=DIRECTION('center_axis',(0.,0.,1.));
#998=DIRECTION('ref_axis',(0.,-1.,0.));
#999=DIRECTION('',(0.,0.,1.));
#1000=DIRECTION('center_axis',(5.84327907697451E-017,1.,0.));
#1001=DIRECTION('ref_axis',(-1.,0.,0.));
#1002=DIRECTION('center_axis',(0.,0.,1.));
#1003=DIRECTION('ref_axis',(1.,0.,0.));
#1004=CARTESIAN_POINT('',(0.,0.,0.));
#1005=CARTESIAN_POINT('Origin',(0.,1.31912848446432E-015,4.9238795325113));
#1006=CARTESIAN_POINT('',(20.5,-2.51052593825207E-015,3.00000000000001));
#1007=CARTESIAN_POINT('Origin',(0.,0.,3.00000000000001));
#1008=CARTESIAN_POINT('',(21.2653668647302,6.60749378209502E-015,6.84775906502258));
#1009=CARTESIAN_POINT('Origin',(0.,2.63825696892865E-015,6.84775906502258));
#1010=CARTESIAN_POINT('Origin',(0.,6.70929287374793E-016,6.70710678118655));
#1011=CARTESIAN_POINT('',(21.9064289566986,-0.584060311805359,8.41421356353269));
#1012=CARTESIAN_POINT('',(21.7912139795115,-2.31856623408735,8.41421356353269));
#1013=CARTESIAN_POINT('Ctrl Pts',(21.9064289566576,-0.584060312290232,8.41421356370512));
#1014=CARTESIAN_POINT('Ctrl Pts',(21.829811133867,-0.642016050684602,8.23303658369333));
#1015=CARTESIAN_POINT('Ctrl Pts',(21.7559392697546,-0.712169657321831,8.05976336831791));
#1016=CARTESIAN_POINT('Ctrl Pts',(21.6253635712422,-0.882773874428922,7.75996741165929));
#1017=CARTESIAN_POINT('Ctrl Pts',(21.555006675597,-0.999629720556775,7.60182171509781));
#1018=CARTESIAN_POINT('Ctrl Pts',(21.4956770625404,-1.17831532651372,7.48159657501911));
#1019=CARTESIAN_POINT('Ctrl Pts',(21.4828073414693,-1.22467892703163,7.45677419676665));
#1020=CARTESIAN_POINT('Ctrl Pts',(21.4629209013525,-1.3233479816067,7.42295675829548));
#1021=CARTESIAN_POINT('Ctrl Pts',(21.4559951061182,-1.37575787472784,7.41421356237307));
#1022=CARTESIAN_POINT('Ctrl Pts',(21.4494529464602,-1.47424693360098,7.41421356237307));
#1023=CARTESIAN_POINT('Ctrl Pts',(21.4493857994315,-1.52711241409509,7.42295675829548));
#1024=CARTESIAN_POINT('Ctrl Pts',(21.4560468717844,-1.62754489363417,7.45677419676665));
#1025=CARTESIAN_POINT('Ctrl Pts',(21.462671152369,-1.67520338794702,7.48159657501911));
#1026=CARTESIAN_POINT('Ctrl Pts',(21.4978453156405,-1.86016643020087,7.60182171509782));
#1027=CARTESIAN_POINT('Ctrl Pts',(21.5521279069454,-1.98530148452345,7.7599674116593));
#1028=CARTESIAN_POINT('Ctrl Pts',(21.6589910976656,-2.17167763752008,8.05976336831792));
#1029=CARTESIAN_POINT('Ctrl Pts',(21.7229349350598,-2.25098568560437,8.23303658369334));
#1030=CARTESIAN_POINT('Ctrl Pts',(21.791213979535,-2.31856623360132,8.41421356370513));
#1031=CARTESIAN_POINT('',(10.4474034109836,19.2635541386027,8.41421356353269));
#1032=CARTESIAN_POINT('Origin',(0.,1.34185857474959E-015,8.4142135623731));
#1033=CARTESIAN_POINT('',(8.88766973067931,20.0310280026033,8.41421356353269));
#1034=CARTESIAN_POINT('Ctrl Pts',(8.88766973111198,20.0310280023806,8.41421356370513));
#1035=CARTESIAN_POINT('Ctrl Pts',(8.91205668024141,19.9381063413205,8.23303658369333));
#1036=CARTESIAN_POINT('Ctrl Pts',(8.94876754590982,19.8430753296794,8.05976336831791));
#1037=CARTESIAN_POINT('Ctrl Pts',(9.05674243370442,19.6573410152879,7.75996741165928));
#1038=CARTESIAN_POINT('Ctrl Pts',(9.13797127399928,19.5477633850734,7.60182171509781));
#1039=CARTESIAN_POINT('Ctrl Pts',(9.28056688571664,19.4248201449965,7.4815965750191));
#1040=CARTESIAN_POINT('Ctrl Pts',(9.31852821220537,19.395254102572,7.45677419676665));
#1041=CARTESIAN_POINT('Ctrl Pts',(9.40217475467481,19.3392692049284,7.42295675829548));
#1042=CARTESIAN_POINT('Ctrl Pts',(9.44799117728036,19.312894615714,7.41421356237307));
#1043=CARTESIAN_POINT('Ctrl Pts',(9.5365562840883,19.2693157627368,7.41421356237307));
#1044=CARTESIAN_POINT('Ctrl Pts',(9.58540748055798,19.2491087307906,7.42295675829548));
#1045=CARTESIAN_POINT('Ctrl Pts',(9.6808006084458,19.2169963658351,7.45677419676665));
#1046=CARTESIAN_POINT('Ctrl Pts',(9.72738752484077,19.2049600709633,7.4815965750191));
#1047=CARTESIAN_POINT('Ctrl Pts',(9.9117986054184,19.1669982200885,7.60182171509781));
#1048=CARTESIAN_POINT('Ctrl Pts',(10.0481771845685,19.1695011559848,7.75996741165928));
#1049=CARTESIAN_POINT('Ctrl Pts',(10.2612126198322,19.1972809194599,8.05976336831791));
#1050=CARTESIAN_POINT('Ctrl Pts',(10.3589033574033,19.2261790270875,8.23303658369334));
#1051=CARTESIAN_POINT('Ctrl Pts',(10.4474034105432,19.2635541388096,8.41421356370513));
#1052=CARTESIAN_POINT('',(-8.88766973067931,20.0310280026033,8.41421356353269));
#1053=CARTESIAN_POINT('Origin',(0.,1.34185857474959E-015,8.4142135623731));
#1054=CARTESIAN_POINT('',(-10.4474034109836,19.2635541386027,8.41421356353269));
#1055=CARTESIAN_POINT('Ctrl Pts',(-10.4474034105432,19.2635541388096,8.41421356370513));
#1056=CARTESIAN_POINT('Ctrl Pts',(-10.3589033574033,19.2261790270875,8.23303658369333));
#1057=CARTESIAN_POINT('Ctrl Pts',(-10.2612126198322,19.1972809194599,8.05976336831791));
#1058=CARTESIAN_POINT('Ctrl Pts',(-10.0481771845685,19.1695011559848,7.75996741165928));
#1059=CARTESIAN_POINT('Ctrl Pts',(-9.9117986054184,19.1669982200885,7.60182171509781));
#1060=CARTESIAN_POINT('Ctrl Pts',(-9.72738752484077,19.2049600709633,7.4815965750191));
#1061=CARTESIAN_POINT('Ctrl Pts',(-9.6808006084458,19.2169963658351,7.45677419676666));
#1062=CARTESIAN_POINT('Ctrl Pts',(-9.58540748055799,19.2491087307906,7.42295675829548));
#1063=CARTESIAN_POINT('Ctrl Pts',(-9.5365562840883,19.2693157627368,7.41421356237307));
#1064=CARTESIAN_POINT('Ctrl Pts',(-9.44799117728036,19.312894615714,7.41421356237307));
#1065=CARTESIAN_POINT('Ctrl Pts',(-9.40217475467482,19.3392692049284,7.42295675829548));
#1066=CARTESIAN_POINT('Ctrl Pts',(-9.31852821220537,19.395254102572,7.45677419676665));
#1067=CARTESIAN_POINT('Ctrl Pts',(-9.28056688571664,19.4248201449965,7.4815965750191));
#1068=CARTESIAN_POINT('Ctrl Pts',(-9.13797127399928,19.5477633850734,7.60182171509781));
#1069=CARTESIAN_POINT('Ctrl Pts',(-9.05674243370442,19.6573410152879,7.75996741165928));
#1070=CARTESIAN_POINT('Ctrl Pts',(-8.94876754590982,19.8430753296794,8.05976336831791));
#1071=CARTESIAN_POINT('Ctrl Pts',(-8.91205668024141,19.9381063413205,8.23303658369333));
#1072=CARTESIAN_POINT('Ctrl Pts',(-8.88766973111198,20.0310280023806,8.41421356370513));
#1073=CARTESIAN_POINT('',(-21.9064289566986,-0.584060311805341,8.41421356353269));
#1074=CARTESIAN_POINT('Origin',(0.,1.34185857474959E-015,8.4142135623731));
#1075=CARTESIAN_POINT('',(-21.7912139795115,-2.31856623408733,8.41421356353269));
#1076=CARTESIAN_POINT('Ctrl Pts',(-21.791213979535,-2.3185662336013,8.41421356370512));
#1077=CARTESIAN_POINT('Ctrl Pts',(-21.7229349350598,-2.25098568560435,8.23303658369333));
#1078=CARTESIAN_POINT('Ctrl Pts',(-21.6589910976656,-2.17167763752007,8.0597633683179));
#1079=CARTESIAN_POINT('Ctrl Pts',(-21.5521279069454,-1.98530148452344,7.75996741165928));
#1080=CARTESIAN_POINT('Ctrl Pts',(-21.4978453156405,-1.86016643020085,7.60182171509782));
#1081=CARTESIAN_POINT('Ctrl Pts',(-21.462671152369,-1.675203387947,7.48159657501911));
#1082=CARTESIAN_POINT('Ctrl Pts',(-21.4560468717844,-1.62754489363416,7.45677419676665));
#1083=CARTESIAN_POINT('Ctrl Pts',(-21.4493857994315,-1.52711241409508,7.42295675829548));
#1084=CARTESIAN_POINT('Ctrl Pts',(-21.4494529464602,-1.47424693360096,7.41421356237307));
#1085=CARTESIAN_POINT('Ctrl Pts',(-21.4559951061182,-1.37575787472783,7.41421356237307));
#1086=CARTESIAN_POINT('Ctrl Pts',(-21.4629209013525,-1.32334798160668,7.42295675829549));
#1087=CARTESIAN_POINT('Ctrl Pts',(-21.4828073414693,-1.22467892703162,7.45677419676666));
#1088=CARTESIAN_POINT('Ctrl Pts',(-21.4956770625404,-1.1783153265137,7.48159657501911));
#1089=CARTESIAN_POINT('Ctrl Pts',(-21.555006675597,-0.99962972055676,7.60182171509781));
#1090=CARTESIAN_POINT('Ctrl Pts',(-21.6253635712422,-0.882773874428905,
7.75996741165928));
#1091=CARTESIAN_POINT('Ctrl Pts',(-21.7559392697546,-0.712169657321812,
8.0597633683179));
#1092=CARTESIAN_POINT('Ctrl Pts',(-21.829811133867,-0.642016050684583,8.23303658369333));
#1093=CARTESIAN_POINT('Ctrl Pts',(-21.9064289566576,-0.584060312290213,
8.41421356370513));
#1094=CARTESIAN_POINT('',(-12.9035442488322,-17.7124617685159,8.41421356353269));
#1095=CARTESIAN_POINT('Origin',(0.,1.34185857474959E-015,8.4142135623731));
#1096=CARTESIAN_POINT('',(-11.459025545715,-18.6794938267973,8.41421356353269));
#1097=CARTESIAN_POINT('Ctrl Pts',(-11.4590255461144,-18.6794938265194,8.41421356370513));
#1098=CARTESIAN_POINT('Ctrl Pts',(-11.4709077764637,-18.5841629764029,8.23303658369334));
#1099=CARTESIAN_POINT('Ctrl Pts',(-11.4947266499225,-18.4851112621381,8.05976336831792));
#1100=CARTESIAN_POINT('Ctrl Pts',(-11.5771863866738,-18.2867272815559,7.75996741165929));
#1101=CARTESIAN_POINT('Ctrl Pts',(-11.6432080701786,-18.1673684995318,7.60182171509782));
#1102=CARTESIAN_POINT('Ctrl Pts',(-11.7682895376996,-18.0266447444496,7.48159657501911));
#1103=CARTESIAN_POINT('Ctrl Pts',(-11.8020067330235,-17.9923174388034,7.45677419676666));
#1104=CARTESIAN_POINT('Ctrl Pts',(-11.8775134207945,-17.9257607491839,7.42295675829549));
#1105=CARTESIAN_POINT('Ctrl Pts',(-11.9194388220299,-17.893557888009,7.41421356237309));
#1106=CARTESIAN_POINT('Ctrl Pts',(-12.0014617691799,-17.838647682113,7.41421356237309));
#1107=CARTESIAN_POINT('Ctrl Pts',(-12.0472110447567,-17.8121567908333,7.42295675829549));
#1108=CARTESIAN_POINT('Ctrl Pts',(-12.137518659579,-17.7677092089378,7.45677419676667));
#1109=CARTESIAN_POINT('Ctrl Pts',(-12.1821042666524,-17.7496167570495,7.48159657501911));
#1110=CARTESIAN_POINT('Ctrl Pts',(-12.3598740416412,-17.6875969548725,7.60182171509782));
#1111=CARTESIAN_POINT('Ctrl Pts',(-12.4953854732409,-17.6720395307645,7.75996741165929));
#1112=CARTESIAN_POINT('Ctrl Pts',(-12.7102235517557,-17.6713976921593,8.05976336831792));
#1113=CARTESIAN_POINT('Ctrl Pts',(-12.8108782548184,-17.6871206557161,8.23303658369334));
#1114=CARTESIAN_POINT('Ctrl Pts',(-12.9035442484231,-17.7124617687793,8.41421356370513));
#1115=CARTESIAN_POINT('',(11.459025545715,-18.6794938267973,8.41421356353269));
#1116=CARTESIAN_POINT('Origin',(0.,1.34185857474959E-015,8.4142135623731));
#1117=CARTESIAN_POINT('',(12.9035442488322,-17.7124617685159,8.41421356353269));
#1118=CARTESIAN_POINT('Ctrl Pts',(12.903544248423,-17.7124617687793,8.41421356370513));
#1119=CARTESIAN_POINT('Ctrl Pts',(12.8108782548184,-17.6871206557161,8.23303658369334));
#1120=CARTESIAN_POINT('Ctrl Pts',(12.7102235517557,-17.6713976921594,8.05976336831792));
#1121=CARTESIAN_POINT('Ctrl Pts',(12.4953854732409,-17.6720395307645,7.7599674116593));
#1122=CARTESIAN_POINT('Ctrl Pts',(12.3598740416412,-17.6875969548725,7.60182171509783));
#1123=CARTESIAN_POINT('Ctrl Pts',(12.1821042666524,-17.7496167570495,7.48159657501913));
#1124=CARTESIAN_POINT('Ctrl Pts',(12.137518659579,-17.7677092089378,7.45677419676667));
#1125=CARTESIAN_POINT('Ctrl Pts',(12.0472110447567,-17.8121567908333,7.42295675829549));
#1126=CARTESIAN_POINT('Ctrl Pts',(12.0014617691798,-17.838647682113,7.4142135623731));
#1127=CARTESIAN_POINT('Ctrl Pts',(11.9194388220299,-17.893557888009,7.4142135623731));
#1128=CARTESIAN_POINT('Ctrl Pts',(11.8775134207945,-17.9257607491839,7.4229567582955));
#1129=CARTESIAN_POINT('Ctrl Pts',(11.8020067330235,-17.9923174388035,7.45677419676668));
#1130=CARTESIAN_POINT('Ctrl Pts',(11.7682895376996,-18.0266447444496,7.48159657501912));
#1131=CARTESIAN_POINT('Ctrl Pts',(11.6432080701786,-18.1673684995318,7.60182171509783));
#1132=CARTESIAN_POINT('Ctrl Pts',(11.5771863866737,-18.2867272815559,7.7599674116593));
#1133=CARTESIAN_POINT('Ctrl Pts',(11.4947266499224,-18.4851112621381,8.05976336831792));
#1134=CARTESIAN_POINT('Ctrl Pts',(11.4709077764637,-18.5841629764029,8.23303658369334));
#1135=CARTESIAN_POINT('Ctrl Pts',(11.4590255461144,-18.6794938265194,8.41421356370513));
#1136=CARTESIAN_POINT('Origin',(0.,1.34185857474959E-015,8.4142135623731));
#1137=CARTESIAN_POINT('Origin',(0.,0.,0.));
#1138=CARTESIAN_POINT('',(20.5,2.51052593825207E-015,0.));
#1139=CARTESIAN_POINT('Origin',(0.,0.,0.));
#1140=CARTESIAN_POINT('Origin',(-22.6001953114163,-1.50122346299179,9.));
#1141=CARTESIAN_POINT('',(-21.4501953114163,-1.50122346299179,1.5));
#1142=CARTESIAN_POINT('Origin',(-22.6001953114163,-1.50122346299179,1.5));
#1143=CARTESIAN_POINT('',(-22.4971859013046,-0.355846205740518,9.));
#1144=CARTESIAN_POINT('Ctrl Pts',(-21.9064289570539,-0.584060311990482,
8.41421356331296));
#1145=CARTESIAN_POINT('Ctrl Pts',(-21.9888514973649,-0.521713732489886,
8.49494515589323));
#1146=CARTESIAN_POINT('Ctrl Pts',(-22.0784479995858,-0.471563717292307,
8.58344896999645));
#1147=CARTESIAN_POINT('Ctrl Pts',(-22.2782447835728,-0.391155268556539,
8.78163232834564));
#1148=CARTESIAN_POINT('Ctrl Pts',(-22.389538158686,-0.365527496683564,8.89251883436005));
#1149=CARTESIAN_POINT('Ctrl Pts',(-22.4971859013046,-0.355846205740518,
9.));
#1150=CARTESIAN_POINT('',(-22.346595447966,-2.62291286262879,9.));
#1151=CARTESIAN_POINT('Origin',(-22.6001953114163,-1.50122346299179,9.));
#1152=CARTESIAN_POINT('Ctrl Pts',(-22.346595447966,-2.62291286262879,9.));
#1153=CARTESIAN_POINT('Ctrl Pts',(-22.2411739975,-2.59907839878206,8.89251883436005));
#1154=CARTESIAN_POINT('Ctrl Pts',(-22.1342481358816,-2.55895536110525,8.78163232834564));
#1155=CARTESIAN_POINT('Ctrl Pts',(-21.9468421133062,-2.45282687189469,8.58344896999645));
#1156=CARTESIAN_POINT('Ctrl Pts',(-21.8646659795829,-2.39126681763214,8.49494515589323));
#1157=CARTESIAN_POINT('Ctrl Pts',(-21.7912139798882,-2.31856623395081,8.41421356331296));
#1158=CARTESIAN_POINT('Origin',(-10.,20.3229550016724,9.));
#1159=CARTESIAN_POINT('',(-8.85,20.3229550016724,1.5));
#1160=CARTESIAN_POINT('Origin',(-10.,20.3229550016724,1.5));
#1161=CARTESIAN_POINT('',(-8.90178855303352,20.6641757773467,9.));
#1162=CARTESIAN_POINT('Ctrl Pts',(-8.88766973098586,20.0310280028612,8.41421356331297));
#1163=CARTESIAN_POINT('Ctrl Pts',(-8.86143517849523,20.1309895923962,8.49494515589323));
#1164=CARTESIAN_POINT('Ctrl Pts',(-8.84921067450717,20.2329362389167,8.58344896999645));
#1165=CARTESIAN_POINT('Ctrl Pts',(-8.85100371807328,20.4482988598945,8.78163232834564));
#1166=CARTESIAN_POINT('Ctrl Pts',(-8.86971907897737,20.560960891216,8.89251883436005));
#1167=CARTESIAN_POINT('Ctrl Pts',(-8.90178855303352,20.6641757773467,9.));
#1168=CARTESIAN_POINT('',(-10.9404210966407,19.6610576070612,9.));
#1169=CARTESIAN_POINT('Origin',(-10.,20.3229550016724,9.));
#1170=CARTESIAN_POINT('Ctrl Pts',(-10.9404210966407,19.6610576070612,9.));
#1171=CARTESIAN_POINT('Ctrl Pts',(-10.8782129814333,19.5726725727649,8.89251883436005));
#1172=CARTESIAN_POINT('Ctrl Pts',(-10.8003719923923,19.4891035685805,8.78163232834564));
#1173=CARTESIAN_POINT('Ctrl Pts',(-10.6308378411147,19.3562787024212,8.58344896999645));
#1174=CARTESIAN_POINT('Ctrl Pts',(-10.542608402843,19.3037608630065,8.49494515589323));
#1175=CARTESIAN_POINT('Ctrl Pts',(-10.4474034110009,19.2635541390029,8.41421356331297));
#1176=CARTESIAN_POINT('Origin',(10.,20.3229550016724,9.));
#1177=CARTESIAN_POINT('',(10.9404210966407,19.6610576070612,9.));
#1178=CARTESIAN_POINT('Ctrl Pts',(10.4474034110009,19.2635541390029,8.41421356331297));
#1179=CARTESIAN_POINT('Ctrl Pts',(10.542608402843,19.3037608630065,8.49494515589323));
#1180=CARTESIAN_POINT('Ctrl Pts',(10.6308378411147,19.3562787024212,8.58344896999645));
#1181=CARTESIAN_POINT('Ctrl Pts',(10.8003719923923,19.4891035685805,8.78163232834564));
#1182=CARTESIAN_POINT('Ctrl Pts',(10.8782129814333,19.5726725727649,8.89251883436005));
#1183=CARTESIAN_POINT('Ctrl Pts',(10.9404210966407,19.6610576070612,9.));
#1184=CARTESIAN_POINT('',(8.90178855303352,20.6641757773467,9.));
#1185=CARTESIAN_POINT('Origin',(10.,20.3229550016724,9.));
#1186=CARTESIAN_POINT('Ctrl Pts',(8.90178855303352,20.6641757773467,9.));
#1187=CARTESIAN_POINT('Ctrl Pts',(8.86971907897737,20.560960891216,8.89251883436005));
#1188=CARTESIAN_POINT('Ctrl Pts',(8.85100371807328,20.4482988598945,8.78163232834564));
#1189=CARTESIAN_POINT('Ctrl Pts',(8.84921067450717,20.2329362389167,8.58344896999645));
#1190=CARTESIAN_POINT('Ctrl Pts',(8.86143517849523,20.1309895923962,8.49494515589323));
#1191=CARTESIAN_POINT('Ctrl Pts',(8.88766973098586,20.0310280028612,8.41421356331297));
#1192=CARTESIAN_POINT('',(11.15,20.3229550016724,1.5));
#1193=CARTESIAN_POINT('Origin',(10.,20.3229550016724,1.5));
#1194=CARTESIAN_POINT('Origin',(0.,0.,8.));
#1195=CARTESIAN_POINT('Origin',(0.,0.,9.));
#1196=CARTESIAN_POINT('Origin',(0.,0.,8.));
#1197=CARTESIAN_POINT('Origin',(0.,0.,9.));
#1198=CARTESIAN_POINT('Origin',(0.,0.,8.));
#1199=CARTESIAN_POINT('',(22.4971859013046,-0.355846205740534,9.));
#1200=CARTESIAN_POINT('Ctrl Pts',(22.4971859013046,-0.355846205740534,9.));
#1201=CARTESIAN_POINT('Ctrl Pts',(22.389538158686,-0.365527496683581,8.89251883436005));
#1202=CARTESIAN_POINT('Ctrl Pts',(22.2782447835728,-0.391155268556554,8.78163232834564));
#1203=CARTESIAN_POINT('Ctrl Pts',(22.0784479995858,-0.471563717292322,8.58344896999645));
#1204=CARTESIAN_POINT('Ctrl Pts',(21.9888514973649,-0.521713732489904,8.49494515589323));
#1205=CARTESIAN_POINT('Ctrl Pts',(21.9064289570538,-0.5840603119905,8.41421356331296));
#1206=CARTESIAN_POINT('Origin',(0.,0.,9.));
#1207=CARTESIAN_POINT('Origin',(0.,0.,8.));
#1208=CARTESIAN_POINT('',(13.4448068949325,-18.0412629147179,9.));
#1209=CARTESIAN_POINT('Ctrl Pts',(13.4448068949325,-18.0412629147179,9.));
#1210=CARTESIAN_POINT('Ctrl Pts',(13.3714549185227,-17.9618824924339,8.89251883436005));
#1211=CARTESIAN_POINT('Ctrl Pts',(13.2832444178083,-17.8893434987892,8.78163232834564));
#1212=CARTESIAN_POINT('Ctrl Pts',(13.097631438799,-17.780109367022,8.58344896999645));
#1213=CARTESIAN_POINT('Ctrl Pts',(13.0032308010876,-17.7397227747641,8.49494515589322));
#1214=CARTESIAN_POINT('Ctrl Pts',(12.9035442489023,-17.7124617689103,8.41421356331296));
#1215=CARTESIAN_POINT('',(22.346595447966,-2.62291286262881,9.));
#1216=CARTESIAN_POINT('Origin',(0.,0.,9.));
#1217=CARTESIAN_POINT('Ctrl Pts',(21.7912139798882,-2.31856623395083,8.41421356331296));
#1218=CARTESIAN_POINT('Ctrl Pts',(21.8646659795829,-2.39126681763215,8.49494515589323));
#1219=CARTESIAN_POINT('Ctrl Pts',(21.9468421133062,-2.45282687189471,8.58344896999645));
#1220=CARTESIAN_POINT('Ctrl Pts',(22.1342481358816,-2.55895536110527,8.78163232834564));
#1221=CARTESIAN_POINT('Ctrl Pts',(22.2411739975,-2.59907839878208,8.89251883436005));
#1222=CARTESIAN_POINT('Ctrl Pts',(22.346595447966,-2.62291286262881,9.));
#1223=CARTESIAN_POINT('Origin',(0.,0.,8.));
#1224=CARTESIAN_POINT('',(-11.5567648046639,-19.3052114013207,9.));
#1225=CARTESIAN_POINT('Ctrl Pts',(-11.5567648046639,-19.3052114013207,9.));
#1226=CARTESIAN_POINT('Ctrl Pts',(-11.5113251772527,-19.2071450760813,8.89251883436005));
#1227=CARTESIAN_POINT('Ctrl Pts',(-11.4778727911805,-19.0979483000239,8.78163232834564));
#1228=CARTESIAN_POINT('Ctrl Pts',(-11.447610158471,-18.8847149851288,8.58344896999645));
#1229=CARTESIAN_POINT('Ctrl Pts',(-11.4462430945219,-18.7820471305166,8.49494515589323));
#1230=CARTESIAN_POINT('Ctrl Pts',(-11.459025546053,-18.6794938270124,8.41421356331296));
#1231=CARTESIAN_POINT('',(11.5567648046639,-19.3052114013207,9.));
#1232=CARTESIAN_POINT('Origin',(0.,0.,9.));
#1233=CARTESIAN_POINT('Ctrl Pts',(11.4590255460529,-18.6794938270124,8.41421356331296));
#1234=CARTESIAN_POINT('Ctrl Pts',(11.4462430945219,-18.7820471305166,8.49494515589323));
#1235=CARTESIAN_POINT('Ctrl Pts',(11.447610158471,-18.8847149851288,8.58344896999645));
#1236=CARTESIAN_POINT('Ctrl Pts',(11.4778727911805,-19.097948300024,8.78163232834564));
#1237=CARTESIAN_POINT('Ctrl Pts',(11.5113251772527,-19.2071450760813,8.89251883436005));
#1238=CARTESIAN_POINT('Ctrl Pts',(11.5567648046639,-19.3052114013207,9.));
#1239=CARTESIAN_POINT('Origin',(0.,0.,8.));
#1240=CARTESIAN_POINT('',(-13.4448068949325,-18.0412629147179,9.));
#1241=CARTESIAN_POINT('Origin',(0.,0.,9.));
#1242=CARTESIAN_POINT('Ctrl Pts',(-12.9035442489023,-17.7124617689103,8.41421356331296));
#1243=CARTESIAN_POINT('Ctrl Pts',(-13.0032308010876,-17.7397227747641,8.49494515589323));
#1244=CARTESIAN_POINT('Ctrl Pts',(-13.097631438799,-17.780109367022,8.58344896999645));
#1245=CARTESIAN_POINT('Ctrl Pts',(-13.2832444178084,-17.8893434987892,8.78163232834564));
#1246=CARTESIAN_POINT('Ctrl Pts',(-13.3714549185227,-17.9618824924339,8.89251883436005));
#1247=CARTESIAN_POINT('Ctrl Pts',(-13.4448068949325,-18.0412629147179,9.));
#1248=CARTESIAN_POINT('Origin',(22.6001953114163,-1.50122346299181,9.));
#1249=CARTESIAN_POINT('Origin',(22.6001953114163,-1.50122346299181,9.));
#1250=CARTESIAN_POINT('',(23.7501953114163,-1.50122346299181,1.5));
#1251=CARTESIAN_POINT('Origin',(22.6001953114163,-1.50122346299181,1.5));
#1252=CARTESIAN_POINT('Origin',(-13.,-4.28219623636819E-015,9.));
#1253=CARTESIAN_POINT('',(25.,35.,9.));
#1254=CARTESIAN_POINT('',(-51.,35.,9.));
#1255=CARTESIAN_POINT('',(-51.,35.,9.));
#1256=CARTESIAN_POINT('',(-56.,30.,9.));
#1257=CARTESIAN_POINT('Origin',(-51.,30.,9.));
#1258=CARTESIAN_POINT('',(-56.,-30.,9.));
#1259=CARTESIAN_POINT('',(-56.,-30.,9.));
#1260=CARTESIAN_POINT('',(-51.,-35.,9.));
#1261=CARTESIAN_POINT('Origin',(-51.,-30.,9.));
#1262=CARTESIAN_POINT('',(25.,-35.,9.));
#1263=CARTESIAN_POINT('',(25.,-35.,9.));
#1264=CARTESIAN_POINT('',(30.,-30.,9.));
#1265=CARTESIAN_POINT('Origin',(25.,-30.,9.));
#1266=CARTESIAN_POINT('',(30.,30.,9.));
#1267=CARTESIAN_POINT('',(30.,30.,9.));
#1268=CARTESIAN_POINT('Origin',(25.,30.,9.));
#1269=CARTESIAN_POINT('Origin',(12.6001953114163,-18.8217315386806,9.));
#1270=CARTESIAN_POINT('Origin',(-12.6001953114163,-18.8217315386806,9.));
#1271=CARTESIAN_POINT('Origin',(22.6001953114163,-1.50122346299181,1.5));
#1272=CARTESIAN_POINT('Origin',(-12.6001953114163,-18.8217315386806,1.5));
#1273=CARTESIAN_POINT('',(-11.4501953114163,-18.8217315386806,1.5));
#1274=CARTESIAN_POINT('Origin',(-12.6001953114163,-18.8217315386806,1.5));
#1275=CARTESIAN_POINT('Origin',(-12.6001953114163,-18.8217315386806,9.));
#1276=CARTESIAN_POINT('Origin',(-10.,20.3229550016724,1.5));
#1277=CARTESIAN_POINT('Origin',(10.,20.3229550016724,1.5));
#1278=CARTESIAN_POINT('Origin',(-22.6001953114163,-1.50122346299179,1.5));
#1279=CARTESIAN_POINT('Origin',(12.6001953114163,-18.8217315386806,1.5));
#1280=CARTESIAN_POINT('',(13.7501953114163,-18.8217315386806,1.5));
#1281=CARTESIAN_POINT('Origin',(12.6001953114163,-18.8217315386806,1.5));
#1282=CARTESIAN_POINT('Origin',(12.6001953114163,-18.8217315386806,9.));
#1283=CARTESIAN_POINT('Origin',(-53.,27.,4.82060243331929));
#1284=CARTESIAN_POINT('',(-54.4,27.,4.4));
#1285=CARTESIAN_POINT('Origin',(-53.,27.,4.4));
#1286=CARTESIAN_POINT('Origin',(-53.,27.,0.4));
#1287=CARTESIAN_POINT('',(-54.4,27.,-3.6));
#1288=CARTESIAN_POINT('Origin',(-53.,27.,-3.6));
#1289=CARTESIAN_POINT('Origin',(-23.,-27.,4.82060243331929));
#1290=CARTESIAN_POINT('',(-24.4,-27.,4.4));
#1291=CARTESIAN_POINT('Origin',(-23.,-27.,4.4));
#1292=CARTESIAN_POINT('Origin',(-23.,-27.,0.4));
#1293=CARTESIAN_POINT('',(-24.4,-27.,-3.6));
#1294=CARTESIAN_POINT('Origin',(-23.,-27.,-3.6));
#1295=CARTESIAN_POINT('Origin',(-53.,-27.,4.82060243331929));
#1296=CARTESIAN_POINT('',(-54.4,-27.,4.4));
#1297=CARTESIAN_POINT('Origin',(-53.,-27.,4.4));
#1298=CARTESIAN_POINT('Origin',(-53.,-27.,0.4));
#1299=CARTESIAN_POINT('',(-54.4,-27.,-3.6));
#1300=CARTESIAN_POINT('Origin',(-53.,-27.,-3.6));
#1301=CARTESIAN_POINT('Origin',(-23.,27.,4.82060243331929));
#1302=CARTESIAN_POINT('',(-24.4,27.,4.4));
#1303=CARTESIAN_POINT('Origin',(-23.,27.,4.4));
#1304=CARTESIAN_POINT('Origin',(-23.,27.,0.4));
#1305=CARTESIAN_POINT('',(-24.4,27.,-3.6));
#1306=CARTESIAN_POINT('Origin',(-23.,27.,-3.6));
#1307=CARTESIAN_POINT('Origin',(25.,24.,0.));
#1308=CARTESIAN_POINT('',(-56.,24.,0.));
#1309=CARTESIAN_POINT('',(25.,24.,0.));
#1310=CARTESIAN_POINT('',(6.,24.,0.));
#1311=CARTESIAN_POINT('',(-56.,24.,-3.6));
#1312=CARTESIAN_POINT('',(-56.,24.,0.));
#1313=CARTESIAN_POINT('',(25.,24.,-3.6));
#1314=CARTESIAN_POINT('',(25.,24.,-3.6));
#1315=CARTESIAN_POINT('',(25.,24.,0.));
#1316=CARTESIAN_POINT('Origin',(25.,35.,0.));
#1317=CARTESIAN_POINT('',(25.,35.,0.));
#1318=CARTESIAN_POINT('',(25.,17.5,0.));
#1319=CARTESIAN_POINT('',(25.,35.,-3.6));
#1320=CARTESIAN_POINT('',(25.,35.,-3.6));
#1321=CARTESIAN_POINT('',(25.,35.,0.));
#1322=CARTESIAN_POINT('Origin',(-14.5847891249722,29.3843477071192,-3.6));
#1323=CARTESIAN_POINT('',(-51.,35.,-3.6));
#1324=CARTESIAN_POINT('',(-51.,35.,-3.6));
#1325=CARTESIAN_POINT('',(-56.,30.,-3.6));
#1326=CARTESIAN_POINT('',(-56.,24.,-3.6));
#1327=CARTESIAN_POINT('Origin',(-51.,30.,-3.6));
#1328=CARTESIAN_POINT('Origin',(25.,-24.,0.));
#1329=CARTESIAN_POINT('',(25.,-35.,0.));
#1330=CARTESIAN_POINT('',(25.,-24.,0.));
#1331=CARTESIAN_POINT('',(25.,-12.,0.));
#1332=CARTESIAN_POINT('',(25.,-35.,-3.6));
#1333=CARTESIAN_POINT('',(25.,-35.,0.));
#1334=CARTESIAN_POINT('',(25.,-24.,-3.6));
#1335=CARTESIAN_POINT('',(25.,-24.,-3.6));
#1336=CARTESIAN_POINT('',(25.,-24.,0.));
#1337=CARTESIAN_POINT('Origin',(-56.,-24.,0.));
#1338=CARTESIAN_POINT('',(-56.,-24.,0.));
#1339=CARTESIAN_POINT('',(-34.5,-24.,0.));
#1340=CARTESIAN_POINT('',(-56.,-24.,-3.6));
#1341=CARTESIAN_POINT('',(-56.,-24.,-3.6));
#1342=CARTESIAN_POINT('',(-56.,-24.,0.));
#1343=CARTESIAN_POINT('Origin',(-14.5847891249723,-29.3843477071192,-3.6));
#1344=CARTESIAN_POINT('',(-51.,-35.,-3.6));
#1345=CARTESIAN_POINT('',(25.,-35.,-3.6));
#1346=CARTESIAN_POINT('',(-56.,-30.,-3.6));
#1347=CARTESIAN_POINT('Origin',(-51.,-30.,-3.6));
#1348=CARTESIAN_POINT('',(-56.,-30.,-3.6));
#1349=CARTESIAN_POINT('Origin',(25.,30.,0.));
#1350=CARTESIAN_POINT('',(30.,30.,0.));
#1351=CARTESIAN_POINT('Origin',(25.,30.,0.));
#1352=CARTESIAN_POINT('',(25.,35.,0.));
#1353=CARTESIAN_POINT('',(30.,30.,0.));
#1354=CARTESIAN_POINT('Origin',(30.,-30.,0.));
#1355=CARTESIAN_POINT('',(30.,-30.,0.));
#1356=CARTESIAN_POINT('',(30.,30.,0.));
#1357=CARTESIAN_POINT('',(30.,-30.,0.));
#1358=CARTESIAN_POINT('Origin',(25.,-30.,0.));
#1359=CARTESIAN_POINT('Origin',(25.,-30.,0.));
#1360=CARTESIAN_POINT('',(25.,-35.,0.));
#1361=CARTESIAN_POINT('Origin',(-51.,-35.,0.));
#1362=CARTESIAN_POINT('',(-51.,-35.,0.));
#1363=CARTESIAN_POINT('Origin',(-51.,-30.,0.));
#1364=CARTESIAN_POINT('',(-56.,-30.,0.));
#1365=CARTESIAN_POINT('Origin',(-56.,30.,0.));
#1366=CARTESIAN_POINT('',(-56.,30.,0.));
#1367=CARTESIAN_POINT('',(-56.,-30.,0.));
#1368=CARTESIAN_POINT('Origin',(-51.,30.,0.));
#1369=CARTESIAN_POINT('',(-51.,35.,0.));
#1370=CARTESIAN_POINT('Origin',(25.,35.,0.));
#1371=CARTESIAN_POINT('Origin',(-13.,-4.28219623636819E-015,0.));
#1372=UNCERTAINTY_MEASURE_WITH_UNIT(LENGTH_MEASURE(0.01),#1376,
'DISTANCE_ACCURACY_VALUE',
'Maximum model space distance between geometric entities at asserted c
onnectivities');
#1373=UNCERTAINTY_MEASURE_WITH_UNIT(LENGTH_MEASURE(1.E-006),#1376,
'DISTANCE_ACCURACY_VALUE',
'Maximum model space distance between geometric entities at asserted c
onnectivities');
#1374=(
GEOMETRIC_REPRESENTATION_CONTEXT(3)
GLOBAL_UNCERTAINTY_ASSIGNED_CONTEXT((#1372))
GLOBAL_UNIT_ASSIGNED_CONTEXT((#1376,#1379,#1377))
REPRESENTATION_CONTEXT('','3D')
);
#1375=(
GEOMETRIC_REPRESENTATION_CONTEXT(3)
GLOBAL_UNCERTAINTY_ASSIGNED_CONTEXT((#1373))
GLOBAL_UNIT_ASSIGNED_CONTEXT((#1376,#1379,#1377))
REPRESENTATION_CONTEXT('','3D')
);
#1376=(
LENGTH_UNIT()
NAMED_UNIT(*)
SI_UNIT(.MILLI.,.METRE.)
);
#1377=(
NAMED_UNIT(*)
SI_UNIT($,.STERADIAN.)
SOLID_ANGLE_UNIT()
);
#1378=DIMENSIONAL_EXPONENTS(0.,0.,0.,0.,0.,0.,0.);
#1379=(
CONVERSION_BASED_UNIT('degree',#1381)
NAMED_UNIT(#1378)
PLANE_ANGLE_UNIT()
);
#1380=(
NAMED_UNIT(*)
PLANE_ANGLE_UNIT()
SI_UNIT($,.RADIAN.)
);
#1381=PLANE_ANGLE_MEASURE_WITH_UNIT(PLANE_ANGLE_MEASURE(0.01745329252),
#1380);
#1382=SHAPE_DEFINITION_REPRESENTATION(#1383,#1384);
#1383=PRODUCT_DEFINITION_SHAPE('',$,#1386);
#1384=SHAPE_REPRESENTATION('',(#705),#1374);
#1385=PRODUCT_DEFINITION_CONTEXT('part definition',#1390,'design');
#1386=PRODUCT_DEFINITION('sockelplatte','sockelplatte',#1387,#1385);
#1387=PRODUCT_DEFINITION_FORMATION('',$,#1392);
#1388=PRODUCT_RELATED_PRODUCT_CATEGORY('sockelplatte','sockelplatte',(#1392));
#1389=APPLICATION_PROTOCOL_DEFINITION('international standard',
'automotive_design',2009,#1390);
#1390=APPLICATION_CONTEXT(
'Core Data for Automotive Mechanical Design Process');
#1391=PRODUCT_CONTEXT('part definition',#1390,'mechanical');
#1392=PRODUCT('sockelplatte','sockelplatte',$,(#1391));
#1393=PRESENTATION_STYLE_ASSIGNMENT((#1394));
#1394=SURFACE_STYLE_USAGE(.BOTH.,#1395);
#1395=SURFACE_SIDE_STYLE($,(#1396));
#1396=SURFACE_STYLE_FILL_AREA(#1397);
#1397=FILL_AREA_STYLE($,(#1398));
#1398=FILL_AREA_STYLE_COLOUR($,#1399);
#1399=COLOUR_RGB('',0.,0.6,0.8);
ENDSEC;
END-ISO-10303-21;
