ISO-10303-21;
HEADER;
/* Generated by software containing ST-Developer
 * from STEP Tools, Inc. (www.steptools.com) 
 */

FILE_DESCRIPTION(
/* description */ (''),
/* implementation_level */ '2;1');

FILE_NAME(
/* name */ 
'C:\\Users\\SvenW\\Documents\\inventor\\B-Automaten\\Export_B_Automate
n\\ExportGithub\\Tuercoinomat.stp',
/* time_stamp */ '2026-05-14T07:54:19+02:00',
/* author */ ('SvenW'),
/* organization */ (''),
/* preprocessor_version */ 'ST-DEVELOPER v15.2',
/* originating_system */ 'Autodesk Inventor 2014',
/* authorisation */ '');

FILE_SCHEMA (('AUTOMOTIVE_DESIGN { 1 0 10303 214 3 1 1 }'));
ENDSEC;

DATA;
#10=MECHANICAL_DESIGN_GEOMETRIC_PRESENTATION_REPRESENTATION('',(#13),#723);
#11=SHAPE_REPRESENTATION_RELATIONSHIP('SRR','None',#732,#12);
#12=ADVANCED_BREP_SHAPE_REPRESENTATION($,(#427),#722);
#13=STYLED_ITEM('',(#741),#427);
#14=FACE_BOUND('',#69,.T.);
#15=FACE_BOUND('',#71,.T.);
#16=FACE_BOUND('',#73,.T.);
#17=FACE_BOUND('',#75,.T.);
#18=FACE_BOUND('',#84,.T.);
#19=FACE_BOUND('',#85,.T.);
#20=FACE_BOUND('',#86,.T.);
#21=FACE_BOUND('',#87,.T.);
#22=FACE_BOUND('',#88,.T.);
#23=FACE_BOUND('',#89,.T.);
#24=FACE_BOUND('',#90,.T.);
#25=FACE_BOUND('',#91,.T.);
#26=FACE_BOUND('',#92,.T.);
#27=FACE_BOUND('',#93,.T.);
#28=FACE_BOUND('',#94,.T.);
#29=FACE_BOUND('',#95,.T.);
#30=PLANE('',#432);
#31=PLANE('',#436);
#32=PLANE('',#440);
#33=PLANE('',#444);
#34=PLANE('',#460);
#35=PLANE('',#464);
#36=PLANE('',#468);
#37=PLANE('',#472);
#38=PLANE('',#473);
#39=PLANE('',#474);
#40=FACE_OUTER_BOUND('',#60,.T.);
#41=FACE_OUTER_BOUND('',#61,.T.);
#42=FACE_OUTER_BOUND('',#62,.T.);
#43=FACE_OUTER_BOUND('',#63,.T.);
#44=FACE_OUTER_BOUND('',#64,.T.);
#45=FACE_OUTER_BOUND('',#65,.T.);
#46=FACE_OUTER_BOUND('',#66,.T.);
#47=FACE_OUTER_BOUND('',#67,.T.);
#48=FACE_OUTER_BOUND('',#68,.T.);
#49=FACE_OUTER_BOUND('',#70,.T.);
#50=FACE_OUTER_BOUND('',#72,.T.);
#51=FACE_OUTER_BOUND('',#74,.T.);
#52=FACE_OUTER_BOUND('',#76,.T.);
#53=FACE_OUTER_BOUND('',#77,.T.);
#54=FACE_OUTER_BOUND('',#78,.T.);
#55=FACE_OUTER_BOUND('',#79,.T.);
#56=FACE_OUTER_BOUND('',#80,.T.);
#57=FACE_OUTER_BOUND('',#81,.T.);
#58=FACE_OUTER_BOUND('',#82,.T.);
#59=FACE_OUTER_BOUND('',#83,.T.);
#60=EDGE_LOOP('',(#280,#281,#282,#283));
#61=EDGE_LOOP('',(#284,#285,#286,#287));
#62=EDGE_LOOP('',(#288,#289,#290,#291));
#63=EDGE_LOOP('',(#292,#293,#294,#295));
#64=EDGE_LOOP('',(#296,#297,#298,#299));
#65=EDGE_LOOP('',(#300,#301,#302,#303));
#66=EDGE_LOOP('',(#304,#305,#306,#307));
#67=EDGE_LOOP('',(#308,#309,#310,#311));
#68=EDGE_LOOP('',(#312));
#69=EDGE_LOOP('',(#313));
#70=EDGE_LOOP('',(#314));
#71=EDGE_LOOP('',(#315));
#72=EDGE_LOOP('',(#316));
#73=EDGE_LOOP('',(#317));
#74=EDGE_LOOP('',(#318));
#75=EDGE_LOOP('',(#319));
#76=EDGE_LOOP('',(#320,#321,#322,#323));
#77=EDGE_LOOP('',(#324,#325,#326,#327));
#78=EDGE_LOOP('',(#328,#329,#330,#331));
#79=EDGE_LOOP('',(#332,#333,#334,#335));
#80=EDGE_LOOP('',(#336,#337,#338,#339));
#81=EDGE_LOOP('',(#340,#341,#342,#343));
#82=EDGE_LOOP('',(#344,#345,#346,#347));
#83=EDGE_LOOP('',(#348,#349,#350,#351));
#84=EDGE_LOOP('',(#352,#353,#354,#355,#356,#357,#358,#359));
#85=EDGE_LOOP('',(#360));
#86=EDGE_LOOP('',(#361));
#87=EDGE_LOOP('',(#362));
#88=EDGE_LOOP('',(#363));
#89=EDGE_LOOP('',(#364,#365,#366,#367,#368,#369,#370,#371));
#90=EDGE_LOOP('',(#372,#373,#374,#375,#376,#377,#378,#379));
#91=EDGE_LOOP('',(#380));
#92=EDGE_LOOP('',(#381));
#93=EDGE_LOOP('',(#382));
#94=EDGE_LOOP('',(#383));
#95=EDGE_LOOP('',(#384,#385,#386,#387,#388,#389,#390,#391));
#96=LINE('',#607,#128);
#97=LINE('',#610,#129);
#98=LINE('',#613,#130);
#99=LINE('',#615,#131);
#100=LINE('',#616,#132);
#101=LINE('',#622,#133);
#102=LINE('',#625,#134);
#103=LINE('',#627,#135);
#104=LINE('',#628,#136);
#105=LINE('',#634,#137);
#106=LINE('',#637,#138);
#107=LINE('',#639,#139);
#108=LINE('',#640,#140);
#109=LINE('',#646,#141);
#110=LINE('',#648,#142);
#111=LINE('',#649,#143);
#112=LINE('',#675,#144);
#113=LINE('',#678,#145);
#114=LINE('',#681,#146);
#115=LINE('',#683,#147);
#116=LINE('',#684,#148);
#117=LINE('',#690,#149);
#118=LINE('',#693,#150);
#119=LINE('',#695,#151);
#120=LINE('',#696,#152);
#121=LINE('',#702,#153);
#122=LINE('',#705,#154);
#123=LINE('',#707,#155);
#124=LINE('',#708,#156);
#125=LINE('',#714,#157);
#126=LINE('',#716,#158);
#127=LINE('',#717,#159);
#128=VECTOR('',#481,3.);
#129=VECTOR('',#484,3.);
#130=VECTOR('',#487,65.);
#131=VECTOR('',#488,65.);
#132=VECTOR('',#489,3.);
#133=VECTOR('',#496,3.);
#134=VECTOR('',#499,20.);
#135=VECTOR('',#500,20.);
#136=VECTOR('',#501,3.);
#137=VECTOR('',#508,3.);
#138=VECTOR('',#511,65.);
#139=VECTOR('',#512,65.);
#140=VECTOR('',#513,3.);
#141=VECTOR('',#520,3.);
#142=VECTOR('',#523,20.);
#143=VECTOR('',#524,20.);
#144=VECTOR('',#553,3.);
#145=VECTOR('',#556,3.);
#146=VECTOR('',#559,175.);
#147=VECTOR('',#560,175.);
#148=VECTOR('',#561,3.);
#149=VECTOR('',#568,3.);
#150=VECTOR('',#571,156.);
#151=VECTOR('',#572,156.);
#152=VECTOR('',#573,3.);
#153=VECTOR('',#580,3.);
#154=VECTOR('',#583,175.);
#155=VECTOR('',#584,175.);
#156=VECTOR('',#585,3.);
#157=VECTOR('',#592,3.);
#158=VECTOR('',#595,156.);
#159=VECTOR('',#596,156.);
#160=CIRCLE('',#430,5.);
#161=CIRCLE('',#431,5.);
#162=CIRCLE('',#434,5.00000000000001);
#163=CIRCLE('',#435,5.00000000000001);
#164=CIRCLE('',#438,5.00000000000002);
#165=CIRCLE('',#439,5.00000000000002);
#166=CIRCLE('',#442,5.);
#167=CIRCLE('',#443,5.);
#168=CIRCLE('',#446,1.75);
#169=CIRCLE('',#447,1.75);
#170=CIRCLE('',#449,1.75);
#171=CIRCLE('',#450,1.75);
#172=CIRCLE('',#452,1.75);
#173=CIRCLE('',#453,1.75);
#174=CIRCLE('',#455,1.75);
#175=CIRCLE('',#456,1.75);
#176=CIRCLE('',#458,10.);
#177=CIRCLE('',#459,10.);
#178=CIRCLE('',#462,10.);
#179=CIRCLE('',#463,10.);
#180=CIRCLE('',#466,10.);
#181=CIRCLE('',#467,10.);
#182=CIRCLE('',#470,10.);
#183=CIRCLE('',#471,10.);
#184=VERTEX_POINT('',#603);
#185=VERTEX_POINT('',#604);
#186=VERTEX_POINT('',#606);
#187=VERTEX_POINT('',#608);
#188=VERTEX_POINT('',#612);
#189=VERTEX_POINT('',#614);
#190=VERTEX_POINT('',#618);
#191=VERTEX_POINT('',#620);
#192=VERTEX_POINT('',#624);
#193=VERTEX_POINT('',#626);
#194=VERTEX_POINT('',#630);
#195=VERTEX_POINT('',#632);
#196=VERTEX_POINT('',#636);
#197=VERTEX_POINT('',#638);
#198=VERTEX_POINT('',#642);
#199=VERTEX_POINT('',#644);
#200=VERTEX_POINT('',#651);
#201=VERTEX_POINT('',#653);
#202=VERTEX_POINT('',#656);
#203=VERTEX_POINT('',#658);
#204=VERTEX_POINT('',#661);
#205=VERTEX_POINT('',#663);
#206=VERTEX_POINT('',#666);
#207=VERTEX_POINT('',#668);
#208=VERTEX_POINT('',#671);
#209=VERTEX_POINT('',#672);
#210=VERTEX_POINT('',#674);
#211=VERTEX_POINT('',#676);
#212=VERTEX_POINT('',#680);
#213=VERTEX_POINT('',#682);
#214=VERTEX_POINT('',#686);
#215=VERTEX_POINT('',#688);
#216=VERTEX_POINT('',#692);
#217=VERTEX_POINT('',#694);
#218=VERTEX_POINT('',#698);
#219=VERTEX_POINT('',#700);
#220=VERTEX_POINT('',#704);
#221=VERTEX_POINT('',#706);
#222=VERTEX_POINT('',#710);
#223=VERTEX_POINT('',#712);
#224=EDGE_CURVE('',#184,#185,#160,.T.);
#225=EDGE_CURVE('',#186,#184,#96,.T.);
#226=EDGE_CURVE('',#187,#186,#161,.T.);
#227=EDGE_CURVE('',#187,#185,#97,.T.);
#228=EDGE_CURVE('',#185,#188,#98,.T.);
#229=EDGE_CURVE('',#189,#187,#99,.T.);
#230=EDGE_CURVE('',#189,#188,#100,.T.);
#231=EDGE_CURVE('',#188,#190,#162,.T.);
#232=EDGE_CURVE('',#191,#189,#163,.T.);
#233=EDGE_CURVE('',#191,#190,#101,.T.);
#234=EDGE_CURVE('',#190,#192,#102,.T.);
#235=EDGE_CURVE('',#193,#191,#103,.T.);
#236=EDGE_CURVE('',#193,#192,#104,.T.);
#237=EDGE_CURVE('',#192,#194,#164,.T.);
#238=EDGE_CURVE('',#195,#193,#165,.T.);
#239=EDGE_CURVE('',#195,#194,#105,.T.);
#240=EDGE_CURVE('',#194,#196,#106,.T.);
#241=EDGE_CURVE('',#197,#195,#107,.T.);
#242=EDGE_CURVE('',#197,#196,#108,.T.);
#243=EDGE_CURVE('',#196,#198,#166,.T.);
#244=EDGE_CURVE('',#199,#197,#167,.T.);
#245=EDGE_CURVE('',#199,#198,#109,.T.);
#246=EDGE_CURVE('',#198,#184,#110,.T.);
#247=EDGE_CURVE('',#186,#199,#111,.T.);
#248=EDGE_CURVE('',#200,#200,#168,.T.);
#249=EDGE_CURVE('',#201,#201,#169,.T.);
#250=EDGE_CURVE('',#202,#202,#170,.T.);
#251=EDGE_CURVE('',#203,#203,#171,.T.);
#252=EDGE_CURVE('',#204,#204,#172,.T.);
#253=EDGE_CURVE('',#205,#205,#173,.T.);
#254=EDGE_CURVE('',#206,#206,#174,.T.);
#255=EDGE_CURVE('',#207,#207,#175,.T.);
#256=EDGE_CURVE('',#208,#209,#176,.T.);
#257=EDGE_CURVE('',#208,#210,#112,.T.);
#258=EDGE_CURVE('',#211,#210,#177,.T.);
#259=EDGE_CURVE('',#209,#211,#113,.T.);
#260=EDGE_CURVE('',#209,#212,#114,.T.);
#261=EDGE_CURVE('',#213,#211,#115,.T.);
#262=EDGE_CURVE('',#212,#213,#116,.T.);
#263=EDGE_CURVE('',#212,#214,#178,.T.);
#264=EDGE_CURVE('',#215,#213,#179,.T.);
#265=EDGE_CURVE('',#214,#215,#117,.T.);
#266=EDGE_CURVE('',#214,#216,#118,.T.);
#267=EDGE_CURVE('',#217,#215,#119,.T.);
#268=EDGE_CURVE('',#216,#217,#120,.T.);
#269=EDGE_CURVE('',#216,#218,#180,.T.);
#270=EDGE_CURVE('',#219,#217,#181,.T.);
#271=EDGE_CURVE('',#218,#219,#121,.T.);
#272=EDGE_CURVE('',#218,#220,#122,.T.);
#273=EDGE_CURVE('',#221,#219,#123,.T.);
#274=EDGE_CURVE('',#220,#221,#124,.T.);
#275=EDGE_CURVE('',#220,#222,#182,.T.);
#276=EDGE_CURVE('',#223,#221,#183,.T.);
#277=EDGE_CURVE('',#222,#223,#125,.T.);
#278=EDGE_CURVE('',#222,#208,#126,.T.);
#279=EDGE_CURVE('',#210,#223,#127,.T.);
#280=ORIENTED_EDGE('',*,*,#224,.F.);
#281=ORIENTED_EDGE('',*,*,#225,.F.);
#282=ORIENTED_EDGE('',*,*,#226,.F.);
#283=ORIENTED_EDGE('',*,*,#227,.T.);
#284=ORIENTED_EDGE('',*,*,#228,.F.);
#285=ORIENTED_EDGE('',*,*,#227,.F.);
#286=ORIENTED_EDGE('',*,*,#229,.F.);
#287=ORIENTED_EDGE('',*,*,#230,.T.);
#288=ORIENTED_EDGE('',*,*,#231,.F.);
#289=ORIENTED_EDGE('',*,*,#230,.F.);
#290=ORIENTED_EDGE('',*,*,#232,.F.);
#291=ORIENTED_EDGE('',*,*,#233,.T.);
#292=ORIENTED_EDGE('',*,*,#234,.F.);
#293=ORIENTED_EDGE('',*,*,#233,.F.);
#294=ORIENTED_EDGE('',*,*,#235,.F.);
#295=ORIENTED_EDGE('',*,*,#236,.T.);
#296=ORIENTED_EDGE('',*,*,#237,.F.);
#297=ORIENTED_EDGE('',*,*,#236,.F.);
#298=ORIENTED_EDGE('',*,*,#238,.F.);
#299=ORIENTED_EDGE('',*,*,#239,.T.);
#300=ORIENTED_EDGE('',*,*,#240,.F.);
#301=ORIENTED_EDGE('',*,*,#239,.F.);
#302=ORIENTED_EDGE('',*,*,#241,.F.);
#303=ORIENTED_EDGE('',*,*,#242,.T.);
#304=ORIENTED_EDGE('',*,*,#243,.F.);
#305=ORIENTED_EDGE('',*,*,#242,.F.);
#306=ORIENTED_EDGE('',*,*,#244,.F.);
#307=ORIENTED_EDGE('',*,*,#245,.T.);
#308=ORIENTED_EDGE('',*,*,#246,.F.);
#309=ORIENTED_EDGE('',*,*,#245,.F.);
#310=ORIENTED_EDGE('',*,*,#247,.F.);
#311=ORIENTED_EDGE('',*,*,#225,.T.);
#312=ORIENTED_EDGE('',*,*,#248,.F.);
#313=ORIENTED_EDGE('',*,*,#249,.F.);
#314=ORIENTED_EDGE('',*,*,#250,.F.);
#315=ORIENTED_EDGE('',*,*,#251,.F.);
#316=ORIENTED_EDGE('',*,*,#252,.F.);
#317=ORIENTED_EDGE('',*,*,#253,.F.);
#318=ORIENTED_EDGE('',*,*,#254,.F.);
#319=ORIENTED_EDGE('',*,*,#255,.F.);
#320=ORIENTED_EDGE('',*,*,#256,.F.);
#321=ORIENTED_EDGE('',*,*,#257,.T.);
#322=ORIENTED_EDGE('',*,*,#258,.F.);
#323=ORIENTED_EDGE('',*,*,#259,.F.);
#324=ORIENTED_EDGE('',*,*,#260,.F.);
#325=ORIENTED_EDGE('',*,*,#259,.T.);
#326=ORIENTED_EDGE('',*,*,#261,.F.);
#327=ORIENTED_EDGE('',*,*,#262,.F.);
#328=ORIENTED_EDGE('',*,*,#263,.F.);
#329=ORIENTED_EDGE('',*,*,#262,.T.);
#330=ORIENTED_EDGE('',*,*,#264,.F.);
#331=ORIENTED_EDGE('',*,*,#265,.F.);
#332=ORIENTED_EDGE('',*,*,#266,.F.);
#333=ORIENTED_EDGE('',*,*,#265,.T.);
#334=ORIENTED_EDGE('',*,*,#267,.F.);
#335=ORIENTED_EDGE('',*,*,#268,.F.);
#336=ORIENTED_EDGE('',*,*,#269,.F.);
#337=ORIENTED_EDGE('',*,*,#268,.T.);
#338=ORIENTED_EDGE('',*,*,#270,.F.);
#339=ORIENTED_EDGE('',*,*,#271,.F.);
#340=ORIENTED_EDGE('',*,*,#272,.F.);
#341=ORIENTED_EDGE('',*,*,#271,.T.);
#342=ORIENTED_EDGE('',*,*,#273,.F.);
#343=ORIENTED_EDGE('',*,*,#274,.F.);
#344=ORIENTED_EDGE('',*,*,#275,.F.);
#345=ORIENTED_EDGE('',*,*,#274,.T.);
#346=ORIENTED_EDGE('',*,*,#276,.F.);
#347=ORIENTED_EDGE('',*,*,#277,.F.);
#348=ORIENTED_EDGE('',*,*,#278,.F.);
#349=ORIENTED_EDGE('',*,*,#277,.T.);
#350=ORIENTED_EDGE('',*,*,#279,.F.);
#351=ORIENTED_EDGE('',*,*,#257,.F.);
#352=ORIENTED_EDGE('',*,*,#237,.T.);
#353=ORIENTED_EDGE('',*,*,#240,.T.);
#354=ORIENTED_EDGE('',*,*,#243,.T.);
#355=ORIENTED_EDGE('',*,*,#246,.T.);
#356=ORIENTED_EDGE('',*,*,#224,.T.);
#357=ORIENTED_EDGE('',*,*,#228,.T.);
#358=ORIENTED_EDGE('',*,*,#231,.T.);
#359=ORIENTED_EDGE('',*,*,#234,.T.);
#360=ORIENTED_EDGE('',*,*,#248,.T.);
#361=ORIENTED_EDGE('',*,*,#250,.T.);
#362=ORIENTED_EDGE('',*,*,#252,.T.);
#363=ORIENTED_EDGE('',*,*,#254,.T.);
#364=ORIENTED_EDGE('',*,*,#278,.T.);
#365=ORIENTED_EDGE('',*,*,#256,.T.);
#366=ORIENTED_EDGE('',*,*,#260,.T.);
#367=ORIENTED_EDGE('',*,*,#263,.T.);
#368=ORIENTED_EDGE('',*,*,#266,.T.);
#369=ORIENTED_EDGE('',*,*,#269,.T.);
#370=ORIENTED_EDGE('',*,*,#272,.T.);
#371=ORIENTED_EDGE('',*,*,#275,.T.);
#372=ORIENTED_EDGE('',*,*,#238,.T.);
#373=ORIENTED_EDGE('',*,*,#235,.T.);
#374=ORIENTED_EDGE('',*,*,#232,.T.);
#375=ORIENTED_EDGE('',*,*,#229,.T.);
#376=ORIENTED_EDGE('',*,*,#226,.T.);
#377=ORIENTED_EDGE('',*,*,#247,.T.);
#378=ORIENTED_EDGE('',*,*,#244,.T.);
#379=ORIENTED_EDGE('',*,*,#241,.T.);
#380=ORIENTED_EDGE('',*,*,#249,.T.);
#381=ORIENTED_EDGE('',*,*,#251,.T.);
#382=ORIENTED_EDGE('',*,*,#253,.T.);
#383=ORIENTED_EDGE('',*,*,#255,.T.);
#384=ORIENTED_EDGE('',*,*,#279,.T.);
#385=ORIENTED_EDGE('',*,*,#276,.T.);
#386=ORIENTED_EDGE('',*,*,#273,.T.);
#387=ORIENTED_EDGE('',*,*,#270,.T.);
#388=ORIENTED_EDGE('',*,*,#267,.T.);
#389=ORIENTED_EDGE('',*,*,#264,.T.);
#390=ORIENTED_EDGE('',*,*,#261,.T.);
#391=ORIENTED_EDGE('',*,*,#258,.T.);
#392=CYLINDRICAL_SURFACE('',#429,5.);
#393=CYLINDRICAL_SURFACE('',#433,5.00000000000001);
#394=CYLINDRICAL_SURFACE('',#437,5.00000000000002);
#395=CYLINDRICAL_SURFACE('',#441,5.);
#396=CYLINDRICAL_SURFACE('',#445,1.75);
#397=CYLINDRICAL_SURFACE('',#448,1.75);
#398=CYLINDRICAL_SURFACE('',#451,1.75);
#399=CYLINDRICAL_SURFACE('',#454,1.75);
#400=CYLINDRICAL_SURFACE('',#457,10.);
#401=CYLINDRICAL_SURFACE('',#461,10.);
#402=CYLINDRICAL_SURFACE('',#465,10.);
#403=CYLINDRICAL_SURFACE('',#469,10.);
#404=ADVANCED_FACE('',(#40),#392,.F.);
#405=ADVANCED_FACE('',(#41),#30,.F.);
#406=ADVANCED_FACE('',(#42),#393,.F.);
#407=ADVANCED_FACE('',(#43),#31,.F.);
#408=ADVANCED_FACE('',(#44),#394,.F.);
#409=ADVANCED_FACE('',(#45),#32,.F.);
#410=ADVANCED_FACE('',(#46),#395,.F.);
#411=ADVANCED_FACE('',(#47),#33,.F.);
#412=ADVANCED_FACE('',(#48,#14),#396,.F.);
#413=ADVANCED_FACE('',(#49,#15),#397,.F.);
#414=ADVANCED_FACE('',(#50,#16),#398,.F.);
#415=ADVANCED_FACE('',(#51,#17),#399,.F.);
#416=ADVANCED_FACE('',(#52),#400,.T.);
#417=ADVANCED_FACE('',(#53),#34,.T.);
#418=ADVANCED_FACE('',(#54),#401,.T.);
#419=ADVANCED_FACE('',(#55),#35,.T.);
#420=ADVANCED_FACE('',(#56),#402,.T.);
#421=ADVANCED_FACE('',(#57),#36,.T.);
#422=ADVANCED_FACE('',(#58),#403,.T.);
#423=ADVANCED_FACE('',(#59),#37,.T.);
#424=ADVANCED_FACE('',(#18,#19,#20,#21,#22,#23),#38,.F.);
#425=ADVANCED_FACE('',(#24,#25,#26,#27,#28,#29),#39,.T.);
#426=CLOSED_SHELL('',(#404,#405,#406,#407,#408,#409,#410,#411,#412,#413,
#414,#415,#416,#417,#418,#419,#420,#421,#422,#423,#424,#425));
#427=MANIFOLD_SOLID_BREP('Volumenk\X\F6rper1',#426);
#428=AXIS2_PLACEMENT_3D('placement',#601,#475,#476);
#429=AXIS2_PLACEMENT_3D('',#602,#477,#478);
#430=AXIS2_PLACEMENT_3D('',#605,#479,#480);
#431=AXIS2_PLACEMENT_3D('',#609,#482,#483);
#432=AXIS2_PLACEMENT_3D('',#611,#485,#486);
#433=AXIS2_PLACEMENT_3D('',#617,#490,#491);
#434=AXIS2_PLACEMENT_3D('',#619,#492,#493);
#435=AXIS2_PLACEMENT_3D('',#621,#494,#495);
#436=AXIS2_PLACEMENT_3D('',#623,#497,#498);
#437=AXIS2_PLACEMENT_3D('',#629,#502,#503);
#438=AXIS2_PLACEMENT_3D('',#631,#504,#505);
#439=AXIS2_PLACEMENT_3D('',#633,#506,#507);
#440=AXIS2_PLACEMENT_3D('',#635,#509,#510);
#441=AXIS2_PLACEMENT_3D('',#641,#514,#515);
#442=AXIS2_PLACEMENT_3D('',#643,#516,#517);
#443=AXIS2_PLACEMENT_3D('',#645,#518,#519);
#444=AXIS2_PLACEMENT_3D('',#647,#521,#522);
#445=AXIS2_PLACEMENT_3D('',#650,#525,#526);
#446=AXIS2_PLACEMENT_3D('',#652,#527,#528);
#447=AXIS2_PLACEMENT_3D('',#654,#529,#530);
#448=AXIS2_PLACEMENT_3D('',#655,#531,#532);
#449=AXIS2_PLACEMENT_3D('',#657,#533,#534);
#450=AXIS2_PLACEMENT_3D('',#659,#535,#536);
#451=AXIS2_PLACEMENT_3D('',#660,#537,#538);
#452=AXIS2_PLACEMENT_3D('',#662,#539,#540);
#453=AXIS2_PLACEMENT_3D('',#664,#541,#542);
#454=AXIS2_PLACEMENT_3D('',#665,#543,#544);
#455=AXIS2_PLACEMENT_3D('',#667,#545,#546);
#456=AXIS2_PLACEMENT_3D('',#669,#547,#548);
#457=AXIS2_PLACEMENT_3D('',#670,#549,#550);
#458=AXIS2_PLACEMENT_3D('',#673,#551,#552);
#459=AXIS2_PLACEMENT_3D('',#677,#554,#555);
#460=AXIS2_PLACEMENT_3D('',#679,#557,#558);
#461=AXIS2_PLACEMENT_3D('',#685,#562,#563);
#462=AXIS2_PLACEMENT_3D('',#687,#564,#565);
#463=AXIS2_PLACEMENT_3D('',#689,#566,#567);
#464=AXIS2_PLACEMENT_3D('',#691,#569,#570);
#465=AXIS2_PLACEMENT_3D('',#697,#574,#575);
#466=AXIS2_PLACEMENT_3D('',#699,#576,#577);
#467=AXIS2_PLACEMENT_3D('',#701,#578,#579);
#468=AXIS2_PLACEMENT_3D('',#703,#581,#582);
#469=AXIS2_PLACEMENT_3D('',#709,#586,#587);
#470=AXIS2_PLACEMENT_3D('',#711,#588,#589);
#471=AXIS2_PLACEMENT_3D('',#713,#590,#591);
#472=AXIS2_PLACEMENT_3D('',#715,#593,#594);
#473=AXIS2_PLACEMENT_3D('',#718,#597,#598);
#474=AXIS2_PLACEMENT_3D('',#719,#599,#600);
#475=DIRECTION('axis',(0.,0.,1.));
#476=DIRECTION('refdir',(1.,0.,0.));
#477=DIRECTION('center_axis',(0.,0.,-1.));
#478=DIRECTION('ref_axis',(1.,0.,0.));
#479=DIRECTION('center_axis',(0.,0.,1.));
#480=DIRECTION('ref_axis',(1.,0.,0.));
#481=DIRECTION('',(0.,0.,-1.));
#482=DIRECTION('center_axis',(0.,0.,-1.));
#483=DIRECTION('ref_axis',(1.,0.,0.));
#484=DIRECTION('',(0.,0.,-1.));
#485=DIRECTION('center_axis',(0.,1.,0.));
#486=DIRECTION('ref_axis',(1.,0.,0.));
#487=DIRECTION('',(-1.,0.,0.));
#488=DIRECTION('',(1.,0.,0.));
#489=DIRECTION('',(0.,0.,-1.));
#490=DIRECTION('center_axis',(0.,0.,-1.));
#491=DIRECTION('ref_axis',(1.11022302462516E-016,1.,0.));
#492=DIRECTION('center_axis',(0.,0.,1.));
#493=DIRECTION('ref_axis',(1.11022302462516E-016,1.,0.));
#494=DIRECTION('center_axis',(0.,0.,-1.));
#495=DIRECTION('ref_axis',(1.11022302462516E-016,1.,0.));
#496=DIRECTION('',(0.,0.,-1.));
#497=DIRECTION('center_axis',(-1.,-2.22044604925031E-016,0.));
#498=DIRECTION('ref_axis',(-2.66453525910038E-016,1.,0.));
#499=DIRECTION('',(2.22044604925031E-016,-1.,0.));
#500=DIRECTION('',(-2.22044604925031E-016,1.,0.));
#501=DIRECTION('',(0.,0.,-1.));
#502=DIRECTION('center_axis',(0.,0.,-1.));
#503=DIRECTION('ref_axis',(-1.,0.,0.));
#504=DIRECTION('center_axis',(0.,0.,1.));
#505=DIRECTION('ref_axis',(-1.,0.,0.));
#506=DIRECTION('center_axis',(0.,0.,-1.));
#507=DIRECTION('ref_axis',(-1.,0.,0.));
#508=DIRECTION('',(0.,0.,-1.));
#509=DIRECTION('center_axis',(-2.73285667600039E-016,-1.,0.));
#510=DIRECTION('ref_axis',(-1.,0.,0.));
#511=DIRECTION('',(1.,-2.73285667600039E-016,0.));
#512=DIRECTION('',(-1.,2.73285667600039E-016,0.));
#513=DIRECTION('',(0.,0.,-1.));
#514=DIRECTION('center_axis',(0.,0.,-1.));
#515=DIRECTION('ref_axis',(0.,-1.,0.));
#516=DIRECTION('center_axis',(0.,0.,1.));
#517=DIRECTION('ref_axis',(0.,-1.,0.));
#518=DIRECTION('center_axis',(0.,0.,-1.));
#519=DIRECTION('ref_axis',(0.,-1.,0.));
#520=DIRECTION('',(0.,0.,-1.));
#521=DIRECTION('center_axis',(1.,0.,0.));
#522=DIRECTION('ref_axis',(0.,-1.,0.));
#523=DIRECTION('',(0.,1.,0.));
#524=DIRECTION('',(0.,-1.,0.));
#525=DIRECTION('center_axis',(0.,0.,-1.));
#526=DIRECTION('ref_axis',(-1.,0.,0.));
#527=DIRECTION('center_axis',(0.,0.,1.));
#528=DIRECTION('ref_axis',(-1.,0.,0.));
#529=DIRECTION('center_axis',(0.,0.,-1.));
#530=DIRECTION('ref_axis',(-1.,0.,0.));
#531=DIRECTION('center_axis',(0.,0.,-1.));
#532=DIRECTION('ref_axis',(-1.,0.,0.));
#533=DIRECTION('center_axis',(0.,0.,1.));
#534=DIRECTION('ref_axis',(-1.,0.,0.));
#535=DIRECTION('center_axis',(0.,0.,-1.));
#536=DIRECTION('ref_axis',(-1.,0.,0.));
#537=DIRECTION('center_axis',(0.,0.,-1.));
#538=DIRECTION('ref_axis',(-1.,0.,0.));
#539=DIRECTION('center_axis',(0.,0.,1.));
#540=DIRECTION('ref_axis',(-1.,0.,0.));
#541=DIRECTION('center_axis',(0.,0.,-1.));
#542=DIRECTION('ref_axis',(-1.,0.,0.));
#543=DIRECTION('center_axis',(0.,0.,-1.));
#544=DIRECTION('ref_axis',(-1.,0.,0.));
#545=DIRECTION('center_axis',(0.,0.,1.));
#546=DIRECTION('ref_axis',(-1.,0.,0.));
#547=DIRECTION('center_axis',(0.,0.,-1.));
#548=DIRECTION('ref_axis',(-1.,0.,0.));
#549=DIRECTION('center_axis',(0.,0.,1.));
#550=DIRECTION('ref_axis',(-1.,0.,0.));
#551=DIRECTION('center_axis',(0.,0.,-1.));
#552=DIRECTION('ref_axis',(-1.,0.,0.));
#553=DIRECTION('',(0.,0.,1.));
#554=DIRECTION('center_axis',(0.,0.,1.));
#555=DIRECTION('ref_axis',(-1.,0.,0.));
#556=DIRECTION('',(0.,0.,1.));
#557=DIRECTION('center_axis',(1.,1.52259157662879E-016,0.));
#558=DIRECTION('ref_axis',(0.,1.,0.));
#559=DIRECTION('',(1.52259157662879E-016,-1.,0.));
#560=DIRECTION('',(-1.52259157662879E-016,1.,0.));
#561=DIRECTION('',(0.,0.,1.));
#562=DIRECTION('center_axis',(0.,0.,1.));
#563=DIRECTION('ref_axis',(0.,1.,0.));
#564=DIRECTION('center_axis',(0.,0.,-1.));
#565=DIRECTION('ref_axis',(0.,1.,0.));
#566=DIRECTION('center_axis',(0.,0.,1.));
#567=DIRECTION('ref_axis',(0.,1.,0.));
#568=DIRECTION('',(0.,0.,1.));
#569=DIRECTION('center_axis',(1.13869028166683E-016,-1.,0.));
#570=DIRECTION('ref_axis',(1.,0.,0.));
#571=DIRECTION('',(-1.,-1.13869028166683E-016,0.));
#572=DIRECTION('',(1.,1.13869028166683E-016,0.));
#573=DIRECTION('',(0.,0.,1.));
#574=DIRECTION('center_axis',(0.,0.,1.));
#575=DIRECTION('ref_axis',(1.,0.,0.));
#576=DIRECTION('center_axis',(0.,0.,-1.));
#577=DIRECTION('ref_axis',(1.,0.,0.));
#578=DIRECTION('center_axis',(0.,0.,1.));
#579=DIRECTION('ref_axis',(1.,0.,0.));
#580=DIRECTION('',(0.,0.,1.));
#581=DIRECTION('center_axis',(-1.,0.,0.));
#582=DIRECTION('ref_axis',(0.,-1.,0.));
#583=DIRECTION('',(0.,1.,0.));
#584=DIRECTION('',(0.,-1.,0.));
#585=DIRECTION('',(0.,0.,1.));
#586=DIRECTION('center_axis',(0.,0.,1.));
#587=DIRECTION('ref_axis',(0.,-1.,0.));
#588=DIRECTION('center_axis',(0.,0.,-1.));
#589=DIRECTION('ref_axis',(0.,-1.,0.));
#590=DIRECTION('center_axis',(0.,0.,1.));
#591=DIRECTION('ref_axis',(0.,-1.,0.));
#592=DIRECTION('',(0.,0.,1.));
#593=DIRECTION('center_axis',(0.,1.,0.));
#594=DIRECTION('ref_axis',(-1.,0.,0.));
#595=DIRECTION('',(1.,0.,0.));
#596=DIRECTION('',(-1.,0.,0.));
#597=DIRECTION('center_axis',(0.,0.,1.));
#598=DIRECTION('ref_axis',(1.,0.,0.));
#599=DIRECTION('center_axis',(0.,0.,1.));
#600=DIRECTION('ref_axis',(1.,0.,0.));
#601=CARTESIAN_POINT('',(0.,0.,0.));
#602=CARTESIAN_POINT('Origin',(63.,-63.,3.));
#603=CARTESIAN_POINT('',(68.,-63.,0.));
#604=CARTESIAN_POINT('',(63.,-58.,0.));
#605=CARTESIAN_POINT('Origin',(63.,-63.,0.));
#606=CARTESIAN_POINT('',(68.,-63.,3.));
#607=CARTESIAN_POINT('',(68.,-63.,3.));
#608=CARTESIAN_POINT('',(63.,-58.,3.));
#609=CARTESIAN_POINT('Origin',(63.,-63.,3.));
#610=CARTESIAN_POINT('',(63.,-58.,3.));
#611=CARTESIAN_POINT('Origin',(-1.99999999999999,-58.,3.));
#612=CARTESIAN_POINT('',(-1.99999999999999,-58.,0.));
#613=CARTESIAN_POINT('',(-6.,-58.,0.));
#614=CARTESIAN_POINT('',(-1.99999999999999,-58.,3.));
#615=CARTESIAN_POINT('',(-6.,-58.,3.));
#616=CARTESIAN_POINT('',(-1.99999999999999,-58.,3.));
#617=CARTESIAN_POINT('Origin',(-1.99999999999999,-63.,3.));
#618=CARTESIAN_POINT('',(-6.99999999999999,-63.,0.));
#619=CARTESIAN_POINT('Origin',(-1.99999999999999,-63.,0.));
#620=CARTESIAN_POINT('',(-6.99999999999999,-63.,3.));
#621=CARTESIAN_POINT('Origin',(-1.99999999999999,-63.,3.));
#622=CARTESIAN_POINT('',(-6.99999999999999,-63.,3.));
#623=CARTESIAN_POINT('Origin',(-6.99999999999999,-83.,3.));
#624=CARTESIAN_POINT('',(-6.99999999999999,-83.,0.));
#625=CARTESIAN_POINT('',(-7.,-41.75,0.));
#626=CARTESIAN_POINT('',(-6.99999999999999,-83.,3.));
#627=CARTESIAN_POINT('',(-7.,-41.75,3.));
#628=CARTESIAN_POINT('',(-6.99999999999999,-83.,3.));
#629=CARTESIAN_POINT('Origin',(-1.99999999999999,-83.,3.));
#630=CARTESIAN_POINT('',(-1.99999999999999,-88.,0.));
#631=CARTESIAN_POINT('Origin',(-1.99999999999999,-83.,0.));
#632=CARTESIAN_POINT('',(-1.99999999999999,-88.,3.));
#633=CARTESIAN_POINT('Origin',(-1.99999999999999,-83.,3.));
#634=CARTESIAN_POINT('',(-1.99999999999999,-88.,3.));
#635=CARTESIAN_POINT('Origin',(63.,-88.,3.));
#636=CARTESIAN_POINT('',(63.,-88.,0.));
#637=CARTESIAN_POINT('',(26.5,-88.,0.));
#638=CARTESIAN_POINT('',(63.,-88.,3.));
#639=CARTESIAN_POINT('',(26.5,-88.,3.));
#640=CARTESIAN_POINT('',(63.,-88.,3.));
#641=CARTESIAN_POINT('Origin',(63.,-83.,3.));
#642=CARTESIAN_POINT('',(68.,-83.,0.));
#643=CARTESIAN_POINT('Origin',(63.,-83.,0.));
#644=CARTESIAN_POINT('',(68.,-83.,3.));
#645=CARTESIAN_POINT('Origin',(63.,-83.,3.));
#646=CARTESIAN_POINT('',(68.,-83.,3.));
#647=CARTESIAN_POINT('Origin',(68.,-63.,3.));
#648=CARTESIAN_POINT('',(68.,-31.75,0.));
#649=CARTESIAN_POINT('',(68.,-31.75,3.));
#650=CARTESIAN_POINT('Origin',(-92.,-92.,3.));
#651=CARTESIAN_POINT('',(-90.25,-92.,0.));
#652=CARTESIAN_POINT('Origin',(-92.,-92.,0.));
#653=CARTESIAN_POINT('',(-90.25,-92.,3.));
#654=CARTESIAN_POINT('Origin',(-92.,-92.,3.));
#655=CARTESIAN_POINT('Origin',(-92.,91.,3.));
#656=CARTESIAN_POINT('',(-90.25,91.,0.));
#657=CARTESIAN_POINT('Origin',(-92.,91.,0.));
#658=CARTESIAN_POINT('',(-90.25,91.,3.));
#659=CARTESIAN_POINT('Origin',(-92.,91.,3.));
#660=CARTESIAN_POINT('Origin',(72.,91.,3.));
#661=CARTESIAN_POINT('',(73.75,91.,0.));
#662=CARTESIAN_POINT('Origin',(72.,91.,0.));
#663=CARTESIAN_POINT('',(73.75,91.,3.));
#664=CARTESIAN_POINT('Origin',(72.,91.,3.));
#665=CARTESIAN_POINT('Origin',(72.,-92.,3.));
#666=CARTESIAN_POINT('',(73.75,-92.,0.));
#667=CARTESIAN_POINT('Origin',(72.,-92.,0.));
#668=CARTESIAN_POINT('',(73.75,-92.,3.));
#669=CARTESIAN_POINT('Origin',(72.,-92.,3.));
#670=CARTESIAN_POINT('Origin',(68.,87.,0.));
#671=CARTESIAN_POINT('',(68.,97.,0.));
#672=CARTESIAN_POINT('',(78.,87.,0.));
#673=CARTESIAN_POINT('Origin',(68.,87.,0.));
#674=CARTESIAN_POINT('',(68.,97.,3.));
#675=CARTESIAN_POINT('',(68.,97.,0.));
#676=CARTESIAN_POINT('',(78.,87.,3.));
#677=CARTESIAN_POINT('Origin',(68.,87.,3.));
#678=CARTESIAN_POINT('',(78.,87.,0.));
#679=CARTESIAN_POINT('Origin',(78.,-88.,0.));
#680=CARTESIAN_POINT('',(78.,-88.,0.));
#681=CARTESIAN_POINT('',(78.,87.,0.));
#682=CARTESIAN_POINT('',(78.,-88.,3.));
#683=CARTESIAN_POINT('',(78.,87.,3.));
#684=CARTESIAN_POINT('',(78.,-88.,0.));
#685=CARTESIAN_POINT('Origin',(68.,-88.,0.));
#686=CARTESIAN_POINT('',(68.,-98.,0.));
#687=CARTESIAN_POINT('Origin',(68.,-88.,0.));
#688=CARTESIAN_POINT('',(68.,-98.,3.));
#689=CARTESIAN_POINT('Origin',(68.,-88.,3.));
#690=CARTESIAN_POINT('',(68.,-98.,0.));
#691=CARTESIAN_POINT('Origin',(-88.,-98.,0.));
#692=CARTESIAN_POINT('',(-88.,-98.,0.));
#693=CARTESIAN_POINT('',(68.,-98.,0.));
#694=CARTESIAN_POINT('',(-88.,-98.,3.));
#695=CARTESIAN_POINT('',(68.,-98.,3.));
#696=CARTESIAN_POINT('',(-88.,-98.,0.));
#697=CARTESIAN_POINT('Origin',(-88.,-88.,0.));
#698=CARTESIAN_POINT('',(-98.,-88.,0.));
#699=CARTESIAN_POINT('Origin',(-88.,-88.,0.));
#700=CARTESIAN_POINT('',(-98.,-88.,3.));
#701=CARTESIAN_POINT('Origin',(-88.,-88.,3.));
#702=CARTESIAN_POINT('',(-98.,-88.,0.));
#703=CARTESIAN_POINT('Origin',(-98.,87.,0.));
#704=CARTESIAN_POINT('',(-98.,87.,0.));
#705=CARTESIAN_POINT('',(-98.,-88.,0.));
#706=CARTESIAN_POINT('',(-98.,87.,3.));
#707=CARTESIAN_POINT('',(-98.,-88.,3.));
#708=CARTESIAN_POINT('',(-98.,87.,0.));
#709=CARTESIAN_POINT('Origin',(-88.,87.,0.));
#710=CARTESIAN_POINT('',(-88.,97.,0.));
#711=CARTESIAN_POINT('Origin',(-88.,87.,0.));
#712=CARTESIAN_POINT('',(-88.,97.,3.));
#713=CARTESIAN_POINT('Origin',(-88.,87.,3.));
#714=CARTESIAN_POINT('',(-88.,97.,0.));
#715=CARTESIAN_POINT('Origin',(68.,97.,0.));
#716=CARTESIAN_POINT('',(-88.,97.,0.));
#717=CARTESIAN_POINT('',(-88.,97.,3.));
#718=CARTESIAN_POINT('Origin',(-10.,-0.500000000000011,0.));
#719=CARTESIAN_POINT('Origin',(-10.,-0.500000000000011,3.));
#720=UNCERTAINTY_MEASURE_WITH_UNIT(LENGTH_MEASURE(0.01),#724,
'DISTANCE_ACCURACY_VALUE',
'Maximum model space distance between geometric entities at asserted c
onnectivities');
#721=UNCERTAINTY_MEASURE_WITH_UNIT(LENGTH_MEASURE(1.E-006),#724,
'DISTANCE_ACCURACY_VALUE',
'Maximum model space distance between geometric entities at asserted c
onnectivities');
#722=(
GEOMETRIC_REPRESENTATION_CONTEXT(3)
GLOBAL_UNCERTAINTY_ASSIGNED_CONTEXT((#720))
GLOBAL_UNIT_ASSIGNED_CONTEXT((#724,#727,#725))
REPRESENTATION_CONTEXT('','3D')
);
#723=(
GEOMETRIC_REPRESENTATION_CONTEXT(3)
GLOBAL_UNCERTAINTY_ASSIGNED_CONTEXT((#721))
GLOBAL_UNIT_ASSIGNED_CONTEXT((#724,#727,#725))
REPRESENTATION_CONTEXT('','3D')
);
#724=(
LENGTH_UNIT()
NAMED_UNIT(*)
SI_UNIT(.MILLI.,.METRE.)
);
#725=(
NAMED_UNIT(*)
SI_UNIT($,.STERADIAN.)
SOLID_ANGLE_UNIT()
);
#726=DIMENSIONAL_EXPONENTS(0.,0.,0.,0.,0.,0.,0.);
#727=(
CONVERSION_BASED_UNIT('degree',#729)
NAMED_UNIT(#726)
PLANE_ANGLE_UNIT()
);
#728=(
NAMED_UNIT(*)
PLANE_ANGLE_UNIT()
SI_UNIT($,.RADIAN.)
);
#729=PLANE_ANGLE_MEASURE_WITH_UNIT(PLANE_ANGLE_MEASURE(0.01745329252),#728);
#730=SHAPE_DEFINITION_REPRESENTATION(#731,#732);
#731=PRODUCT_DEFINITION_SHAPE('',$,#734);
#732=SHAPE_REPRESENTATION('',(#428),#722);
#733=PRODUCT_DEFINITION_CONTEXT('part definition',#738,'design');
#734=PRODUCT_DEFINITION('Tuercoinomat','Tuercoinomat',#735,#733);
#735=PRODUCT_DEFINITION_FORMATION('',$,#740);
#736=PRODUCT_RELATED_PRODUCT_CATEGORY('Tuercoinomat','Tuercoinomat',(#740));
#737=APPLICATION_PROTOCOL_DEFINITION('international standard',
'automotive_design',2009,#738);
#738=APPLICATION_CONTEXT(
'Core Data for Automotive Mechanical Design Process');
#739=PRODUCT_CONTEXT('part definition',#738,'mechanical');
#740=PRODUCT('Tuercoinomat','Tuercoinomat',$,(#739));
#741=PRESENTATION_STYLE_ASSIGNMENT((#742));
#742=SURFACE_STYLE_USAGE(.BOTH.,#743);
#743=SURFACE_SIDE_STYLE($,(#744));
#744=SURFACE_STYLE_FILL_AREA(#745);
#745=FILL_AREA_STYLE($,(#746));
#746=FILL_AREA_STYLE_COLOUR($,#747);
#747=COLOUR_RGB('',0.8,0.8,0.8);
ENDSEC;
END-ISO-10303-21;
